<svg xmlns="http://www.w3.org/2000/svg" viewBox="0 0 289.9 107.01"><defs><style>.cls-1,.cls-2{fill:#007cc3;}.cls-1{fill-rule:evenodd;}</style></defs><title>1Asset 1</title><g id="Layer_2" data-name="Layer 2"><g id="Layer_1-2" data-name="Layer 1"><path class="cls-1" d="M281.13,17.53a8.77,8.77,0,1,0-8.76-8.76,8.77,8.77,0,0,0,8.76,8.76Zm-7.46-8.76a7.46,7.46,0,1,1,7.46,7.46,7.48,7.48,0,0,1-7.46-7.46Zm4.14,4.4h1.68V9.44h2l1.45,3.73h1.87l-1.72-4a2.23,2.23,0,0,0,1.61-2.28c0-2.68-2-3-3.77-3h-3.1v9.25Zm1.68-7.65h1.87c1,0,1.56.41,1.56,1.23S282.29,8,281.51,8h-2V5.52Z"/><polygon class="cls-2" points="0 12.69 0 12.56 0 2.24 10.37 2.24 10.37 12.59 10.37 12.69 10.37 77.98 10.38 78.22 10.38 88.44 0 88.44 0 78.11 0 77.98 0 12.69 0 12.69"/><path class="cls-2" d="M105.47,57.05c.26,15.66,10,28.19,21.79,28S148.35,72,148.08,56.28s-10-28.19-21.79-28S105.2,41.38,105.47,57.05ZM191.34,38.1c.28.6-.37-.89-.37-.89l.37.89ZM198.41,103c.48-.81,1.14-2,1.93-3.59L198.41,103ZM199,32.7c.13.34.27.71.44,1.09L203,42.34,199,32.7Zm-43.46,43c6.41,5.82,12.19,8.83,19.57,8.83,7.55.06,14.27-3.64,14.27-10.75,0-5.93-5.26-9.4-14.66-13.37-8-3.45-13.9-5.86-17-10.85a38.74,38.74,0,0,1,.58,6.7c0,19.24-14,34.83-31.19,34.83S96,75.52,96,56.28c0-11.6,5.08-21.88,12.88-28.21H87.73V88.44H78.36V28.07H70.1V21.79h8.38C79.57,9.12,87.42,2,98.29,2c7.06,0,10.93.73,13.16,1.77v8.59c0,.64,0,1,0,1h-.33c-3.39-3.13-6.74-5.46-14.56-5.46-6.23,0-10.35,5.06-8.91,13.92H122.7a28.27,28.27,0,0,1,4.43-.35c12.5,0,23.28,8.21,28.25,20.06,0-.66-.07-1.34-.07-2.06,0-12.37,12-17.63,24.43-17.6.47,0,.94,0,1.39,0,4.39-.07,10.63,1.36,14.43,2.36L199,32.7,203,42.34,213.5,68.07l1.24,4.14,1.38-4.14,13.35-33c2.46-9.09,12.21-13,23-13a38.3,38.3,0,0,1,14,2.28v10c-5.84-4.24-10-6.7-16.64-6.7C244,27.61,237,30.18,237,38.74c-.12,6.44,3.75,7.62,15.08,13.24,9.32,4,17.91,8.5,18,18.84,0,17.23-17,20.21-25.25,20.24-7.38,0-14.15-1.82-17.91-5V74.74l.6.5c6.72,6.26,12.65,9.51,20.32,9.51S262.11,81.11,262.11,74c0-5.93-5.26-9.4-14.66-13.37-9-3.89-14.89-6.47-17.3-12.91-3.66,8.94-20.7,50.43-24.72,59.29h-9.19l2.17-4.05,1.93-3.59.06-.12c2.3-4.53,5.66-11.65,8.64-18.46L191.34,38.1c-.11-.26-.4-.91-1-2.26-1.35-3.09-2.62-5.94-6.44-7.38a20.67,20.67,0,0,0-6.76-1.05c-5.82,0-13.26,2.57-13.26,11.13-.11,6.44,4.2,7.62,15.53,13.24,9.32,4,17.91,8.5,18,18.84,0,17.23-17,20.21-25.25,20.24-6.57,0-12.65-1.44-16.56-4V75.72Z"/><path class="cls-2" d="M29.73,22.43,29.84,30v.51h.1a3,3,0,0,1,.43-.78c3.81-4.09,8.62-8.14,20-8.14,10.92,0,18,9.27,18.28,15.11V88.44H59.33V41c0-7.28-6.39-12.54-14.21-12.54-6.51,0-14.86,5.85-15.13,11.77V88.45H20.61v-66h9.11Z"/></g></g></svg>