<svg xmlns="http://www.w3.org/2000/svg" viewBox="0 0 481.89 255.12"><defs><style>.cls-1{fill:#c4161c;}.cls-2,.cls-3{fill:#fff;}.cls-2{fill-rule:evenodd;}</style></defs><title>1Asset 1</title><g id="Layer_2" data-name="Layer 2"><g id="Layer_1-2" data-name="Layer 1"><rect class="cls-1" width="481.89" height="255.12" rx="8.5" ry="8.5"/><path class="cls-2" d="M383.1,187.18a6.45,6.45,0,0,1-2.07.19,8.39,8.39,0,0,1-2.16-.11c-.63-.19-.82-1.38-1.08-2.15-.79-2.36-4.38-12.75-5.19-15.23-.23-.69-.32-1.33-.94-1.33-.42,0-.42.95-.42,1.78V185c0,.75.07,1.93-.23,2.19a5,5,0,0,1-2,.19c-.61,0-1.59.06-1.87-.19s-.24-1.08-.24-1.79V157.28c0-.66,0-1.58.2-1.8a1.47,1.47,0,0,1,.68-.2c.59-.07,1.27,0,2.12,0a4.42,4.42,0,0,1,1.92.2c.23.17.33.65.47,1.16s.3.89.4,1.23c1,3.42,4.48,14.55,4.75,15.38s.64,1.87,1.17,1.87.35-1.21.35-2V157.92c0-.76-.11-2,.16-2.36s2.26-.35,3.16-.28a1.52,1.52,0,0,1,.87.24c.26.24.2,1.1.2,1.84v28.07A3,3,0,0,1,383.1,187.18Z"/><path class="cls-2" d="M316.43,155.4c1.28-.07,2.86,0,4.27,0s2.85-.1,4.07,0a9.34,9.34,0,0,1,2,.44,7.05,7.05,0,0,1,1.24.56,5.51,5.51,0,0,1,2.47,2.91,10.24,10.24,0,0,1,.45,2c.05.37.11,3.42.11,4.67a23.46,23.46,0,0,1-.19,3.32,6.89,6.89,0,0,1-2.4,4.14c.14.77.38,1.72.6,2.56.66,2.61,1.34,5.19,2,8,.11.45.93,2.78.72,3.19s-1.59.24-2.11.24a5.88,5.88,0,0,1-2.2-.12c-.3-.18-.42-.78-.56-1.31-.77-3.1-1.4-5.89-2.2-9a2.55,2.55,0,0,0-.71-1.51,3.48,3.48,0,0,0-3.16.08c-.49.48-.4,1.58-.4,2.67v6.15c0,.86.2,2.56-.16,2.91s-1.25.16-1.95.16-1.65.13-2-.12-.2-1.13-.2-1.83V157.12C316.15,156.53,316,155.83,316.43,155.4Zm4.35,4.79c-.41.46-.36,1.52-.36,2.36v5.51c0,1.51,0,2.32.84,2.63a6.62,6.62,0,0,0,2.8,0,3.91,3.91,0,0,0,.63-.12,3.29,3.29,0,0,0,1.72-1.43c.48-.92.4-2.61.4-4s.08-3-.36-3.87c-.67-1.32-2.58-1.8-4.75-1.48A1.48,1.48,0,0,0,320.78,160.19Z"/><path class="cls-2" d="M395.49,155a10.36,10.36,0,0,1,2,0,9.56,9.56,0,0,1,1.16.24,5.88,5.88,0,0,1,1.91.88A9.12,9.12,0,0,1,402,157.2a2.92,2.92,0,0,1,.28.32,7.37,7.37,0,0,1,1.68,3.39,16.47,16.47,0,0,1,.18,2.82c0,.51.09,1.55-.18,1.89s-1.45.26-2.06.26-1.8.12-2.1-.18-.2-1.13-.2-1.63a7.88,7.88,0,0,0-.31-3,3.27,3.27,0,0,0-1.8-1.68,3.1,3.1,0,0,0-2.4.16,2.48,2.48,0,0,0-1.12,1,4,4,0,0,0-.67,1.84c-.13,1.38,0,2.92,0,4.43,0,2.88,0,6,0,8.87,0,2.1-.28,4.79.52,6.06a3.07,3.07,0,0,0,.91.92,2.85,2.85,0,0,0,2.12.56,3.19,3.19,0,0,0,2.64-2.44,24.23,24.23,0,0,0,.11-3.83,1.37,1.37,0,0,1,.28-.84A6.71,6.71,0,0,1,402,176c.54,0,1.65-.08,1.93.26a6.64,6.64,0,0,1,.22,2.39c0,.92,0,1.75-.1,2.48a7.78,7.78,0,0,1-.44,1.8,7.18,7.18,0,0,1-1.2,2,7.48,7.48,0,0,1-6.67,2.75,7,7,0,0,1-2.08-.56,5.36,5.36,0,0,1-1.63-.95,7.16,7.16,0,0,1-2.84-4.52,36.18,36.18,0,0,1-.12-5.47V164a14.21,14.21,0,0,1,.24-3.56,7.64,7.64,0,0,1,1.36-2.63,6.16,6.16,0,0,1,1.36-1.28,9.5,9.5,0,0,1,2.15-1.16A6.54,6.54,0,0,1,395.49,155Z"/><path class="cls-2" d="M420.17,173.33a2.34,2.34,0,0,1-1.36.2h-1.55c-1.14,0-2.78-.22-3.28.4a4,4,0,0,0-.28,2.11v4.75c0,.83,0,1.57.44,1.92a1.79,1.79,0,0,0,.88.28,31,31,0,0,0,3.79,0,27.66,27.66,0,0,1,3.72.08c.39.25.32,1.39.32,2.09,0,.9,0,1.56-.29,1.93a3.75,3.75,0,0,1-1.55.17h-9.9c-.53,0-1.31.07-1.52-.12s-.24-1.09-.24-1.79V157.28a9.86,9.86,0,0,1,.08-1.44c.07-.4.25-.51.64-.56a26.11,26.11,0,0,1,3.19,0h6.39c1,0,2.7-.16,3,.32a4.66,4.66,0,0,1,.18,1.91,3.92,3.92,0,0,1-.22,1.84c-.27.32-1.21.28-2,.28h-4.47c-1,0-1.85-.07-2.24.4-.51.62-.28,3.17-.28,4.31v2.32c0,1-.08,2,.56,2.32a10.09,10.09,0,0,0,3,.16c.61,0,2.58-.21,2.91.19s.12,1.42.12,2A6.25,6.25,0,0,1,420.17,173.33Z"/><path class="cls-2" d="M359.24,173.33a2.34,2.34,0,0,1-1.36.2h-1.56c-1.14,0-2.77-.22-3.27.4a4,4,0,0,0-.28,2.11v4.75c0,.83,0,1.57.44,1.92a1.76,1.76,0,0,0,.88.28,30.92,30.92,0,0,0,3.79,0,27.51,27.51,0,0,1,3.71.08c.4.25.33,1.39.33,2.09,0,.9,0,1.56-.29,1.93a3.78,3.78,0,0,1-1.55.17h-9.91c-.52,0-1.31.07-1.51-.12s-.24-1.09-.24-1.79V157.28a8.64,8.64,0,0,1,.08-1.44c.07-.4.25-.51.64-.56a26.11,26.11,0,0,1,3.19,0h6.39c.95,0,2.7-.16,3,.32a4.47,4.47,0,0,1,.19,1.91,3.78,3.78,0,0,1-.23,1.84c-.26.32-1.2.28-1.95.28h-4.47c-1,0-1.85-.07-2.24.4-.51.62-.28,3.17-.28,4.31v2.32c0,1-.08,2,.56,2.32a10,10,0,0,0,3,.16c.61,0,2.58-.21,2.92.19s.12,1.42.12,2A6.25,6.25,0,0,1,359.24,173.33Z"/><path class="cls-2" d="M308.75,173.33a2.34,2.34,0,0,1-1.36.2h-1.55c-1.14,0-2.78-.22-3.28.4a4,4,0,0,0-.28,2.11v4.75c0,.83,0,1.57.44,1.92a1.79,1.79,0,0,0,.88.28,31,31,0,0,0,3.79,0,27.71,27.71,0,0,1,3.72.08c.39.25.32,1.39.32,2.09,0,.9,0,1.56-.29,1.93a3.78,3.78,0,0,1-1.55.17h-9.9c-.53,0-1.32.07-1.52-.12s-.24-1.09-.24-1.79V157.28a9.86,9.86,0,0,1,.08-1.44c.07-.4.25-.51.64-.56a26.11,26.11,0,0,1,3.19,0h6.39c.95,0,2.7-.16,3,.32a4.66,4.66,0,0,1,.18,1.91,3.92,3.92,0,0,1-.22,1.84c-.27.32-1.21.28-2,.28H304.8c-.95,0-1.85-.07-2.24.4-.51.62-.28,3.17-.28,4.31v2.32c0,1-.08,2,.56,2.32a10.09,10.09,0,0,0,3,.16c.61,0,2.57-.21,2.91.19s.12,1.42.12,2A6.25,6.25,0,0,1,308.75,173.33Z"/><path class="cls-2" d="M248.81,173.33a2.34,2.34,0,0,1-1.36.2H245.9c-1.14,0-2.78-.22-3.28.4a4,4,0,0,0-.28,2.11v4.75c0,.83,0,1.57.44,1.92a1.79,1.79,0,0,0,.88.28,31,31,0,0,0,3.79,0,27.71,27.71,0,0,1,3.72.08c.39.25.32,1.39.32,2.09,0,.9,0,1.56-.29,1.93a3.78,3.78,0,0,1-1.55.17h-9.9c-.53,0-1.32.07-1.52-.12s-.24-1.09-.24-1.79V157.28a9.86,9.86,0,0,1,.08-1.44c.07-.4.25-.51.64-.56a26.11,26.11,0,0,1,3.19,0h6.39c1,0,2.7-.16,3,.32a4.66,4.66,0,0,1,.18,1.91,3.92,3.92,0,0,1-.22,1.84c-.27.32-1.21.28-2,.28h-4.47c-1,0-1.85-.07-2.24.4-.51.62-.28,3.17-.28,4.31v2.32c0,1-.08,2,.56,2.32a10.09,10.09,0,0,0,3,.16c.61,0,2.58-.21,2.91.19s.12,1.42.12,2A6.25,6.25,0,0,1,248.81,173.33Z"/><path class="cls-2" d="M193.39,155.4c.43,0,.4.52.51,1.12.35,2,.78,4.57,1.13,6.59,1.05,6,3.66,21.63,3.72,22,.08.55.4,1.62.15,2s-1.5.25-2.05.25a5.15,5.15,0,0,1-2.1-.17c-.31-.2-.39-.94-.48-1.59-.17-1.23-.37-2.35-.56-3.56-.11-.72-.15-1.56-.64-1.91s-1.89-.32-3.07-.32-1.86,0-2.24.64a4.94,4.94,0,0,0-.4,1.71c-.16,1.22-.37,2.4-.56,3.64a2,2,0,0,1-.6,1.47,16.76,16.76,0,0,1-2,.07c-.48,0-1.72.14-2-.19s-.05-.73,0-1c.12-.75.21-1.36.32-2,.62-3.58,1.23-7.39,1.88-11,.42-2.33,1.9-11.3,2.12-12.5.18-1,.46-2.81.7-3.94.14-.72.22-1.22.61-1.25C189.66,155.34,191.59,155.33,193.39,155.4Zm-3.6,10.5c-.07.37-1.15,7.82-1.19,8.15-.07.69.1,1.21.52,1.43a5.4,5.4,0,0,0,2.32.17,1.14,1.14,0,0,0,1.07-1.08c.07-.51-1.06-7.9-1.11-8.19-.15-.91-.33-1.91-.86-1.91S189.87,165.45,189.79,165.9Z"/><path class="cls-2" d="M168.67,155a10.25,10.25,0,0,1,2,0,9.18,9.18,0,0,1,1.16.24,5.93,5.93,0,0,1,1.92.88,9.12,9.12,0,0,1,1.44,1.12c.09.09.19.21.28.32a7.26,7.26,0,0,1,1.67,3.39,15.42,15.42,0,0,1,.19,2.82c0,.51.08,1.55-.19,1.89s-1.44.26-2.05.26-1.8.12-2.1-.18-.2-1.13-.2-1.63a7.86,7.86,0,0,0-.32-3,3.21,3.21,0,0,0-1.8-1.68,3.07,3.07,0,0,0-2.39.16,2.38,2.38,0,0,0-1.12,1,4,4,0,0,0-.68,1.84c-.12,1.38,0,2.92,0,4.43v8.87c0,2.1-.28,4.79.52,6.06a3,3,0,0,0,.92.92,2.82,2.82,0,0,0,2.12.56,3.16,3.16,0,0,0,2.63-2.44,24.12,24.12,0,0,0,.12-3.83,1.37,1.37,0,0,1,.28-.84,6.65,6.65,0,0,1,2.14-.14c.55,0,1.66-.08,1.93.26a6.4,6.4,0,0,1,.23,2.39c0,.92,0,1.75-.11,2.48a6.88,6.88,0,0,1-.44,1.8,7.4,7.4,0,0,1-1.19,2,7.48,7.48,0,0,1-6.67,2.75,7,7,0,0,1-2.08-.56,5.29,5.29,0,0,1-1.64-.95,7.19,7.19,0,0,1-2.83-4.52,36.18,36.18,0,0,1-.12-5.47V164a13.75,13.75,0,0,1,.24-3.56,7.47,7.47,0,0,1,1.36-2.63,6.11,6.11,0,0,1,1.35-1.28,9.55,9.55,0,0,1,2.16-1.16A6.54,6.54,0,0,1,168.67,155Z"/><path class="cls-2" d="M94.55,187.29a6.79,6.79,0,0,1-2.68-.1c-.45-.3-.71-1.46-.87-2.12-.18-.82-.36-1.61-.51-2.28-.73-3.1-1.41-5.86-2.12-9.06-.16-.7-.37-1.54-.56-2.24s-.36-1.86-.92-1.87a.61.61,0,0,0-.55.45,19.81,19.81,0,0,0-.09,2.74v12.54c0,.67,0,1.6-.24,1.83s-1.29.2-2,.2-1.6.08-1.91-.2-.24-2.93-.24-3.79V157.28c0-.7,0-1.57.2-1.8a1.61,1.61,0,0,1,.68-.2,26.25,26.25,0,0,1,2.74-.05,7.26,7.26,0,0,1,2.69.21c.44.28.62,1.89.76,2.56.4,2,.68,3.61,1.08,5.54.55,2.75,1,5.41,1.63,8.31.18.83.53,2.38.69,3.35s.38,1.72.87,1.72.74-1.16.88-1.71.36-1.76.4-2c.57-3.26,1.22-6.39,1.8-9.67.39-2.25.84-4.51,1.31-6.86.11-.51.19-1.07.4-1.24.47-.37,2-.24,2.91-.24.52,0,1.2,0,1.72,0s1.18,0,1.36.24a5.4,5.4,0,0,1,.12,1.88v27.95c0,.64.07,1.57-.16,1.79s-1.31.24-1.92.24a4.73,4.73,0,0,1-2-.2c-.3-.24-.2-1.48-.2-2.07,0-3.83,0-12.76,0-13.66,0-.15,0-1.57-.64-1.64s-.77,1.17-.92,1.84c-1,4.57-1.86,9.06-2.87,13.62C95.27,186,95.09,187,94.55,187.29Z"/><path class="cls-2" d="M121.47,173.33a2.34,2.34,0,0,1-1.36.2h-1.55c-1.14,0-2.78-.22-3.28.4A4,4,0,0,0,115,176v4.75c0,.83,0,1.57.44,1.92a1.79,1.79,0,0,0,.88.28,31,31,0,0,0,3.79,0,27.66,27.66,0,0,1,3.72.08c.39.25.32,1.39.32,2.09,0,.9,0,1.56-.29,1.93a3.75,3.75,0,0,1-1.55.17h-9.9c-.53,0-1.31.07-1.52-.12s-.24-1.09-.24-1.79V157.28a9.86,9.86,0,0,1,.08-1.44c.07-.4.25-.51.64-.56a26.11,26.11,0,0,1,3.19,0H121c1,0,2.7-.16,3,.32a4.66,4.66,0,0,1,.18,1.91,3.92,3.92,0,0,1-.22,1.84c-.27.32-1.21.28-2,.28h-4.47c-1,0-1.85-.07-2.24.4-.51.62-.28,3.17-.28,4.31v2.32c0,1-.08,2,.56,2.32a10.09,10.09,0,0,0,3,.16c.61,0,2.58-.21,2.91.19s.12,1.42.12,2A6.25,6.25,0,0,1,121.47,173.33Z"/><path class="cls-2" d="M220.7,187.18a6.55,6.55,0,0,1-2.08.19,8.39,8.39,0,0,1-2.16-.11c-.63-.19-.81-1.38-1.07-2.15-.8-2.36-4.39-12.75-5.2-15.23-.23-.69-.32-1.33-.94-1.33-.41,0-.41.95-.41,1.78V185c0,.75.06,1.93-.24,2.19a5,5,0,0,1-2,.19c-.61,0-1.6.06-1.88-.19s-.23-1.08-.23-1.79c0-9.38,0-18.68,0-28.11a4.21,4.21,0,0,1,.19-1.8,1.47,1.47,0,0,1,.68-.2c.6-.07,1.27,0,2.12,0a4.41,4.41,0,0,1,1.92.2c.23.17.33.65.47,1.16s.31.89.4,1.23c1,3.42,4.49,14.55,4.76,15.38s.63,1.87,1.16,1.87.35-1.21.35-2V157.92a6.39,6.39,0,0,1,.16-2.36c.37-.44,2.26-.35,3.16-.28a1.58,1.58,0,0,1,.88.24c.25.24.2,1.1.2,1.84v28.07A3,3,0,0,1,220.7,187.18Z"/><path class="cls-2" d="M70.28,155.4c.43,0,.4.52.51,1.12.35,2,.78,4.57,1.13,6.59,1,6,3.66,21.63,3.72,22,.08.55.4,1.62.15,2s-1.5.25-2.05.25a5.15,5.15,0,0,1-2.1-.17c-.31-.2-.39-.94-.48-1.59-.17-1.23-.37-2.35-.56-3.56-.11-.72-.15-1.56-.64-1.91s-1.9-.32-3.07-.32-1.86,0-2.24.64a4.94,4.94,0,0,0-.4,1.71c-.16,1.22-.37,2.4-.56,3.64a2,2,0,0,1-.6,1.47,16.76,16.76,0,0,1-2,.07c-.48,0-1.72.14-2-.19s-.05-.73,0-1c.12-.75.2-1.36.32-2,.62-3.58,1.23-7.39,1.88-11,.42-2.33,1.9-11.3,2.11-12.5.19-1,.47-2.81.71-3.94.14-.72.21-1.22.61-1.25C66.54,155.34,68.48,155.33,70.28,155.4Zm-3.6,10.5c-.07.37-1.15,7.82-1.19,8.15-.08.69.09,1.21.52,1.43a5.4,5.4,0,0,0,2.32.17,1.14,1.14,0,0,0,1.07-1.08c.07-.51-1.07-7.9-1.11-8.19-.15-.91-.33-1.91-.86-1.91S66.76,165.45,66.68,165.9Z"/><path class="cls-2" d="M129.9,155.4c1.28-.07,2.86,0,4.27,0s2.85-.1,4.07,0a9.34,9.34,0,0,1,2,.44,7.4,7.4,0,0,1,1.24.56,5.51,5.51,0,0,1,2.47,2.91,10.25,10.25,0,0,1,.44,2c.06.37.12,3.42.12,4.67a23.42,23.42,0,0,1-.2,3.32,6.79,6.79,0,0,1-2.4,4.14c.15.77.39,1.72.6,2.56.66,2.61,1.35,5.19,2,8,.11.45.93,2.78.72,3.19s-1.59.24-2.12.24a5.81,5.81,0,0,1-2.19-.12c-.3-.18-.43-.78-.56-1.31-.78-3.1-1.4-5.89-2.2-9a2.56,2.56,0,0,0-.72-1.51,3.46,3.46,0,0,0-3.15.08c-.49.48-.4,1.58-.4,2.67v6.15c0,.86.2,2.56-.16,2.91s-1.25.16-2,.16-1.64.13-2-.12-.2-1.13-.2-1.83V157.12C129.62,156.53,129.46,155.83,129.9,155.4Zm4.35,4.79c-.41.46-.36,1.52-.36,2.36v5.51c0,1.51,0,2.32.84,2.63a6.57,6.57,0,0,0,2.79,0,3.84,3.84,0,0,0,.64-.12,3.32,3.32,0,0,0,1.72-1.43c.48-.92.4-2.61.4-4s.08-3-.36-3.87c-.67-1.32-2.59-1.8-4.75-1.48A1.48,1.48,0,0,0,134.25,160.19Z"/><path class="cls-2" d="M151.78,155.4a7.49,7.49,0,0,1,2-.13,4.24,4.24,0,0,1,1.78.21c.29.22.2,1.28.2,1.84v28.07c0,.67.06,1.59-.2,1.79s-1.31.12-2,.12-1.67.1-1.92-.16-.16-1.08-.16-1.87V157.08C151.46,156.52,151.29,155.8,151.78,155.4Z"/><path class="cls-2" d="M337.81,155.4a7.62,7.62,0,0,1,2-.13,4.26,4.26,0,0,1,1.78.21c.28.22.2,1.28.2,1.84v28.07c0,.67.06,1.59-.2,1.79s-1.32.12-2,.12-1.66.1-1.92-.16-.16-1.08-.16-1.87V157.08C337.49,156.52,337.32,155.8,337.81,155.4Z"/><path class="cls-2" d="M256.23,187.18c-.27-.31.33-1.41.56-2,.67-1.78,1.39-3.67,2.12-5.47s1.51-4,2.32-6a13.88,13.88,0,0,0,.75-1.88,4.52,4.52,0,0,0-.56-2.71c-1.57-4-3.06-7.74-4.67-11.78-.08-.21-.27-.61-.4-1-.21-.6-.27-.93.2-1a12.17,12.17,0,0,1,2.14-.08,5.9,5.9,0,0,1,1.78.16c.56.22.9,1.52,1.11,2.16.58,1.71,1.16,3,1.76,4.79.25.74.53,2,1.24,2s1.06-1.34,1.32-2c.37-1,1.54-4.39,1.71-4.83.26-.65.55-2,1.12-2.16a7.05,7.05,0,0,1,2.07-.09c.52,0,2-.14,2.2.25s-.49,1.63-.63,2c-1.55,3.89-3,7.6-4.56,11.5a5.47,5.47,0,0,0-.67,2.31,7.49,7.49,0,0,0,.67,2c.52,1.3,1,2.6,1.52,3.91,1.18,2.92,2.29,5.69,3.43,8.79.15.38.38.74.24,1s-1.49.3-2,.3a7.72,7.72,0,0,1-2.14-.14c-.47-.17-.66-1.09-.88-1.67-.08-.22-2.35-6.38-2.51-6.75s-.41-.85-.8-.88c-.84-.05-1.09,1.35-1.36,2.08-.8,2.17-1.46,4-2.31,6.19-.18.46-.24.85-.59,1a7.65,7.65,0,0,1-2.17.1A6.61,6.61,0,0,1,256.23,187.18Z"/><path class="cls-2" d="M282.18,187.12c-.38.28-1.24.18-1.95.18a6,6,0,0,1-2-.12,3.1,3.1,0,0,1-.24-1.79V159c0-1-.25-3.42.4-3.63a9.78,9.78,0,0,1,2.19,0l4.68,0a18.18,18.18,0,0,1,2.71.34,6.44,6.44,0,0,1,4.35,3.83,7.29,7.29,0,0,1,.52,2,27.19,27.19,0,0,1,.12,3.63c0,1,.08,2,0,2.92,0,.33-.11.67-.16,1a7.07,7.07,0,0,1-2.6,4.35,7.4,7.4,0,0,1-3.83,1.64c-.6.05-1.77,0-2.44,0a1.5,1.5,0,0,0-1.19.35c-.44.46-.36,1.72-.36,2.75v6.23C282.43,185.39,282.6,186.71,282.18,187.12Zm.49-26.89a5.84,5.84,0,0,0-.24,2.48v5.43c0,1.56-.08,2.4,1.08,2.63a8,8,0,0,0,2.55,0,3.38,3.38,0,0,0,1.72-.76,6.53,6.53,0,0,0,.68-.95,9.21,9.21,0,0,0,.47-3.79c0-.85,0-1.53-.11-2.36a4,4,0,0,0-.52-1.68,2.67,2.67,0,0,0-1.2-1.08,7.35,7.35,0,0,0-3.43-.32A1.4,1.4,0,0,0,282.67,160.23Z"/><path class="cls-3" d="M153.94,51v-.76h2.93V51h-1.2l1.45,5.93L159,50.24h1.47l1.88,6.69,1.4-5.93h-1.2v-.76h2.85V51h-.65L163,58H161.6l-1.92-6.93L157.76,58h-1.42l-1.74-7Z"/><path class="cls-3" d="M173.11,54.13a4.19,4.19,0,0,1,1-3,4.46,4.46,0,0,1,5.84,0,4.19,4.19,0,0,1,1,3,4.11,4.11,0,0,1-1,3,4.44,4.44,0,0,1-5.84,0A4.16,4.16,0,0,1,173.11,54.13Zm1.1,0a3.6,3.6,0,0,0,.67,2.3,2.93,2.93,0,0,0,4.3,0,4.28,4.28,0,0,0,0-4.6,2.59,2.59,0,0,0-2.15-1,2.56,2.56,0,0,0-2.14,1A3.56,3.56,0,0,0,174.21,54.12Z"/><path class="cls-3" d="M191,57.23h1.16V58h-3.29v-.81h1.07V51h-1.07v-.76h3.35a10.57,10.57,0,0,1,1.18,0,2.34,2.34,0,0,1,1.11.37,1.91,1.91,0,0,1,.79,1.65,1.85,1.85,0,0,1-1.71,2,1.5,1.5,0,0,1,.73.32,1.77,1.77,0,0,1,.4.71l.61,1.91h.82V58h-1.66l-.85-2.54a1.23,1.23,0,0,0-.48-.69,2.35,2.35,0,0,0-1.12-.2h-1ZM191,51v2.82h1.22c1.33,0,2-.47,2-1.42a1.2,1.2,0,0,0-.61-1.16,3.1,3.1,0,0,0-1.38-.24Z"/><path class="cls-3" d="M203.64,58v-.81h1.07V51h-1.07v-.76h3.29V51h-1.16v2.8l3-2.8h-.95v-.76h2.95V51h-.63L207,53.82l3.17,3.41h.8V58h-3.16v-.81h1l-3.09-3.43v3.43h1.16V58Z"/><path class="cls-3" d="M227.14,58l-.86-.9a3.29,3.29,0,0,1-2.57,1.06,3.16,3.16,0,0,1-1.92-.53,2.06,2.06,0,0,1-.83-1.76,2.54,2.54,0,0,1,1.78-2.33,2.66,2.66,0,0,1-1.08-1.86,1.43,1.43,0,0,1,.7-1.27,2.59,2.59,0,0,1,1.47-.38,2.4,2.4,0,0,1,1.43.39,1.54,1.54,0,0,1,.62,1.31c0,.82-.54,1.49-1.61,2l2,2a3.44,3.44,0,0,0,.45-1.61h-.92v-.79h2.89v.79h-1a4.56,4.56,0,0,1-.76,2.25l.83.85h1.14V58Zm-3.76-3.77a1.87,1.87,0,0,0-1.3,1.68,1.28,1.28,0,0,0,.53,1.09,2,2,0,0,0,1.21.36,2.29,2.29,0,0,0,1.83-.85Zm.28-1.12c.81-.44,1.21-.91,1.21-1.41a.81.81,0,0,0-.33-.68,1.22,1.22,0,0,0-.74-.21,1.28,1.28,0,0,0-.73.19.74.74,0,0,0-.34.65C222.73,52,223,52.53,223.66,53.15Z"/><path class="cls-3" d="M240.15,51.07v1.67h-1v-2.5h6.93v2.5h-1V51.07h-2v6.16h1.27V58h-3.62v-.81h1.29V51.07Z"/><path class="cls-3" d="M255.86,57.23H257V58h-3.29v-.81h1.07V51h-1.07v-.76h3.35a10.57,10.57,0,0,1,1.18,0,2.34,2.34,0,0,1,1.11.37,1.91,1.91,0,0,1,.79,1.65,1.85,1.85,0,0,1-1.71,2,1.5,1.5,0,0,1,.73.32,1.77,1.77,0,0,1,.4.71l.61,1.91H261V58h-1.66l-.85-2.54a1.23,1.23,0,0,0-.48-.69,2.35,2.35,0,0,0-1.12-.2h-1Zm0-6.23v2.82h1.22c1.33,0,2-.47,2-1.42a1.2,1.2,0,0,0-.61-1.16,3.1,3.1,0,0,0-1.38-.24Z"/><path class="cls-3" d="M268.26,58v-.81h.87l3-7h1.19l2.93,7h.87V58H274v-.81h1.12l-.66-1.73H270.9l-.73,1.73h1.16V58Zm3-3.34h2.85l-1.42-3.37Z"/><path class="cls-3" d="M283.26,51v-.76h3V51h-1.19l2.26,6,2.36-6h-1.2v-.76h2.94V51h-.69l-2.84,7H286.7L284,51Z"/><path class="cls-3" d="M298.93,58v-.81H300V51h-1.08v-.76h6.6v2.35h-.88V51h-3.59v2.67h1.76V52.53h.83V55.6h-.83V54.46h-1.76v2.77h3.59V55.57h.88V58Z"/><path class="cls-3" d="M313.79,58v-.81h1.07V51h-1.07v-.76h3.56V51h-1.43v6.23h3.22V55.37H320V58Z"/><path class="cls-2" d="M200.74,104.29a94.91,94.91,0,0,1,26.42-17.35c1.88,1.88,6.19,10.49,17.23,10.49,9.62,0,13.68-4.31,13.68-4.31s2.31,4.71,7.11,5.62c5.69,1.09,7.87-2.06,7.87-2.06s6.5,9.62,14.66,9.91c6.4.23,12.58-7.26,5.94-14.4-12.36-13.3-34.79-21.69-59.32-12.75C219.4,84.88,209.19,92,196.7,104.1c-10.87,10.54-19.1,23.27-24.66,33,.12,1.27,1.62,2,3,.12S186.88,117.18,200.74,104.29Z"/><path class="cls-2" d="M261.77,100.76a10.85,10.85,0,0,0,3,1.06,15.06,15.06,0,0,0,2.7.27,10.26,10.26,0,0,0,5.22-1.34c2.52,3,8,8.69,14.94,9H288a10.24,10.24,0,0,0,9.52-6.16,6.93,6.93,0,0,0,.54-4c-.07-.31-.34-.38-.34,0a8.38,8.38,0,0,1-.72,3.38,10,10,0,0,1-9,5.82h-.33c-6.59-.21-12.18-6.06-14.47-8.93l-.29-.36-.38.25a9,9,0,0,1-5,1.41,14,14,0,0,1-2.51-.24,11.58,11.58,0,0,1-6.91-4.6l-.29-.38-.39.26c-2.07,1.39-6.24,3.43-13,3.43-9.8,0-14.62-6.37-17-9.52l-.31-.41-.24-.31-.36.16a93.89,93.89,0,0,0-24.91,16.62C189.83,117,180.64,131.52,177.17,137c-.61,1-1,1.57-1.2,1.86.54.22,1.43-.34,2.05-1.32,3.45-5.45,12.61-19.91,24.22-30.7a93.17,93.17,0,0,1,24.28-16.27l.06.08c2.39,3.16,7.54,9.92,17.82,9.92,6.55,0,10.82-1.89,13.14-3.34a14.48,14.48,0,0,0,2.18,2.2,20.7,20.7,0,0,0-9.58,16.6c-.57,10.88,5.73,17.33,9.74,20.9-5.87.86-19,.36-27.63-.57-14.17-1.52-26.45-4.21-27.35-11.31-1.13-9,6.82-15.55,11.9-21.13.95-1.05.38-2-1.42-.67-9.19,7.06-15.44,15.54-13,24.42s21.29,13.59,55,13.79c25.18.14,36.37-2.52,37.71-3.09s1.15-3.15-2-2.44-16,3.57-24.49-.15c-9.45-4.15-17.12-13.32-14.88-23.32A18.32,18.32,0,0,1,261.77,100.76Z"/><path class="cls-3" d="M113.79,209.38V202.5H112.6v-1.14h3.75v1.14h-1.13v6.88H118v-3.12h1.3v4.27H112.6v-1.15Z"/><path class="cls-3" d="M128.54,207.3h-3.3l-.7,2.08h1.11v1.15H122v-1.15h1.11l2.5-7h-1.11v-1h4.69v1h-1.15l2.57,7h1v1.15h-3.6v-1.15h1.14Zm-.34-1.07L127,202.39h-.13l-1.27,3.84Z"/><path class="cls-3" d="M135.7,209.38V202.5h-1.26v-1.14h3.73a7.62,7.62,0,0,1,1.85.18,2,2,0,0,1,1.13.76,2.33,2.33,0,0,1,.45,1.46,2.18,2.18,0,0,1-1.89,2.28l1.62,3.34h1.12v1.15h-2l-2.08-4.29h-1.3v3.14h1.18v1.15h-3.82v-1.15Zm1.38-4.29h1.09a4.65,4.65,0,0,0,1.15-.1,1.11,1.11,0,0,0,.61-.41,1.35,1.35,0,0,0,.24-.84,1.19,1.19,0,0,0-.24-.76,1,1,0,0,0-.59-.39,4.8,4.8,0,0,0-1.08-.09h-1.18Z"/><path class="cls-3" d="M152,206.1h3.33c0,.12,0,.23,0,.32a4,4,0,0,1-1.27,3.09,4.76,4.76,0,0,1-3.34,1.16,4.62,4.62,0,0,1-3.7-1.41,4.94,4.94,0,0,1-1.22-3.35,4.73,4.73,0,0,1,1.24-3.36,4.41,4.41,0,0,1,3.38-1.34,4.64,4.64,0,0,1,3.22,1.17v-1h1.17v3h-1.17a3.22,3.22,0,0,0-1.17-1.35,3.28,3.28,0,0,0-1.92-.59,3,3,0,0,0-2.37,1,3.61,3.61,0,0,0-.87,2.44,3.48,3.48,0,0,0,1,2.61,3.44,3.44,0,0,0,4.34.35,2.33,2.33,0,0,0,1-1.6H152Z"/><path class="cls-3" d="M160.2,209.38V202.5H159v-1.14h7.62v2.76H165.5V202.5h-3.91v2.73H165v1.15h-3.41v3h3.91v-1.67h1.14v2.82H159v-1.15Z"/><path class="cls-3" d="M170.25,210.53V207.2h1.15V208a2.44,2.44,0,0,0,2.16,1.49,1.63,1.63,0,0,0,1.14-.41,1.4,1.4,0,0,0,.47-1.09,1.12,1.12,0,0,0-.38-.94,4.75,4.75,0,0,0-1.45-.57,10.9,10.9,0,0,1-1.82-.62,2.42,2.42,0,0,1-1-.84,2.57,2.57,0,0,1,.42-3.13,2.77,2.77,0,0,1,1.93-.69,3.35,3.35,0,0,1,2,.71v-.61h1.12v2.78H175v-.64a2.23,2.23,0,0,0-1.94-1.06,1.73,1.73,0,0,0-1.16.35,1,1,0,0,0-.4.82,1.09,1.09,0,0,0,.2.65,1.25,1.25,0,0,0,.52.42,12.29,12.29,0,0,0,1.25.36,9.74,9.74,0,0,1,1.76.59,2.36,2.36,0,0,1,.94.92,2.66,2.66,0,0,1,.4,1.47,2.54,2.54,0,0,1-.83,1.94,2.89,2.89,0,0,1-2,.76,3.29,3.29,0,0,1-2.25-.9v.76Z"/><path class="cls-3" d="M182.83,209.38V202.5h-1.89v2.34h-1.13v-3.48h7.43v3.48H186.1V202.5h-1.88v6.88h1.19v1.15h-3.75v-1.15Z"/><path class="cls-3" d="M202.56,207.3h-3.3l-.7,2.08h1.11v1.15h-3.61v-1.15h1.11l2.5-7h-1.11v-1h4.69v1H202.1l2.57,7h1v1.15h-3.6v-1.15h1.14Zm-.34-1.07L201,202.39h-.13l-1.27,3.84Z"/><path class="cls-3" d="M214.73,206.1h3.34v.32a4,4,0,0,1-1.26,3.09,4.79,4.79,0,0,1-3.35,1.16,4.63,4.63,0,0,1-3.7-1.41,5,5,0,0,1-1.22-3.35,4.74,4.74,0,0,1,1.25-3.36,4.41,4.41,0,0,1,3.38-1.34,4.64,4.64,0,0,1,3.22,1.17v-1h1.16v3h-1.16a3.47,3.47,0,0,0-3.1-1.94,3,3,0,0,0-2.37,1,3.61,3.61,0,0,0-.87,2.44,3.48,3.48,0,0,0,1,2.61,3.44,3.44,0,0,0,4.34.35,2.35,2.35,0,0,0,1-1.6h-1.66Z"/><path class="cls-3" d="M223,209.38V202.5h-1.19v-1.14h7.62v2.76h-1.13V202.5h-3.92v2.73h3.41v1.15h-3.41v3h3.92v-1.67h1.13v2.82h-7.62v-1.15Z"/><path class="cls-3" d="M233.93,209.38V202.5h-1.31v-1.14h3.13l4,7.12v-6h-1.3v-1.14h3.76v1.14h-1.35v8.12h-1.42l-4.4-7.83v6.59h1.31v1.15h-3.75v-1.15Z"/><path class="cls-3" d="M253.38,206.8l1.19.66a4,4,0,0,1-1.62,2.37,4.88,4.88,0,0,1-2.82.84,4.35,4.35,0,0,1-3.34-1.35,5.23,5.23,0,0,1,0-6.82,4.41,4.41,0,0,1,3.3-1.29,4.73,4.73,0,0,1,3,1v-.83h1.18v2.94h-1.18a3,3,0,0,0-1.22-1.38,3.34,3.34,0,0,0-1.74-.5,2.89,2.89,0,0,0-2.25,1,3.62,3.62,0,0,0-.88,2.5,3.53,3.53,0,0,0,.94,2.53,3,3,0,0,0,4.17.3A3.63,3.63,0,0,0,253.38,206.8Z"/><path class="cls-3" d="M261.63,209.38v-3l-2.73-3.85h-1.12v-1.14h3.77v1.14h-1.16l2,2.84,1.85-2.84h-1.15v-1.14h3.65v1.14h-1.21L263,206.35v3h1.25v1.15h-3.87v-1.15Z"/><path class="cls-3" d="M276.83,209.38V202.5h-1v-1.14h3.36v1.14h-1v6.88h1v1.15h-3.36v-1.15Z"/><path class="cls-3" d="M283.72,209.38V202.5H282.4v-1.14h3.13l4,7.12v-6h-1.3v-1.14H292v1.14h-1.35v8.12h-1.42l-4.4-7.83v6.59h1.31v1.15H282.4v-1.15Z"/><path class="cls-3" d="M302.38,209.38V202.5h-1.19v-1.14h7.62v2.76h-1.13V202.5h-3.92v2.73h3.41v1.15h-3.41v3h3.92v-1.67h1.13v2.82h-7.62v-1.15Z"/><path class="cls-3" d="M314.66,202.5v4.59a7,7,0,0,0,.1,1.48,1.25,1.25,0,0,0,.55.69,2,2,0,0,0,1.12.29,2.51,2.51,0,0,0,1.25-.25,1.2,1.2,0,0,0,.58-.66,5.49,5.49,0,0,0,.14-1.48V202.5h-1.06v-1.14h3.58v1.14h-1.14v4.8a9.07,9.07,0,0,1-.08,1.4,2.3,2.3,0,0,1-.45.92,2.45,2.45,0,0,1-1,.76,3.88,3.88,0,0,1-1.6.29,4.82,4.82,0,0,1-1.74-.27,2.26,2.26,0,0,1-1-.71,2.37,2.37,0,0,1-.46-1,7.45,7.45,0,0,1-.12-1.57V202.5h-1.13v-1.14h3.6v1.14Z"/><path class="cls-3" d="M325.23,209.38V202.5H324v-1.14h3.72a7.51,7.51,0,0,1,1.85.18,2.06,2.06,0,0,1,1.14.76,2.33,2.33,0,0,1,.45,1.46,2.18,2.18,0,0,1-1.89,2.28l1.62,3.34H332v1.15h-2l-2.09-4.29h-1.29v3.14h1.17v1.15H324v-1.15Zm1.38-4.29h1.08a4.69,4.69,0,0,0,1.16-.1,1.11,1.11,0,0,0,.61-.41,1.35,1.35,0,0,0,.24-.84,1.19,1.19,0,0,0-.24-.76,1,1,0,0,0-.6-.39,4.68,4.68,0,0,0-1.08-.09h-1.17Z"/><path class="cls-3" d="M335.05,205.9a4.6,4.6,0,0,1,1.31-3.34,4.51,4.51,0,0,1,3.4-1.35,4.59,4.59,0,0,1,4.78,4.71,4.58,4.58,0,0,1-1.36,3.41,4.7,4.7,0,0,1-3.44,1.34,4.82,4.82,0,0,1-2.45-.64,4.1,4.1,0,0,1-1.68-1.77A5.32,5.32,0,0,1,335.05,205.9Zm1.51,0a3.75,3.75,0,0,0,.89,2.54,2.91,2.91,0,0,0,2.32,1,3,3,0,0,0,2.34-1.05,3.63,3.63,0,0,0,.91-2.49,3.54,3.54,0,0,0-.93-2.48,3.06,3.06,0,0,0-2.35-1,2.93,2.93,0,0,0-2.29,1A3.58,3.58,0,0,0,336.56,205.9Z"/><path class="cls-3" d="M349.33,209.38V202.5h-1.16v-1.14h3.28a8.83,8.83,0,0,1,2.16.2,2.16,2.16,0,0,1,1.2.93,2.93,2.93,0,0,1,.49,1.7,3.11,3.11,0,0,1-.32,1.41,2.34,2.34,0,0,1-.79.92,3,3,0,0,1-1.06.4,12.69,12.69,0,0,1-1.79.1h-.63v2.36h1.19v1.15h-3.73v-1.15Zm1.38-3.47h.79a3.35,3.35,0,0,0,1.87-.38,1.6,1.6,0,0,0,.52-1.37,1.8,1.8,0,0,0-.27-1,1.16,1.16,0,0,0-.69-.52,5.34,5.34,0,0,0-1.36-.12h-.86Z"/><path class="cls-3" d="M359.9,209.38V202.5h-1.19v-1.14h7.62v2.76H365.2V202.5h-3.92v2.73h3.41v1.15h-3.41v3h3.92v-1.67h1.13v2.82h-7.62v-1.15Z"/></g></g></svg>