<?xml version="1.0" encoding="utf-8"?>
<!-- Generator: Adobe Illustrator 18.0.0, SVG Export Plug-In . SVG Version: 6.00 Build 0)  -->
<!DOCTYPE svg PUBLIC "-//W3C//DTD SVG 1.1//EN" "http://www.w3.org/Graphics/SVG/1.1/DTD/svg11.dtd">
<svg version="1.1" id="Layer_1" xmlns="http://www.w3.org/2000/svg" xmlns:xlink="http://www.w3.org/1999/xlink" x="0px" y="0px"
	 viewBox="0 0 340 542.0" enable-background="new 0 0 340 542.0" xml:space="preserve">
<rect fill="#E5E5E5" width="340" height="540.0"/>
<g>
	<path fill="#5E3215" d="M206.8,10h-76.3H8v422l91.9,46c0,0-42.8-54.6-47.9-60.3c-5.2-5.7-23.2-23.9-23.2-23.9L21,379.5
		c0,0,14.5-25.8,14.9-28.6c0.4-2.9-11-53.5-11-53.5l4.1-25.8v-14.3l-7.8-32.5l3.7-68.8L21,98.8V74.9l15.8-9.5L52,69.2
		c0,0,4,4.8,9.4,3.8c5.4-1,14.4-5.7,18-7.6s11.3,2.9,17,0c5.7-2.9,21.7-3.8,25.2-0.5s17.8-2.7,23.5-2c5.7,0.7,15.3-4.9,18.1-4.9
		c2.9,0,5.7,0,5.7,0l0.9-1.2l1,1.2c0,0,2.9,0,5.7,0c2.9,0,12.4,5.6,18.1,4.9c5.7-0.7,20.1,5.4,23.5,2s19.5-2.4,25.2,0.4
		c5.7,2.9,13.4-1.9,17,0c3.6,1.9,12.6,6.7,18,7.6c5.4,1,9.4-3.8,9.4-3.8l15.2-3.8l15.8,9.5v23.9l-3.8,57.3l3.7,68.8l-7.8,32.5v14.3
		l4.1,25.8c0,0-11.4,50.6-11,53.5c0.4,2.9,14.9,28.6,14.9,28.6l-7.7,14.3c0,0-18,18.1-23.2,23.9c-5.2,5.7-43.5,60.3-43.5,60.3
		l87.5-46V10H206.8z"/>
	<path fill="#5E3215" d="M0,426.3l99.9,42.9l12.3,4.4l4.6,5c0,0,5.3,3.5,6.5,4.5s3.3,6.5,2.2,9s9.9,4.5,15.2,5s19.8-7.5,19.8-7.5
		l6.2,7.5c0,0,7.2,1.5,10.2,0s11.5,0.5,12.5-1.5s-2-7.5,4.5-7.5s14,1.5,14,1.5l12-2l3.5-3c0,0,3.5,6.5,6,6s10-4,11-6.5s-0.5-8,0-9.5
		s4-5.5,4-5.5l91.5-41l4-2v109L0,534.5V426.3z"/>
	<path fill="#A05C26" d="M0,430.3l99.9,42.9l12.3,4.4l4.6,5c0,0,5.3,3.5,6.5,4.5s3.3,6.5,2.2,9s9.9,4.5,15.2,5s19.8-7.5,19.8-7.5
		l6.2,7.5c0,0,7.2,1.5,10.2,0s11.5,0.5,12.5-1.5s-2-7.5,4.5-7.5s14,1.5,14,1.5l12-2l3.5-3c0,0,3.5,6.5,6,6s10-4,11-6.5s-0.5-8,0-9.5
		s4-5.5,4-5.5l91.5-41l4-2v109L0,538.5V430.3z"/>
	<path fill="#A05C26" d="M207.7,5h-78.2H4v432l95.9,41c0,0-45.5-49.7-50.8-55.6c-5.3-5.9-23.7-24.4-23.7-24.4l-8-14.6
		c0,0,14.8-26.4,15.2-29.3c0.4-2.9-11.5-54.8-11.5-54.8l3.9-26.4v-14.7l-7.7-33.3l3.8-70.4L17,95.8V71.3l16.3-9.8L49,65.4
		c0,0,4.1,4.9,9.7,3.9c5.6-1,14.8-5.9,18.5-7.8s11.6,2.9,17.4,0c5.9-2.9,22.3-3.9,25.8-0.5c3.5,3.4,18.2-2.7,24.1-2
		c5.9,0.7,15.7-5,18.6-5c2.9,0,5.9,0,5.9,0l0.9-1.2l1,1.2c0,0,2.9,0,5.9,0c2.9,0,12.7,5.7,18.6,5c5.9-0.7,20.5,5.5,24.1,2.1
		c3.5-3.4,19.9-2.5,25.8,0.4s13.7-2,17.4,0c3.7,2,12.9,6.8,18.5,7.8c5.6,1,9.7-3.9,9.7-3.9l15.7-3.9l16.3,9.8v24.5l-4.1,58.7
		l3.9,70.4l-7.8,33.3v14.7l3.9,26.4c0,0-11.9,51.9-11.4,54.8c0.4,2.9,15.2,29.4,15.2,29.4l-8,14.7c0,0-18.4,18.5-23.7,24.3
		c-5.3,5.9-46.5,55.6-46.5,55.6l91.5-41V5H207.7z"/>
	<path fill="#CEA34F" d="M208.5,0h-79.9H0v442l99.9,36c0,0-48.1-45-53.5-51c-5.4-6-24.3-25-24.3-25L14,387c0,0,15.2-27,15.6-30
		c0.4-3-11.6-56-11.6-56l4.1-27v-15l-8-34l4-72l-4-60V68l16.5-10l15.9,4c0,0,4.2,5,9.9,4c5.7-1,15.1-6,18.9-8S87,61,93,58
		s22.7-4,26.4-0.5s18.6-2.9,24.6-2.2c6,0.7,16-5.3,19-5.3s6,0,6,0l1-1.2l1,1.2c0,0,3,0,6,0s13,6,19,5.3c6-0.7,21,5.7,24.6,2.2
		S241,55,247,58s14-2,17.8,0s13.2,7,18.9,8c5.7,1,9.9-4,9.9-4l15.9-4L326,68v25l-4,60l4,72l-8,34v15l4.1,27c0,0-12.1,53-11.6,56
		c0.4,3,15.6,30,15.6,30l-8.1,15c0,0-18.8,19-24.3,25c-5.4,6-49.1,51-49.1,51l95.5-36V0H208.5z"/>
	<path fill="#CEA34F" d="M0,435.3l99.9,42.9l12.3,4.4l4.6,5c0,0,5.3,3.5,6.5,4.5s3.3,6.5,2.2,9s9.9,4.5,15.2,5s19.8-7.5,19.8-7.5
		l6.2,7.5c0,0,7.2,1.5,10.2,0s11.5,0.5,12.5-1.5s-2-7.5,4.5-7.5s14,1.5,14,1.5l12-2l3.5-3c0,0,3.5,6.5,6,6s10-4,11-6.5s-0.5-8,0-9.5
		s4-5.5,4-5.5l91.5-41l4-2v109L0,543.5V435.3z"/>
</g>
</svg>
