<?xml version="1.0" encoding="utf-8"?>
<!-- Generator: Adobe Illustrator 18.0.0, SVG Export Plug-In . SVG Version: 6.00 Build 0)  -->
<!DOCTYPE svg PUBLIC "-//W3C//DTD SVG 1.1//EN" "http://www.w3.org/Graphics/SVG/1.1/DTD/svg11.dtd">
<svg version="1.1" xmlns="http://www.w3.org/2000/svg" xmlns:xlink="http://www.w3.org/1999/xlink" x="0px" y="0px"
	 viewBox="0 0 821 188.8" enable-background="new 0 0 821 188.8" xml:space="preserve" preserveAspectRatio="xMidYMid meet">
<g id="Layer_1" display="none">
	<g display="inline">
		<path fill="#5E3112" d="M209.5,35.3c0,0,10.3-1.7,19.4-0.3c9.1,1.3,18.9-3.5,18.9-3.5s-0.7-4.1,3.3-4.1s18.6-0.7,22,0
			c3.3,0.7,12,3.6,12,3.6v4l7.5,3c0,0,5.3-4.3,12.3-5.5c7-1.2,4.2-3.2,11.2-3.2s15.7-3.9,24.3-2.3c8.7,1.6,25.4-1.1,30,5.3
			C375,38.7,383.7,42,389,38s12-8,19-8.7c7-0.7,10.3-4.8,12.3-2.1s9.3,6.7,9.3,6.7l4.7,3.2c0,0,3.3-2.6,7.3-4.1
			c4-1.5,7.3,0.7,11.3-0.1c4-0.8,9.3,0.1,14.7-0.1c5.3-0.2,16.7,1.5,21.3,0c4.7-1.5,11.3,0,11.3,0l10.7,3.8l-3.3,17.7l3,4.3L503,66
			v11c0,0,4.8,7.7,4.8,11s-2.4,11.3-3.1,13.3s-2.5,1.3-1.9,9.3s0.7,8,0.7,8l0.7,6l0.7,7.3l-4.7,6c-6-4-9.3-8.7-9.3-8.7
			s-5.3-7.3-8.7-4.7c-3.3,2.7-8.7,7.8-8.7,7.8L471,139h-4l-4-5.8l-6.7,1.8c0,0,1.3,9.1-6.7,9.8c-8,0.7-9.2-0.7-15.3,0
			c-6.1,0.7-6.7,1-10.1,0.2c-3.3-0.9-16.3-2.2-16.3,0.5c0,2.6-9,4.1-9,4.1l-5.3-4.1l-3.3-1.3H383l-6-0.2l-3.3-0.9l-4-8.8l-16.7,3.9
			l-7.3,5.9H340l-7-2.8c0,0-4.7,1.1-6.7,2.4c-2,1.3-2.7,1.9-6.7,1.9s-14.7-0.1-14.7-0.7c0-0.7-12.7-0.7-12.7-0.7l-22.7-2l-27.3-4.7
			l-19.3,2l-4.7-2L213,134l-4-18.7l10-12V94l-5.2-10.7L209.3,66l5.6-20L209.5,35.3z"/>
		<path fill="#9F5B26" d="M209.5,30.3c0,0,10.3-1.7,19.4-0.3c9.1,1.3,18.9-3.5,18.9-3.5s-0.7-4.1,3.3-4.1s18.6-0.7,22,0
			c3.3,0.7,12,3.6,12,3.6v4l7.5,3c0,0,5.3-4.3,12.3-5.5s4.2-3.2,11.2-3.2s15.7-3.9,24.3-2.3c8.7,1.6,25.4-1.1,30,5.3
			C375,33.7,383.7,37,389,33s12-8,19-8.7c7-0.7,10.3-4.8,12.3-2.1s9.3,6.7,9.3,6.7l4.7,3.2c0,0,3.3-2.6,7.3-4.1S449,28.8,453,28
			c4-0.8,9.3,0.1,14.7-0.1c5.3-0.2,16.7,1.5,21.3,0s11.3,0,11.3,0l10.7,3.8l-3.3,17.7l3,4.3L503,61v11c0,0,4.8,7.7,4.8,11
			s-2.4,11.3-3.1,13.3s-2.5,1.3-1.9,9.3s0.7,8,0.7,8l0.7,6l0.7,7.3l-4.7,6c-6-4-9.3-8.7-9.3-8.7s-5.3-7.3-8.7-4.7
			c-3.3,2.7-8.7,7.8-8.7,7.8L471,134h-4l-4-5.8l-6.7,1.8c0,0,1.3,9.1-6.7,9.8c-8,0.7-9.2-0.7-15.3,0c-6.1,0.7-6.7,1-10.1,0.2
			c-3.3-0.9-16.3-2.2-16.3,0.5c0,2.6-9,4.1-9,4.1l-5.3-4.1l-3.3-1.3H383l-6-0.2l-3.3-0.9l-4-8.8l-16.7,3.9l-7.3,5.9H340l-7-2.8
			c0,0-4.7,1.1-6.7,2.4c-2,1.3-2.7,1.9-6.7,1.9s-14.7-0.1-14.7-0.7c0-0.7-12.7-0.7-12.7-0.7l-22.7-2l-27.3-4.7l-19.3,2l-4.7-2
			L213,129l-4-18.7l10-12V89l-5.2-10.7L209.3,61l5.6-20L209.5,30.3z"/>
		<path fill="#F6921E" d="M209.5,24.3c0,0,10.3-1.7,19.4-0.3c9.1,1.3,18.9-3.5,18.9-3.5s-0.7-4.1,3.3-4.1s18.6-0.7,22,0
			c3.3,0.7,12,3.6,12,3.6v4l7.5,3c0,0,5.3-4.3,12.3-5.5s4.2-3.2,11.2-3.2s15.7-3.9,24.3-2.3c8.7,1.6,25.4-1.1,30,5.3
			C375,27.7,383.7,31,389,27s12-8,19-8.7c7-0.7,10.3-4.8,12.3-2.1s9.3,6.7,9.3,6.7l4.7,3.2c0,0,3.3-2.6,7.3-4.1S449,22.8,453,22
			c4-0.8,9.3,0.1,14.7-0.1c5.3-0.2,16.7,1.5,21.3,0s11.3,0,11.3,0l10.7,3.8l-3.3,17.7l3,4.3L503,55v11c0,0,4.8,7.7,4.8,11
			s-2.4,11.3-3.1,13.3s-2.5,1.3-1.9,9.3s0.7,8,0.7,8l0.7,6l0.7,7.3l-4.7,6c-6-4-9.3-8.7-9.3-8.7s-5.3-7.3-8.7-4.7
			c-3.3,2.7-8.7,7.8-8.7,7.8L471,128h-4l-4-5.8l-6.7,1.8c0,0,1.3,9.1-6.7,9.8c-8,0.7-9.2-0.7-15.3,0c-6.1,0.7-6.7,1-10.1,0.2
			c-3.3-0.9-16.3-2.2-16.3,0.5c0,2.6-9,4.1-9,4.1l-5.3-4.1l-3.3-1.3H383l-6-0.2l-3.3-0.9l-4-8.8l-16.7,3.9l-7.3,5.9H340l-7-2.8
			c0,0-4.7,1.1-6.7,2.4c-2,1.3-2.7,1.9-6.7,1.9s-14.7-0.1-14.7-0.7c0-0.7-12.7-0.7-12.7-0.7l-22.7-2l-27.3-4.7l-19.3,2l-4.7-2
			L213,123l-4-18.7l10-12V83l-5.2-10.7L209.3,55l5.6-20L209.5,24.3z"/>
	</g>
</g>
<g id="Layer_2" display="none">
	<g display="inline">
		<path fill="#5E3112" d="M227.8,40l-3.3,4.5c0,0-6.3,1.9-7.2-0.1c-0.8-2-0.8-2-0.8-2l-3.8-2.2l2.1,15.8l-2.1,1.9h-3.2l-5.1-0.7
			l7,19.8l2.4,11.2L210,99.1v13.2l3.5,5.6l-1.6,3.7l1.6,4.2l16.6-2.2l2.9,4.2l15-4l5.8,4.3h5.3l8.7-2.3l30.7,2.1l-17.6-8l17.6,8.2
			c0,0,4.5,0,5.7,0c1.3,0,8.3,0,8.3,0h14.6l6.4-6.7l6.8,2.9l10.2-1.5l5.2,5.1c0,0,9.6-3.4,10.3-1.7c0.6,1.7,8.3-2.4,8.3-2.4l6.8,4.1
			l8.5-2.2c0,0,2.1,6.6,3.4,4.4c1.3-2.2,8.1-8.8,8.1-8.8l5.9,1.5c0,0,5.5,1,8.5-0.5s3-1.4,4.7-1.4s0.4,4.3,0.4,4.3s14.8,0,16.1,0
			c1.3,0,4.7,2.8,8.1,2.8s11-3.2,13.1-3.7c2.1-0.5,4-1,6.4-0.5c2.3,0.5,15.3,4.1,15.3,4.1s3.4,3.3,5.5,2.8c2.1-0.4,8.1-7.6,9.3-7.6
			c1.3,0,6.6,0,6.6,0s4.5,4.9,6.6,4.9c2.1,0,6.5-5.2,6.5-5.2l5.3-2.1V116l6.1-1.2c0,0-0.1,2.9,2.4,0c2.5-2.9,2.8-2.9,2.8-2.9
			l-2.2-8.3V94l-0.1-10.3l-6.2-23.2l2-2.9l-0.5-4.4l-0.9-5.9l-3-5.4c0,0,1.3-2.2-1.7-2.2s-9.3,7.1-9.3,7.1l-4.2-2.9l-5.1-1l-6.4,1.5
			l-4.7,0.5l-2.1-5.1l-14,3.7l-10.2,1.2c0,0,0-1.7-3.4-1.7c-3.4,0-11.9,0-11.9,0l-2.5,1.6l-16.1-1c0,0-8.1-3.7-9.3-3.7
			c-1.3,0-5.9-0.3-9.3,1.2c-3.4,1.5-5.5,1.9-8.1,1.9c-2.5,0-12.7-1-14-1s-14.8,2.9-14.8,2.9l-8.9-2.9c0,0-0.4-2.2-4.2-2.2
			s-14.5,1.7-14.5,1.7l-8,2.4c0,0-2.1-4.1-5.9-4.1S314.4,44,314.4,44h-14.1c0,0-4.7-4.3-5.9-4.3c-1.3,0-11.2,3.2-11.2,3.2
			s-2.3-3.2-3.6-3.2c-1.3,0-5.9,0.8-5.9,0.8l-3.4,1l-3-1.7c0,0-0.8,1-3.4,2c-2.5,1-3.4,1.2-6.8,1.2c-3.4,0-5.7,0-5.7,0
			s-3.6-0.4-6.6-0.4c-3,0-7.2,0.9-7.2,0.9s-5.3-3.9-7.6-3.7C227.8,40.1,227.8,40,227.8,40z"/>
		<path fill="#9F5B26" d="M227.8,34.6l-3.3,4.5c0,0-6.3,1.9-7.2-0.1c-0.8-2-0.8-2-0.8-2l-3.8,2.2l2.1,11.6l-2.1,2.1h-3.2l-5.1,3.5
			l7,15.3l2.4,11.2L210,93.8v13.2l3.5,5.6l-1.6,3.7l1.6,4.2l16.6-2.2l2.9,4.2l15-3.8l5.8,4.5h5.3l8.7-2.5l30.7,2l-17.6-3.4l17.6,3.9
			c0,0,4.5,0,5.7,0c1.3,0,8.3,0,8.3,0h14.6l6.4-6.9l6.8,2.8l10.2-1.5l5.2,5.1c0,0,9.6-3.4,10.3-1.7c0.6,1.7,8.3-2.5,8.3-2.5l6.8,4.1
			l8.5-2.2c0,0,2.1,6.6,3.4,4.4c1.3-2.2,8.1-8.8,8.1-8.8l5.9,1.5c0,0,5.5,1,8.5-0.5s3-1.2,4.7-1.2s0.4,4.5,0.4,4.5s14.8,0,16.1,0
			c1.3,0,4.7,2.6,8.1,2.6s11-3.3,13.1-3.8c2.1-0.5,4-1.1,6.4-0.6c2.3,0.5,15.3,4.1,15.3,4.1s3.4,3,5.5,2.5c2.1-0.4,8.1-7.9,9.3-7.9
			c1.3,0,6.6,0,6.6,0s4.5,5.2,6.6,5.2c2.1,0,6.5-5.1,6.5-5.1l5.3-1.9v-4.6l6.1-1.2c0,0-0.1,2.9,2.4,0c2.5-2.9,2.8-2.9,2.8-2.9
			l-2.2-8.3v-9.5l-0.1-10.3l-6.2-23.2l2-2.9l-0.5-4.4l-0.9-5.9l-3-5.4c0,0,1.3-2.2-1.7-2.2s-9.3,7.1-9.3,7.1l-4.2-2.9l-5.1-1
			l-6.4,1.5l-4.7,0.5l-2.1-5.1l-14,3.7l-10.2,1.4c0,0,0-1.5-3.4-1.5c-3.4,0-11.9,0-11.9,0l-2.5,1.4l-16.1-1.1c0,0-8.1-3.7-9.3-3.7
			c-1.3,0-5.9-0.3-9.3,1.2c-3.4,1.5-5.5,1.9-8.1,1.9c-2.5,0-12.7-1-14-1s-14.8,2.9-14.8,2.9l-8.9-2.9c0,0-0.4-2.2-4.2-2.2
			s-14.5,1.7-14.5,1.7l-8,2.4c0,0-2.1-3.9-5.9-3.9S314.4,39,314.4,39h-14.1c0,0-4.7-4.5-5.9-4.5c-1.3,0-11.2,3.1-11.2,3.1
			s-2.3-3.2-3.6-3.2c-1.3,0-5.9,0.7-5.9,0.7l-3.4,1l-3-1.7c0,0-0.8,1.2-3.4,2.2c-2.5,1-3.4,1.4-6.8,1.4c-3.4,0-5.7,0-5.7,0
			s-3.6-0.6-6.6-0.6c-3,0-7.2,0.8-7.2,0.8s-5.3-4-7.6-3.7C227.8,34.7,227.8,34.6,227.8,34.6z"/>
		<path fill="#F6921E" d="M227.8,29l-3.3,4.5c0,0-6.3,1.9-7.2-0.1c-0.8-2-0.8-2-0.8-2l-3.8,5.8l2.1,7.8l-2.1,1.9h-3.2l-5.1,7.4
			l7,11.7l2.4,11.2L210,88.1v13.2l3.5,5.6l-1.6,3.7l1.6,4.2l16.6-2.2l2.9,4.2l15-4l5.8,4.3h5.3l8.7-2.4l15.5-0.4l-2.3,2.8h17.6
			c0,0,4.5,0,5.7,0c1.3,0,8.3,0,8.3,0h14.6l6.4-6.8l6.8,2.8l10.2-1.5l5.2,5.1c0,0,9.6-3.4,10.3-1.7c0.6,1.7,8.3-2.4,8.3-2.4l6.8,4.1
			l8.5-2.2c0,0,2.1,6.6,3.4,4.4c1.3-2.2,8.1-8.8,8.1-8.8l5.9,1.5c0,0,5.5,1,8.5-0.5s3-1.3,4.7-1.3s0.4,4.3,0.4,4.3s14.8,0,16.1,0
			c1.3,0,4.7,2.8,8.1,2.8s11-3.2,13.1-3.7c2.1-0.5,4-1,6.4-0.5c2.3,0.5,15.3,4.1,15.3,4.1s3.4,3.3,5.5,2.9c2.1-0.4,8.1-7.6,9.3-7.6
			c1.3,0,6.6,0,6.6,0s4.5,4.9,6.6,4.9c2.1,0,6.5-5.2,6.5-5.2l5.3-2.1v-4.6l6.1-1.2c0,0-0.1,2.9,2.4,0c2.5-2.9,2.8-2.9,2.8-2.9
			l-2.2-8.3V83l-0.1-10.3l-6.2-23.2l2-2.9l-0.5-4.4l-0.9-5.9l-3-5.4c0,0,1.3-2.2-1.7-2.2s-9.3,7.1-9.3,7.1l-4.2-2.9l-5.1-1l-6.4,1.5
			l-4.7,0.5l-2.1-5.1l-14,3.7l-10.2,1.3c0,0,0-1.7-3.4-1.7c-3.4,0-11.9,0-11.9,0l-2.5,1.5l-16.1-1.1c0,0-8.1-3.7-9.3-3.7
			c-1.3,0-5.9-0.3-9.3,1.2c-3.4,1.5-5.5,1.9-8.1,1.9c-2.5,0-12.7-1-14-1s-14.8,2.9-14.8,2.9l-8.9-2.9c0,0-0.4-2.2-4.2-2.2
			s-14.5,1.7-14.5,1.7l-8,2.4c0,0-2.1-4.1-5.9-4.1S314.4,33,314.4,33h-14.1c0,0-4.7-4.3-5.9-4.3c-1.3,0-11.2,3.2-11.2,3.2
			s-2.3-3.2-3.6-3.2c-1.3,0-5.9,0.8-5.9,0.8l-3.4,1l-3-1.7c0,0-0.8,1-3.4,2c-2.5,1-3.4,1.3-6.8,1.3c-3.4,0-5.7,0-5.7,0
			s-3.6-0.4-6.6-0.4c-3,0-7.2,0.9-7.2,0.9s-5.3-3.9-7.6-3.7C227.8,29,227.8,29,227.8,29z"/>
	</g>
</g>
<g id="Layer_3" display="none">
	<g display="inline">
		<path fill="#5E3112" d="M508.6,40l3.3,4.5c0,0,6.3,1.9,7.2-0.1c0.8-2,0.8-2,0.8-2l3.8-2.2l-2.1,15.8l2.1,1.9h3.2l5.1-0.7l-7,19.8
			l-2.1,11.2l4.1,10.8v13.2l-3.9,5.6l1.5,3.7l-1.7,4.2l-16.6-2.2l-2.9,4.2l-15-4l-5.8,4.3h-5.3l-8.7-2.4l-30.7,2.1l17.6-7.9
			l-17.6,8.2c0,0-4.5,0-5.7,0c-1.3,0-8.3,0-8.3,0h-14.6l-6.4-6.8l-6.8,2.8l-10.2-1.5l-5.2,5.1c0,0-9.6-3.4-10.3-1.7
			c-0.6,1.7-8.3-2.4-8.3-2.4l-6.8,4.1l-8.5-2.2c0,0-2.1,6.6-3.4,4.4c-1.3-2.2-8.1-8.8-8.1-8.8l-5.9,1.5c0,0-5.5,1-8.5-0.5
			c-3-1.5-3-1.3-4.7-1.3c-1.7,0-0.4,4.3-0.4,4.3s-14.8,0-16.1,0c-1.3,0-4.7,2.8-8.1,2.8c-3.4,0-11-3.2-13.1-3.7
			c-2.1-0.5-4-1-6.4-0.5c-2.3,0.5-15.3,4.1-15.3,4.1s-3.4,3.3-5.5,2.9c-2.1-0.4-8.1-7.5-9.3-7.5c-1.3,0-6.6,0-6.6,0
			s-4.5,4.9-6.6,4.9c-2.1,0-6.2-5.2-6.2-5.2l-5-2.1v-4.6l-6.4-1.2c0,0,0,2.9-2.5,0c-2.5-2.9-2.5-2.9-2.5-2.9l2.4-8.3v-9.5l-0.3-10.3
			l6-23.2l-2.1-2.9l0.4-4.4l0.8-5.9l3-5.4c0,0-1.3-2.2,1.7-2.2c3,0,9.3,7.1,9.3,7.1l4.2-2.9l5.1-1l6.4,1.5l4.7,0.5l2.1-5.1l14,3.7
			l10.2,1.3c0,0,0-1.7,3.4-1.7s11.9,0,11.9,0l2.5,1.5l16.1-1.1c0,0,8.1-3.7,9.3-3.7s5.9-0.3,9.3,1.2c3.4,1.5,5.5,1.9,8.1,1.9
			s12.7-1,14-1c1.3,0,14.8,2.9,14.8,2.9l8.9-2.9c0,0,0.4-2.2,4.2-2.2c3.8,0,14.5,1.7,14.5,1.7l8,2.4c0,0,2.1-4.1,5.9-4.1
			c3.8,0,16.4,4.2,16.4,4.2H436c0,0,4.7-4.3,5.9-4.3c1.3,0,11.2,3.2,11.2,3.2s2.3-3.2,3.6-3.2c1.3,0,5.9,0.8,5.9,0.8l3.4,1l3-1.7
			c0,0,0.8,1,3.4,2c2.5,1,3.4,1.3,6.8,1.3s5.7,0,5.7,0s3.6-0.4,6.6-0.4c3,0,7.2,0.9,7.2,0.9s5.3-4,7.6-3.7
			C508.6,40,508.6,40,508.6,40z"/>
		<path fill="#9F5B26" d="M508.6,34.6l3.3,4.5c0,0,6.3,1.9,7.2-0.1c0.8-2,0.8-2,0.8-2l3.8,2.2l-2.1,11.6l2.1,2.1h3.2l5.1,3.5
			l-7,15.3L522.9,83l4.1,10.7v13.2l-3.9,5.6l1.5,3.7l-1.7,4.2l-16.6-2.2l-2.9,4.2l-15-3.8l-5.8,4.5h-5.3l-8.7-2.6l-30.7,2l17.6-3.4
			l-17.6,3.9c0,0-4.5,0-5.7,0c-1.3,0-8.3,0-8.3,0h-14.6l-6.4-7l-6.8,2.7l-10.2-1.6l-5.2,5.1c0,0-9.6-3.4-10.3-1.7s-8.3-2.5-8.3-2.5
			l-6.8,4.1l-8.5-2.2c0,0-2.1,6.6-3.4,4.4c-1.3-2.2-8.1-8.8-8.1-8.8l-5.9,1.5c0,0-5.5,1-8.5-0.5c-3-1.5-3-1.1-4.7-1.1
			c-1.7,0-0.4,4.5-0.4,4.5s-14.8,0-16.1,0c-1.3,0-4.7,2.6-8.1,2.6c-3.4,0-11-3.3-13.1-3.8s-4-1.1-6.4-0.6
			c-2.3,0.5-15.3,4.1-15.3,4.1s-3.4,3-5.5,2.6c-2.1-0.4-8.1-7.9-9.3-7.9c-1.3,0-6.6,0-6.6,0s-4.5,5.2-6.6,5.2
			c-2.1,0-6.2-5.1-6.2-5.1l-5-1.9v-4.6l-6.4-1.2c0,0,0,2.9-2.5,0s-2.5-2.9-2.5-2.9l2.4-8.3v-9.5l-0.3-10.3l6-23.2l-2.1-2.9l0.4-4.4
			l0.8-5.9l3-5.4c0,0-1.3-2.2,1.7-2.2c3,0,9.3,7.1,9.3,7.1l4.2-2.9l5.1-1l6.4,1.5l4.7,0.5l2.1-5.1l14,3.7l10.2,1.5
			c0,0,0-1.5,3.4-1.5s11.9,0,11.9,0l2.5,1.3l16.1-1.2c0,0,8.1-3.8,9.3-3.8s5.9-0.3,9.3,1.2c3.4,1.5,5.5,1.9,8.1,1.9s12.7-1,14-1
			c1.3,0,14.8,2.9,14.8,2.9l8.9-2.9c0,0,0.4-2.2,4.2-2.2c3.8,0,14.5,1.7,14.5,1.7l8,2.4c0,0,2.1-3.9,5.9-3.9
			c3.8,0,16.4,4.4,16.4,4.4H436c0,0,4.7-4.5,5.9-4.5c1.3,0,11.2,3.1,11.2,3.1s2.3-3.2,3.6-3.2c1.3,0,5.9,0.7,5.9,0.7l3.4,1l3-1.7
			c0,0,0.8,1.2,3.4,2.2c2.5,1,3.4,1.5,6.8,1.5s5.7,0,5.7,0s3.6-0.6,6.6-0.6c3,0,7.2,0.8,7.2,0.8s5.3-4,7.6-3.8
			C508.6,34.7,508.6,34.6,508.6,34.6z"/>
		<path fill="#F6921E" d="M508.6,28.9l3.3,4.5c0,0,6.3,1.9,7.2-0.1c0.8-2,0.8-2,0.8-2l3.8,5.8l-2.1,7.8l2.1,2h3.2l5.1,7.3L525,66
			l-2.1,11.2L527,88v13.2l-3.9,5.6l1.5,3.7l-1.7,4.2l-16.6-2.2l-2.9,4.2l-15-3.9l-5.8,4.4h-5.3l-8.7-2.4l-15.5-0.4l2.3,2.8h-17.6
			c0,0-4.5,0-5.7,0c-1.3,0-8.3,0-8.3,0h-14.6l-6.4-6.8l-6.8,2.8l-10.2-1.5l-5.2,5.1c0,0-9.6-3.4-10.3-1.7s-8.3-2.4-8.3-2.4l-6.8,4.1
			l-8.5-2.2c0,0-2.1,6.6-3.4,4.4c-1.3-2.2-8.1-8.8-8.1-8.8l-5.9,1.5c0,0-5.5,1-8.5-0.5c-3-1.5-3-1.3-4.7-1.3c-1.7,0-0.4,4.3-0.4,4.3
			s-14.8,0-16.1,0c-1.3,0-4.7,2.8-8.1,2.8c-3.4,0-11-3.3-13.1-3.7s-4-1-6.4-0.5c-2.3,0.5-15.3,4.1-15.3,4.1s-3.4,3.4-5.5,2.9
			c-2.1-0.4-8.1-7.5-9.3-7.5c-1.3,0-6.6,0-6.6,0s-4.5,4.9-6.6,4.9c-2.1,0-6.2-5.3-6.2-5.3l-5-2.1v-4.6l-6.4-1.2c0,0,0,2.9-2.5,0
			s-2.5-2.9-2.5-2.9l2.4-8.3v-9.5l-0.3-10.3l6-23.2l-2.1-2.9l0.4-4.4l0.8-5.9l3-5.4c0,0-1.3-2.2,1.7-2.2c3,0,9.3,7.1,9.3,7.1
			l4.2-2.9l5.1-1l6.4,1.5l4.7,0.5l2.1-5.1l14,3.7l10.2,1.3c0,0,0-1.6,3.4-1.6s11.9,0,11.9,0l2.5,1.5l16.1-1.1c0,0,8.1-3.7,9.3-3.7
			s5.9-0.3,9.3,1.2c3.4,1.5,5.5,1.9,8.1,1.9s12.7-1,14-1c1.3,0,14.8,2.9,14.8,2.9l8.9-2.9c0,0,0.4-2.2,4.2-2.2
			c3.8,0,14.5,1.7,14.5,1.7l8,2.4c0,0,2.1-4.1,5.9-4.1c3.8,0,16.4,4.2,16.4,4.2H436c0,0,4.7-4.4,5.9-4.4c1.3,0,11.2,3.2,11.2,3.2
			s2.3-3.2,3.6-3.2c1.3,0,5.9,0.8,5.9,0.8l3.4,1l3-1.7c0,0,0.8,1.1,3.4,2c2.5,1,3.4,1.3,6.8,1.3s5.7,0,5.7,0s3.6-0.4,6.6-0.4
			c3,0,7.2,0.9,7.2,0.9s5.3-4,7.6-3.7C508.6,29,508.6,28.9,508.6,28.9z"/>
	</g>
</g>
<g id="Layer_4">
	<g>
		<g>
			<path fill="#5E3112" d="M135.8,27h17l5,10.8c0,0,8,10.9,12,10.9s15-11.1,15-11.1s6-5,11-5s7,5.2,12,5.2s9,11.2,9,11.2s-10,0-5,0
				s30.2,0,30.2,0V38c0,0,35.8,0,40.8,0s7,0,14,0s20,0,23,0s7-12.2,11-6.2s7,16.9,7,16.9l17-11.1l11,11.2l11-10.8c0,0,7,0,11,0
				s19,0,19,0l13,5.8c0,0,13,4.9,16,4.9s18-6.1,18-6.1s3-5,8-5s11-15,14-11s15,5.2,15,5.2s9,6.2,12,6.2s14,0,14,0l8-0.6l11-6.8
				l7,7.2l13,6.2h15l13-6.7l6-11.6l-10-13.1l7.3,1.5l20.8,4.5l12,15.2L634.9,44h15.8c0,0,26,9.8,29,4.8s3-5.1,3-5.1l16.3,19.9
				c0,0-7.7,0,0,5s16.7,15,16.7,15l-4.9,26l5.1,19c0,0,0,12,0,15s0,9,0,9s-8.1,4-11.1,7s-5.7,8-5.7,8l-7.4,4c0,0-7,4-14,5
				s-22-9-22-9l-16.4-2l-19.6,16c0,0-5-5.8-8-5.8s-25,6.2-25,6.2h-86l-1-6.2l-8-8.1l-11-1.8l-14,6.2h-14l-13,10h-20l-9-4.2l-13-11.9
				l-9,6.1h-14l-12,10h-17h-18h-28l-7,6.8l-16-8.1l-15-1.1l-15,1l-8,8l-10-11l-8-6l-6-7l-27.4-0.9l8.4,2.9l-22,13l-21-1.8l-12-5.8
				h-15H111v-14.4l-6.1-10l6.9-20l-0.9-15l-5.9-8v-24l9-21l-4-9v-13L135.8,27z"/>
			<path fill="#9F5B26" d="M135.8,19h17l5,10.8c0,0,8,10.9,12,10.9s15-11.1,15-11.1s6-5,11-5s7,5.2,12,5.2s9,11.2,9,11.2s-10,0-5,0
				s30.2,0,30.2,0V30c0,0,35.8,0,40.8,0s7,0,14,0s20,0,23,0s7-12.2,11-6.2s7,16.9,7,16.9l17-11.1l11,11.2l11-10.8c0,0,7,0,11,0
				s19,0,19,0l13,5.8c0,0,13,4.9,16,4.9s18-6.1,18-6.1s3-5,8-5s11-15,14-11s15,5.2,15,5.2s9,6.2,12,6.2s14,0,14,0l8-0.6l11-6.8
				l7,7.2l13,6.2h15l13-6.7l6-11.6l-10-4.8l5-1.8h23l12,15l15.2,10h15.8c0,0,26,9.8,29,4.8s3-5.1,3-5.1l16.3,19.9c0,0-7.7,0,0,5
				s16.7,15,16.7,15l-4.9,26l5.1,19c0,0,0,12,0,15s0,9,0,9s-8.1,4-11.1,7s-5.7,8-5.7,8l-7.4,4c0,0-7,4-14,5s-22-9-22-9l-16.4-2
				l-19.6,16c0,0-5-5.8-8-5.8s-25,6.2-25,6.2h-86l-1-6.2l-8-8.1l-11-1.8l-14,6.2h-14l-13,10h-20l-9-4.2l-13-11.9l-9,6.1h-14l-12,10
				h-17h-18h-28l-7,6.8l-16-8.1l-15-1.1l-15,1l-8,8l-10-11l-8-6l-6-7l-25,7l6,3l-22,5l-21-1.8l-12-5.8h-15H111v-14.4l-6.1-10l6.9-20
				l-0.9-15l-5.9-8v-24l9-21l-4-9v-13L135.8,19z"/>
			<path fill="#CDA34F" d="M135.8,14h17l5,10.8c0,0,8,10.9,12,10.9s15-11.1,15-11.1s6-5,11-5s7,5.2,12,5.2s9,11.2,9,11.2s-10,0-5,0
				s30.2,0,30.2,0V25c0,0,35.8,0,40.8,0s7,0,14,0s20,0,23,0s7-12.2,11-6.2s7,16.9,7,16.9l17-11.1l11,11.2l11-10.8c0,0,7,0,11,0
				s19,0,19,0l13,5.8c0,0,13,4.9,16,4.9s18-6.1,18-6.1s3-5,8-5s11-15,14-11s15,5.2,15,5.2s9,6.2,12,6.2s14,0,14,0l8-0.6l11-6.8
				l7,7.2l13,6.2h15l13-6.5l6-11.5h-10l5-7h23l12,15l15.2,10h15.8c0,0,26,9.8,29,4.8s3-5.1,3-5.1l16.3,19.9c0,0-7.7,0,0,5
				s16.7,15,16.7,15l-4.9,26l5.1,19c0,0,0,12,0,15s0,9,0,9s-8.1,4-11.1,7s-5.7,8-5.7,8l-7.4,4c0,0-7,4-14,5s-22-9-22-9l-16.4-2
				l-19.6,16c0,0-5-5.8-8-5.8s-25,6.2-25,6.2h-86l-1-6.2l-8-8.1l-11-1.8l-14,6.2h-14l-13,10h-20l-9-4.2l-13-11.9l-9,6.1h-14l-12,10
				h-17h-18h-28l-7,6.8l-16-8.1l-15-1.1l-15,1l-8,8l-10-11l-8-6l-6-7l-25,7.2l6,8.2h-22l-21-2l-12-6h-15H111v-14.4l-6.1-10l6.9-20
				l-0.9-15l-5.9-8v-24l9-21l-4-9v-13L135.8,14z"/>
		</g>
		<g>
			<g>
				<path fill="#5E3112" d="M759.8,49.8c-2.5-5.5-3.5-19.8-3.5-19.8h8.5c0,0,0,3.8,2.5,4.3s14.5-0.6,16-0.6s6-0.6,7.5,1.9
					s3.5,6.5,3.5,6.5s-6.5,3.5-6.5,5s2.5,7.5-1,9.5s-8,1.5-11.5,3.5s-16.5,3.6-16.5,3.6L759.8,49.8z"/>
				<polygon fill="#5E3112" points="798.5,19.1 801.5,10.6 813,14.8 813,23.6 805.8,29.6 				"/>
			</g>
			<g>
				<path fill="#9F5B26" d="M759.8,47.8c-2.5-5.5-3.5-19.8-3.5-19.8h8.5c0,0,0,3.8,2.5,4.3s14.5-0.6,16-0.6s6-0.6,7.5,1.9
					s3.5,6.5,3.5,6.5s-6.5,3.5-6.5,5s2.5,7.5-1,9.5s-8,1.5-11.5,3.5s-16.5,3.6-16.5,3.6L759.8,47.8z"/>
				<polygon fill="#9F5B26" points="798.5,17.1 801.5,8.6 813,12.8 813,21.6 805.8,27.6 				"/>
			</g>
			<g>
				<path fill="#CDA34F" d="M759.8,44.8c-2.5-5.5-3.5-19.8-3.5-19.8h8.5c0,0,0,3.8,2.5,4.3s14.5-0.6,16-0.6s6-0.6,7.5,1.9
					s3.5,6.5,3.5,6.5s-6.5,3.5-6.5,5s2.5,7.5-1,9.5s-8,1.5-11.5,3.5s-16.5,3.6-16.5,3.6L759.8,44.8z"/>
				<polygon fill="#CDA34F" points="798.5,14.1 801.5,5.6 813,9.8 813,18.6 805.8,24.6 				"/>
			</g>
		</g>
		<g>
			<path fill="#5E3112" d="M10.3,151.6c1.5-4,15-17,15-17l9,8.5c0,0-2.5,6,0,8.5s12,2.5,12.5,4s-4.5,9-4.5,9l-11.5-8.5l-8.5,8.5
				L10.3,151.6z"/>
			<path fill="#9F5B26" d="M10.3,149.6c1.5-4,15-17,15-17l9,8.5c0,0-2.5,6,0,8.5s12,2.5,12.5,4s-4.5,9-4.5,9l-11.5-8.5l-8.5,8.5
				L10.3,149.6z"/>
			<path fill="#CDA34F" d="M10.3,145.6c1.5-4,15-17,15-17l9,8.5c0,0-2.5,6,0,8.5s12,2.5,12.5,4s-4.5,9-4.5,9l-11.5-8.5l-8.5,8.5
				L10.3,145.6z"/>
		</g>
	</g>
</g>
</svg>
