<?xml version="1.0" encoding="utf-8"?>
<!-- Generator: Adobe Illustrator 18.0.0, SVG Export Plug-In . SVG Version: 6.00 Build 0)  -->
<!DOCTYPE svg PUBLIC "-//W3C//DTD SVG 1.1//EN" "http://www.w3.org/Graphics/SVG/1.1/DTD/svg11.dtd">
<svg version="1.1" id="Layer_1" xmlns="http://www.w3.org/2000/svg" xmlns:xlink="http://www.w3.org/1999/xlink" x="0px" y="0px"
	 viewBox="0 0 305.7 138.2" enable-background="new 0 0 305.7 138.2" xml:space="preserve">
<path fill="#5E3112" d="M3.2,24.1c0,0,10.3-1.7,19.4-0.3c9.1,1.3,18.9-3.5,18.9-3.5s-0.7-4.1,3.3-4.1s18.6-0.7,22,0
	c3.3,0.7,12,3.6,12,3.6v4l7.5,3c0,0,5.3-4.3,12.3-5.5s4.2-3.2,11.2-3.2s15.7-3.9,24.3-2.3s25.4-1.1,30,5.3
	c4.7,6.3,13.3,9.7,18.7,5.7s12-8,19-8.7S212,13.3,214,16s9.3,6.7,9.3,6.7l4.7,3.2c0,0,3.3-2.6,7.3-4.1s7.3,0.7,11.3-0.1
	s9.3,0.1,14.7-0.1s16.7,1.5,21.3,0c4.7-1.5,11.3,0,11.3,0l10.7,3.8l-3.3,17.7l3,4.3l-7.7,7.3v11c0,0,4.8,7.7,4.8,11
	c0,3.3-2.4,11.3-3.1,13.3c-0.7,2-2.5,1.3-1.9,9.3c0.7,8,0.7,8,0.7,8l0.7,6l0.7,7.3l-4.7,6c-6-4-9.3-8.7-9.3-8.7s-5.3-7.3-8.7-4.7
	c-3.3,2.7-8.7,7.8-8.7,7.8l-2.7,6.5h-4l-4-5.8l-6.7,1.8c0,0,1.3,9.1-6.7,9.8c-8,0.7-9.2-0.7-15.3,0c-6.1,0.7-6.7,1-10.1,0.2
	c-3.3-0.9-16.3-2.2-16.3,0.5c0,2.6-9,4.1-9,4.1l-5.3-4.1l-3.3-1.3h-7.3l-6-0.2l-3.3-0.9l-4-8.8l-16.7,3.9l-7.3,5.9h-5.7l-7-2.8
	c0,0-4.7,1.1-6.7,2.4c-2,1.3-2.7,1.9-6.7,1.9s-14.7-0.1-14.7-0.7c0-0.7-12.7-0.7-12.7-0.7l-22.7-2L36,126.1l-19.3,2l-4.7-2l-5.3-3.3
	l-4-18.7l10-12v-9.3L7.5,72.1L2.9,54.7l5.6-20L3.2,24.1z"/>
<path fill="#9F5B26" d="M3.2,19.1c0,0,10.3-1.7,19.4-0.3c9.1,1.3,18.9-3.5,18.9-3.5s-0.7-4.1,3.3-4.1s18.6-0.7,22,0
	c3.3,0.7,12,3.6,12,3.6v4l7.5,3c0,0,5.3-4.3,12.3-5.5s4.2-3.2,11.2-3.2s15.7-3.9,24.3-2.3s25.4-1.1,30,5.3
	c4.7,6.3,13.3,9.7,18.7,5.7s12-8,19-8.7c7-0.7,10.3-4.8,12.3-2.1s9.3,6.7,9.3,6.7l4.7,3.2c0,0,3.3-2.6,7.3-4.1s7.3,0.7,11.3-0.1
	s9.3,0.1,14.7-0.1s16.7,1.5,21.3,0c4.7-1.5,11.3,0,11.3,0l10.7,3.8l-3.3,17.7l3,4.3l-7.7,7.3v11c0,0,4.8,7.7,4.8,11
	c0,3.3-2.4,11.3-3.1,13.3c-0.7,2-2.5,1.3-1.9,9.3c0.7,8,0.7,8,0.7,8l0.7,6l0.7,7.3l-4.7,6c-6-4-9.3-8.7-9.3-8.7s-5.3-7.3-8.7-4.7
	c-3.3,2.7-8.7,7.8-8.7,7.8l-2.7,6.5h-4l-4-5.8l-6.7,1.8c0,0,1.3,9.1-6.7,9.8c-8,0.7-9.2-0.7-15.3,0c-6.1,0.7-6.7,1-10.1,0.2
	c-3.3-0.9-16.3-2.2-16.3,0.5c0,2.6-9,4.1-9,4.1l-5.3-4.1l-3.3-1.3h-7.3l-6-0.2l-3.3-0.9l-4-8.8l-16.7,3.9l-7.3,5.9h-5.7l-7-2.8
	c0,0-4.7,1.1-6.7,2.4c-2,1.3-2.7,1.9-6.7,1.9s-14.7-0.1-14.7-0.7c0-0.7-12.7-0.7-12.7-0.7l-22.7-2L36,121.1l-19.3,2l-4.7-2l-5.3-3.3
	l-4-18.7l10-12v-9.3L7.5,67.1L2.9,49.7l5.6-20L3.2,19.1z"/>
<path fill="#F6921E" d="M3.2,13.1c0,0,10.3-1.7,19.4-0.3s18.9-3.5,18.9-3.5s-0.7-4.1,3.3-4.1s18.6-0.7,22,0c3.3,0.7,12,3.6,12,3.6v4
	l7.5,3c0,0,5.3-4.3,12.3-5.5s4.2-3.2,11.2-3.2s15.7-3.9,24.3-2.3s25.4-1.1,30,5.3c4.7,6.3,13.3,9.7,18.7,5.7s12-8,19-8.7
	S212,2.3,214,5s9.3,6.7,9.3,6.7l4.7,3.2c0,0,3.3-2.6,7.3-4.1s7.3,0.7,11.3-0.1c4-0.8,9.3,0.1,14.7-0.1s16.7,1.5,21.3,0
	c4.7-1.5,11.3,0,11.3,0l10.7,3.8l-3.3,17.7l3,4.3l-7.7,7.3v11c0,0,4.8,7.7,4.8,11c0,3.3-2.4,11.3-3.1,13.3c-0.7,2-2.5,1.3-1.9,9.3
	c0.7,8,0.7,8,0.7,8l0.7,6l0.7,7.3l-4.7,6c-6-4-9.3-8.7-9.3-8.7s-5.3-7.3-8.7-4.7c-3.3,2.7-8.7,7.8-8.7,7.8l-2.7,6.5h-4l-4-5.8
	l-6.7,1.8c0,0,1.3,9.1-6.7,9.8s-9.2-0.7-15.3,0c-6.1,0.7-6.7,1-10.1,0.2c-3.3-0.9-16.3-2.2-16.3,0.5s-9,4.1-9,4.1l-5.3-4.1l-3.3-1.3
	h-7.3l-6-0.2l-3.3-0.9l-4-8.8l-16.7,3.9l-7.3,5.9h-5.7l-7-2.8c0,0-4.7,1.1-6.7,2.4c-2,1.3-2.7,1.9-6.7,1.9s-14.7-0.1-14.7-0.7
	S86,121.8,86,121.8l-22.7-2L36,115.1l-19.3,2l-4.7-2l-5.3-3.3l-4-18.7l10-12v-9.3L7.5,61.1L2.9,43.7l5.6-20L3.2,13.1z"/>
</svg>
