<?xml version="1.0" encoding="utf-8"?>
<!-- Generator: Adobe Illustrator 18.0.0, SVG Export Plug-In . SVG Version: 6.00 Build 0)  -->
<!DOCTYPE svg PUBLIC "-//W3C//DTD SVG 1.1//EN" "http://www.w3.org/Graphics/SVG/1.1/DTD/svg11.dtd">
<svg version="1.1" id="Layer_1" xmlns="http://www.w3.org/2000/svg" xmlns:xlink="http://www.w3.org/1999/xlink" x="0px" y="0px"
	 viewBox="1165.5 0 1177.3 4961" enable-background="new 1165.5 0 1177.3 4961" xml:space="preserve">
<g id="Layer_1_1_" display="none">
	<g display="inline">
		<g>
			<g>
				<g>
					<path fill="#5E3112" d="M1665.7,2283.2l1.7,4l1.9-4h4.6l2.8,3.7l6.7-2.2l5.3,0.3c0.3,1.7,5.7,4.3,5.7,4.3s5.1,3.4,5.1,4.4
						s-1.7,5.7,0,5.9c1.7,0.2,6.6,4.6,7.7,4.9c1,0.3,8,3.7,8,3.7v7.2c0,0,2.2,3.5,2.2,4.6s0.3,4.9,0,7.9c-0.3,3,0.2,20,0.2,20h-6.9
						l-0.7,8l-3.4,2.3h-4l-5.1,5c0,0-6.4,3.3-5.9,4.3c0.5,1,0,4.7,0,4.7l-10.6-5.4c0,0-0.3-5.1-1.4-5.1c-1,0-4.7-5.1-4.7-5.1
						l-7.5,8.7l-5,11.3l-8.4,4h-8.6l-5.5-2.7l3-2.2l-5.3-8.4l-7.4-1.3l-4.4-1l-2.1-4.4v-6.4l-3.4-7.8l-2.5-6.4l2.3-33.9l3.7,0.3
						l-1-9.4l1-5.7l5.1-5.3l5.1-1.3l4-1.5h7.6l9.2,3.7l8.8-3.7L1665.7,2283.2L1665.7,2283.2z"/>
				</g>
				<g>
					<path fill="#9F5B26" d="M1665.7,2279.8l1.7,4l1.9-4h4.6l2.8,3.9l6.7-2.2l5.3,0.3c0.3,1.7,5.7,4.3,5.7,4.3s5.1,3.4,5.1,4.4
						c0,1-1.7,5.7,0,5.9c1.7,0.2,6.6,4.6,7.7,4.9c1,0.3,8,3.7,8,3.7v7.2c0,0,2.2,3.5,2.2,4.6c0,1,0.3,5.2,0,8.2
						c-0.3,3,0.2,20.3,0.2,20.3h-6.9l-0.7,7.6l-3.4,1.9h-4l-5.1,5.2c0,0-6.4,3.4-5.9,4.3c0.5,1,0,4.7,0,4.7l-10.6-5.4
						c0,0-0.3-5.1-1.4-5.1c-1,0-4.7-5.1-4.7-5.1l-7.5,8.8l-5,11.5l-8.4,4.3h-8.6l-5.5-2.9l3-2.4l-5.3-8.4l-7.4-1.4l-4.4-1l-2.1-4.4
						v-6.4l-3.4-7.8l-2.5-6.4l2.3-33.9l3.7,0.3l-1-9.4l1-5.7l5.1-5.3l5.1-1.4l4-1.6h7.6l9.2,3.7l8.8-3.7L1665.7,2279.8
						L1665.7,2279.8z"/>
				</g>
				<g>
					<path fill="#CDA34F" d="M1667,2278l1.7,4l1.9-4h4.6l2.8,3.7l6.7-2.2l5.3,0.3c0.3,1.7,5.7,4.3,5.7,4.3s5.1,3.4,5.1,4.4
						c0,1-1.7,5.7,0,5.9c1.7,0.2,6.9,4.6,7.8,4.9c1,0.3,8.2,3.7,8.2,3.7v7.2c0,0,2,3.5,2,4.6s0.3,5.3-0.1,8.3s0.1,20.4,0.1,20.4
						h-6.9l-0.7,7.6l-3.4,1.9h-4l-5.1,5c0,0-6.4,3.3-5.9,4.3c0.5,1,0,4.7,0,4.7l-10.6-5.4c0,0-0.3-5.1-1.4-5.1s-4.7-5.1-4.7-5.1
						l-7.5,8.7l-5,11.2l-8.4,4h-8.6l-5.5-2.7l3-2.2l-5.3-8.4l-7.4-1.3l-4.6-1l-2.2-4.4v-6.4l-3.3-7.8l-2.4-6.4l2.3-33.9l3.7,0.3
						l-1-9.4l1-5.7l5.1-5.3l5.1-1.3l4-1.5h7.6l9.2,3.7l8.8-3.7L1667,2278L1667,2278z"/>
				</g>
			</g>
			<g>
				<g>
					<path fill="#5E3112" d="M1683.7,2405.4l-7-3.5l-9.9,1.7l-7.6-1.7c0,0-3.3,6.6-3.3,7.6c0,0.9-2.3,17.1-2.3,17.1l-13.3,8.6v-13
						l-5-3.6l-7.8,8.1l-4,13l1.4,9h-5.2v13v17.8l10.2,7.8l4.1,6.9l14.9,2.9l7.3,5.3l1.6-2.3c0,0,2.3-0.9,4-0.3
						c1.6,0.7,3.3,2.7,3.3,2.7l1.6,3.2c0,0,5.9-3.8,6.9-3.8s10.1-0.3,10.1-0.3l3.1-2.7c0,0,1.3-1.6,2.7-1.6c1.4,0,6.6-0.3,6.6-0.3
						l2-5.6l5.9-2l4.3-4.3l1.7-4v-2l-2.6-0.9l5.9-5.3l2.9-37.3l-5,5.3l0.3-11.5l-3.3-4.3l-3.6-4.3l-4-2.7l-1.3-4.3l-4-2.7
						L1683.7,2405.4z"/>
				</g>
				<g>
					<path fill="#9F5B26" d="M1683.7,2402.2l-7-3.5l-9.9,1.7l-7.6-1.7c0,0-3.3,6.6-3.3,7.6c0,0.9-2.3,17.1-2.3,17.1l-13.3,8.6v-13
						l-5-3.6l-7.8,8.1l-4,13.4l1.4,9.4h-5.2v12.4v17.8l10.2,7.8l4.1,6.9l14.9,2.9l7.3,5.3l1.6-2.3c0,0,2.3-0.9,4-0.3
						c1.6,0.7,3.3,2.7,3.3,2.7l1.6,3.2c0,0,5.9-3.8,6.9-3.8s10.1-0.3,10.1-0.3l3.1-2.7c0,0,1.3-1.6,2.7-1.6c1.4,0,6.6-0.3,6.6-0.3
						l2-5.6l5.9-2l4.3-4.3l1.7-4v-2l-2.6-0.9l5.9-5.3l2.9-37.3l-5,5.3l0.3-11.5l-3.3-4.3l-3.6-4.3l-4-2.7l-1.3-4.3l-4-2.7
						L1683.7,2402.2z"/>
				</g>
				<g>
					<path fill="#CDA34F" d="M1684.3,2399.6l-7-3.5l-9.9,1.7l-7.6-1.7c0,0-3.3,6.6-3.3,7.6s-2.2,17.1-2.2,17.1l-13.1,8.6v-13
						l-5.2-3.6l-7.9,8.1l-4,13.4l1.3,9.4h-5v12.4v17.8l10.1,7.8l4,6.9l14.9,2.9l7.3,5.3l1.6-2.3c0,0,2.3-0.9,4-0.3
						c1.6,0.7,3.3,2.7,3.3,2.7l1.6,3.2c0,0,5.9-3.8,6.9-3.8c0.9,0,10.1-0.3,10.1-0.3l3.1-2.7c0,0,1.3-1.6,2.7-1.6
						c1.4,0,6.6-0.3,6.6-0.3l2-5.6l5.9-2l4-4.3l1.4-4v-2l-2.2-0.9l6-5.3l3-37.3l-4.9,5.3l0.3-11.5l-3.3-4.3l-3.6-4.3l-4-2.7
						l-1.3-4.3l-4-2.7L1684.3,2399.6z"/>
				</g>
			</g>
			<g>
				<g>
					<path fill="#5E3112" d="M1624.8,2673.6l-0.9,5.7v6.3l-4,4.9l2.2,7.2v6.2c0,0,0.1,2.8,0.2,4.7s0.3,6.3,0.2,9.2
						c-0.2,2.9,2.4,7.9,2.4,7.9s2.8,6.9,2.8,10.9s4,6.3,4,6.3s8.9-1.3,9.9,0c0.9,1.3,5.9,7.6,5.9,7.6l5.3-1.6l1.6-1.6l3.6,4h3.3h8.2
						h5.7l2-5l8.2,0.7l6.9-4.6l15.5-9.6l2.9-9.9l-2.3-2l4.7-8.4l4-7.7V2693l-4.4-7.4c0,0,0.1-6.3,0.1-7.2c0-0.9,0-6.1,0-6.1
						l-0.1-1.3h-2h-4.9l-2-5.2h-5.4l-0.2-7.6l-3.8-2.9l-2.5-2.9l-9.2,2l-4.6-5.8h-7.4l-3.8,0.9l-4.9,1.4l-4.6-0.3l-12.1,9.2
						l-3.6-2.9l-5.3,4.9l-3.3,1.6l-3.4,4.3L1624.8,2673.6z"/>
				</g>
				<g>
					<path fill="#9F5B26" d="M1624.8,2670.4l-0.9,5.7v6.3l-4,4.9l2.2,7.2v6.2c0,0,0.1,2.8,0.2,4.7c0.1,2,0.3,6.3,0.2,9.2
						c-0.2,2.9,2.4,7.9,2.4,7.9s2.8,6.9,2.8,10.9c0,4,4,6.3,4,6.3s8.9-1.3,9.9,0c0.9,1.3,5.9,7.6,5.9,7.6l5.3-1.6l1.6-1.8l3.6,3.9
						h3.3l8.2,0.9h5.7l2-5.3l8.2,0.5l6.9-4.7l15.5-9.6l2.9-9.9l-2.3-2l4.7-8.4l4-7.7v-11.7l-4.4-7.4c0,0,0.1-6.3,0.1-7.2
						s0-6.1,0-6.1l-0.1-0.7h-2h-4.9l-2-5.2h-5.4l-0.2-7.8l-3.8-3.1l-2.5-3l-9.2,2.2l-4.6-5.5h-7.4l-3.8,0.5l-4.9,1.2l-4.6-0.4
						l-12.1,9.1l-3.6-3l-5.3,4.9l-3.3,1.6l-3.4,4.3L1624.8,2670.4z"/>
				</g>
				<g>
					<path fill="#CDA34F" d="M1624.8,2667.8l-0.9,5.7v6.3l-4,4.9l2.2,7.2v6.2c0,0,0.1,2.8,0.2,4.7s0.3,6.3,0.2,9.2
						c-0.3,2.9,2.4,7.9,2.4,7.9s2.8,6.9,2.8,10.9s4,6.3,4,6.3s8.9-1.3,9.9,0c0.9,1.3,5.9,7.6,5.9,7.6l5.3-1.6l1.6-1.8l3.6,3.9h3.3
						l8.2,0.9h5.7l2-5.3l8.2,0.5l6.9-4.7l15.5-9.6l2.9-9.9l-2.3-2l4.7-8.4l4-7.7v-11.7l-4.4-7.4c0,0,0.1-6.3,0.1-7.2s0-6.1,0-6.1
						l-0.1-0.7h-2h-4.9l-2-5.2h-5.4l-0.2-7.8l-3.8-3.1l-2.5-3l-9.2,2.2l-4.6-5.5h-7.4l-3.8,0.5l-4.9,1.2l-4.6-0.4l-12.1,9.2l-3.6-3
						l-5.3,4.9l-3.3,1.6l-3.4,4.3L1624.8,2667.8z"/>
				</g>
			</g>
			<g>
				<g>
					<path fill="#5E3112" d="M1648.4,2622.8l2.7,2.8l5.3-2.8l4.9,2.3l2.2,2.9l7.9-1.9h9.8l1.3-2.8l6.2-1.6h4.7l3.8-5.3
						c0,0,3.3-1.5,4.3-1.8c0.9-0.3,4-8.6,4-8.6l-2-3.4c0,0,3.3-3.6,4.6-3.6s5.1,2.3,4.7,0c-0.4-2.3,2.2-10.2,2.2-10.2v-7.2v-5.4
						l-6.9,0.2l3.8-8.9l4.3-6.5l-3.5-6.5l-0.9-5.6l-2.6-2h-4.7c0,0,2.2-8.1,0.9-8.1c-1.3,0-10.2-7.4-10.2-7.4h-4.4l-5.1-3.5
						l-3.1-1.6h-4.7c0,0-5.4,0.5-6.4,0.4c-0.9-0.2-4.6,2.2-4.6,2.2h-5.3c0,0-2.6,0.8-4.6,0.8c-2,0-7.6,1.5-7.6,1.5l-2.6,0.3l-4-1.4
						l-2-0.3l-3.6,2.9l-2.3,6.5l-3.6,3.3l-2.4,2l-1.7,6.2v15.9l-6.7,4.1l2.5,8.2l-2.4,5.9l0.6,3.6v2.3l2.6,9.5l0.9,3.4l1.9,2.8
						l3.2-5.8l2.8,0.3l0.8,5.3v2.8l3.2,4.1l3.5,4.6L1648.4,2622.8z"/>
				</g>
				<g>
					<path fill="#9F5B26" d="M1648.4,2619.6l2.7,2.8l5.3-2.8l4.9,2.3l2.2,3.2l7.9-1.6h9.8l1.3-3.2l6.2-2h4.7l3.8-5.2
						c0,0,3.3-1.4,4.3-1.7c0.9-0.3,4-8.6,4-8.6l-2-3.3c0,0,3.3-3.6,4.6-3.6s5.1,2.3,4.7,0c-0.4-2.3,2.2-10.2,2.2-10.2v-7.2v-5.4
						l-6.9,0.2l3.8-8.9l4.3-6.5l-3.5-6.5l-0.9-5.8l-2.6-2.2h-4.7c0,0,2.2-8.1,0.9-8.1c-1.3,0-10.2-7.4-10.2-7.4h-4.4l-5.1-3.1
						l-3.1-1.2h-4.7c0,0-5.4,0.5-6.4,0.4c-0.9-0.2-4.6,2.2-4.6,2.2h-5.3c0,0-2.6,0.5-4.6,0.5c-2,0-7.6,1.3-7.6,1.3l-2.6,0.2l-4-1.4
						l-2-0.3l-3.6,2.9l-2.3,6.5l-3.6,3.3l-2.4,2l-1.7,6.2v15.9l-6.7,4.1l2.5,8.2l-2.4,5.9l0.6,3.6v2.3l2.6,9.5l0.9,3.4l1.9,2.8
						l3.2-5.8l2.8,0.3l0.8,5.3v2.8l3.2,4.1l3.5,4.6L1648.4,2619.6z"/>
				</g>
				<g>
					<path fill="#CDA34F" d="M1648.4,2617.1l2.7,2.8l5.3-2.8l4.9,2.3l2.2,3.2l7.9-1.6h9.8l1.3-3.2l6.2-2h4.7l3.8-5.2
						c0,0,3.3-1.4,4.3-1.7c0.9-0.3,4-8.6,4-8.6l-2-3.3c0,0,3.3-3.6,4.6-3.6s5.1,2.3,4.7,0c-0.4-2.3,2.2-10.2,2.2-10.2v-7.2v-5.4
						l-6.9,0.2l3.8-8.9l4.3-6.5l-3.5-6.5l-0.9-5.8l-2.6-2.2h-4.7c0,0,2.2-7.7,0.9-7.7c-1.3,0-10.2-7-10.2-7h-4.4l-5.1-3.5l-3.1-1.6
						h-4.7c0,0-5.4,0.5-6.4,0.4c-0.9-0.2-4.6,2.2-4.6,2.2h-5.3c0,0-2.6,0.5-4.6,0.5c-2,0-7.6,1.3-7.6,1.3l-2.6,0.2l-4-1.4l-2-0.3
						l-3.6,2.9l-2.3,6.5l-3.6,3.3l-2.4,2l-1.7,6.2v15.9l-6.7,4.1l2.5,8.2l-2.4,5.9l0.6,3.6v2.3l2.6,9.5l0.9,3.4l1.9,2.8l3.2-5.8
						l2.8,0.3l0.8,5.3v2.8l3.2,4.1l3.5,4.6L1648.4,2617.1z"/>
				</g>
			</g>
		</g>
		<g>
			<path fill="#603813" d="M1732.6,2704l-0.1-8.6l17.3-0.2l0.1,8.6L1732.6,2704z M1767.3,2703.7l-0.1-8.6l17.3-0.2l0.1,8.6
				L1767.3,2703.7z M1801.8,2703.3l-0.1-8.6l17.3-0.2l0.1,8.6L1801.8,2703.3z M1836.4,2703l-0.1-8.6l17.2-0.2l0.1,8.6L1836.4,2703z
				 M1870.9,2702.7l-0.1-8.6l17.2-0.2l0.1,8.6L1870.9,2702.7z M1905.5,2702.4l-0.1-8.6l17.2-0.2l0.1,8.6L1905.5,2702.4z
				 M1940,2702.1l-0.1-8.6l17.2-0.2l0.1,8.6L1940,2702.1z M1974.6,2701.8l-0.1-8.6l17.3-0.2l0.1,8.6L1974.6,2701.8z M2009.1,2701.6
				l-0.1-8.6c6-0.1,11.9-0.1,17.3-0.1l0.1,8.6C2020.9,2701.5,2015.1,2701.6,2009.1,2701.6z M2043.7,2701.4l-0.1-8.6
				c6.7,0,12.6-0.1,17.3-0.1v8.6C2056.2,2701.3,2050.4,2701.3,2043.7,2701.4z M2079.2,2700l-2.1-8.4c4.9-1.2,9.4-3.5,13.2-7l5.8,6.5
				C2091.1,2695.6,2085.5,2698.5,2079.2,2700z M2107.2,2676.2l-7.7-4c2.2-4.4,4.1-9.6,5.6-15.3l8.4,2.2
				C2112,2665.5,2109.8,2671.3,2107.2,2676.2z M2116.7,2641.6l-8.5-0.9c0.7-6.3,0.9-11.6,0.9-14.9c0-0.7,0-1.3,0-1.7l8.6-0.2
				c0,0.5,0,1.1,0,1.9C2117.7,2629.3,2117.5,2634.9,2116.7,2641.6z M2105.9,2608.4c-1.7-5.1-4.1-9.9-7.2-14.2l7.1-4.9
				c3.5,5,6.3,10.5,8.3,16.4L2105.9,2608.4z M2087.7,2582.6c-4.1-3.4-8.8-6.2-13.7-8.4l3.5-7.8c5.6,2.5,10.9,5.8,15.6,9.6
				L2087.7,2582.6z M2059,2571.8h-17.2v-8.6h17.2V2571.8z M2024.5,2571.8h-17.2v-8.6h17.2V2571.8z M1990.1,2571.8h-17.2v-8.6h17.2
				V2571.8z M1955.6,2571.8h-17.2v-8.6h17.2V2571.8z M1921.1,2571.8h-17.2v-8.6h17.2V2571.8z M1886.7,2571.8h-17.2v-8.6h17.2V2571.8
				z M1852.2,2571.8H1835v-8.6h17.2V2571.8z M1817.8,2571.8h-17.2v-8.6h17.2V2571.8z M1783.3,2571.8h-17.2v-8.6h17.2V2571.8z
				 M1748.8,2571.8h-17.2v-8.6h17.2V2571.8z"/>
		</g>
		<g>
			<path fill="#603813" d="M1732.6,2458.4l-0.1-8.6l17.3-0.2l0.1,8.6L1732.6,2458.4z M1767.3,2458.1l-0.1-8.6l17.3-0.2l0.1,8.6
				L1767.3,2458.1z M1801.8,2457.8l-0.1-8.6l17.3-0.2l0.1,8.6L1801.8,2457.8z M1836.4,2457.5l-0.1-8.6l17.2-0.2l0.1,8.6
				L1836.4,2457.5z M1870.9,2457.2l-0.1-8.6l17.2-0.2l0.1,8.6L1870.9,2457.2z M1905.5,2456.9l-0.1-8.6l17.2-0.2l0.1,8.6
				L1905.5,2456.9z M1940,2456.5l-0.1-8.6l17.2-0.2l0.1,8.6L1940,2456.5z M1974.6,2456.3l-0.1-8.6l17.3-0.2l0.1,8.6L1974.6,2456.3z
				 M2009.1,2456l-0.1-8.6c6-0.1,11.9-0.1,17.3-0.1l0.1,8.6C2020.9,2455.9,2015.1,2456,2009.1,2456z M2043.7,2455.9l-0.1-8.6
				c6.7,0,12.6-0.1,17.3-0.1v8.6C2056.2,2455.8,2050.4,2455.8,2043.7,2455.9z M2079.2,2454.5l-2.1-8.4c4.9-1.2,9.4-3.5,13.2-7
				l5.8,6.5C2091.1,2450,2085.5,2452.9,2079.2,2454.5z M2107.2,2430.6l-7.7-4c2.2-4.4,4.1-9.6,5.6-15.3l8.4,2.2
				C2112,2419.9,2109.8,2425.7,2107.2,2430.6z M2116.7,2396.1l-8.5-0.9c0.7-6.3,0.9-11.6,0.9-14.9c0-0.7,0-1.3,0-1.7l8.6-0.2
				c0,0.5,0,1.1,0,1.9C2117.7,2383.7,2117.5,2389.3,2116.7,2396.1z M2105.9,2362.9c-1.7-5.1-4.1-9.9-7.2-14.2l7.1-4.9
				c3.5,5,6.3,10.5,8.3,16.4L2105.9,2362.9z M2087.7,2337c-4.1-3.4-8.8-6.2-13.7-8.4l3.5-7.8c5.6,2.5,10.9,5.8,15.6,9.6L2087.7,2337
				z M2059,2326.3h-17.2v-8.6h17.2V2326.3z M2024.5,2326.3h-17.2v-8.6h17.2V2326.3z M1990.1,2326.3h-17.2v-8.6h17.2V2326.3z
				 M1955.6,2326.3h-17.2v-8.6h17.2V2326.3z M1921.1,2326.3h-17.2v-8.6h17.2V2326.3z M1886.7,2326.3h-17.2v-8.6h17.2V2326.3z
				 M1852.2,2326.3H1835v-8.6h17.2V2326.3z M1817.8,2326.3h-17.2v-8.6h17.2V2326.3z M1783.3,2326.3h-17.2v-8.6h17.2V2326.3z
				 M1748.8,2326.3h-17.2v-8.6h17.2V2326.3z"/>
		</g>
	</g>
	<g display="inline">
		<g>
			<g>
				<path fill="#603813" d="M1668.4,2322c3.7,0,6.6,0.9,8.8,2.9c2.2,2,3.2,4.7,3.2,8c0,3.9-1.2,7-3.7,9.1c-2.4,2.2-5.9,3.3-10.4,3.3
					c-4,0-7.3-0.7-9.6-2v-5.3c1.4,0.8,2.9,1.4,4.7,1.8c1.7,0.4,3.4,0.6,4.9,0.6c2.7,0,4.7-0.6,6-1.8c1.4-1.2,2.1-2.9,2.1-5.2
					c0-4.4-2.8-6.5-8.4-6.5c-0.8,0-1.7,0.1-2.9,0.3c-1.2,0.2-2.2,0.3-3,0.5l-2.7-1.6l1.4-17.8h19v5.3h-13.9l-0.9,9
					c0.6-0.1,1.3-0.3,2.2-0.3C1666.2,2322.1,1667.2,2322,1668.4,2322z"/>
			</g>
		</g>
		<g>
			<g>
				<path fill="#603813" d="M1668.4,2451.5c3.7,0,6.6,0.9,8.8,2.9c2.2,2,3.2,4.7,3.2,8c0,3.9-1.2,7-3.7,9.1
					c-2.4,2.2-5.9,3.3-10.4,3.3c-4,0-7.3-0.7-9.6-2v-5.3c1.4,0.8,2.9,1.4,4.7,1.8c1.7,0.4,3.4,0.6,4.9,0.6c2.7,0,4.7-0.6,6-1.8
					c1.4-1.2,2.1-2.9,2.1-5.2c0-4.4-2.8-6.5-8.4-6.5c-0.8,0-1.7,0.1-2.9,0.3c-1.1,0.2-2.2,0.3-3,0.5l-2.7-1.6l1.4-17.8h19v5.3h-13.9
					l-0.9,9c0.6-0.1,1.3-0.3,2.2-0.3C1666.2,2451.6,1667.2,2451.5,1668.4,2451.5z"/>
			</g>
		</g>
		<g>
			<g>
				<path fill="#603813" d="M1668.4,2570c3.7,0,6.6,0.9,8.8,2.9c2.2,2,3.2,4.7,3.2,8c0,3.9-1.2,7-3.7,9.1c-2.4,2.2-5.9,3.3-10.4,3.3
					c-4,0-7.3-0.7-9.6-2v-5.3c1.4,0.8,2.9,1.4,4.7,1.8c1.7,0.4,3.4,0.6,4.9,0.6c2.7,0,4.7-0.6,6-1.8c1.4-1.2,2.1-2.9,2.1-5.2
					c0-4.4-2.8-6.5-8.4-6.5c-0.8,0-1.7,0.1-2.9,0.3c-1.1,0.2-2.2,0.3-3,0.5l-2.7-1.6l1.4-17.8h19v5.3h-13.9l-0.9,9
					c0.6-0.1,1.3-0.3,2.2-0.3C1666.2,2570.1,1667.2,2570,1668.4,2570z"/>
			</g>
		</g>
		<g>
			<g>
				<path fill="#603813" d="M1656.1,2702.3c0-14.3,5.9-21.5,17.5-21.5c1.8,0,3.4,0.2,4.7,0.4v4.9c-1.3-0.3-2.8-0.5-4.4-0.5
					c-4,0-6.9,1-8.9,3.2c-2,2.1-3,5.5-3.2,10.1h0.3c0.8-1.4,1.9-2.4,3.3-3.1c1.4-0.8,3.1-1.1,5-1.1c3.4,0,5.9,1,7.8,3
					c1.9,2.1,2.8,4.8,2.8,8.3c0,3.9-1,6.9-3.2,9.1s-5.1,3.4-8.8,3.4c-2.6,0-4.9-0.6-6.8-1.9c-1.9-1.3-3.4-3.1-4.5-5.5
					C1656.6,2708.6,1656.1,2705.6,1656.1,2702.3z M1668.9,2713.5c2,0,3.5-0.7,4.7-2c1.1-1.3,1.6-3.2,1.6-5.6c0-2.1-0.5-3.8-1.6-5
					s-2.6-1.8-4.7-1.8c-1.3,0-2.4,0.3-3.5,0.8c-1,0.5-1.9,1.3-2.5,2.2c-0.6,0.9-0.9,1.9-0.9,2.9c0,2.3,0.6,4.3,1.9,5.9
					C1665.3,2712.7,1666.9,2713.5,1668.9,2713.5z"/>
			</g>
		</g>
	</g>
	<g display="inline">
		<g>
			<path fill="#603813" d="M1738.2,2298.8v1.1l-2.2,0.3c0.2,0.3,0.3,0.6,0.5,0.9c0.2,0.4,0.3,0.9,0.3,1.4c0,1.1-0.3,2.1-1.1,2.7
				c-0.8,0.7-1.8,1-3.2,1c-0.3,0-0.7,0-0.9-0.1c-0.8,0.4-1.1,0.9-1.1,1.5c0,0.3,0.2,0.5,0.4,0.7c0.3,0.2,0.7,0.3,1.4,0.3h2.1
				c1.2,0,2.2,0.3,2.8,0.8c0.7,0.5,1,1.3,1,2.3c0,1.3-0.5,2.2-1.6,2.9c-1,0.7-2.5,1-4.5,1c-1.6,0-2.7-0.3-3.4-0.9
				c-0.8-0.6-1.2-1.4-1.2-2.4c0-0.7,0.3-1.3,0.7-1.8s1.1-0.9,1.9-1c-0.3-0.2-0.5-0.3-0.8-0.6c-0.2-0.3-0.3-0.6-0.3-0.9
				c0-0.4,0.1-0.8,0.3-1.1c0.3-0.3,0.6-0.6,1-0.9c-0.6-0.3-1.1-0.7-1.5-1.3c-0.3-0.6-0.6-1.3-0.6-2c0-1.3,0.3-2.2,1.1-2.9
				s1.8-1,3.2-1c0.6,0,1.1,0.1,1.6,0.2L1738.2,2298.8L1738.2,2298.8z M1729,2312.2c0,0.6,0.3,1.1,0.8,1.4s1.3,0.5,2.2,0.5
				c1.5,0,2.6-0.3,3.3-0.7c0.7-0.4,1-1,1-1.8c0-0.6-0.2-1-0.6-1.3c-0.3-0.3-1.1-0.3-2.2-0.3h-2c-0.8,0-1.4,0.2-1.8,0.6
				C1729.4,2311,1729,2311.5,1729,2312.2z M1730,2302.5c0,0.8,0.3,1.4,0.7,1.8c0.4,0.4,1.1,0.6,1.9,0.6c1.7,0,2.6-0.9,2.6-2.5
				c0-1.7-0.9-2.6-2.6-2.6c-0.9,0-1.5,0.3-1.9,0.7C1730.2,2300.9,1730,2301.6,1730,2302.5z"/>
			<path fill="#603813" d="M1748.5,2310.3v-7.5c0-0.9-0.2-1.6-0.6-2.1c-0.4-0.4-1.1-0.7-2-0.7c-1.2,0-2.1,0.3-2.7,0.9
				c-0.5,0.7-0.9,1.7-0.9,3.3v6h-1.7V2294h1.7v4.9c0,0.6,0,1.1-0.1,1.5h0.1c0.3-0.5,0.9-0.9,1.5-1.3c0.6-0.3,1.4-0.5,2.2-0.5
				c1.4,0,2.5,0.3,3.2,1c0.7,0.7,1,1.7,1,3.2v7.5L1748.5,2310.3L1748.5,2310.3z"/>
			<path fill="#603813" d="M1753.7,2295.7c0-0.4,0.1-0.7,0.3-0.9c0.2-0.2,0.4-0.3,0.8-0.3c0.3,0,0.5,0.1,0.7,0.3
				c0.2,0.2,0.3,0.5,0.3,0.9c0,0.3-0.1,0.7-0.3,0.9c-0.2,0.2-0.4,0.3-0.7,0.3c-0.3,0-0.5-0.1-0.8-0.3
				C1753.7,2296.4,1753.7,2296,1753.7,2295.7z M1755.6,2310.3h-1.7v-11.5h1.7V2310.3z"/>
			<path fill="#603813" d="M1763.9,2310.5c-1.6,0-2.9-0.5-3.9-1.6c-0.9-1-1.4-2.5-1.4-4.4s0.4-3.4,1.4-4.5c0.9-1,2.2-1.6,4-1.6
				c0.5,0,1.1,0.1,1.6,0.2c0.5,0.1,0.9,0.3,1.3,0.4l-0.5,1.5c-0.3-0.2-0.8-0.3-1.3-0.3c-0.4-0.1-0.9-0.2-1.2-0.2
				c-2.3,0-3.5,1.5-3.5,4.5c0,1.4,0.3,2.5,0.9,3.3s1.4,1.1,2.5,1.1c0.9,0,2-0.2,2.9-0.6v1.6
				C1766.1,2310.3,1765,2310.5,1763.9,2310.5z"/>
			<path fill="#603813" d="M1769.3,2295.7c0-0.4,0.1-0.7,0.3-0.9c0.2-0.2,0.4-0.3,0.8-0.3c0.3,0,0.5,0.1,0.7,0.3
				c0.2,0.2,0.3,0.5,0.3,0.9c0,0.3-0.1,0.7-0.3,0.9c-0.2,0.2-0.4,0.3-0.7,0.3c-0.3,0-0.5-0.1-0.8-0.3
				C1769.5,2296.4,1769.3,2296,1769.3,2295.7z M1771.2,2310.3h-1.7v-11.5h1.7V2310.3z"/>
			<path fill="#603813" d="M1778.7,2309.1c0.3,0,0.6,0,0.9-0.1c0.3-0.1,0.5-0.1,0.7-0.2v1.4c-0.2,0.1-0.4,0.2-0.9,0.3
				c-0.3,0.1-0.7,0.1-1,0.1c-2.2,0-3.4-1.2-3.4-3.5v-6.9h-1.6v-0.9l1.6-0.7l0.8-2.5h1v2.7h3.4v1.4h-3.4v6.8c0,0.7,0.2,1.2,0.5,1.6
				C1777.7,2308.9,1778.1,2309.1,1778.7,2309.1z"/>
			<path fill="#603813" d="M1792.5,2304.6c0,1.9-0.4,3.4-1.4,4.4s-2.2,1.6-4,1.6c-1,0-2-0.3-2.8-0.7c-0.8-0.4-1.4-1.2-1.8-2.1
				s-0.7-2-0.7-3.2c0-1.9,0.4-3.4,1.4-4.4c0.9-1,2.2-1.6,3.9-1.6c1.6,0,2.9,0.5,3.9,1.6C1792.1,2301.3,1792.5,2302.8,1792.5,2304.6z
				 M1783.7,2304.6c0,1.5,0.3,2.6,0.9,3.4c0.6,0.8,1.5,1.1,2.6,1.1c1.1,0,2-0.3,2.6-1.1s0.9-1.9,0.9-3.4s-0.3-2.6-0.9-3.4
				s-1.5-1.1-2.6-1.1c-1.1,0-2,0.3-2.6,1.1C1784.1,2302,1783.7,2303.1,1783.7,2304.6z"/>
			<path fill="#603813" d="M1800.9,2298.6c0.5,0,0.9,0,1.4,0.1l-0.3,1.6c-0.5-0.1-0.9-0.2-1.3-0.2c-0.9,0-1.7,0.3-2.4,1.1
				c-0.7,0.8-1,1.7-1,2.8v6.2h-1.7v-11.5h1.5l0.2,2.2h0.1c0.4-0.8,0.9-1.3,1.6-1.7C1799.5,2298.8,1800.1,2298.6,1800.9,2298.6z"/>
			<path fill="#603813" d="M1804.2,2295.7c0-0.4,0.1-0.7,0.3-0.9c0.2-0.2,0.4-0.3,0.8-0.3c0.3,0,0.5,0.1,0.7,0.3
				c0.2,0.2,0.3,0.5,0.3,0.9c0,0.3-0.1,0.7-0.3,0.9c-0.2,0.2-0.4,0.3-0.7,0.3c-0.3,0-0.5-0.1-0.8-0.3
				C1804.3,2296.4,1804.2,2296,1804.2,2295.7z M1806.1,2310.3h-1.7v-11.5h1.7V2310.3z"/>
			<path fill="#603813" d="M1820,2310.5c-1.6,0-2.9-0.5-3.9-1.6c-0.9-1-1.4-2.5-1.4-4.4s0.4-3.4,1.4-4.5c0.9-1,2.2-1.6,4-1.6
				c0.5,0,1.1,0.1,1.6,0.2c0.5,0.1,0.9,0.3,1.3,0.4l-0.5,1.5c-0.3-0.2-0.8-0.3-1.3-0.3c-0.4-0.1-0.9-0.2-1.2-0.2
				c-2.3,0-3.5,1.5-3.5,4.5c0,1.4,0.3,2.5,0.9,3.3s1.4,1.1,2.5,1.1c0.9,0,2-0.2,2.9-0.6v1.6
				C1822.2,2310.3,1821.2,2310.5,1820,2310.5z"/>
			<path fill="#603813" d="M1832.7,2310.3l-0.3-1.6h-0.1c-0.6,0.7-1.1,1.2-1.7,1.5c-0.6,0.3-1.3,0.3-2.2,0.3c-1.1,0-2.1-0.3-2.7-0.9
				c-0.7-0.6-0.9-1.5-0.9-2.5c0-2.3,1.9-3.5,5.6-3.6l2-0.1v-0.7c0-0.9-0.2-1.6-0.6-2c-0.4-0.4-1-0.7-1.9-0.7c-0.9,0-2.1,0.3-3.3,0.9
				l-0.5-1.4c0.6-0.3,1.2-0.5,1.9-0.7c0.7-0.2,1.4-0.3,2.1-0.3c1.4,0,2.4,0.3,3,0.9c0.7,0.6,1,1.6,1,2.9v7.8L1832.7,2310.3
				L1832.7,2310.3z M1829.8,2297.2c-0.9,0-1.7-0.3-2.3-0.7c-0.5-0.5-0.9-1.2-0.9-2.1h1.1c0,0.3,0.2,0.6,0.3,0.8
				c0.2,0.2,0.3,0.3,0.6,0.4c0.3,0.1,0.7,0.2,1.3,0.2c0.7,0,1.2-0.1,1.6-0.3c0.3-0.3,0.5-0.6,0.6-1h1.1c-0.1,0.9-0.4,1.6-0.9,2.1
				C1831.5,2297.1,1830.8,2297.2,1829.8,2297.2z M1828.8,2309.1c1.1,0,2-0.3,2.6-0.9s0.9-1.5,0.9-2.5v-1l-1.7,0.1
				c-1.4,0.1-2.4,0.3-3,0.7c-0.6,0.3-0.9,0.9-0.9,1.8c0,0.6,0.2,1.1,0.6,1.5C1827.6,2309,1828.1,2309.1,1828.8,2309.1z"/>
			<path fill="#603813" d="M1842.9,2298.6c0.5,0,0.9,0,1.4,0.1l-0.3,1.6c-0.5-0.1-0.9-0.2-1.3-0.2c-0.9,0-1.7,0.3-2.4,1.1
				c-0.7,0.8-1,1.7-1,2.8v6.2h-1.7v-11.5h1.5l0.2,2.2h0.1c0.4-0.8,0.9-1.3,1.6-1.7C1841.5,2298.8,1842.2,2298.6,1842.9,2298.6z"/>
			<path fill="#603813" d="M1856.4,2304.6c0,1.9-0.4,3.4-1.4,4.4s-2.2,1.6-4,1.6c-1,0-2-0.3-2.8-0.7c-0.8-0.4-1.4-1.2-1.8-2.1
				s-0.7-2-0.7-3.2c0-1.9,0.4-3.4,1.4-4.4c0.9-1,2.2-1.6,3.9-1.6c1.6,0,2.9,0.5,3.9,1.6C1855.9,2301.3,1856.4,2302.8,1856.4,2304.6z
				 M1847.7,2304.6c0,1.5,0.3,2.6,0.9,3.4c0.6,0.8,1.5,1.1,2.6,1.1c1.1,0,2-0.3,2.6-1.1c0.6-0.8,0.9-1.9,0.9-3.4s-0.3-2.6-0.9-3.4
				c-0.6-0.8-1.5-1.1-2.6-1.1c-1.1,0-2,0.3-2.6,1.1C1847.9,2302,1847.7,2303.1,1847.7,2304.6z"/>
			<path fill="#603813" d="M1864.7,2298.6c0.5,0,0.9,0,1.4,0.1l-0.3,1.6c-0.5-0.1-0.9-0.2-1.3-0.2c-0.9,0-1.7,0.3-2.4,1.1
				c-0.7,0.8-1,1.7-1,2.8v6.2h-1.7v-11.5h1.5l0.2,2.2h0.1c0.4-0.8,0.9-1.3,1.6-1.7C1863.3,2298.8,1864,2298.6,1864.7,2298.6z"/>
			<path fill="#603813" d="M1875.3,2310.3l-0.3-1.6h-0.1c-0.6,0.7-1.1,1.2-1.7,1.5c-0.6,0.3-1.3,0.3-2.2,0.3c-1.1,0-2.1-0.3-2.7-0.9
				c-0.7-0.6-0.9-1.5-0.9-2.5c0-2.3,1.9-3.5,5.6-3.6l2-0.1v-0.7c0-0.9-0.2-1.6-0.6-2c-0.4-0.4-1-0.7-1.9-0.7c-0.9,0-2.1,0.3-3.3,0.9
				l-0.5-1.4c0.6-0.3,1.2-0.5,1.9-0.7c0.7-0.2,1.4-0.3,2.1-0.3c1.4,0,2.4,0.3,3,0.9c0.7,0.6,1,1.6,1,2.9v7.8L1875.3,2310.3
				L1875.3,2310.3z M1871.4,2309.1c1.1,0,2-0.3,2.6-0.9c0.6-0.6,0.9-1.5,0.9-2.5v-1l-1.7,0.1c-1.4,0.1-2.4,0.3-3,0.7
				c-0.6,0.3-0.9,0.9-0.9,1.8c0,0.6,0.2,1.1,0.6,1.5C1870.1,2309,1870.7,2309.1,1871.4,2309.1z"/>
			<path fill="#603813" d="M1893.2,2307.1c0,1-0.4,1.9-1.2,2.5c-0.8,0.6-1.9,0.9-3.4,0.9c-1.6,0-2.8-0.3-3.6-0.7v-1.6
				c0.5,0.3,1.1,0.5,1.8,0.7c0.6,0.2,1.2,0.3,1.8,0.3c0.9,0,1.6-0.2,2.1-0.4c0.5-0.3,0.8-0.8,0.8-1.3c0-0.4-0.2-0.9-0.6-1.1
				c-0.4-0.3-1.1-0.7-2.2-1.1c-1-0.4-1.8-0.8-2.3-1c-0.4-0.3-0.8-0.6-1-1c-0.3-0.3-0.3-0.9-0.3-1.4c0-0.9,0.3-1.7,1.1-2.2
				c0.8-0.5,1.8-0.8,3.2-0.8c1.2,0,2.4,0.3,3.6,0.8l-0.6,1.4c-1.1-0.5-2.2-0.7-3.1-0.7c-0.9,0-1.5,0.2-1.9,0.4s-0.6,0.6-0.6,1
				c0,0.3,0.1,0.6,0.3,0.8c0.2,0.3,0.4,0.4,0.8,0.6c0.3,0.2,1,0.5,2,0.9c1.4,0.5,2.3,1,2.8,1.5
				C1892.9,2305.8,1893.2,2306.5,1893.2,2307.1z"/>
			<path fill="#603813" d="M1903.2,2310.3l-0.3-1.6h-0.1c-0.6,0.7-1.1,1.2-1.7,1.5c-0.6,0.3-1.3,0.3-2.2,0.3c-1.1,0-2.1-0.3-2.7-0.9
				c-0.7-0.6-0.9-1.5-0.9-2.5c0-2.3,1.9-3.5,5.6-3.6l2-0.1v-0.7c0-0.9-0.2-1.6-0.6-2c-0.4-0.4-1-0.7-1.9-0.7c-0.9,0-2.1,0.3-3.3,0.9
				l-0.5-1.4c0.6-0.3,1.2-0.5,1.9-0.7c0.7-0.2,1.4-0.3,2.1-0.3c1.4,0,2.4,0.3,3,0.9c0.7,0.6,1,1.6,1,2.9v7.8L1903.2,2310.3
				L1903.2,2310.3z M1900.2,2297.2c-0.9,0-1.7-0.3-2.3-0.7c-0.5-0.5-0.9-1.2-0.9-2.1h1.1c0,0.3,0.2,0.6,0.3,0.8
				c0.2,0.2,0.3,0.3,0.6,0.4c0.3,0.1,0.7,0.2,1.3,0.2c0.7,0,1.2-0.1,1.6-0.3c0.3-0.3,0.5-0.6,0.6-1h1.1c-0.1,0.9-0.4,1.6-0.9,2.1
				C1902,2297.1,1901.2,2297.2,1900.2,2297.2z M1899.3,2309.1c1.1,0,2-0.3,2.6-0.9s0.9-1.5,0.9-2.5v-1l-1.7,0.1
				c-1.4,0.1-2.4,0.3-3,0.7c-0.6,0.3-0.9,0.9-0.9,1.8c0,0.6,0.2,1.1,0.6,1.5C1898.1,2309,1898.6,2309.1,1899.3,2309.1z"/>
			<path fill="#603813" d="M1915.5,2310.3h-1.7V2294h1.7V2310.3z"/>
			<path fill="#603813" d="M1924,2310.5c-1.7,0-3-0.5-4-1.6c-0.9-1-1.5-2.5-1.5-4.3c0-1.9,0.4-3.4,1.4-4.4c0.9-1.1,2.2-1.6,3.7-1.6
				c1.5,0,2.6,0.5,3.4,1.5c0.9,0.9,1.3,2.2,1.3,3.8v1.1h-8c0,1.4,0.3,2.4,1,3.1c0.7,0.7,1.6,1,2.8,1c1.2,0,2.5-0.3,3.7-0.8v1.6
				c-0.6,0.3-1.2,0.4-1.7,0.6C1925.5,2310.5,1924.8,2310.5,1924,2310.5z M1923.6,2300.1c-0.9,0-1.6,0.3-2.2,0.9
				c-0.5,0.6-0.9,1.5-0.9,2.5h6c0-1.1-0.3-2-0.8-2.5C1925.1,2300.3,1924.4,2300.1,1923.6,2300.1z"/>
			<path fill="#603813" d="M1946.2,2298.8v1.1l-2.2,0.3c0.2,0.3,0.3,0.6,0.5,0.9c0.2,0.4,0.3,0.9,0.3,1.4c0,1.1-0.3,2.1-1.1,2.7
				s-1.8,1-3.2,1c-0.3,0-0.7,0-0.9-0.1c-0.8,0.4-1.1,0.9-1.1,1.5c0,0.3,0.2,0.5,0.4,0.7c0.3,0.2,0.7,0.3,1.3,0.3h2.1
				c1.2,0,2.2,0.3,2.8,0.8c0.6,0.5,1,1.3,1,2.3c0,1.3-0.5,2.2-1.6,2.9s-2.5,1-4.5,1c-1.6,0-2.7-0.3-3.4-0.9
				c-0.8-0.6-1.2-1.4-1.2-2.4c0-0.7,0.3-1.3,0.7-1.8s1.1-0.9,1.9-1c-0.3-0.2-0.5-0.3-0.8-0.6c-0.2-0.3-0.3-0.6-0.3-0.9
				c0-0.4,0.1-0.8,0.3-1.1c0.3-0.3,0.6-0.6,1-0.9c-0.6-0.3-1.1-0.7-1.5-1.3c-0.3-0.6-0.6-1.3-0.6-2c0-1.3,0.3-2.2,1.1-2.9
				c0.8-0.7,1.8-1,3.2-1c0.6,0,1.1,0.1,1.6,0.2L1946.2,2298.8L1946.2,2298.8z M1937.1,2312.2c0,0.6,0.3,1.1,0.8,1.4s1.3,0.5,2.2,0.5
				c1.5,0,2.6-0.3,3.3-0.7c0.7-0.4,1-1,1-1.8c0-0.6-0.2-1-0.6-1.3c-0.3-0.3-1.1-0.3-2.2-0.3h-2.1c-0.8,0-1.4,0.2-1.8,0.6
				C1937.3,2311,1937.1,2311.5,1937.1,2312.2z M1938,2302.5c0,0.8,0.3,1.4,0.7,1.8c0.4,0.4,1.1,0.6,1.9,0.6c1.7,0,2.6-0.9,2.6-2.5
				c0-1.7-0.9-2.6-2.6-2.6c-0.9,0-1.5,0.3-1.9,0.7C1938.3,2300.9,1938,2301.6,1938,2302.5z"/>
			<path fill="#603813" d="M1955.7,2310.3l-0.3-1.6h-0.1c-0.6,0.7-1.1,1.2-1.7,1.5c-0.6,0.3-1.3,0.3-2.2,0.3c-1.1,0-2.1-0.3-2.7-0.9
				c-0.7-0.6-0.9-1.5-0.9-2.5c0-2.3,1.9-3.5,5.6-3.6l2-0.1v-0.7c0-0.9-0.2-1.6-0.6-2c-0.4-0.4-1-0.7-1.9-0.7c-0.9,0-2.1,0.3-3.3,0.9
				l-0.5-1.4c0.6-0.3,1.2-0.5,1.9-0.7c0.7-0.2,1.4-0.3,2.1-0.3c1.4,0,2.4,0.3,3,0.9c0.7,0.6,1,1.6,1,2.9v7.8L1955.7,2310.3
				L1955.7,2310.3z M1952.8,2297.2c-0.9,0-1.7-0.3-2.3-0.7c-0.5-0.5-0.9-1.2-0.9-2.1h1.1c0,0.3,0.2,0.6,0.3,0.8
				c0.2,0.2,0.3,0.3,0.6,0.4c0.3,0.1,0.7,0.2,1.3,0.2c0.7,0,1.2-0.1,1.6-0.3c0.3-0.3,0.5-0.6,0.6-1h1.1c-0.1,0.9-0.4,1.6-0.9,2.1
				C1954.5,2297.1,1953.7,2297.2,1952.8,2297.2z M1951.7,2309.1c1.1,0,2-0.3,2.6-0.9s0.9-1.5,0.9-2.5v-1l-1.7,0.1
				c-1.4,0.1-2.4,0.3-3,0.7c-0.6,0.3-0.9,0.9-0.9,1.8c0,0.6,0.2,1.1,0.6,1.5C1950.5,2309,1951,2309.1,1951.7,2309.1z"/>
			<path fill="#603813" d="M1968,2307.1c0,1-0.4,1.9-1.2,2.5c-0.8,0.6-1.9,0.9-3.4,0.9c-1.6,0-2.8-0.3-3.6-0.7v-1.6
				c0.5,0.3,1.1,0.5,1.8,0.7c0.6,0.2,1.2,0.3,1.8,0.3c0.9,0,1.6-0.2,2.1-0.4c0.5-0.3,0.8-0.8,0.8-1.3c0-0.4-0.2-0.9-0.6-1.1
				c-0.4-0.3-1.1-0.7-2.2-1.1c-1-0.4-1.8-0.8-2.3-1c-0.4-0.3-0.8-0.6-1-1c-0.3-0.3-0.3-0.9-0.3-1.4c0-0.9,0.3-1.7,1.1-2.2
				c0.8-0.5,1.8-0.8,3.2-0.8c1.2,0,2.4,0.3,3.6,0.8l-0.6,1.4c-1.1-0.5-2.2-0.7-3.1-0.7c-0.9,0-1.5,0.2-1.9,0.4s-0.6,0.6-0.6,1
				c0,0.3,0.1,0.6,0.3,0.8c0.2,0.3,0.4,0.4,0.8,0.6c0.3,0.2,1,0.5,2,0.9c1.4,0.5,2.3,1,2.8,1.5
				C1967.7,2305.8,1968,2306.5,1968,2307.1z"/>
			<path fill="#603813" d="M1975.8,2310.5c-1.7,0-3-0.5-4-1.6c-0.9-1-1.5-2.5-1.5-4.3c0-1.9,0.4-3.4,1.4-4.4
				c0.9-1.1,2.2-1.6,3.7-1.6c1.5,0,2.6,0.5,3.4,1.5c0.9,0.9,1.3,2.2,1.3,3.8v1.1h-7.9c0,1.4,0.3,2.4,1,3.1c0.7,0.7,1.6,1,2.8,1
				c1.2,0,2.5-0.3,3.7-0.8v1.6c-0.6,0.3-1.2,0.4-1.7,0.6C1977.2,2310.5,1976.5,2310.5,1975.8,2310.5z M1975.3,2300.1
				c-0.9,0-1.6,0.3-2.2,0.9s-0.9,1.5-0.9,2.5h6c0-1.1-0.3-2-0.8-2.5C1976.9,2300.3,1976.2,2300.1,1975.3,2300.1z"/>
			<path fill="#603813" d="M1990.4,2307.1c0,1-0.4,1.9-1.2,2.5s-1.9,0.9-3.4,0.9c-1.6,0-2.8-0.3-3.6-0.7v-1.6
				c0.5,0.3,1.1,0.5,1.8,0.7c0.6,0.2,1.2,0.3,1.8,0.3c0.9,0,1.6-0.2,2.1-0.4c0.5-0.3,0.8-0.8,0.8-1.3c0-0.4-0.2-0.9-0.6-1.1
				c-0.4-0.3-1.1-0.7-2.2-1.1c-1-0.4-1.8-0.8-2.3-1c-0.4-0.3-0.8-0.6-1-1c-0.3-0.3-0.3-0.9-0.3-1.4c0-0.9,0.3-1.7,1.1-2.2
				s1.8-0.8,3.2-0.8c1.2,0,2.4,0.3,3.6,0.8l-0.6,1.4c-1.1-0.5-2.2-0.7-3.1-0.7s-1.5,0.2-1.9,0.4s-0.6,0.6-0.6,1
				c0,0.3,0.1,0.6,0.3,0.8c0.2,0.3,0.4,0.4,0.8,0.6c0.3,0.2,1,0.5,2,0.9c1.4,0.5,2.3,1,2.8,1.5
				C1990.1,2305.8,1990.4,2306.5,1990.4,2307.1z M1987.9,2313.4c0,0.7-0.3,1.2-0.8,1.6c-0.5,0.3-1.3,0.5-2.4,0.5c-0.3,0-0.7,0-1-0.1
				v-1.1c0.3,0.1,0.7,0.1,1.1,0.1c0.5,0,0.9-0.1,1.3-0.2c0.3-0.2,0.4-0.4,0.4-0.8c0-0.3-0.2-0.5-0.4-0.7c-0.3-0.2-0.8-0.3-1.6-0.4
				l0.9-1.9h1.1l-0.6,1.2C1987.3,2311.8,1987.9,2312.4,1987.9,2313.4z"/>
			<path fill="#603813" d="M1997,2309.1c0.3,0,0.6,0,0.9-0.1c0.3-0.1,0.5-0.1,0.7-0.2v1.4c-0.2,0.1-0.4,0.2-0.9,0.3
				c-0.3,0.1-0.7,0.1-1,0.1c-2.2,0-3.4-1.2-3.4-3.5v-6.9h-1.6v-0.9l1.6-0.7l0.8-2.5h1v2.7h3.4v1.4h-3.4v6.8c0,0.7,0.2,1.2,0.5,1.6
				C1995.9,2308.9,1996.4,2309.1,1997,2309.1z"/>
			<path fill="#603813" d="M2000.7,2295.7c0-0.4,0.1-0.7,0.3-0.9c0.2-0.2,0.4-0.3,0.8-0.3c0.3,0,0.5,0.1,0.7,0.3
				c0.2,0.2,0.3,0.5,0.3,0.9c0,0.3-0.1,0.7-0.3,0.9c-0.2,0.2-0.4,0.3-0.7,0.3c-0.3,0-0.5-0.1-0.8-0.3
				C2000.8,2296.4,2000.7,2296,2000.7,2295.7z M2002.6,2310.3h-1.7v-11.5h1.7V2310.3z"/>
			<path fill="#603813" d="M2019.3,2307.1c0,1-0.4,1.9-1.2,2.5c-0.8,0.6-1.9,0.9-3.4,0.9c-1.6,0-2.8-0.3-3.6-0.7v-1.6
				c0.5,0.3,1.1,0.5,1.8,0.7c0.6,0.2,1.2,0.3,1.8,0.3c0.9,0,1.6-0.2,2.1-0.4c0.5-0.3,0.8-0.8,0.8-1.3c0-0.4-0.2-0.9-0.6-1.1
				c-0.4-0.3-1.1-0.7-2.2-1.1c-1-0.4-1.8-0.8-2.3-1c-0.4-0.3-0.8-0.6-1-1c-0.3-0.3-0.3-0.9-0.3-1.4c0-0.9,0.3-1.7,1.1-2.2
				s1.8-0.8,3.1-0.8c1.2,0,2.4,0.3,3.6,0.8l-0.6,1.4c-1.1-0.5-2.2-0.7-3.1-0.7s-1.5,0.2-1.9,0.4s-0.6,0.6-0.6,1
				c0,0.3,0.1,0.6,0.3,0.8c0.2,0.3,0.4,0.4,0.8,0.6c0.3,0.2,1,0.5,2,0.9c1.4,0.5,2.3,1,2.8,1.5
				C2018.9,2305.8,2019.3,2306.5,2019.3,2307.1z"/>
			<path fill="#603813" d="M2032.1,2304.6c0,1.9-0.4,3.4-1.4,4.4c-0.9,1-2.2,1.6-4,1.6c-1,0-2-0.3-2.8-0.7c-0.8-0.4-1.4-1.2-1.8-2.1
				s-0.7-2-0.7-3.2c0-1.9,0.4-3.4,1.4-4.4c0.9-1,2.2-1.6,3.9-1.6c1.6,0,2.9,0.5,3.9,1.6C2031.6,2301.4,2032.1,2302.8,2032.1,2304.6z
				 M2023.3,2304.6c0,1.5,0.3,2.6,0.9,3.4c0.6,0.8,1.5,1.1,2.6,1.1c1.1,0,2-0.3,2.6-1.1s0.9-1.9,0.9-3.4s-0.3-2.6-0.9-3.4
				s-1.5-1.1-2.6-1.1c-1.1,0-2,0.3-2.6,1.1C2023.6,2302,2023.3,2303.1,2023.3,2304.6z"/>
			<path fill="#603813" d="M2036.9,2310.3h-1.7V2294h1.7V2310.3z"/>
			<path fill="#603813" d="M2042.2,2298.8v7.5c0,0.9,0.2,1.6,0.6,2.1c0.4,0.4,1.1,0.7,2,0.7c1.2,0,2.1-0.3,2.7-0.9
				c0.5-0.7,0.9-1.7,0.9-3.2v-6h1.7v11.5h-1.5l-0.3-1.6h-0.1c-0.3,0.6-0.9,1-1.5,1.3c-0.6,0.3-1.4,0.4-2.2,0.4c-1.4,0-2.4-0.3-3.2-1
				c-0.7-0.7-1-1.7-1-3.2v-7.6L2042.2,2298.8L2042.2,2298.8z"/>
			<path fill="#603813" d="M2057.5,2309.1c0.3,0,0.6,0,0.9-0.1c0.3-0.1,0.5-0.1,0.7-0.2v1.4c-0.2,0.1-0.4,0.2-0.9,0.3
				c-0.3,0.1-0.7,0.1-1,0.1c-2.2,0-3.4-1.2-3.4-3.5v-6.9h-1.6v-0.9l1.6-0.7l0.8-2.5h1v2.7h3.4v1.4h-3.4v6.8c0,0.7,0.2,1.2,0.5,1.6
				C2056.5,2308.9,2056.9,2309.1,2057.5,2309.1z M2058.7,2313.4c0,0.7-0.3,1.2-0.8,1.6s-1.3,0.5-2.4,0.5c-0.3,0-0.7,0-1-0.1v-1.1
				c0.3,0.1,0.7,0.1,1.1,0.1c0.5,0,0.9-0.1,1.3-0.2c0.3-0.2,0.4-0.4,0.4-0.8c0-0.3-0.2-0.5-0.4-0.7c-0.3-0.2-0.8-0.3-1.6-0.4
				l0.9-1.9h1.1l-0.6,1.2C2058,2311.8,2058.7,2312.4,2058.7,2313.4z"/>
			<path fill="#603813" d="M2061.2,2295.7c0-0.4,0.1-0.7,0.3-0.9c0.2-0.2,0.4-0.3,0.8-0.3c0.3,0,0.5,0.1,0.7,0.3
				c0.2,0.2,0.3,0.5,0.3,0.9c0,0.3-0.1,0.7-0.3,0.9c-0.2,0.2-0.4,0.3-0.7,0.3c-0.3,0-0.5-0.1-0.8-0.3
				C2061.4,2296.4,2061.2,2296,2061.2,2295.7z M2063.1,2310.3h-1.7v-11.5h1.7V2310.3z"/>
			<path fill="#603813" d="M2074,2310.3l-0.3-1.6h-0.1c-0.6,0.7-1.1,1.2-1.7,1.5c-0.6,0.3-1.3,0.3-2.2,0.3c-1.1,0-2.1-0.3-2.7-0.9
				s-0.9-1.5-0.9-2.5c0-2.3,1.9-3.5,5.6-3.6l2-0.1v-0.7c0-0.9-0.2-1.6-0.6-2c-0.4-0.4-1-0.7-1.9-0.7c-0.9,0-2.1,0.3-3.3,0.9
				l-0.5-1.4c0.6-0.3,1.2-0.5,1.9-0.7c0.7-0.2,1.4-0.3,2.1-0.3c1.4,0,2.4,0.3,3,0.9c0.7,0.6,1,1.6,1,2.9v7.8L2074,2310.3
				L2074,2310.3z M2070,2309.1c1.1,0,2-0.3,2.6-0.9s0.9-1.5,0.9-2.5v-1l-1.7,0.1c-1.4,0.1-2.4,0.3-3,0.7c-0.6,0.3-0.9,0.9-0.9,1.8
				c0,0.6,0.2,1.1,0.6,1.5C2068.8,2309,2069.3,2309.1,2070,2309.1z"/>
		</g>
		<g>
			<path fill="#603813" d="M1734.2,2441.6c-0.8,0-1.5-0.2-2.1-0.4s-1.1-0.7-1.6-1.3h-0.1c0.1,0.7,0.1,1.3,0.1,1.9v4.7h-1.7v-16.7
				h1.4l0.3,1.6h0.1c0.4-0.6,0.9-1.1,1.6-1.4c0.6-0.3,1.3-0.4,2.1-0.4c1.6,0,2.7,0.5,3.5,1.6c0.9,1,1.2,2.5,1.2,4.4
				c0,1.9-0.4,3.4-1.3,4.4C1736.9,2441.1,1735.6,2441.6,1734.2,2441.6z M1733.9,2431.2c-1.2,0-2.1,0.3-2.6,0.9
				c-0.5,0.6-0.8,1.7-0.8,3.1v0.4c0,1.6,0.3,2.8,0.8,3.4c0.5,0.7,1.4,1,2.6,1c1,0,1.8-0.4,2.3-1.2c0.5-0.8,0.9-1.9,0.9-3.4
				s-0.3-2.5-0.9-3.3C1735.7,2431.6,1735,2431.2,1733.9,2431.2z"/>
			<path fill="#603813" d="M1747.3,2429.8c0.5,0,0.9,0,1.4,0.1l-0.3,1.6c-0.5-0.1-0.9-0.2-1.3-0.2c-0.9,0-1.7,0.3-2.4,1.1
				c-0.7,0.8-1,1.7-1,2.8v6.2h-1.7v-11.5h1.5l0.2,2.2h0.1c0.4-0.8,0.9-1.3,1.6-1.7C1745.9,2429.9,1746.5,2429.8,1747.3,2429.8z"/>
			<path fill="#603813" d="M1760.7,2435.7c0,1.9-0.4,3.4-1.4,4.4c-0.9,1-2.2,1.6-4,1.6c-1,0-2-0.3-2.8-0.7c-0.8-0.4-1.4-1.2-1.8-2.1
				s-0.7-2-0.7-3.2c0-1.9,0.4-3.4,1.4-4.4c0.9-1,2.2-1.6,3.9-1.6c1.6,0,2.9,0.5,3.9,1.6C1760.2,2432.5,1760.7,2433.9,1760.7,2435.7z
				 M1751.9,2435.7c0,1.5,0.3,2.6,0.9,3.4c0.6,0.8,1.5,1.1,2.6,1.1c1.1,0,2-0.3,2.6-1.1s0.9-1.9,0.9-3.4c0-1.5-0.3-2.6-0.9-3.4
				c-0.6-0.8-1.5-1.1-2.6-1.1c-1.1,0-2,0.3-2.6,1.1C1752.2,2433.1,1751.9,2434.2,1751.9,2435.7z"/>
			<path fill="#603813" d="M1766.3,2441.5l-4.4-11.5h1.9l2.5,6.8c0.6,1.6,0.9,2.7,0.9,3.1h0.1c0.1-0.3,0.3-1.1,0.7-2.3
				c0.4-1.2,1.3-3.7,2.8-7.7h1.9l-4.4,11.5L1766.3,2441.5L1766.3,2441.5z"/>
			<path fill="#603813" d="M1784.6,2435.7c0,1.9-0.4,3.4-1.4,4.4c-0.9,1-2.2,1.6-4,1.6c-1,0-2-0.3-2.8-0.7c-0.8-0.4-1.4-1.2-1.8-2.1
				s-0.7-2-0.7-3.2c0-1.9,0.4-3.4,1.4-4.4c0.9-1,2.2-1.6,3.9-1.6c1.6,0,2.9,0.5,3.9,1.6S1784.6,2433.9,1784.6,2435.7z
				 M1775.8,2435.7c0,1.5,0.3,2.6,0.9,3.4c0.6,0.8,1.5,1.1,2.6,1.1c1.1,0,2-0.3,2.6-1.1c0.6-0.8,0.9-1.9,0.9-3.4
				c0-1.5-0.3-2.6-0.9-3.4c-0.6-0.8-1.5-1.1-2.6-1.1c-1.1,0-2,0.3-2.6,1.1C1776.1,2433.1,1775.8,2434.2,1775.8,2435.7z"/>
			<path fill="#603813" d="M1792.3,2441.6c-1.6,0-2.9-0.5-3.9-1.6c-0.9-1-1.4-2.5-1.4-4.4s0.4-3.4,1.4-4.5s2.2-1.6,4-1.6
				c0.5,0,1.1,0.1,1.6,0.2c0.5,0.1,0.9,0.3,1.3,0.4l-0.5,1.5c-0.3-0.2-0.8-0.3-1.3-0.3c-0.4-0.1-0.9-0.2-1.2-0.2
				c-2.3,0-3.5,1.5-3.5,4.5c0,1.4,0.3,2.5,0.9,3.3c0.6,0.8,1.4,1.1,2.5,1.1c0.9,0,2-0.2,2.9-0.6v1.6
				C1794.3,2441.5,1793.4,2441.6,1792.3,2441.6z"/>
			<path fill="#603813" d="M1804.9,2441.5l-0.3-1.6h-0.1c-0.6,0.7-1.1,1.2-1.7,1.5c-0.6,0.3-1.3,0.3-2.2,0.3c-1.1,0-2.1-0.3-2.7-0.9
				c-0.6-0.6-0.9-1.5-0.9-2.5c0-2.3,1.9-3.5,5.6-3.6l2-0.1v-0.7c0-0.9-0.2-1.6-0.6-2c-0.4-0.4-1-0.7-1.9-0.7c-0.9,0-2.1,0.3-3.3,0.9
				l-0.5-1.4c0.6-0.3,1.2-0.5,1.9-0.7c0.7-0.2,1.4-0.3,2.1-0.3c1.4,0,2.4,0.3,3,0.9c0.7,0.6,1,1.6,1,2.9v7.8L1804.9,2441.5
				L1804.9,2441.5z M1802,2428.4c-0.9,0-1.7-0.3-2.3-0.7c-0.5-0.5-0.9-1.2-0.9-2.1h1.1c0,0.3,0.2,0.6,0.3,0.8
				c0.2,0.2,0.3,0.3,0.6,0.4s0.7,0.2,1.3,0.2c0.7,0,1.2-0.1,1.6-0.3c0.3-0.3,0.5-0.6,0.6-1h1.1c-0.1,0.9-0.4,1.6-0.9,2.1
				C1803.7,2428.2,1802.9,2428.4,1802,2428.4z M1801,2440.3c1.1,0,2-0.3,2.6-0.9s0.9-1.5,0.9-2.5v-1l-1.7,0.1
				c-1.4,0.1-2.4,0.3-3,0.7c-0.6,0.3-0.9,0.9-0.9,1.8c0,0.6,0.2,1.1,0.6,1.5C1799.9,2440.3,1800.4,2440.3,1801,2440.3z"/>
			<path fill="#603813" d="M1815.1,2429.8c0.5,0,0.9,0,1.4,0.1l-0.3,1.6c-0.5-0.1-0.9-0.2-1.3-0.2c-0.9,0-1.7,0.3-2.4,1.1
				c-0.7,0.8-1,1.7-1,2.8v6.2h-1.7v-11.5h1.5l0.2,2.2h0.1c0.4-0.8,0.9-1.3,1.6-1.7C1813.7,2429.9,1814.4,2429.8,1815.1,2429.8z"/>
			<path fill="#603813" d="M1818.4,2426.8c0-0.4,0.1-0.7,0.3-0.9c0.2-0.2,0.4-0.3,0.8-0.3c0.3,0,0.5,0.1,0.7,0.3
				c0.2,0.2,0.3,0.5,0.3,0.9c0,0.4-0.1,0.7-0.3,0.9c-0.2,0.2-0.4,0.3-0.7,0.3c-0.3,0-0.5-0.1-0.8-0.3
				C1818.6,2427.5,1818.4,2427.2,1818.4,2426.8z M1820.3,2441.5h-1.7v-11.5h1.7V2441.5z"/>
			<path fill="#603813" d="M1837.5,2439.9L1837.5,2439.9c-0.9,1.2-2.1,1.7-3.7,1.7c-1.5,0-2.7-0.5-3.5-1.6c-0.9-1-1.3-2.5-1.3-4.4
				s0.4-3.4,1.3-4.4c0.9-1,2-1.6,3.5-1.6c1.6,0,2.8,0.6,3.6,1.7h0.2l-0.1-0.9v-0.8v-4.7h1.7v16.4h-1.4L1837.5,2439.9z M1834,2440.2
				c1.2,0,2.1-0.3,2.6-0.9c0.5-0.7,0.8-1.7,0.8-3.1v-0.3c0-1.6-0.3-2.8-0.8-3.5c-0.5-0.7-1.4-1-2.6-1c-1,0-1.8,0.4-2.3,1.2
				c-0.5,0.8-0.8,1.9-0.8,3.4s0.3,2.6,0.8,3.4S1833,2440.2,1834,2440.2z"/>
			<path fill="#603813" d="M1847.7,2441.6c-1.7,0-3-0.5-4-1.6c-0.9-1-1.5-2.5-1.5-4.3c0-1.9,0.4-3.4,1.4-4.4
				c0.9-1.1,2.2-1.6,3.7-1.6c1.5,0,2.6,0.5,3.4,1.5s1.3,2.2,1.3,3.8v1.1h-7.9c0,1.4,0.3,2.4,1,3.1c0.7,0.7,1.6,1,2.8,1
				c1.2,0,2.5-0.3,3.7-0.8v1.6c-0.6,0.3-1.2,0.4-1.7,0.6C1849.2,2441.6,1848.5,2441.6,1847.7,2441.6z M1847.3,2431.2
				c-0.9,0-1.6,0.3-2.2,0.9c-0.5,0.6-0.9,1.5-0.9,2.5h6c0-1.1-0.3-2-0.8-2.5C1848.9,2431.5,1848.2,2431.2,1847.3,2431.2z"/>
			<path fill="#603813" d="M1857.9,2428.2c0.9-0.9,1.6-1.6,1.9-2.1c0.3-0.4,0.6-0.8,0.8-1.1h1.7c0.2,0.3,0.4,0.7,0.8,1.1
				c0.3,0.4,1,1.1,1.9,2.1v0.3h-1.3c-0.6-0.3-1.4-1-2.3-2c-0.9,0.9-1.7,1.6-2.3,2h-1.2L1857.9,2428.2L1857.9,2428.2z M1862.3,2441.5
				h-1.7v-11.5h1.7V2441.5z"/>
			<path fill="#603813" d="M1873.9,2441.5v-7.5c0-0.9-0.2-1.6-0.6-2.1c-0.4-0.4-1.1-0.7-2-0.7c-1.2,0-2.1,0.3-2.7,0.9
				c-0.6,0.7-0.9,1.7-0.9,3.2v6h-1.7v-11.5h1.4l0.3,1.6h0.1c0.3-0.6,0.9-1,1.5-1.3c0.6-0.3,1.4-0.4,2.2-0.4c1.4,0,2.4,0.3,3.1,1
				c0.7,0.7,1,1.7,1,3.2v7.5L1873.9,2441.5L1873.9,2441.5z"/>
			<path fill="#603813" d="M1887,2439.9L1887,2439.9c-0.9,1.2-2.1,1.7-3.7,1.7c-1.5,0-2.7-0.5-3.5-1.6c-0.9-1-1.3-2.5-1.3-4.4
				s0.4-3.4,1.3-4.4c0.9-1,2-1.6,3.5-1.6c1.6,0,2.8,0.6,3.6,1.7h0.2l-0.1-0.9v-0.8v-4.7h1.7v16.4h-1.4L1887,2439.9z M1883.6,2440.2
				c1.2,0,2.1-0.3,2.6-0.9c0.5-0.7,0.8-1.7,0.8-3.1v-0.3c0-1.6-0.3-2.8-0.8-3.5c-0.5-0.7-1.4-1-2.6-1c-1,0-1.8,0.4-2.3,1.2
				s-0.8,1.9-0.8,3.4s0.3,2.6,0.8,3.4S1882.5,2440.2,1883.6,2440.2z"/>
			<path fill="#603813" d="M1897.3,2441.6c-1.7,0-3-0.5-4-1.6c-0.9-1-1.5-2.5-1.5-4.3c0-1.9,0.4-3.4,1.4-4.4
				c0.9-1.1,2.2-1.6,3.7-1.6c1.5,0,2.6,0.5,3.4,1.5s1.3,2.2,1.3,3.8v1.1h-8c0,1.4,0.3,2.4,1,3.1c0.7,0.7,1.6,1,2.8,1
				c1.2,0,2.5-0.3,3.7-0.8v1.6c-0.6,0.3-1.2,0.4-1.7,0.6C1898.7,2441.6,1898.1,2441.6,1897.3,2441.6z M1896.9,2431.2
				c-0.9,0-1.6,0.3-2.2,0.9c-0.5,0.6-0.9,1.5-0.9,2.5h6c0-1.1-0.3-2-0.8-2.5C1898.4,2431.5,1897.7,2431.2,1896.9,2431.2z"/>
			<path fill="#603813" d="M1909.9,2441.6c-0.8,0-1.5-0.2-2.1-0.4s-1.1-0.7-1.6-1.3h-0.1c0.1,0.7,0.1,1.3,0.1,1.9v4.7h-1.7v-16.7
				h1.4l0.3,1.6h0.1c0.4-0.6,0.9-1.1,1.6-1.4c0.6-0.3,1.3-0.4,2.1-0.4c1.6,0,2.7,0.5,3.5,1.6c0.9,1,1.2,2.5,1.2,4.4
				c0,1.9-0.4,3.4-1.3,4.4C1912.5,2441.1,1911.4,2441.6,1909.9,2441.6z M1909.6,2431.2c-1.2,0-2.1,0.3-2.6,0.9
				c-0.5,0.7-0.8,1.7-0.8,3.1v0.4c0,1.6,0.3,2.8,0.8,3.4c0.5,0.7,1.4,1,2.6,1c1,0,1.8-0.4,2.3-1.2s0.9-1.9,0.9-3.4s-0.3-2.5-0.9-3.3
				C1911.4,2431.6,1910.6,2431.2,1909.6,2431.2z"/>
			<path fill="#603813" d="M1919.4,2441.5h-1.7v-16.4h1.7V2441.5z"/>
			<path fill="#603813" d="M1923,2426.8c0-0.4,0.1-0.7,0.3-0.9c0.2-0.2,0.4-0.3,0.8-0.3c0.3,0,0.5,0.1,0.7,0.3
				c0.2,0.2,0.3,0.5,0.3,0.9c0,0.4-0.1,0.7-0.3,0.9c-0.2,0.2-0.4,0.3-0.7,0.3c-0.3,0-0.5-0.1-0.8-0.3
				C1923.1,2427.5,1923,2427.2,1923,2426.8z M1924.9,2441.5h-1.7v-11.5h1.7V2441.5z"/>
			<path fill="#603813" d="M1936.5,2441.5v-7.5c0-0.9-0.2-1.6-0.6-2.1c-0.4-0.4-1.1-0.7-2-0.7c-1.2,0-2.1,0.3-2.7,0.9
				c-0.6,0.6-0.9,1.7-0.9,3.2v6h-1.7v-11.5h1.4l0.3,1.6h0.1c0.3-0.6,0.9-1,1.5-1.3c0.6-0.3,1.4-0.4,2.2-0.4c1.4,0,2.4,0.3,3.1,1
				c0.7,0.7,1,1.7,1,3.2v7.5L1936.5,2441.5L1936.5,2441.5z"/>
			<path fill="#603813" d="M1941.7,2426.8c0-0.4,0.1-0.7,0.3-0.9c0.2-0.2,0.4-0.3,0.8-0.3c0.3,0,0.5,0.1,0.7,0.3
				c0.2,0.2,0.3,0.5,0.3,0.9c0,0.4-0.1,0.7-0.3,0.9c-0.2,0.2-0.4,0.3-0.7,0.3s-0.5-0.1-0.8-0.3
				C1941.7,2427.5,1941.7,2427.2,1941.7,2426.8z M1943.5,2441.5h-1.7v-11.5h1.7V2441.5z"/>
			<path fill="#603813" d="M1951,2440.3c0.3,0,0.6,0,0.9-0.1c0.3-0.1,0.5-0.1,0.7-0.2v1.4c-0.2,0.1-0.4,0.2-0.9,0.3
				c-0.3,0.1-0.7,0.1-1,0.1c-2.2,0-3.4-1.2-3.4-3.5v-6.9h-1.6v-0.9l1.6-0.7l0.8-2.5h1v2.7h3.4v1.4h-3.4v6.8c0,0.7,0.2,1.2,0.5,1.6
				C1949.9,2440.1,1950.4,2440.3,1951,2440.3z"/>
		</g>
		<g>
			<path fill="#603813" d="M1733.4,2557.8c-1.6,0-2.9-0.5-3.9-1.6s-1.4-2.5-1.4-4.4s0.4-3.4,1.4-4.5c0.9-1,2.2-1.6,4-1.6
				c0.5,0,1.1,0.1,1.6,0.2c0.5,0.1,0.9,0.3,1.3,0.4l-0.5,1.5c-0.3-0.2-0.8-0.3-1.3-0.3c-0.4-0.1-0.9-0.2-1.2-0.2
				c-2.3,0-3.5,1.5-3.5,4.5c0,1.4,0.3,2.5,0.9,3.3c0.6,0.8,1.4,1.1,2.5,1.1c0.9,0,2-0.2,2.9-0.6v1.6
				C1735.6,2557.6,1734.6,2557.8,1733.4,2557.8z"/>
			<path fill="#603813" d="M1746.9,2557.6v-7.5c0-0.9-0.2-1.6-0.6-2.1c-0.4-0.4-1.1-0.7-2-0.7c-1.2,0-2.1,0.3-2.7,0.9
				c-0.5,0.7-0.9,1.7-0.9,3.3v6h-1.7v-16.4h1.7v5c0,0.6,0,1.1-0.1,1.5h0.1c0.3-0.5,0.9-0.9,1.5-1.3s1.4-0.5,2.2-0.5
				c1.4,0,2.5,0.3,3.2,1c0.7,0.7,1,1.7,1,3.2v7.5H1746.9z"/>
			<path fill="#603813" d="M1757.2,2557.8c-1.7,0-3-0.5-4-1.6c-0.9-1-1.5-2.5-1.5-4.3c0-1.9,0.4-3.4,1.4-4.4
				c0.9-1.1,2.2-1.6,3.7-1.6c1.5,0,2.6,0.5,3.4,1.5c0.9,0.9,1.3,2.2,1.3,3.8v1.1h-7.9c0,1.4,0.3,2.4,1,3.1c0.7,0.7,1.6,1,2.8,1
				c1.2,0,2.5-0.3,3.7-0.8v1.6c-0.6,0.3-1.2,0.4-1.7,0.6C1758.6,2557.8,1758,2557.8,1757.2,2557.8z M1756.7,2547.4
				c-0.9,0-1.6,0.3-2.2,0.9c-0.5,0.6-0.9,1.5-0.9,2.5h6c0-1.1-0.3-2-0.8-2.5C1758.3,2547.6,1757.6,2547.4,1756.7,2547.4z"/>
			<path fill="#603813" d="M1769,2557.8c-1.6,0-2.9-0.5-3.9-1.6c-0.9-1-1.4-2.5-1.4-4.4s0.4-3.4,1.4-4.5c0.9-1,2.2-1.6,4-1.6
				c0.5,0,1.1,0.1,1.6,0.2s0.9,0.3,1.3,0.4l-0.5,1.5c-0.3-0.2-0.8-0.3-1.3-0.3c-0.4-0.1-0.9-0.2-1.2-0.2c-2.3,0-3.5,1.5-3.5,4.5
				c0,1.4,0.3,2.5,0.9,3.3c0.6,0.8,1.4,1.1,2.5,1.1c0.9,0,2-0.2,2.9-0.6v1.6C1771.1,2557.6,1770.1,2557.8,1769,2557.8z"/>
			<path fill="#603813" d="M1776.3,2551.7c0.3-0.4,0.8-0.9,1.4-1.7l3.7-4h2.1l-4.7,4.9l5,6.6h-2.2l-4-5.4l-1.3,1.1v4.3h-1.7v-16.4
				h1.7v8.7C1776.3,2550.3,1776.3,2550.9,1776.3,2551.7L1776.3,2551.7z"/>
			<path fill="#603813" d="M1791.3,2557.8c-0.8,0-1.5-0.2-2.1-0.4s-1.1-0.7-1.6-1.3h-0.1c0.1,0.7,0.1,1.3,0.1,1.9v4.7h-1.7V2546h1.4
				l0.3,1.6h0.1c0.4-0.6,0.9-1.1,1.6-1.4c0.6-0.3,1.3-0.4,2.1-0.4c1.6,0,2.7,0.5,3.5,1.6c0.9,1,1.2,2.5,1.2,4.4
				c0,1.9-0.4,3.4-1.3,4.4C1794,2557.3,1792.8,2557.8,1791.3,2557.8z M1791,2547.4c-1.2,0-2.1,0.3-2.6,0.9s-0.8,1.7-0.8,3.1v0.4
				c0,1.6,0.3,2.8,0.8,3.4c0.5,0.7,1.4,1,2.6,1c1,0,1.8-0.4,2.3-1.2c0.6-0.8,0.9-1.9,0.9-3.4s-0.3-2.5-0.9-3.3
				C1792.9,2547.7,1792.1,2547.4,1791,2547.4z"/>
			<path fill="#603813" d="M1809.1,2551.8c0,1.9-0.4,3.4-1.4,4.4c-0.9,1-2.2,1.6-4,1.6c-1,0-2-0.3-2.8-0.7c-0.8-0.4-1.4-1.2-1.8-2.1
				c-0.4-0.9-0.7-2-0.7-3.2c0-1.9,0.4-3.4,1.4-4.4s2.2-1.6,3.9-1.6c1.6,0,2.9,0.5,3.9,1.6C1808.6,2548.6,1809.1,2550,1809.1,2551.8z
				 M1800.3,2551.8c0,1.5,0.3,2.6,0.9,3.4c0.6,0.8,1.5,1.1,2.6,1.1c1.1,0,2-0.3,2.6-1.1c0.6-0.8,0.9-1.9,0.9-3.4
				c0-1.5-0.3-2.6-0.9-3.4c-0.6-0.8-1.5-1.1-2.6-1.1c-1.1,0-2,0.3-2.6,1.1C1800.6,2549.3,1800.3,2550.4,1800.3,2551.8z"/>
			<path fill="#603813" d="M1812,2543c0-0.4,0.1-0.7,0.3-0.9s0.4-0.3,0.8-0.3c0.3,0,0.5,0.1,0.7,0.3s0.3,0.5,0.3,0.9
				c0,0.4-0.1,0.7-0.3,0.9c-0.2,0.2-0.4,0.3-0.7,0.3c-0.3,0-0.5-0.1-0.8-0.3C1812.1,2543.7,1812,2543.3,1812,2543z M1813.9,2557.6
				h-1.7v-11.5h1.7V2557.6z"/>
			<path fill="#603813" d="M1825.4,2557.6v-7.5c0-0.9-0.2-1.6-0.6-2.1c-0.4-0.4-1.1-0.7-2-0.7c-1.2,0-2.1,0.3-2.7,0.9
				c-0.6,0.7-0.9,1.7-0.9,3.2v6h-1.7V2546h1.4l0.3,1.6h0.1c0.3-0.6,0.9-1,1.5-1.3c0.6-0.3,1.4-0.4,2.2-0.4c1.4,0,2.4,0.3,3.1,1
				c0.7,0.7,1,1.7,1,3.2v7.5L1825.4,2557.6L1825.4,2557.6z"/>
			<path fill="#603813" d="M1834.6,2556.4c0.3,0,0.6,0,0.9-0.1c0.3-0.1,0.5-0.1,0.7-0.2v1.3c-0.2,0.1-0.4,0.2-0.9,0.3
				c-0.3,0.1-0.7,0.1-1,0.1c-2.2,0-3.4-1.2-3.4-3.5v-6.9h-1.6v-0.9l1.6-0.7l0.8-2.5h1v2.7h3.4v1.4h-3.4v6.8c0,0.7,0.2,1.2,0.5,1.6
				C1833.5,2556.1,1834,2556.4,1834.6,2556.4z"/>
			<path fill="#603813" d="M1840.1,2546.1v7.5c0,0.9,0.2,1.6,0.6,2.1c0.4,0.4,1.1,0.7,2,0.7c1.2,0,2.1-0.3,2.7-0.9
				c0.5-0.7,0.9-1.7,0.9-3.2v-6h1.7v11.5h-1.5l-0.3-1.6h-0.1c-0.3,0.6-0.9,1-1.5,1.3c-0.6,0.3-1.4,0.4-2.2,0.4c-1.4,0-2.4-0.3-3.2-1
				c-0.7-0.7-1-1.7-1-3.2v-7.6L1840.1,2546.1L1840.1,2546.1z"/>
			<path fill="#603813" d="M1856.9,2545.9c0.5,0,0.9,0,1.4,0.1l-0.3,1.6c-0.5-0.1-0.9-0.2-1.3-0.2c-0.9,0-1.7,0.3-2.4,1.1
				c-0.7,0.8-1,1.7-1,2.8v6.2h-1.7v-11.5h1.5l0.2,2.2h0.1c0.4-0.8,0.9-1.3,1.6-1.7C1855.5,2546.1,1856.2,2545.9,1856.9,2545.9z"/>
			<path fill="#603813" d="M1860.2,2543c0-0.4,0.1-0.7,0.3-0.9c0.2-0.2,0.4-0.3,0.8-0.3c0.3,0,0.5,0.1,0.7,0.3
				c0.2,0.2,0.3,0.5,0.3,0.9c0,0.4-0.1,0.7-0.3,0.9c-0.2,0.2-0.4,0.3-0.7,0.3s-0.5-0.1-0.8-0.3
				C1860.4,2543.7,1860.2,2543.3,1860.2,2543z M1862.1,2557.6h-1.7v-11.5h1.7V2557.6z"/>
			<path fill="#603813" d="M1879.3,2556.1L1879.3,2556.1c-0.9,1.2-2.1,1.7-3.7,1.7c-1.6,0-2.7-0.5-3.5-1.6c-0.9-1-1.3-2.5-1.3-4.4
				s0.4-3.4,1.3-4.4c0.9-1,2-1.6,3.5-1.6c1.6,0,2.8,0.6,3.6,1.7h0.2l-0.1-0.9v-0.8v-4.7h1.7v16.4h-1.4L1879.3,2556.1z
				 M1875.8,2556.3c1.2,0,2.1-0.3,2.6-0.9c0.5-0.7,0.8-1.7,0.8-3.1v-0.3c0-1.6-0.3-2.8-0.8-3.5c-0.5-0.7-1.4-1-2.6-1
				c-1,0-1.8,0.4-2.3,1.2s-0.8,1.9-0.8,3.4s0.3,2.6,0.8,3.4C1874,2556,1874.8,2556.3,1875.8,2556.3z"/>
			<path fill="#603813" d="M1889.5,2557.8c-1.7,0-3-0.5-4-1.6c-0.9-1-1.5-2.5-1.5-4.3c0-1.9,0.4-3.4,1.4-4.4
				c0.9-1.1,2.2-1.6,3.7-1.6c1.5,0,2.6,0.5,3.4,1.5c0.9,0.9,1.3,2.2,1.3,3.8v1.1h-8c0,1.4,0.3,2.4,1,3.1c0.7,0.7,1.6,1,2.8,1
				c1.2,0,2.5-0.3,3.7-0.8v1.6c-0.6,0.3-1.2,0.4-1.7,0.6C1891,2557.8,1890.3,2557.8,1889.5,2557.8z M1889.1,2547.4
				c-0.9,0-1.6,0.3-2.2,0.9c-0.5,0.6-0.9,1.5-0.9,2.5h6c0-1.1-0.3-2-0.8-2.5C1890.6,2547.6,1890,2547.4,1889.1,2547.4z"/>
			<path fill="#603813" d="M1907.6,2545.9c0.5,0,0.9,0,1.4,0.1l-0.3,1.6c-0.5-0.1-0.9-0.2-1.3-0.2c-0.9,0-1.7,0.3-2.4,1.1
				c-0.7,0.8-1,1.7-1,2.8v6.2h-1.7v-11.5h1.5l0.2,2.2h0.1c0.4-0.8,0.9-1.3,1.6-1.7C1906.2,2546.1,1906.8,2545.9,1907.6,2545.9z"/>
			<path fill="#603813" d="M1916,2557.8c-1.7,0-3-0.5-4-1.6c-0.9-1-1.5-2.5-1.5-4.3c0-1.9,0.4-3.4,1.4-4.4c0.9-1.1,2.2-1.6,3.7-1.6
				c1.5,0,2.6,0.5,3.4,1.5c0.9,0.9,1.3,2.2,1.3,3.8v1.1h-7.9c0,1.4,0.3,2.4,1,3.1c0.7,0.7,1.6,1,2.8,1c1.2,0,2.5-0.3,3.7-0.8v1.6
				c-0.6,0.3-1.2,0.4-1.7,0.6C1917.4,2557.8,1916.8,2557.8,1916,2557.8z M1915.5,2547.4c-0.9,0-1.6,0.3-2.2,0.9
				c-0.5,0.6-0.9,1.5-0.9,2.5h6c0-1.1-0.3-2-0.8-2.5C1917.1,2547.6,1916.4,2547.4,1915.5,2547.4z"/>
			<path fill="#603813" d="M1928.6,2557.8c-0.8,0-1.5-0.2-2.1-0.4c-0.6-0.3-1.1-0.7-1.6-1.3h-0.1c0.1,0.7,0.1,1.3,0.1,1.9v4.7h-1.7
				V2546h1.4l0.3,1.6h0.1c0.4-0.6,0.9-1.1,1.6-1.4s1.3-0.4,2.1-0.4c1.6,0,2.7,0.5,3.5,1.6c0.9,1,1.2,2.5,1.2,4.4
				c0,1.9-0.4,3.4-1.3,4.4C1931.2,2557.3,1930.1,2557.8,1928.6,2557.8z M1928.3,2547.4c-1.2,0-2.1,0.3-2.6,0.9
				c-0.5,0.6-0.8,1.7-0.8,3.1v0.4c0,1.6,0.3,2.8,0.8,3.4c0.5,0.7,1.4,1,2.6,1c1,0,1.8-0.4,2.3-1.2c0.6-0.8,0.9-1.9,0.9-3.4
				s-0.3-2.5-0.9-3.3C1930.1,2547.7,1929.3,2547.4,1928.3,2547.4z"/>
			<path fill="#603813" d="M1941.3,2557.8c-1.7,0-3-0.5-4-1.6c-0.9-1-1.5-2.5-1.5-4.3c0-1.9,0.4-3.4,1.4-4.4
				c0.9-1.1,2.2-1.6,3.7-1.6c1.5,0,2.6,0.5,3.4,1.5c0.9,0.9,1.3,2.2,1.3,3.8v1.1h-7.9c0,1.4,0.3,2.4,1,3.1c0.7,0.7,1.6,1,2.8,1
				c1.2,0,2.5-0.3,3.7-0.8v1.6c-0.6,0.3-1.2,0.4-1.7,0.6C1942.7,2557.8,1942.1,2557.8,1941.3,2557.8z M1940.8,2547.4
				c-0.9,0-1.6,0.3-2.2,0.9c-0.5,0.6-0.9,1.5-0.9,2.5h6c0-1.1-0.3-2-0.8-2.5C1942.4,2547.6,1941.7,2547.4,1940.8,2547.4z"/>
			<path fill="#603813" d="M1953.8,2545.9c0.5,0,0.9,0,1.4,0.1l-0.3,1.6c-0.5-0.1-0.9-0.2-1.3-0.2c-0.9,0-1.7,0.3-2.4,1.1
				c-0.7,0.8-1,1.7-1,2.8v6.2h-1.7v-11.5h1.5l0.2,2.2h0.1c0.4-0.8,0.9-1.3,1.6-1.7C1952.3,2546.1,1953,2545.9,1953.8,2545.9z"/>
			<path fill="#603813" d="M1964.4,2557.6l-0.3-1.6h-0.1c-0.6,0.7-1.1,1.2-1.7,1.5c-0.6,0.3-1.3,0.3-2.2,0.3c-1.1,0-2.1-0.3-2.7-0.9
				c-0.7-0.6-0.9-1.5-0.9-2.5c0-2.3,1.9-3.5,5.6-3.6l2-0.1v-0.7c0-0.9-0.2-1.6-0.6-2c-0.4-0.4-1-0.7-1.9-0.7c-0.9,0-2.1,0.3-3.3,0.9
				l-0.5-1.4c0.6-0.3,1.2-0.5,1.9-0.7c0.7-0.2,1.4-0.3,2.1-0.3c1.4,0,2.4,0.3,3,0.9c0.7,0.6,1,1.6,1,2.9v7.8L1964.4,2557.6
				L1964.4,2557.6z M1960.4,2556.4c1.1,0,2-0.3,2.6-0.9c0.6-0.6,0.9-1.5,0.9-2.5v-1l-1.7,0.1c-1.4,0.1-2.4,0.3-3,0.7
				c-0.6,0.4-0.9,0.9-0.9,1.8c0,0.6,0.2,1.1,0.6,1.5C1959.2,2556.2,1959.7,2556.4,1960.4,2556.4z"/>
			<path fill="#603813" d="M1973,2556.4c0.3,0,0.6,0,0.9-0.1c0.3-0.1,0.5-0.1,0.7-0.2v1.3c-0.2,0.1-0.4,0.2-0.9,0.3
				c-0.3,0.1-0.7,0.1-1,0.1c-2.2,0-3.4-1.2-3.4-3.5v-6.9h-1.6v-0.9l1.6-0.7l0.8-2.5h1v2.7h3.4v1.4h-3.4v6.8c0,0.7,0.2,1.2,0.5,1.6
				C1972,2556.1,1972.4,2556.4,1973,2556.4z"/>
		</g>
		<g>
			<path fill="#603813" d="M1743.1,2681.5c0,1.9-0.4,3.4-1.4,4.4c-0.9,1-2.2,1.6-4,1.6c-1,0-2-0.3-2.8-0.7c-0.8-0.5-1.4-1.2-1.8-2.1
				c-0.4-0.9-0.7-2-0.7-3.2c0-1.9,0.4-3.4,1.4-4.4c0.9-1,2.2-1.6,3.9-1.6c1.6,0,2.9,0.5,3.9,1.6
				C1742.6,2678.2,1743.1,2679.7,1743.1,2681.5z M1734.3,2681.5c0,1.5,0.3,2.6,0.9,3.4c0.6,0.8,1.5,1.1,2.6,1.1c1.1,0,2-0.3,2.6-1.1
				c0.6-0.8,0.9-1.9,0.9-3.4s-0.3-2.6-0.9-3.4s-1.5-1.1-2.6-1.1c-1.1,0-2,0.3-2.6,1.1C1734.5,2678.9,1734.3,2680,1734.3,2681.5z"/>
			<path fill="#603813" d="M1751.4,2675.6c0.5,0,0.9,0,1.4,0.1l-0.3,1.6c-0.5-0.1-0.9-0.2-1.3-0.2c-0.9,0-1.7,0.3-2.4,1.1
				c-0.7,0.8-1,1.7-1,2.8v6.2h-1.7v-11.5h1.5l0.2,2.2h0.1c0.4-0.8,0.9-1.3,1.6-1.7C1750,2675.7,1750.6,2675.6,1751.4,2675.6z"/>
			<path fill="#603813" d="M1759.8,2687.5c-1.7,0-3-0.5-4-1.6c-0.9-1-1.5-2.5-1.5-4.3c0-1.9,0.4-3.4,1.4-4.4
				c0.9-1.1,2.2-1.6,3.7-1.6c1.5,0,2.6,0.5,3.4,1.5c0.9,0.9,1.3,2.2,1.3,3.8v1.1h-7.9c0,1.4,0.3,2.4,1,3.1c0.7,0.7,1.6,1,2.8,1
				c1.2,0,2.5-0.3,3.7-0.8v1.6c-0.6,0.3-1.2,0.4-1.7,0.6C1761.2,2687.5,1760.5,2687.5,1759.8,2687.5z M1759.3,2677
				c-0.9,0-1.6,0.3-2.2,0.9c-0.5,0.6-0.9,1.5-0.9,2.5h6c0-1.1-0.3-2-0.8-2.5C1760.9,2677.3,1760.2,2677,1759.3,2677z"/>
			<path fill="#603813" d="M1774.3,2687.3h-1.7v-16.4h1.7V2687.3z"/>
			<path fill="#603813" d="M1785.1,2687.3l-0.3-1.6h-0.1c-0.6,0.7-1.1,1.2-1.7,1.5s-1.3,0.3-2.2,0.3c-1.1,0-2.1-0.3-2.7-0.9
				c-0.7-0.6-0.9-1.5-0.9-2.5c0-2.3,1.9-3.5,5.6-3.6l2-0.1v-0.7c0-0.9-0.2-1.6-0.6-2c-0.4-0.4-1-0.7-1.9-0.7c-0.9,0-2.1,0.3-3.3,0.9
				l-0.5-1.4c0.6-0.3,1.2-0.5,1.9-0.7s1.4-0.3,2.1-0.3c1.4,0,2.4,0.3,3,0.9c0.7,0.6,1,1.6,1,2.9v7.8H1785.1L1785.1,2687.3z
				 M1781.2,2686.1c1.1,0,2-0.3,2.6-0.9s0.9-1.5,0.9-2.5v-1l-1.7,0.1c-1.4,0.1-2.4,0.3-3,0.7c-0.6,0.3-0.9,0.9-0.9,1.8
				c0,0.6,0.2,1.1,0.6,1.5C1779.9,2685.9,1780.5,2686.1,1781.2,2686.1z"/>
			<path fill="#603813" d="M1803.5,2685.7L1803.5,2685.7c-0.9,1.2-2.1,1.7-3.7,1.7c-1.6,0-2.7-0.5-3.5-1.6c-0.9-1-1.3-2.5-1.3-4.4
				c0-1.9,0.4-3.4,1.3-4.4c0.9-1,2-1.6,3.5-1.6c1.6,0,2.8,0.6,3.6,1.7h0.2l-0.1-0.9v-0.8v-4.7h1.7v16.4h-1.4L1803.5,2685.7z
				 M1800,2686c1.2,0,2.1-0.3,2.6-0.9c0.5-0.7,0.8-1.7,0.8-3.1v-0.3c0-1.6-0.3-2.8-0.8-3.5s-1.4-1-2.6-1c-1,0-1.8,0.4-2.3,1.2
				c-0.5,0.8-0.8,1.9-0.8,3.4c0,1.5,0.3,2.6,0.8,3.4C1798.1,2685.6,1798.9,2686,1800,2686z"/>
			<path fill="#603813" d="M1808.6,2672.6c0-0.4,0.1-0.7,0.3-0.9c0.2-0.2,0.4-0.3,0.8-0.3c0.3,0,0.5,0.1,0.7,0.3
				c0.2,0.2,0.3,0.5,0.3,0.9c0,0.4-0.1,0.7-0.3,0.9c-0.2,0.2-0.4,0.3-0.7,0.3c-0.3,0-0.5-0.1-0.8-0.3
				C1808.8,2673.3,1808.6,2673,1808.6,2672.6z M1810.5,2687.3h-1.7v-11.5h1.7V2687.3z"/>
			<path fill="#603813" d="M1821.7,2684.1c0,1-0.4,1.9-1.2,2.5c-0.8,0.6-1.9,0.9-3.4,0.9c-1.6,0-2.8-0.3-3.5-0.7v-1.6
				c0.5,0.3,1.1,0.5,1.8,0.7c0.6,0.2,1.2,0.3,1.8,0.3c0.9,0,1.6-0.2,2.1-0.4c0.5-0.3,0.8-0.8,0.8-1.3c0-0.4-0.2-0.9-0.6-1.1
				s-1.1-0.7-2.2-1.1c-1-0.4-1.8-0.8-2.3-1c-0.4-0.3-0.8-0.6-1-1c-0.3-0.3-0.3-0.9-0.3-1.4c0-0.9,0.3-1.7,1.1-2.2
				c0.8-0.5,1.8-0.8,3.2-0.8c1.2,0,2.4,0.3,3.6,0.8l-0.6,1.4c-1.1-0.5-2.2-0.7-3.1-0.7s-1.5,0.2-1.9,0.4s-0.6,0.6-0.6,1
				c0,0.3,0.1,0.6,0.3,0.8c0.2,0.3,0.4,0.4,0.8,0.6c0.3,0.2,1,0.5,2,0.9c1.4,0.5,2.3,1,2.8,1.5
				C1821.5,2682.7,1821.7,2683.4,1821.7,2684.1z"/>
			<path fill="#603813" d="M1829.9,2687.5c-0.8,0-1.5-0.2-2.1-0.4c-0.6-0.3-1.1-0.7-1.6-1.3h-0.1c0.1,0.7,0.1,1.3,0.1,1.9v4.7h-1.7
				v-16.7h1.4l0.3,1.6h0.1c0.4-0.6,0.9-1.1,1.6-1.4s1.3-0.4,2.1-0.4c1.6,0,2.7,0.5,3.5,1.6s1.2,2.5,1.2,4.4s-0.4,3.4-1.3,4.4
				C1832.6,2686.9,1831.4,2687.5,1829.9,2687.5z M1829.6,2677c-1.2,0-2.1,0.3-2.6,0.9c-0.5,0.7-0.8,1.7-0.8,3.1v0.4
				c0,1.6,0.3,2.8,0.8,3.4c0.5,0.7,1.4,1,2.6,1c1,0,1.8-0.4,2.3-1.2c0.5-0.8,0.9-1.9,0.9-3.4c0-1.5-0.3-2.5-0.9-3.3
				C1831.5,2677.4,1830.7,2677,1829.6,2677z"/>
			<path fill="#603813" d="M1847.7,2681.5c0,1.9-0.4,3.4-1.4,4.4c-0.9,1-2.2,1.6-4,1.6c-1,0-2-0.3-2.8-0.7c-0.8-0.5-1.4-1.2-1.8-2.1
				s-0.7-2-0.7-3.2c0-1.9,0.4-3.4,1.4-4.4c0.9-1,2.2-1.6,3.9-1.6c1.6,0,2.9,0.5,3.9,1.6C1847.2,2678.2,1847.7,2679.7,1847.7,2681.5z
				 M1838.9,2681.5c0,1.5,0.3,2.6,0.9,3.4c0.6,0.8,1.5,1.1,2.6,1.1c1.1,0,2-0.3,2.6-1.1c0.6-0.8,0.9-1.9,0.9-3.4s-0.3-2.6-0.9-3.4
				s-1.5-1.1-2.6-1.1c-1.1,0-2,0.3-2.6,1.1C1839.1,2678.9,1838.9,2680,1838.9,2681.5z"/>
			<path fill="#603813" d="M1858.1,2687.3h-8.4v-1.2l6.3-9h-5.9v-1.4h7.8v1.4l-6.2,8.8h6.4L1858.1,2687.3L1858.1,2687.3z"/>
			<path fill="#603813" d="M1860.7,2672.6c0-0.4,0.1-0.7,0.3-0.9c0.2-0.2,0.4-0.3,0.8-0.3c0.3,0,0.5,0.1,0.7,0.3
				c0.2,0.2,0.3,0.5,0.3,0.9c0,0.4-0.1,0.7-0.3,0.9c-0.2,0.2-0.4,0.3-0.7,0.3s-0.5-0.1-0.8-0.3
				C1860.7,2673.3,1860.7,2673,1860.7,2672.6z M1862.6,2687.3h-1.7v-11.5h1.7V2687.3z"/>
			<path fill="#603813" d="M1870,2686.1c0.3,0,0.6,0,0.9-0.1c0.3-0.1,0.5-0.1,0.7-0.2v1.3c-0.2,0.1-0.4,0.2-0.9,0.3
				c-0.3,0.1-0.7,0.1-1,0.1c-2.2,0-3.4-1.2-3.4-3.5v-6.9h-1.6v-0.9l1.6-0.7l0.8-2.5h1v2.7h3.4v1.4h-3.4v6.8c0,0.7,0.2,1.2,0.5,1.6
				C1868.9,2685.8,1869.5,2686.1,1870,2686.1z M1871.1,2690.3c0,0.7-0.3,1.2-0.8,1.6c-0.5,0.3-1.3,0.5-2.4,0.5c-0.3,0-0.7,0-1-0.1
				v-1.1c0.3,0.1,0.7,0.1,1.1,0.1c0.5,0,0.9-0.1,1.3-0.2c0.3-0.2,0.4-0.4,0.4-0.8s-0.2-0.5-0.4-0.7c-0.3-0.2-0.8-0.3-1.6-0.4
				l0.9-1.9h1.1l-0.6,1.2C1870.5,2688.7,1871.1,2689.3,1871.1,2690.3z"/>
			<path fill="#603813" d="M1873.8,2672.6c0-0.4,0.1-0.7,0.3-0.9c0.2-0.2,0.4-0.3,0.8-0.3c0.3,0,0.5,0.1,0.7,0.3
				c0.2,0.2,0.3,0.5,0.3,0.9c0,0.4-0.1,0.7-0.3,0.9c-0.2,0.2-0.4,0.3-0.7,0.3s-0.5-0.1-0.8-0.3
				C1873.8,2673.3,1873.8,2673,1873.8,2672.6z M1875.7,2687.3h-1.7v-11.5h1.7V2687.3z"/>
			<path fill="#603813" d="M1884.2,2687.5c-1.7,0-3-0.5-4-1.6c-0.9-1-1.5-2.5-1.5-4.3c0-1.9,0.4-3.4,1.4-4.4
				c0.9-1.1,2.2-1.6,3.7-1.6c1.5,0,2.6,0.5,3.4,1.5c0.9,0.9,1.3,2.2,1.3,3.8v1.1h-7.9c0,1.4,0.3,2.4,1,3.1c0.7,0.7,1.6,1,2.8,1
				c1.2,0,2.5-0.3,3.7-0.8v1.6c-0.6,0.3-1.2,0.4-1.7,0.6C1885.7,2687.5,1885,2687.5,1884.2,2687.5z M1883.8,2677
				c-0.9,0-1.6,0.3-2.2,0.9c-0.5,0.6-0.9,1.5-0.9,2.5h6c0-1.1-0.3-2-0.8-2.5C1885.3,2677.3,1884.6,2677,1883.8,2677z"/>
		</g>
	</g>
</g>
<g id="Layer_2" display="none">
	<g display="inline">
		<path fill="#603813" d="M2092.4,2622.1h-19v-8.6h19c4.1,0,8-1.8,10.7-5.1l6.6,5.4C2105.4,2619.1,2099.2,2622.1,2092.4,2622.1z
			 M2054.5,2622.1h-19v-8.6h19V2622.1z M2016.6,2622.1h-19v-8.6h19V2622.1z M1978.7,2622.1h-19v-8.6h19V2622.1z M1940.8,2622.1h-19
			v-8.6h19V2622.1z M1902.9,2622.1h-19v-8.6h19V2622.1z M1865,2622.1h-19v-8.6h19V2622.1z M1827.1,2622.1h-19v-8.6h19V2622.1z
			 M1789.2,2622.1h-19v-8.6h19V2622.1z M1751.2,2622.1h-19v-8.6h19V2622.1z M1713.3,2622.1h-19v-8.6h19V2622.1z M1675.4,2622.1h-19
			v-8.6h19V2622.1z M1637.5,2622.1h-19v-8.6h19V2622.1z M1599.6,2622.1h-19v-8.6h19V2622.1z M1561.7,2622.1h-19v-8.6h19V2622.1z
			 M1523.8,2622.1h-19v-8.6h19V2622.1z M1485.9,2622.1h-19v-8.6h19V2622.1z M1448,2622.1h-19v-8.6h19V2622.1z M1409.5,2622
			c-7.9-1-14.7-6.2-17.8-13.6l7.9-3.4c1.9,4.6,6.1,7.8,10.9,8.4L1409.5,2622z M2114.8,2593.2h-8.6v-19h8.6V2593.2z M1398.6,2587.9
			h-8.6v-19h8.6V2587.9z M2114.8,2555.3h-8.6v-19h8.6V2555.3z M1398.6,2550h-8.6v-19h8.6V2550z M2114.8,2517.4h-8.6v-19h8.6V2517.4z
			 M1398.6,2512.1h-8.6v-19h8.6V2512.1z M2114.8,2479.5h-8.6v-19h8.6V2479.5z M1398.6,2474.2h-8.6v-19h8.6V2474.2z M2114.8,2441.6
			h-8.6v-19h8.6V2441.6z M1398.6,2436.3h-8.6v-19h8.6V2436.3z M2114.8,2403.6h-8.6v-19h8.6V2403.6z M1398.6,2398.4h-8.6v-19h8.6
			V2398.4z M2114.8,2365.7h-8.6v-3.8c0-3.9-1.6-7.7-4.6-10.3l5.8-6.4c4.7,4.2,7.4,10.3,7.4,16.6V2365.7L2114.8,2365.7z
			 M1398.6,2360.8l-8.6-0.7c0.6-7.9,5.5-15,12.8-18.4l3.7,7.8C1402,2351.6,1399,2355.9,1398.6,2360.8z M2086.7,2348.2h-19v-8.6h19
			V2348.2z M2048.8,2348.2h-19v-8.6h19V2348.2z M2010.9,2348.2h-19v-8.6h19V2348.2z M1973,2348.2h-19v-8.6h19V2348.2z
			 M1935.1,2348.2h-19v-8.6h19V2348.2z M1897.2,2348.2h-19v-8.6h19V2348.2z M1859.3,2348.2h-19v-8.6h19V2348.2z M1821.4,2348.2h-19
			v-8.6h19V2348.2z M1783.5,2348.2h-19v-8.6h19V2348.2z M1745.6,2348.2h-19v-8.6h19V2348.2z M1707.6,2348.2h-19v-8.6h19V2348.2z
			 M1669.7,2348.2h-19v-8.6h19V2348.2z M1631.8,2348.2h-19v-8.6h19V2348.2z M1593.9,2348.2h-19v-8.6h19V2348.2z M1556,2348.2h-19
			v-8.6h19V2348.2z M1518.1,2348.2h-19v-8.6h19V2348.2z M1480.2,2348.2h-19v-8.6h19V2348.2z M1442.3,2348.2h-19v-8.6h19V2348.2z"/>
	</g>
</g>
<g id="Layer_3" display="none">
	<g display="inline">
		<path fill="#5E3112" d="M1600.8,2466.8c0,0,7.8-1.3,14.6-0.3c6.8,1,14.2-2.7,14.2-2.7s-0.5-3.1,2.5-3.1s14-0.5,16.5,0
			c2.5,0.5,9,2.7,9,2.7v3l5.7,2.2c0,0,4-3.3,9.2-4.1c5.3-0.9,3.2-2.4,8.4-2.4s11.8-2.9,18.4-1.7c6.5,1.2,19.1-0.8,22.7,4
			s10.1,7.3,14,4.3c4-3,9-6,14.3-6.5s7.8-3.6,9.3-1.6c1.6,2.1,7.1,5.1,7.1,5.1l3.5,2.4c0,0,2.5-2,5.5-3.1s5.5,0.5,8.5-0.1
			c3-0.6,7.1,0.1,11-0.1c4-0.2,12.6,1.1,16,0c3.5-1.1,8.5,0,8.5,0l8,2.8l-2.5,13.4l2.4,3.3l-5.7,5.5v8.3c0,0,3.5,5.8,3.5,8.3
			c0,2.5-1.9,8.5-2.4,10.1c-0.5,1.5-2,1-1.5,7.1c0.5,6,0.5,6,0.5,6l0.5,4.5l0.5,5.5l-3.5,4.5c-4.5-3-7.1-6.5-7.1-6.5s-4-5.5-6.5-3.5
			c-2.5,2-6.5,5.6-6.5,5.6l-2,4.6h-3l-3-4l-5,1.5c0,0,1,7-5,7.5c-6,0.5-6.9-0.5-11.5,0c-4.6,0.5-5.1,0.8-7.6,0.2
			c-2.5-0.7-12.3-1.6-12.3,0.3s-6.8,3.1-6.8,3.1l-4-3.2l-2.5-1h-5.5l-4.5-0.1l-2.5-0.7l-3-6.6l-12.6,2.9l-5.5,4.4h-4.3l-5.3-2.1
			c0,0-3.5,0.9-5,1.8c-1.5,1-2,1.5-5,1.5s-11,0-11-0.5s-9.6-0.5-9.6-0.5l-17.1-1.6l-20.6-3.5l-14.4,1.7l-3.5-1.5l-4-2.5l-2.8-14
			l7.8-9v-7.1l-4.1-8l-3.5-13.1l4.2-15.1L1600.8,2466.8z"/>
		<path fill="#9F5B26" d="M1600.8,2463.6c0,0,7.8-1.3,14.6-0.3c6.8,1,14.2-2.7,14.2-2.7s-0.5-3.1,2.5-3.1s14-0.5,16.5,0
			c2.5,0.5,9,2.7,9,2.7v3l5.7,2.2c0,0,4-3.3,9.2-4.1c5.3-0.9,3.2-2.4,8.4-2.4s11.8-2.9,18.4-1.7c6.5,1.2,19.1-0.8,22.7,4
			s10.1,7.3,14,4.3c4-3,9-6,14.3-6.5s7.8-3.6,9.3-1.6c1.5,2,7.1,5.1,7.1,5.1l3.5,2.4c0,0,2.5-2,5.5-3.1s5.5,0.5,8.5-0.1
			c3-0.6,7.1,0.1,11-0.1c4-0.2,12.6,1.1,16,0c3.5-1.1,8.5,0,8.5,0l8,2.8l-2.5,13.4l2.4,3.3l-5.7,5.5v8.3c0,0,3.5,5.8,3.5,8.3
			c0,2.5-1.9,8.5-2.4,10.1c-0.5,1.6-2,1-1.5,7.1s0.5,6,0.5,6l0.5,4.5l0.5,5.5l-3.5,4.5c-4.5-3-7.1-6.5-7.1-6.5s-4-5.5-6.5-3.5
			c-2.5,2-6.5,5.9-6.5,5.9l-2,4.9h-3l-3-4.4l-5,1.3c0,0,1,6.9-5,7.4c-6,0.5-6.9-0.5-11.5,0c-4.6,0.5-5.1,0.8-7.6,0.2
			c-2.5-0.7-12.3-1.6-12.3,0.3c0,2-6.8,3.1-6.8,3.1l-4-3.3l-2.5-1.2h-5.5h-4.5l-2.5-0.6l-3-6.5l-12.6,2.8l-5.5,4.3h-4.3l-5.3-2
			c0,0-3.5,0.9-5,1.9c-1.5,1-2,1.5-5,1.5s-11,0-11-0.5s-9.6-0.5-9.6-0.5l-17.1-1.6l-20.6-3.5l-14.6,1.5l-3.5-1.5l-4-2.5l-2.8-14
			l7.8-9v-7.1l-4.1-8l-3.5-13.1l4.2-15.1L1600.8,2463.6z"/>
		<path fill="#F6921E" d="M1600.8,2460.5c0,0,7.8-1.3,14.6-0.3c6.8,1,14.2-2.7,14.2-2.7s-0.5-3.1,2.5-3.1s14-0.5,16.5,0
			c2.5,0.5,9,2.7,9,2.7v3l5.7,2.2c0,0,4-3.3,9.2-4.1c5.3-0.9,3.2-2.4,8.4-2.4s11.8-2.9,18.4-1.7c6.5,1.2,19.1-0.8,22.7,4
			s10.1,7.3,14,4.3c4-3,9-6,14.3-6.5s7.8-3.6,9.3-1.6c1.6,2.1,7.1,5.1,7.1,5.1l3.5,2.4c0,0,2.5-2,5.5-3.1s5.5,0.5,8.5-0.1
			c3-0.6,7.1,0.1,11-0.1c4-0.2,12.6,1.1,16,0c3.5-1.1,8.5,0,8.5,0l8,2.8l-2.5,13.4l2.4,3.3l-5.7,5.5v8.3c0,0,3.5,5.8,3.5,8.3
			s-1.9,8.5-2.4,10.1c-0.5,1.6-2,1-1.5,7.1s0.5,6,0.5,6l0.5,4.5l0.5,5.5l-3.5,4.5c-4.5-3-7.1-6.5-7.1-6.5s-4-5.5-6.5-3.5
			c-2.5,2-6.5,5.8-6.5,5.8l-2,4.7h-3l-3-4.2l-5,1.4c0,0,1,6.9-5,7.4c-6,0.5-6.9-0.5-11.5,0c-4.6,0.5-5.1,0.8-7.6,0.2
			c-2.5-0.7-12.3-1.6-12.3,0.3s-6.8,3.1-6.8,3.1l-4-3.4l-2.5-1.3h-5.5l-4.5,0.2l-2.5-0.5l-3-6.5l-12.6,2.7l-5.5,4.2h-4.3l-5.3-1.8
			c0,0-3.5,0.9-5,2c-1.5,1-2,1.5-5,1.5s-11,0-11-0.5c0-0.5-9.6-0.5-9.6-0.5l-17.1-1.6l-20.6-3.5l-14.6,1.5l-3.5-1.5l-4-2.5l-2.8-14
			l7.8-9v-7.1l-4.1-8l-3.5-13.1l4.2-15.1L1600.8,2460.5z"/>
	</g>
</g>
<g>
	<rect x="1165.5" y="1.4" fill="#E5E5E5" width="1176.9" height="4959.6"/>
</g>
<g>
	<g>
		<g>
			<g>
				<g>
					<path fill="#5E3112" d="M1582.5,644.6l5.2-7.8h6.9c0,0,4.3-0.9,6.9-2.6c2.6-1.7,4.7-3.9,6-4.3s2.6-2.6,4.7-2.6
						c2.2,0,5.2,0,8.2,0c3,0,7.3,3.4,7.3,3.4s-4.7,5.2-7.3,5.2c-2.6,0-6.9,4.3-6.9,6.5c0,2.2,0,4.7-1.3,6.5c-1.3,1.7-2.2,0.8-4.7,3
						s-2.6,3.4-6.9,4.3c-4.3,0.9-7.8-4.3-7.8-4.3s0.1,0.4-2.5,0s-7.8,0-7.8,0V644.6z"/>
				</g>
				<g>
					<path fill="#5E3112" d="M1640.3,627.3v-7h5.2l2.6,3.5v8.6c0,0-6.5,3.9-7.8,2.2c-1.3-1.7-2.2-6.9-2.2-6.9L1640.3,627.3z"/>
				</g>
			</g>
			<g>
				<g>
					<path fill="#9F5B26" d="M1582.5,642.8l5.2-7.8h6.9c0,0,4.3-0.9,6.9-2.6c2.6-1.7,4.7-3.9,6-4.3s2.6-2.6,4.7-2.6
						c2.2,0,5.2,0,8.2,0c3,0,7.3,3.4,7.3,3.4s-4.7,5.2-7.3,5.2c-2.6,0-6.9,4.3-6.9,6.5c0,2.2,0,4.7-1.3,6.5c-1.3,1.7-2.2,0.8-4.7,3
						c-2.6,2.2-2.6,3.4-6.9,4.3c-4.3,0.9-7.8-4.3-7.8-4.3s0.1,0.4-2.5,0s-7.8,0-7.8,0V642.8z"/>
				</g>
				<g>
					<path fill="#9F5B26" d="M1640.3,625.6v-7h5.2l2.6,3.5v8.6c0,0-6.5,3.9-7.8,2.2c-1.3-1.7-2.2-6.9-2.2-6.9L1640.3,625.6z"/>
				</g>
			</g>
			<g>
				<g>
					<path fill="#CDA34F" d="M1582.5,639.4l5.2-7.8h6.9c0,0,4.3-0.9,6.9-2.6s4.7-3.9,6-4.3s2.6-2.6,4.7-2.6c2.2,0,5.2,0,8.2,0
						c3,0,7.3,3.4,7.3,3.4s-4.7,5.2-7.3,5.2c-2.6,0-6.9,4.3-6.9,6.5c0,2.2,0,4.7-1.3,6.5c-1.3,1.7-2.2,0.8-4.7,3s-2.6,3.4-6.9,4.3
						c-4.3,0.9-7.8-4.3-7.8-4.3s0.1,0.4-2.5,0s-7.8,0-7.8,0V639.4z"/>
				</g>
				<g>
					<path fill="#CDA34F" d="M1640.3,622.1v-7h5.2l2.6,3.5v8.6c0,0-6.5,3.9-7.8,2.2c-1.3-1.7-2.2-6.9-2.2-6.9L1640.3,622.1z"/>
				</g>
			</g>
		</g>
		<g>
			<g>
				<g>
					<path fill="#5E3112" d="M1473.4,837.1l-3.5,8.6l-6.7,1.3c0,0-4,1.6-6.3,3.9c-2.2,2.2-3.9,4.7-5.1,5.4c-1.2,0.7-2.1,3-4.1,3.4
						c-2.2,0.4-5.1,1-8,1.6c-2.9,0.6-7.8-2-7.8-2s3.6-5.9,6.2-6.5c2.5-0.5,5.9-5.6,5.5-7.7c-0.4-2.2-0.9-4.7,0-6.5
						c0.9-2,2-1.2,4-3.9c2.1-2.7,1.9-3.9,5.9-5.6c4-1.6,8.4,2.8,8.4,2.8s-0.2-0.3,2.4-0.5c2.6-0.1,7.8-1.6,7.8-1.6L1473.4,837.1z"/>
				</g>
				<g>
					<path fill="#5E3112" d="M1420.1,865.1l1.3,6.7l-5.1,1l-3.2-2.8l-1.6-8.4c0,0,5.6-5.1,7.2-3.6c1.6,1.5,3.4,6.4,3.4,6.4
						L1420.1,865.1z"/>
				</g>
			</g>
			<g>
				<g>
					<path fill="#9F5B26" d="M1473.7,834.4l-3.5,8.6l-6.7,1.3c0,0-4,1.6-6.3,3.9c-2.2,2.2-3.9,4.7-5.1,5.4c-1.2,0.7-2.1,3-4.1,3.4
						c-2.2,0.4-5.1,1-8,1.6c-2.9,0.6-7.8-2-7.8-2s3.6-5.9,6.2-6.5c2.5-0.5,5.9-5.6,5.5-7.7c-0.4-2.2-0.9-4.7,0-6.5
						c0.9-2,2-1.2,4-3.9c2.2-2.7,1.9-3.9,5.9-5.6c4-1.6,8.4,2.8,8.4,2.8s-0.2-0.3,2.4-0.5c2.6-0.1,7.8-1.6,7.8-1.6L1473.7,834.4z"/>
				</g>
				<g>
					<path fill="#9F5B26" d="M1420.4,862.5l1.3,6.7l-5.1,1l-3.2-2.8l-1.6-8.4c0,0,5.6-5.1,7.2-3.6c1.6,1.5,3.4,6.4,3.4,6.4
						L1420.4,862.5z"/>
				</g>
			</g>
			<g>
				<g>
					<path fill="#CDA34F" d="M1474.4,831.8l-3.5,8.6l-6.7,1.3c0,0-4,1.6-6.3,3.9c-2.2,2.2-3.9,4.7-5.1,5.4c-1.2,0.7-2.1,3-4.1,3.4
						c-2.2,0.4-5.1,1-8,1.6c-2.9,0.6-7.8-2-7.8-2s3.6-5.9,6.2-6.5c2.5-0.5,5.9-5.6,5.5-7.7c-0.4-2.2-0.9-4.7,0-6.5
						c0.9-2,2-1.2,4-3.9c2.2-2.7,1.9-3.9,5.9-5.6c4-1.6,8.4,2.8,8.4,2.8s-0.2-0.3,2.4-0.5c2.6-0.2,7.8-1.6,7.8-1.6L1474.4,831.8z"/>
				</g>
				<g>
					<path fill="#CDA34F" d="M1421.1,859.9l1.3,6.7l-5.1,1l-3.2-2.8l-1.6-8.4c0,0,5.6-5.1,7.2-3.6c1.6,1.5,3.4,6.4,3.4,6.4
						L1421.1,859.9z"/>
				</g>
			</g>
		</g>
		<g>
			<g>
				<g>
					<polygon fill="#5E3112" points="1737.5,760.8 1749.5,753 1761.8,753 1761.8,760.9 1761.8,780.7 1753.8,790.9 1737.5,790.9 
						1741.8,780.6 1717.4,778 					"/>
				</g>
				<g>
					<polygon fill="#5E3112" points="1777.1,799.5 1784.8,799.5 1793.5,808.3 1785.4,816 1766.1,820.3 1766.1,808.3 					"/>
				</g>
				<g>
					<polygon fill="#5E3112" points="1723.7,826.3 1734.9,820.3 1739.4,826.3 1731.6,835.8 					"/>
				</g>
			</g>
			<g>
				<g>
					<polygon fill="#9F5B26" points="1739.2,759.1 1751.2,751.3 1763.5,751.3 1763.5,759.1 1763.5,779 1755.6,789.2 1739.2,789.2 
						1743.5,778.9 1719.1,776.3 					"/>
				</g>
				<g>
					<polygon fill="#9F5B26" points="1778.8,797.8 1786.6,797.8 1795.2,806.5 1787.1,814.3 1767.8,818.6 1767.8,806.5 					"/>
				</g>
				<g>
					<polygon fill="#9F5B26" points="1725.4,824.6 1736.6,818.6 1741.2,824.6 1733.3,834.1 					"/>
				</g>
			</g>
			<g>
				<g>
					<polygon fill="#CDA34F" points="1741.8,754.7 1753.8,747 1766.1,747 1766.1,754.8 1766.1,774.7 1758.1,784.9 1741.8,784.9 
						1746.1,774.6 1721.7,772 					"/>
				</g>
				<g>
					<polygon fill="#CDA34F" points="1781.4,793.5 1789.2,793.5 1797.8,802.2 1789.7,810 1770.4,814.3 1770.4,802.2 					"/>
				</g>
				<g>
					<polygon fill="#CDA34F" points="1728,820.3 1739.2,814.3 1743.7,820.3 1735.9,829.8 					"/>
				</g>
			</g>
		</g>
	</g>
	<g>
		<g>
			<path fill="#5E3112" d="M2334.7,9.5H1165.5v876.1l0.9-3.5c0,0,6.9,21.8,10.3,19c3.4-2.8,6.3-6.9,7.5-9.2c1.1-2.3,0-15.5,0-22.4
				c0-6.9,22.7-19.9,22.7-19.9h28.4h9.7l16.1-11.3l4.5-16.5c0,0,9.9-12.1,12.1-12.7c2.2-0.6,14.5-0.6,14.5-0.6s6.9,5.2,10.9,5.2
				s3.5-4.6,3.5-4.6s2.8-4,6.9-5.8c4-1.7,9.7-10.3,9.7-10.3l5.9-1.1l11.2,1.7l9.4,9.7l27.8-10.9l2.6-2.8l0.1-8.6c0,0,0,0,2.8-1.7
				c2.8-1.7,5.8-4,5.2-5.8c-0.6-1.7,0-5.8,0-8.1s3.2-9,3.2-9h8.6v-5.9l4.3,2.6v-10.6l5.2-18.4c0,0,4-4.6,4.6-6.3c0.6-1.7,0-8,0-8
				l2.3-5.8c0,0,0,0,1.7-1.1s4.6-4,8-6.3c3.4-2.2-1.1-8.1-2.2-10.9c-1.1-2.8,0-4.7,0-4.7l11.4-9.8l0,0l4.3-3.4h5.2c0,0,8.4,0,11.8,0
				c3.4,0,6.3-3.4,6.3-3.4h5.2l8.2-5.7l-3-3.7v-7.2l3.2-3.9l3.7-4.1l9.2-1.1l4,0.6l2.2-1.1l6.8-6.3c0,0,3.8,0.6,5.5,0.6
				c1.7,0,5.9-6.6,5.9-6.6v-3.2l7.3-3.4l11.4-2.3l7.4,2.8l10.3,5.8c0,0,6.2,1.1,9,2.8c2.8,1.7,3.8,0.6,3.8,0.6l4.1-0.6V622
				c0,0,22.7-13.8,26.2-12.7c3.4,1.1,3.8,5.8,3.8,5.8l21-24.1l5.9,3.7v5.4c0,0,5.6,0.6,7.9,0.6s3.9-1.1,8.4-9.2c4.6-8,5.8,3,5.8,3
				s3.4,1,5.2,4.5c1.7,3.4,4.6,2.3,4.6,2.3l4-1.6l4-0.9l4.9-3.4h6.6l2.8,0.9v4.3v12.1l6-1.8h6.6l10.2,15l17.7,0.6v12.7l3.9,4.9
				c0,0,8.4-2,12.5,0.1c4,2.1,8-3.6,8-3.6l-0.3,3.9l1.7,6.1c0,0,0.3,0,1.7,0s12.3,0,12.3,0l6.3,2.4c0,0,8.6,7,12.1,5.3
				c3.4-1.7,5.8,0.2,5.8,0.2l23.9-2.7h8.9l-2-20.7h-14l-5.2-9.5l0.6-10.6l-9.8-8.4l-13.3-6.5l-4.7-20.1l-3.7-20.1l-11.9-9.2v-12.1
				c0,0,22.2-9,27.4-9.3c5.2-0.3,28-51.8,28-51.8l-0.3-12.2h-6l-4.5-4.4l4.5-8.4v-7.5l5.9,7.5l9.4-12.7c0,0,3.8-9.2,6.7-14.9
				c2.9-5.7-12.5-85.3-12.5-85.3v-4.3v-13.2l10.8-6.9c0,0-1.9-5.2-2.4-7.5c-0.6-2.3,2.3-6.3,4.6-8.6c2.2-2.3,8.6-7.8,8.6-7.8l4-12.6
				c0,0,10.9-13.5,13.2-14.1c2.2-0.6,6.9,0,6.9,0l2.8-5.9l3.4,2.5l14.2-14.4c0,0-0.3-55.7,5.5-58.6c5.8-2.8,9.3-26.1,9.3-26.1v-12.9
				l8.6-10.3c0,0,1.6,4.4,1.6,8.4s11.7,6,11.7,6s-1.3-1.6,0-14.1c1.3-12.7,0.2-8.5-3.3-22.9c-3.4-14.4,16.6-22.3,16.6-22.3h36.8
				c0,0,43.7-0.6,50.1-0.5c6.5,0.1,20-3.4,26-5.2s28.7-5.8,28.7-5.8s16.4,6.4,17.6,6.4s8.6-6.3,8.6-6.3l20.2,4l20.5,3.4l7.4,2.9
				c0,0,14.2,1.6,21.1,8c6.9,6.4,2.7,0.5,11-2.4c8.4-2.8,4.4,0,9.6,2.3v4.9l18.8,4.2l11.3-4.2l6.9,3.7l1.6,9.2l-5.3,15.5l16.2,4.7
				l3.9,3.3l2.8,5.3l13.6,1.6l-5.5-3.4c0,0,4.5-2.8,5.6-6.7c1.1-3.9,1.6-8.2,0.4-14.4c-1.1-6.2-7.5-18.7-7.5-18.7l2.8-10.1l6.3-2.7
				l6.9-3.6l5.4,7h6.9l14.6-2.8l7.8,2.8l15.5-8.6l-7.8,2.6l4.3-8l7.8,5.3c0,0,4.7,7.5,10.4,5.3c5.8-2.2,7.1-10.3,7.1-10.3
				L2334.7,9.5z"/>
		</g>
		<g>
			<g>
				<path fill="#9F5B26" d="M1913.3,153.3c0,0-0.1,0-0.2-0.1C1913.2,153.3,1913.3,153.3,1913.3,153.3z"/>
			</g>
			<g>
				<path fill="#9F5B26" d="M2338.2,5.2H1165.5V910c0.9-0.4,0.7-0.9,1-1.3c2.8-4,0.1-14.4,0.1-14.4l4-16.6c0,0,6.9,21.8,10.3,19
					c3.4-2.8,6.3-6.9,7.5-9.2c1.1-2.3,0-15.5,0-22.4c0-6.9,22.7-19.8,22.7-19.8h28.4h9.7l16.1-11.3l4.5-16.5c0,0,9.9-12.1,12.1-12.7
					c2.2-0.6,14.5-0.6,14.5-0.6s6.9,5.2,10.9,5.2c4,0,3.5-4.6,3.5-4.6s2.8-4,6.9-5.8c4-1.7,9.7-10.3,9.7-10.3l5.9-1.1l11.2,1.7
					l9.4,9.7l27.7-10.9l2.6-2.8l0.1-8.6c0,0,0,0,2.8-1.7s5.8-4,5.2-5.8c-0.6-1.7,0-5.8,0-8.1s3.2-9,3.2-9h8.6v-5.9l4.3,2.6v-10.6
					l5.1-18.4c0,0,4-4.6,4.6-6.3c0.6-1.7,0-8,0-8l2.3-5.8c0,0,0,0,1.7-1.1c1.7-1.1,4.6-4,8-6.3c3.4-2.3-1.1-8.1-2.2-10.9
					c-1.1-2.8,0-4.7,0-4.7l11.4-9.7l0,0l4.3-3.4h5.2c0,0,8.4,0,11.8,0c3.4,0,6.3-3.4,6.3-3.4h5.2l8.3-5.7l-2.9-3.7v-7.2l3-3.9
					l3.7-4.1l9.1-1.1l4,0.6l2.2-1.1l6.8-6.3c0,0,4,0.6,5.7,0.6s6-6.6,6-6.6v-3.2l7.2-3.4l11.3-2.3l7.4,2.8l10.3,5.8
					c0,0,6.2,1.1,9,2.8c2.8,1.7,4,0.6,4,0.6l4.3-0.6v-6.3c0,0,22.6-13.8,26-12.7c3.4,1.1,3.7,5.8,3.7,5.8l21.2-24.1l6,3.7v5.4
					c0,0,5.4,0.6,7.8,0.6s3.8-1.1,8.4-9.2c4.6-8,5.7,3,5.7,3s3.4,1,5.2,4.5s4.6,2.3,4.6,2.3l4-1.6l4-0.9l4.9-3.4h6.6l3.3,0.9v4.3
					v12.1l5.7-1.8h6.6l10.4,15l17.8,0.6v12.7l3.7,4.9c0,0,8.4-2,12.4,0.1c4,2.1,8-3.6,8-3.6l-0.3,3.9l1.7,6.1c0,0,0.3,0,1.7,0
					s12.3,0,12.3,0l6.3,2.4c0,0,8.6,7,12.1,5.3c3.4-1.7,5.8,0.2,5.8,0.2l23.8-2.8h8.9l-2-20.7h-14l-5.2-9.5l0.6-10.6l-9.8-8.4
					l-13.3-6.5l-4.7-20.1l-3.9-20.1l-12.6-9.2v-12.1c0,0,22.5-9,27.7-9.3c5.2-0.3,28.1-51.8,28.1-51.8l-0.2-12.2h-6l-4.7-4.4
					l4.2-8.4v-7.5l6.1,7.5l9.5-12.7c0,0,3.6-9.2,6.5-14.9s-12.7-85.3-12.7-85.3v-4.3v-13.2l10.9-6.9c0,0-1.8-5.2-2.3-7.5
					c-0.6-2.3,2.3-6.3,4.7-8.6c2.3-2.3,8.6-7.8,8.6-7.8l4-12.6c0,0,10.9-13.5,13.2-14.1c2.2-0.6,6.9,0,6.9,0l2.8-5.9l3.4,2.5
					l14.2-14.4c0,0-0.3-55.7,5.3-58.6c5.8-2.8,9.1-26.1,9.1-26.1v-12.9l8.6-10.3c0,0,0,6.9,0,10.9c0,3.7,8.7,7.3,9.9,7.8
					c-0.3-0.3-1.1-2.1,0-12.1c1.3-12.7,3.9-14.7,0.4-29.1c-3.4-14.4,16.7-22.3,16.7-22.3h36.8c0,0,43.6-0.6,50.1-0.5
					c6.5,0.1,19.9-3.4,26-5.2c6-1.7,28.7-5.8,28.7-5.8s16.4,6.4,17.6,6.4c1.2,0,8.6-6.3,8.6-6.3l20.2,4l20.5,3.4l7.4,2.9
					c0,0,14.2,1.6,21.1,8c6.9,6.4,2.6,0.5,10.9-2.4c8.4-2.8,4.4,0,9.6,2.3v4.9l18.9,4.2l11.4-4.2l6.9,3.7l1.6,9.2l-5.3,15.5
					l16.1,4.7l3.9,3.3l1.4,7.8l11.5,3.4l-4.3-6c0,0,6.7-4.6,7.9-8.4c1.1-3.9,1.6-8.2,0.4-14.4c-1.1-6.2-7.5-18.7-7.5-18.7l2.8-10.1
					l6.3-2.7l6.9-3.6l5.4,7h6.9l14.6-2.8l7.8,2.8l12.1-4.3l-4.3-1.7l4.3-8l7.8,5.3c0,0,4.7,7.5,10.4,5.3c5.8-2.2,7.1-10.3,7.1-10.3
					L2338.2,5.2z"/>
			</g>
		</g>
		<g>
			<path fill="#CDA34F" d="M2342.5,0H1165.5v910.2c1-1.2,2.7-3.3,4.5-5.8c2.8-4,0.1-14.4,0.1-14.4l4-16.7c0,0,6.9,21.9,10.3,19
				c3.4-2.8,6.3-6.9,7.5-9.2c1.1-2.3,0-15.5,0-22.4c0-6.9,22.7-19.8,22.7-19.8h28.4h9.7l16.1-11.4l4.5-16.5c0,0,9.9-12.1,12.1-12.7
				c2.2-0.6,14.5-0.6,14.5-0.6s6.9,5.2,10.9,5.2s3.5-4.6,3.5-4.6s2.8-4,6.9-5.8c4-1.7,9.7-10.3,9.7-10.3l5.9-1.1l11.2,1.7l9.4,9.7
				l27.8-10.9l2.6-2.8l0.1-8.6c0,0,0,0,2.8-1.7c2.8-1.7,5.8-4,5.2-5.8c-0.6-1.7,0-5.7,0-8s3.2-8.9,3.2-8.9h8.6v-6.1l4.3,2.6v-10.6
				l5.2-18.4c0,0,4-4.6,4.6-6.3c0.6-1.7,0-8,0-8l2.3-5.8c0,0,0,0,1.7-1.1c1.7-1.1,4.6-4,8-6.4c3.4-2.3-1.1-8.1-2.2-10.9
				c-1.1-2.8,0-4.6,0-4.6l11.4-9.5l0,0l4.3-3.4h5.2c0,0,8.4,0,11.8,0c3.4,0,6.3-3.4,6.3-3.4h5.2l8.2-5.9l-3-3.8v-7.2l3.2-3.9
				l3.7-4.1l9.2-1.1l4,0.6l2.2-1.1l6.8-6.3c0,0,3.8,0.6,5.5,0.6c1.7,0,5.9-6.6,5.9-6.6v-3.2l7.3-3.4l11.4-2.3l7.4,2.8l10.3,5.8
				c0,0,6.2,1.1,9,2.8c2.8,1.7,3.8,0.6,3.8,0.6l4.1-0.6v-6.3c0,0,22.7-13.8,26.2-12.7c3.4,1.1,3.8,5.8,3.8,5.8l21-24.1l5.9,3.7v5.4
				c0,0,5.6,0.6,7.9,0.6s3.9-1.1,8.4-9.2c4.6-8,5.8,3,5.8,3s3.4,1,5.2,4.5s4.6,2.3,4.6,2.3l4-1.6l4-0.9l4.9-3.2h6.6l2.8,0.6v4.3
				v12.1l6-1.6h6.6l10.2,14.8l17.7,0.4v12.7l3.9,4.9c0,0,8.4-2,12.5,0.1c4,2,8-3.6,8-3.6l-0.3,4l1.7,6.3c0,0,0.3,0,1.7,0
				s12.3,0,12.3,0l6.3,2.3c0,0,8.6,7,12.1,5.3s5.8,0.3,5.8,0.3l23.9-2.6h8.9l-2-20.7h-14l-5.2-9.6l0.6-10.7l-9.8-8.4l-13.3-6.5
				l-4.7-20.2l-3.7-20.2l-11.9-9.1v-12.1c0,0,22.2-9,27.4-9.3s28-51.6,28-51.6l-0.3-12.1h-6l-4.5-4.7l4.5-8.7v-7.5l5.9,7.5l9.4-12.7
				c0,0,3.8-9.2,6.7-14.9c2.9-5.7-12.6-85.3-12.6-85.3v-4.3v-13.2l10.8-6.9c0,0-1.9-5.2-2.4-7.5c-0.6-2.3,2.3-6.3,4.6-8.6
				c2.3-2.3,8.6-7.8,8.6-7.8l4-12.6c0,0,10.9-13.5,13.2-14.1c2.3-0.6,6.9,0,6.9,0l2.8-5.9l3.4,2.5l14.2-14.4c0,0-0.3-55.7,5.5-58.6
				s9.3-26.2,9.3-26.2v-12.9l8.6-10.3c0,0,0,6.9,0,10.9s5.6,12.1,5.6,12.1s2.8-3.9,4-16.5s3.9-14.8,0.4-29.2
				c-3.4-14.4,16.6-22.4,16.6-22.4h36.8c0,0,43.7-0.5,50.1-0.4c6.5,0.1,20-3.4,26-5.2s28.7-5.8,28.7-5.8s16.4,6.4,17.6,6.4
				c1.2,0,8.6-6.3,8.6-6.3l20.2,4l20.5,3.4l7.4,2.9c0,0,14.2,1.6,21.1,8c6.9,6.4,2.7,0.5,11-2.4c8.4-2.8,4.4,0,9.6,2.3v4.9l18.8,4.2
				l11.3-4.2l6.9,3.7l1.6,9.2l-5.3,15.5l16.2,4.7l3.9,3.3v8.6l8.6,6.9v-10.3c0,0,6.7-4.6,7.9-8.4c1.1-3.9,1.6-8.2,0.4-14.4
				c-1.1-6.2-7.5-18.8-7.5-18.8l2.8-10.1l6.3-2.7l6.9-3.7l5.4,7h6.9l14.6-2.8l7.8,2.8h7.8v-5.9l4.3-8l7.8,5.3c0,0,4.7,7.5,10.4,5.3
				c5.8-2.2,7.1-10.3,7.1-10.3L2342.5,0z"/>
		</g>
	</g>
</g>
<g>
	<g>
		<g>
			<path fill="#5E3112" d="M1166.1,1444.7c0,0,3.2,67.3,11.8,82.8s11.9,39.7,11.9,39.7l8.4,14.7v31.9l6.9,16.6
				c0,0,5.2,5.8,12.1,11.8s19,12.9,19,12.9s15.6,13.8,17.2,18.1c1.6,4.3-3.4,0.6,0,13.5c3.4,12.9-6.9,31.2-6.9,31.2h19l9.5,18.2
				v25.8c0,0-30,15.5-21.4,17.2c8.6,1.7,21.4,27.6,21.4,27.6v22.4v17.2v25.8l10.3,10.3c0,0,7.7,11.6,0,19.6c-7.7,8,0,20.1,0,20.1
				l3.4,15.3l-14,15.7h12.6l-21.8,50.5l9.2,9.9c0,0,2.3,13.7,0,17.1c-2.3,3.4,0,37.9,0,37.9h-40.1l-19,28.3l20.7,24.9l-20.5,33
				l11.9,24.1v30.9h25.8l-26.1,58.2l-18.7,16l-22.4,19l-5.2,44.8l-14.6,20.7L1166.1,1444.7z"/>
		</g>
		<g>
			<path fill="#9F5B26" d="M1166.1,1436.1c0,0,3.2,67.3,11.8,82.8c8.6,15.5,11.9,39.7,11.9,39.7l8.4,14.7v31.9l6.9,16.6
				c0,0,5.2,5.8,12.1,11.8s19,12.9,19,12.9s15.6,13.8,17.2,18.1c1.6,4.3-3.4,0.6,0,13.5c3.4,12.9-6.9,31.2-6.9,31.2h19l9.5,18.2
				v25.8c0,0-30,15.5-21.4,17.2c8.6,1.7,21.4,27.6,21.4,27.6v22.4v17.2v25.8l10.3,10.3c0,0,7.7,11.6,0,19.6c-7.7,8,0,20.1,0,20.1
				l3.4,15.3l-14,15.8l12.6,8.6l-21.8,41.8l9.2,9.9c0,0,2.3,13.7,0,17.1c-2.3,3.4,0,37.9,0,37.9h-40.1l-19,28.3l20.7,33.5
				l-20.5,24.4l11.9,24.1v31l25.8,8.6l-26.1,49.5l-18.7,15.9l-22.4,19l-5.2,44.8l-14.6,20.7L1166.1,1436.1z"/>
		</g>
		<g>
			<path fill="#CDA34F" d="M1166.1,1429.2c0,0,3.2,67.3,11.8,82.8c8.6,15.5,11.9,39.7,11.9,39.7l8.4,14.7v31.9l6.9,16.6
				c0,0,5.2,5.8,12.1,11.8c6.9,6,19,12.9,19,12.9s15.6,13.8,17.2,18.1c1.6,4.3-3.4,0.6,0,13.5c3.4,12.9-6.9,31.2-6.9,31.2h19
				l9.5,18.2v25.8c0,0-30,15.5-21.4,17.2c8.6,1.7,21.4,27.6,21.4,27.6v22.4v17.2v25.8l10.3,10.3c0,0,7.7,11.6,0,19.6
				c-7.7,8,0,20.1,0,20.1l3.4,15.3l-14,15.8l12.6,15.5l-21.8,34.9l9.2,9.9c0,0,2.3,13.7,0,17.1c-2.3,3.4,0,37.9,0,37.9h-40.1
				l-19,28.3l20.7,40.4l-20.5,17.5l11.9,24.1v31l25.8,15.5l-26.1,42.6l-18.7,15.9l-22.4,19l-5.2,44.8l-14.6,20.7L1166.1,1429.2z"/>
		</g>
	</g>
	<g>
		<g>
			<path fill="#5E3112" d="M2342.6,1444.7c0,0-3.2,67.3-11.8,82.8c-8.6,15.5-11.8,39.7-11.8,39.7l-8.4,14.7v31.9l-7,16.6
				c0,0-5.3,5.8-12.1,11.8c-6.9,6-19,12.9-19,12.9s-15.6,13.8-17.3,18.1c-1.7,4.3,3.4,0.6,0,13.5c-3.4,12.9,6.9,31.2,6.9,31.2h-19
				l-9.1,18.2v25.8c0,0,30.1,15.5,21.5,17.2c-8.6,1.7-21.5,27.6-21.5,27.6v22.4v17.2v25.8l-10.5,10.3c0,0-7.8,11.6-0.1,19.6
				c7.7,8-0.1,20.1-0.1,20.1l-3.4,15.3l14,15.7h-12.6l21.8,50.5l-9.2,9.9c0,0-2.3,13.7,0,17.1c2.3,3.4,0,37.9,0,37.9h40.3l19,28.3
				l-20.8,24.9l20.8,33l-11.8,24.1v30.9h-26.2l26.1,58.2l18.8,15.9l22.5,19l5.2,44.8l14.6,20.7L2342.6,1444.7z"/>
		</g>
		<g>
			<path fill="#9F5B26" d="M2342.6,1436.1c0,0-3.2,67.3-11.8,82.8c-8.6,15.5-11.8,39.7-11.8,39.7l-8.4,14.7v31.9l-7,16.6
				c0,0-5.3,5.8-12.1,11.8c-6.9,6-19,12.9-19,12.9s-15.6,13.8-17.3,18.1c-1.7,4.3,3.4,0.6,0,13.5c-3.4,12.9,6.9,31.2,6.9,31.2h-19
				l-9.1,18.2v25.8c0,0,30.1,15.5,21.5,17.2c-8.6,1.7-21.5,27.6-21.5,27.6v22.4v17.2v25.8l-10.5,10.3c0,0-7.8,11.6-0.1,19.6
				c7.7,8-0.1,20.1-0.1,20.1l-3.4,15.3l14,15.8l-12.6,8.6l21.8,41.8l-9.2,9.9c0,0-2.3,13.7,0,17.1c2.3,3.4,0,37.9,0,37.9h40.3
				l19,28.3l-20.8,33.5l20.8,24.4l-11.8,24.1v31l-26.1,8.6l26.1,49.5l18.8,15.9l22.4,19l5.2,44.8l14.6,20.7L2342.6,1436.1z"/>
		</g>
		<g>
			<path fill="#CDA34F" d="M2342.6,1429.2c0,0-3.2,67.3-11.8,82.8c-8.6,15.5-11.8,39.7-11.8,39.7l-8.4,14.7v31.9l-7,16.6
				c0,0-5.3,5.8-12.1,11.8c-6.9,6-19,12.9-19,12.9s-15.6,13.8-17.3,18.1c-1.7,4.3,3.4,0.6,0,13.5c-3.4,12.9,6.9,31.2,6.9,31.2h-19
				l-9.1,18.2v25.8c0,0,30.1,15.5,21.5,17.2c-8.6,1.7-21.5,27.6-21.5,27.6v22.4v17.2v25.8l-10.5,10.3c0,0-7.8,11.6-0.1,19.6
				c7.7,8-0.1,20.1-0.1,20.1l-3.4,15.3l14,15.8l-12.6,15.5l21.8,34.9l-9.2,9.9c0,0-2.3,13.7,0,17.1c2.3,3.4,0,37.9,0,37.9h40.3
				l19,28.3l-20.8,40.4l20.8,17.5l-11.8,24.1v31l-26.1,15.5l26.1,42.6l18.8,15.9l22.4,19l5.2,44.8l14.6,20.7L2342.6,1429.2z"/>
		</g>
	</g>
	<g>
		<g>
			<g>
				<g>
					<path fill="#9F5B26" d="M1201.3,1867.5c-11.5,0-20.9-9.3-20.9-20.9c0-10.8,8.8-31.5,20.9-31.5s20.9,20.8,20.9,31.5
						C1222.1,1858.2,1212.8,1867.5,1201.3,1867.5z M1201.3,1819.4c-8.4,0-16.5,17.2-16.5,27.2c0,9.1,7.4,16.5,16.5,16.5
						s16.5-7.4,16.5-16.5C1217.8,1836.6,1209.7,1819.4,1201.3,1819.4z"/>
				</g>
			</g>
			<g>
				<g>
					<polygon fill="#9F5B26" points="1204.3,1876.5 1200,1876.5 1200,1865.6 1200.1,1832.4 1204.4,1832.4 1204.3,1865.6 					"/>
				</g>
			</g>
			<g>
				<g>
					<polygon fill="#9F5B26" points="1201.2,1852.7 1187.3,1839 1190.4,1835.9 1201.2,1846.6 1211.1,1836.7 1214.1,1839.7 					"/>
				</g>
			</g>
		</g>
		<g>
			<g>
				<g>
					<path fill="#9F5B26" d="M1248.7,1901.1c-11.5,0-20.9-9.3-20.9-20.9c0-11.9,9.8-22.4,21.1-22.4c11.1,0,20.6,10.3,20.6,22.4
						C1269.5,1891.8,1260.1,1901.1,1248.7,1901.1z M1248.9,1862.2c-8.8,0-16.8,8.6-16.8,18.1c0,9.1,7.4,16.5,16.5,16.5
						s16.5-7.4,16.5-16.5C1265.2,1870.7,1257.6,1862.2,1248.9,1862.2z"/>
				</g>
			</g>
			<g>
				<g>
					<polygon fill="#9F5B26" points="1251.7,1915.3 1247.4,1915.3 1247.4,1904.4 1247.5,1871.2 1251.8,1871.2 1251.7,1904.4 					
						"/>
				</g>
			</g>
			<g>
				<g>
					<polygon fill="#9F5B26" points="1248.6,1891.5 1234.7,1877.7 1237.8,1874.6 1248.6,1885.4 1258.5,1875.5 1261.5,1878.5 					
						"/>
				</g>
			</g>
		</g>
		<g>
			<g>
				<g>
					<path fill="#5E3112" d="M1199.6,1864c-11.5,0-20.9-9.3-20.9-20.9c0-10.8,8.8-31.5,20.9-31.5c12.1,0,20.9,20.8,20.9,31.5
						C1220.4,1854.7,1211,1864,1199.6,1864z M1199.6,1816c-8.4,0-16.5,17.2-16.5,27.2c0,9.1,7.4,16.5,16.5,16.5s16.5-7.4,16.5-16.5
						C1216.1,1833.2,1207.9,1816,1199.6,1816z"/>
				</g>
			</g>
			<g>
				<g>
					<polygon fill="#5E3112" points="1201.7,1873.1 1197.4,1873.1 1197.4,1862.1 1197.5,1829 1201.8,1829 1201.7,1862.1 					"/>
				</g>
			</g>
			<g>
				<g>
					<polygon fill="#5E3112" points="1199.5,1849.3 1185.6,1835.5 1188.7,1832.4 1199.5,1843.2 1209.4,1833.3 1212.4,1836.3 					
						"/>
				</g>
			</g>
		</g>
		<g>
			<g>
				<g>
					<path fill="#5E3112" d="M1247,1897.6c-11.5,0-20.9-9.3-20.9-20.9c0-11.9,9.8-22.4,21.1-22.4c11.1,0,20.6,10.3,20.6,22.4
						C1267.8,1888.3,1258.4,1897.6,1247,1897.6z M1247.2,1858.8c-8.8,0-16.8,8.6-16.8,18.1c0,9.1,7.4,16.5,16.5,16.5
						s16.5-7.4,16.5-16.5C1263.5,1867.2,1255.9,1858.8,1247.2,1858.8z"/>
				</g>
			</g>
			<g>
				<g>
					<polygon fill="#5E3112" points="1249.1,1911.9 1244.8,1911.9 1244.8,1900.9 1244.9,1867.7 1249.2,1867.7 1249.1,1900.9 					
						"/>
				</g>
			</g>
			<g>
				<g>
					<polygon fill="#5E3112" points="1246.9,1888.1 1233,1874.3 1236.1,1871.2 1246.9,1882 1256.8,1872 1259.8,1875.1 					"/>
				</g>
			</g>
		</g>
	</g>
	<g>
		<g>
			<g>
				<g>
					<path fill="#9F5B26" d="M2311.9,2241.4c-11.5,0-20.9-9.3-20.9-20.9c0-10.8,8.8-31.5,20.9-31.5c12.1,0,20.9,20.8,20.9,31.5
						C2332.7,2232.1,2323.3,2241.4,2311.9,2241.4z M2311.9,2193.3c-8.4,0-16.5,17.2-16.5,27.2c0,9.1,7.4,16.5,16.5,16.5
						c9.1,0,16.5-7.4,16.5-16.5C2328.4,2210.6,2320.2,2193.3,2311.9,2193.3z"/>
				</g>
			</g>
			<g>
				<g>
					<polygon fill="#9F5B26" points="2313.2,2250.5 2308.9,2250.5 2308.9,2239.5 2308.8,2206.3 2313.1,2206.3 2313.2,2239.5 					
						"/>
				</g>
			</g>
			<g>
				<g>
					<polygon fill="#9F5B26" points="2312,2226.7 2299,2213.7 2302.1,2210.7 2312,2220.6 2322.7,2209.8 2325.8,2212.9 					"/>
				</g>
			</g>
		</g>
		<g>
			<g>
				<g>
					<path fill="#5E3112" d="M2313.6,2238c-11.5,0-20.9-9.3-20.9-20.9c0-10.8,8.8-31.5,20.9-31.5c12.1,0,20.9,20.8,20.9,31.5
						C2334.4,2228.7,2325.1,2238,2313.6,2238z M2313.6,2189.9c-8.4,0-16.5,17.2-16.5,27.2c0,9.1,7.4,16.5,16.5,16.5
						c9.1,0,16.5-7.4,16.5-16.5C2330.1,2207.1,2322,2189.9,2313.6,2189.9z"/>
				</g>
			</g>
			<g>
				<g>
					<polygon fill="#5E3112" points="2315.8,2247 2311.4,2247 2311.4,2236.1 2311.4,2202.9 2315.7,2202.9 2315.8,2236.1 					"/>
				</g>
			</g>
			<g>
				<g>
					<polygon fill="#5E3112" points="2313.7,2223.2 2300.8,2210.2 2303.8,2207.2 2313.7,2217.1 2324.5,2206.3 2327.6,2209.4 					
						"/>
				</g>
			</g>
		</g>
	</g>
	<g>
		<g>
			<g>
				<g>
					<path fill="#9F5B26" d="M2292.1,1758.1c-11.5,0-20.9-9.3-20.9-20.9c0-12.1,9.4-22.4,20.6-22.4c11.2,0,21.1,10.4,21.1,22.4
						C2312.9,1748.8,2303.5,1758.1,2292.1,1758.1z M2291.8,1719.2c-8.6,0-16.3,8.4-16.3,18.1c0,9.1,7.4,16.5,16.5,16.5
						s16.5-7.4,16.5-16.5C2308.6,1727.8,2300.6,1719.2,2291.8,1719.2z"/>
				</g>
			</g>
			<g>
				<g>
					<polygon fill="#9F5B26" points="2293.4,1772.3 2289,1772.3 2289,1761.3 2289,1728.2 2293.3,1728.2 2293.4,1761.3 					"/>
				</g>
			</g>
			<g>
				<g>
					<polygon fill="#9F5B26" points="2292.1,1748.5 2279.2,1735.5 2282.2,1732.5 2292.1,1742.4 2302.9,1731.6 2306,1734.7 					"/>
				</g>
			</g>
		</g>
		<g>
			<g>
				<g>
					<path fill="#5E3112" d="M2293.8,1754.6c-11.5,0-20.9-9.3-20.9-20.9c0-12.1,9.4-22.4,20.6-22.4s21.1,10.4,21.1,22.4
						C2314.6,1745.3,2305.2,1754.6,2293.8,1754.6z M2293.5,1715.8c-8.6,0-16.3,8.4-16.3,18.1c0,9.1,7.4,16.5,16.5,16.5
						s16.5-7.4,16.5-16.5C2310.3,1724.4,2302.3,1715.8,2293.5,1715.8z"/>
				</g>
			</g>
			<g>
				<g>
					<polygon fill="#5E3112" points="2295.9,1768.8 2291.6,1768.8 2291.6,1757.9 2291.5,1724.7 2295.9,1724.7 2295.9,1757.9 					
						"/>
				</g>
			</g>
			<g>
				<g>
					<polygon fill="#5E3112" points="2293.9,1745.1 2280.9,1732 2284,1729 2293.9,1738.9 2304.6,1728.2 2307.7,1731.3 					"/>
				</g>
			</g>
		</g>
	</g>
</g>
<g>
	<g>
		<g>
			<g>
				<g>
					<path fill="#9F5B26" d="M1314.7,497.2h-2.6l-4.1-7.2h-0.1c0.1,1.3,0.1,2.2,0.1,2.8v4.5h-1.8v-9.6h2.6l4.1,7.2h0.1
						c-0.1-1.2-0.1-2.2-0.1-2.6v-4.5h1.8V497.2z"/>
				</g>
			</g>
			<g>
				<g>
					<path fill="#9F5B26" d="M1311.8,659.2c0,0.9-0.3,1.6-0.9,2.1c-0.6,0.5-1.5,0.8-2.6,0.8c-1,0-1.9-0.2-2.7-0.6v-1.9
						c0.6,0.3,1.2,0.5,1.6,0.6s0.9,0.2,1.2,0.2c0.4,0,0.8-0.1,1-0.3c0.3-0.2,0.3-0.4,0.3-0.8c0-0.2-0.1-0.3-0.2-0.5
						c-0.1-0.2-0.3-0.3-0.4-0.4c-0.2-0.2-0.6-0.3-1.2-0.6c-0.6-0.3-1-0.5-1.3-0.8c-0.3-0.3-0.5-0.5-0.7-0.9
						c-0.2-0.3-0.3-0.7-0.3-1.2c0-0.9,0.3-1.5,0.9-2c0.6-0.5,1.4-0.7,2.3-0.7c0.5,0,0.9,0.1,1.4,0.2c0.4,0.1,0.9,0.3,1.4,0.5
						l-0.7,1.6c-0.5-0.2-0.9-0.3-1.3-0.4s-0.7-0.1-0.9-0.1c-0.3,0-0.7,0.1-0.9,0.3c-0.2,0.2-0.3,0.4-0.3,0.7c0,0.2,0,0.3,0.1,0.4
						c0.1,0.2,0.2,0.3,0.4,0.3c0.2,0.1,0.6,0.3,1.3,0.7c0.9,0.4,1.5,0.9,1.8,1.3C1311.7,658.1,1311.8,658.6,1311.8,659.2z"/>
				</g>
			</g>
			<g>
				<g>
					<path fill="#9F5B26" d="M1393.6,579.9h-5.5v-9.6h5.5v1.6h-3.4v2.1h3.2v1.6h-3.2v2.5h3.4V579.9z"/>
				</g>
			</g>
			<g>
				<g>
					<path fill="#9F5B26" d="M1229.7,570.4h2.1l-3.3,9.6h-2.2l-3.2-9.6h2.1l1.8,5.7c0.1,0.3,0.2,0.7,0.3,1.2
						c0.1,0.4,0.2,0.8,0.2,0.9c0.1-0.4,0.2-1.1,0.5-2.1L1229.7,570.4z"/>
				</g>
			</g>
			<g>
				<g>
					<path fill="#9F5B26" d="M1384.7,576.4l-65.7-6.2l15.9-19.7l-18.6,15.6l-6.1-64.5v-0.3l-5.9,65.5l-19.8-16.1l16.3,19.5
						l-64.8,6.3h-0.8l65.6,5.9l-16.1,19.7l19.5-16.5l6,64.8v0.2l6.1-65.5L1336,601l-15.8-18.6l64.2-6H1384.7z M1307,578l-3.6,3.7
						l-49.4-4.5h53.7L1307,578z M1309.4,574l-4.6-4.6l4.6-49.4V574z M1311.1,631.8v-53.9l4.6,4.6L1311.1,631.8z M1312,575.5l4.6-4.6
						l49.4,4.6H1312z"/>
				</g>
			</g>
		</g>
		<g>
			<g>
				<g>
					<path fill="#5E3112" d="M1315.5,493.3h-2.6l-4.1-7.2h-0.1c0.1,1.3,0.1,2.2,0.1,2.8v4.5h-1.8v-9.6h2.6l4.1,7.2h0.1
						c-0.1-1.2-0.1-2.2-0.1-2.6v-4.5h1.8V493.3z"/>
				</g>
			</g>
			<g>
				<g>
					<path fill="#5E3112" d="M1312.6,655.2c0,0.9-0.3,1.6-0.9,2.1c-0.6,0.5-1.5,0.8-2.6,0.8c-1,0-1.9-0.2-2.7-0.6v-1.9
						c0.6,0.3,1.2,0.5,1.6,0.6c0.4,0.1,0.9,0.2,1.2,0.2c0.4,0,0.8-0.1,1-0.3c0.3-0.2,0.3-0.4,0.3-0.8c0-0.2-0.1-0.3-0.2-0.5
						c-0.1-0.2-0.3-0.3-0.4-0.4c-0.2-0.2-0.6-0.3-1.2-0.6s-1-0.5-1.3-0.8c-0.3-0.3-0.5-0.5-0.7-0.9c-0.2-0.3-0.3-0.7-0.3-1.2
						c0-0.9,0.3-1.5,0.9-2c0.6-0.5,1.4-0.7,2.3-0.7c0.5,0,0.9,0.1,1.4,0.2s0.9,0.3,1.4,0.5l-0.7,1.6c-0.5-0.2-0.9-0.3-1.3-0.4
						c-0.3-0.1-0.7-0.1-0.9-0.1c-0.3,0-0.7,0.1-0.9,0.3c-0.2,0.2-0.3,0.4-0.3,0.7c0,0.2,0,0.3,0.1,0.4c0.1,0.2,0.2,0.3,0.4,0.3
						c0.2,0.1,0.6,0.3,1.3,0.7c0.9,0.4,1.5,0.9,1.8,1.3C1312.4,654.1,1312.6,654.6,1312.6,655.2z"/>
				</g>
			</g>
			<g>
				<g>
					<path fill="#5E3112" d="M1394.4,576h-5.5v-9.6h5.5v1.6h-3.4v2.1h3.2v1.6h-3.2v2.5h3.4V576z"/>
				</g>
			</g>
			<g>
				<g>
					<path fill="#5E3112" d="M1230.5,566.4h2.1l-3.3,9.6h-2.2l-3.3-9.6h2.1l1.8,5.7c0.1,0.3,0.2,0.7,0.3,1.2
						c0.1,0.4,0.2,0.8,0.2,0.9c0.1-0.4,0.2-1.1,0.5-2.1L1230.5,566.4z"/>
				</g>
			</g>
			<g>
				<g>
					<path fill="#5E3112" d="M1385.5,572.1l-65.7-6l15.9-19.6l-18.5,15.6l-6.1-64.5v-0.3l-6,65.5l-19.8-16.1l16.3,19.3l-64.9,6h-0.8
						l65.6,6.1l-16.1,19.8l19.6-16.5l6.1,64.8v0.2l6-65.5l19.6,15.9L1321,578l64.2-6.1h0.3V572.1z M1307.8,573.9l-3.6,3.6l-49.4-4.6
						h53.7L1307.8,573.9z M1310.3,570l-4.6-4.6l4.6-49.4V570z M1312,627.8v-53.9l4.6,4.6L1312,627.8z M1312.8,571.2l4.6-4.6
						l49.4,4.6H1312.8z"/>
				</g>
			</g>
		</g>
	</g>
	<g>
		<g>
			<g>
				<g>
					<path fill="#9F5B26" d="M1579.5,526.9c-11.5,0-20.9-9.3-20.9-20.9c0-10.8,8.8-31.5,20.9-31.5c12.1,0,20.9,20.8,20.9,31.5
						C1600.4,517.6,1591,526.9,1579.5,526.9z M1579.5,478.8c-8.4,0-16.5,17.2-16.5,27.2c0,9.1,7.4,16.5,16.5,16.5
						s16.5-7.4,16.5-16.5C1596.1,496,1587.9,478.8,1579.5,478.8z"/>
				</g>
				<g>
					<polygon fill="#9F5B26" points="1581.7,535.9 1577.4,535.9 1577.4,525 1577.3,491.7 1581.6,491.7 1581.7,525 					"/>
				</g>
				<g>
					<polygon fill="#9F5B26" points="1579.6,512.1 1566.7,499.1 1569.7,496.1 1579.6,506 1590.4,495.2 1593.5,498.3 					"/>
				</g>
			</g>
			<g>
				<g>
					<path fill="#9F5B26" d="M1525.2,559.6c-11.5,0-20.9-9.3-20.9-20.9c0-10.8,8.8-31.5,20.9-31.5c12.1,0,20.9,20.8,20.9,31.5
						C1546.1,550.3,1536.7,559.6,1525.2,559.6z M1525.2,511.5c-8.4,0-16.5,17.2-16.5,27.2c0,9.1,7.4,16.5,16.5,16.5
						s16.5-7.4,16.5-16.5C1541.8,528.8,1533.6,511.5,1525.2,511.5z"/>
				</g>
				<g>
					<polygon fill="#9F5B26" points="1527.4,568.6 1523.1,568.6 1523.1,557.7 1523,524.4 1527.3,524.4 1527.4,557.7 					"/>
				</g>
				<g>
					<polygon fill="#9F5B26" points="1525.3,544.9 1512.4,531.9 1515.4,528.8 1525.3,538.7 1536.1,528 1539.2,531.1 					"/>
				</g>
			</g>
			<g>
				<g>
					<path fill="#9F5B26" d="M1621.7,551.8c-11.5,0-20.9-9.3-20.9-20.9c0-12.1,9.4-22.4,20.6-22.4s21.1,10.4,21.1,22.4
						C1642.6,542.5,1633.2,551.8,1621.7,551.8z M1621.5,513c-8.6,0-16.3,8.4-16.3,18.1c0,9.1,7.4,16.5,16.5,16.5
						c9.1,0,16.5-7.4,16.5-16.5C1638.3,521.6,1630.3,513,1621.5,513z"/>
				</g>
				<g>
					<polygon fill="#9F5B26" points="1623.9,566.1 1619.6,566.1 1619.6,555.1 1619.5,521.9 1623.8,521.9 1623.9,555.1 					"/>
				</g>
				<g>
					<polygon fill="#9F5B26" points="1621.8,542.3 1608.9,529.3 1611.9,526.3 1621.8,536.2 1632.6,525.4 1635.7,528.5 					"/>
				</g>
			</g>
		</g>
		<g>
			<g>
				<g>
					<path fill="#5E3112" d="M1582.1,523.4c-11.5,0-20.9-9.3-20.9-20.9c0-10.8,8.8-31.5,20.9-31.5s20.9,20.8,20.9,31.5
						C1603,514.1,1593.6,523.4,1582.1,523.4z M1582.1,475.3c-8.4,0-16.5,17.2-16.5,27.2c0,9.1,7.4,16.5,16.5,16.5
						s16.5-7.4,16.5-16.5C1598.7,492.6,1590.5,475.3,1582.1,475.3z"/>
				</g>
				<g>
					<polygon fill="#5E3112" points="1584.3,532.5 1580,532.5 1580,521.5 1579.9,488.3 1584.2,488.3 1584.3,521.5 					"/>
				</g>
				<g>
					<polygon fill="#5E3112" points="1582.2,508.7 1569.3,495.7 1572.3,492.7 1582.2,502.6 1593,491.8 1596.1,494.9 					"/>
				</g>
			</g>
			<g>
				<g>
					<path fill="#5E3112" d="M1527.8,556.2c-11.5,0-20.9-9.3-20.9-20.9c0-10.8,8.8-31.5,20.9-31.5s20.9,20.8,20.9,31.5
						C1548.7,546.8,1539.3,556.2,1527.8,556.2z M1527.8,508.1c-8.4,0-16.5,17.2-16.5,27.2c0,9.1,7.4,16.5,16.5,16.5
						s16.5-7.4,16.5-16.5C1544.4,525.3,1536.2,508.1,1527.8,508.1z"/>
				</g>
				<g>
					<polygon fill="#5E3112" points="1530,565.2 1525.7,565.2 1525.7,554.3 1525.6,521 1529.9,521 1530,554.3 					"/>
				</g>
				<g>
					<polygon fill="#5E3112" points="1527.9,541.4 1515,528.4 1518,525.4 1527.9,535.3 1538.7,524.5 1541.8,527.6 					"/>
				</g>
			</g>
			<g>
				<g>
					<path fill="#5E3112" d="M1624.3,548.4c-11.5,0-20.9-9.3-20.9-20.9c0-12.1,9.4-22.4,20.6-22.4c11.2,0,21.1,10.4,21.1,22.4
						C1645.2,539.1,1635.8,548.4,1624.3,548.4z M1624.1,509.5c-8.6,0-16.3,8.4-16.3,18.1c0,9.1,7.4,16.5,16.5,16.5
						s16.5-7.4,16.5-16.5C1640.9,518.2,1632.9,509.5,1624.1,509.5z"/>
				</g>
				<g>
					<polygon fill="#5E3112" points="1626.5,562.6 1622.2,562.6 1622.2,551.7 1622.1,518.4 1626.4,518.4 1626.5,551.7 					"/>
				</g>
				<g>
					<polygon fill="#5E3112" points="1624.4,538.8 1611.5,525.8 1614.5,522.8 1624.4,532.7 1635.2,521.9 1638.3,525 					"/>
				</g>
			</g>
		</g>
	</g>
	<g>
		<g>
			<g>
				<path fill="#9F5B26" d="M1290.9,734.5c-11.5,0-20.9-9.3-20.9-20.9c0-10.8,8.8-31.5,20.9-31.5s20.9,20.8,20.9,31.5
					C1311.7,725.2,1302.4,734.5,1290.9,734.5z M1290.9,686.4c-8.4,0-16.5,17.2-16.5,27.2c0,9.1,7.4,16.5,16.5,16.5
					s16.5-7.4,16.5-16.5C1307.4,703.7,1299.3,686.4,1290.9,686.4z"/>
			</g>
			<g>
				<polygon fill="#9F5B26" points="1292.2,743.5 1287.9,743.5 1287.9,732.6 1287.8,699.3 1292.1,699.3 1292.2,732.6 				"/>
			</g>
			<g>
				<polygon fill="#9F5B26" points="1291,719.8 1278.1,706.8 1281.1,703.7 1291,713.6 1301.8,702.9 1304.9,706 				"/>
			</g>
		</g>
		<g>
			<g>
				<path fill="#9F5B26" d="M1243.5,768.1c-11.5,0-20.9-9.3-20.9-20.9c0-12.1,9.4-22.4,20.6-22.4s21.1,10.4,21.1,22.4
					C1264.4,758.8,1255,768.1,1243.5,768.1z M1243.3,729.2c-8.6,0-16.3,8.4-16.3,18.1c0,9.1,7.4,16.5,16.5,16.5
					c9.1,0,16.5-7.4,16.5-16.5C1260.1,737.9,1252,729.2,1243.3,729.2z"/>
			</g>
			<g>
				<polygon fill="#9F5B26" points="1244.8,782.3 1240.5,782.3 1240.5,771.4 1240.4,738.1 1244.7,738.1 1244.8,771.4 				"/>
			</g>
			<g>
				<polygon fill="#9F5B26" points="1243.6,758.5 1230.7,745.5 1233.7,742.5 1243.6,752.4 1254.4,741.7 1257.5,744.8 				"/>
			</g>
		</g>
		<g>
			<g>
				<path fill="#5E3112" d="M1292.6,731.1c-11.5,0-20.9-9.3-20.9-20.9c0-10.8,8.8-31.5,20.9-31.5s20.9,20.8,20.9,31.5
					C1313.5,721.7,1304.1,731.1,1292.6,731.1z M1292.6,683c-8.4,0-16.5,17.2-16.5,27.2c0,9.1,7.4,16.5,16.5,16.5s16.5-7.4,16.5-16.5
					C1309.2,700.2,1301,683,1292.6,683z"/>
			</g>
			<g>
				<polygon fill="#5E3112" points="1294.8,740.1 1290.5,740.1 1290.5,729.2 1290.4,695.9 1294.7,695.9 1294.8,729.2 				"/>
			</g>
			<g>
				<polygon fill="#5E3112" points="1292.7,716.3 1279.8,703.3 1282.8,700.3 1292.7,710.2 1303.5,699.4 1306.6,702.5 				"/>
			</g>
		</g>
		<g>
			<g>
				<path fill="#5E3112" d="M1245.2,764.7c-11.5,0-20.9-9.3-20.9-20.9c0-12.1,9.4-22.4,20.6-22.4c11.2,0,21.1,10.4,21.1,22.4
					C1266.1,755.4,1256.7,764.7,1245.2,764.7z M1245,725.8c-8.6,0-16.3,8.4-16.3,18.1c0,9.1,7.4,16.5,16.5,16.5s16.5-7.4,16.5-16.5
					C1261.8,734.4,1253.8,725.8,1245,725.8z"/>
			</g>
			<g>
				<polygon fill="#5E3112" points="1247.4,778.9 1243.1,778.9 1243.1,767.9 1243,734.7 1247.3,734.7 1247.4,767.9 				"/>
			</g>
			<g>
				<polygon fill="#5E3112" points="1245.3,755.1 1232.4,742.1 1235.4,739.1 1245.3,749 1256.1,738.2 1259.2,741.3 				"/>
			</g>
		</g>
	</g>
	<g>
		<g>
			<path fill="#9F5B26" d="M1822.1,121.1c-11.5,0-20.9-9.3-20.9-20.9c0-12.1,9.4-22.4,20.6-22.4s21.1,10.4,21.1,22.4
				C1842.8,111.7,1833.5,121.1,1822.1,121.1z M1821.8,82.2c-8.6,0-16.3,8.4-16.3,18.1c0,9.1,7.4,16.5,16.5,16.5
				c9.1,0,16.5-7.4,16.5-16.5C1838.5,90.8,1830.6,82.2,1821.8,82.2z"/>
		</g>
		<g>
			<polygon fill="#9F5B26" points="1823.8,135.3 1819.5,135.3 1819.5,124.4 1819.4,91.2 1823.7,91.1 1823.8,124.4 			"/>
		</g>
		<g>
			<polygon fill="#9F5B26" points="1822.2,111.5 1809.1,98.5 1812.2,95.5 1822.2,105.5 1832.9,94.7 1835.9,97.7 			"/>
		</g>
	</g>
	<g>
		<g>
			<path fill="#9F5B26" d="M1859,151.3c-11.5,0-20.9-9.3-20.9-20.9c0-10.8,8.8-31.5,20.9-31.5s20.9,20.8,20.9,31.5
				C1879.8,142,1870.5,151.3,1859,151.3z M1859,103.2c-8.4,0-16.5,17.2-16.5,27.2c0,9.1,7.4,16.5,16.5,16.5s16.5-7.4,16.5-16.5
				C1875.5,120.4,1867.4,103.2,1859,103.2z"/>
		</g>
		<g>
			<polygon fill="#9F5B26" points="1860.8,160.3 1856.5,160.3 1856.5,149.4 1856.4,116.1 1860.8,116.1 1860.8,149.4 			"/>
		</g>
		<g>
			<polygon fill="#9F5B26" points="1859.1,136.5 1846.1,123.6 1849.2,120.4 1859.1,130.4 1869.9,119.7 1872.9,122.7 			"/>
		</g>
	</g>
	<g>
		<g>
			<path fill="#5E3112" d="M1823.8,116.8c-11.5,0-20.9-9.3-20.9-20.9c0-12.1,9.4-22.4,20.6-22.4c11.2,0,21.1,10.4,21.1,22.4
				C1844.6,107.4,1835.2,116.8,1823.8,116.8z M1823.5,77.9c-8.6,0-16.3,8.4-16.3,18.1c0,9.1,7.4,16.5,16.5,16.5
				c9.1,0,16.5-7.4,16.5-16.5C1840.2,86.5,1832.3,77.9,1823.5,77.9z"/>
		</g>
		<g>
			<polygon fill="#5E3112" points="1825.5,131 1821.2,131 1821.2,120.1 1821.1,86.8 1825.4,86.8 1825.5,120.1 			"/>
		</g>
		<g>
			<polygon fill="#5E3112" points="1823.9,107.2 1810.9,94.2 1814,91.2 1823.9,101.1 1834.6,90.4 1837.7,93.4 			"/>
		</g>
	</g>
	<g>
		<g>
			<path fill="#5E3112" d="M1860.8,147c-11.5,0-20.9-9.3-20.9-20.9c0-10.8,8.8-31.5,20.9-31.5c12.1,0,20.9,20.8,20.9,31.5
				C1881.5,137.7,1872.2,147,1860.8,147z M1860.8,98.9c-8.4,0-16.5,17.2-16.5,27.2c0,9.1,7.4,16.5,16.5,16.5s16.5-7.4,16.5-16.5
				C1877.2,116.1,1869.1,98.9,1860.8,98.9z"/>
		</g>
		<g>
			<polygon fill="#5E3112" points="1862.6,155.9 1858.3,155.9 1858.3,145.1 1858.2,111.8 1862.5,111.8 1862.6,145.1 			"/>
		</g>
		<g>
			<polygon fill="#5E3112" points="1860.8,132.2 1847.8,119.2 1850.9,116.1 1860.8,126.1 1871.6,115.4 1874.6,118.4 			"/>
		</g>
	</g>
</g>
<g>
	<g>
		<g>
			<g>
				<g>
					<path fill="#5E3112" d="M2330.9,2660.6l-34.7-23.9l-22-15.7l-42.5,6.7l-33.5-19.7l-4.9,12.1c0,0-19.9,49.4-26.7,52.6
						c-6.8,3.2-23.2,25.7-25.8,30.2s-17.1,29-17.1,29l-3.6,51.3l8.8,18.8l0.3,28.5l-25.4,4.2l4.4,25.5l51.9,4.1l28.7,20.2l25.2,29.1
						c0,0,37.7-0.4,41.6,0c3.9,0.4,12.1-32.1,11.8-35.6c-0.3-3.5-3.9-32.7-1.7-44.6c2.2-11.9,0.8-16.4,0.8-16.4l40.9-24.9l9.3-63.8
						l26.3-29.8L2330.9,2660.6z"/>
				</g>
				<g>
					<path fill="#5E3112" d="M2152.4,2901c-3.4-4.3-27,0-27,0l-15.5,16.4l-23,5.9l6.5,21.6c0,0,25.1-1.1,27.4-0.5
						c2.3,0.6,10.3,13.8,10.9,11.5c0.6-2.3,17.2-9.7,21.3-9.7c4,0,22.4-6.3,22.4-6.3l-5.2-26
						C2170.1,2913.8,2155.8,2905.3,2152.4,2901z"/>
				</g>
				<g>
					<path fill="#5E3112" d="M2201.5,2967c-1.7-0.1-6.9,6-9.5,10.9l-0.3-0.4l-1.2,0.3l-0.1,4.3l11,11.8l5.4-11.8l16.4-4.3l-4.6-10.8
						C2218.7,2967,2203.8,2967.1,2201.5,2967z"/>
				</g>
			</g>
			<g>
				<g>
					<path fill="#9F5B26" d="M2330.9,2656.3l-34.7-23.9l-22-15.7l-42.5,6.7l-33.5-19.7l-4.9,12.1c0,0-19.9,49.4-26.7,52.6
						c-6.8,3.2-23.2,25.7-25.8,30.2c-2.7,4.6-17.1,29-17.1,29l-3.6,51.3l8.8,18.8l0.3,28.5l-25.4,8.5l7.6,22.8l48.7,2.5l28.7,20.2
						l25.2,29.1c0,0,37.7-0.4,41.6,0c3.9,0.4,12.1-32.1,11.8-35.6c-0.3-3.5-3.9-32.7-1.7-44.6c2.2-11.9,0.8-16.4,0.8-16.4l40.9-24.9
						l9.3-63.8l26.3-29.8L2330.9,2656.3z"/>
				</g>
				<g>
					<path fill="#9F5B26" d="M2152.4,2896.7c-3.4-4.3-27,0-27,0l-15.5,16.4l-23,10.3l7.5,16.2c0,0,24.1,0,26.5,0.6
						s10.3,13.8,10.9,11.5c0.6-2.3,17.2-9.7,21.3-9.7c4,0,22.4-6.3,22.4-6.3l-5.2-26C2170.1,2909.5,2155.8,2901,2152.4,2896.7z"/>
				</g>
				<g>
					<path fill="#9F5B26" d="M2201.7,2958.2c-3.4,3.7-5.7,6.5-7.3,9.1h-1.5l-2.2,3.5v5.6c0,0.4-0.2,0.9-0.3,1.3l10.9,16l5.4-16.1
						h16.4l-4.6-15.1C2218.7,2962.6,2203.2,2956.4,2201.7,2958.2z"/>
				</g>
			</g>
			<g>
				<g>
					<path fill="#CDA34F" d="M2231.7,2616.5l42.5-6.7l22,15.7l34.7,23.9l11.7,38.1l-26.3,29.8l-9.3,63.8L2266,2806
						c0,0,1.4,4.4-0.8,16.4c-2.2,11.9,1.5,41.1,1.7,44.6c0.3,3.5-7.8,36-11.8,35.6c-3.9-0.4-41.6,0-41.6,0l-25.2-29.1l-28.7-20.2
						l-48.7-2.5l-7.6-15.9l25.4-15.4l-0.3-28.5l-8.8-18.8l3.6-51.3c0,0,14.5-24.4,17.1-29c2.7-4.6,19-27.1,25.8-30.2
						c6.8-3.2,26.7-52.6,26.7-52.6l4.9-12.1L2231.7,2616.5z"/>
				</g>
				<g>
					<path fill="#CDA34F" d="M2109.8,2906.2l15.5-16.4c0,0,23.5-4.3,27,0s17.8,12.8,17.8,12.8l5.2,26c0,0-18.4,6.3-22.4,6.3
						s-20.7,7.5-21.3,9.7c-0.6,2.3-8.6-10.9-10.9-11.5c-2.3-0.6-26.5-0.6-26.5-0.6l-7.5-9.3L2109.8,2906.2z"/>
				</g>
				<g>
					<path fill="#CDA34F" d="M2190.5,2970.8c0.2-4,8.7-15.3,11-15.1c2.3,0.2,17.2,0,17.2,0l4.6,22l-16.4-6.9l-5.4,23L2190.5,2970.8z
						"/>
				</g>
			</g>
		</g>
		<g>
			<g>
				<g>
					<g>
						<g>
							<g>
								<path fill="#9F5B26" d="M2217.8,2806.6c-11.5,0-20.9-9.3-20.9-20.9c0-10.8,8.8-31.5,20.9-31.5c12.1,0,20.9,20.8,20.9,31.5
									C2238.6,2797.3,2229.2,2806.6,2217.8,2806.6z M2217.8,2758.5c-8.4,0-16.5,17.2-16.5,27.2c0,9.1,7.4,16.5,16.5,16.5
									c9.1,0,16.5-7.4,16.5-16.5C2234.2,2775.8,2226.1,2758.5,2217.8,2758.5z"/>
							</g>
						</g>
					</g>
					<g>
						<g>
							<g>
								<polygon fill="#9F5B26" points="2220.1,2815.7 2215.8,2815.7 2215.8,2804.7 2215.6,2771.5 2219.9,2771.5 2220.1,2804.7 
																	"/>
							</g>
						</g>
					</g>
					<g>
						<g>
							<g>
								<polygon fill="#9F5B26" points="2217.9,2791.9 2204.9,2778.9 2208,2775.9 2217.9,2785.8 2228.6,2775 2231.7,2778.1 								
									"/>
							</g>
						</g>
					</g>
				</g>
				<g>
					<g>
						<g>
							<path fill="#5E3112" d="M2220.4,2803.2c-11.5,0-20.9-9.3-20.9-20.9c0-10.8,8.8-31.5,20.9-31.5c12.1,0,20.9,20.8,20.9,31.5
								C2241.1,2793.9,2231.8,2803.2,2220.4,2803.2z M2220.4,2755.1c-8.4,0-16.5,17.2-16.5,27.2c0,9.1,7.4,16.5,16.5,16.5
								c9.1,0,16.5-7.4,16.5-16.5C2236.8,2772.3,2228.7,2755.1,2220.4,2755.1z"/>
						</g>
					</g>
					<g>
						<g>
							<polygon fill="#5E3112" points="2222.7,2812.2 2218.4,2812.2 2218.4,2801.3 2218.1,2768.1 2222.5,2768.1 2222.7,2801.3 
															"/>
						</g>
					</g>
					<g>
						<g>
							<polygon fill="#5E3112" points="2220.5,2788.4 2207.5,2775.4 2210.6,2772.4 2220.5,2782.3 2231.2,2771.5 2234.2,2774.6 
															"/>
						</g>
					</g>
				</g>
			</g>
			<g>
				<g>
					<g>
						<g>
							<g>
								<path fill="#9F5B26" d="M2261.7,2739.4c-11.5,0-20.9-9.3-20.9-20.9c0-10.8,8.8-31.5,20.9-31.5s20.9,20.8,20.9,31.5
									C2282.5,2730.1,2273.2,2739.4,2261.7,2739.4z M2261.7,2691.3c-8.4,0-16.5,17.2-16.5,27.2c0,9.1,7.4,16.5,16.5,16.5
									s16.5-7.4,16.5-16.5C2278.2,2708.6,2270.1,2691.3,2261.7,2691.3z"/>
							</g>
						</g>
					</g>
					<g>
						<g>
							<g>
								<polygon fill="#9F5B26" points="2264.1,2748.5 2259.7,2748.5 2259.7,2737.5 2259.5,2704.3 2263.9,2704.3 2264.1,2737.5 
																	"/>
							</g>
						</g>
					</g>
					<g>
						<g>
							<g>
								<polygon fill="#9F5B26" points="2261.8,2724.7 2248.8,2711.7 2251.9,2708.6 2261.8,2718.6 2272.6,2707.8 2275.6,2710.9 
																	"/>
							</g>
						</g>
					</g>
				</g>
				<g>
					<g>
						<g>
							<path fill="#5E3112" d="M2264.3,2736c-11.5,0-20.9-9.3-20.9-20.9c0-10.8,8.8-31.5,20.9-31.5s20.9,20.8,20.9,31.5
								C2285.1,2726.7,2275.8,2736,2264.3,2736z M2264.3,2687.9c-8.4,0-16.5,17.2-16.5,27.2c0,9.1,7.4,16.5,16.5,16.5
								s16.5-7.4,16.5-16.5C2280.8,2705.1,2272.7,2687.9,2264.3,2687.9z"/>
						</g>
					</g>
					<g>
						<g>
							<polygon fill="#5E3112" points="2266.6,2745 2262.3,2745 2262.3,2734.1 2262.1,2700.9 2266.5,2700.9 2266.6,2734.1 							
								"/>
						</g>
					</g>
					<g>
						<g>
							<polygon fill="#5E3112" points="2264.4,2721.2 2251.4,2708.2 2254.5,2705.2 2264.4,2715.1 2275.2,2704.3 2278.2,2707.4 
															"/>
						</g>
					</g>
				</g>
			</g>
		</g>
	</g>
	<g>
		<g>
			<g>
				<path fill="#5E3112" d="M1371.4,2834.5l-73.9-9.8l-41-24.1l-46.5,33.9l-31,36.7c0,0,29.3,13.8,31,16.3s7.8,20.8,11.2,22.5
					s45.7,6,51.7,6.9s33.6-6.9,33.6-6.9l25.8-10.3c0,0,35.3-31,39.1-36.2C1375.2,2858.3,1371.4,2834.5,1371.4,2834.5z"/>
			</g>
			<g>
				<path fill="#5E3112" d="M1199.6,2788.3c5.2,0.6,10.3,0,10.3,0l3.7-17.8l7.1-13.5v-4.6c0,0-1.1,2-2,3.4l-19.8-12.4
					c0,0-14.7,15.8-19.9,22.7l14.6,10.9C1193.5,2777.1,1194.4,2787.7,1199.6,2788.3z"/>
			</g>
		</g>
		<g>
			<g>
				<path fill="#9F5B26" d="M1371.4,2830.2l-73.9-9.8l-41-24.1l-46.5,33.9l-31,41c0,0,29.3,9.5,31,12c1.7,2.5,7.8,20.8,11.2,22.5
					s45.7,6,51.7,6.9s33.6-6.9,33.6-6.9l25.8-10.3c0,0,35.3-31,39.1-36.2C1375.2,2854,1371.4,2830.2,1371.4,2830.2z"/>
			</g>
			<g>
				<path fill="#9F5B26" d="M1199.6,2783.9c5.2,0.6,10.3,0,10.3,0l3.7-17.8l7.1-13.5v-5.4l-4,3.1l-17.9-11.2c0,0-14.7,20.1-19.9,27
					l14.6,6.6C1193.5,2772.7,1194.4,2783.3,1199.6,2783.9z"/>
			</g>
		</g>
		<g>
			<g>
				<path fill="#CDA34F" d="M1209.9,2825l46.5-33.9l41,24.1l73.9,9.8c0,0,3.8,23.8,0,28.9s-39.1,36.2-39.1,36.2l-25.8,10.3
					c0,0-27.6,7.8-33.6,6.9s-48.2-5.2-51.7-6.9c-3.4-1.7-9.5-20-11.2-22.5c-1.7-2.5-31-6.8-31-6.8L1209.9,2825z"/>
			</g>
			<g>
				<path fill="#CDA34F" d="M1178.9,2766.1c5.2-6.9,19.8-32.1,19.8-32.1l21.5,13.5l-6.9,13.5l-3.4,17.8c0,0-5.2,0.6-10.3,0
					c-5.2-0.6-6-11.2-6-11.2L1178.9,2766.1z"/>
			</g>
		</g>
	</g>
	<g>
		<g>
			<g>
				<g>
					<g>
						<path fill="#9F5B26" d="M1277.8,2869c-11.5,0-20.9-9.3-20.9-20.9c0-12.1,9.4-22.4,20.6-22.4c11.2,0,21.1,10.4,21.1,22.4
							C1298.7,2859.7,1289.3,2869,1277.8,2869z M1277.5,2830.1c-8.6,0-16.3,8.4-16.3,18.1c0,9.1,7.4,16.5,16.5,16.5
							s16.5-7.4,16.5-16.5C1294.3,2838.7,1286.3,2830.1,1277.5,2830.1z"/>
					</g>
				</g>
			</g>
			<g>
				<g>
					<g>
						<polygon fill="#9F5B26" points="1280.1,2882.9 1275.8,2882.9 1275.8,2872.3 1275.6,2839.1 1280,2839.1 1280.1,2872.3 						
							"/>
					</g>
				</g>
			</g>
			<g>
				<g>
					<g>
						<polygon fill="#9F5B26" points="1278,2859.4 1265,2846.4 1268,2843.4 1278,2853.3 1288.7,2842.5 1291.8,2845.6 						"/>
					</g>
				</g>
			</g>
		</g>
		<g>
			<g>
				<g>
					<g>
						<path fill="#5E3112" d="M1280.4,2865.5c-11.5,0-20.9-9.3-20.9-20.9c0-12.1,9.4-22.4,20.6-22.4c11.2,0,21.1,10.4,21.1,22.4
							C1301.2,2856.2,1291.9,2865.5,1280.4,2865.5z M1280.1,2826.7c-8.6,0-16.3,8.4-16.3,18.1c0,9.1,7.4,16.5,16.5,16.5
							s16.5-7.4,16.5-16.5C1296.9,2835.3,1288.9,2826.7,1280.1,2826.7z"/>
					</g>
				</g>
			</g>
			<g>
				<g>
					<g>
						<polygon fill="#5E3112" points="1282.7,2879.4 1278.4,2879.4 1278.4,2868.8 1278.2,2835.6 1282.5,2835.6 1282.7,2868.8 						
							"/>
					</g>
				</g>
			</g>
			<g>
				<g>
					<g>
						<polygon fill="#5E3112" points="1280.6,2856 1267.5,2843 1270.6,2840 1280.6,2849.9 1291.3,2839.1 1294.3,2842.2 						"/>
					</g>
				</g>
			</g>
		</g>
	</g>
</g>
</svg>
