<?xml version="1.0" encoding="utf-8"?>
<!-- Generator: Adobe Illustrator 18.0.0, SVG Export Plug-In . SVG Version: 6.00 Build 0)  -->
<!DOCTYPE svg PUBLIC "-//W3C//DTD SVG 1.1//EN" "http://www.w3.org/Graphics/SVG/1.1/DTD/svg11.dtd">
<svg version="1.1" id="Layer_1" xmlns="http://www.w3.org/2000/svg" xmlns:xlink="http://www.w3.org/1999/xlink" x="0px" y="0px"
	 viewBox="0 0 601.5 571.5" enable-background="new 0 0 601.5 571.5" xml:space="preserve">
<g>
	<g>
		<g>
			<g>
				<path fill="#5E3112" d="M69.9,16.9l2,4.7l2.2-4.7h5.3l3.3,4.3l7.8-2.5l6.2,0.3c0.4,2,6.6,5,6.6,5s5.9,3.9,5.9,5.1
					c0,1.2-2,6.6,0,6.8s7.7,5.3,8.9,5.7s9.3,4.3,9.3,4.3v8.4c0,0,2.6,4.1,2.6,5.3s0.4,5.7,0,9.2s0.2,23.2,0.2,23.2h-8l-0.8,9.3
					l-3.9,2.7h-4.7l-5.9,5.8c0,0-7.4,3.8-6.8,5s0,5.4,0,5.4l-12.3-6.3c0,0-0.4-5.9-1.6-5.9s-5.5-5.9-5.5-5.9l-8.7,10.1l-5.8,13.1
					l-9.8,4.6h-10l-6.4-3.1l3.5-2.6l-6.2-9.7l-8.6-1.5l-5.1-1.2l-2.4-5.1v-7.4l-4-9l-2.9-7.4l2.7-39.4l4.3,0.4L20.3,33l1.2-6.6
					l5.9-6.2l5.9-1.5l4.7-1.7h8.8l10.7,4.3l10.2-4.3H69.9z"/>
			</g>
			<g>
				<path fill="#9F5B26" d="M69.9,12.9l2,4.7l2.2-4.7h5.3l3.3,4.5l7.8-2.5l6.2,0.3c0.4,2,6.6,5,6.6,5s5.9,3.9,5.9,5.1
					c0,1.2-2,6.6,0,6.8s7.7,5.3,8.9,5.7c1.2,0.4,9.3,4.3,9.3,4.3v8.4c0,0,2.6,4.1,2.6,5.3s0.4,6,0,9.5c-0.4,3.5,0.2,23.6,0.2,23.6
					h-8l-0.8,8.8l-3.9,2.2h-4.7l-5.9,6c0,0-7.4,3.9-6.8,5s0,5.4,0,5.4l-12.3-6.3c0,0-0.4-5.9-1.6-5.9s-5.5-5.9-5.5-5.9l-8.7,10.2
					l-5.8,13.4l-9.8,5h-10l-6.4-3.4l3.5-2.8l-6.2-9.8l-8.6-1.6l-5.1-1.2l-2.4-5.1v-7.4l-4-9l-2.9-7.4l2.7-39.4l4.3,0.4l-1.2-10.9
					l1.2-6.6l5.9-6.2l5.9-1.6l4.7-1.8h8.8l10.7,4.3l10.2-4.3H69.9z"/>
			</g>
			<g>
				<path fill="#CDA34F" d="M71.4,10.9l2,4.7l2.2-4.7h5.3l3.3,4.3l7.8-2.5l6.2,0.3c0.4,2,6.6,5,6.6,5s5.9,3.9,5.9,5.1s-2,6.6,0,6.8
					s8,5.3,9.1,5.7c1.2,0.4,9.5,4.3,9.5,4.3v8.4c0,0,2.3,4.1,2.3,5.3s0.3,6.1-0.1,9.6s0.1,23.7,0.1,23.7h-8l-0.8,8.8l-3.9,2.2h-4.7
					l-5.9,5.8c0,0-7.4,3.8-6.8,5s0,5.4,0,5.4l-12.3-6.3c0,0-0.4-5.9-1.6-5.9s-5.5-5.9-5.5-5.9l-8.7,10.1l-5.8,13l-9.8,4.6h-10
					l-6.4-3.1l3.5-2.6l-6.2-9.7l-8.6-1.5l-5.3-1.2l-2.6-5.1v-7.4l-3.8-9L15.9,77l2.7-39.4l4.3,0.4L21.7,27l1.2-6.6l5.9-6.2l5.9-1.5
					l4.7-1.7h8.8l10.7,4.3L69,10.9H71.4z"/>
			</g>
		</g>
		<g>
			<g>
				<path fill="#5E3112" d="M90.7,158.7l-8.1-4.1l-11.5,2l-8.8-2c0,0-3.8,7.7-3.8,8.8s-2.7,19.9-2.7,19.9l-15.4,10V178l-5.8-4.2
					l-9.1,9.4l-4.6,15.1l1.6,10.5h-6V224v20.7l11.8,9l4.8,8l17.3,3.4l8.5,6.1l1.9-2.7c0,0,2.7-1.1,4.6-0.4c1.9,0.8,3.8,3.1,3.8,3.1
					l1.9,3.7c0,0,6.9-4.4,8-4.4s11.7-0.4,11.7-0.4l3.6-3.1c0,0,1.5-1.9,3.1-1.9c1.5,0,7.7-0.4,7.7-0.4l2.3-6.5l6.9-2.3l5-5l2-4.6
					v-2.3l-3-1.1l6.8-6.1l3.4-43.3l-5.8,6.1l0.4-13.4l-3.8-5l-4.2-5l-4.6-3.1l-1.5-5l-4.6-3.1L90.7,158.7z"/>
			</g>
			<g>
				<path fill="#9F5B26" d="M90.7,155l-8.1-4.1l-11.5,2l-8.8-2c0,0-3.8,7.7-3.8,8.8c0,1.1-2.7,19.9-2.7,19.9l-15.4,10v-15.1
					l-5.8-4.2l-9.1,9.4L20.9,195l1.6,10.9h-6v14.4V241l11.8,9l4.8,8l17.3,3.4l8.5,6.1l1.9-2.7c0,0,2.7-1.1,4.6-0.4
					c1.9,0.8,3.8,3.1,3.8,3.1l1.9,3.7c0,0,6.9-4.4,8-4.4s11.7-0.4,11.7-0.4l3.6-3.1c0,0,1.5-1.9,3.1-1.9c1.5,0,7.7-0.4,7.7-0.4
					l2.3-6.5l6.9-2.3l5-5l2-4.6v-2.3l-3-1.1l6.8-6.1l3.4-43.3l-5.8,6.1l0.4-13.4l-3.8-5l-4.2-5l-4.6-3.1l-1.5-5l-4.6-3.1L90.7,155z"
					/>
			</g>
			<g>
				<path fill="#CDA34F" d="M91.5,152l-8.1-4.1l-11.5,2l-8.8-2c0,0-3.8,7.7-3.8,8.8c0,1.1-2.6,19.9-2.6,19.9l-15.2,10v-15.1l-6-4.2
					l-9.2,9.4L21.6,192l1.5,10.9h-5.8v14.4V238l11.7,9l4.7,8l17.3,3.4l8.5,6.1l1.9-2.7c0,0,2.7-1.1,4.6-0.4s3.8,3.1,3.8,3.1l1.9,3.7
					c0,0,6.9-4.4,8-4.4s11.7-0.4,11.7-0.4l3.6-3.1c0,0,1.5-1.9,3.1-1.9c1.5,0,7.7-0.4,7.7-0.4l2.3-6.5l6.9-2.3l4.7-5l1.6-4.6v-2.3
					l-2.6-1.1l7-6.1l3.5-43.3l-5.7,6.1l0.4-13.4l-3.8-5l-4.2-5l-4.6-3.1l-1.5-5l-4.6-3.1L91.5,152z"/>
			</g>
		</g>
		<g>
			<g>
				<path fill="#5E3112" d="M22.4,470l-1,6.6v7.3l-4.6,5.7l2.6,8.3v7.2c0,0,0.1,3.2,0.2,5.5c0.1,2.3,0.4,7.3,0.2,10.7
					c-0.3,3.4,2.8,9.2,2.8,9.2s3.2,8,3.2,12.6c0,4.6,4.6,7.3,4.6,7.3s10.3-1.5,11.5,0c1.1,1.5,6.9,8.8,6.9,8.8l6.1-1.9l1.9-1.9
					l4.2,4.6h3.8h9.5h6.6l2.3-5.8l9.5,0.8l8-5.3l18-11.1L122,527l-2.7-2.3l5.4-9.8l4.7-8.9v-13.6l-5.1-8.6c0,0,0.1-7.3,0.1-8.4
					s0-7.1,0-7.1l-0.1-1.5H122h-5.7l-2.3-6h-6.3l-0.2-8.8l-4.4-3.4l-2.9-3.4l-10.7,2.3l-5.3-6.7h-8.6l-4.4,1l-5.7,1.5l-5.3-0.4
					L46,453.7l-4.2-3.4l-6.1,5.7l-3.8,1.9l-3.9,5L22.4,470z"/>
			</g>
			<g>
				<path fill="#9F5B26" d="M22.4,466.3l-1,6.6v7.3l-4.6,5.7l2.6,8.3v7.2c0,0,0.1,3.2,0.2,5.5c0.1,2.3,0.4,7.3,0.2,10.7
					c-0.3,3.4,2.8,9.2,2.8,9.2s3.2,8,3.2,12.6s4.6,7.3,4.6,7.3s10.3-1.5,11.5,0c1.1,1.5,6.9,8.8,6.9,8.8l6.1-1.9l1.9-2.1l4.2,4.5
					h3.8l9.5,1h6.6l2.3-6.2l9.5,0.6l8-5.4l18-11.1l3.4-11.5l-2.7-2.3l5.4-9.8l4.7-8.9v-13.6l-5.1-8.6c0,0,0.1-7.3,0.1-8.4
					s0-7.1,0-7.1l-0.1-0.8H122h-5.7l-2.3-6h-6.3l-0.2-9.1l-4.4-3.6l-2.9-3.5l-10.7,2.6l-5.3-6.4h-8.6l-4.4,0.6l-5.7,1.4l-5.3-0.5
					L46,450l-4.2-3.5l-6.1,5.7l-3.8,1.9l-3.9,5L22.4,466.3z"/>
			</g>
			<g>
				<path fill="#CDA34F" d="M22.4,463.3l-1,6.6v7.3l-4.6,5.7l2.6,8.3v7.2c0,0,0.1,3.2,0.2,5.5c0.1,2.3,0.4,7.3,0.2,10.7
					c-0.3,3.4,2.8,9.2,2.8,9.2s3.2,8,3.2,12.6s4.6,7.3,4.6,7.3s10.3-1.5,11.5,0c1.1,1.5,6.9,8.8,6.9,8.8l6.1-1.9l1.9-2.1l4.2,4.5
					h3.8l9.5,1h6.6l2.3-6.2l9.5,0.6l8-5.4l18-11.1l3.4-11.5l-2.7-2.3l5.4-9.8l4.7-8.9v-13.6l-5.1-8.6c0,0,0.1-7.3,0.1-8.4
					s0-7.1,0-7.1l-0.1-0.8H122h-5.7l-2.3-6h-6.3l-0.2-9.1l-4.4-3.6l-2.9-3.5l-10.7,2.6l-5.3-6.4h-8.6l-4.4,0.6l-5.7,1.4l-5.3-0.5
					L46,447l-4.2-3.5l-6.1,5.7l-3.8,1.9l-3.9,5L22.4,463.3z"/>
			</g>
		</g>
		<g>
			<g>
				<path fill="#5E3112" d="M49.8,411.1l3.1,3.2l6.1-3.2l5.7,2.7l2.6,3.4l9.2-2.2h11.4l1.5-3.2l7.2-1.8h5.5l4.4-6.1
					c0,0,3.8-1.7,5-2.1s4.6-10,4.6-10l-2.3-3.9c0,0,3.8-4.2,5.3-4.2c1.5,0,5.9,2.7,5.4,0c-0.5-2.7,2.6-11.8,2.6-11.8v-8.4v-6.3
					l-8,0.2l4.4-10.3l5-7.6l-4.1-7.6l-1.1-6.5l-3-2.3H115c0,0,2.5-9.4,1-9.4c-1.5,0-11.8-8.6-11.8-8.6H99l-5.9-4.1l-3.6-1.9h-5.4
					c0,0-6.3,0.6-7.4,0.5c-1.1-0.2-5.3,2.5-5.3,2.5h-6.1c0,0-3,0.9-5.3,0.9c-2.3,0-8.8,1.7-8.8,1.7l-3,0.3l-4.6-1.6l-2.3-0.4
					l-4.2,3.4l-2.7,7.6l-4.2,3.8l-2.8,2.3l-2,7.2v18.5l-7.8,4.8l2.9,9.5l-2.8,6.9l0.7,4.2v2.7l3,11l1,3.9l2.2,3.3l3.7-6.7l3.2,0.4
					l0.9,6.1v3.2l3.7,4.8l4.1,5.3L49.8,411.1z"/>
			</g>
			<g>
				<path fill="#9F5B26" d="M49.8,407.4l3.1,3.2l6.1-3.2l5.7,2.7l2.6,3.7l9.2-1.8h11.4l1.5-3.7l7.2-2.3h5.5l4.4-6c0,0,3.8-1.6,5-2
					c1.1-0.4,4.6-10,4.6-10l-2.3-3.8c0,0,3.8-4.2,5.3-4.2c1.5,0,5.9,2.7,5.4,0c-0.5-2.7,2.6-11.8,2.6-11.8v-8.4v-6.3l-8,0.2
					l4.4-10.3l5-7.6l-4.1-7.6l-1.1-6.7l-3-2.5H115c0,0,2.5-9.4,1-9.4c-1.5,0-11.8-8.6-11.8-8.6H99l-5.9-3.6l-3.6-1.4h-5.4
					c0,0-6.3,0.6-7.4,0.5c-1.1-0.2-5.3,2.5-5.3,2.5h-6.1c0,0-3,0.6-5.3,0.6c-2.3,0-8.8,1.5-8.8,1.5l-3,0.2l-4.6-1.6l-2.3-0.4
					l-4.2,3.4l-2.7,7.6l-4.2,3.8l-2.8,2.3l-2,7.2V342l-7.8,4.8l2.9,9.5l-2.8,6.9l0.7,4.2v2.7l3,11l1,3.9l2.2,3.3l3.7-6.7l3.2,0.4
					l0.9,6.1v3.2l3.7,4.8l4.1,5.3L49.8,407.4z"/>
			</g>
			<g>
				<path fill="#CDA34F" d="M49.8,404.4l3.1,3.2l6.1-3.2l5.7,2.7l2.6,3.7l9.2-1.8h11.4l1.5-3.7l7.2-2.3h5.5l4.4-6c0,0,3.8-1.6,5-2
					c1.1-0.4,4.6-10,4.6-10l-2.3-3.8c0,0,3.8-4.2,5.3-4.2c1.5,0,5.9,2.7,5.4,0c-0.5-2.7,2.6-11.8,2.6-11.8v-8.4v-6.3l-8,0.2
					l4.4-10.3l5-7.6l-4.1-7.6l-1.1-6.7l-3-2.5H115c0,0,2.5-8.9,1-8.9c-1.5,0-11.8-8.1-11.8-8.1H99l-5.9-4.1l-3.6-1.9h-5.4
					c0,0-6.3,0.6-7.4,0.5c-1.1-0.2-5.3,2.5-5.3,2.5h-6.1c0,0-3,0.6-5.3,0.6c-2.3,0-8.8,1.5-8.8,1.5l-3,0.2l-4.6-1.6l-2.3-0.4
					l-4.2,3.4l-2.7,7.6l-4.2,3.8l-2.8,2.3l-2,7.2V339l-7.8,4.8l2.9,9.5l-2.8,6.9l0.7,4.2v2.7l3,11l1,3.9l2.2,3.3l3.7-6.7l3.2,0.4
					l0.9,6.1v3.2l3.7,4.8l4.1,5.3L49.8,404.4z"/>
			</g>
		</g>
	</g>
	<g>
		<path fill="#603813" d="M147.5,505.3l-0.1-10l20.1-0.2l0.1,10L147.5,505.3z M187.8,504.9l-0.1-10l20.1-0.2l0.1,10L187.8,504.9z
			 M227.9,504.5l-0.1-10l20.1-0.2l0.1,10L227.9,504.5z M268,504.2l-0.1-10l20-0.2l0.1,10L268,504.2z M308.1,503.8l-0.1-10l20-0.2
			l0.1,10L308.1,503.8z M348.2,503.5l-0.1-10l20-0.2l0.1,10L348.2,503.5z M388.3,503.1l-0.1-10l20-0.2l0.1,10L388.3,503.1z
			 M428.4,502.8l-0.1-10l20.1-0.2l0.1,10L428.4,502.8z M468.5,502.5l-0.1-10c7-0.1,13.8-0.1,20.1-0.1l0.1,10
			C482.2,502.4,475.5,502.5,468.5,502.5z M508.6,502.3l-0.1-10c7.8,0,14.6-0.1,20.1-0.1l0,10C523.1,502.2,516.4,502.2,508.6,502.3z
			 M549.8,500.7l-2.4-9.7c5.7-1.4,10.9-4.1,15.3-8.1l6.7,7.5C563.7,495.5,557.1,498.9,549.8,500.7z M582.4,473l-8.9-4.6
			c2.6-5.1,4.8-11.1,6.5-17.7l9.7,2.5C587.8,460.6,585.4,467.3,582.4,473z M593.4,432.9l-9.9-1.1c0.8-7.3,1-13.5,1-17.3
			c0-0.8,0-1.5,0-2l10-0.2c0,0.6,0,1.3,0,2.2C594.5,418.6,594.3,425.1,593.4,432.9z M580.8,394.4c-2-5.9-4.8-11.5-8.4-16.5l8.2-5.7
			c4.1,5.8,7.3,12.2,9.6,19L580.8,394.4z M559.7,364.4c-4.8-3.9-10.2-7.2-15.9-9.8l4.1-9.1c6.5,2.9,12.6,6.7,18.1,11.1L559.7,364.4z
			 M526.4,351.9h-20v-10h20V351.9z M486.4,351.9h-20v-10h20V351.9z M446.4,351.9h-20v-10h20V351.9z M406.4,351.9h-20v-10h20V351.9z
			 M366.4,351.9h-20v-10h20V351.9z M326.4,351.9h-20v-10h20V351.9z M286.4,351.9h-20v-10h20V351.9z M246.4,351.9h-20v-10h20V351.9z
			 M206.4,351.9h-20v-10h20V351.9z M166.4,351.9h-20v-10h20V351.9z"/>
	</g>
	<g>
		<path fill="#603813" d="M147.5,220.3l-0.1-10l20.1-0.2l0.1,10L147.5,220.3z M187.8,219.9l-0.1-10l20.1-0.2l0.1,10L187.8,219.9z
			 M227.9,219.5l-0.1-10l20.1-0.2l0.1,10L227.9,219.5z M268,219.2l-0.1-10l20-0.2l0.1,10L268,219.2z M308.1,218.8l-0.1-10l20-0.2
			l0.1,10L308.1,218.8z M348.2,218.5l-0.1-10l20-0.2l0.1,10L348.2,218.5z M388.3,218.1l-0.1-10l20-0.2l0.1,10L388.3,218.1z
			 M428.4,217.8l-0.1-10l20.1-0.2l0.1,10L428.4,217.8z M468.5,217.5l-0.1-10c7-0.1,13.8-0.1,20.1-0.1l0.1,10
			C482.2,217.4,475.5,217.5,468.5,217.5z M508.6,217.3l-0.1-10c7.8,0,14.6-0.1,20.1-0.1l0,10C523.1,217.2,516.4,217.2,508.6,217.3z
			 M549.8,215.7l-2.4-9.7c5.7-1.4,10.9-4.1,15.3-8.1l6.7,7.5C563.7,210.5,557.1,213.9,549.8,215.7z M582.4,188l-8.9-4.6
			c2.6-5.1,4.8-11.1,6.5-17.7l9.7,2.5C587.8,175.6,585.4,182.3,582.4,188z M593.4,147.9l-9.9-1.1c0.8-7.3,1-13.5,1-17.3
			c0-0.8,0-1.5,0-2l10-0.2c0,0.6,0,1.3,0,2.2C594.5,133.6,594.3,140.1,593.4,147.9z M580.8,109.4c-2-5.9-4.8-11.5-8.4-16.5l8.2-5.7
			c4.1,5.8,7.3,12.2,9.6,19L580.8,109.4z M559.7,79.4c-4.8-3.9-10.2-7.2-15.9-9.8l4.1-9.1c6.5,2.9,12.6,6.7,18.1,11.1L559.7,79.4z
			 M526.4,66.9h-20v-10h20V66.9z M486.4,66.9h-20v-10h20V66.9z M446.4,66.9h-20v-10h20V66.9z M406.4,66.9h-20v-10h20V66.9z
			 M366.4,66.9h-20v-10h20V66.9z M326.4,66.9h-20v-10h20V66.9z M286.4,66.9h-20v-10h20V66.9z M246.4,66.9h-20v-10h20V66.9z
			 M206.4,66.9h-20v-10h20V66.9z M166.4,66.9h-20v-10h20V66.9z"/>
	</g>
</g>
<g>
	<g>
		<g>
			<path fill="#603813" d="M73.1,61.9c4.3,0,7.7,1.1,10.2,3.4c2.5,2.3,3.7,5.4,3.7,9.3c0,4.5-1.4,8.1-4.3,10.6
				c-2.8,2.5-6.9,3.8-12.1,3.8c-4.7,0-8.5-0.8-11.2-2.3v-6.2c1.6,0.9,3.4,1.6,5.4,2.1c2,0.5,3.9,0.7,5.7,0.7c3.1,0,5.4-0.7,7-2.1
				c1.6-1.4,2.4-3.4,2.4-6c0-5.1-3.2-7.6-9.7-7.6c-0.9,0-2,0.1-3.4,0.3c-1.3,0.2-2.5,0.4-3.5,0.6l-3.1-1.8L62,46h22.1V52H68l-1,10.5
				c0.7-0.1,1.5-0.3,2.5-0.4C70.5,62,71.7,61.9,73.1,61.9z"/>
		</g>
	</g>
	<g>
		<g>
			<path fill="#603813" d="M73.1,212.2c4.3,0,7.7,1.1,10.2,3.4c2.5,2.3,3.7,5.4,3.7,9.3c0,4.5-1.4,8.1-4.3,10.6
				c-2.8,2.5-6.9,3.8-12.1,3.8c-4.7,0-8.5-0.8-11.2-2.3v-6.2c1.6,0.9,3.4,1.6,5.4,2.1c2,0.5,3.9,0.7,5.7,0.7c3.1,0,5.4-0.7,7-2.1
				c1.6-1.4,2.4-3.4,2.4-6c0-5.1-3.2-7.6-9.7-7.6c-0.9,0-2,0.1-3.4,0.3c-1.3,0.2-2.5,0.4-3.5,0.6l-3.1-1.8l1.6-20.7h22.1v6.1H68
				l-1,10.5c0.7-0.1,1.5-0.3,2.5-0.4C70.5,212.2,71.7,212.2,73.1,212.2z"/>
		</g>
	</g>
	<g>
		<g>
			<path fill="#603813" d="M73.1,349.8c4.3,0,7.7,1.1,10.2,3.4c2.5,2.3,3.7,5.4,3.7,9.3c0,4.5-1.4,8.1-4.3,10.6
				c-2.8,2.5-6.9,3.8-12.1,3.8c-4.7,0-8.5-0.8-11.2-2.3v-6.2c1.6,0.9,3.4,1.6,5.4,2.1c2,0.5,3.9,0.7,5.7,0.7c3.1,0,5.4-0.7,7-2.1
				c1.6-1.4,2.4-3.4,2.4-6c0-5.1-3.2-7.6-9.7-7.6c-0.9,0-2,0.1-3.4,0.3c-1.3,0.2-2.5,0.4-3.5,0.6l-3.1-1.8l1.6-20.7h22.1v6.1H68
				l-1,10.5c0.7-0.1,1.5-0.3,2.5-0.4C70.5,349.9,71.7,349.8,73.1,349.8z"/>
		</g>
	</g>
	<g>
		<g>
			<path fill="#603813" d="M58.8,503.3c0-16.6,6.8-24.9,20.3-24.9c2.1,0,3.9,0.2,5.4,0.5v5.7c-1.5-0.4-3.2-0.6-5.1-0.6
				c-4.6,0-8,1.2-10.3,3.7c-2.3,2.4-3.5,6.4-3.7,11.7h0.3c0.9-1.6,2.2-2.8,3.8-3.6c1.6-0.9,3.6-1.3,5.8-1.3c3.9,0,6.9,1.2,9,3.5
				c2.2,2.4,3.2,5.6,3.2,9.6c0,4.5-1.2,8-3.7,10.6c-2.5,2.6-5.9,3.9-10.2,3.9c-3,0-5.7-0.7-7.9-2.2c-2.2-1.5-4-3.6-5.2-6.4
				C59.4,510.6,58.8,507.2,58.8,503.3z M73.6,516.3c2.3,0,4.1-0.8,5.4-2.3c1.3-1.5,1.9-3.7,1.9-6.5c0-2.4-0.6-4.4-1.8-5.8
				c-1.2-1.4-3-2.1-5.4-2.1c-1.5,0-2.8,0.3-4.1,0.9c-1.2,0.6-2.2,1.5-2.9,2.6c-0.7,1.1-1.1,2.2-1.1,3.4c0,2.7,0.7,5,2.2,6.9
				C69.4,515.4,71.3,516.3,73.6,516.3z"/>
		</g>
	</g>
</g>
<g>
	<g>
		<path fill="#603813" d="M154.1,35v1.3l-2.5,0.3c0.2,0.3,0.4,0.7,0.6,1.1c0.2,0.5,0.3,1,0.3,1.6c0,1.3-0.4,2.4-1.3,3.1
			c-0.9,0.8-2.1,1.2-3.7,1.2c-0.4,0-0.8,0-1.1-0.1c-0.9,0.5-1.3,1-1.3,1.7c0,0.4,0.2,0.6,0.5,0.8c0.3,0.2,0.8,0.3,1.6,0.3h2.4
			c1.4,0,2.6,0.3,3.3,0.9c0.8,0.6,1.2,1.5,1.2,2.7c0,1.5-0.6,2.6-1.8,3.4c-1.2,0.8-2.9,1.2-5.2,1.2c-1.8,0-3.1-0.3-4-1
			c-0.9-0.7-1.4-1.6-1.4-2.8c0-0.8,0.3-1.5,0.8-2.1c0.5-0.6,1.3-1,2.2-1.2c-0.3-0.2-0.6-0.4-0.9-0.7c-0.2-0.3-0.3-0.7-0.3-1.1
			c0-0.5,0.1-0.9,0.4-1.3c0.3-0.4,0.7-0.7,1.2-1.1c-0.7-0.3-1.3-0.8-1.7-1.5c-0.4-0.7-0.7-1.5-0.7-2.3c0-1.5,0.4-2.6,1.3-3.4
			c0.9-0.8,2.1-1.2,3.7-1.2c0.7,0,1.3,0.1,1.9,0.2H154.1z M143.4,50.6c0,0.7,0.3,1.3,0.9,1.6s1.5,0.6,2.6,0.6c1.7,0,3-0.3,3.8-0.8
			c0.8-0.5,1.2-1.2,1.2-2.1c0-0.7-0.2-1.2-0.7-1.5c-0.4-0.3-1.3-0.4-2.5-0.4h-2.4c-0.9,0-1.6,0.2-2.1,0.7S143.4,49.8,143.4,50.6z
			 M144.5,39.3c0,0.9,0.3,1.6,0.8,2.1c0.5,0.5,1.3,0.7,2.2,0.7c2,0,3-1,3-2.9c0-2-1-3-3-3c-1,0-1.7,0.3-2.2,0.8
			S144.5,38.3,144.5,39.3z"/>
		<path fill="#603813" d="M166,48.4v-8.7c0-1.1-0.2-1.9-0.7-2.4c-0.5-0.5-1.3-0.8-2.3-0.8c-1.4,0-2.4,0.4-3.1,1.1
			c-0.6,0.8-1,2-1,3.8v7h-2v-19h2v5.7c0,0.7,0,1.3-0.1,1.7h0.1c0.4-0.6,1-1.1,1.7-1.5c0.7-0.4,1.6-0.6,2.5-0.6
			c1.6,0,2.9,0.4,3.7,1.2c0.8,0.8,1.2,2,1.2,3.7v8.7H166z"/>
		<path fill="#603813" d="M172,31.4c0-0.5,0.1-0.8,0.3-1c0.2-0.2,0.5-0.3,0.9-0.3c0.3,0,0.6,0.1,0.8,0.3c0.2,0.2,0.4,0.6,0.4,1
			s-0.1,0.8-0.4,1c-0.2,0.2-0.5,0.3-0.8,0.3c-0.3,0-0.6-0.1-0.9-0.3C172.1,32.2,172,31.8,172,31.4z M174.2,48.4h-2V35h2V48.4z"/>
		<path fill="#603813" d="M183.9,48.6c-1.9,0-3.4-0.6-4.5-1.8c-1.1-1.2-1.6-2.9-1.6-5.1c0-2.2,0.5-4,1.6-5.2
			c1.1-1.2,2.6-1.8,4.6-1.8c0.6,0,1.3,0.1,1.9,0.2c0.6,0.1,1.1,0.3,1.5,0.5l-0.6,1.7c-0.4-0.2-0.9-0.3-1.5-0.4
			c-0.5-0.1-1-0.2-1.4-0.2c-2.7,0-4.1,1.7-4.1,5.2c0,1.6,0.3,2.9,1,3.8c0.7,0.9,1.6,1.3,2.9,1.3c1.1,0,2.3-0.2,3.4-0.7v1.8
			C186.3,48.4,185.2,48.6,183.9,48.6z"/>
		<path fill="#603813" d="M190.2,31.4c0-0.5,0.1-0.8,0.3-1c0.2-0.2,0.5-0.3,0.9-0.3c0.3,0,0.6,0.1,0.8,0.3c0.2,0.2,0.4,0.6,0.4,1
			s-0.1,0.8-0.4,1c-0.2,0.2-0.5,0.3-0.8,0.3c-0.3,0-0.6-0.1-0.9-0.3C190.4,32.2,190.2,31.8,190.2,31.4z M192.4,48.4h-2V35h2V48.4z"
			/>
		<path fill="#603813" d="M201.1,47c0.4,0,0.7,0,1-0.1c0.3-0.1,0.6-0.1,0.8-0.2v1.6c-0.2,0.1-0.5,0.2-1,0.3
			c-0.4,0.1-0.8,0.1-1.2,0.1c-2.6,0-3.9-1.4-3.9-4.1v-8H195v-1l1.9-0.8l0.9-2.9h1.2V35h3.9v1.6h-3.9v7.9c0,0.8,0.2,1.4,0.6,1.9
			C199.9,46.7,200.4,47,201.1,47z"/>
		<path fill="#603813" d="M217.1,41.7c0,2.2-0.5,3.9-1.6,5.1c-1.1,1.2-2.6,1.8-4.6,1.8c-1.2,0-2.3-0.3-3.2-0.8s-1.6-1.4-2.1-2.4
			c-0.5-1-0.8-2.3-0.8-3.7c0-2.2,0.5-3.9,1.6-5.1c1.1-1.2,2.6-1.8,4.5-1.8c1.9,0,3.4,0.6,4.5,1.9C216.6,37.9,217.1,39.6,217.1,41.7z
			 M206.9,41.7c0,1.7,0.3,3,1,3.9s1.7,1.3,3,1.3c1.3,0,2.3-0.4,3-1.3c0.7-0.9,1-2.2,1-3.9c0-1.7-0.3-3-1-3.9c-0.7-0.9-1.7-1.3-3-1.3
			c-1.3,0-2.3,0.4-3,1.3C207.3,38.7,206.9,40,206.9,41.7z"/>
		<path fill="#603813" d="M226.8,34.8c0.6,0,1.1,0,1.6,0.1l-0.3,1.9c-0.6-0.1-1-0.2-1.5-0.2c-1.1,0-2,0.4-2.8,1.3
			c-0.8,0.9-1.2,2-1.2,3.3v7.2h-2V35h1.7l0.2,2.5h0.1c0.5-0.9,1.1-1.5,1.8-2C225.2,35,225.9,34.8,226.8,34.8z"/>
		<path fill="#603813" d="M230.7,31.4c0-0.5,0.1-0.8,0.3-1c0.2-0.2,0.5-0.3,0.9-0.3c0.3,0,0.6,0.1,0.8,0.3c0.2,0.2,0.4,0.6,0.4,1
			s-0.1,0.8-0.4,1c-0.2,0.2-0.5,0.3-0.8,0.3c-0.3,0-0.6-0.1-0.9-0.3C230.8,32.2,230.7,31.8,230.7,31.4z M232.9,48.4h-2V35h2V48.4z"
			/>
		<path fill="#603813" d="M249,48.6c-1.9,0-3.4-0.6-4.5-1.8c-1.1-1.2-1.6-2.9-1.6-5.1c0-2.2,0.5-4,1.6-5.2c1.1-1.2,2.6-1.8,4.6-1.8
			c0.6,0,1.3,0.1,1.9,0.2c0.6,0.1,1.1,0.3,1.5,0.5l-0.6,1.7c-0.4-0.2-0.9-0.3-1.5-0.4c-0.5-0.1-1-0.2-1.4-0.2
			c-2.7,0-4.1,1.7-4.1,5.2c0,1.6,0.3,2.9,1,3.8c0.7,0.9,1.6,1.3,2.9,1.3c1.1,0,2.3-0.2,3.4-0.7v1.8C251.5,48.4,250.4,48.6,249,48.6z
			"/>
		<path fill="#603813" d="M263.8,48.4l-0.4-1.9h-0.1c-0.7,0.8-1.3,1.4-2,1.7c-0.7,0.3-1.5,0.4-2.5,0.4c-1.3,0-2.4-0.3-3.1-1
			c-0.8-0.7-1.1-1.7-1.1-2.9c0-2.7,2.2-4.1,6.5-4.2l2.3-0.1v-0.8c0-1-0.2-1.8-0.7-2.3c-0.5-0.5-1.2-0.8-2.2-0.8
			c-1.1,0-2.4,0.3-3.8,1l-0.6-1.6c0.7-0.4,1.4-0.6,2.2-0.8c0.8-0.2,1.6-0.3,2.4-0.3c1.6,0,2.8,0.4,3.5,1.1c0.8,0.7,1.2,1.8,1.2,3.4
			v9.1H263.8z M260.4,33.2c-1.1,0-2-0.3-2.7-0.8c-0.6-0.6-1-1.4-1.1-2.4h1.3c0,0.4,0.2,0.7,0.3,0.9c0.2,0.2,0.4,0.4,0.7,0.5
			c0.3,0.1,0.8,0.2,1.5,0.2c0.8,0,1.4-0.1,1.8-0.4c0.4-0.3,0.6-0.7,0.7-1.2h1.3c-0.1,1-0.5,1.8-1.1,2.4
			C262.4,32.9,261.5,33.2,260.4,33.2z M259.2,47c1.3,0,2.3-0.3,3-1c0.7-0.7,1.1-1.7,1.1-2.9v-1.2l-2,0.1c-1.6,0.1-2.8,0.3-3.5,0.8
			c-0.7,0.4-1.1,1.1-1.1,2.1c0,0.7,0.2,1.3,0.7,1.7C257.8,46.8,258.4,47,259.2,47z"/>
		<path fill="#603813" d="M275.6,34.8c0.6,0,1.1,0,1.6,0.1l-0.3,1.9c-0.6-0.1-1-0.2-1.5-0.2c-1.1,0-2,0.4-2.8,1.3
			c-0.8,0.9-1.2,2-1.2,3.3v7.2h-2V35h1.7l0.2,2.5h0.1c0.5-0.9,1.1-1.5,1.8-2C274,35,274.8,34.8,275.6,34.8z"/>
		<path fill="#603813" d="M291.2,41.7c0,2.2-0.5,3.9-1.6,5.1c-1.1,1.2-2.6,1.8-4.6,1.8c-1.2,0-2.3-0.3-3.2-0.8s-1.6-1.4-2.1-2.4
			c-0.5-1-0.8-2.3-0.8-3.7c0-2.2,0.5-3.9,1.6-5.1c1.1-1.2,2.6-1.8,4.5-1.8c1.9,0,3.4,0.6,4.5,1.9C290.7,37.9,291.2,39.6,291.2,41.7z
			 M281.1,41.7c0,1.7,0.3,3,1,3.9s1.7,1.3,3,1.3c1.3,0,2.3-0.4,3-1.3c0.7-0.9,1-2.2,1-3.9c0-1.7-0.3-3-1-3.9c-0.7-0.9-1.7-1.3-3-1.3
			c-1.3,0-2.3,0.4-3,1.3C281.4,38.7,281.1,40,281.1,41.7z"/>
		<path fill="#603813" d="M300.9,34.8c0.6,0,1.1,0,1.6,0.1l-0.3,1.9c-0.6-0.1-1-0.2-1.5-0.2c-1.1,0-2,0.4-2.8,1.3
			c-0.8,0.9-1.2,2-1.2,3.3v7.2h-2V35h1.7l0.2,2.5h0.1c0.5-0.9,1.1-1.5,1.8-2C299.3,35,300.1,34.8,300.9,34.8z"/>
		<path fill="#603813" d="M313.2,48.4l-0.4-1.9h-0.1c-0.7,0.8-1.3,1.4-2,1.7c-0.7,0.3-1.5,0.4-2.5,0.4c-1.3,0-2.4-0.3-3.1-1
			c-0.8-0.7-1.1-1.7-1.1-2.9c0-2.7,2.2-4.1,6.5-4.2l2.3-0.1v-0.8c0-1-0.2-1.8-0.7-2.3c-0.5-0.5-1.2-0.8-2.2-0.8
			c-1.1,0-2.4,0.3-3.8,1l-0.6-1.6c0.7-0.4,1.4-0.6,2.2-0.8c0.8-0.2,1.6-0.3,2.4-0.3c1.6,0,2.8,0.4,3.5,1.1c0.8,0.7,1.2,1.8,1.2,3.4
			v9.1H313.2z M308.7,47c1.3,0,2.3-0.3,3-1c0.7-0.7,1.1-1.7,1.1-2.9v-1.2l-2,0.1c-1.6,0.1-2.8,0.3-3.5,0.8c-0.7,0.4-1.1,1.1-1.1,2.1
			c0,0.7,0.2,1.3,0.7,1.7C307.2,46.8,307.9,47,308.7,47z"/>
		<path fill="#603813" d="M334,44.7c0,1.2-0.5,2.2-1.4,2.9s-2.2,1-3.9,1c-1.8,0-3.2-0.3-4.2-0.8v-1.9c0.6,0.3,1.3,0.6,2.1,0.8
			c0.7,0.2,1.4,0.3,2.1,0.3c1.1,0,1.9-0.2,2.4-0.5c0.6-0.3,0.9-0.9,0.9-1.5c0-0.5-0.2-1-0.7-1.3c-0.5-0.4-1.3-0.8-2.6-1.3
			c-1.2-0.5-2.1-0.9-2.7-1.2c-0.5-0.3-0.9-0.7-1.2-1.2c-0.3-0.4-0.4-1-0.4-1.6c0-1.1,0.4-2,1.3-2.6c0.9-0.6,2.1-0.9,3.7-0.9
			c1.4,0,2.8,0.3,4.2,0.9l-0.7,1.6c-1.3-0.6-2.6-0.8-3.6-0.8c-1,0-1.7,0.2-2.2,0.5c-0.5,0.3-0.7,0.7-0.7,1.2c0,0.4,0.1,0.7,0.3,0.9
			c0.2,0.3,0.5,0.5,0.9,0.7c0.4,0.2,1.2,0.6,2.3,1c1.6,0.6,2.7,1.2,3.2,1.7S334,43.8,334,44.7z"/>
		<path fill="#603813" d="M345.6,48.4l-0.4-1.9h-0.1c-0.7,0.8-1.3,1.4-2,1.7c-0.7,0.3-1.5,0.4-2.5,0.4c-1.3,0-2.4-0.3-3.1-1
			c-0.8-0.7-1.1-1.7-1.1-2.9c0-2.7,2.2-4.1,6.5-4.2l2.3-0.1v-0.8c0-1-0.2-1.8-0.7-2.3c-0.5-0.5-1.2-0.8-2.2-0.8
			c-1.1,0-2.4,0.3-3.8,1l-0.6-1.6c0.7-0.4,1.4-0.6,2.2-0.8c0.8-0.2,1.6-0.3,2.4-0.3c1.6,0,2.8,0.4,3.5,1.1c0.8,0.7,1.2,1.8,1.2,3.4
			v9.1H345.6z M342.1,33.2c-1.1,0-2-0.3-2.7-0.8c-0.6-0.6-1-1.4-1.1-2.4h1.3c0,0.4,0.2,0.7,0.3,0.9c0.2,0.2,0.4,0.4,0.7,0.5
			c0.3,0.1,0.8,0.2,1.5,0.2c0.8,0,1.4-0.1,1.8-0.4c0.4-0.3,0.6-0.7,0.7-1.2h1.3c-0.1,1-0.5,1.8-1.1,2.4
			C344.2,32.9,343.3,33.2,342.1,33.2z M341,47c1.3,0,2.3-0.3,3-1c0.7-0.7,1.1-1.7,1.1-2.9v-1.2l-2,0.1c-1.6,0.1-2.8,0.3-3.5,0.8
			c-0.7,0.4-1.1,1.1-1.1,2.1c0,0.7,0.2,1.3,0.7,1.7C339.6,46.8,340.2,47,341,47z"/>
		<path fill="#603813" d="M359.8,48.4h-2v-19h2V48.4z"/>
		<path fill="#603813" d="M369.7,48.6c-2,0-3.5-0.6-4.7-1.8c-1.1-1.2-1.7-2.9-1.7-5c0-2.2,0.5-3.9,1.6-5.1c1.1-1.3,2.5-1.9,4.3-1.9
			c1.7,0,3,0.6,4,1.7c1,1.1,1.5,2.6,1.5,4.4v1.3h-9.2c0,1.6,0.4,2.8,1.2,3.6s1.8,1.2,3.2,1.2c1.4,0,2.9-0.3,4.3-0.9v1.8
			c-0.7,0.3-1.4,0.5-2,0.7C371.4,48.6,370.6,48.6,369.7,48.6z M369.2,36.5c-1.1,0-1.9,0.4-2.6,1c-0.6,0.7-1,1.7-1.1,2.9h7
			c0-1.3-0.3-2.3-0.9-2.9C371,36.8,370.2,36.5,369.2,36.5z"/>
		<path fill="#603813" d="M395.5,35v1.3l-2.5,0.3c0.2,0.3,0.4,0.7,0.6,1.1c0.2,0.5,0.3,1,0.3,1.6c0,1.3-0.4,2.4-1.3,3.1
			s-2.1,1.2-3.7,1.2c-0.4,0-0.8,0-1.1-0.1c-0.9,0.5-1.3,1-1.3,1.7c0,0.4,0.2,0.6,0.5,0.8c0.3,0.2,0.8,0.3,1.5,0.3h2.4
			c1.4,0,2.6,0.3,3.3,0.9s1.2,1.5,1.2,2.7c0,1.5-0.6,2.6-1.8,3.4c-1.2,0.8-2.9,1.2-5.2,1.2c-1.8,0-3.1-0.3-4-1
			c-0.9-0.7-1.4-1.6-1.4-2.8c0-0.8,0.3-1.5,0.8-2.1c0.5-0.6,1.3-1,2.2-1.2c-0.3-0.2-0.6-0.4-0.9-0.7c-0.2-0.3-0.3-0.7-0.3-1.1
			c0-0.5,0.1-0.9,0.4-1.3s0.7-0.7,1.2-1.1c-0.7-0.3-1.3-0.8-1.7-1.5c-0.4-0.7-0.7-1.5-0.7-2.3c0-1.5,0.4-2.6,1.3-3.4
			c0.9-0.8,2.1-1.2,3.7-1.2c0.7,0,1.3,0.1,1.9,0.2H395.5z M384.8,50.6c0,0.7,0.3,1.3,0.9,1.6s1.5,0.6,2.6,0.6c1.7,0,3-0.3,3.8-0.8
			c0.8-0.5,1.2-1.2,1.2-2.1c0-0.7-0.2-1.2-0.7-1.5c-0.4-0.3-1.3-0.4-2.5-0.4h-2.4c-0.9,0-1.6,0.2-2.1,0.7S384.8,49.8,384.8,50.6z
			 M385.9,39.3c0,0.9,0.3,1.6,0.8,2.1s1.3,0.7,2.2,0.7c2,0,3-1,3-2.9c0-2-1-3-3-3c-1,0-1.7,0.3-2.2,0.8S385.9,38.3,385.9,39.3z"/>
		<path fill="#603813" d="M406.5,48.4l-0.4-1.9H406c-0.7,0.8-1.3,1.4-2,1.7c-0.7,0.3-1.5,0.4-2.5,0.4c-1.3,0-2.4-0.3-3.1-1
			c-0.8-0.7-1.1-1.7-1.1-2.9c0-2.7,2.2-4.1,6.5-4.2l2.3-0.1v-0.8c0-1-0.2-1.8-0.7-2.3c-0.5-0.5-1.2-0.8-2.2-0.8
			c-1.1,0-2.4,0.3-3.8,1l-0.6-1.6c0.7-0.4,1.4-0.6,2.2-0.8c0.8-0.2,1.6-0.3,2.4-0.3c1.6,0,2.8,0.4,3.5,1.1c0.8,0.7,1.2,1.8,1.2,3.4
			v9.1H406.5z M403.1,33.2c-1.1,0-2-0.3-2.7-0.8c-0.6-0.6-1-1.4-1.1-2.4h1.3c0,0.4,0.2,0.7,0.3,0.9c0.2,0.2,0.4,0.4,0.7,0.5
			c0.3,0.1,0.8,0.2,1.5,0.2c0.8,0,1.4-0.1,1.8-0.4c0.4-0.3,0.6-0.7,0.7-1.2h1.3c-0.1,1-0.5,1.8-1.1,2.4
			C405.1,32.9,404.2,33.2,403.1,33.2z M401.9,47c1.3,0,2.3-0.3,3-1c0.7-0.7,1.1-1.7,1.1-2.9v-1.2l-2,0.1c-1.6,0.1-2.8,0.3-3.5,0.8
			c-0.7,0.4-1.1,1.1-1.1,2.1c0,0.7,0.2,1.3,0.7,1.7C400.5,46.8,401.1,47,401.9,47z"/>
		<path fill="#603813" d="M420.8,44.7c0,1.2-0.5,2.2-1.4,2.9s-2.2,1-3.9,1c-1.8,0-3.2-0.3-4.2-0.8v-1.9c0.6,0.3,1.3,0.6,2.1,0.8
			c0.7,0.2,1.4,0.3,2.1,0.3c1.1,0,1.9-0.2,2.4-0.5c0.6-0.3,0.9-0.9,0.9-1.5c0-0.5-0.2-1-0.7-1.3c-0.5-0.4-1.3-0.8-2.6-1.3
			c-1.2-0.5-2.1-0.9-2.7-1.2c-0.5-0.3-0.9-0.7-1.2-1.2c-0.3-0.4-0.4-1-0.4-1.6c0-1.1,0.4-2,1.3-2.6c0.9-0.6,2.1-0.9,3.7-0.9
			c1.4,0,2.8,0.3,4.2,0.9l-0.7,1.6c-1.3-0.6-2.6-0.8-3.6-0.8c-1,0-1.7,0.2-2.2,0.5c-0.5,0.3-0.7,0.7-0.7,1.2c0,0.4,0.1,0.7,0.3,0.9
			c0.2,0.3,0.5,0.5,0.9,0.7c0.4,0.2,1.2,0.6,2.3,1c1.6,0.6,2.7,1.2,3.2,1.7S420.8,43.8,420.8,44.7z"/>
		<path fill="#603813" d="M429.7,48.6c-2,0-3.5-0.6-4.7-1.8c-1.1-1.2-1.7-2.9-1.7-5c0-2.2,0.5-3.9,1.6-5.1c1.1-1.3,2.5-1.9,4.3-1.9
			c1.7,0,3,0.6,4,1.7c1,1.1,1.5,2.6,1.5,4.4v1.3h-9.2c0,1.6,0.4,2.8,1.2,3.6c0.8,0.8,1.8,1.2,3.2,1.2c1.4,0,2.9-0.3,4.3-0.9v1.8
			c-0.7,0.3-1.4,0.5-2,0.7C431.4,48.6,430.6,48.6,429.7,48.6z M429.2,36.5c-1.1,0-1.9,0.4-2.6,1s-1,1.7-1.1,2.9h7
			c0-1.3-0.3-2.3-0.9-2.9C431.1,36.8,430.3,36.5,429.2,36.5z"/>
		<path fill="#603813" d="M446.7,44.7c0,1.2-0.5,2.2-1.4,2.9s-2.2,1-3.9,1c-1.8,0-3.2-0.3-4.2-0.8v-1.9c0.6,0.3,1.3,0.6,2.1,0.8
			c0.7,0.2,1.4,0.3,2.1,0.3c1.1,0,1.9-0.2,2.4-0.5c0.6-0.3,0.9-0.9,0.9-1.5c0-0.5-0.2-1-0.7-1.3c-0.5-0.4-1.3-0.8-2.6-1.3
			c-1.2-0.5-2.1-0.9-2.7-1.2c-0.5-0.3-0.9-0.7-1.2-1.2c-0.3-0.4-0.4-1-0.4-1.6c0-1.1,0.4-2,1.3-2.6c0.9-0.6,2.1-0.9,3.7-0.9
			c1.4,0,2.8,0.3,4.2,0.9l-0.7,1.6c-1.3-0.6-2.6-0.8-3.6-0.8c-1,0-1.7,0.2-2.2,0.5c-0.5,0.3-0.7,0.7-0.7,1.2c0,0.4,0.1,0.7,0.3,0.9
			c0.2,0.3,0.5,0.5,0.9,0.7c0.4,0.2,1.2,0.6,2.3,1c1.6,0.6,2.7,1.2,3.2,1.7S446.7,43.8,446.7,44.7z M443.9,51.9
			c0,0.8-0.3,1.4-0.9,1.8c-0.6,0.4-1.5,0.6-2.8,0.6c-0.4,0-0.8,0-1.2-0.1V53c0.4,0.1,0.8,0.1,1.3,0.1c0.6,0,1.1-0.1,1.5-0.2
			c0.3-0.2,0.5-0.5,0.5-0.9c0-0.4-0.2-0.6-0.5-0.8c-0.3-0.2-0.9-0.4-1.8-0.5l1.1-2.2h1.3l-0.7,1.4C443.2,50.1,443.9,50.8,443.9,51.9
			z"/>
		<path fill="#603813" d="M454.4,47c0.4,0,0.7,0,1-0.1c0.3-0.1,0.6-0.1,0.8-0.2v1.6c-0.2,0.1-0.5,0.2-1,0.3
			c-0.4,0.1-0.8,0.1-1.2,0.1c-2.6,0-3.9-1.4-3.9-4.1v-8h-1.9v-1l1.9-0.8l0.9-2.9h1.2V35h3.9v1.6h-3.9v7.9c0,0.8,0.2,1.4,0.6,1.9
			C453.2,46.7,453.7,47,454.4,47z"/>
		<path fill="#603813" d="M458.7,31.4c0-0.5,0.1-0.8,0.3-1c0.2-0.2,0.5-0.3,0.9-0.3c0.3,0,0.6,0.1,0.8,0.3s0.4,0.6,0.4,1
			s-0.1,0.8-0.4,1c-0.2,0.2-0.5,0.3-0.8,0.3c-0.3,0-0.6-0.1-0.9-0.3C458.8,32.2,458.7,31.8,458.7,31.4z M460.9,48.4h-2V35h2V48.4z"
			/>
		<path fill="#603813" d="M480.3,44.7c0,1.2-0.5,2.2-1.4,2.9s-2.2,1-3.9,1c-1.8,0-3.2-0.3-4.2-0.8v-1.9c0.6,0.3,1.3,0.6,2.1,0.8
			c0.7,0.2,1.4,0.3,2.1,0.3c1.1,0,1.9-0.2,2.4-0.5c0.6-0.3,0.9-0.9,0.9-1.5c0-0.5-0.2-1-0.7-1.3c-0.5-0.4-1.3-0.8-2.6-1.3
			c-1.2-0.5-2.1-0.9-2.7-1.2c-0.5-0.3-0.9-0.7-1.2-1.2c-0.3-0.4-0.4-1-0.4-1.6c0-1.1,0.4-2,1.3-2.6c0.9-0.6,2.1-0.9,3.6-0.9
			c1.4,0,2.8,0.3,4.2,0.9l-0.7,1.6c-1.3-0.6-2.6-0.8-3.6-0.8c-1,0-1.7,0.2-2.2,0.5c-0.5,0.3-0.7,0.7-0.7,1.2c0,0.4,0.1,0.7,0.3,0.9
			c0.2,0.3,0.5,0.5,0.9,0.7c0.4,0.2,1.2,0.6,2.3,1c1.6,0.6,2.7,1.2,3.2,1.7S480.3,43.8,480.3,44.7z"/>
		<path fill="#603813" d="M495.2,41.7c0,2.2-0.5,3.9-1.6,5.1c-1.1,1.2-2.6,1.8-4.6,1.8c-1.2,0-2.3-0.3-3.2-0.8s-1.6-1.4-2.1-2.4
			c-0.5-1-0.8-2.3-0.8-3.7c0-2.2,0.5-3.9,1.6-5.1c1.1-1.2,2.6-1.8,4.5-1.8c1.9,0,3.4,0.6,4.5,1.9S495.2,39.6,495.2,41.7z M485,41.7
			c0,1.7,0.3,3,1,3.9s1.7,1.3,3,1.3s2.3-0.4,3-1.3c0.7-0.9,1-2.2,1-3.9c0-1.7-0.3-3-1-3.9c-0.7-0.9-1.7-1.3-3-1.3
			c-1.3,0-2.3,0.4-3,1.3C485.3,38.7,485,40,485,41.7z"/>
		<path fill="#603813" d="M500.7,48.4h-2v-19h2V48.4z"/>
		<path fill="#603813" d="M506.9,35v8.7c0,1.1,0.2,1.9,0.7,2.4c0.5,0.5,1.3,0.8,2.3,0.8c1.4,0,2.4-0.4,3.1-1.1c0.6-0.8,1-2,1-3.7v-7
			h2v13.4h-1.7l-0.3-1.8H514c-0.4,0.7-1,1.2-1.7,1.5c-0.7,0.4-1.6,0.5-2.5,0.5c-1.6,0-2.8-0.4-3.7-1.2c-0.8-0.8-1.2-2-1.2-3.7V35
			H506.9z"/>
		<path fill="#603813" d="M524.7,47c0.4,0,0.7,0,1-0.1c0.3-0.1,0.6-0.1,0.8-0.2v1.6c-0.2,0.1-0.5,0.2-1,0.3
			c-0.4,0.1-0.8,0.1-1.2,0.1c-2.6,0-3.9-1.4-3.9-4.1v-8h-1.9v-1l1.9-0.8l0.9-2.9h1.2V35h3.9v1.6h-3.9v7.9c0,0.8,0.2,1.4,0.6,1.9
			C523.5,46.7,524,47,524.7,47z M526,51.9c0,0.8-0.3,1.4-0.9,1.8c-0.6,0.4-1.5,0.6-2.8,0.6c-0.4,0-0.8,0-1.2-0.1V53
			c0.4,0.1,0.8,0.1,1.3,0.1c0.6,0,1.1-0.1,1.5-0.2c0.3-0.2,0.5-0.5,0.5-0.9c0-0.4-0.2-0.6-0.5-0.8c-0.3-0.2-0.9-0.4-1.8-0.5l1.1-2.2
			h1.3l-0.7,1.4C525.2,50.1,526,50.8,526,51.9z"/>
		<path fill="#603813" d="M529,31.4c0-0.5,0.1-0.8,0.3-1c0.2-0.2,0.5-0.3,0.9-0.3c0.3,0,0.6,0.1,0.8,0.3c0.2,0.2,0.4,0.6,0.4,1
			s-0.1,0.8-0.4,1c-0.2,0.2-0.5,0.3-0.8,0.3c-0.3,0-0.6-0.1-0.9-0.3C529.2,32.2,529,31.8,529,31.4z M531.2,48.4h-2V35h2V48.4z"/>
		<path fill="#603813" d="M543.8,48.4l-0.4-1.9h-0.1c-0.7,0.8-1.3,1.4-2,1.7c-0.7,0.3-1.5,0.4-2.5,0.4c-1.3,0-2.4-0.3-3.1-1
			s-1.1-1.7-1.1-2.9c0-2.7,2.2-4.1,6.5-4.2l2.3-0.1v-0.8c0-1-0.2-1.8-0.7-2.3c-0.5-0.5-1.2-0.8-2.2-0.8c-1.1,0-2.4,0.3-3.8,1
			l-0.6-1.6c0.7-0.4,1.4-0.6,2.2-0.8s1.6-0.3,2.4-0.3c1.6,0,2.8,0.4,3.5,1.1c0.8,0.7,1.2,1.8,1.2,3.4v9.1H543.8z M539.2,47
			c1.3,0,2.3-0.3,3-1c0.7-0.7,1.1-1.7,1.1-2.9v-1.2l-2,0.1c-1.6,0.1-2.8,0.3-3.5,0.8c-0.7,0.4-1.1,1.1-1.1,2.1
			c0,0.7,0.2,1.3,0.7,1.7C537.8,46.8,538.4,47,539.2,47z"/>
	</g>
	<g>
		<path fill="#603813" d="M149.4,200.8c-0.9,0-1.7-0.2-2.4-0.5c-0.7-0.3-1.3-0.8-1.8-1.5H145c0.1,0.8,0.1,1.5,0.1,2.2v5.5h-2v-19.4
			h1.6l0.3,1.8h0.1c0.5-0.7,1.1-1.3,1.8-1.6c0.7-0.3,1.5-0.5,2.4-0.5c1.8,0,3.1,0.6,4.1,1.8c1,1.2,1.4,2.9,1.4,5.1
			c0,2.2-0.5,3.9-1.5,5.1C152.5,200.2,151.1,200.8,149.4,200.8z M149.1,188.7c-1.4,0-2.4,0.4-3,1.1s-0.9,2-0.9,3.6v0.5
			c0,1.9,0.3,3.2,0.9,4c0.6,0.8,1.6,1.2,3,1.2c1.2,0,2.1-0.5,2.7-1.4s1-2.2,1-3.9c0-1.7-0.3-2.9-1-3.8
			C151.2,189.1,150.3,188.7,149.1,188.7z"/>
		<path fill="#603813" d="M164.6,187c0.6,0,1.1,0,1.6,0.1l-0.3,1.9c-0.6-0.1-1-0.2-1.5-0.2c-1.1,0-2,0.4-2.8,1.3
			c-0.8,0.9-1.2,2-1.2,3.3v7.2h-2v-13.4h1.7l0.2,2.5h0.1c0.5-0.9,1.1-1.5,1.8-2C163,187.2,163.7,187,164.6,187z"/>
		<path fill="#603813" d="M180.2,193.9c0,2.2-0.5,3.9-1.6,5.1c-1.1,1.2-2.6,1.8-4.6,1.8c-1.2,0-2.3-0.3-3.2-0.8s-1.6-1.4-2.1-2.4
			c-0.5-1-0.8-2.3-0.8-3.7c0-2.2,0.5-3.9,1.6-5.1c1.1-1.2,2.6-1.8,4.5-1.8c1.9,0,3.4,0.6,4.5,1.9S180.2,191.8,180.2,193.9z
			 M170,193.9c0,1.7,0.3,3,1,3.9c0.7,0.9,1.7,1.3,3,1.3s2.3-0.4,3-1.3c0.7-0.9,1-2.2,1-3.9c0-1.7-0.3-3-1-3.9
			c-0.7-0.9-1.7-1.3-3-1.3c-1.3,0-2.3,0.4-3,1.3S170,192.2,170,193.9z"/>
		<path fill="#603813" d="M186.7,200.6l-5.1-13.4h2.2l2.9,7.9c0.7,1.9,1,3.1,1.1,3.6h0.1c0.1-0.4,0.4-1.3,0.8-2.7
			c0.5-1.4,1.5-4.3,3.2-8.9h2.2l-5.1,13.4H186.7z"/>
		<path fill="#603813" d="M207.8,193.9c0,2.2-0.5,3.9-1.6,5.1c-1.1,1.2-2.6,1.8-4.6,1.8c-1.2,0-2.3-0.3-3.2-0.8s-1.6-1.4-2.1-2.4
			c-0.5-1-0.8-2.3-0.8-3.7c0-2.2,0.5-3.9,1.6-5.1c1.1-1.2,2.6-1.8,4.5-1.8c1.9,0,3.4,0.6,4.5,1.9S207.8,191.8,207.8,193.9z
			 M197.7,193.9c0,1.7,0.3,3,1,3.9c0.7,0.9,1.7,1.3,3,1.3s2.3-0.4,3-1.3c0.7-0.9,1-2.2,1-3.9c0-1.7-0.3-3-1-3.9
			c-0.7-0.9-1.7-1.3-3-1.3c-1.3,0-2.3,0.4-3,1.3S197.7,192.2,197.7,193.9z"/>
		<path fill="#603813" d="M216.7,200.8c-1.9,0-3.4-0.6-4.5-1.8c-1.1-1.2-1.6-2.9-1.6-5.1c0-2.2,0.5-4,1.6-5.2
			c1.1-1.2,2.6-1.8,4.6-1.8c0.6,0,1.3,0.1,1.9,0.2c0.6,0.1,1.1,0.3,1.5,0.5l-0.6,1.7c-0.4-0.2-0.9-0.3-1.5-0.4
			c-0.5-0.1-1-0.2-1.4-0.2c-2.7,0-4.1,1.7-4.1,5.2c0,1.6,0.3,2.9,1,3.8s1.6,1.3,2.9,1.3c1.1,0,2.3-0.2,3.4-0.7v1.8
			C219.2,200.6,218.1,200.8,216.7,200.8z"/>
		<path fill="#603813" d="M231.5,200.6l-0.4-1.9H231c-0.7,0.8-1.3,1.4-2,1.7c-0.7,0.3-1.5,0.4-2.5,0.4c-1.3,0-2.4-0.3-3.1-1
			s-1.1-1.7-1.1-2.9c0-2.7,2.2-4.1,6.5-4.2l2.3-0.1v-0.8c0-1-0.2-1.8-0.7-2.3c-0.5-0.5-1.2-0.8-2.2-0.8c-1.1,0-2.4,0.3-3.8,1
			l-0.6-1.6c0.7-0.4,1.4-0.6,2.2-0.8c0.8-0.2,1.6-0.3,2.4-0.3c1.6,0,2.8,0.4,3.5,1.1c0.8,0.7,1.2,1.8,1.2,3.4v9.1H231.5z
			 M228.1,185.4c-1.1,0-2-0.3-2.7-0.8c-0.6-0.6-1-1.4-1.1-2.4h1.3c0,0.4,0.2,0.7,0.3,0.9c0.2,0.2,0.4,0.4,0.7,0.5
			c0.3,0.1,0.8,0.2,1.5,0.2c0.8,0,1.4-0.1,1.8-0.4s0.6-0.7,0.7-1.2h1.3c-0.1,1-0.5,1.8-1.1,2.4C230.1,185.2,229.2,185.4,228.1,185.4
			z M227,199.2c1.3,0,2.3-0.3,3-1c0.7-0.7,1.1-1.7,1.1-2.9V194l-2,0.1c-1.6,0.1-2.8,0.3-3.5,0.8c-0.7,0.4-1.1,1.1-1.1,2.1
			c0,0.7,0.2,1.3,0.7,1.7S226.2,199.2,227,199.2z"/>
		<path fill="#603813" d="M243.3,187c0.6,0,1.1,0,1.6,0.1l-0.3,1.9c-0.6-0.1-1-0.2-1.5-0.2c-1.1,0-2,0.4-2.8,1.3
			c-0.8,0.9-1.2,2-1.2,3.3v7.2h-2v-13.4h1.7l0.2,2.5h0.1c0.5-0.9,1.1-1.5,1.8-2C241.7,187.2,242.5,187,243.3,187z"/>
		<path fill="#603813" d="M247.2,183.6c0-0.5,0.1-0.8,0.3-1c0.2-0.2,0.5-0.3,0.9-0.3c0.3,0,0.6,0.1,0.8,0.3c0.2,0.2,0.4,0.6,0.4,1
			c0,0.5-0.1,0.8-0.4,1c-0.2,0.2-0.5,0.3-0.8,0.3c-0.3,0-0.6-0.1-0.9-0.3C247.4,184.4,247.2,184,247.2,183.6z M249.4,200.6h-2v-13.4
			h2V200.6z"/>
		<path fill="#603813" d="M269.3,198.8h-0.1c-0.9,1.4-2.3,2-4.2,2c-1.7,0-3.1-0.6-4.1-1.8s-1.5-2.9-1.5-5.1c0-2.2,0.5-3.9,1.5-5.1
			s2.3-1.8,4.1-1.8c1.8,0,3.2,0.7,4.2,2h0.2l-0.1-1l0-0.9v-5.4h2v19h-1.6L269.3,198.8z M265.3,199.1c1.4,0,2.4-0.4,3-1.1
			c0.6-0.8,0.9-2,0.9-3.6v-0.4c0-1.9-0.3-3.2-0.9-4.1c-0.6-0.8-1.6-1.2-3-1.2c-1.2,0-2.1,0.5-2.7,1.4c-0.6,0.9-0.9,2.2-0.9,3.9
			c0,1.7,0.3,3,0.9,3.9S264.1,199.1,265.3,199.1z"/>
		<path fill="#603813" d="M281.2,200.8c-2,0-3.5-0.6-4.7-1.8c-1.1-1.2-1.7-2.9-1.7-5c0-2.2,0.5-3.9,1.6-5.1c1.1-1.3,2.5-1.9,4.3-1.9
			c1.7,0,3,0.6,4,1.7c1,1.1,1.5,2.6,1.5,4.4v1.3h-9.2c0,1.6,0.4,2.8,1.2,3.6c0.8,0.8,1.8,1.2,3.2,1.2c1.4,0,2.9-0.3,4.3-0.9v1.8
			c-0.7,0.3-1.4,0.5-2,0.7C282.9,200.8,282.1,200.8,281.2,200.8z M280.6,188.7c-1.1,0-1.9,0.4-2.6,1c-0.6,0.7-1,1.7-1.1,2.9h7
			c0-1.3-0.3-2.3-0.9-2.9C282.5,189,281.7,188.7,280.6,188.7z"/>
		<path fill="#603813" d="M293,185.2c1-1.1,1.8-1.9,2.2-2.4c0.4-0.5,0.7-0.9,0.9-1.3h2c0.2,0.3,0.5,0.8,0.9,1.3
			c0.4,0.5,1.2,1.3,2.2,2.4v0.3h-1.5c-0.7-0.4-1.6-1.2-2.7-2.3c-1.1,1.1-2,1.8-2.7,2.3H293V185.2z M298.1,200.6h-2v-13.4h2V200.6z"
			/>
		<path fill="#603813" d="M311.5,200.6v-8.7c0-1.1-0.2-1.9-0.7-2.4c-0.5-0.5-1.3-0.8-2.3-0.8c-1.4,0-2.4,0.4-3.1,1.1
			c-0.7,0.8-1,2-1,3.7v7h-2v-13.4h1.6l0.3,1.8h0.1c0.4-0.7,1-1.2,1.7-1.5c0.7-0.4,1.6-0.5,2.5-0.5c1.6,0,2.8,0.4,3.6,1.2
			c0.8,0.8,1.2,2,1.2,3.7v8.7H311.5z"/>
		<path fill="#603813" d="M326.8,198.8h-0.1c-0.9,1.4-2.3,2-4.2,2c-1.7,0-3.1-0.6-4.1-1.8s-1.5-2.9-1.5-5.1c0-2.2,0.5-3.9,1.5-5.1
			s2.3-1.8,4.1-1.8c1.8,0,3.2,0.7,4.2,2h0.2l-0.1-1l0-0.9v-5.4h2v19h-1.6L326.8,198.8z M322.8,199.1c1.4,0,2.4-0.4,3-1.1
			c0.6-0.8,0.9-2,0.9-3.6v-0.4c0-1.9-0.3-3.2-0.9-4.1c-0.6-0.8-1.6-1.2-3-1.2c-1.2,0-2.1,0.5-2.7,1.4c-0.6,0.9-0.9,2.2-0.9,3.9
			c0,1.7,0.3,3,0.9,3.9S321.6,199.1,322.8,199.1z"/>
		<path fill="#603813" d="M338.7,200.8c-2,0-3.5-0.6-4.7-1.8c-1.1-1.2-1.7-2.9-1.7-5c0-2.2,0.5-3.9,1.6-5.1c1.1-1.3,2.5-1.9,4.3-1.9
			c1.7,0,3,0.6,4,1.7c1,1.1,1.5,2.6,1.5,4.4v1.3h-9.2c0,1.6,0.4,2.8,1.2,3.6c0.8,0.8,1.8,1.2,3.2,1.2c1.4,0,2.9-0.3,4.3-0.9v1.8
			c-0.7,0.3-1.4,0.5-2,0.7C340.4,200.8,339.6,200.8,338.7,200.8z M338.2,188.7c-1.1,0-1.9,0.4-2.6,1c-0.6,0.7-1,1.7-1.1,2.9h7
			c0-1.3-0.3-2.3-0.9-2.9C340,189,339.2,188.7,338.2,188.7z"/>
		<path fill="#603813" d="M353.3,200.8c-0.9,0-1.7-0.2-2.4-0.5c-0.7-0.3-1.3-0.8-1.8-1.5H349c0.1,0.8,0.1,1.5,0.1,2.2v5.5h-2v-19.4
			h1.6l0.3,1.8h0.1c0.5-0.7,1.1-1.3,1.8-1.6c0.7-0.3,1.5-0.5,2.4-0.5c1.8,0,3.1,0.6,4.1,1.8c1,1.2,1.4,2.9,1.4,5.1
			c0,2.2-0.5,3.9-1.5,5.1C356.4,200.2,355,200.8,353.3,200.8z M353,188.7c-1.4,0-2.4,0.4-3,1.1c-0.6,0.8-0.9,2-0.9,3.6v0.5
			c0,1.9,0.3,3.2,0.9,4c0.6,0.8,1.6,1.2,3,1.2c1.2,0,2.1-0.5,2.7-1.4s1-2.2,1-3.9c0-1.7-0.3-2.9-1-3.8
			C355.1,189.1,354.2,188.7,353,188.7z"/>
		<path fill="#603813" d="M364.4,200.6h-2v-19h2V200.6z"/>
		<path fill="#603813" d="M368.6,183.6c0-0.5,0.1-0.8,0.3-1c0.2-0.2,0.5-0.3,0.9-0.3c0.3,0,0.6,0.1,0.8,0.3c0.2,0.2,0.4,0.6,0.4,1
			c0,0.5-0.1,0.8-0.4,1c-0.2,0.2-0.5,0.3-0.8,0.3c-0.3,0-0.6-0.1-0.9-0.3C368.7,184.4,368.6,184,368.6,183.6z M370.7,200.6h-2v-13.4
			h2V200.6z"/>
		<path fill="#603813" d="M384.2,200.6v-8.7c0-1.1-0.2-1.9-0.7-2.4c-0.5-0.5-1.3-0.8-2.3-0.8c-1.4,0-2.4,0.4-3.1,1.1s-1,2-1,3.7v7
			h-2v-13.4h1.6l0.3,1.8h0.1c0.4-0.7,1-1.2,1.7-1.5c0.7-0.4,1.6-0.5,2.5-0.5c1.6,0,2.8,0.4,3.6,1.2c0.8,0.8,1.2,2,1.2,3.7v8.7H384.2
			z"/>
		<path fill="#603813" d="M390.2,183.6c0-0.5,0.1-0.8,0.3-1c0.2-0.2,0.5-0.3,0.9-0.3c0.3,0,0.6,0.1,0.8,0.3c0.2,0.2,0.4,0.6,0.4,1
			c0,0.5-0.1,0.8-0.4,1c-0.2,0.2-0.5,0.3-0.8,0.3c-0.3,0-0.6-0.1-0.9-0.3C390.3,184.4,390.2,184,390.2,183.6z M392.4,200.6h-2v-13.4
			h2V200.6z"/>
		<path fill="#603813" d="M401,199.2c0.4,0,0.7,0,1-0.1c0.3-0.1,0.6-0.1,0.8-0.2v1.6c-0.2,0.1-0.5,0.2-1,0.3
			c-0.4,0.1-0.8,0.1-1.2,0.1c-2.6,0-3.9-1.4-3.9-4.1v-8h-1.9v-1l1.9-0.8l0.9-2.9h1.2v3.1h3.9v1.6h-3.9v7.9c0,0.8,0.2,1.4,0.6,1.9
			C399.8,198.9,400.4,199.2,401,199.2z"/>
	</g>
	<g>
		<path fill="#603813" d="M148.5,335.6c-1.9,0-3.4-0.6-4.5-1.8c-1.1-1.2-1.6-2.9-1.6-5.1c0-2.2,0.5-4,1.6-5.2
			c1.1-1.2,2.6-1.8,4.6-1.8c0.6,0,1.3,0.1,1.9,0.2c0.6,0.1,1.1,0.3,1.5,0.5l-0.6,1.7c-0.4-0.2-0.9-0.3-1.5-0.4
			c-0.5-0.1-1-0.2-1.4-0.2c-2.7,0-4.1,1.7-4.1,5.2c0,1.6,0.3,2.9,1,3.8c0.7,0.9,1.6,1.3,2.9,1.3c1.1,0,2.3-0.2,3.4-0.7v1.8
			C151,335.4,149.9,335.6,148.5,335.6z"/>
		<path fill="#603813" d="M164.2,335.4v-8.7c0-1.1-0.2-1.9-0.7-2.4c-0.5-0.5-1.3-0.8-2.3-0.8c-1.4,0-2.4,0.4-3.1,1.1
			c-0.6,0.8-1,2-1,3.8v7h-2v-19h2v5.8c0,0.7,0,1.3-0.1,1.7h0.1c0.4-0.6,1-1.1,1.7-1.5c0.7-0.4,1.6-0.6,2.5-0.6
			c1.6,0,2.9,0.4,3.7,1.2c0.8,0.8,1.2,2,1.2,3.7v8.7H164.2z"/>
		<path fill="#603813" d="M176,335.6c-2,0-3.5-0.6-4.7-1.8c-1.1-1.2-1.7-2.9-1.7-5c0-2.2,0.5-3.9,1.6-5.1c1.1-1.3,2.5-1.9,4.3-1.9
			c1.7,0,3,0.6,4,1.7s1.5,2.6,1.5,4.4v1.3h-9.2c0,1.6,0.4,2.8,1.2,3.6c0.8,0.8,1.8,1.2,3.2,1.2c1.4,0,2.9-0.3,4.3-0.9v1.8
			c-0.7,0.3-1.4,0.5-2,0.7C177.7,335.6,176.9,335.6,176,335.6z M175.5,323.5c-1.1,0-1.9,0.3-2.6,1c-0.6,0.7-1,1.7-1.1,2.9h7
			c0-1.3-0.3-2.3-0.9-2.9C177.4,323.8,176.6,323.5,175.5,323.5z"/>
		<path fill="#603813" d="M189.8,335.6c-1.9,0-3.4-0.6-4.5-1.8c-1.1-1.2-1.6-2.9-1.6-5.1c0-2.2,0.5-4,1.6-5.2
			c1.1-1.2,2.6-1.8,4.6-1.8c0.6,0,1.3,0.1,1.9,0.2c0.6,0.1,1.1,0.3,1.5,0.5l-0.6,1.7c-0.4-0.2-0.9-0.3-1.5-0.4
			c-0.5-0.1-1-0.2-1.4-0.2c-2.7,0-4.1,1.7-4.1,5.2c0,1.6,0.3,2.9,1,3.8c0.7,0.9,1.6,1.3,2.9,1.3c1.1,0,2.3-0.2,3.4-0.7v1.8
			C192.3,335.4,191.1,335.6,189.8,335.6z"/>
		<path fill="#603813" d="M198.3,328.5c0.3-0.5,0.9-1.1,1.6-2l4.3-4.6h2.4l-5.4,5.7l5.8,7.7h-2.5l-4.7-6.3l-1.5,1.3v5h-2v-19h2v10.1
			C198.3,326.9,198.3,327.6,198.3,328.5L198.3,328.5z"/>
		<path fill="#603813" d="M215.7,335.6c-0.9,0-1.7-0.2-2.4-0.5c-0.7-0.3-1.3-0.8-1.8-1.5h-0.1c0.1,0.8,0.1,1.5,0.1,2.2v5.5h-2V322
			h1.6l0.3,1.8h0.1c0.5-0.7,1.1-1.3,1.8-1.6c0.7-0.3,1.5-0.5,2.4-0.5c1.8,0,3.1,0.6,4.1,1.8c1,1.2,1.4,2.9,1.4,5.1
			c0,2.2-0.5,3.9-1.5,5.1C218.8,335,217.4,335.6,215.7,335.6z M215.4,323.5c-1.4,0-2.4,0.4-3,1.1s-0.9,2-0.9,3.6v0.5
			c0,1.9,0.3,3.2,0.9,4c0.6,0.8,1.6,1.2,3,1.2c1.2,0,2.1-0.5,2.7-1.4c0.7-0.9,1-2.2,1-3.9c0-1.7-0.3-2.9-1-3.8
			C217.5,323.9,216.6,323.5,215.4,323.5z"/>
		<path fill="#603813" d="M236.3,328.7c0,2.2-0.5,3.9-1.6,5.1s-2.6,1.8-4.6,1.8c-1.2,0-2.3-0.3-3.2-0.8s-1.6-1.4-2.1-2.4
			c-0.5-1-0.8-2.3-0.8-3.7c0-2.2,0.5-3.9,1.6-5.1c1.1-1.2,2.6-1.8,4.5-1.8c1.9,0,3.4,0.6,4.5,1.9
			C235.8,324.9,236.3,326.6,236.3,328.7z M226.1,328.7c0,1.7,0.3,3,1,3.9c0.7,0.9,1.7,1.3,3,1.3c1.3,0,2.3-0.4,3-1.3
			c0.7-0.9,1-2.2,1-3.9c0-1.7-0.3-3-1-3.9c-0.7-0.9-1.7-1.3-3-1.3c-1.3,0-2.3,0.4-3,1.3C226.5,325.7,226.1,327,226.1,328.7z"/>
		<path fill="#603813" d="M239.7,318.4c0-0.5,0.1-0.8,0.3-1c0.2-0.2,0.5-0.3,0.9-0.3c0.3,0,0.6,0.1,0.8,0.3c0.2,0.2,0.4,0.6,0.4,1
			c0,0.5-0.1,0.8-0.4,1c-0.2,0.2-0.5,0.3-0.8,0.3c-0.3,0-0.6-0.1-0.9-0.3C239.8,319.2,239.7,318.8,239.7,318.4z M241.9,335.4h-2V322
			h2V335.4z"/>
		<path fill="#603813" d="M255.3,335.4v-8.7c0-1.1-0.2-1.9-0.7-2.4c-0.5-0.5-1.3-0.8-2.3-0.8c-1.4,0-2.4,0.4-3.1,1.1
			c-0.7,0.8-1,2-1,3.7v7h-2V322h1.6l0.3,1.8h0.1c0.4-0.7,1-1.2,1.7-1.5c0.7-0.4,1.6-0.5,2.5-0.5c1.6,0,2.8,0.4,3.6,1.2
			c0.8,0.8,1.2,2,1.2,3.7v8.7H255.3z"/>
		<path fill="#603813" d="M265.9,334c0.4,0,0.7,0,1-0.1c0.3-0.1,0.6-0.1,0.8-0.2v1.5c-0.2,0.1-0.5,0.2-1,0.3
			c-0.4,0.1-0.8,0.1-1.2,0.1c-2.6,0-3.9-1.4-3.9-4.1v-8h-1.9v-1l1.9-0.8l0.9-2.9h1.2v3.1h3.9v1.6h-3.9v7.9c0,0.8,0.2,1.4,0.6,1.9
			C264.7,333.7,265.2,334,265.9,334z"/>
		<path fill="#603813" d="M272.3,322v8.7c0,1.1,0.2,1.9,0.7,2.4c0.5,0.5,1.3,0.8,2.3,0.8c1.4,0,2.4-0.4,3.1-1.1c0.6-0.8,1-2,1-3.7
			v-7h2v13.4h-1.7l-0.3-1.8h-0.1c-0.4,0.7-1,1.2-1.7,1.5c-0.7,0.3-1.6,0.5-2.5,0.5c-1.6,0-2.8-0.4-3.7-1.2c-0.8-0.8-1.2-2-1.2-3.7
			V322H272.3z"/>
		<path fill="#603813" d="M291.8,321.8c0.6,0,1.1,0,1.6,0.1l-0.3,1.9c-0.6-0.1-1-0.2-1.5-0.2c-1.1,0-2,0.4-2.8,1.3
			c-0.8,0.9-1.2,2-1.2,3.3v7.2h-2V322h1.7l0.2,2.5h0.1c0.5-0.9,1.1-1.5,1.8-2C290.2,322,291,321.8,291.8,321.8z"/>
		<path fill="#603813" d="M295.7,318.4c0-0.5,0.1-0.8,0.3-1c0.2-0.2,0.5-0.3,0.9-0.3c0.3,0,0.6,0.1,0.8,0.3c0.2,0.2,0.4,0.6,0.4,1
			c0,0.5-0.1,0.8-0.4,1c-0.2,0.2-0.5,0.3-0.8,0.3c-0.3,0-0.6-0.1-0.9-0.3C295.9,319.2,295.7,318.8,295.7,318.4z M297.9,335.4h-2V322
			h2V335.4z"/>
		<path fill="#603813" d="M317.8,333.6h-0.1c-0.9,1.4-2.3,2-4.2,2c-1.8,0-3.1-0.6-4.1-1.8s-1.5-2.9-1.5-5.1c0-2.2,0.5-3.9,1.5-5.1
			s2.3-1.8,4.1-1.8c1.8,0,3.2,0.7,4.2,2h0.2l-0.1-1l0-0.9v-5.4h2v19h-1.6L317.8,333.6z M313.8,333.9c1.4,0,2.4-0.4,3-1.1
			c0.6-0.8,0.9-2,0.9-3.6v-0.4c0-1.9-0.3-3.2-0.9-4.1c-0.6-0.8-1.6-1.2-3-1.2c-1.2,0-2.1,0.5-2.7,1.4c-0.6,0.9-0.9,2.2-0.9,3.9
			c0,1.7,0.3,3,0.9,3.9C311.6,333.5,312.6,333.9,313.8,333.9z"/>
		<path fill="#603813" d="M329.7,335.6c-2,0-3.5-0.6-4.7-1.8c-1.1-1.2-1.7-2.9-1.7-5c0-2.2,0.5-3.9,1.6-5.1c1.1-1.3,2.5-1.9,4.3-1.9
			c1.7,0,3,0.6,4,1.7s1.5,2.6,1.5,4.4v1.3h-9.2c0,1.6,0.4,2.8,1.2,3.6c0.8,0.8,1.8,1.2,3.2,1.2c1.4,0,2.9-0.3,4.3-0.9v1.8
			c-0.7,0.3-1.4,0.5-2,0.7C331.4,335.6,330.6,335.6,329.7,335.6z M329.1,323.5c-1.1,0-1.9,0.3-2.6,1c-0.6,0.7-1,1.7-1.1,2.9h7
			c0-1.3-0.3-2.3-0.9-2.9C331,323.8,330.2,323.5,329.1,323.5z"/>
		<path fill="#603813" d="M350.7,321.8c0.6,0,1.1,0,1.6,0.1l-0.3,1.9c-0.6-0.1-1-0.2-1.5-0.2c-1.1,0-2,0.4-2.8,1.3
			c-0.8,0.9-1.2,2-1.2,3.3v7.2h-2V322h1.7l0.2,2.5h0.1c0.5-0.9,1.1-1.5,1.8-2S349.8,321.8,350.7,321.8z"/>
		<path fill="#603813" d="M360.4,335.6c-2,0-3.5-0.6-4.7-1.8c-1.1-1.2-1.7-2.9-1.7-5c0-2.2,0.5-3.9,1.6-5.1c1.1-1.3,2.5-1.9,4.3-1.9
			c1.7,0,3,0.6,4,1.7s1.5,2.6,1.5,4.4v1.3h-9.2c0,1.6,0.4,2.8,1.2,3.6c0.8,0.8,1.8,1.2,3.2,1.2c1.4,0,2.9-0.3,4.3-0.9v1.8
			c-0.7,0.3-1.4,0.5-2,0.7C362.1,335.6,361.3,335.6,360.4,335.6z M359.9,323.5c-1.1,0-1.9,0.3-2.6,1c-0.6,0.7-1,1.7-1.1,2.9h7
			c0-1.3-0.3-2.3-0.9-2.9C361.7,323.8,360.9,323.5,359.9,323.5z"/>
		<path fill="#603813" d="M375,335.6c-0.9,0-1.7-0.2-2.4-0.5c-0.7-0.3-1.3-0.8-1.8-1.5h-0.1c0.1,0.8,0.1,1.5,0.1,2.2v5.5h-2V322h1.6
			l0.3,1.8h0.1c0.5-0.7,1.1-1.3,1.8-1.6c0.7-0.3,1.5-0.5,2.4-0.5c1.8,0,3.1,0.6,4.1,1.8c1,1.2,1.4,2.9,1.4,5.1
			c0,2.2-0.5,3.9-1.5,5.1C378.1,335,376.8,335.6,375,335.6z M374.7,323.5c-1.4,0-2.4,0.4-3,1.1s-0.9,2-0.9,3.6v0.5
			c0,1.9,0.3,3.2,0.9,4c0.6,0.8,1.6,1.2,3,1.2c1.2,0,2.1-0.5,2.7-1.4c0.7-0.9,1-2.2,1-3.9c0-1.7-0.3-2.9-1-3.8
			C376.8,323.9,375.9,323.5,374.7,323.5z"/>
		<path fill="#603813" d="M389.8,335.6c-2,0-3.5-0.6-4.7-1.8c-1.1-1.2-1.7-2.9-1.7-5c0-2.2,0.5-3.9,1.6-5.1c1.1-1.3,2.5-1.9,4.3-1.9
			c1.7,0,3,0.6,4,1.7s1.5,2.6,1.5,4.4v1.3h-9.2c0,1.6,0.4,2.8,1.2,3.6c0.8,0.8,1.8,1.2,3.2,1.2c1.4,0,2.9-0.3,4.3-0.9v1.8
			c-0.7,0.3-1.4,0.5-2,0.7C391.4,335.6,390.7,335.6,389.8,335.6z M389.2,323.5c-1.1,0-1.9,0.3-2.6,1c-0.6,0.7-1,1.7-1.1,2.9h7
			c0-1.3-0.3-2.3-0.9-2.9C391.1,323.8,390.3,323.5,389.2,323.5z"/>
		<path fill="#603813" d="M404.2,321.8c0.6,0,1.1,0,1.6,0.1l-0.3,1.9c-0.6-0.1-1-0.2-1.5-0.2c-1.1,0-2,0.4-2.8,1.3
			c-0.8,0.9-1.2,2-1.2,3.3v7.2h-2V322h1.7l0.2,2.5h0.1c0.5-0.9,1.1-1.5,1.8-2C402.6,322,403.4,321.8,404.2,321.8z"/>
		<path fill="#603813" d="M416.6,335.4l-0.4-1.9h-0.1c-0.7,0.8-1.3,1.4-2,1.7s-1.5,0.4-2.5,0.4c-1.3,0-2.4-0.3-3.1-1
			c-0.8-0.7-1.1-1.7-1.1-2.9c0-2.7,2.2-4.1,6.5-4.2l2.3-0.1v-0.8c0-1-0.2-1.8-0.7-2.3c-0.5-0.5-1.2-0.8-2.2-0.8
			c-1.1,0-2.4,0.3-3.8,1l-0.6-1.6c0.7-0.4,1.4-0.6,2.2-0.8c0.8-0.2,1.6-0.3,2.4-0.3c1.6,0,2.8,0.4,3.5,1.1c0.8,0.7,1.2,1.8,1.2,3.4
			v9.1H416.6z M412,334c1.3,0,2.3-0.3,3-1c0.7-0.7,1.1-1.7,1.1-2.9v-1.2l-2,0.1c-1.6,0.1-2.8,0.3-3.5,0.8s-1.1,1.1-1.1,2.1
			c0,0.7,0.2,1.3,0.7,1.7C410.6,333.8,411.2,334,412,334z"/>
		<path fill="#603813" d="M426.6,334c0.4,0,0.7,0,1-0.1c0.3-0.1,0.6-0.1,0.8-0.2v1.5c-0.2,0.1-0.5,0.2-1,0.3
			c-0.4,0.1-0.8,0.1-1.2,0.1c-2.6,0-3.9-1.4-3.9-4.1v-8h-1.9v-1l1.9-0.8l0.9-2.9h1.2v3.1h3.9v1.6h-3.9v7.9c0,0.8,0.2,1.4,0.6,1.9
			C425.4,333.7,425.9,334,426.6,334z"/>
	</g>
	<g>
		<path fill="#603813" d="M159.7,479.2c0,2.2-0.5,3.9-1.6,5.1s-2.6,1.8-4.6,1.8c-1.2,0-2.3-0.3-3.2-0.8c-0.9-0.6-1.6-1.4-2.1-2.4
			c-0.5-1-0.8-2.3-0.8-3.7c0-2.2,0.5-3.9,1.6-5.1c1.1-1.2,2.6-1.8,4.5-1.8c1.9,0,3.4,0.6,4.5,1.9
			C159.1,475.4,159.7,477.1,159.7,479.2z M149.5,479.2c0,1.7,0.3,3,1,3.9c0.7,0.9,1.7,1.3,3,1.3c1.3,0,2.3-0.4,3-1.3
			c0.7-0.9,1-2.2,1-3.9c0-1.7-0.3-3-1-3.9c-0.7-0.9-1.7-1.3-3-1.3c-1.3,0-2.3,0.4-3,1.3C149.8,476.2,149.5,477.5,149.5,479.2z"/>
		<path fill="#603813" d="M169.4,472.3c0.6,0,1.1,0,1.6,0.1l-0.3,1.9c-0.6-0.1-1-0.2-1.5-0.2c-1.1,0-2,0.4-2.8,1.3
			c-0.8,0.9-1.2,2-1.2,3.3v7.2h-2v-13.4h1.7l0.2,2.5h0.1c0.5-0.9,1.1-1.5,1.8-2C167.7,472.5,168.5,472.3,169.4,472.3z"/>
		<path fill="#603813" d="M179.1,486.1c-2,0-3.5-0.6-4.7-1.8c-1.1-1.2-1.7-2.9-1.7-5c0-2.2,0.5-3.9,1.6-5.1c1.1-1.3,2.5-1.9,4.3-1.9
			c1.7,0,3,0.6,4,1.7s1.5,2.6,1.5,4.4v1.3h-9.2c0,1.6,0.4,2.8,1.2,3.6c0.8,0.8,1.8,1.2,3.2,1.2c1.4,0,2.9-0.3,4.3-0.9v1.8
			c-0.7,0.3-1.4,0.5-2,0.7C180.8,486.1,180,486.1,179.1,486.1z M178.6,474c-1.1,0-1.9,0.3-2.6,1c-0.6,0.7-1,1.7-1.1,2.9h7
			c0-1.3-0.3-2.3-0.9-2.9C180.4,474.3,179.6,474,178.6,474z"/>
		<path fill="#603813" d="M196,485.9h-2v-19h2V485.9z"/>
		<path fill="#603813" d="M208.5,485.9l-0.4-1.9H208c-0.7,0.8-1.3,1.4-2,1.7c-0.7,0.3-1.5,0.4-2.5,0.4c-1.3,0-2.4-0.3-3.1-1
			c-0.8-0.7-1.1-1.7-1.1-2.9c0-2.7,2.2-4.1,6.5-4.2l2.3-0.1V477c0-1.1-0.2-1.8-0.7-2.3c-0.5-0.5-1.2-0.8-2.2-0.8
			c-1.1,0-2.4,0.3-3.8,1l-0.6-1.6c0.7-0.4,1.4-0.6,2.2-0.8c0.8-0.2,1.6-0.3,2.4-0.3c1.6,0,2.8,0.4,3.5,1.1c0.8,0.7,1.2,1.8,1.2,3.4
			v9.1H208.5z M203.9,484.5c1.3,0,2.3-0.3,3-1c0.7-0.7,1.1-1.7,1.1-2.9v-1.2l-2,0.1c-1.6,0.1-2.8,0.3-3.5,0.8
			c-0.7,0.4-1.1,1.1-1.1,2.1c0,0.7,0.2,1.3,0.7,1.7C202.5,484.3,203.1,484.5,203.9,484.5z"/>
		<path fill="#603813" d="M229.8,484.1h-0.1c-0.9,1.4-2.3,2-4.2,2c-1.8,0-3.1-0.6-4.1-1.8c-1-1.2-1.5-2.9-1.5-5.1
			c0-2.2,0.5-3.9,1.5-5.1s2.3-1.8,4.1-1.8c1.8,0,3.2,0.7,4.2,2h0.2l-0.1-1l0-0.9v-5.4h2v19h-1.6L229.8,484.1z M225.7,484.4
			c1.4,0,2.4-0.4,3-1.1c0.6-0.8,0.9-2,0.9-3.6v-0.4c0-1.9-0.3-3.3-0.9-4.1c-0.6-0.8-1.6-1.2-3-1.2c-1.2,0-2.1,0.5-2.7,1.4
			c-0.6,0.9-0.9,2.2-0.9,3.9c0,1.7,0.3,3,0.9,3.9C223.6,484,224.5,484.4,225.7,484.4z"/>
		<path fill="#603813" d="M235.8,468.9c0-0.5,0.1-0.8,0.3-1c0.2-0.2,0.5-0.3,0.9-0.3c0.3,0,0.6,0.1,0.8,0.3c0.2,0.2,0.4,0.6,0.4,1
			c0,0.5-0.1,0.8-0.4,1c-0.2,0.2-0.5,0.3-0.8,0.3c-0.3,0-0.6-0.1-0.9-0.3C236,469.7,235.8,469.3,235.8,468.9z M238,485.9h-2v-13.4h2
			V485.9z"/>
		<path fill="#603813" d="M251,482.2c0,1.2-0.5,2.2-1.4,2.9c-0.9,0.7-2.2,1-3.9,1c-1.8,0-3.2-0.3-4.1-0.8v-1.9
			c0.6,0.3,1.3,0.6,2.1,0.8c0.7,0.2,1.4,0.3,2.1,0.3c1.1,0,1.9-0.2,2.4-0.5c0.6-0.3,0.9-0.9,0.9-1.5c0-0.5-0.2-1-0.7-1.3
			s-1.3-0.8-2.6-1.3c-1.2-0.5-2.1-0.9-2.7-1.2c-0.5-0.3-0.9-0.7-1.2-1.2c-0.3-0.4-0.4-1-0.4-1.6c0-1.1,0.4-2,1.3-2.6
			c0.9-0.6,2.1-0.9,3.7-0.9c1.4,0,2.8,0.3,4.2,0.9l-0.7,1.6c-1.3-0.6-2.6-0.8-3.6-0.8c-1,0-1.7,0.2-2.2,0.5s-0.7,0.7-0.7,1.2
			c0,0.4,0.1,0.7,0.3,0.9c0.2,0.3,0.5,0.5,0.9,0.7c0.4,0.2,1.2,0.6,2.3,1c1.6,0.6,2.7,1.2,3.2,1.7C250.7,480.6,251,481.3,251,482.2z
			"/>
		<path fill="#603813" d="M260.5,486.1c-0.9,0-1.7-0.2-2.4-0.5c-0.7-0.3-1.3-0.8-1.8-1.5h-0.1c0.1,0.8,0.1,1.5,0.1,2.2v5.5h-2v-19.4
			h1.6l0.3,1.8h0.1c0.5-0.7,1.1-1.3,1.8-1.6c0.7-0.3,1.5-0.5,2.4-0.5c1.8,0,3.1,0.6,4.1,1.8c1,1.2,1.4,2.9,1.4,5.1
			c0,2.2-0.5,3.9-1.5,5.1C263.6,485.5,262.2,486.1,260.5,486.1z M260.2,474c-1.4,0-2.4,0.4-3,1.1c-0.6,0.8-0.9,2-0.9,3.6v0.5
			c0,1.9,0.3,3.2,0.9,4c0.6,0.8,1.6,1.2,3,1.2c1.2,0,2.1-0.5,2.7-1.4s1-2.2,1-3.9c0-1.7-0.3-2.9-1-3.8
			C262.3,474.4,261.4,474,260.2,474z"/>
		<path fill="#603813" d="M281.1,479.2c0,2.2-0.5,3.9-1.6,5.1c-1.1,1.2-2.6,1.8-4.6,1.8c-1.2,0-2.3-0.3-3.2-0.8
			c-0.9-0.6-1.6-1.4-2.1-2.4c-0.5-1-0.8-2.3-0.8-3.7c0-2.2,0.5-3.9,1.6-5.1c1.1-1.2,2.6-1.8,4.5-1.8c1.9,0,3.4,0.6,4.5,1.9
			C280.6,475.4,281.1,477.1,281.1,479.2z M270.9,479.2c0,1.7,0.3,3,1,3.9c0.7,0.9,1.7,1.3,3,1.3s2.3-0.4,3-1.3c0.7-0.9,1-2.2,1-3.9
			c0-1.7-0.3-3-1-3.9c-0.7-0.9-1.7-1.3-3-1.3c-1.3,0-2.3,0.4-3,1.3S270.9,477.5,270.9,479.2z"/>
		<path fill="#603813" d="M293.2,485.9h-9.7v-1.4l7.3-10.4H284v-1.6h9.1v1.6l-7.2,10.2h7.4V485.9z"/>
		<path fill="#603813" d="M296.2,468.9c0-0.5,0.1-0.8,0.3-1s0.5-0.3,0.9-0.3c0.3,0,0.6,0.1,0.8,0.3c0.2,0.2,0.4,0.6,0.4,1
			c0,0.5-0.1,0.8-0.4,1c-0.2,0.2-0.5,0.3-0.8,0.3c-0.3,0-0.6-0.1-0.9-0.3S296.2,469.3,296.2,468.9z M298.4,485.9h-2v-13.4h2V485.9z"
			/>
		<path fill="#603813" d="M307,484.5c0.4,0,0.7,0,1-0.1c0.3-0.1,0.6-0.1,0.8-0.2v1.5c-0.2,0.1-0.5,0.2-1,0.3
			c-0.4,0.1-0.8,0.1-1.2,0.1c-2.6,0-3.9-1.4-3.9-4.1v-8h-1.9v-1l1.9-0.8l0.9-2.9h1.2v3.1h3.9v1.6h-3.9v7.9c0,0.8,0.2,1.4,0.6,1.9
			C305.8,484.2,306.4,484.5,307,484.5z M308.3,489.4c0,0.8-0.3,1.4-0.9,1.8c-0.6,0.4-1.5,0.6-2.8,0.6c-0.4,0-0.8,0-1.2-0.1v-1.3
			c0.4,0.1,0.8,0.1,1.3,0.1c0.6,0,1.1-0.1,1.5-0.2c0.3-0.2,0.5-0.5,0.5-0.9c0-0.4-0.2-0.6-0.5-0.8s-0.9-0.4-1.8-0.5l1.1-2.2h1.3
			l-0.7,1.4C307.5,487.6,308.3,488.3,308.3,489.4z"/>
		<path fill="#603813" d="M311.4,468.9c0-0.5,0.1-0.8,0.3-1s0.5-0.3,0.9-0.3c0.3,0,0.6,0.1,0.8,0.3c0.2,0.2,0.4,0.6,0.4,1
			c0,0.5-0.1,0.8-0.4,1c-0.2,0.2-0.5,0.3-0.8,0.3c-0.3,0-0.6-0.1-0.9-0.3S311.4,469.3,311.4,468.9z M313.6,485.9h-2v-13.4h2V485.9z"
			/>
		<path fill="#603813" d="M323.5,486.1c-2,0-3.5-0.6-4.7-1.8c-1.1-1.2-1.7-2.9-1.7-5c0-2.2,0.5-3.9,1.6-5.1c1.1-1.3,2.5-1.9,4.3-1.9
			c1.7,0,3,0.6,4,1.7s1.5,2.6,1.5,4.4v1.3h-9.2c0,1.6,0.4,2.8,1.2,3.6c0.8,0.8,1.8,1.2,3.2,1.2c1.4,0,2.9-0.3,4.3-0.9v1.8
			c-0.7,0.3-1.4,0.5-2,0.7C325.2,486.1,324.4,486.1,323.5,486.1z M323,474c-1.1,0-1.9,0.3-2.6,1c-0.6,0.7-1,1.7-1.1,2.9h7
			c0-1.3-0.3-2.3-0.9-2.9C324.8,474.3,324,474,323,474z"/>
	</g>
</g>
</svg>
