<svg xmlns="http://www.w3.org/2000/svg" viewBox="0 0 579.93 549"><defs><style>.cls-1{fill:#5e3112;}.cls-2{fill:#9f5b26;}.cls-3{fill:#cda34f;}.cls-4{fill:#603813;}</style></defs><title>Asset 3</title><g id="Layer_2" data-name="Layer 2"><g id="Layer_15" data-name="Layer 15"><path class="cls-1" d="M55.4,6l2,4.69L59.6,6h5.27l3.32,4.32L76,7.79l6.25.3c.39,1.95,6.64,5,6.64,5s5.86,3.88,5.86,5.05-2,6.63,0,6.83,7.69,5.26,8.86,5.65,9.26,4.29,9.26,4.29v8.4s2.56,4.1,2.56,5.27a69.29,69.29,0,0,1,0,9.17c-.39,3.51.19,23.22.19,23.22h-8l-.78,9.32L103,93H98.26L92.4,98.82s-7.44,3.79-6.84,5,0,5.41,0,5.41l-12.29-6.27S72.88,97,71.71,97s-5.47-5.86-5.47-5.86l-8.69,10.15-5.76,13L42,119h-10l-6.44-3.08,3.51-2.61-6.24-9.7-8.59-1.53-5.09-1.16L6.87,95.86V88.44l-4-9L0,72,2.66,32.6,6.92,33,5.73,22.06,6.9,15.42l5.85-6.25L18.6,7.69,23.29,6h8.78l10.74,4.35L53,6Z"/><path class="cls-2" d="M55.4,2l2,4.69L59.6,2h5.27l3.32,4.46L76,4l6.25.34c.39,2,6.64,5,6.64,5s5.86,3.9,5.86,5.07-2,6.63,0,6.82,7.69,5.27,8.86,5.66,9.26,4.29,9.26,4.29v8.4s2.56,4.1,2.56,5.27a75,75,0,0,1,0,9.53c-.39,3.51.19,23.58.19,23.58h-8l-.78,8.82L103,89H98.26L92.4,95s-7.44,3.86-6.84,5,0,5.45,0,5.45L73.27,99.18s-.39-5.86-1.56-5.86-5.47-5.86-5.47-5.86L57.55,97.61,51.79,111,42,116h-10l-6.44-3.44,3.51-2.79L22.9,100,14.31,98.4,9.22,97.22,6.87,92.14V84.72l-4-9L0,68.32,2.66,28.88l4.26.39L5.73,18.34,6.9,11.7l5.85-6.25L18.6,3.83,23.29,2h8.78L42.81,6.35,53,2Z"/><path class="cls-3" d="M56.89,0l2,4.69L61.09,0h5.27l3.32,4.34,7.81-2.51,6.25.3c.39,2,6.64,5,6.64,5s5.85,3.88,5.85,5.05-2,6.63,0,6.83,8,5.26,9.13,5.65S114.87,29,114.87,29v8.4s2.3,4.1,2.3,5.27a83.07,83.07,0,0,1-.12,9.64c-.39,3.52,0,23.7,0,23.7h-8l-.78,8.82L104.43,87H99.75l-5.86,5.85s-7.44,3.8-6.84,5,0,5.42,0,5.42L74.76,97s-.39-5.87-1.57-5.87-5.46-5.86-5.46-5.86L59,95.38l-5.76,13L43.52,113h-10l-6.44-3,3.51-2.6-6.25-9.7-8.59-1.53L10.47,95l-2.6-5.06V82.49l-3.75-9L1.37,66.09,4.09,26.65,8.38,27,7.2,16.11,8.38,9.47l5.85-6.25,5.86-1.5L24.77,0h8.79L44.3,4.35,54.45,0Z"/><path class="cls-1" d="M76.22,147.82l-8.1-4.13-11.53,2-8.82-2s-3.84,7.65-3.84,8.8-2.71,19.92-2.71,19.92l-15.35,10V167.15L20,162.94l-9.13,9.38L6.33,187.46,7.9,198h-6v35.83l11.83,9,4.76,8,17.33,3.45,8.47,6.14,1.94-2.69s2.69-1.15,4.61-.38a12.52,12.52,0,0,1,3.84,3.07l1.91,3.66s6.9-4.43,8-4.43,11.71-.36,11.71-.36l3.62-3.09s1.54-1.92,3.07-1.92,7.67-.38,7.67-.38L93,247.44l6.9-2.3,5-5,2-4.59v-2.3l-3-1.15,6.83-6.14,3.41-43.3-5.77,6.13.38-13.41-3.84-5-4.22-5L96,162.36l-1.53-5-4.6-3.07Z"/><path class="cls-2" d="M76.22,144.1,68.12,140l-11.53,2-8.82-2s-3.84,7.65-3.84,8.8-2.71,19.92-2.71,19.92l-15.35,10V163.43L20,159.22,10.9,168.6,6.33,184.1,7.9,195h-6v35.11l11.83,9,4.76,8,17.33,3.44,8.47,6.14,1.94-2.69s2.69-1.15,4.61-.38a12.52,12.52,0,0,1,3.84,3.07l1.91,3.66s6.9-4.43,8-4.43,11.71-.36,11.71-.36l3.62-3.09s1.54-1.92,3.07-1.92,7.67-.38,7.67-.38L93,243.72l6.9-2.3,5-5,2-4.6v-2.3l-3-1.15,6.83-6.13L114.09,179l-5.77,6.13.38-13.41-3.84-5-4.22-5L96,158.64l-1.53-5-4.6-3.07Z"/><path class="cls-3" d="M77,141.13,68.86,137l-11.52,2-8.83-2s-3.84,7.65-3.84,8.8-2.58,19.92-2.58,19.92l-15.22,10V160.45l-6-4.21-9.19,9.39-4.6,15.48L8.64,192H2.87v35.14l11.7,9,4.7,8.05,17.3,3.45L45,253.77,47,251.09s2.69-1.15,4.61-.38a12.31,12.31,0,0,1,3.83,3.06l1.92,3.67s6.9-4.44,8-4.44,11.7-.36,11.7-.36l3.63-3.08s1.53-1.92,3.06-1.92,7.67-.38,7.67-.38l2.3-6.52,6.9-2.3,4.66-5,1.59-4.6v-2.3l-2.65-1.15,7-6.13L114.74,176,109,182.11l.4-13.42-3.83-5-4.21-5-4.6-3.07-1.53-5-4.6-3.07Z"/><path class="cls-1" d="M7.86,459.13l-1,6.57V473l-4.63,5.73L4.87,487v7.2s.12,3.24.22,5.53a95.87,95.87,0,0,1,.15,10.7C5,513.83,8,519.56,8,519.56s3.19,8,3.19,12.6,4.6,7.26,4.6,7.26,10.33-1.53,11.47,0,6.88,8.78,6.88,8.78l6.11-1.91,1.92-1.93,4.2,4.64H66.22l2.29-5.84,9.55.76,8-5.29,18-11.06,3.44-11.46-2.68-2.29,5.42-9.78,4.66-8.93V481.55L109.79,473s.08-7.26.08-8.4v-7.07l-.11-1.49h-8l-2.29-6h-6.3l-.2-8.76-4.39-3.42-2.86-3.44L75,436.7,69.66,430h-8.6l-4.39.95-5.73,1.55-5.35-.41-14.13,10.7-4.2-3.44-6.11,5.73L17.33,447l-3.9,5Z"/><path class="cls-2" d="M7.86,455.41l-1,6.57v7.26L2.24,475l2.63,8.27v7.2s.12,3.24.22,5.54a95.64,95.64,0,0,1,.15,10.69C5,510.11,8,515.84,8,515.84s3.19,8,3.19,12.6,4.6,7.26,4.6,7.26,10.33-1.53,11.47,0,6.88,8.78,6.88,8.78l6.11-1.91,1.92-2.07,4.2,4.5h3.82l9.45,1h6.59l2.29-6.2,9.55.58,8-5.38,18-11.11,3.44-11.47-2.68-2.3,5.42-9.8,4.66-8.93V477.83l-5.08-8.59s.08-7.26.08-8.4v-7.07l-.11-.77h-8l-2.29-6h-6.3l-.2-9.12-4.39-3.6-2.86-3.53L75,433.38,69.66,427h-8.6l-4.39.59L50.94,429l-5.35-.5L31.46,439.11l-4.2-3.46-6.11,5.72-3.82,1.9-3.9,5Z"/><path class="cls-3" d="M7.86,452.44l-1,6.57v7.25L2.24,472l2.63,8.27v7.2s.12,3.25.22,5.54a95.69,95.69,0,0,1,.15,10.69C5,507.13,8,512.86,8,512.86s3.19,8,3.19,12.61,4.6,7.25,4.6,7.25,10.33-1.53,11.47,0,6.88,8.79,6.88,8.79l6.11-1.91,1.92-2.09,4.2,4.49h3.82l9.45,1h6.59l2.29-6.19,9.55.59,8-5.37,18-11.11,3.44-11.48-2.68-2.3,5.42-9.79,4.66-8.93V474.86l-5.08-8.6s.08-7.25.08-8.4V450.8l-.11-.8h-8l-2.29-6h-6.3l-.2-9.11-4.39-3.59-2.86-3.53L75,430.39,69.66,424h-8.6l-4.39.6L50.94,426l-5.35-.49L31.46,436.14l-4.2-3.46-6.11,5.71-3.82,1.91-3.9,5Z"/><path class="cls-1" d="M35.3,400.21l3.14,3.16,6.14-3.22,5.74,2.65,2.61,3.38L62.16,404H73.59l1.52-3.16L82.35,399h5.52l4.39-6.1s3.81-1.72,4.95-2.1,4.57-10,4.57-10l-2.29-3.86s3.81-4.21,5.34-4.21,5.88,2.65,5.43,0,2.61-11.83,2.61-11.83V346.21l-8,.25,4.37-10.34,5-7.62-4.14-7.62L109,314.34,106,312h-5.52s2.47-9.38,1-9.38S89.59,294,89.59,294H84.44l-5.9-4.09L75,288H69.59a70.56,70.56,0,0,1-7.43.45C61,288.26,56.82,291,56.82,291H50.73a22.37,22.37,0,0,1-5.34.94c-2.28,0-8.76,1.7-8.76,1.7l-3.05.28L29,292.35l-2.29-.4-4.19,3.41L19.87,303l-4.2,3.8-2.78,2.29-2,7.23v18.48l-7.79,4.77L6,349.07,3.2,355.93l.67,4.19v2.67l3,11,1,3.86,2.24,3.3,3.66-6.73,3.19.38.91,6.09v3.24l3.67,4.77L25.65,394Z"/><path class="cls-2" d="M35.3,396.49l3.14,3.16,6.14-3.22,5.74,2.65,2.61,3.74L62.16,401H73.59l1.52-3.66L82.35,395h5.52l4.39-6s3.81-1.65,4.95-2,4.57-10,4.57-10l-2.29-3.84s3.81-4.21,5.34-4.21,5.88,2.66,5.43,0,2.61-11.82,2.61-11.82V342.49l-8,.25,4.37-10.34,5-7.62-4.14-7.62L109,310.48,106,308h-5.52s2.47-9.38,1-9.38S89.59,290,89.59,290H84.44l-5.9-3.59L75,285H69.59a70.56,70.56,0,0,1-7.43.45C61,285.26,56.82,288,56.82,288H50.73a35,35,0,0,1-5.34.58c-2.28,0-8.76,1.52-8.76,1.52l-3.05.2L29,288.68l-2.29-.43-4.19,3.4-2.66,7.61-4.2,3.81-2.78,2.28-2,7.24v18.47l-7.79,4.77L6,345.35,3.2,352.21l.67,4.19v2.67l3,11,1,3.86,2.24,3.3,3.66-6.73,3.19.38.91,6.09v3.24L21.54,385l4.11,5.33Z"/><path class="cls-3" d="M35.3,393.52l3.14,3.15,6.14-3.22,5.74,2.66,2.61,3.73L62.16,398H73.59l1.52-3.66L82.35,392h5.52l4.39-5.95s3.81-1.64,4.95-2,4.57-10,4.57-10l-2.29-3.84s3.81-4.21,5.34-4.21,5.88,2.66,5.43,0,2.61-11.82,2.61-11.82V339.52l-8,.25,4.37-10.35,5-7.62-4.14-7.62L109,307.5l-3-2.5h-5.52s2.47-8.88,1-8.88S89.59,288,89.59,288H84.44l-5.9-4.09L75,282H69.59a70.56,70.56,0,0,1-7.43.45C61,282.26,56.82,285,56.82,285H50.73a34.45,34.45,0,0,1-5.34.59c-2.28,0-8.76,1.53-8.76,1.53l-3.05.2L29,285.7l-2.29-.43-4.19,3.41-2.66,7.61-4.2,3.8-2.78,2.28-2,7.24v18.48l-7.79,4.76L6,342.38,3.2,349.23l.67,4.2v2.66l3,11,1,3.86,2.24,3.3,3.66-6.73,3.19.38.91,6.1v3.24L21.54,382l4.11,5.33Z"/><path class="cls-4" d="M133,494.36l-.09-10,20.15-.18.09,10Zm40.22-.37-.09-10,20.07-.18.09,10Zm40.14-.36-.09-10,20.05-.18.09,10Zm40.1-.36-.08-10,20-.18.09,10Zm40.1-.35-.09-10,20.05-.17.09,10Zm40.09-.34-.08-10,20-.17.08,10Zm40.08-.34-.08-10,20.05-.16.08,10Zm40.09-.32-.07-10,20.05-.15.08,10Zm40.11-.3-.07-10,20.07-.14.06,10Zm40.13-.26-.06-10c7.8-.05,14.57-.08,20.09-.1l0,10C508.63,491.28,501.87,491.31,494.08,491.36Zm41.16-1.54-2.36-9.72a35.19,35.19,0,0,0,15.33-8.05l6.65,7.46A45.13,45.13,0,0,1,535.24,489.82Zm32.66-27.67-8.9-4.56a86.85,86.85,0,0,0,6.54-17.72l9.69,2.51A96.76,96.76,0,0,1,567.9,462.15Zm11-40.18-9.94-1.1a161.67,161.67,0,0,0,1-17.32c0-.82,0-1.5,0-2.05l10-.18c0,.6,0,1.35,0,2.23A171.83,171.83,0,0,1,578.9,422ZM566.28,383.5A65.61,65.61,0,0,0,557.91,367l8.19-5.75a75.66,75.66,0,0,1,9.64,19Zm-21.07-30a73.14,73.14,0,0,0-15.93-9.78l4.11-9.12a83.47,83.47,0,0,1,18.11,11.11ZM511.87,341h-20V331h20Zm-40,0h-20V331h20Zm-40,0h-20V331h20Zm-40,0h-20V331h20Zm-40,0h-20V331h20Zm-40,0h-20V331h20Zm-40,0h-20V331h20Zm-40,0h-20V331h20Zm-40,0h-20V331h20Zm-40,0h-20V331h20Z"/><path class="cls-4" d="M133,209.36l-.09-10,20.15-.18.09,10Zm40.22-.37-.09-10,20.07-.18.09,10Zm40.14-.36-.09-10,20.05-.18.09,10Zm40.1-.36-.08-10,20-.18.09,10Zm40.1-.35-.09-10,20.05-.17.09,10Zm40.09-.34-.08-10,20-.17.08,10Zm40.08-.34-.08-10,20.05-.16.08,10Zm40.09-.32-.07-10,20.05-.15.08,10Zm40.11-.3-.07-10,20.07-.14.06,10Zm40.13-.26-.06-10c7.8-.05,14.57-.08,20.09-.1l0,10C508.63,206.28,501.87,206.31,494.08,206.36Zm41.16-1.54-2.36-9.72a35.19,35.19,0,0,0,15.33-8l6.65,7.46A45.13,45.13,0,0,1,535.24,204.82Zm32.66-27.67-8.9-4.56a86.85,86.85,0,0,0,6.54-17.72l9.69,2.51A96.76,96.76,0,0,1,567.9,177.15Zm11-40.18-9.94-1.1a161.67,161.67,0,0,0,1-17.32c0-.82,0-1.5,0-2l10-.18c0,.6,0,1.35,0,2.23A171.83,171.83,0,0,1,578.9,137ZM566.28,98.5A65.61,65.61,0,0,0,557.91,82l8.19-5.75a75.66,75.66,0,0,1,9.64,19Zm-21.07-30a73.14,73.14,0,0,0-15.93-9.78l4.11-9.12A83.47,83.47,0,0,1,551.5,60.69ZM511.87,56h-20V46h20Zm-40,0h-20V46h20Zm-40,0h-20V46h20Zm-40,0h-20V46h20Zm-40,0h-20V46h20Zm-40,0h-20V46h20Zm-40,0h-20V46h20Zm-40,0h-20V46h20Zm-40,0h-20V46h20Zm-40,0h-20V46h20Z"/><path class="cls-4" d="M70.07,459.6,61.25,475A17.51,17.51,0,0,1,73,480.64a17.74,17.74,0,0,1-.41,24.82,17.89,17.89,0,0,1-25.3,0,17.22,17.22,0,0,1-5.23-12.63,17.66,17.66,0,0,1,2-8.22c.09-.19.28-.54.54-1.05s.44-.85.57-1.08l13.23-22.94ZM60,485.12a7.63,7.63,0,1,0,5.46,2.22A7.41,7.41,0,0,0,60,485.12Z"/><path class="cls-4" d="M48.14,313.5v51.17H37.89V327.06l-5.11,1.49V317.88Z"/><path class="cls-4" d="M86.35,321.69a31.66,31.66,0,0,1,0,35.07c-3.62,5.08-8.76,8.22-14.57,8.22s-11-3.14-14.57-8.22a31.66,31.66,0,0,1,0-35.07c3.62-5.08,8.76-8.22,14.57-8.22S82.73,316.61,86.35,321.69Zm-14.6,2.1c-2.32,0-4.54,1.46-6.25,3.84a21.82,21.82,0,0,0,0,23.17c1.71,2.38,3.93,3.84,6.25,3.84s4.54-1.46,6.25-3.84a21.82,21.82,0,0,0,0-23.17C76.29,325.25,74.07,323.79,71.75,323.79Z"/><path class="cls-4" d="M63.39,171.23l-10.89,30H63.39V181.39H73.61v19.84h5.14v10.22H73.61v10.88H63.39V211.45H37.14l15.2-40.28Z"/><path class="cls-4" d="M128.3,29.17c0-1.43,0-2.65-.1-3.78h1.93l.07,2.38h.1a3.63,3.63,0,0,1,3.35-2.65,2.3,2.3,0,0,1,.62.07v2.08a3.16,3.16,0,0,0-.74-.08A3.09,3.09,0,0,0,130.58,30a6.18,6.18,0,0,0-.1,1v6.45H128.3Z"/><path class="cls-4" d="M147.17,31.34c0,4.47-3.1,6.42-6,6.42-3.27,0-5.8-2.4-5.8-6.22,0-4.05,2.65-6.42,6-6.42S147.17,27.64,147.17,31.34Zm-9.59.12c0,2.65,1.52,4.65,3.67,4.65s3.67-2,3.67-4.69c0-2.05-1-4.65-3.62-4.65S137.58,29.17,137.58,31.46Z"/><path class="cls-4" d="M150,19.74h2.2V37.49H150Z"/><path class="cls-4" d="M166,34.19c0,1.25,0,2.35.1,3.3h-1.95l-.12-2H164a4.55,4.55,0,0,1-4,2.25c-1.9,0-4.17-1-4.17-5.3V25.39H158v6.7c0,2.3.7,3.85,2.7,3.85a3.1,3.1,0,0,0,3.09-3.13V25.39H166Z"/><path class="cls-4" d="M169.63,29.17c0-1.43,0-2.65-.1-3.78h1.92l.08,2.38h.1A3.62,3.62,0,0,1,175,25.12a2.35,2.35,0,0,1,.62.07v2.08a3.25,3.25,0,0,0-.75-.08A3.09,3.09,0,0,0,171.9,30a6.18,6.18,0,0,0-.1,1v6.45h-2.17Z"/><path class="cls-4" d="M180.35,22a1.29,1.29,0,0,1-1.4,1.35A1.31,1.31,0,0,1,177.63,22,1.34,1.34,0,0,1,179,20.62,1.3,1.3,0,0,1,180.35,22Zm-2.45,15.5V25.39h2.2v12.1Z"/><path class="cls-4" d="M128.3,181.55c0-1.55-.05-2.8-.1-4h2l.1,2.07h.05a4.76,4.76,0,0,1,4.3-2.35c2.92,0,5.12,2.48,5.12,6.15,0,4.35-2.65,6.5-5.5,6.5a4.23,4.23,0,0,1-3.72-1.9h-.05v6.58H128.3Zm2.18,3.22a4.85,4.85,0,0,0,.1.9,3.39,3.39,0,0,0,3.3,2.58c2.32,0,3.67-1.9,3.67-4.68,0-2.42-1.28-4.5-3.6-4.5a3.51,3.51,0,0,0-3.32,2.73,3.32,3.32,0,0,0-.15.9Z"/><path class="cls-4" d="M142.53,181.37c0-1.42,0-2.65-.1-3.77h1.92l.08,2.37h.1a3.63,3.63,0,0,1,3.34-2.65,2.41,2.41,0,0,1,.63.08v2.07a3.36,3.36,0,0,0-.75-.07,3.08,3.08,0,0,0-2.95,2.82,6.2,6.2,0,0,0-.1,1v6.45h-2.17Z"/><path class="cls-4" d="M161.4,183.55c0,4.47-3.1,6.42-6,6.42-3.27,0-5.79-2.4-5.79-6.22,0-4.05,2.65-6.43,6-6.43S161.4,179.85,161.4,183.55Zm-9.6.12c0,2.65,1.53,4.65,3.68,4.65s3.67-2,3.67-4.7c0-2.05-1-4.65-3.63-4.65S151.8,181.37,151.8,183.67Z"/><path class="cls-4" d="M164.85,177.6l2.38,6.8a31,31,0,0,1,1,3.1h.08c.27-1,.62-2,1-3.1l2.35-6.8H174l-4.75,12.1h-2.1l-4.6-12.1Z"/><path class="cls-4" d="M186.72,183.55c0,4.47-3.1,6.42-6,6.42-3.27,0-5.8-2.4-5.8-6.22,0-4.05,2.65-6.43,6-6.43S186.72,179.85,186.72,183.55Zm-9.59.12c0,2.65,1.52,4.65,3.67,4.65s3.67-2,3.67-4.7c0-2.05-1-4.65-3.62-4.65S177.13,181.37,177.13,183.67Z"/><path class="cls-4" d="M198.12,189.25a8.08,8.08,0,0,1-3.47.7c-3.65,0-6-2.48-6-6.18a6.14,6.14,0,0,1,6.49-6.42,7.37,7.37,0,0,1,3,.62l-.5,1.7a5.09,5.09,0,0,0-2.55-.57c-2.77,0-4.27,2.05-4.27,4.57,0,2.8,1.8,4.53,4.2,4.53a6.34,6.34,0,0,0,2.7-.6Z"/><path class="cls-4" d="M207.4,189.7l-.18-1.53h-.07a4.49,4.49,0,0,1-3.7,1.8,3.44,3.44,0,0,1-3.7-3.47c0-2.93,2.6-4.53,7.27-4.5v-.25a2.49,2.49,0,0,0-2.75-2.8,6,6,0,0,0-3.14.9l-.5-1.45a7.51,7.51,0,0,1,4-1.08c3.7,0,4.6,2.53,4.6,5v4.53a17.07,17.07,0,0,0,.2,2.9Zm-4.3-17a1.83,1.83,0,0,0,1.8,1.73,1.78,1.78,0,0,0,1.8-1.73H208a3.1,3.1,0,0,1-6.2,0Zm4,10.87c-2.39-.05-5.12.38-5.12,2.73a2,2,0,0,0,2.07,2.1,3,3,0,0,0,2.93-2,2.39,2.39,0,0,0,.12-.7Z"/><path class="cls-4" d="M212.75,181.37c0-1.42,0-2.65-.1-3.77h1.93l.07,2.37h.1a3.63,3.63,0,0,1,3.35-2.65,2.33,2.33,0,0,1,.62.08v2.07a3.3,3.3,0,0,0-.75-.07,3.09,3.09,0,0,0-2.95,2.82,7.6,7.6,0,0,0-.09,1v6.45h-2.18Z"/><path class="cls-4" d="M223.48,174.2a1.37,1.37,0,0,1-2.73,0,1.34,1.34,0,0,1,1.38-1.37A1.31,1.31,0,0,1,223.48,174.2ZM221,189.7V177.6h2.2v12.1Z"/><path class="cls-4" d="M234.63,174.2a1.37,1.37,0,0,1-2.73,0,1.34,1.34,0,0,1,1.37-1.37A1.31,1.31,0,0,1,234.63,174.2Zm-2.45,15.5V177.6h2.2v12.1Z"/><path class="cls-4" d="M238,180.87c0-1.25,0-2.27-.09-3.27h1.94l.13,2h.05a4.45,4.45,0,0,1,4-2.28c1.67,0,4.27,1,4.27,5.15v7.23h-2.2v-7c0-1.95-.72-3.57-2.8-3.57a3.19,3.19,0,0,0-3.09,3.27v7.28H238Z"/><path class="cls-4" d="M253.12,184.05c.06,3,1.95,4.2,4.15,4.2a7.91,7.91,0,0,0,3.35-.63l.38,1.58a9.83,9.83,0,0,1-4,.75c-3.72,0-5.94-2.45-5.94-6.1s2.15-6.53,5.67-6.53c3.95,0,5,3.48,5,5.7a7.4,7.4,0,0,1-.08,1Zm6.45-1.58c0-1.4-.57-3.57-3.05-3.57-2.22,0-3.2,2-3.37,3.57Z"/><path class="cls-4" d="M274.87,172v14.62c0,1.08,0,2.3.1,3.13h-2l-.1-2.1h0a4.48,4.48,0,0,1-4.13,2.37c-2.92,0-5.17-2.47-5.17-6.15,0-4,2.47-6.5,5.42-6.5a4.06,4.06,0,0,1,3.65,1.85h.05V172Zm-2.2,10.57a3.6,3.6,0,0,0-.1-.92,3.23,3.23,0,0,0-3.17-2.55c-2.28,0-3.63,2-3.63,4.67,0,2.45,1.2,4.48,3.58,4.48a3.31,3.31,0,0,0,3.22-2.63,3.6,3.6,0,0,0,.1-.95Z"/><path class="cls-4" d="M281,174.2a1.37,1.37,0,0,1-2.73,0,1.34,1.34,0,0,1,1.37-1.37A1.31,1.31,0,0,1,281,174.2Zm-2.46,15.5V177.6h2.21v12.1Z"/><path class="cls-4" d="M287,174.13v3.47h3.15v1.67H287v6.53c0,1.5.43,2.35,1.65,2.35A5.17,5.17,0,0,0,290,188l.1,1.65a5.52,5.52,0,0,1-1.95.3,3.06,3.06,0,0,1-2.38-.93,4.5,4.5,0,0,1-.85-3.15v-6.6H283V177.6h1.87v-2.9Z"/><path class="cls-4" d="M293.72,184.05a3.88,3.88,0,0,0,4.15,4.2,7.91,7.91,0,0,0,3.35-.63l.38,1.58a9.83,9.83,0,0,1-4,.75c-3.72,0-5.94-2.45-5.94-6.1s2.14-6.53,5.67-6.53c3.95,0,5,3.48,5,5.7a7.4,7.4,0,0,1-.08,1Zm6.45-1.58c0-1.4-.57-3.57-3.05-3.57-2.22,0-3.2,2-3.37,3.57Z"/><path class="cls-4" d="M128.3,306.74h2.2v17.75h-2.2Z"/><path class="cls-4" d="M145.15,318.34c0,4.47-3.1,6.42-6,6.42-3.28,0-5.8-2.4-5.8-6.22,0-4.05,2.65-6.42,6-6.42S145.15,314.64,145.15,318.34Zm-9.6.12c0,2.65,1.53,4.65,3.68,4.65s3.67-2,3.67-4.7c0-2-1-4.64-3.62-4.64S135.55,316.17,135.55,318.46Z"/><path class="cls-4" d="M156.55,324a8.13,8.13,0,0,1-3.48.7c-3.64,0-6-2.48-6-6.18a6.15,6.15,0,0,1,6.5-6.42,7.34,7.34,0,0,1,3,.63l-.5,1.7a5.11,5.11,0,0,0-2.55-.58c-2.77,0-4.27,2.05-4.27,4.57,0,2.8,1.8,4.53,4.19,4.53a6.3,6.3,0,0,0,2.7-.6Z"/><path class="cls-4" d="M165.82,324.49l-.17-1.53h-.08a4.49,4.49,0,0,1-3.69,1.8,3.44,3.44,0,0,1-3.7-3.47c0-2.93,2.6-4.52,7.27-4.5v-.25a2.5,2.5,0,0,0-2.75-2.8,6,6,0,0,0-3.15.9l-.5-1.45a7.51,7.51,0,0,1,4-1.07c3.69,0,4.59,2.52,4.59,4.95v4.52a17.07,17.07,0,0,0,.2,2.9Zm-.32-6.18c-2.4-.05-5.12.38-5.12,2.73a2,2,0,0,0,2.07,2.1,3,3,0,0,0,2.93-2,2.39,2.39,0,0,0,.12-.7Z"/><path class="cls-4" d="M173.73,314.07v6.52c0,1.5.42,2.35,1.65,2.35a5.14,5.14,0,0,0,1.27-.15l.1,1.65a5.52,5.52,0,0,1-1.95.3h-.05l-.62,1a1.85,1.85,0,0,1,1.75,1.72c0,1.48-1.23,2-2.6,2a3.53,3.53,0,0,1-1.7-.43L172,328a2.62,2.62,0,0,0,1.35.37c.55,0,1.08-.2,1.08-.8s-.78-.95-1.95-1.05l1.12-2a2.44,2.44,0,0,1-1.12-.73,4.45,4.45,0,0,1-.85-3.15v-6.59H169.7v-1.68h1.88v-2.9l2.15-.57v3.47h3.14v1.68Z"/><path class="cls-4" d="M181.8,309a1.29,1.29,0,0,1-1.4,1.35,1.31,1.31,0,0,1-1.32-1.35,1.34,1.34,0,0,1,1.37-1.37A1.3,1.3,0,0,1,181.8,309Zm-2.45,15.5v-12.1h2.2v12.1Z"/><path class="cls-4" d="M187.65,309a1.29,1.29,0,0,1-1.4,1.35,1.31,1.31,0,0,1-1.32-1.35,1.34,1.34,0,0,1,1.37-1.37A1.3,1.3,0,0,1,187.65,309Zm-2.45,15.5v-12.1h2.2v12.1Z"/><path class="cls-4" d="M206.8,306.74v14.62c0,1.08,0,2.3.1,3.13h-2l-.1-2.1h0a4.46,4.46,0,0,1-4.12,2.37c-2.92,0-5.17-2.47-5.17-6.15,0-4,2.47-6.49,5.42-6.49a4,4,0,0,1,3.65,1.85h0v-7.23Zm-2.2,10.58a4.2,4.2,0,0,0-.1-.93,3.25,3.25,0,0,0-3.18-2.55c-2.27,0-3.62,2-3.62,4.67,0,2.45,1.2,4.48,3.57,4.48a3.31,3.31,0,0,0,3.23-2.63,4.07,4.07,0,0,0,.1-.95Z"/><path class="cls-4" d="M212.9,309a1.36,1.36,0,0,1-2.72,0,1.34,1.34,0,0,1,1.37-1.37A1.3,1.3,0,0,1,212.9,309Zm-2.45,15.5v-12.1h2.2v12.1Z"/><path class="cls-4" d="M216.52,324.49V314.07h-1.69v-1.68h1.69v-.57a5.74,5.74,0,0,1,1.4-4.23,4.22,4.22,0,0,1,3-1.12,5,5,0,0,1,1.88.35l-.3,1.7a3.31,3.31,0,0,0-1.4-.28c-1.88,0-2.35,1.65-2.35,3.5v.65h2.92v1.68H218.7v10.42Z"/><path class="cls-4" d="M224.5,318.84a3.88,3.88,0,0,0,4.15,4.2,8,8,0,0,0,3.35-.63l.37,1.58a9.77,9.77,0,0,1-4,.75c-3.72,0-5.95-2.45-5.95-6.1s2.15-6.52,5.67-6.52c4,0,5,3.47,5,5.7a9.92,9.92,0,0,1-.07,1Zm6.45-1.57c0-1.4-.58-3.58-3-3.58-2.23,0-3.2,2.05-3.38,3.58Z"/><path class="cls-4" d="M235.8,316.17c0-1.43,0-2.65-.1-3.78h1.92l.08,2.38h.1a3.62,3.62,0,0,1,3.35-2.65,2.35,2.35,0,0,1,.62.07v2.08a3.25,3.25,0,0,0-.75-.08,3.09,3.09,0,0,0-3,2.83,6.18,6.18,0,0,0-.1,1v6.45H235.8Z"/><path class="cls-4" d="M246.52,309a1.29,1.29,0,0,1-1.39,1.35A1.31,1.31,0,0,1,243.8,309a1.34,1.34,0,0,1,1.37-1.37A1.3,1.3,0,0,1,246.52,309Zm-2.44,15.5v-12.1h2.19v12.1Z"/><path class="cls-4" d="M252.57,308.92v3.47h3.15v1.68h-3.15v6.52c0,1.5.43,2.35,1.65,2.35a5.17,5.17,0,0,0,1.28-.15l.1,1.65a5.52,5.52,0,0,1-1.95.3,3.06,3.06,0,0,1-2.38-.93,4.5,4.5,0,0,1-.85-3.15v-6.59h-1.87v-1.68h1.87v-2.9Z"/><path class="cls-4" d="M259.27,318.84a3.88,3.88,0,0,0,4.15,4.2,7.91,7.91,0,0,0,3.35-.63l.38,1.58a9.83,9.83,0,0,1-4,.75c-3.72,0-5.95-2.45-5.95-6.1s2.15-6.52,5.68-6.52c3.95,0,5,3.47,5,5.7a7.37,7.37,0,0,1-.08,1Zm6.45-1.57c0-1.4-.57-3.58-3.05-3.58-2.22,0-3.2,2.05-3.37,3.58Z"/><path class="cls-4" d="M144.25,468.84c0,4.47-3.1,6.42-6,6.42-3.28,0-5.8-2.4-5.8-6.22,0-4.05,2.65-6.42,6-6.42S144.25,465.14,144.25,468.84Zm-9.6.12c0,2.65,1.53,4.65,3.68,4.65s3.67-2,3.67-4.69c0-2.05-1-4.65-3.62-4.65S134.65,466.67,134.65,469Z"/><path class="cls-4" d="M147,466.67c0-1.43,0-2.65-.1-3.78h1.92l.08,2.38h.1a3.62,3.62,0,0,1,3.35-2.65,2.35,2.35,0,0,1,.62.07v2.08a3.25,3.25,0,0,0-.75-.08,3.09,3.09,0,0,0-2.95,2.83,6.18,6.18,0,0,0-.1,1V475H147Z"/><path class="cls-4" d="M156.18,469.34a3.88,3.88,0,0,0,4.15,4.2,7.89,7.89,0,0,0,3.34-.63l.38,1.58a9.81,9.81,0,0,1-4,.75c-3.73,0-5.95-2.45-5.95-6.1s2.15-6.52,5.67-6.52c3.95,0,5,3.47,5,5.7a7.23,7.23,0,0,1-.08,1Zm6.44-1.57c0-1.4-.57-3.58-3-3.58-2.23,0-3.2,2.05-3.38,3.58Z"/><path class="cls-4" d="M172.78,457.24H175V475h-2.2Z"/><path class="cls-4" d="M185.37,475l-.17-1.53h-.08a4.49,4.49,0,0,1-3.69,1.8,3.44,3.44,0,0,1-3.7-3.47c0-2.93,2.6-4.52,7.27-4.5V467a2.5,2.5,0,0,0-2.75-2.8,6,6,0,0,0-3.15.9l-.5-1.45a7.51,7.51,0,0,1,4-1.07c3.69,0,4.59,2.52,4.59,4.95v4.52a17.07,17.07,0,0,0,.2,2.9Zm-.32-6.17c-2.4-.05-5.12.37-5.12,2.72a2,2,0,0,0,2.07,2.1,3,3,0,0,0,2.92-2,2.11,2.11,0,0,0,.13-.7Z"/><path class="cls-4" d="M206.47,457.24v14.62c0,1.08,0,2.3.1,3.13h-2l-.1-2.1h-.05a4.48,4.48,0,0,1-4.13,2.37c-2.92,0-5.17-2.47-5.17-6.15,0-4,2.48-6.49,5.42-6.49a4,4,0,0,1,3.65,1.85h.05v-7.23Zm-2.2,10.58a3.68,3.68,0,0,0-.1-.93,3.23,3.23,0,0,0-3.17-2.55c-2.27,0-3.62,2-3.62,4.68,0,2.44,1.2,4.47,3.57,4.47a3.31,3.31,0,0,0,3.22-2.63,3.6,3.6,0,0,0,.1-.95Z"/><path class="cls-4" d="M212.57,459.49a1.29,1.29,0,0,1-1.39,1.35,1.31,1.31,0,0,1-1.33-1.35,1.34,1.34,0,0,1,1.38-1.37A1.3,1.3,0,0,1,212.57,459.49ZM210.13,475v-12.1h2.19V475Z"/><path class="cls-4" d="M215.68,472.74a5.81,5.81,0,0,0,2.89.87c1.6,0,2.35-.8,2.35-1.8s-.62-1.62-2.25-2.22c-2.17-.77-3.19-2-3.19-3.42,0-1.95,1.57-3.55,4.17-3.55a6,6,0,0,1,3,.75l-.55,1.6a4.69,4.69,0,0,0-2.47-.7c-1.3,0-2,.75-2,1.65s.72,1.45,2.29,2.05c2.1.8,3.18,1.84,3.18,3.64,0,2.13-1.65,3.63-4.53,3.63a6.87,6.87,0,0,1-3.39-.83Z"/><path class="cls-4" d="M225.88,466.84c0-1.55,0-2.8-.1-3.95h2l.1,2.08h.05a4.74,4.74,0,0,1,4.3-2.35c2.92,0,5.12,2.47,5.12,6.15,0,4.34-2.65,6.49-5.5,6.49a4.23,4.23,0,0,1-3.72-1.9h0v6.58h-2.17Zm2.17,3.22a4.85,4.85,0,0,0,.1.9,3.39,3.39,0,0,0,3.3,2.58c2.32,0,3.67-1.9,3.67-4.68,0-2.42-1.27-4.49-3.6-4.49a3.5,3.5,0,0,0-3.32,2.72,3.85,3.85,0,0,0-.15.9Z"/><path class="cls-4" d="M251.05,468.84c0,4.47-3.1,6.42-6,6.42-3.27,0-5.79-2.4-5.79-6.22,0-4.05,2.65-6.42,6-6.42S251.05,465.14,251.05,468.84Zm-9.6.12c0,2.65,1.52,4.65,3.67,4.65s3.68-2,3.68-4.69c0-2.05-1-4.65-3.63-4.65S241.45,466.67,241.45,469Z"/><path class="cls-4" d="M252.28,473.71l5.47-7.12c.52-.65,1-1.22,1.57-1.87v-.05h-6.54v-1.78H262l0,1.38-5.4,7c-.5.67-1,1.27-1.55,1.9v.05h7.08V475h-9.82Z"/><path class="cls-4" d="M266.8,459.49a1.36,1.36,0,0,1-2.72,0,1.34,1.34,0,0,1,1.37-1.37A1.31,1.31,0,0,1,266.8,459.49ZM264.35,475v-12.1h2.2V475Z"/><path class="cls-4" d="M272.85,464.57v6.52c0,1.5.42,2.35,1.65,2.35a5.08,5.08,0,0,0,1.27-.15l.1,1.65a5.48,5.48,0,0,1-1.95.3h-.05l-.62,1A1.85,1.85,0,0,1,275,478c0,1.48-1.23,2-2.6,2a3.53,3.53,0,0,1-1.7-.43l.37-1.07a2.62,2.62,0,0,0,1.35.37c.55,0,1.08-.2,1.08-.8s-.78-.95-1.95-1.05l1.12-2a2.44,2.44,0,0,1-1.12-.73,4.45,4.45,0,0,1-.85-3.15v-6.59h-1.87v-1.68h1.87V460l2.15-.57v3.47H276v1.68Z"/><path class="cls-4" d="M280.92,459.49a1.29,1.29,0,0,1-1.4,1.35,1.31,1.31,0,0,1-1.32-1.35,1.34,1.34,0,0,1,1.37-1.37A1.3,1.3,0,0,1,280.92,459.49ZM278.47,475v-12.1h2.2V475Z"/><path class="cls-4" d="M285.55,469.34a3.88,3.88,0,0,0,4.15,4.2,8,8,0,0,0,3.35-.63l.37,1.58a9.77,9.77,0,0,1-4,.75c-3.73,0-5.95-2.45-5.95-6.1s2.15-6.52,5.67-6.52c3.95,0,5,3.47,5,5.7a9.7,9.7,0,0,1-.07,1Zm6.45-1.57c0-1.4-.58-3.58-3.05-3.58-2.23,0-3.2,2.05-3.38,3.58Z"/><path class="cls-4" d="M60.77,35.66A4.13,4.13,0,0,0,54,32.49a4,4,0,0,0-1.39,2.31L42.49,32.64a14.61,14.61,0,0,1,5.08-8.22,14.5,14.5,0,0,1,20.75,19.9,2.7,2.7,0,0,1,.35.29,16.34,16.34,0,0,1,0,23.68,17.22,17.22,0,0,1-12,4.82,17.43,17.43,0,0,1-10.45-3.49,16.51,16.51,0,0,1-6.09-9.14l10-2.57a6.21,6.21,0,0,0,2.35,3.39,6.94,6.94,0,0,0,4.19,1.37,6.86,6.86,0,0,0,4.82-1.91,6,6,0,0,0,1.91-4.38c0-5-4.38-9.42-12.41-9.8l2.16-4.22c5.36-1,7.68-3.78,7.68-6.76Z"/></g></g></svg>