<?xml version="1.0" encoding="utf-8"?>
<!-- Generator: Adobe Illustrator 18.0.0, SVG Export Plug-In . SVG Version: 6.00 Build 0)  -->
<!DOCTYPE svg PUBLIC "-//W3C//DTD SVG 1.1//EN" "http://www.w3.org/Graphics/SVG/1.1/DTD/svg11.dtd">
<svg version="1.1" xmlns="http://www.w3.org/2000/svg" xmlns:xlink="http://www.w3.org/1999/xlink" x="0px" y="0px"
	 viewBox="0 0 700 700" enable-background="new 0 0 700 700" xml:space="preserve">
<g id="Layer_1">
	<polygon id="XMLID_4_" display="none" fill="#E5B970" points="476,390.6 476.3,390.5 476.3,175.1 466,175.1 465.7,175.7 
		465.6,175.1 81.9,175.1 81.9,370.3 85,370.8 81.9,370.9 81.9,467.2 111.2,467.2 112.8,463.7 113.6,467.2 433.9,467.2 434.8,463.7 
		435.7,467.2 476.3,467.2 476.3,390.7 	"/>
	<polygon id="XMLID_55_" display="none" fill="#E2BF74" points="515.1,379.4 538.8,375.6 538.8,293.9 520.3,292.7 538.8,290 
		538.8,266.9 520.3,263.1 538.8,255.7 538.8,223.3 528.6,224.1 538.8,220.3 538.8,187.6 515.1,187.6 504.7,202.1 501.7,187.6 
		358.7,187.6 352.8,199 350.1,187.6 193.3,187.6 193.2,190.2 191.7,187.6 105.3,187.6 104.6,199 92.7,190 92.7,211.8 111.9,216 
		92.7,217.1 92.7,261.8 97.4,263.1 92.7,263.9 92.7,359.9 119.2,363.1 92.7,364.1 92.7,430.4 111.9,430.4 92.7,435.7 92.7,456.8 
		138.1,456.8 147.4,439.8 152,456.8 417.6,456.8 420.3,450.5 422.8,456.8 467.7,456.8 473.4,439.8 478.9,456.8 538.8,456.8 
		538.8,384 	"/>
	<polygon id="XMLID_2_" display="none" fill="#FFDF89" points="516.6,376.8 540.2,372.9 540.2,291.2 521.8,290 540.2,287.3 
		540.2,264.3 521.8,260.4 540.2,253.1 540.2,220.6 530.1,221.5 540.2,217.6 540.2,184.9 516.6,184.9 506.1,199.4 503.1,184.9 
		360.2,184.9 354.3,196.3 351.6,184.9 194.7,184.9 194.7,187.5 193.2,184.9 106.8,184.9 106.1,196.3 94.2,187.3 94.2,209.1 
		113.4,213.3 94.2,214.4 94.2,259.1 98.8,260.4 94.2,261.3 94.2,357.2 120.7,360.4 94.2,361.4 94.2,427.7 113.4,427.7 94.2,433.1 
		94.2,454.1 139.5,454.1 148.8,437.1 153.5,454.1 419,454.1 421.8,447.8 424.3,454.1 469.2,454.1 474.9,437.1 480.4,454.1 
		540.2,454.1 540.2,381.4 	"/>
	<g id="XMLID_7_" display="none">
		<defs>
			<polygon id="XMLID_3_" points="400.4,379.4 400.6,379.3 400.6,198.6 394.2,198.6 394,199.1 393.9,198.6 155.5,198.6 155.5,362.4 
				157.5,362.8 155.5,362.9 155.5,443.7 173.8,443.7 174.7,440.7 175.2,443.7 374.2,443.7 374.8,440.7 375.4,443.7 400.6,443.7 
				400.6,379.5 			"/>
		</defs>
		<clipPath id="XMLID_52_" display="inline">
			<use xlink:href="#XMLID_3_"  overflow="visible"/>
		</clipPath>
		<path id="XMLID_11_" display="inline" opacity="0.17" clip-path="url(#XMLID_52_)" fill="#E9B77D" d="M408,240.4v-1.2h-48v-48
			h-1.2v48h-53v-48h-1.2v48h-53v-48h-1.2v48h-53v-48h-1.2v48h-48v1.2h48v53h-48v1.2h48v53h-48v1.2h48v53h-48v1.2h48v48h1.2v-48h53
			v48h1.2v-48h53v48h1.2v-48h53v48h1.2v-48h48v-1.2h-48v-53h48v-1.2h-48v-53h48v-1.2h-48v-53H408z M304.6,240.4v53h-53v-53H304.6z
			 M304.6,294.6v53h-53v-53H304.6z M197.3,240.4h53v53h-53V240.4z M197.3,294.6h53v53h-53V294.6z M197.3,401.9v-53h53v53H197.3z
			 M251.5,401.9v-53h53v53H251.5z M358.8,401.9h-53v-53h53V401.9z M358.8,347.7h-53v-53h53V347.7z M358.8,293.5h-53v-53h53V293.5z"
			/>
	</g>
	<g id="XMLID_26_">
		<path fill-rule="evenodd" clip-rule="evenodd" fill="#A05B26" d="M307.5,324.4c6.2,0.3,12.3,0.5,18.5,0.8c0.5-2.1,1-4.1,1.5-6.2
			c1.5,1.5,3.1,3.1,4.6,4.6c3.1,1.5,6.2,3.1,9.2,4.6c0.3,5.5,1,12.4-2.3,14.6c-2.8,1.3-5.6,2.6-8.5,3.8c-0.5-0.3-1-0.5-1.5-0.8
			c0.3-1.8,0.5-3.6,0.8-5.4c-1,0-2.1,0-3.1,0c-0.5,3.1-1,6.2-1.5,9.2c1.3,1.3,2.6,2.6,3.8,3.8c-1,3.1-2.1,6.2-3.1,9.2
			c-1.8,0.3-3.6,0.5-5.4,0.8c0,6.9,0,13.8,0,20.8c-4.1,1-8.2,2.1-12.3,3.1c0.2,6.7-1.3,8.4-6.2,10c0,1.8,0,3.6,0,5.4
			c-19.6,1.2-37,1.5-52.3-3.8c-1.9,8.3-17.7,44.8-20.8,49.2c7.2,12,14.4,24.1,21.5,36.1c2.1-0.3,4.1-0.5,6.2-0.8
			c0.3,3.3,0.5,6.7,0.8,10c-4.1,1.5-8.2,3.1-12.3,4.6c0.5,2.6,1,5.1,1.5,7.7c-8.9,3.1-9.6,1.8-16.1-3.8c-3.1,0.5-6.2,1-9.2,1.5
			c-0.8-1.3-1.5-2.6-2.3-3.8c1.5-1,3.1-2.1,4.6-3.1c-3.6-7.7-7.2-15.4-10.8-23.1c-5.4-0.3-10.8-0.5-16.1-0.8
			c-7.5-14.4-5.1-14.4-21.5-20.8c-0.8,0.5-1.5,1-2.3,1.5c-0.8,1.3-1.5,2.6-2.3,3.8c-1.3-1-2.6-2.1-3.8-3.1
			c-7.8-14.3-55.9-5-71.5-32.3c2.8-3.9,4.6-4.4,0.8-7.7c-7.4,4.2-7,2.6-13.1-2.3c-4.9-7.4-9.7-14.9-14.6-22.3
			c-2.1,2.1-4.1,4.1-6.2,6.2c-0.3,0-0.5,0-0.8,0c-5-2.5-5.3-4.6-13.8-4.6c-1-2.3-2.1-4.6-3.1-6.9c0,0.5,0,1,0,1.5
			c-1,1.3-2.1,2.6-3.1,3.8c-7.4-2.6-12.7-0.7-19.2-1.5c-2.1-6.2-4.1-12.3-6.2-18.5c-2.6,0.3-5.1,0.5-7.7,0.8c-2.2-6.5-3-9.1,5.4-10
			c-1.8-12.4-7.5-14.8-6.9-26.1c2.1-0.3,4.1-0.5,6.2-0.8c-0.5-2.1-1-4.1-1.5-6.2c0.5,0,1,0,1.5,0c18.9-7,51.3,3.1,62.3-11.5
			c-1.5-0.8-3.1-1.5-4.6-2.3c-0.3-4.1-0.5-8.2-0.8-12.3c-15.9-5.1-31.8-10.3-47.7-15.4c5.1-10.8,0.3-13.3,3.8-24.6
			c2.6-4.6,5.1-9.2,7.7-13.8c-2.6-3.1-5.1-6.2-7.7-9.2c0.2-4.8,1.3-6.4,3.1-9.2c8.6-4,9.4-5.2,16.9,0.8c4.2-3.6,4.2-6.6,12.3-6.9
			c0.7-7.2,1.1-16.9,3.8-22.3c5.4-2.6,10.8-5.1,16.1-7.7c-1.3-7.2,2-13.4,7.7-17.7c3.4,2,4.2,4.2,8.5,5.4c3.1-1.5,6.2-3.1,9.2-4.6
			c-0.4-3.8-0.5-4.1,0.8-6.9c7.8-2.5,17.3-2.4,26.9-5.4c-0.3-4.9-0.6-8.1,2.3-10c4.9-1.5,9.7-3.1,14.6-4.6c1.5,2.8,3.1,5.6,4.6,8.5
			c5.1-0.5,10.3-1,15.4-1.5c3.6-1.7,1.7-4.4,7.7-5.4c12.6,15.6,7.1,43.7,6.9,62.3c6-0.7,7.1,0.6,10.8,3.8c0,0.8,0,1.5,0,2.3
			c-2.6,1.8-5.1,3.6-7.7,5.4c2.6,3.1,5.1,6.2,7.7,9.2c1.6,4.8-0.7,7.3,1.5,12.3c25,3.1,52.5,8.2,74.6,14.6
			c-8.5,11.8-16.9,23.6-25.4,35.4c0.8,1,1.5,2.1,2.3,3.1c6.3-4.4,8-0.7,13.1,3.8c4.3-2.2,7-3.2,13.1-2.3c0,0.8,0,1.5,0,2.3
			c-1.6,3.4-2.3,6.1-2.3,11.5c3.8-0.3,7.7-0.5,11.5-0.8c0-4.1,0-8.2,0-12.3c2.1,0,4.1,0,6.2,0c0.5,7.7,5.1,9.9,8.5,15.4
			c2.5-2,2.9-2.1,2.3-5.4c0.3-0.5,0.5-1,0.8-1.5c6.3,0,6.7,1.4,10,3.8c0,0.3,0,0.5,0,0.8C309,317.7,308.3,321.1,307.5,324.4z"/>
	</g>
	<g id="XMLID_56_">
		<path fill-rule="evenodd" clip-rule="evenodd" fill="#F7941E" d="M309.9,320.6c6.2,0.3,12.3,0.5,18.5,0.8c0.5-2.1,1-4.1,1.5-6.2
			c1.5,1.5,3.1,3.1,4.6,4.6c3.1,1.5,6.2,3.1,9.2,4.6c0.3,5.5,1,12.4-2.3,14.6c-2.8,1.3-5.6,2.6-8.5,3.8c-0.5-0.3-1-0.5-1.5-0.8
			c0.3-1.8,0.5-3.6,0.8-5.4c-1,0-2.1,0-3.1,0c-0.5,3.1-1,6.2-1.5,9.2c1.3,1.3,2.6,2.6,3.8,3.8c-1,3.1-2.1,6.2-3.1,9.2
			c-1.8,0.3-3.6,0.5-5.4,0.8c0,6.9,0,13.8,0,20.8c-4.1,1-8.2,2.1-12.3,3.1c0.2,6.7-1.3,8.4-6.2,10c0,1.8,0,3.6,0,5.4
			c-19.6,1.2-37,1.5-52.3-3.8c-1.9,8.3-17.7,44.8-20.8,49.2c7.2,12,14.4,24.1,21.5,36.1c2.1-0.3,4.1-0.5,6.2-0.8
			c0.3,3.3,0.5,6.7,0.8,10c-4.1,1.5-8.2,3.1-12.3,4.6c0.5,2.6,1,5.1,1.5,7.7c-8.9,3.1-9.6,1.8-16.1-3.8c-3.1,0.5-6.2,1-9.2,1.5
			c-0.8-1.3-1.5-2.6-2.3-3.8c1.5-1,3.1-2.1,4.6-3.1c-3.6-7.7-7.2-15.4-10.8-23.1c-5.4-0.3-10.8-0.5-16.1-0.8
			c-7.5-14.4-5.1-14.4-21.5-20.8c-0.8,0.5-1.5,1-2.3,1.5c-0.8,1.3-1.5,2.6-2.3,3.8c-1.3-1-2.6-2.1-3.8-3.1
			c-7.8-14.3-55.9-5-71.5-32.3c2.8-3.9,4.6-4.4,0.8-7.7c-7.4,4.2-7,2.6-13.1-2.3c-4.9-7.4-9.7-14.9-14.6-22.3
			c-2.1,2.1-4.1,4.1-6.2,6.2c-0.3,0-0.5,0-0.8,0c-5-2.5-5.3-4.6-13.8-4.6c-1-2.3-2.1-4.6-3.1-6.9c0,0.5,0,1,0,1.5
			c-1,1.3-2.1,2.6-3.1,3.8c-7.4-2.6-12.7-0.7-19.2-1.5c-2.1-6.2-4.1-12.3-6.2-18.5c-2.6,0.3-5.1,0.5-7.7,0.8c-2.2-6.5-3-9.1,5.4-10
			c-1.8-12.4-7.5-14.8-6.9-26.1c2.1-0.3,4.1-0.5,6.2-0.8c-0.5-2.1-1-4.1-1.5-6.2c0.5,0,1,0,1.5,0c18.9-7,51.3,3.1,62.3-11.5
			c-1.5-0.8-3.1-1.5-4.6-2.3c-0.3-4.1-0.5-8.2-0.8-12.3c-15.9-5.1-31.8-10.3-47.7-15.4c5.1-10.8,0.3-13.3,3.8-24.6
			c2.6-4.6,5.1-9.2,7.7-13.8c-2.6-3.1-5.1-6.2-7.7-9.2c0.2-4.8,1.3-6.4,3.1-9.2c8.6-4,9.4-5.2,16.9,0.8c4.2-3.6,4.2-6.6,12.3-6.9
			c0.7-7.2,1.1-16.9,3.8-22.3c5.4-2.6,10.8-5.1,16.1-7.7c-1.3-7.2,2-13.4,7.7-17.7c3.4,2,4.2,4.2,8.5,5.4c3.1-1.5,6.2-3.1,9.2-4.6
			c-0.4-3.8-0.5-4.1,0.8-6.9c7.8-2.5,17.3-2.4,26.9-5.4c-0.3-4.9-0.6-8.1,2.3-10c4.9-1.5,9.7-3.1,14.6-4.6c1.5,2.8,3.1,5.6,4.6,8.5
			c5.1-0.5,10.3-1,15.4-1.5c3.6-1.7,1.7-4.4,7.7-5.4c12.6,15.6,7.1,43.7,6.9,62.3c6-0.7,7.1,0.6,10.8,3.8c0,0.8,0,1.5,0,2.3
			c-2.6,1.8-5.1,3.6-7.7,5.4c2.6,3.1,5.1,6.2,7.7,9.2c1.6,4.8-0.7,7.3,1.5,12.3c25,3.1,52.5,8.2,74.6,14.6
			c-8.5,11.8-16.9,23.6-25.4,35.4c0.8,1,1.5,2.1,2.3,3.1c6.3-4.4,8-0.7,13.1,3.8c4.3-2.2,7-3.2,13.1-2.3c0,0.8,0,1.5,0,2.3
			c-1.6,3.4-2.3,6.1-2.3,11.5c3.8-0.3,7.7-0.5,11.5-0.8c0-4.1,0-8.2,0-12.3c2.1,0,4.1,0,6.2,0c0.5,7.7,5.1,9.9,8.5,15.4
			c2.5-2,2.9-2.1,2.3-5.4c0.3-0.5,0.5-1,0.8-1.5c6.3,0,6.7,1.4,10,3.8c0,0.3,0,0.5,0,0.8C311.5,313.9,310.7,317.3,309.9,320.6z"/>
	</g>
	<g id="XMLID_9_">
		<g id="XMLID_53_">
			<path fill="#603913" d="M473.4,394.9c0,1.1-0.2,2.1-0.6,3.1c-0.4,1-1,1.8-1.7,2.5c-0.7,0.7-1.6,1.3-2.5,1.7c-1,0.4-2,0.6-3.1,0.6
				H452v-26.7h13.4c1.1,0,2.1,0.2,3.1,0.6c1,0.4,1.8,1,2.5,1.7c0.7,0.7,1.3,1.6,1.7,2.5c0.4,1,0.6,2,0.6,3.1c0,0.5-0.1,1-0.2,1.5
				c-0.1,0.5-0.3,1-0.6,1.5c-0.2,0.5-0.5,0.9-0.9,1.3c-0.3,0.4-0.7,0.7-1.2,1c0.4,0.2,0.8,0.6,1.2,1c0.3,0.4,0.6,0.8,0.9,1.3
				c0.2,0.5,0.4,1,0.6,1.5C473.3,393.9,473.4,394.4,473.4,394.9z M457.3,386.8h8c0.4,0,0.7-0.1,1-0.2c0.3-0.1,0.6-0.3,0.8-0.6
				c0.2-0.2,0.4-0.5,0.6-0.9c0.1-0.3,0.2-0.7,0.2-1.1c0-0.4-0.1-0.7-0.2-1c-0.1-0.3-0.3-0.6-0.6-0.8c-0.2-0.2-0.5-0.4-0.8-0.6
				c-0.3-0.1-0.7-0.2-1-0.2h-8V386.8z M457.3,397.5h8c0.4,0,0.7-0.1,1-0.2c0.3-0.1,0.6-0.3,0.8-0.6c0.2-0.2,0.4-0.5,0.6-0.8
				c0.1-0.3,0.2-0.7,0.2-1s-0.1-0.7-0.2-1c-0.1-0.3-0.3-0.6-0.6-0.8c-0.2-0.2-0.5-0.4-0.8-0.6c-0.3-0.1-0.7-0.2-1-0.2h-8V397.5z"/>
		</g>
		<g id="XMLID_91_">
			<path fill="#603913" d="M491.6,400.6c-0.4,0.4-0.8,0.7-1.3,1.1c-0.5,0.3-1,0.6-1.5,0.9c-0.5,0.2-1,0.4-1.6,0.6
				c-0.5,0.1-1.1,0.2-1.7,0.2c-1.2,0-2.4-0.2-3.5-0.7c-1.1-0.4-2-1.1-2.8-1.9c-0.8-0.8-1.5-1.8-1.9-2.9c-0.5-1.2-0.7-2.4-0.7-3.9
				v-11h5.1v11c0,0.7,0.1,1.3,0.3,1.8s0.5,1,0.8,1.3c0.3,0.4,0.8,0.6,1.2,0.8c0.5,0.2,1,0.3,1.5,0.3c0.5,0,1-0.1,1.5-0.4
				c0.5-0.2,0.9-0.6,1.2-1c0.3-0.4,0.6-0.8,0.8-1.4c0.2-0.5,0.3-1,0.3-1.6v-11h5.1v20h-1.2L491.6,400.6z"/>
		</g>
		<g id="XMLID_94_">
			<path fill="#603913" d="M515.8,386.9l-3.7,3.7c-0.2-0.5-0.4-1-0.8-1.4c-0.3-0.4-0.7-0.8-1.1-1.1c-0.4-0.3-0.8-0.5-1.3-0.7
				c-0.5-0.1-1-0.2-1.5-0.2c-0.7,0-1.4,0.1-2,0.4c-0.6,0.3-1.2,0.7-1.6,1.2c-0.5,0.5-0.8,1.1-1.1,1.8c-0.3,0.7-0.4,1.5-0.4,2.4
				c0,0.7,0.1,1.3,0.4,2c0.3,0.6,0.6,1.1,1.1,1.6c0.5,0.5,1,0.8,1.6,1.1c0.6,0.3,1.3,0.4,2,0.4c0.5,0,1-0.1,1.4-0.2
				c0.5-0.1,0.9-0.3,1.3-0.6c0.4-0.3,0.8-0.6,1.1-0.9c0.3-0.4,0.6-0.8,0.8-1.2l3.7,3.7c-0.5,0.7-1,1.3-1.6,1.8c-0.6,0.5-1.3,1-2,1.4
				c-0.7,0.4-1.5,0.7-2.3,0.8c-0.8,0.2-1.6,0.3-2.4,0.3c-1.4,0-2.7-0.3-4-0.8c-1.2-0.5-2.3-1.3-3.2-2.2c-0.9-0.9-1.7-2-2.2-3.2
				s-0.8-2.5-0.8-4c0-1.5,0.3-3,0.8-4.3s1.3-2.5,2.2-3.5c0.9-1,2-1.8,3.2-2.3c1.2-0.6,2.6-0.9,4-0.9c0.8,0,1.7,0.1,2.5,0.3
				c0.8,0.2,1.6,0.5,2.3,0.9s1.4,0.9,2,1.5C514.8,385.5,515.4,386.1,515.8,386.9z"/>
		</g>
		<g id="XMLID_96_">
			<path fill="#603913" d="M523.4,402.9h-5.1V375h5.1v8.8c0.6-0.5,1.2-0.8,1.9-1c0.6-0.2,1.3-0.3,2-0.3c1.2,0,2.4,0.2,3.5,0.7
				c1.1,0.5,2,1.1,2.8,1.9c0.8,0.8,1.4,1.8,1.9,2.9s0.7,2.2,0.7,3.5v11.4H531v-11.4h0c0-0.5-0.1-1-0.3-1.5c-0.2-0.5-0.5-0.9-0.8-1.2
				c-0.3-0.3-0.8-0.6-1.2-0.8c-0.5-0.2-1-0.3-1.5-0.3c-0.5,0-1,0.1-1.5,0.3c-0.5,0.2-0.9,0.5-1.2,0.8c-0.3,0.3-0.6,0.8-0.8,1.2
				c-0.2,0.5-0.3,1-0.3,1.5V402.9z"/>
		</g>
		<g id="XMLID_100_">
			<path fill="#603913" d="M559.1,402.9h-1.2l-2-2.7c-0.5,0.4-1,0.8-1.5,1.2c-0.5,0.4-1.1,0.7-1.7,1s-1.2,0.5-1.8,0.7
				s-1.3,0.2-1.9,0.2c-1.4,0-2.7-0.2-4-0.7c-1.2-0.5-2.3-1.2-3.2-2.1c-0.9-0.9-1.7-2-2.2-3.3c-0.5-1.3-0.8-2.8-0.8-4.5
				c0-1.6,0.3-3,0.8-4.3c0.5-1.3,1.3-2.4,2.2-3.3c0.9-0.9,2-1.7,3.2-2.2c1.2-0.5,2.6-0.8,4-0.8c0.6,0,1.3,0.1,1.9,0.2
				c0.6,0.2,1.3,0.4,1.8,0.7c0.6,0.3,1.2,0.6,1.7,1c0.5,0.4,1,0.8,1.5,1.2l2-2.4h1.2V402.9z M554,392.7c0-0.7-0.1-1.4-0.4-2
				c-0.3-0.7-0.6-1.2-1.1-1.7s-1-0.9-1.6-1.2c-0.6-0.3-1.3-0.5-2-0.5c-0.7,0-1.4,0.1-2,0.4c-0.6,0.2-1.2,0.6-1.6,1
				c-0.5,0.5-0.8,1-1.1,1.7c-0.3,0.7-0.4,1.5-0.4,2.3c0,0.9,0.1,1.6,0.4,2.3c0.3,0.7,0.6,1.2,1.1,1.7c0.5,0.5,1,0.8,1.6,1
				c0.6,0.2,1.3,0.4,2,0.4c0.7,0,1.4-0.2,2-0.5c0.6-0.3,1.2-0.7,1.6-1.2c0.5-0.5,0.8-1.1,1.1-1.7C553.8,394.1,554,393.4,554,392.7z"
				/>
		</g>
		<g id="XMLID_127_">
			<path fill="#603913" d="M568.1,402.9H563v-20h1.2l1.7,2.4c0.8-0.7,1.8-1.3,2.8-1.7c1-0.4,2.1-0.6,3.2-0.6h4.5v5.1h-4.5
				c-0.5,0-1,0.1-1.5,0.3c-0.5,0.2-0.9,0.5-1.2,0.8c-0.3,0.3-0.6,0.8-0.8,1.2c-0.2,0.5-0.3,1-0.3,1.5V402.9z"/>
		</g>
		<g id="XMLID_141_">
			<path fill="#603913" d="M586.4,398c0.2,0.1,0.4,0.1,0.6,0.1c0.2,0,0.4,0,0.6,0c0.5,0,1-0.1,1.4-0.2c0.5-0.1,0.9-0.3,1.3-0.6
				c0.4-0.3,0.8-0.6,1.1-0.9c0.3-0.4,0.6-0.8,0.8-1.2l3.7,3.7c-0.5,0.7-1,1.3-1.6,1.8c-0.6,0.5-1.3,1-2,1.4
				c-0.7,0.4-1.5,0.7-2.3,0.8c-0.8,0.2-1.6,0.3-2.4,0.3c-1.4,0-2.7-0.3-4-0.8c-1.2-0.5-2.3-1.3-3.2-2.2c-0.9-0.9-1.7-2-2.2-3.3
				c-0.5-1.3-0.8-2.7-0.8-4.2c0-1.6,0.3-3,0.8-4.3c0.5-1.3,1.3-2.4,2.2-3.3c0.9-0.9,2-1.6,3.2-2.1c1.2-0.5,2.6-0.8,4-0.8
				c0.8,0,1.6,0.1,2.4,0.3c0.8,0.2,1.6,0.5,2.3,0.9c0.7,0.4,1.4,0.8,2,1.4c0.6,0.5,1.2,1.1,1.6,1.8L586.4,398z M589,387.5
				c-0.2-0.1-0.5-0.1-0.7-0.2c-0.2,0-0.5,0-0.7,0c-0.7,0-1.4,0.1-2,0.4c-0.6,0.3-1.2,0.6-1.6,1.1c-0.5,0.5-0.8,1-1.1,1.7
				c-0.3,0.7-0.4,1.4-0.4,2.2c0,0.2,0,0.4,0,0.6c0,0.2,0,0.5,0.1,0.7c0,0.2,0.1,0.5,0.2,0.7c0.1,0.2,0.1,0.4,0.2,0.6L589,387.5z"/>
		</g>
		<g id="XMLID_144_">
			<path fill="#603913" d="M609.4,402.9h-11.6v-5.1h11.6c0.3,0,0.6-0.1,0.9-0.4c0.2-0.2,0.4-0.5,0.4-0.9c0-0.4-0.1-0.6-0.4-0.7
				c-0.2-0.1-0.5-0.2-0.9-0.2h-5.3c-0.9,0-1.7-0.2-2.5-0.5c-0.8-0.3-1.4-0.8-2-1.4c-0.6-0.6-1-1.3-1.4-2c-0.3-0.8-0.5-1.6-0.5-2.5
				c0-0.9,0.2-1.7,0.5-2.5c0.3-0.8,0.8-1.4,1.4-2c0.6-0.6,1.2-1,2-1.4c0.8-0.3,1.6-0.5,2.5-0.5h10.3v5.1h-10.3
				c-0.3,0-0.6,0.1-0.9,0.4c-0.2,0.2-0.4,0.5-0.4,0.9c0,0.4,0.1,0.7,0.4,0.9c0.2,0.3,0.5,0.4,0.9,0.4h5.3c0.9,0,1.7,0.1,2.5,0.4
				c0.8,0.3,1.4,0.7,2,1.2c0.6,0.5,1,1.2,1.4,1.9c0.3,0.7,0.5,1.5,0.5,2.4c0,0.9-0.2,1.7-0.5,2.5c-0.3,0.8-0.8,1.4-1.4,2
				c-0.6,0.6-1.2,1-2,1.4C611.1,402.7,610.3,402.9,609.4,402.9z"/>
		</g>
		<g id="XMLID_146_">
			<path fill="#603913" d="M628.5,402.9c-1.2,0-2.4-0.2-3.5-0.7c-1.1-0.5-2-1.1-2.8-1.9c-0.8-0.8-1.5-1.8-1.9-2.8
				c-0.5-1.1-0.7-2.2-0.7-3.5V388h-2.5V383h2.5v-8h5.1v8h7.7v5.1h-7.7v5.9c0,0.5,0.1,1,0.3,1.5c0.2,0.5,0.5,0.9,0.8,1.2
				c0.3,0.3,0.8,0.6,1.2,0.8c0.5,0.2,1,0.3,1.5,0.3h3.9v5.1H628.5z"/>
		</g>
	</g>
	<g id="XMLID_8_">
		<g id="XMLID_45_">
			<path fill="#603913" d="M410.3,367.8h-14.5v-72.4h14.5v29h28.9v-29h14.5v72.4h-14.5v-28.9h-28.9V367.8z"/>
			<path fill="#603913" d="M454.8,368.8h-16.5v-28.9h-26.9v28.9h-16.5v-74.4h16.5v29h26.9v-29h16.5V368.8z M440.3,366.8h12.5v-70.4
				h-12.5v29h-30.9v-29h-12.5v70.4h12.5v-28.9h30.9V366.8z"/>
		</g>
		<g id="XMLID_47_">
			<path fill="#603913" d="M524.4,338.9c0,4-0.8,7.8-2.3,11.3c-1.5,3.5-3.6,6.6-6.2,9.2c-2.6,2.6-5.7,4.7-9.2,6.2
				c-3.5,1.5-7.3,2.3-11.3,2.3c-4,0-7.8-0.8-11.3-2.3c-3.5-1.5-6.6-3.6-9.2-6.2c-2.6-2.6-4.7-5.7-6.2-9.2c-1.5-3.5-2.3-7.3-2.3-11.3
				v-43.5h14.4v43.5c0,2,0.4,3.9,1.1,5.6c0.8,1.8,1.8,3.3,3.1,4.6c1.3,1.3,2.9,2.3,4.6,3.1c1.8,0.8,3.6,1.1,5.6,1.1
				c2,0,3.9-0.4,5.6-1.1c1.8-0.8,3.3-1.8,4.6-3.1c1.3-1.3,2.3-2.8,3.1-4.6c0.8-1.8,1.1-3.6,1.1-5.6v-43.5h14.5V338.9z"/>
			<path fill="#603913" d="M495.4,368.8c-4.1,0-8.1-0.8-11.7-2.4c-3.6-1.6-6.8-3.7-9.5-6.4c-2.7-2.7-4.8-5.9-6.4-9.5
				c-1.6-3.6-2.4-7.6-2.4-11.7v-44.5h16.4v44.5c0,1.8,0.4,3.6,1.1,5.2c0.7,1.6,1.7,3.1,2.9,4.3c1.2,1.2,2.7,2.2,4.3,2.9
				c3.3,1.4,7.2,1.4,10.5,0c1.6-0.7,3.1-1.7,4.3-2.9c1.2-1.2,2.2-2.7,2.9-4.3c0.7-1.6,1.1-3.4,1.1-5.2v-44.5h16.5v44.5
				c0,4.1-0.8,8.1-2.4,11.7c-1.6,3.6-3.7,6.8-6.4,9.5c-2.7,2.7-5.9,4.8-9.5,6.4C503.4,368,499.5,368.8,495.4,368.8z M467.4,296.4
				v42.5c0,3.9,0.7,7.5,2.2,10.9c1.5,3.4,3.5,6.4,6,8.9c2.5,2.5,5.5,4.5,8.9,6c3.4,1.5,7,2.2,10.9,2.2c3.9,0,7.5-0.7,10.9-2.2
				c3.4-1.5,6.4-3.5,8.9-6s4.5-5.5,6-8.9c1.5-3.4,2.2-7,2.2-10.9v-42.5h-12.5v42.5c0,2.1-0.4,4.1-1.2,6c-0.8,1.9-1.9,3.5-3.3,4.9
				c-1.4,1.4-3.1,2.5-4.9,3.3c-3.8,1.6-8.3,1.6-12.1,0c-1.9-0.8-3.5-1.9-4.9-3.3c-1.4-1.4-2.5-3-3.3-4.9c-0.8-1.9-1.2-3.9-1.2-6
				v-42.5H467.4z"/>
		</g>
		<g id="XMLID_49_">
			<path fill="#603913" d="M594.9,367.8h-15.5l-27.9-47.7v47.7h-14.5v-72.4h15.5l27.9,47.7v-47.7h14.5V367.8z"/>
			<path fill="#603913" d="M595.9,368.8h-17.1l-26.4-45v45h-16.5v-74.4H553l26.4,45v-45h16.5V368.8z M579.9,366.8h13.9v-70.4h-12.5
				v50.4l-29.5-50.4h-13.9v70.4h12.5v-50.4L579.9,366.8z"/>
		</g>
		<g id="XMLID_51_">
			<path fill="#603913" d="M638.7,367.8h-14.4v-57.9h-21.8v-14.5h57.9v14.5h-21.7V367.8z"/>
			<path fill="#603913" d="M639.7,368.8h-16.4v-57.9h-21.8v-16.5h59.9v16.5h-21.7V368.8z M625.3,366.8h12.4v-57.9h21.7v-12.5h-55.9
				v12.5h21.8V366.8z"/>
		</g>
	</g>
	<g id="XMLID_6_">
		<g id="XMLID_13_">
			<path fill="#603913" d="M173.3,283.9h-15.4V223h-23.2v-15.2h61.7V223h-23.1V283.9z"/>
			<path fill="#603913" d="M174.3,284.9h-17.4V224h-23.2v-17.2h63.7V224h-23.1V284.9z M158.9,282.9h13.4V222h23.1v-13.2h-59.7V222
				h23.2V282.9z"/>
		</g>
		<g id="XMLID_24_">
			<path fill="#603913" d="M220.1,283.9h-15.4v-76.1h30.9c2.8,0,5.6,0.4,8.2,1.1c2.6,0.7,5.1,1.8,7.3,3.1c2.3,1.3,4.4,2.9,6.2,4.8
				c1.9,1.9,3.5,3.9,4.8,6.2c1.3,2.3,2.4,4.7,3.1,7.3c0.7,2.6,1.1,5.3,1.1,8.1c0,2.6-0.3,5.2-1,7.6c-0.7,2.5-1.6,4.8-2.9,7.1
				c-1.2,2.2-2.8,4.3-4.5,6.2c-1.8,1.9-3.8,3.5-6,4.9l8.6,19.9h-16.4l-6.7-15.3l-17.3,0.1V283.9z M220.1,223v30.5h15.4
				c2.1,0,4.1-0.4,6-1.2c1.9-0.8,3.5-1.9,4.9-3.3c1.4-1.4,2.5-3,3.3-4.9c0.8-1.9,1.2-3.8,1.2-5.9c0-2.1-0.4-4.1-1.2-5.9
				c-0.8-1.9-1.9-3.5-3.3-4.9c-1.4-1.4-3-2.5-4.9-3.3c-1.9-0.8-3.9-1.2-6-1.2H220.1z"/>
			<path fill="#603913" d="M262.1,284.9h-18.6l-6.7-15.3l-15.6,0.1v15.2h-17.4v-78.1h31.9c2.9,0,5.8,0.4,8.4,1.1
				c2.7,0.7,5.2,1.8,7.6,3.2c2.3,1.4,4.5,3,6.4,4.9c1.9,1.9,3.6,4.1,5,6.4c1.4,2.3,2.5,4.9,3.2,7.5c0.8,2.7,1.1,5.5,1.1,8.3
				c0,2.7-0.3,5.4-1,7.9c-0.7,2.5-1.7,5-2.9,7.3c-1.3,2.3-2.9,4.4-4.7,6.4c-1.6,1.7-3.5,3.3-5.5,4.6L262.1,284.9z M244.8,282.9H259
				l-8.3-19.3l0.7-0.5c2.1-1.3,4.1-2.9,5.8-4.7c1.7-1.8,3.2-3.8,4.4-5.9c1.2-2.1,2.1-4.4,2.8-6.8c0.6-2.4,1-4.9,1-7.4
				c0-2.7-0.4-5.3-1.1-7.8c-0.7-2.5-1.7-4.9-3-7c-1.3-2.2-2.9-4.2-4.7-6c-1.8-1.8-3.8-3.3-6-4.6c-2.2-1.3-4.6-2.3-7.1-3
				c-2.5-0.7-5.2-1.1-7.9-1.1h-29.9v74.1h13.4v-15.2l18.9-0.1L244.8,282.9z M235.6,254.5h-16.4V222h16.4c2.2,0,4.4,0.4,6.4,1.3
				c2,0.8,3.7,2,5.2,3.5c1.5,1.5,2.7,3.2,3.5,5.2c0.9,2,1.3,4.1,1.3,6.3s-0.4,4.3-1.3,6.3c-0.9,2-2,3.7-3.5,5.2
				c-1.5,1.5-3.2,2.6-5.2,3.5C239.9,254,237.8,254.5,235.6,254.5z M221.1,252.5h14.4c2,0,3.8-0.4,5.6-1.1c1.7-0.7,3.3-1.8,4.6-3.1
				c1.3-1.3,2.3-2.8,3.1-4.5c0.7-1.7,1.1-3.6,1.1-5.5s-0.4-3.8-1.1-5.5c-0.8-1.7-1.8-3.3-3.1-4.5c-1.3-1.3-2.8-2.3-4.6-3.1
				c-1.7-0.7-3.6-1.1-5.6-1.1h-14.4V252.5z"/>
		</g>
		<g id="XMLID_31_">
			<path fill="#603913" d="M329.4,283.9h-52.9v-76.1h52.9V223H292v15.2h25.4v15.2H292v15.2h37.5V283.9z"/>
			<path fill="#603913" d="M330.4,284.9h-54.9v-78.1h54.9V224H293v13.2h25.4v17.2H293v13.2h37.5V284.9z M277.5,282.9h50.9v-13.2H291
				v-17.2h25.4v-13.2H291V222h37.5v-13.2h-50.9V282.9z"/>
		</g>
		<g id="XMLID_33_">
			<path fill="#603913" d="M401.1,283.9h-15.4v-15.2h-30.9v15.2h-15.4v-45.6c0-4.2,0.8-8.2,2.4-11.9c1.6-3.7,3.8-6.9,6.6-9.7
				c2.8-2.8,6-4.9,9.8-6.5c3.7-1.6,7.8-2.4,12-2.4s8.3,0.8,12,2.4c3.7,1.6,7,3.8,9.8,6.5c2.8,2.8,5,6,6.6,9.7
				c1.6,3.7,2.4,7.6,2.4,11.9V283.9z M385.7,253.5v-15.2c0-2.1-0.4-4.1-1.2-5.9c-0.8-1.9-1.9-3.5-3.3-4.9c-1.4-1.4-3-2.5-4.9-3.3
				c-1.9-0.8-3.9-1.2-6-1.2c-2.1,0-4.1,0.4-6,1.2c-1.9,0.8-3.5,1.9-4.9,3.3c-1.4,1.4-2.5,3-3.3,4.9c-0.8,1.9-1.2,3.8-1.2,5.9v15.2
				H385.7z"/>
			<path fill="#603913" d="M402.1,284.9h-17.4v-15.2h-28.9v15.2h-17.4v-46.6c0-4.3,0.8-8.5,2.5-12.3c1.7-3.8,3.9-7.2,6.8-10
				c2.9-2.8,6.3-5.1,10.1-6.7c3.9-1.6,8-2.5,12.4-2.5s8.6,0.8,12.4,2.5c3.9,1.6,7.3,3.9,10.1,6.7c2.9,2.8,5.2,6.2,6.8,10
				c1.7,3.8,2.5,7.9,2.5,12.3V284.9z M386.7,282.9h13.4v-44.6c0-4.1-0.8-7.9-2.3-11.5c-1.6-3.6-3.7-6.7-6.4-9.4
				c-2.7-2.7-5.9-4.8-9.5-6.3c-3.6-1.5-7.5-2.3-11.6-2.3c-4.1,0-8,0.8-11.6,2.3c-3.6,1.5-6.8,3.7-9.5,6.3c-2.7,2.7-4.8,5.8-6.4,9.4
				c-1.6,3.6-2.3,7.4-2.3,11.5v44.6h13.4v-15.2h32.9V282.9z M386.7,254.5h-32.9v-16.2c0-2.2,0.4-4.3,1.3-6.3c0.9-2,2-3.7,3.5-5.2
				s3.2-2.6,5.2-3.5c4-1.7,8.8-1.7,12.8,0c2,0.8,3.8,2,5.2,3.5c1.5,1.5,2.7,3.2,3.5,5.2c0.9,2,1.3,4.1,1.3,6.3V254.5z M355.8,252.5
				h28.9v-14.2c0-1.9-0.4-3.8-1.1-5.5c-0.8-1.7-1.8-3.3-3.1-4.5c-1.3-1.3-2.9-2.3-4.6-3.1c-3.5-1.5-7.7-1.5-11.2,0
				c-1.8,0.7-3.3,1.8-4.6,3.1c-1.3,1.3-2.3,2.8-3.1,4.5c-0.7,1.7-1.1,3.6-1.1,5.5V252.5z"/>
		</g>
		<g id="XMLID_36_">
			<path fill="#603913" d="M410,230.6c0-3.1,0.6-6.1,1.8-8.9c1.2-2.8,2.9-5.2,5-7.2c2.1-2.1,4.5-3.7,7.3-4.9c2.8-1.2,5.8-1.8,9-1.8
				h35.4V223h-35.4c-1.1,0-2.1,0.2-3,0.6c-0.9,0.4-1.8,0.9-2.4,1.6c-0.7,0.7-1.2,1.5-1.6,2.4c-0.4,0.9-0.6,1.9-0.6,3s0.2,2.1,0.6,3
				c0.4,0.9,0.9,1.8,1.6,2.4c0.7,0.7,1.5,1.2,2.4,1.6c0.9,0.4,1.9,0.6,3,0.6h15.4c3.2,0,6.2,0.6,9,1.8c2.8,1.2,5.3,2.8,7.4,4.9
				c2.1,2.1,3.8,4.5,5,7.3c1.2,2.8,1.8,5.7,1.8,8.9c0,3.1-0.6,6.1-1.8,8.9c-1.2,2.8-2.9,5.2-5,7.2c-2.1,2.1-4.6,3.7-7.4,4.9
				c-2.8,1.2-5.8,1.8-9,1.8h-34.3v-15.2h34.3c1.1,0,2.1-0.2,3-0.6c0.9-0.4,1.7-0.9,2.4-1.6c0.7-0.7,1.2-1.5,1.6-2.4
				c0.4-0.9,0.6-1.9,0.6-3c0-1.1-0.2-2.1-0.6-3c-0.4-0.9-0.9-1.7-1.6-2.4c-0.7-0.7-1.5-1.2-2.4-1.6c-0.9-0.4-1.9-0.6-3-0.6h-15.4
				c-3.2,0-6.2-0.6-9-1.8c-2.8-1.2-5.2-2.8-7.3-4.9c-2.1-2.1-3.8-4.5-5-7.3C410.6,236.7,410,233.7,410,230.6z"/>
			<path fill="#603913" d="M448.6,284.9h-35.3v-17.2h35.3c0.9,0,1.8-0.2,2.6-0.5c0.8-0.3,1.5-0.8,2.1-1.4c0.6-0.6,1.1-1.3,1.4-2.1
				c0.3-0.8,0.5-1.7,0.5-2.6c0-0.9-0.2-1.8-0.5-2.6c-0.3-0.8-0.8-1.5-1.4-2.1c-0.6-0.6-1.3-1.1-2.1-1.4c-0.8-0.3-1.7-0.5-2.6-0.5
				h-15.4c-3.3,0-6.5-0.6-9.4-1.9c-2.9-1.2-5.5-3-7.7-5.1c-2.2-2.1-3.9-4.7-5.2-7.6c-1.3-2.9-1.9-6-1.9-9.3c0-3.3,0.6-6.4,1.9-9.3
				c1.3-2.9,3-5.4,5.2-7.5c2.2-2.1,4.8-3.9,7.7-5.1c2.9-1.3,6.1-1.9,9.4-1.9h36.4V224h-36.4c-0.9,0-1.8,0.2-2.6,0.5
				c-0.8,0.3-1.5,0.8-2.1,1.4c-0.6,0.6-1.1,1.3-1.4,2.1c-0.3,0.8-0.5,1.7-0.5,2.6c0,0.9,0.2,1.8,0.5,2.6c0.3,0.8,0.8,1.5,1.4,2.1
				c0.6,0.6,1.3,1.1,2.1,1.4c0.8,0.3,1.7,0.5,2.6,0.5h15.4c3.3,0,6.5,0.6,9.4,1.9c2.9,1.2,5.5,2.9,7.7,5.1c2.2,2.1,3.9,4.7,5.2,7.6
				c1.3,2.9,1.9,6,1.9,9.3c0,3.3-0.6,6.4-1.9,9.3c-1.3,2.9-3,5.4-5.2,7.6c-2.2,2.1-4.8,3.9-7.7,5.1
				C455.1,284.2,451.9,284.9,448.6,284.9z M415.3,282.9h33.3c3,0,5.9-0.6,8.6-1.7c2.7-1.1,5.1-2.7,7.1-4.7c2-2,3.6-4.3,4.7-6.9
				c1.1-2.6,1.7-5.5,1.7-8.5c0-3-0.6-5.9-1.7-8.5c-1.1-2.6-2.7-5-4.7-7c-2-2-4.4-3.5-7.1-4.7c-2.7-1.1-5.6-1.7-8.6-1.7h-15.4
				c-1.2,0-2.3-0.2-3.4-0.7c-1-0.4-2-1.1-2.8-1.8c-0.8-0.8-1.4-1.7-1.9-2.8c-0.4-1.1-0.7-2.2-0.7-3.4c0-1.2,0.2-2.3,0.7-3.4
				c0.4-1,1.1-2,1.9-2.7c0.8-0.8,1.7-1.4,2.8-1.8c1.1-0.4,2.2-0.7,3.4-0.7h34.4v-13.2h-34.4c-3,0-5.9,0.6-8.6,1.7
				c-2.7,1.1-5,2.7-7,4.7c-2,2-3.6,4.3-4.8,6.9c-1.2,2.6-1.7,5.5-1.7,8.5c0,3,0.6,5.9,1.7,8.5c1.2,2.6,2.8,5,4.8,7
				c2,2,4.4,3.6,7,4.7c2.7,1.1,5.5,1.7,8.6,1.7h15.4c1.2,0,2.3,0.2,3.4,0.7c1,0.4,2,1.1,2.8,1.8c0.8,0.8,1.4,1.7,1.9,2.7
				c0.4,1,0.7,2.2,0.7,3.4c0,1.2-0.2,2.3-0.7,3.4c-0.4,1-1.1,2-1.9,2.7c-0.8,0.8-1.7,1.4-2.8,1.8c-1.1,0.4-2.2,0.7-3.4,0.7h-33.3
				V282.9z"/>
		</g>
		<g id="XMLID_38_">
			<path fill="#603913" d="M542.8,253.5c0,4.2-0.8,8.2-2.4,11.9c-1.6,3.7-3.8,6.9-6.6,9.7c-2.8,2.7-6.1,4.9-9.8,6.5
				c-3.7,1.6-7.8,2.4-12,2.4s-8.3-0.8-12-2.4c-3.8-1.6-7-3.8-9.8-6.5c-2.8-2.7-5-6-6.6-9.7c-1.6-3.7-2.4-7.6-2.4-11.9v-45.7h15.4
				v45.7c0,2.1,0.4,4.1,1.2,5.9c0.8,1.8,1.9,3.4,3.3,4.8c1.4,1.4,3,2.5,4.9,3.3s3.9,1.2,6,1.2s4.1-0.4,6-1.2
				c1.9-0.8,3.5-1.9,4.9-3.3c1.4-1.4,2.5-3,3.3-4.8c0.8-1.8,1.2-3.8,1.2-5.9v-45.7h15.4V253.5z"/>
			<path fill="#603913" d="M511.9,284.9c-4.4,0-8.6-0.8-12.4-2.5c-3.8-1.6-7.2-3.9-10.1-6.7c-2.9-2.8-5.1-6.2-6.8-10
				c-1.7-3.8-2.5-7.9-2.5-12.3v-46.7h17.4v46.7c0,1.9,0.4,3.8,1.1,5.5c0.8,1.7,1.8,3.2,3.1,4.5c1.3,1.3,2.9,2.3,4.6,3.1
				c3.5,1.5,7.7,1.5,11.2,0c1.8-0.7,3.3-1.8,4.6-3.1c1.3-1.3,2.3-2.8,3.1-4.5c0.7-1.7,1.1-3.5,1.1-5.5v-46.7h17.4v46.7
				c0,4.3-0.8,8.5-2.5,12.3c-1.7,3.8-4,7.2-6.8,10c-2.9,2.8-6.3,5.1-10.1,6.7C520.4,284,516.2,284.9,511.9,284.9z M482,208.8v44.7
				c0,4.1,0.8,7.9,2.3,11.5c1.6,3.6,3.7,6.7,6.4,9.3c2.7,2.6,5.9,4.8,9.5,6.3c3.6,1.5,7.5,2.3,11.6,2.3s8-0.8,11.6-2.3
				c3.6-1.5,6.8-3.7,9.5-6.3c2.7-2.6,4.9-5.8,6.4-9.3c1.6-3.6,2.3-7.4,2.3-11.5v-44.7h-13.4v44.7c0,2.2-0.4,4.3-1.3,6.3
				c-0.9,1.9-2,3.7-3.5,5.1c-1.5,1.5-3.2,2.6-5.2,3.5c-4,1.7-8.8,1.7-12.8,0c-2-0.8-3.8-2-5.2-3.5c-1.5-1.5-2.7-3.2-3.5-5.1
				c-0.9-2-1.3-4.1-1.3-6.3v-44.7H482z"/>
		</g>
		<g id="XMLID_40_">
			<path fill="#603913" d="M571.6,283.9h-15.4v-76.1h30.9c2.8,0,5.6,0.4,8.2,1.1c2.6,0.7,5.1,1.8,7.3,3.1c2.3,1.3,4.4,2.9,6.2,4.8
				c1.9,1.9,3.5,3.9,4.8,6.2c1.3,2.3,2.4,4.7,3.1,7.3c0.7,2.6,1.1,5.3,1.1,8.1c0,2.6-0.3,5.2-1,7.6c-0.7,2.5-1.6,4.8-2.9,7.1
				c-1.2,2.2-2.8,4.3-4.5,6.2c-1.8,1.9-3.8,3.5-6,4.9l8.6,19.9h-16.4l-6.7-15.3l-17.3,0.1V283.9z M571.6,223v30.5h15.4
				c2.1,0,4.1-0.4,6-1.2c1.9-0.8,3.5-1.9,4.9-3.3c1.4-1.4,2.5-3,3.3-4.9c0.8-1.9,1.2-3.8,1.2-5.9c0-2.1-0.4-4.1-1.2-5.9
				c-0.8-1.9-1.9-3.5-3.3-4.9c-1.4-1.4-3-2.5-4.9-3.3c-1.9-0.8-3.9-1.2-6-1.2H571.6z"/>
			<path fill="#603913" d="M613.5,284.9H595l-6.7-15.3l-15.6,0.1v15.2h-17.4v-78.1h31.9c2.9,0,5.8,0.4,8.4,1.1
				c2.7,0.7,5.2,1.8,7.6,3.2c2.3,1.4,4.5,3,6.4,4.9c1.9,1.9,3.6,4.1,5,6.4c1.4,2.3,2.5,4.9,3.2,7.5c0.8,2.7,1.1,5.5,1.1,8.3
				c0,2.7-0.3,5.3-1,7.9c-0.7,2.5-1.7,5-2.9,7.3c-1.3,2.3-2.9,4.4-4.7,6.4c-1.6,1.7-3.5,3.3-5.5,4.6L613.5,284.9z M596.3,282.9h14.2
				l-8.3-19.3l0.7-0.5c2.1-1.3,4.1-2.9,5.8-4.7c1.7-1.8,3.2-3.8,4.4-5.9c1.2-2.2,2.1-4.4,2.8-6.8c0.6-2.4,1-4.9,1-7.4
				c0-2.7-0.4-5.3-1.1-7.8c-0.7-2.5-1.7-4.9-3-7c-1.3-2.2-2.9-4.2-4.7-6c-1.8-1.8-3.8-3.3-6-4.6c-2.2-1.3-4.6-2.3-7.1-3
				c-2.5-0.7-5.2-1.1-7.9-1.1h-29.9v74.1h13.4v-15.2l18.9-0.1L596.3,282.9z M587.1,254.5h-16.4V222h16.4c2.2,0,4.4,0.4,6.4,1.3
				c2,0.8,3.7,2,5.2,3.5c1.5,1.5,2.7,3.2,3.5,5.2c0.9,2,1.3,4.1,1.3,6.3s-0.4,4.3-1.3,6.3c-0.9,2-2,3.7-3.5,5.2
				c-1.5,1.5-3.2,2.6-5.2,3.5C591.4,254,589.3,254.5,587.1,254.5z M572.6,252.5h14.4c2,0,3.9-0.4,5.6-1.1c1.7-0.7,3.3-1.8,4.6-3.1
				c1.3-1.3,2.3-2.8,3.1-4.5c0.7-1.7,1.1-3.6,1.1-5.5s-0.4-3.8-1.1-5.5c-0.8-1.7-1.8-3.3-3.1-4.5c-1.3-1.3-2.8-2.3-4.6-3.1
				c-1.7-0.7-3.6-1.1-5.6-1.1h-14.4V252.5z"/>
		</g>
		<g id="XMLID_43_">
			<path fill="#603913" d="M680.9,283.9H628v-76.1h52.9V223h-37.5v15.2h25.4v15.2h-25.4v15.2h37.5V283.9z"/>
			<path fill="#603913" d="M681.9,284.9H627v-78.1h54.9V224h-37.5v13.2h25.4v17.2h-25.4v13.2h37.5V284.9z M629,282.9h50.9v-13.2
				h-37.5v-17.2h25.4v-13.2h-25.4V222h37.5v-13.2H629V282.9z"/>
		</g>
	</g>
	<g id="XMLID_81_">
		<g>
			<path fill="#F15A29" d="M228.4,193.3l-3.4-2.2c0.9-1.4,1.9-2.8,2.8-4.2l3.3,2.3C230.3,190.6,229.4,191.9,228.4,193.3z"/>
		</g>
		<g>
			<path fill="#F15A29" d="M236.9,181.4l-3.2-2.4c2-2.6,4.1-5.2,6.2-7.7l3,2.6C240.9,176.3,238.9,178.8,236.9,181.4z M489.1,175.2
				c-2.8-1.7-5.6-3.4-8.3-5l2-3.4c2.8,1.6,5.6,3.3,8.4,5.1L489.1,175.2z M249.5,166.8l-2.9-2.8c2.3-2.4,4.7-4.7,7.1-6.9l2.7,3
				C254.1,162.2,251.7,164.4,249.5,166.8z M472.4,165.3c-2.8-1.6-5.7-3.2-8.5-4.7l1.9-3.5c2.8,1.5,5.7,3.1,8.6,4.7L472.4,165.3z
				 M455.2,156.2c-2.9-1.5-5.8-2.9-8.7-4.3l1.7-3.6c2.9,1.4,5.9,2.8,8.8,4.3L455.2,156.2z M263.8,153.9l-2.5-3.1
				c2.6-2.1,5.3-4,8-5.9l2.2,3.3C268.9,149.9,266.3,151.9,263.8,153.9z M437.6,147.9c-3-1.3-6-2.6-8.9-3.8l1.5-3.7
				c3,1.2,6,2.5,9,3.8L437.6,147.9z M279.7,143.1l-2-3.5c2.9-1.6,5.8-3.2,8.8-4.6l1.7,3.6C285.3,140,282.5,141.5,279.7,143.1z
				 M419.6,140.6c-3.1-1.1-6.1-2.2-9.2-3.2l1.3-3.8c3.1,1,6.2,2.1,9.3,3.3L419.6,140.6z M297,134.8l-1.4-3.7
				c3.1-1.2,6.2-2.3,9.4-3.2l1.2,3.8C303,132.6,300,133.7,297,134.8z M401.2,134.5c-3.1-0.9-6.3-1.8-9.4-2.5l1-3.9
				c3.1,0.8,6.3,1.6,9.5,2.6L401.2,134.5z M382.4,129.8c-3.2-0.6-6.4-1.2-9.5-1.7l0.6-4c3.2,0.5,6.5,1.1,9.7,1.7L382.4,129.8z
				 M315.4,129.3l-0.9-3.9c3.2-0.7,6.5-1.3,9.7-1.8l0.6,4C321.7,128,318.5,128.6,315.4,129.3z M363.3,126.9
				c-3.2-0.3-6.5-0.6-9.6-0.7l0.2-4c3.2,0.1,6.6,0.4,9.9,0.7L363.3,126.9z M334.4,126.4l-0.3-4c3.2-0.3,6.6-0.4,9.9-0.5l0.1,4
				C340.8,126,337.6,126.2,334.4,126.4z"/>
		</g>
		<g>
			<path fill="#F15A29" d="M501.6,183.1c-1.4-0.9-2.8-1.8-4.2-2.7l2.2-3.4c1.4,0.9,2.8,1.8,4.2,2.7L501.6,183.1z"/>
		</g>
	</g>
	<g id="XMLID_71_">
		<polygon fill="#F15A29" points="142.5,342.6 139.4,337 128.8,342.9 122.5,331.6 116.9,334.7 123.2,346.1 111.9,352.4 115,358 
			126.3,351.7 132.2,362.2 137.8,359.1 131.9,348.5 		"/>
	</g>
</g>
<g id="Layer_3">
	<g>
		<path fill="#F15A29" d="M230.2,545.8c-3.2-0.1-6.6-0.5-10.2-1.2l0.7-3.9c3.4,0.6,6.7,1,9.6,1.1L230.2,545.8z M240.6,545.1
			l-0.8-3.9c3.2-0.6,6.1-1.8,8.6-3.3l2.1,3.4C247.6,543.1,244.3,544.3,240.6,545.1z M210,542.3c-3.1-0.9-6.3-1.9-9.6-3.1l1.4-3.8
			c3.2,1.2,6.4,2.2,9.4,3L210,542.3z M191,535.5c-3.2-1.4-6.2-3.1-9-4.8l2.1-3.4c2.7,1.6,5.6,3.2,8.6,4.5L191,535.5z M258.3,533.9
			l-3.3-2.3c1.7-2.4,3-5.2,4.1-8.4l3.8,1.3C261.7,528,260.1,531.2,258.3,533.9z M173.6,524.7c-2.7-2.2-5.2-4.7-7.4-7.2l3-2.6
			c2.1,2.4,4.4,4.7,6.9,6.8L173.6,524.7z M265.2,514.4l-4-0.6c0.4-2.9,0.7-6,0.9-9.8l4,0.2C265.9,508.1,265.6,511.4,265.2,514.4z
			 M160.1,509.1c-1.7-2.9-3.3-6-4.5-9.3l3.7-1.4c1.2,3,2.6,5.9,4.2,8.7L160.1,509.1z M503.6,495.2l0-4c3.3,0,6.5-0.3,9.6-0.8
			l0.6,3.9C510.5,494.8,507.1,495.1,503.6,495.2z M493.4,494.6c-3.3-0.4-6.6-1-10.1-1.7l0.9-3.9c3.3,0.7,6.5,1.3,9.6,1.6
			L493.4,494.6z M266.6,494.2l-4-0.2c0.1-1.4,0.1-2.5,0.2-3.4c0.2-2.2,0.5-4.5,0.8-6.7l4,0.6c-0.3,2.1-0.6,4.3-0.8,6.5
			C266.7,491.8,266.6,492.9,266.6,494.2z M523.8,491.8l-1.3-3.8c3-1.1,6-2.4,8.7-4l2,3.5C530.2,489.2,527.1,490.6,523.8,491.8z
			 M473.5,490.3c-3.1-1-6.3-2.1-9.6-3.4l1.5-3.7c3.1,1.2,6.3,2.3,9.3,3.3L473.5,490.3z M152.7,490c-0.7-3.3-1.2-6.7-1.5-10.2l4-0.3
			c0.2,3.3,0.7,6.5,1.4,9.6L152.7,490z M454.6,483c-3-1.4-6-2.8-9.1-4.4l1.8-3.6c3,1.5,6,3,8.9,4.3L454.6,483z M541.6,481.5l-2.6-3
			c2.4-2,4.7-4.3,6.8-6.9l3.1,2.6C546.6,476.8,544.2,479.3,541.6,481.5z M269.4,474.7l-3.9-0.9c0.8-3.4,1.7-6.7,2.8-9.8l3.8,1.3
			C271,468.3,270.1,471.5,269.4,474.7z M155.1,469.7l-4-0.2c0.2-3.4,0.5-6.8,1-10.2l4,0.6C155.6,463.2,155.2,466.5,155.1,469.7z
			 M555,465.9l-3.4-2.1c1.7-2.7,3.3-5.5,4.7-8.6l3.6,1.7C558.4,460,556.7,463.1,555,465.9z M275.6,456.2l-3.6-1.7
			c1.5-3.2,3.2-6.2,4.9-9l3.4,2.2C278.6,450.3,277,453.2,275.6,456.2z M158.1,450.5l-3.9-1.1c0.4-1.4,0.7-2.2,0.7-2.2
			c0-0.1,1.1-2.9,2.6-7.3l3.8,1.3c-1.5,4.6-2.6,7.3-2.6,7.5c0,0,0,0,0,0C158.7,448.5,158.5,449.2,158.1,450.5z M563.8,447.5
			l-3.8-1.4c1.1-3,2.1-6.2,3-9.4l3.9,1C566,441.1,565,444.4,563.8,447.5z M286.2,440l-3-2.7c2.4-2.6,5-4.9,7.7-7l2.4,3.2
			C290.8,435.5,288.4,437.6,286.2,440z M164.3,431.4l-3.8-1.1c0.9-3.2,1.8-6.5,2.5-9.6l3.9,0.9C166.1,424.8,165.3,428.1,164.3,431.4
			z M301.5,428.7l-1.7-3.6c3.1-1.4,6.4-2.6,9.8-3.4l0.9,3.9C307.4,426.3,304.4,427.4,301.5,428.7z M569.2,427.8l-3.9-0.7
			c1.1-5.8,1.4-9.7,1.4-9.7l4,0.3C570.6,417.8,570.3,421.7,569.2,427.8z M349.1,427.5c-3.3-0.9-6.5-1.6-9.6-2.2l0.7-3.9
			c3.2,0.6,6.5,1.3,9.9,2.3L349.1,427.5z M329.8,424.1c-3.3-0.2-6.6-0.2-9.7,0l-0.3-4c3.3-0.2,6.7-0.2,10.3,0L329.8,424.1z
			 M169,411.8l-3.9-0.7c0.6-3.4,1.1-6.6,1.5-9.8l4,0.5C170.2,405,169.7,408.3,169,411.8z M171.4,391.6l-4-0.1c0-1.1,0.1-2.2,0.1-3.2
			c0-2.3-0.1-4.5-0.3-6.5l4-0.4c0.2,2.2,0.3,4.5,0.3,6.9C171.5,389.4,171.5,390.5,171.4,391.6z M165.5,372.3c-1-3.3-2.3-6.1-3.9-8.4
			l3.3-2.3c1.9,2.7,3.4,5.9,4.5,9.6L165.5,372.3z M154.9,357.8c-2.5-1.4-5.4-2.4-8.7-2.8l0.5-4c3.8,0.5,7.2,1.6,10.2,3.3
			L154.9,357.8z"/>
	</g>
</g>
<g id="Lupa">
	<polygon id="XMLID_60_" display="none" fill="#EEE7E4" points="258.4,357.4 319.6,417.3 348.2,360.5 349.7,357.5 237.6,344.7 
		319.6,417.3 319.6,417.3 319.6,417.3 257.7,353.7 	"/>
	<circle id="XMLID_66_" display="none" fill="#FFD15E" cx="333.8" cy="425.1" r="97.4"/>
	<path id="XMLID_63_" display="none" fill="#F8B54D" d="M428.4,401.6c-0.2-1-0.5-1.9-0.8-2.9l-48-28.9l-21.6-0.2L300.3,496l43.2,26
		c4.6-0.5,9.2-1.3,13.8-2.4C409.5,506.6,441.3,453.8,428.4,401.6z"/>
	
		<rect id="XMLID_131_" x="339.3" y="500.6" transform="matrix(-0.8567 -0.5158 0.5158 -0.8567 376.038 1159.9744)" fill="#334B5E" width="19.7" height="54.3"/>
	
		<rect id="XMLID_129_" x="320.3" y="532.4" transform="matrix(-0.8567 -0.5158 0.5158 -0.8567 324.5095 1209.2042)" fill="#334B5E" width="19.7" height="54.3"/>
	
		<rect id="XMLID_126_" x="347.5" y="502.9" transform="matrix(0.8567 0.5158 -0.5158 0.8567 323.9548 -106.0801)" fill="#2C3C4F" width="10.9" height="54.3"/>
	
		<rect id="XMLID_105_" x="328.5" y="534.7" transform="matrix(0.8567 0.5158 -0.5158 0.8567 337.6274 -91.7728)" fill="#2C3C4F" width="10.9" height="54.3"/>
	<path id="XMLID_76_" fill="#4B6576" d="M409.1,518c-19.2,4.8-39.3,0.6-55.3-11.9c-9.1-7.1-16.1-16.6-20.2-27.4
		c-8-21.3-4.6-44.4,9.3-62.4c7.1-9.1,16.6-16.2,27.3-20.3c18.9-7.3,39.4-5.4,56.4,4.8c30.3,18.3,40.1,57.8,21.9,88.1
		C439.7,503.5,425.7,513.8,409.1,518z M382.9,412.6c-13.4,3.3-24.4,12.5-30.1,25.5c-3.1,7-4.2,14.7-3.4,22.3
		c1.8,16.2,11.8,29.6,26.7,36.1c6.9,3,14.5,4.2,22,3.4c15.1-1.6,27.9-10.3,34.9-23.6c10.4-19.8,4.2-44.7-14.2-57.3
		C408.1,411.8,395.2,409.5,382.9,412.6z"/>
	<path id="XMLID_75_" fill="#334B5E" d="M426.7,400.7c-0.3-0.2-0.6-0.3-0.9-0.5l-10.2,16.9c0.3,0.2,0.6,0.3,0.9,0.5
		c21,12.6,27.8,40,15.1,61c-6.1,10.2-15.8,17.3-27.4,20.2c-11.5,2.9-23.5,1.1-33.6-5.1c-0.3-0.2-0.6-0.4-0.9-0.6l-10.2,16.9
		c0.3,0.2,0.6,0.4,0.9,0.6c14.7,8.8,31.9,11.4,48.6,7.3c16.6-4.1,30.7-14.5,39.5-29.2C466.8,458.5,457,419,426.7,400.7z"/>
	<path id="XMLID_74_" fill="#F3705A" d="M359.4,530.3l-18.1-10.9c-3.8-2.3-8.6-1-10.9,2.7l-33.6,55.9c-2.3,3.8-1,8.6,2.7,10.9
		l18.1,10.9c1.9,1.1,4,1.4,6,0.9c2-0.5,3.8-1.7,4.9-3.6l33.6-55.9C364.3,537.4,363.1,532.5,359.4,530.3z"/>
	<path id="XMLID_73_" fill="#F15640" d="M349.6,524.4l-41.8,69.5l9.8,5.9c1.9,1.1,4,1.4,6,0.9c2-0.5,3.8-1.7,4.9-3.6l33.6-55.9
		c2.3-3.8,1-8.6-2.7-10.9L349.6,524.4z"/>
	<path id="XMLID_62_" display="none" fill="none" stroke="#EF4136" stroke-width="5" stroke-miterlimit="10" d="M250.4,233.4
		c10.4-6.8,26.9-17.5,51.3-23.3c13.7-3.2,67.3-13.9,113.3,18c47.7,33,73.6,102.2,50.7,147.3c-8.5,16.7-28.4,39.4-50,38.7
		c-20.4-0.7-25.7-21.6-58-28.7c-8-1.8-24.3-5.3-40,2c-17.7,8.3-16.2,21.9-32,37.3c-21.8,21.2-58.5,28.4-87.3,18.7
		c-6.1-2.1-31.5-10.7-40-33.3c-5.2-14-1.8-27.7,6-48C184.7,309.6,201.8,265.5,250.4,233.4z"/>
	<path id="XMLID_67_" display="none" fill="none" stroke="#EF4136" stroke-width="5" stroke-miterlimit="10" d="M254.1,236.8
		c11.1-7.9,23.6-14.2,37.7-18.7c2.9-0.9,5.9-1.7,8.9-2.4c12.4-2.9,61.1-12.6,102.8,16.3c43.3,30,66.8,92.7,46,133.7
		c-7.7,15.2-25.7,35.7-45.4,35.1c-18.5-0.6-23.3-19.6-52.6-26c-7.3-1.6-22.1-4.8-36.3,1.8c-16.1,7.5-14.7,19.9-29,33.9
		c-19.7,19.2-53.1,25.8-79.2,16.9c-5.5-1.9-28.6-9.7-36.3-30.2c-4.8-12.7-1.7-25.2,5.4-43.5C192.9,310.2,215.1,264.4,254.1,236.8z"
		/>
	<g id="XMLID_10_">
		<g id="XMLID_58_">
			<defs>
				<rect id="XMLID_59_" x="365.4" y="424.5" width="52.7" height="57.6"/>
			</defs>
			<clipPath id="XMLID_83_">
				<use xlink:href="#XMLID_59_"  overflow="visible"/>
			</clipPath>
			<path id="XMLID_61_" clip-path="url(#XMLID_83_)" fill="#EF4136" d="M375.5,481.6c5.1,0,7.7-4.2,8.5-6.6c0,0,0-0.1,0-0.1
				c1.8-7,4.8-18.2,6.9-26.3h7.8c1.5,0,2.6-1.1,2.6-2.4s-1.2-2.4-2.6-2.4h-6.5c0.7-2.6,1.2-4.4,1.4-5l0.2-0.7
				c0.8-2.6,2.7-8.6,5.7-8.6c2.8,0,3.2,3.9,3.2,4.1c0.1,1.3,1.4,2.4,2.8,2.2c1.5-0.1,2.5-1.3,2.4-2.6c-0.2-3-2.3-8.6-8.5-8.6
				c-6.9,0-9.5,8.2-10.8,12.1l-0.2,0.7c-0.3,0.8-0.9,3.2-1.8,6.4h-9.3c-1.5,0-2.6,1.1-2.6,2.4s1.2,2.4,2.6,2.4h8
				c-2.7,10.2-6.2,23.6-6.6,25c-0.1,0.4-1.2,3.1-3.5,3.1c-3.4,0-4.9-4.4-4.9-4.4c-0.4-1.3-1.9-2-3.3-1.7c-1.4,0.4-2.2,1.7-1.8,3
				C366.4,476.6,369.6,481.6,375.5,481.6L375.5,481.6z M375.5,481.6"/>
		</g>
		<path id="XMLID_27_" fill="#EF4136" d="M414.7,475.3c1.6,0,2.9-1,2.9-2.6c0-0.8-0.3-1.4-1-2.2l-5.5-5.8l5.3-5.7
			c0.5-0.6,0.9-1.2,0.9-2c0-1.4-1.3-2.5-2.9-2.5c-1.1,0-2,0.6-2.7,1.5l-4.1,5l-4.1-5c-0.8-0.9-1.7-1.5-2.9-1.5c-1.6,0-2.9,1-2.9,2.6
			c0,0.8,0.3,1.4,1,2.2l5.1,5.4l-5.6,6.1c-0.5,0.6-0.9,1.2-0.9,2c0,1.4,1.3,2.5,2.9,2.5c1.1,0,2-0.6,2.7-1.5l4.4-5.4l4.4,5.4
			C412.6,474.7,413.5,475.3,414.7,475.3L414.7,475.3z M414.7,475.3"/>
	</g>
</g>
</svg>
