<?xml version="1.0" encoding="utf-8"?>
<!-- Generator: Adobe Illustrator 18.0.0, SVG Export Plug-In . SVG Version: 6.00 Build 0)  -->
<!DOCTYPE svg PUBLIC "-//W3C//DTD SVG 1.1//EN" "http://www.w3.org/Graphics/SVG/1.1/DTD/svg11.dtd">
<svg version="1.1" xmlns="http://www.w3.org/2000/svg" xmlns:xlink="http://www.w3.org/1999/xlink" x="0px" y="0px"
	 viewBox="0 0 115.4 121" enable-background="new 0 0 115.4 121" xml:space="preserve">
<g id="Layer_1" display="none">
	<g display="inline">
		<path fill="#5E3112" d="M-627.5,792.3c0,0,10.3-1.7,19.4-0.3c9.1,1.3,18.9-3.5,18.9-3.5s-0.7-4.1,3.3-4.1s18.6-0.7,22,0
			c3.3,0.7,12,3.6,12,3.6v4l7.5,3c0,0,5.3-4.3,12.3-5.5c7-1.2,4.2-3.2,11.2-3.2s15.7-3.9,24.3-2.3c8.7,1.6,25.4-1.1,30,5.3
			c4.7,6.3,13.3,9.7,18.7,5.7s12-8,19-8.7c7-0.7,10.3-4.8,12.3-2.1s9.3,6.7,9.3,6.7l4.7,3.2c0,0,3.3-2.6,7.3-4.1
			c4-1.5,7.3,0.7,11.3-0.1c4-0.8,9.3,0.1,14.7-0.1c5.3-0.2,16.7,1.5,21.3,0c4.7-1.5,11.3,0,11.3,0l10.7,3.8l-3.3,17.7l3,4.3
			l-7.7,7.3v11c0,0,4.8,7.7,4.8,11s-2.4,11.3-3.1,13.3s-2.5,1.3-1.9,9.3s0.7,8,0.7,8l0.7,6l0.7,7.3l-4.7,6c-6-4-9.3-8.7-9.3-8.7
			s-5.3-7.3-8.7-4.7c-3.3,2.7-8.7,7.8-8.7,7.8l-2.7,6.5h-4l-4-5.8l-6.7,1.8c0,0,1.3,9.1-6.7,9.8c-8,0.7-9.2-0.7-15.3,0
			c-6.1,0.7-6.7,1-10.1,0.2c-3.3-0.9-16.3-2.2-16.3,0.5s-9,4.1-9,4.1l-5.3-4.1l-3.3-1.3h-7.3l-6-0.2l-3.3-0.9l-4-8.8l-16.7,3.9
			l-7.3,5.9h-5.7l-7-2.8c0,0-4.7,1.1-6.7,2.4c-2,1.3-2.7,1.9-6.7,1.9s-14.7-0.1-14.7-0.7c0-0.7-12.7-0.7-12.7-0.7l-22.7-2l-27.3-4.7
			l-19.3,2l-4.7-2l-5.3-3.3l-4-18.7l10-12V851l-5.2-10.7l-4.6-17.3l5.6-20L-627.5,792.3z"/>
		<path fill="#9F5B26" d="M-627.5,787.3c0,0,10.3-1.7,19.4-0.3c9.1,1.3,18.9-3.5,18.9-3.5s-0.7-4.1,3.3-4.1s18.6-0.7,22,0
			c3.3,0.7,12,3.6,12,3.6v4l7.5,3c0,0,5.3-4.3,12.3-5.5c7-1.2,4.2-3.2,11.2-3.2s15.7-3.9,24.3-2.3c8.7,1.6,25.4-1.1,30,5.3
			c4.7,6.3,13.3,9.7,18.7,5.7s12-8,19-8.7c7-0.7,10.3-4.8,12.3-2.1s9.3,6.7,9.3,6.7l4.7,3.2c0,0,3.3-2.6,7.3-4.1
			c4-1.5,7.3,0.7,11.3-0.1c4-0.8,9.3,0.1,14.7-0.1c5.3-0.2,16.7,1.5,21.3,0c4.7-1.5,11.3,0,11.3,0l10.7,3.8l-3.3,17.7l3,4.3
			l-7.7,7.3v11c0,0,4.8,7.7,4.8,11s-2.4,11.3-3.1,13.3s-2.5,1.3-1.9,9.3s0.7,8,0.7,8l0.7,6l0.7,7.3l-4.7,6c-6-4-9.3-8.7-9.3-8.7
			s-5.3-7.3-8.7-4.7c-3.3,2.7-8.7,7.8-8.7,7.8l-2.7,6.5h-4l-4-5.8l-6.7,1.8c0,0,1.3,9.1-6.7,9.8c-8,0.7-9.2-0.7-15.3,0
			c-6.1,0.7-6.7,1-10.1,0.2c-3.3-0.9-16.3-2.2-16.3,0.5s-9,4.1-9,4.1l-5.3-4.1l-3.3-1.3h-7.3l-6-0.2l-3.3-0.9l-4-8.8l-16.7,3.9
			l-7.3,5.9h-5.7l-7-2.8c0,0-4.7,1.1-6.7,2.4c-2,1.3-2.7,1.9-6.7,1.9s-14.7-0.1-14.7-0.7c0-0.7-12.7-0.7-12.7-0.7l-22.7-2l-27.3-4.7
			l-19.3,2l-4.7-2l-5.3-3.3l-4-18.7l10-12V846l-5.2-10.7l-4.6-17.3l5.6-20L-627.5,787.3z"/>
		<path fill="#F6921E" d="M-627.5,781.3c0,0,10.3-1.7,19.4-0.3c9.1,1.3,18.9-3.5,18.9-3.5s-0.7-4.1,3.3-4.1s18.6-0.7,22,0
			c3.3,0.7,12,3.6,12,3.6v4l7.5,3c0,0,5.3-4.3,12.3-5.5c7-1.2,4.2-3.2,11.2-3.2s15.7-3.9,24.3-2.3c8.7,1.6,25.4-1.1,30,5.3
			c4.7,6.3,13.3,9.7,18.7,5.7s12-8,19-8.7c7-0.7,10.3-4.8,12.3-2.1s9.3,6.7,9.3,6.7l4.7,3.2c0,0,3.3-2.6,7.3-4.1
			c4-1.5,7.3,0.7,11.3-0.1c4-0.8,9.3,0.1,14.7-0.1c5.3-0.2,16.7,1.5,21.3,0c4.7-1.5,11.3,0,11.3,0l10.7,3.8l-3.3,17.7l3,4.3
			l-7.7,7.3v11c0,0,4.8,7.7,4.8,11s-2.4,11.3-3.1,13.3s-2.5,1.3-1.9,9.3s0.7,8,0.7,8l0.7,6l0.7,7.3l-4.7,6c-6-4-9.3-8.7-9.3-8.7
			s-5.3-7.3-8.7-4.7c-3.3,2.7-8.7,7.8-8.7,7.8l-2.7,6.5h-4l-4-5.8l-6.7,1.8c0,0,1.3,9.1-6.7,9.8c-8,0.7-9.2-0.7-15.3,0
			c-6.1,0.7-6.7,1-10.1,0.2c-3.3-0.9-16.3-2.2-16.3,0.5s-9,4.1-9,4.1l-5.3-4.1l-3.3-1.3h-7.3l-6-0.2l-3.3-0.9l-4-8.8l-16.7,3.9
			l-7.3,5.9h-5.7l-7-2.8c0,0-4.7,1.1-6.7,2.4c-2,1.3-2.7,1.9-6.7,1.9s-14.7-0.1-14.7-0.7c0-0.7-12.7-0.7-12.7-0.7l-22.7-2l-27.3-4.7
			l-19.3,2l-4.7-2l-5.3-3.3l-4-18.7l10-12V840l-5.2-10.7l-4.6-17.3l5.6-20L-627.5,781.3z"/>
	</g>
</g>
<g id="Layer_2" display="none">
	<g display="inline">
		<path fill="#5E3112" d="M-609.2,797l-3.3,4.5c0,0-6.3,1.9-7.2-0.1c-0.8-2-0.8-2-0.8-2l-3.8-2.2l2.1,15.8l-2.1,1.9h-3.2l-5.1-0.7
			l7,19.8l2.4,11.2l-3.8,10.8v13.2l3.5,5.6l-1.6,3.7l1.6,4.2l16.6-2.2l2.9,4.2l15-4l5.8,4.3h5.3l8.7-2.3l30.7,2.1l-17.6-8l17.6,8.2
			c0,0,4.5,0,5.7,0c1.3,0,8.3,0,8.3,0h14.6l6.4-6.7l6.8,2.9l10.2-1.5l5.2,5.1c0,0,9.6-3.4,10.3-1.7c0.6,1.7,8.3-2.4,8.3-2.4l6.8,4.1
			l8.5-2.2c0,0,2.1,6.6,3.4,4.4c1.3-2.2,8.1-8.8,8.1-8.8l5.9,1.5c0,0,5.5,1,8.5-0.5s3-1.4,4.7-1.4s0.4,4.3,0.4,4.3s14.8,0,16.1,0
			c1.3,0,4.7,2.8,8.1,2.8s11-3.2,13.1-3.7c2.1-0.5,4-1,6.4-0.5c2.3,0.5,15.3,4.1,15.3,4.1s3.4,3.3,5.5,2.8c2.1-0.4,8.1-7.6,9.3-7.6
			c1.3,0,6.6,0,6.6,0s4.5,4.9,6.6,4.9c2.1,0,6.5-5.2,6.5-5.2l5.3-2.1V873l6.1-1.2c0,0-0.1,2.9,2.4,0c2.5-2.9,2.8-2.9,2.8-2.9
			l-2.2-8.3V851l-0.1-10.3l-6.2-23.2l2-2.9l-0.5-4.4l-0.9-5.9l-3-5.4c0,0,1.3-2.2-1.7-2.2s-9.3,7.1-9.3,7.1l-4.2-2.9l-5.1-1
			l-6.4,1.5l-4.7,0.5l-2.1-5.1l-14,3.7l-10.2,1.2c0,0,0-1.7-3.4-1.7c-3.4,0-11.9,0-11.9,0l-2.5,1.6l-16.1-1c0,0-8.1-3.7-9.3-3.7
			c-1.3,0-5.9-0.3-9.3,1.2c-3.4,1.5-5.5,1.9-8.1,1.9c-2.5,0-12.7-1-14-1s-14.8,2.9-14.8,2.9l-8.9-2.9c0,0-0.4-2.2-4.2-2.2
			s-14.5,1.7-14.5,1.7l-8,2.4c0,0-2.1-4.1-5.9-4.1s-16.4,4.2-16.4,4.2h-14.1c0,0-4.7-4.3-5.9-4.3s-11.2,3.2-11.2,3.2
			s-2.3-3.2-3.6-3.2c-1.3,0-5.9,0.8-5.9,0.8l-3.4,1l-3-1.7c0,0-0.8,1-3.4,2c-2.5,1-3.4,1.2-6.8,1.2s-5.7,0-5.7,0s-3.6-0.4-6.6-0.4
			c-3,0-7.2,0.9-7.2,0.9s-5.3-3.9-7.6-3.7C-609.2,797.1-609.2,797-609.2,797z"/>
		<path fill="#9F5B26" d="M-609.2,791.6l-3.3,4.5c0,0-6.3,1.9-7.2-0.1c-0.8-2-0.8-2-0.8-2l-3.8,2.2l2.1,11.6l-2.1,2.1h-3.2l-5.1,3.5
			l7,15.3l2.4,11.2l-3.8,10.7v13.2l3.5,5.6l-1.6,3.7l1.6,4.2l16.6-2.2l2.9,4.2l15-3.8l5.8,4.5h5.3l8.7-2.5l30.7,2l-17.6-3.4
			l17.6,3.9c0,0,4.5,0,5.7,0c1.3,0,8.3,0,8.3,0h14.6l6.4-6.9l6.8,2.8l10.2-1.5l5.2,5.1c0,0,9.6-3.4,10.3-1.7
			c0.6,1.7,8.3-2.5,8.3-2.5l6.8,4.1l8.5-2.2c0,0,2.1,6.6,3.4,4.4c1.3-2.2,8.1-8.8,8.1-8.8l5.9,1.5c0,0,5.5,1,8.5-0.5s3-1.2,4.7-1.2
			s0.4,4.5,0.4,4.5s14.8,0,16.1,0c1.3,0,4.7,2.6,8.1,2.6s11-3.3,13.1-3.8c2.1-0.5,4-1.1,6.4-0.6c2.3,0.5,15.3,4.1,15.3,4.1
			s3.4,3,5.5,2.5c2.1-0.4,8.1-7.9,9.3-7.9c1.3,0,6.6,0,6.6,0s4.5,5.2,6.6,5.2c2.1,0,6.5-5.1,6.5-5.1l5.3-1.9v-4.6l6.1-1.2
			c0,0-0.1,2.9,2.4,0c2.5-2.9,2.8-2.9,2.8-2.9l-2.2-8.3v-9.5l-0.1-10.3l-6.2-23.2l2-2.9l-0.5-4.4l-0.9-5.9l-3-5.4
			c0,0,1.3-2.2-1.7-2.2s-9.3,7.1-9.3,7.1l-4.2-2.9l-5.1-1l-6.4,1.5l-4.7,0.5l-2.1-5.1l-14,3.7l-10.2,1.4c0,0,0-1.5-3.4-1.5
			c-3.4,0-11.9,0-11.9,0l-2.5,1.4l-16.1-1.1c0,0-8.1-3.7-9.3-3.7c-1.3,0-5.9-0.3-9.3,1.2c-3.4,1.5-5.5,1.9-8.1,1.9
			c-2.5,0-12.7-1-14-1s-14.8,2.9-14.8,2.9l-8.9-2.9c0,0-0.4-2.2-4.2-2.2s-14.5,1.7-14.5,1.7l-8,2.4c0,0-2.1-3.9-5.9-3.9
			s-16.4,4.4-16.4,4.4h-14.1c0,0-4.7-4.5-5.9-4.5s-11.2,3.1-11.2,3.1s-2.3-3.2-3.6-3.2c-1.3,0-5.9,0.7-5.9,0.7l-3.4,1l-3-1.7
			c0,0-0.8,1.2-3.4,2.2s-3.4,1.4-6.8,1.4s-5.7,0-5.7,0s-3.6-0.6-6.6-0.6c-3,0-7.2,0.8-7.2,0.8s-5.3-4-7.6-3.7
			C-609.2,791.7-609.2,791.6-609.2,791.6z"/>
		<path fill="#F6921E" d="M-609.2,786l-3.3,4.5c0,0-6.3,1.9-7.2-0.1c-0.8-2-0.8-2-0.8-2l-3.8,5.8l2.1,7.8l-2.1,1.9h-3.2l-5.1,7.4
			l7,11.7l2.4,11.2l-3.8,10.8v13.2l3.5,5.6l-1.6,3.7l1.6,4.2l16.6-2.2l2.9,4.2l15-4l5.8,4.3h5.3l8.7-2.4l15.5-0.4l-2.3,2.8h17.6
			c0,0,4.5,0,5.7,0c1.3,0,8.3,0,8.3,0h14.6l6.4-6.8l6.8,2.8l10.2-1.5l5.2,5.1c0,0,9.6-3.4,10.3-1.7c0.6,1.7,8.3-2.4,8.3-2.4l6.8,4.1
			l8.5-2.2c0,0,2.1,6.6,3.4,4.4c1.3-2.2,8.1-8.8,8.1-8.8l5.9,1.5c0,0,5.5,1,8.5-0.5s3-1.3,4.7-1.3s0.4,4.3,0.4,4.3s14.8,0,16.1,0
			c1.3,0,4.7,2.8,8.1,2.8s11-3.2,13.1-3.7c2.1-0.5,4-1,6.4-0.5c2.3,0.5,15.3,4.1,15.3,4.1s3.4,3.3,5.5,2.9c2.1-0.4,8.1-7.6,9.3-7.6
			c1.3,0,6.6,0,6.6,0s4.5,4.9,6.6,4.9c2.1,0,6.5-5.2,6.5-5.2l5.3-2.1v-4.6l6.1-1.2c0,0-0.1,2.9,2.4,0c2.5-2.9,2.8-2.9,2.8-2.9
			l-2.2-8.3V840l-0.1-10.3l-6.2-23.2l2-2.9l-0.5-4.4l-0.9-5.9l-3-5.4c0,0,1.3-2.2-1.7-2.2s-9.3,7.1-9.3,7.1l-4.2-2.9l-5.1-1
			l-6.4,1.5l-4.7,0.5l-2.1-5.1l-14,3.7l-10.2,1.3c0,0,0-1.7-3.4-1.7c-3.4,0-11.9,0-11.9,0l-2.5,1.5l-16.1-1.1c0,0-8.1-3.7-9.3-3.7
			c-1.3,0-5.9-0.3-9.3,1.2c-3.4,1.5-5.5,1.9-8.1,1.9c-2.5,0-12.7-1-14-1s-14.8,2.9-14.8,2.9l-8.9-2.9c0,0-0.4-2.2-4.2-2.2
			s-14.5,1.7-14.5,1.7l-8,2.4c0,0-2.1-4.1-5.9-4.1s-16.4,4.2-16.4,4.2h-14.1c0,0-4.7-4.3-5.9-4.3s-11.2,3.2-11.2,3.2
			s-2.3-3.2-3.6-3.2c-1.3,0-5.9,0.8-5.9,0.8l-3.4,1l-3-1.7c0,0-0.8,1-3.4,2c-2.5,1-3.4,1.3-6.8,1.3s-5.7,0-5.7,0s-3.6-0.4-6.6-0.4
			c-3,0-7.2,0.9-7.2,0.9s-5.3-3.9-7.6-3.7C-609.2,786-609.2,786-609.2,786z"/>
	</g>
</g>
<g id="Layer_3" display="none">
	<g display="inline">
		<path fill="#5E3112" d="M-328.4,797l3.3,4.5c0,0,6.3,1.9,7.2-0.1s0.8-2,0.8-2l3.8-2.2l-2.1,15.8l2.1,1.9h3.2l5.1-0.7l-7,19.8
			l-2.1,11.2l4.1,10.8v13.2l-3.9,5.6l1.5,3.7l-1.7,4.2l-16.6-2.2l-2.9,4.2l-15-4l-5.8,4.3h-5.3l-8.7-2.4l-30.7,2.1l17.6-7.9
			l-17.6,8.2c0,0-4.5,0-5.7,0c-1.3,0-8.3,0-8.3,0h-14.6l-6.4-6.8l-6.8,2.8l-10.2-1.5l-5.2,5.1c0,0-9.6-3.4-10.3-1.7
			s-8.3-2.4-8.3-2.4l-6.8,4.1l-8.5-2.2c0,0-2.1,6.6-3.4,4.4c-1.3-2.2-8.1-8.8-8.1-8.8l-5.9,1.5c0,0-5.5,1-8.5-0.5s-3-1.3-4.7-1.3
			s-0.4,4.3-0.4,4.3s-14.8,0-16.1,0s-4.7,2.8-8.1,2.8s-11-3.2-13.1-3.7c-2.1-0.5-4-1-6.4-0.5c-2.3,0.5-15.3,4.1-15.3,4.1
			s-3.4,3.3-5.5,2.9c-2.1-0.4-8.1-7.5-9.3-7.5c-1.3,0-6.6,0-6.6,0s-4.5,4.9-6.6,4.9s-6.2-5.2-6.2-5.2l-5-2.1v-4.6l-6.4-1.2
			c0,0,0,2.9-2.5,0c-2.5-2.9-2.5-2.9-2.5-2.9l2.4-8.3v-9.5l-0.3-10.3l6-23.2l-2.1-2.9l0.4-4.4l0.8-5.9l3-5.4c0,0-1.3-2.2,1.7-2.2
			c3,0,9.3,7.1,9.3,7.1l4.2-2.9l5.1-1l6.4,1.5l4.7,0.5l2.1-5.1l14,3.7l10.2,1.3c0,0,0-1.7,3.4-1.7s11.9,0,11.9,0l2.5,1.5l16.1-1.1
			c0,0,8.1-3.7,9.3-3.7s5.9-0.3,9.3,1.2s5.5,1.9,8.1,1.9s12.7-1,14-1c1.3,0,14.8,2.9,14.8,2.9l8.9-2.9c0,0,0.4-2.2,4.2-2.2
			c3.8,0,14.5,1.7,14.5,1.7l8,2.4c0,0,2.1-4.1,5.9-4.1c3.8,0,16.4,4.2,16.4,4.2h14.1c0,0,4.7-4.3,5.9-4.3c1.3,0,11.2,3.2,11.2,3.2
			s2.3-3.2,3.6-3.2c1.3,0,5.9,0.8,5.9,0.8l3.4,1l3-1.7c0,0,0.8,1,3.4,2c2.5,1,3.4,1.3,6.8,1.3s5.7,0,5.7,0s3.6-0.4,6.6-0.4
			c3,0,7.2,0.9,7.2,0.9s5.3-4,7.6-3.7C-328.4,797-328.4,797-328.4,797z"/>
		<path fill="#9F5B26" d="M-328.4,791.6l3.3,4.5c0,0,6.3,1.9,7.2-0.1s0.8-2,0.8-2l3.8,2.2l-2.1,11.6l2.1,2.1h3.2l5.1,3.5l-7,15.3
			l-2.1,11.2l4.1,10.7v13.2l-3.9,5.6l1.5,3.7l-1.7,4.2l-16.6-2.2l-2.9,4.2l-15-3.8l-5.8,4.5h-5.3l-8.7-2.6l-30.7,2l17.6-3.4
			l-17.6,3.9c0,0-4.5,0-5.7,0c-1.3,0-8.3,0-8.3,0h-14.6l-6.4-7l-6.8,2.7l-10.2-1.6l-5.2,5.1c0,0-9.6-3.4-10.3-1.7s-8.3-2.5-8.3-2.5
			l-6.8,4.1l-8.5-2.2c0,0-2.1,6.6-3.4,4.4c-1.3-2.2-8.1-8.8-8.1-8.8l-5.9,1.5c0,0-5.5,1-8.5-0.5s-3-1.1-4.7-1.1s-0.4,4.5-0.4,4.5
			s-14.8,0-16.1,0s-4.7,2.6-8.1,2.6s-11-3.3-13.1-3.8c-2.1-0.5-4-1.1-6.4-0.6c-2.3,0.5-15.3,4.1-15.3,4.1s-3.4,3-5.5,2.6
			c-2.1-0.4-8.1-7.9-9.3-7.9c-1.3,0-6.6,0-6.6,0s-4.5,5.2-6.6,5.2s-6.2-5.1-6.2-5.1l-5-1.9v-4.6l-6.4-1.2c0,0,0,2.9-2.5,0
			c-2.5-2.9-2.5-2.9-2.5-2.9l2.4-8.3v-9.5l-0.3-10.3l6-23.2l-2.1-2.9l0.4-4.4l0.8-5.9l3-5.4c0,0-1.3-2.2,1.7-2.2
			c3,0,9.3,7.1,9.3,7.1l4.2-2.9l5.1-1l6.4,1.5l4.7,0.5l2.1-5.1l14,3.7l10.2,1.5c0,0,0-1.5,3.4-1.5s11.9,0,11.9,0l2.5,1.3l16.1-1.2
			c0,0,8.1-3.8,9.3-3.8s5.9-0.3,9.3,1.2s5.5,1.9,8.1,1.9s12.7-1,14-1c1.3,0,14.8,2.9,14.8,2.9l8.9-2.9c0,0,0.4-2.2,4.2-2.2
			c3.8,0,14.5,1.7,14.5,1.7l8,2.4c0,0,2.1-3.9,5.9-3.9c3.8,0,16.4,4.4,16.4,4.4h14.1c0,0,4.7-4.5,5.9-4.5c1.3,0,11.2,3.1,11.2,3.1
			s2.3-3.2,3.6-3.2c1.3,0,5.9,0.7,5.9,0.7l3.4,1l3-1.7c0,0,0.8,1.2,3.4,2.2c2.5,1,3.4,1.5,6.8,1.5s5.7,0,5.7,0s3.6-0.6,6.6-0.6
			c3,0,7.2,0.8,7.2,0.8s5.3-4,7.6-3.8C-328.4,791.7-328.4,791.6-328.4,791.6z"/>
		<path fill="#F6921E" d="M-328.4,785.9l3.3,4.5c0,0,6.3,1.9,7.2-0.1s0.8-2,0.8-2l3.8,5.8l-2.1,7.8l2.1,2h3.2l5.1,7.3l-7,11.7
			l-2.1,11.2l4.1,10.7v13.2l-3.9,5.6l1.5,3.7l-1.7,4.2l-16.6-2.2l-2.9,4.2l-15-3.9l-5.8,4.4h-5.3l-8.7-2.4l-15.5-0.4l2.3,2.8h-17.6
			c0,0-4.5,0-5.7,0c-1.3,0-8.3,0-8.3,0h-14.6l-6.4-6.8l-6.8,2.8l-10.2-1.5l-5.2,5.1c0,0-9.6-3.4-10.3-1.7c-0.6,1.7-8.3-2.4-8.3-2.4
			l-6.8,4.1l-8.5-2.2c0,0-2.1,6.6-3.4,4.4c-1.3-2.2-8.1-8.8-8.1-8.8l-5.9,1.5c0,0-5.5,1-8.5-0.5s-3-1.3-4.7-1.3s-0.4,4.3-0.4,4.3
			s-14.8,0-16.1,0s-4.7,2.8-8.1,2.8s-11-3.3-13.1-3.7c-2.1-0.5-4-1-6.4-0.5c-2.3,0.5-15.3,4.1-15.3,4.1s-3.4,3.4-5.5,2.9
			c-2.1-0.4-8.1-7.5-9.3-7.5c-1.3,0-6.6,0-6.6,0s-4.5,4.9-6.6,4.9s-6.2-5.3-6.2-5.3l-5-2.1v-4.6l-6.4-1.2c0,0,0,2.9-2.5,0
			c-2.5-2.9-2.5-2.9-2.5-2.9l2.4-8.3v-9.5l-0.3-10.3l6-23.2l-2.1-2.9l0.4-4.4l0.8-5.9l3-5.4c0,0-1.3-2.2,1.7-2.2
			c3,0,9.3,7.1,9.3,7.1l4.2-2.9l5.1-1l6.4,1.5l4.7,0.5l2.1-5.1l14,3.7l10.2,1.3c0,0,0-1.6,3.4-1.6s11.9,0,11.9,0l2.5,1.5l16.1-1.1
			c0,0,8.1-3.7,9.3-3.7s5.9-0.3,9.3,1.2s5.5,1.9,8.1,1.9s12.7-1,14-1c1.3,0,14.8,2.9,14.8,2.9l8.9-2.9c0,0,0.4-2.2,4.2-2.2
			c3.8,0,14.5,1.7,14.5,1.7l8,2.4c0,0,2.1-4.1,5.9-4.1c3.8,0,16.4,4.2,16.4,4.2h14.1c0,0,4.7-4.4,5.9-4.4c1.3,0,11.2,3.2,11.2,3.2
			s2.3-3.2,3.6-3.2c1.3,0,5.9,0.8,5.9,0.8l3.4,1l3-1.7c0,0,0.8,1.1,3.4,2c2.5,1,3.4,1.3,6.8,1.3s5.7,0,5.7,0s3.6-0.4,6.6-0.4
			c3,0,7.2,0.9,7.2,0.9s5.3-4,7.6-3.7C-328.4,786-328.4,785.9-328.4,785.9z"/>
	</g>
</g>
<g id="Layer_4" display="none">
	<g display="inline">
		<g>
			<path fill="#5E3112" d="M-701.2,784h17l5,10.8c0,0,8,10.9,12,10.9s15-11.1,15-11.1s6-5,11-5s7,5.2,12,5.2s9,11.2,9,11.2
				s-10,0-5,0s30.2,0,30.2,0v-11c0,0,35.8,0,40.8,0s7,0,14,0s20,0,23,0s7-12.2,11-6.2s7,16.9,7,16.9l17-11.1l11,11.2l11-10.8
				c0,0,7,0,11,0s19,0,19,0l13,5.8c0,0,13,4.9,16,4.9s18-6.1,18-6.1s3-5,8-5s11-15,14-11s15,5.2,15,5.2s9,6.2,12,6.2s14,0,14,0
				l8-0.6l11-6.8l7,7.2l13,6.2h15l13-6.7l6-11.6l-10-13.1l7.3,1.5l20.8,4.5l12,15.2l15.2,10.2h15.8c0,0,26,9.8,29,4.8s3-5.1,3-5.1
				l16.3,19.9c0,0-7.7,0,0,5s16.7,15,16.7,15l-4.9,26l5.1,19c0,0,0,12,0,15s0,9,0,9s-8.1,4-11.1,7s-5.7,8-5.7,8l-7.4,4c0,0-7,4-14,5
				s-22-9-22-9l-16.4-2l-19.6,16c0,0-5-5.8-8-5.8s-25,6.2-25,6.2h-86l-1-6.2l-8-8.1l-11-1.8l-14,6.2h-14l-13,10h-20l-9-4.2l-13-11.9
				l-9,6.1h-14l-12,10h-17h-18h-28l-7,6.8l-16-8.1l-15-1.1l-15,1l-8,8l-10-11l-8-6l-6-7l-27.4-0.9l8.4,2.9l-22,13l-21-1.8l-12-5.8
				h-15H-726v-14.4l-6.1-10l6.9-20l-0.9-15l-5.9-8v-24l9-21l-4-9v-13L-701.2,784z"/>
			<path fill="#9F5B26" d="M-701.2,776h17l5,10.8c0,0,8,10.9,12,10.9s15-11.1,15-11.1s6-5,11-5s7,5.2,12,5.2s9,11.2,9,11.2
				s-10,0-5,0s30.2,0,30.2,0v-11c0,0,35.8,0,40.8,0s7,0,14,0s20,0,23,0s7-12.2,11-6.2s7,16.9,7,16.9l17-11.1l11,11.2l11-10.8
				c0,0,7,0,11,0s19,0,19,0l13,5.8c0,0,13,4.9,16,4.9s18-6.1,18-6.1s3-5,8-5s11-15,14-11s15,5.2,15,5.2s9,6.2,12,6.2s14,0,14,0
				l8-0.6l11-6.8l7,7.2l13,6.2h15l13-6.7l6-11.6l-10-4.8l5-1.8h23l12,15l15.2,10h15.8c0,0,26,9.8,29,4.8s3-5.1,3-5.1l16.3,19.9
				c0,0-7.7,0,0,5s16.7,15,16.7,15l-4.9,26l5.1,19c0,0,0,12,0,15s0,9,0,9s-8.1,4-11.1,7s-5.7,8-5.7,8l-7.4,4c0,0-7,4-14,5
				s-22-9-22-9l-16.4-2l-19.6,16c0,0-5-5.8-8-5.8s-25,6.2-25,6.2h-86l-1-6.2l-8-8.1l-11-1.8l-14,6.2h-14l-13,10h-20l-9-4.2l-13-11.9
				l-9,6.1h-14l-12,10h-17h-18h-28l-7,6.8l-16-8.1l-15-1.1l-15,1l-8,8l-10-11l-8-6l-6-7l-25,7l6,3l-22,5l-21-1.8l-12-5.8h-15H-726
				v-14.4l-6.1-10l6.9-20l-0.9-15l-5.9-8v-24l9-21l-4-9v-13L-701.2,776z"/>
			<path fill="#CDA34F" d="M-701.2,771h17l5,10.8c0,0,8,10.9,12,10.9s15-11.1,15-11.1s6-5,11-5s7,5.2,12,5.2s9,11.2,9,11.2
				s-10,0-5,0s30.2,0,30.2,0v-11c0,0,35.8,0,40.8,0s7,0,14,0s20,0,23,0s7-12.2,11-6.2s7,16.9,7,16.9l17-11.1l11,11.2l11-10.8
				c0,0,7,0,11,0s19,0,19,0l13,5.8c0,0,13,4.9,16,4.9s18-6.1,18-6.1s3-5,8-5s11-15,14-11s15,5.2,15,5.2s9,6.2,12,6.2s14,0,14,0
				l8-0.6l11-6.8l7,7.2l13,6.2h15l13-6.5l6-11.5h-10l5-7h23l12,15l15.2,10h15.8c0,0,26,9.8,29,4.8s3-5.1,3-5.1l16.3,19.9
				c0,0-7.7,0,0,5s16.7,15,16.7,15l-4.9,26l5.1,19c0,0,0,12,0,15s0,9,0,9s-8.1,4-11.1,7s-5.7,8-5.7,8l-7.4,4c0,0-7,4-14,5
				s-22-9-22-9l-16.4-2l-19.6,16c0,0-5-5.8-8-5.8s-25,6.2-25,6.2h-86l-1-6.2l-8-8.1l-11-1.8l-14,6.2h-14l-13,10h-20l-9-4.2l-13-11.9
				l-9,6.1h-14l-12,10h-17h-18h-28l-7,6.8l-16-8.1l-15-1.1l-15,1l-8,8l-10-11l-8-6l-6-7l-25,7.2l6,8.2h-22l-21-2l-12-6h-15H-726
				v-14.4l-6.1-10l6.9-20l-0.9-15l-5.9-8v-24l9-21l-4-9v-13L-701.2,771z"/>
		</g>
		<g>
			<g>
				<path fill="#5E3112" d="M-77.2,806.8c-2.5-5.5-3.5-19.8-3.5-19.8h8.5c0,0,0,3.8,2.5,4.3s14.5-0.6,16-0.6s6-0.6,7.5,1.9
					s3.5,6.5,3.5,6.5s-6.5,3.5-6.5,5s2.5,7.5-1,9.5s-8,1.5-11.5,3.5s-16.5,3.6-16.5,3.6L-77.2,806.8z"/>
				<polygon fill="#5E3112" points="-38.5,776.1 -35.5,767.6 -24,771.8 -24,780.6 -31.2,786.6 				"/>
			</g>
			<g>
				<path fill="#9F5B26" d="M-77.2,804.8c-2.5-5.5-3.5-19.8-3.5-19.8h8.5c0,0,0,3.8,2.5,4.3s14.5-0.6,16-0.6s6-0.6,7.5,1.9
					s3.5,6.5,3.5,6.5s-6.5,3.5-6.5,5s2.5,7.5-1,9.5s-8,1.5-11.5,3.5s-16.5,3.6-16.5,3.6L-77.2,804.8z"/>
				<polygon fill="#9F5B26" points="-38.5,774.1 -35.5,765.6 -24,769.8 -24,778.6 -31.2,784.6 				"/>
			</g>
			<g>
				<path fill="#CDA34F" d="M-77.2,801.8c-2.5-5.5-3.5-19.8-3.5-19.8h8.5c0,0,0,3.8,2.5,4.3s14.5-0.6,16-0.6s6-0.6,7.5,1.9
					s3.5,6.5,3.5,6.5s-6.5,3.5-6.5,5s2.5,7.5-1,9.5s-8,1.5-11.5,3.5s-16.5,3.6-16.5,3.6L-77.2,801.8z"/>
				<polygon fill="#CDA34F" points="-38.5,771.1 -35.5,762.6 -24,766.8 -24,775.6 -31.2,781.6 				"/>
			</g>
		</g>
		<g>
			<path fill="#5E3112" d="M-826.7,908.6c1.5-4,15-17,15-17l9,8.5c0,0-2.5,6,0,8.5s12,2.5,12.5,4s-4.5,9-4.5,9l-11.5-8.5l-8.5,8.5
				L-826.7,908.6z"/>
			<path fill="#9F5B26" d="M-826.7,906.6c1.5-4,15-17,15-17l9,8.5c0,0-2.5,6,0,8.5s12,2.5,12.5,4s-4.5,9-4.5,9l-11.5-8.5l-8.5,8.5
				L-826.7,906.6z"/>
			<path fill="#CDA34F" d="M-826.7,902.6c1.5-4,15-17,15-17l9,8.5c0,0-2.5,6,0,8.5s12,2.5,12.5,4s-4.5,9-4.5,9l-11.5-8.5l-8.5,8.5
				L-826.7,902.6z"/>
		</g>
	</g>
</g>
<g id="Layer_5" display="none">
	<g display="inline">
		<rect x="-1049" y="-504.5" fill="#E5E5E5" width="1366" height="2739.1"/>
	</g>
	<g display="inline">
		<g>
			<path fill="#5E3112" d="M159.1,444.8c0,0-11.4,6.1-4.5,12.1s6.4,6.1,6.4,6.1v-8h12h6v-9h7l-3.7-7H176h-7l0.4,3.8L159.1,444.8z"/>
		</g>
		<g>
			<path fill="#5E3112" d="M-184.9,462.5l1.8-7.8l3.7,1.6l3,4.3c0,0,6.3,2,5,5s-3.7,6.3-3.7,6.3h-3h-5l0.7-6.5L-184.9,462.5z"/>
		</g>
		<g>
			<polygon fill="#5E3112" points="-195,451 -190,451 -190,452 -195.5,454 -196.8,453.1 -198.9,448.8 			"/>
		</g>
		<g>
			<path fill="#9F5B26" d="M159.1,442.8c0,0-11.4,6.1-4.5,12.1s6.4,6.1,6.4,6.1v-8h12h6v-9h7l-3.7-7H176h-7l0.4,3.8L159.1,442.8z"/>
		</g>
		<g>
			<path fill="#9F5B26" d="M-184.9,460.5l1.8-7.8l3.7,1.6l3,4.3c0,0,6.3,2,5,5s-3.7,6.3-3.7,6.3h-3h-5l0.7-6.5L-184.9,460.5z"/>
		</g>
		<g>
			<polygon fill="#9F5B26" points="-195,450 -190,449 -190,451 -195.5,453 -196.8,452.1 -199.3,448 			"/>
		</g>
	</g>
	<g display="inline">
		<g>
			<path fill="#F6921E" d="M159.1,438.8c0,0-11.4,6.1-4.5,12.1s6.4,6.1,6.4,6.1v-8h12h6v-9h7l-3.7-7H176h-7l0.4,3.8L159.1,438.8z"/>
		</g>
		<g>
			<path fill="#F6921E" d="M-184.9,456.5l1.8-7.8l3.7,1.6l3,4.3c0,0,6.3,2,5,5s-3.7,6.3-3.7,6.3h-3h-5l0.7-6.5L-184.9,456.5z"/>
		</g>
		<g>
			<polygon fill="#F6921E" points="-195,448 -190,448 -190,449 -195.5,451 -196.8,450.1 -199.3,448 			"/>
		</g>
	</g>
	<g display="inline">
		<g>
			<g>
				<g>
					<g>
						<path fill="#5E3112" d="M-565,242l6-9h8c0,0,5-1,8-3s5.5-4.5,7-5s3-3,5.5-3s6,0,9.5,0s8.5,4,8.5,4s-5.5,6-8.5,6s-8,5-8,7.5
							s0,5.5-1.5,7.5s-2.5,0.9-5.5,3.5c-3,2.5-3,4-8,5s-9-5-9-5s0.1,0.5-2.9,0c-3-0.5-9.1,0-9.1,0V242z"/>
					</g>
					<g>
						<path fill="#5E3112" d="M-498,222v-8h6l3,4v10c0,0-7.5,4.5-9,2.5s-2.5-8-2.5-8L-498,222z"/>
					</g>
				</g>
				<g>
					<g>
						<path fill="#9F5B26" d="M-565,240l6-9h8c0,0,5-1,8-3s5.5-4.5,7-5s3-3,5.5-3s6,0,9.5,0s8.5,4,8.5,4s-5.5,6-8.5,6s-8,5-8,7.5
							s0,5.5-1.5,7.5s-2.5,0.9-5.5,3.5c-3,2.5-3,4-8,5s-9-5-9-5s0.1,0.5-2.9,0c-3-0.5-9.1,0-9.1,0V240z"/>
					</g>
					<g>
						<path fill="#9F5B26" d="M-498,220v-8h6l3,4v10c0,0-7.5,4.5-9,2.5s-2.5-8-2.5-8L-498,220z"/>
					</g>
				</g>
				<g>
					<g>
						<path fill="#CDA34F" d="M-565,236l6-9h8c0,0,5-1,8-3s5.5-4.5,7-5s3-3,5.5-3s6,0,9.5,0s8.5,4,8.5,4s-5.5,6-8.5,6s-8,5-8,7.5
							s0,5.5-1.5,7.5s-2.5,0.9-5.5,3.5c-3,2.5-3,4-8,5s-9-5-9-5s0.1,0.5-2.9,0c-3-0.5-9.1,0-9.1,0V236z"/>
					</g>
					<g>
						<path fill="#CDA34F" d="M-498,216v-8h6l3,4v10c0,0-7.5,4.5-9,2.5s-2.5-8-2.5-8L-498,216z"/>
					</g>
				</g>
			</g>
			<g>
				<g>
					<g>
						<path fill="#5E3112" d="M-691.7,465.5l-4.1,10l-7.8,1.5c0,0-4.7,1.9-7.3,4.5s-4.5,5.5-5.9,6.3c-1.4,0.8-2.4,3.5-4.8,4
							c-2.5,0.5-5.9,1.2-9.3,1.8c-3.4,0.7-9.1-2.3-9.1-2.3s4.2-6.9,7.2-7.5c2.9-0.6,6.9-6.5,6.4-8.9c-0.5-2.5-1.1-5.4,0-7.6
							c1.1-2.3,2.3-1.4,4.7-4.5s2.2-4.5,6.9-6.5c4.7-1.9,9.8,3.2,9.8,3.2s-0.2-0.4,2.8-0.6c3-0.1,9-1.8,9-1.8L-691.7,465.5z"/>
					</g>
					<g>
						<path fill="#5E3112" d="M-753.6,498l1.5,7.8l-5.9,1.2l-3.7-3.3l-1.9-9.8c0,0,6.5-5.9,8.3-4.2c1.9,1.7,4,7.4,4,7.4L-753.6,498z
							"/>
					</g>
				</g>
				<g>
					<g>
						<path fill="#9F5B26" d="M-691.3,462.4l-4.1,10l-7.8,1.5c0,0-4.7,1.9-7.3,4.5s-4.5,5.5-5.9,6.3c-1.4,0.8-2.4,3.5-4.8,4
							c-2.5,0.5-5.9,1.2-9.3,1.8c-3.4,0.7-9.1-2.3-9.1-2.3s4.2-6.9,7.2-7.5s6.9-6.5,6.4-8.9c-0.5-2.5-1.1-5.4,0-7.6
							c1.1-2.3,2.3-1.4,4.7-4.5c2.5-3.1,2.2-4.5,6.9-6.5c4.7-1.9,9.8,3.2,9.8,3.2s-0.2-0.4,2.8-0.6c3-0.1,9-1.8,9-1.8L-691.3,462.4z
							"/>
					</g>
					<g>
						<path fill="#9F5B26" d="M-753.2,495l1.5,7.8l-5.9,1.2l-3.7-3.3l-1.9-9.8c0,0,6.5-5.9,8.3-4.2c1.9,1.7,4,7.4,4,7.4L-753.2,495z
							"/>
					</g>
				</g>
				<g>
					<g>
						<path fill="#CDA34F" d="M-690.5,459.4l-4.1,10l-7.8,1.5c0,0-4.7,1.9-7.3,4.5s-4.5,5.5-5.9,6.3c-1.4,0.8-2.4,3.5-4.8,4
							c-2.5,0.5-5.9,1.2-9.3,1.8c-3.4,0.7-9.1-2.3-9.1-2.3s4.2-6.9,7.2-7.5c2.9-0.6,6.9-6.5,6.4-8.9s-1.1-5.4,0-7.6s2.3-1.4,4.7-4.5
							c2.5-3.1,2.2-4.5,6.9-6.5s9.8,3.2,9.8,3.2s-0.2-0.4,2.8-0.6c3-0.1,9-1.8,9-1.8L-690.5,459.4z"/>
					</g>
					<g>
						<path fill="#CDA34F" d="M-752.4,491.9l1.5,7.8l-5.9,1.2l-3.7-3.3l-1.9-9.8c0,0,6.5-5.9,8.3-4.2c1.9,1.7,4,7.4,4,7.4
							L-752.4,491.9z"/>
					</g>
				</g>
			</g>
			<g>
				<g>
					<g>
						<polygon fill="#5E3112" points="-385.2,377 -371.2,368 -357,368 -357,377 -357,400 -366.2,412 -385.2,412 -380.2,400 
							-408.5,397 						"/>
					</g>
					<g>
						<polygon fill="#5E3112" points="-339.2,422 -330.2,422 -320.2,432 -329.6,441 -352,446 -352,432 						"/>
					</g>
					<g>
						<polygon fill="#5E3112" points="-401.2,453 -388.2,446 -382.9,453 -392,464 						"/>
					</g>
				</g>
				<g>
					<g>
						<polygon fill="#9F5B26" points="-383.2,375 -369.2,366 -355,366 -355,375 -355,398 -364.2,410 -383.2,410 -378.2,398 
							-406.5,395 						"/>
					</g>
					<g>
						<polygon fill="#9F5B26" points="-337.2,420 -328.2,420 -318.2,430 -327.6,439 -350,444 -350,430 						"/>
					</g>
					<g>
						<polygon fill="#9F5B26" points="-399.2,451 -386.2,444 -380.9,451 -390,462 						"/>
					</g>
				</g>
				<g>
					<g>
						<polygon fill="#CDA34F" points="-380.2,370 -366.2,361 -352,361 -352,370 -352,393 -361.2,405 -380.2,405 -375.2,393 
							-403.5,390 						"/>
					</g>
					<g>
						<polygon fill="#CDA34F" points="-334.2,415 -325.2,415 -315.2,425 -324.6,434 -347,439 -347,425 						"/>
					</g>
					<g>
						<polygon fill="#CDA34F" points="-396.2,446 -383.2,439 -377.9,446 -387,457 						"/>
					</g>
				</g>
			</g>
		</g>
		<g>
			<g>
				<path fill="#5E3112" d="M308-495h-1357V521.8l1-4.1c0,0,8,25.3,12,22c4-3.3,7.3-8,8.7-10.7c1.3-2.7,0-18,0-26s26.3-23,26.3-23
					h33h11.3l18.7-13.2l5.2-19.2c0,0,11.5-14,14-14.7c2.6-0.7,16.8-0.7,16.8-0.7s8,6,12.6,6s4.1-5.3,4.1-5.3s3.3-4.7,8-6.7
					c4.7-2,11.3-12,11.3-12l6.8-1.3l13,2l10.9,11.3l32.3-12.7l3-3.3l0.1-10c0,0,0,0,3.3-2c3.3-2,6.7-4.7,6-6.7c-0.7-2,0-6.7,0-9.3
					c0-2.7,3.7-10.3,3.7-10.3h10v-7l5,3v-12.3l6-21.3c0,0,4.7-5.3,5.3-7.3c0.7-2,0-9.3,0-9.3l2.7-6.7c0,0,0,0,2-1.3s5.3-4.7,9.3-7.3
					s-1.3-9.4-2.6-12.7c-1.3-3.3,0-5.4,0-5.4L-736,273h0l5-4h6c0,0,9.7,0,13.7,0s7.3-4,7.3-4h6l9.5-6.7l-3.5-4.3v-8.3l3.7-4.5
					l4.3-4.8l10.7-1.3l4.6,0.7l2.6-1.3l7.9-7.3c0,0,4.4,0.7,6.4,0.7s6.8-7.7,6.8-7.7v-3.7l8.5-4l13.2-2.7l8.6,3.3l11.9,6.7
					c0,0,7.2,1.3,10.5,3.3s4.4,0.7,4.4,0.7l4.8-0.7v-7.3c0,0,26.4-16,30.4-14.7s4.4,6.7,4.4,6.7l24.4-28l6.8,4.3v6.3
					c0,0,6.5,0.7,9.2,0.7c2.7,0,4.5-1.3,9.8-10.7c5.3-9.3,6.7,3.5,6.7,3.5s4,1.2,6,5.2s5.3,2.7,5.3,2.7l4.7-1.9l4.7-1.1l5.7-3.8h7.7
					l3.3,1v5v14l7-2h7.7l11.8,17.3l20.5,0.7v14.7l4.5,5.7c0,0,9.8-2.3,14.5,0.1s9.3-4.2,9.3-4.2l-0.3,4.6l2,7.2c0,0,0.3,0,2,0
					s14.3,0,14.3,0l7.3,2.8c0,0,10,8.1,14,6.1s6.7,0.3,6.7,0.3l27.7-3.2h10.3l-2.3-24h-16.3l-6-11l0.7-12.3l-11.4-9.7l-15.4-7.6
					l-5.5-23.3l-4.3-23.3L-369,133v-14c0,0,25.8-10.4,31.8-10.8s32.5-60.1,32.5-60.1L-305,34h-7l-5.2-5.1l5.2-9.9v-8.7l6.9,8.7
					l10.9-14.7c0,0,4.4-10.7,7.8-17.3s-14.5-99-14.5-99v-5v-15.3l12.5-8c0,0-2.2-6-2.8-8.7c-0.7-2.7,2.7-7.3,5.3-10s10-9,10-9
					l4.7-14.6c0,0,12.7-15.7,15.3-16.4s8,0,8,0l3.3-6.9l3.9,2.9l16.5-16.7c0,0-0.3-64.6,6.4-68C-211.2-291-207-318-207-318v-15
					l10-12c0,0,1.9,5.1,1.9,9.8c0,4.7,13.6,7,13.6,7s-1.5-1.8,0-16.4c1.5-14.7,0.2-9.9-3.8-26.5c-4-16.7,19.3-25.8,19.3-25.8h42.7
					c0,0,50.7-0.7,58.2-0.6s23.2-4.1,30.2-6.1c7-2,33.3-6.7,33.3-6.7s19,7.3,20.4,7.3c1.4,0,10-7.3,10-7.3l23.5,4.7l23.8,4l8.6,3.4
					c0,0,16.5,1.9,24.5,9.3c8,7.4,3.1,0.6,12.8-2.8c9.7-3.3,5.1,0,11.1,2.7v5.7l21.8,4.9l13.1-4.9l8,4.3l1.9,10.7l-6.1,18l18.8,5.5
					l4.5,3.8l3.3,6.1L214-333l-6.4-4c0,0,5.2-3.3,6.5-7.8c1.3-4.5,1.8-9.5,0.5-16.7c-1.3-7.2-8.7-21.7-8.7-21.7l3.3-11.7l7.3-3.1
					l8-4.2l6.3,8.2h8l17-3.2l9,3.2l18-10l-9,3l5-9.3l9,6.1c0,0,5.4,8.7,12.1,6.1c6.7-2.6,8.2-12,8.2-12L308-495z"/>
			</g>
			<g>
				<g>
					<path fill="#9F5B26" d="M-181.1-328.2c0,0-0.1,0-0.2-0.1C-181.2-328.2-181.1-328.2-181.1-328.2z"/>
				</g>
				<g>
					<path fill="#9F5B26" d="M312-500h-1361V550.2c1-0.5,0.8-1,1.2-1.5c3.3-4.7,0.1-16.7,0.1-16.7l4.7-19.3c0,0,8,25.3,12,22
						c4-3.3,7.3-8,8.7-10.7c1.3-2.7,0-18,0-26s26.3-23,26.3-23h33h11.3l18.7-13.2l5.2-19.2c0,0,11.5-14,14-14.7
						c2.6-0.7,16.8-0.7,16.8-0.7s8,6,12.6,6s4.1-5.3,4.1-5.3s3.3-4.7,8-6.7c4.7-2,11.3-12,11.3-12l6.8-1.3l13,2l10.9,11.3l32.2-12.7
						l3-3.3l0.1-10c0,0,0,0,3.3-2c3.3-2,6.7-4.7,6-6.7c-0.7-2,0-6.7,0-9.3c0-2.7,3.7-10.3,3.7-10.3h10.2v-7l5,3v-12.3l5.9-21.3
						c0,0,4.6-5.3,5.3-7.3c0.7-2,0-9.3,0-9.3l2.7-6.7c0,0,0,0,2-1.3s5.3-4.7,9.3-7.3s-1.3-9.4-2.6-12.7c-1.3-3.3,0-5.4,0-5.4
						l13.2-11.3h0l5-4h6c0,0,9.7,0,13.7,0s7.3-4,7.3-4h6l9.6-6.7l-3.4-4.3v-8.3l3.5-4.5l4.3-4.8l10.6-1.3l4.6,0.7l2.6-1.3l7.9-7.3
						c0,0,4.6,0.7,6.6,0.7s7-7.7,7-7.7v-3.7l8.3-4l13.1-2.7l8.6,3.3l11.9,6.7c0,0,7.2,1.3,10.5,3.3s4.6,0.7,4.6,0.7l5-0.7v-7.3
						c0,0,26.2-16,30.2-14.7c4,1.3,4.3,6.7,4.3,6.7l24.6-28l7,4.3v6.3c0,0,6.3,0.7,9,0.7c2.7,0,4.4-1.3,9.7-10.7
						c5.3-9.3,6.6,3.5,6.6,3.5s4,1.2,6,5.2c2,4,5.3,2.7,5.3,2.7l4.7-1.9l4.7-1.1l5.7-3.8h7.7l3.8,1v5v14l6.6-2h7.7l12.1,17.3
						l20.7,0.7v14.7l4.3,5.7c0,0,9.7-2.3,14.4,0.1c4.7,2.3,9.3-4.2,9.3-4.2l-0.4,4.6l2,7.2c0,0,0.3,0,2,0s14.3,0,14.3,0l7.3,2.8
						c0,0,10,8.1,14,6.1c4-2,6.7,0.3,6.7,0.3l27.6-3.2h10.3l-2.3-24h-16.3l-6-11l0.7-12.3l-11.4-9.7l-15.4-7.6l-5.5-23.3l-4.5-23.3
						L-365,128v-14c0,0,26.1-10.4,32.1-10.8c6-0.3,32.6-60.1,32.6-60.1l-0.2-14.2h-7l-5.4-5.1l4.9-9.9V5.3l7.1,8.7l11-14.7
						c0,0,4.2-10.7,7.6-17.3c3.3-6.7-14.7-99-14.7-99v-5v-15.3l12.7-8c0,0-2.1-6-2.7-8.7c-0.7-2.7,2.7-7.3,5.4-10s10-9,10-9
						l4.7-14.6c0,0,12.7-15.7,15.3-16.4s8,0,8,0l3.3-6.9l3.9,2.9l16.5-16.7c0,0-0.4-64.6,6.2-68C-207-296-203-323-203-323v-15l10-12
						c0,0,0,8,0,12.7c0,4.3,10.1,8.5,11.5,9.1c-0.4-0.4-1.3-2.4,0-14.1c1.5-14.7,4.5-17.1,0.5-33.8c-4-16.7,19.4-25.8,19.4-25.8
						h42.6c0,0,50.6-0.7,58.1-0.6s23.1-4.1,30.2-6.1c7-2,33.3-6.7,33.3-6.7s19,7.3,20.4,7.3c1.4,0,10-7.3,10-7.3l23.5,4.7l23.8,4
						l8.6,3.4c0,0,16.5,1.9,24.5,9.3c8,7.4,3,0.6,12.7-2.8c9.7-3.3,5.1,0,11.1,2.7v5.7l21.9,4.9l13.2-4.9l8,4.3l1.9,10.7l-6.1,18
						l18.7,5.5l4.5,3.8l1.6,9.1l13.4,3.9l-5-7c0,0,7.8-5.3,9.2-9.8c1.3-4.5,1.8-9.5,0.5-16.7c-1.3-7.2-8.7-21.7-8.7-21.7l3.3-11.7
						l7.3-3.1l8-4.2l6.3,8.2h8l17-3.2l9,3.2l14-5l-5-2l5-9.3l9,6.1c0,0,5.4,8.7,12.1,6.1c6.7-2.6,8.2-12,8.2-12L312-500z"/>
				</g>
			</g>
			<g>
				<path fill="#CDA34F" d="M317-506h-1366V550.4c1.2-1.4,3.1-3.8,5.2-6.7c3.3-4.7,0.1-16.7,0.1-16.7l4.7-19.4c0,0,8,25.4,12,22
					c4-3.3,7.3-8,8.7-10.7c1.3-2.7,0-18,0-26c0-8,26.3-23,26.3-23h33h11.3l18.7-13.2l5.2-19.2c0,0,11.5-14,14-14.7
					c2.6-0.7,16.8-0.7,16.8-0.7s8,6,12.6,6s4.1-5.3,4.1-5.3s3.3-4.7,8-6.7c4.7-2,11.3-12,11.3-12l6.8-1.3l13,2l10.9,11.3l32.3-12.7
					l3-3.3l0.1-10c0,0,0,0,3.3-2c3.3-2,6.7-4.7,6-6.7c-0.7-2,0-6.6,0-9.3c0-2.7,3.7-10.3,3.7-10.3h10v-7.2l5,3v-12.3l6-21.4
					c0,0,4.7-5.3,5.3-7.3c0.7-2,0-9.3,0-9.3l2.7-6.7c0,0,0,0,2-1.3s5.3-4.7,9.3-7.4s-1.3-9.4-2.6-12.7c-1.3-3.3,0-5.2,0-5.2
					L-727,263h0l5-4h6c0,0,9.7,0,13.7,0s7.3-4,7.3-4h6l9.5-6.8l-3.5-4.4v-8.3l3.7-4.5l4.3-4.8l10.7-1.3l4.6,0.7l2.6-1.3l7.9-7.3
					c0,0,4.4,0.7,6.4,0.7s6.8-7.7,6.8-7.7V206l8.5-4l13.2-2.7l8.6,3.3l11.9,6.7c0,0,7.2,1.3,10.5,3.3s4.4,0.7,4.4,0.7l4.8-0.7v-7.3
					c0,0,26.4-16,30.4-14.7s4.4,6.7,4.4,6.7l24.4-28l6.8,4.3v6.3c0,0,6.5,0.7,9.2,0.7c2.7,0,4.5-1.3,9.8-10.7
					c5.3-9.3,6.7,3.5,6.7,3.5s4,1.2,6,5.2c2,4,5.3,2.7,5.3,2.7l4.7-1.9l4.7-0.9l5.7-3.7h7.7l3.3,0.6v5v14l7-1.7h7.7l11.8,17.2
					l20.5,0.5v14.7l4.5,5.7c0,0,9.8-2.3,14.5,0.1c4.7,2.3,9.3-4.2,9.3-4.2l-0.3,4.7l2,7.3c0,0,0.3,0,2,0s14.3,0,14.3,0l7.3,2.6
					c0,0,10,8.1,14,6.1s6.7,0.4,6.7,0.4l27.7-3.1h10.3l-2.3-24h-16.3l-6-11.2l0.7-12.4l-11.4-9.8l-15.4-7.6l-5.5-23.4l-4.3-23.4
					l-13.8-10.7v-14c0,0,25.8-10.4,31.8-10.8c6-0.3,32.5-59.9,32.5-59.9L-296,24h-7l-5.2-5.4l5.2-10.1v-8.7l6.9,8.7l10.9-14.7
					c0,0,4.4-10.7,7.8-17.3s-14.5-99.1-14.5-99.1v-5V-143l12.5-8c0,0-2.2-6-2.8-8.7c-0.7-2.7,2.7-7.3,5.3-10c2.7-2.7,10-9,10-9
					l4.7-14.6c0,0,12.7-15.7,15.3-16.4c2.7-0.7,8,0,8,0l3.3-6.9l3.9,2.9l16.5-16.7c0,0-0.3-64.7,6.4-68c6.7-3.3,10.8-30.4,10.8-30.4
					v-15l10-12c0,0,0,8,0,12.7c0,4.7,6.5,14.1,6.5,14.1s3.2-4.5,4.7-19.2c1.5-14.7,4.5-17.1,0.5-33.8c-4-16.7,19.3-25.9,19.3-25.9
					h42.7c0,0,50.7-0.7,58.2-0.6c7.5,0.1,23.2-4,30.2-6c7-2,33.3-6.7,33.3-6.7s19,7.4,20.4,7.4c1.4,0,10-7.3,10-7.3l23.5,4.7l23.8,4
					l8.6,3.4c0,0,16.5,1.9,24.5,9.3c8,7.4,3.1,0.6,12.8-2.8c9.7-3.3,5.1,0,11.1,2.7v5.7l21.8,4.9l13.1-4.9l8,4.3l1.9,10.7l-6.1,18
					l18.8,5.5l4.5,3.8v10l10,8v-12c0,0,7.8-5.3,9.2-9.8c1.3-4.5,1.8-9.5,0.5-16.7c-1.3-7.2-8.7-21.8-8.7-21.8l3.3-11.7l7.3-3.1
					l8-4.2l6.3,8.1h8l17-3.2l9,3.2h9v-6.9l5-9.3l9,6.1c0,0,5.4,8.7,12.1,6.1c6.7-2.6,8.2-12,8.2-12L317-506z"/>
			</g>
		</g>
	</g>
	<g display="inline">
		<g>
			<g>
				<path fill="#5E3112" d="M-1048.4,1170.8c0,0,3.7,78.1,13.7,96.1s13.8,46.1,13.8,46.1l9.8,17.1v37l8,19.3c0,0,6,6.7,14,13.7
					s22,15,22,15s18.1,16,20,21c2,5-4,0.8,0,15.8c4,15-8,36.2-8,36.2h22l11,21v30c0,0-34.8,18-24.8,20c10,2,24.8,32,24.8,32v26v20
					v30l11.9,12c0,0,8.9,13.5,0,22.7s0,23.3,0,23.3l4,17.8l-16.2,18.3h14.6l-25.3,58.5l10.7,11.5c0,0,2.7,16,0,20c-2.7,4,0,44,0,44
					H-969l-22,32.8l24,28.9l-23.8,38.3l13.8,28v36h30l-30.3,67.5L-999,2145l-26,22l-6,52l-17,24L-1048.4,1170.8z"/>
			</g>
			<g>
				<path fill="#9F5B26" d="M-1048.4,1160.8c0,0,3.7,78.1,13.7,96.1s13.8,46.1,13.8,46.1l9.8,17.1v37l8,19.3c0,0,6,6.7,14,13.7
					s22,15,22,15s18.1,16,20,21c2,5-4,0.8,0,15.8c4,15-8,36.2-8,36.2h22l11,21v30c0,0-34.8,18-24.8,20c10,2,24.8,32,24.8,32v26v20
					v30l11.9,12c0,0,8.9,13.5,0,22.7s0,23.3,0,23.3l4,17.8l-16.2,18.3l14.6,10l-25.3,48.5l10.7,11.5c0,0,2.7,16,0,20
					c-2.7,4,0,44,0,44H-969l-22,32.8l24,38.9l-23.8,28.3l13.8,28v36l30,10l-30.3,57.5L-999,2135l-26,22l-6,52l-17,24L-1048.4,1160.8
					z"/>
			</g>
			<g>
				<path fill="#CDA34F" d="M-1048.4,1152.8c0,0,3.7,78.1,13.7,96.1s13.8,46.1,13.8,46.1l9.8,17.1v37l8,19.3c0,0,6,6.7,14,13.7
					s22,15,22,15s18.1,16,20,21c2,5-4,0.8,0,15.8c4,15-8,36.2-8,36.2h22l11,21v30c0,0-34.8,18-24.8,20c10,2,24.8,32,24.8,32v26v20
					v30l11.9,12c0,0,8.9,13.5,0,22.7s0,23.3,0,23.3l4,17.8l-16.2,18.3l14.6,18l-25.3,40.5l10.7,11.5c0,0,2.7,16,0,20
					c-2.7,4,0,44,0,44H-969l-22,32.8l24,46.9l-23.8,20.3l13.8,28v36l30,18l-30.3,49.5L-999,2127l-26,22l-6,52l-17,24L-1048.4,1152.8
					z"/>
			</g>
		</g>
		<g>
			<g>
				<path fill="#5E3112" d="M317.2,1170.8c0,0-3.7,78.1-13.7,96.1c-10,18-13.7,46.1-13.7,46.1L280,1330v37l-8.1,19.3
					c0,0-6.1,6.7-14.1,13.7c-8,7-22.1,15-22.1,15s-18.1,16-20.1,21s4,0.8,0,15.8c-4,15,8,36.2,8,36.2h-22l-10.6,21v30
					c0,0,34.9,18,24.9,20s-24.9,32-24.9,32v26v20v30l-12.2,12c0,0-9,13.5-0.1,22.7s-0.1,23.3-0.1,23.3l-4,17.8l16.2,18.3h-14.6
					l25.3,58.5l-10.7,11.5c0,0-2.7,16,0,20c2.7,4,0,44,0,44h46.8l22,32.8l-24.1,28.9l24.1,38.3l-13.7,28v36h-30.4l30.3,67.5
					l21.8,18.5l26.1,22l6,52l17,24L317.2,1170.8z"/>
			</g>
			<g>
				<path fill="#9F5B26" d="M317.2,1160.8c0,0-3.7,78.1-13.7,96.1c-10,18-13.7,46.1-13.7,46.1L280,1320v37l-8.1,19.3
					c0,0-6.1,6.7-14.1,13.7c-8,7-22.1,15-22.1,15s-18.1,16-20.1,21s4,0.8,0,15.8c-4,15,8,36.2,8,36.2h-22l-10.6,21v30
					c0,0,34.9,18,24.9,20s-24.9,32-24.9,32v26v20v30l-12.2,12c0,0-9,13.5-0.1,22.7s-0.1,23.3-0.1,23.3l-4,17.8l16.2,18.3l-14.6,10
					l25.3,48.5l-10.7,11.5c0,0-2.7,16,0,20c2.7,4,0,44,0,44h46.8l22,32.8l-24.1,38.9l24.1,28.3l-13.7,28v36l-30.3,10l30.3,57.5
					l21.8,18.5l26,22l6,52l17,24L317.2,1160.8z"/>
			</g>
			<g>
				<path fill="#CDA34F" d="M317.2,1152.8c0,0-3.7,78.1-13.7,96.1c-10,18-13.7,46.1-13.7,46.1L280,1312v37l-8.1,19.3
					c0,0-6.1,6.7-14.1,13.7c-8,7-22.1,15-22.1,15s-18.1,16-20.1,21s4,0.8,0,15.8c-4,15,8,36.2,8,36.2h-22l-10.6,21v30
					c0,0,34.9,18,24.9,20s-24.9,32-24.9,32v26v20v30l-12.2,12c0,0-9,13.5-0.1,22.7s-0.1,23.3-0.1,23.3l-4,17.8l16.2,18.3l-14.6,18
					l25.3,40.5l-10.7,11.5c0,0-2.7,16,0,20c2.7,4,0,44,0,44h46.8l22,32.8l-24.1,46.9l24.1,20.3l-13.7,28v36l-30.3,18l30.3,49.5
					l21.8,18.5l26,22l6,52l17,24L317.2,1152.8z"/>
			</g>
		</g>
		<g>
			<g>
				<g>
					<g>
						<path fill="#9F5B26" d="M-1007.5,1661.4c-13.3,0-24.2-10.8-24.2-24.2c0-12.5,10.2-36.6,24.2-36.6s24.2,24.1,24.2,36.6
							C-983.3,1650.6-994.2,1661.4-1007.5,1661.4z M-1007.5,1605.6c-9.7,0-19.2,20-19.2,31.6c0,10.6,8.6,19.2,19.2,19.2
							s19.2-8.6,19.2-19.2C-988.3,1625.6-997.8,1605.6-1007.5,1605.6z"/>
					</g>
				</g>
				<g>
					<g>
						<polygon fill="#9F5B26" points="-1004,1672 -1009,1672 -1009,1659.2 -1008.9,1620.7 -1003.9,1620.7 -1004,1659.2 						"/>
					</g>
				</g>
				<g>
					<g>
						<polygon fill="#9F5B26" points="-1007.6,1644.3 -1023.7,1628.3 -1020.1,1624.7 -1007.6,1637.2 -996.1,1625.7 -992.6,1629.2 
													"/>
					</g>
				</g>
			</g>
			<g>
				<g>
					<g>
						<path fill="#9F5B26" d="M-952.5,1700.4c-13.3,0-24.2-10.8-24.2-24.2c0-13.8,11.4-26,24.5-26c12.9,0,23.9,11.9,23.9,26
							C-928.3,1689.6-939.2,1700.4-952.5,1700.4z M-952.2,1655.3c-10.2,0-19.5,10-19.5,21c0,10.6,8.6,19.2,19.2,19.2
							s19.2-8.6,19.2-19.2C-933.3,1665.1-942.1,1655.3-952.2,1655.3z"/>
					</g>
				</g>
				<g>
					<g>
						<polygon fill="#9F5B26" points="-949,1717 -954,1717 -954,1704.2 -953.9,1665.7 -948.9,1665.7 -949,1704.2 						"/>
					</g>
				</g>
				<g>
					<g>
						<polygon fill="#9F5B26" points="-952.6,1689.3 -968.7,1673.3 -965.1,1669.7 -952.6,1682.2 -941.1,1670.7 -937.6,1674.2 						
							"/>
					</g>
				</g>
			</g>
			<g>
				<g>
					<g>
						<path fill="#5E3112" d="M-1009.5,1657.4c-13.3,0-24.2-10.8-24.2-24.2c0-12.5,10.2-36.6,24.2-36.6s24.2,24.1,24.2,36.6
							C-985.3,1646.6-996.2,1657.4-1009.5,1657.4z M-1009.5,1601.6c-9.7,0-19.2,20-19.2,31.6c0,10.6,8.6,19.2,19.2,19.2
							s19.2-8.6,19.2-19.2C-990.3,1621.6-999.8,1601.6-1009.5,1601.6z"/>
					</g>
				</g>
				<g>
					<g>
						<polygon fill="#5E3112" points="-1007,1668 -1012,1668 -1012,1655.2 -1011.9,1616.7 -1006.9,1616.7 -1007,1655.2 						"/>
					</g>
				</g>
				<g>
					<g>
						<polygon fill="#5E3112" points="-1009.6,1640.3 -1025.7,1624.3 -1022.1,1620.7 -1009.6,1633.2 -998.1,1621.7 -994.6,1625.2 
													"/>
					</g>
				</g>
			</g>
			<g>
				<g>
					<g>
						<path fill="#5E3112" d="M-954.5,1696.4c-13.3,0-24.2-10.8-24.2-24.2c0-13.8,11.4-26,24.5-26c12.9,0,23.9,11.9,23.9,26
							C-930.3,1685.6-941.2,1696.4-954.5,1696.4z M-954.2,1651.3c-10.2,0-19.5,10-19.5,21c0,10.6,8.6,19.2,19.2,19.2
							s19.2-8.6,19.2-19.2C-935.3,1661.1-944.1,1651.3-954.2,1651.3z"/>
					</g>
				</g>
				<g>
					<g>
						<polygon fill="#5E3112" points="-952,1713 -957,1713 -957,1700.2 -956.9,1661.7 -951.9,1661.7 -952,1700.2 						"/>
					</g>
				</g>
				<g>
					<g>
						<polygon fill="#5E3112" points="-954.6,1685.3 -970.7,1669.3 -967.1,1665.7 -954.6,1678.2 -943.1,1666.7 -939.6,1670.2 						
							"/>
					</g>
				</g>
			</g>
		</g>
		<g>
			<g>
				<g>
					<g>
						<path fill="#9F5B26" d="M281.5,2095.4c-13.3,0-24.2-10.8-24.2-24.2c0-12.5,10.2-36.6,24.2-36.6s24.2,24.1,24.2,36.6
							C305.7,2084.6,294.8,2095.4,281.5,2095.4z M281.5,2039.6c-9.7,0-19.2,20-19.2,31.6c0,10.6,8.6,19.2,19.2,19.2
							s19.2-8.6,19.2-19.2C300.7,2059.6,291.2,2039.6,281.5,2039.6z"/>
					</g>
				</g>
				<g>
					<g>
						<polygon fill="#9F5B26" points="283,2106 278,2106 278,2093.2 277.9,2054.7 282.9,2054.7 283,2093.2 						"/>
					</g>
				</g>
				<g>
					<g>
						<polygon fill="#9F5B26" points="281.6,2078.3 266.6,2063.2 270.1,2059.7 281.6,2071.2 294.1,2058.7 297.7,2062.3 						"/>
					</g>
				</g>
			</g>
			<g>
				<g>
					<g>
						<path fill="#5E3112" d="M283.5,2091.4c-13.3,0-24.2-10.8-24.2-24.2c0-12.5,10.2-36.6,24.2-36.6s24.2,24.1,24.2,36.6
							C307.7,2080.6,296.8,2091.4,283.5,2091.4z M283.5,2035.6c-9.7,0-19.2,20-19.2,31.6c0,10.6,8.6,19.2,19.2,19.2
							s19.2-8.6,19.2-19.2C302.7,2055.6,293.2,2035.6,283.5,2035.6z"/>
					</g>
				</g>
				<g>
					<g>
						<polygon fill="#5E3112" points="286,2102 281,2102 281,2089.2 280.9,2050.7 285.9,2050.7 286,2089.2 						"/>
					</g>
				</g>
				<g>
					<g>
						<polygon fill="#5E3112" points="283.6,2074.3 268.6,2059.2 272.1,2055.7 283.6,2067.2 296.1,2054.7 299.7,2058.3 						"/>
					</g>
				</g>
			</g>
		</g>
		<g>
			<g>
				<g>
					<g>
						<path fill="#9F5B26" d="M258.5,1534.4c-13.3,0-24.2-10.8-24.2-24.2c0-14.1,10.9-26,23.9-26c13,0,24.5,12.1,24.5,26
							C282.7,1523.6,271.8,1534.4,258.5,1534.4z M258.2,1489.3c-10,0-18.9,9.8-18.9,21c0,10.6,8.6,19.2,19.2,19.2
							s19.2-8.6,19.2-19.2C277.7,1499.3,268.4,1489.3,258.2,1489.3z"/>
					</g>
				</g>
				<g>
					<g>
						<polygon fill="#9F5B26" points="260,1551 255,1551 255,1538.2 254.9,1499.7 259.9,1499.7 260,1538.2 						"/>
					</g>
				</g>
				<g>
					<g>
						<polygon fill="#9F5B26" points="258.6,1523.3 243.6,1508.2 247.1,1504.7 258.6,1516.2 271.1,1503.7 274.7,1507.3 						"/>
					</g>
				</g>
			</g>
			<g>
				<g>
					<g>
						<path fill="#5E3112" d="M260.5,1530.4c-13.3,0-24.2-10.8-24.2-24.2c0-14.1,10.9-26,23.9-26c13,0,24.5,12.1,24.5,26
							C284.7,1519.6,273.8,1530.4,260.5,1530.4z M260.2,1485.3c-10,0-18.9,9.8-18.9,21c0,10.6,8.6,19.2,19.2,19.2
							s19.2-8.6,19.2-19.2C279.7,1495.3,270.4,1485.3,260.2,1485.3z"/>
					</g>
				</g>
				<g>
					<g>
						<polygon fill="#5E3112" points="263,1547 258,1547 258,1534.2 257.9,1495.7 262.9,1495.7 263,1534.2 						"/>
					</g>
				</g>
				<g>
					<g>
						<polygon fill="#5E3112" points="260.6,1519.3 245.6,1504.2 249.1,1500.7 260.6,1512.2 273.1,1499.7 276.7,1503.3 						"/>
					</g>
				</g>
			</g>
		</g>
	</g>
	<g display="inline">
		<g>
			<g>
				<g>
					<path fill="#9F5B26" d="M-875.9,71h-3l-4.8-8.4h-0.1c0.1,1.5,0.1,2.5,0.1,3.2V71h-2.1V60h3l4.8,8.3h0.1c-0.1-1.4-0.1-2.5-0.1-3
						V60h2.1V71z"/>
				</g>
			</g>
			<g>
				<g>
					<path fill="#9F5B26" d="M-879.2,259c0,1-0.4,1.8-1.1,2.4c-0.7,0.6-1.7,0.9-3,0.9c-1.2,0-2.2-0.2-3.1-0.7v-2.2
						c0.7,0.3,1.4,0.6,1.9,0.7c0.5,0.1,1,0.2,1.4,0.2c0.5,0,0.9-0.1,1.2-0.3s0.4-0.5,0.4-0.9c0-0.2-0.1-0.4-0.2-0.6
						c-0.1-0.2-0.3-0.3-0.5-0.5c-0.2-0.2-0.7-0.4-1.4-0.7c-0.7-0.3-1.2-0.6-1.5-0.9c-0.3-0.3-0.6-0.6-0.8-1
						c-0.2-0.4-0.3-0.8-0.3-1.4c0-1,0.3-1.7,1-2.3s1.6-0.8,2.7-0.8c0.6,0,1.1,0.1,1.6,0.2c0.5,0.1,1.1,0.3,1.6,0.6l-0.8,1.8
						c-0.6-0.2-1.1-0.4-1.5-0.5c-0.4-0.1-0.8-0.1-1.1-0.1c-0.4,0-0.8,0.1-1,0.3c-0.2,0.2-0.4,0.5-0.4,0.8c0,0.2,0,0.4,0.1,0.5
						c0.1,0.2,0.2,0.3,0.5,0.4c0.2,0.1,0.7,0.4,1.5,0.8c1,0.5,1.7,1,2.1,1.5C-879.4,257.7-879.2,258.3-879.2,259z"/>
				</g>
			</g>
			<g>
				<g>
					<path fill="#9F5B26" d="M-784.3,167h-6.4v-11.1h6.4v1.9h-4v2.4h3.7v1.9h-3.7v2.9h4V167z"/>
				</g>
			</g>
			<g>
				<g>
					<path fill="#9F5B26" d="M-974.5,155.9h2.4l-3.8,11.1h-2.6l-3.8-11.1h2.4l2.1,6.6c0.1,0.4,0.2,0.8,0.4,1.4
						c0.1,0.5,0.2,0.9,0.2,1.1c0.1-0.5,0.2-1.3,0.6-2.4L-974.5,155.9z"/>
				</g>
			</g>
			<g>
				<g>
					<path fill="#9F5B26" d="M-794.6,163l-76.2-7.2l18.5-22.9l-21.5,18L-881,76v-0.3l-6.9,76l-23-18.7l18.9,22.7l-75.2,7.3h-0.9
						l76.1,6.8l-18.7,22.9l22.6-19.2l7,75.2v0.2l7.1-76l22.8,18.5l-18.3-21.6l74.5-6.8H-794.6z M-884.8,164.9l-4.2,4.3l-57.3-5.2
						h62.3L-884.8,164.9z M-882,160.1l-5.3-5.3l5.3-57.3V160.1z M-880,227.2v-62.6l5.3,5.3L-880,227.2z M-879,162l5.3-5.3l57.3,5.3
						H-879z"/>
				</g>
			</g>
		</g>
		<g>
			<g>
				<g>
					<path fill="#5E3112" d="M-875,66.4h-3l-4.8-8.4h-0.1c0.1,1.5,0.1,2.5,0.1,3.2v5.2h-2.1V55.4h3l4.8,8.3h0.1
						c-0.1-1.4-0.1-2.5-0.1-3v-5.2h2.1V66.4z"/>
				</g>
			</g>
			<g>
				<g>
					<path fill="#5E3112" d="M-878.3,254.4c0,1-0.4,1.8-1.1,2.4c-0.7,0.6-1.7,0.9-3,0.9c-1.2,0-2.2-0.2-3.1-0.7v-2.2
						c0.7,0.3,1.4,0.6,1.9,0.7c0.5,0.1,1,0.2,1.4,0.2c0.5,0,0.9-0.1,1.2-0.3s0.4-0.5,0.4-0.9c0-0.2-0.1-0.4-0.2-0.6
						c-0.1-0.2-0.3-0.3-0.5-0.5c-0.2-0.2-0.7-0.4-1.4-0.7c-0.7-0.3-1.2-0.6-1.5-0.9c-0.3-0.3-0.6-0.6-0.8-1
						c-0.2-0.4-0.3-0.8-0.3-1.4c0-1,0.3-1.7,1-2.3s1.6-0.8,2.7-0.8c0.6,0,1.1,0.1,1.6,0.2c0.5,0.1,1.1,0.3,1.6,0.6l-0.8,1.8
						c-0.6-0.2-1.1-0.4-1.5-0.5c-0.4-0.1-0.8-0.1-1.1-0.1c-0.4,0-0.8,0.1-1,0.3c-0.2,0.2-0.4,0.5-0.4,0.8c0,0.2,0,0.4,0.1,0.5
						c0.1,0.2,0.2,0.3,0.5,0.4c0.2,0.1,0.7,0.4,1.5,0.8c1,0.5,1.7,1,2.1,1.5C-878.5,253.1-878.3,253.7-878.3,254.4z"/>
				</g>
			</g>
			<g>
				<g>
					<path fill="#5E3112" d="M-783.4,162.4h-6.4v-11.1h6.4v1.9h-4v2.4h3.7v1.9h-3.7v2.9h4V162.4z"/>
				</g>
			</g>
			<g>
				<g>
					<path fill="#5E3112" d="M-973.6,151.3h2.4l-3.8,11.1h-2.6l-3.8-11.1h2.4l2.1,6.6c0.1,0.4,0.2,0.8,0.4,1.4
						c0.1,0.5,0.2,0.9,0.2,1.1c0.1-0.5,0.2-1.3,0.6-2.4L-973.6,151.3z"/>
				</g>
			</g>
			<g>
				<g>
					<path fill="#5E3112" d="M-793.7,158l-76.2-7l18.5-22.8l-21.5,18.1l-7.1-74.9v-0.3l-7,76l-23-18.7l18.9,22.5l-75.3,7.1h-0.9
						l76.1,7l-18.7,23l22.7-19.1l7.1,75.2v0.2l7-76l22.8,18.5l-18.3-21.8l74.5-7H-793.7z M-883.9,160.1l-4.2,4.2l-57.3-5.3h62.3
						L-883.9,160.1z M-881,155.5l-5.3-5.3l5.3-57.3V155.5z M-879,222.6V160l5.3,5.3L-879,222.6z M-878.1,157l5.3-5.3l57.3,5.3
						H-878.1z"/>
				</g>
			</g>
		</g>
	</g>
	<g display="inline">
		<g>
			<g>
				<g>
					<path fill="#9F5B26" d="M-568.5,105.4c-13.3,0-24.2-10.8-24.2-24.2c0-12.5,10.2-36.6,24.2-36.6s24.2,24.1,24.2,36.6
						C-544.3,94.6-555.2,105.4-568.5,105.4z M-568.5,49.6c-9.7,0-19.2,20-19.2,31.6c0,10.6,8.6,19.2,19.2,19.2s19.2-8.6,19.2-19.2
						C-549.3,69.6-558.8,49.6-568.5,49.6z"/>
				</g>
				<g>
					<polygon fill="#9F5B26" points="-566,116 -571,116 -571,103.2 -571.1,64.7 -566.1,64.7 -566,103.2 					"/>
				</g>
				<g>
					<polygon fill="#9F5B26" points="-568.4,88.3 -583.4,73.2 -579.9,69.7 -568.4,81.2 -555.9,68.7 -552.3,72.3 					"/>
				</g>
			</g>
			<g>
				<g>
					<path fill="#9F5B26" d="M-631.5,143.4c-13.3,0-24.2-10.8-24.2-24.2c0-12.5,10.2-36.6,24.2-36.6s24.2,24.1,24.2,36.6
						C-607.3,132.6-618.2,143.4-631.5,143.4z M-631.5,87.6c-9.7,0-19.2,20-19.2,31.6c0,10.6,8.6,19.2,19.2,19.2s19.2-8.6,19.2-19.2
						C-612.3,107.6-621.8,87.6-631.5,87.6z"/>
				</g>
				<g>
					<polygon fill="#9F5B26" points="-629,154 -634,154 -634,141.2 -634.1,102.7 -629.1,102.7 -629,141.2 					"/>
				</g>
				<g>
					<polygon fill="#9F5B26" points="-631.4,126.3 -646.4,111.2 -642.9,107.7 -631.4,119.2 -618.9,106.7 -615.3,110.3 					"/>
				</g>
			</g>
			<g>
				<g>
					<path fill="#9F5B26" d="M-519.5,134.4c-13.3,0-24.2-10.8-24.2-24.2c0-14.1,10.9-26,23.9-26c13,0,24.5,12.1,24.5,26
						C-495.3,123.6-506.2,134.4-519.5,134.4z M-519.8,89.3c-10,0-18.9,9.8-18.9,21c0,10.6,8.6,19.2,19.2,19.2s19.2-8.6,19.2-19.2
						C-500.3,99.3-509.6,89.3-519.8,89.3z"/>
				</g>
				<g>
					<polygon fill="#9F5B26" points="-517,151 -522,151 -522,138.2 -522.1,99.7 -517.1,99.7 -517,138.2 					"/>
				</g>
				<g>
					<polygon fill="#9F5B26" points="-519.4,123.3 -534.4,108.2 -530.9,104.7 -519.4,116.2 -506.9,103.7 -503.3,107.3 					"/>
				</g>
			</g>
		</g>
		<g>
			<g>
				<g>
					<path fill="#5E3112" d="M-565.5,101.4c-13.3,0-24.2-10.8-24.2-24.2c0-12.5,10.2-36.6,24.2-36.6s24.2,24.1,24.2,36.6
						C-541.3,90.6-552.2,101.4-565.5,101.4z M-565.5,45.6c-9.7,0-19.2,20-19.2,31.6c0,10.6,8.6,19.2,19.2,19.2s19.2-8.6,19.2-19.2
						C-546.3,65.6-555.8,45.6-565.5,45.6z"/>
				</g>
				<g>
					<polygon fill="#5E3112" points="-563,112 -568,112 -568,99.2 -568.1,60.7 -563.1,60.7 -563,99.2 					"/>
				</g>
				<g>
					<polygon fill="#5E3112" points="-565.4,84.3 -580.4,69.2 -576.9,65.7 -565.4,77.2 -552.9,64.7 -549.3,68.3 					"/>
				</g>
			</g>
			<g>
				<g>
					<path fill="#5E3112" d="M-628.5,139.4c-13.3,0-24.2-10.8-24.2-24.2c0-12.5,10.2-36.6,24.2-36.6s24.2,24.1,24.2,36.6
						C-604.3,128.6-615.2,139.4-628.5,139.4z M-628.5,83.6c-9.7,0-19.2,20-19.2,31.6c0,10.6,8.6,19.2,19.2,19.2s19.2-8.6,19.2-19.2
						C-609.3,103.6-618.8,83.6-628.5,83.6z"/>
				</g>
				<g>
					<polygon fill="#5E3112" points="-626,150 -631,150 -631,137.2 -631.1,98.7 -626.1,98.7 -626,137.2 					"/>
				</g>
				<g>
					<polygon fill="#5E3112" points="-628.4,122.3 -643.4,107.2 -639.9,103.7 -628.4,115.2 -615.9,102.7 -612.3,106.3 					"/>
				</g>
			</g>
			<g>
				<g>
					<path fill="#5E3112" d="M-516.5,130.4c-13.3,0-24.2-10.8-24.2-24.2c0-14.1,10.9-26,23.9-26c13,0,24.5,12.1,24.5,26
						C-492.3,119.6-503.2,130.4-516.5,130.4z M-516.8,85.3c-10,0-18.9,9.8-18.9,21c0,10.6,8.6,19.2,19.2,19.2s19.2-8.6,19.2-19.2
						C-497.3,95.3-506.6,85.3-516.8,85.3z"/>
				</g>
				<g>
					<polygon fill="#5E3112" points="-514,147 -519,147 -519,134.2 -519.1,95.7 -514.1,95.7 -514,134.2 					"/>
				</g>
				<g>
					<polygon fill="#5E3112" points="-516.4,119.3 -531.4,104.2 -527.9,100.7 -516.4,112.2 -503.9,99.7 -500.3,103.3 					"/>
				</g>
			</g>
		</g>
	</g>
	<g display="inline">
		<g>
			<g>
				<path fill="#9F5B26" d="M-903.5,346.4c-13.3,0-24.2-10.8-24.2-24.2c0-12.5,10.2-36.6,24.2-36.6s24.2,24.1,24.2,36.6
					C-879.3,335.6-890.2,346.4-903.5,346.4z M-903.5,290.6c-9.7,0-19.2,20-19.2,31.6c0,10.6,8.6,19.2,19.2,19.2s19.2-8.6,19.2-19.2
					C-884.3,310.6-893.8,290.6-903.5,290.6z"/>
			</g>
			<g>
				<polygon fill="#9F5B26" points="-902,357 -907,357 -907,344.2 -907.1,305.7 -902.1,305.7 -902,344.2 				"/>
			</g>
			<g>
				<polygon fill="#9F5B26" points="-903.4,329.3 -918.4,314.2 -914.9,310.7 -903.4,322.2 -890.9,309.7 -887.3,313.3 				"/>
			</g>
		</g>
		<g>
			<g>
				<path fill="#9F5B26" d="M-958.5,385.4c-13.3,0-24.2-10.8-24.2-24.2c0-14.1,10.9-26,23.9-26c13,0,24.5,12.1,24.5,26
					C-934.3,374.6-945.2,385.4-958.5,385.4z M-958.8,340.3c-10,0-18.9,9.8-18.9,21c0,10.6,8.6,19.2,19.2,19.2s19.2-8.6,19.2-19.2
					C-939.3,350.3-948.6,340.3-958.8,340.3z"/>
			</g>
			<g>
				<polygon fill="#9F5B26" points="-957,402 -962,402 -962,389.2 -962.1,350.7 -957.1,350.7 -957,389.2 				"/>
			</g>
			<g>
				<polygon fill="#9F5B26" points="-958.4,374.3 -973.4,359.2 -969.9,355.7 -958.4,367.2 -945.9,354.7 -942.3,358.3 				"/>
			</g>
		</g>
		<g>
			<g>
				<path fill="#5E3112" d="M-901.5,342.4c-13.3,0-24.2-10.8-24.2-24.2c0-12.5,10.2-36.6,24.2-36.6s24.2,24.1,24.2,36.6
					C-877.3,331.6-888.2,342.4-901.5,342.4z M-901.5,286.6c-9.7,0-19.2,20-19.2,31.6c0,10.6,8.6,19.2,19.2,19.2s19.2-8.6,19.2-19.2
					C-882.3,306.6-891.8,286.6-901.5,286.6z"/>
			</g>
			<g>
				<polygon fill="#5E3112" points="-899,353 -904,353 -904,340.2 -904.1,301.7 -899.1,301.7 -899,340.2 				"/>
			</g>
			<g>
				<polygon fill="#5E3112" points="-901.4,325.3 -916.4,310.2 -912.9,306.7 -901.4,318.2 -888.9,305.7 -885.3,309.3 				"/>
			</g>
		</g>
		<g>
			<g>
				<path fill="#5E3112" d="M-956.5,381.4c-13.3,0-24.2-10.8-24.2-24.2c0-14.1,10.9-26,23.9-26c13,0,24.5,12.1,24.5,26
					C-932.3,370.6-943.2,381.4-956.5,381.4z M-956.8,336.3c-10,0-18.9,9.8-18.9,21c0,10.6,8.6,19.2,19.2,19.2s19.2-8.6,19.2-19.2
					C-937.3,346.3-946.6,336.3-956.8,336.3z"/>
			</g>
			<g>
				<polygon fill="#5E3112" points="-954,398 -959,398 -959,385.2 -959.1,346.7 -954.1,346.7 -954,385.2 				"/>
			</g>
			<g>
				<polygon fill="#5E3112" points="-956.4,370.3 -971.4,355.2 -967.9,351.7 -956.4,363.2 -943.9,350.7 -940.3,354.3 				"/>
			</g>
		</g>
	</g>
	<g display="inline">
		<g>
			<path fill="#9F5B26" d="M-287-365.5c-13.3,0-24.2-10.8-24.2-24.2c0-14.1,10.9-26,23.9-26c13,0,24.5,12.1,24.5,26
				C-262.9-376.4-273.7-365.5-287-365.5z M-287.3-410.7c-10,0-18.9,9.8-18.9,21c0,10.6,8.6,19.2,19.2,19.2s19.2-8.6,19.2-19.2
				C-267.9-400.7-277.1-410.7-287.3-410.7z"/>
		</g>
		<g>
			<polygon fill="#9F5B26" points="-285,-349 -290,-349 -290,-361.7 -290.1,-400.3 -285.1,-400.3 -285,-361.7 			"/>
		</g>
		<g>
			<polygon fill="#9F5B26" points="-286.9,-376.7 -302,-391.8 -298.4,-395.3 -286.9,-383.7 -274.4,-396.2 -270.9,-392.7 			"/>
		</g>
	</g>
	<g display="inline">
		<g>
			<path fill="#9F5B26" d="M-244.1-330.5c-13.3,0-24.2-10.8-24.2-24.2c0-12.5,10.2-36.6,24.2-36.6s24.2,24.1,24.2,36.6
				C-220-341.3-230.8-330.5-244.1-330.5z M-244.1-386.3c-9.7,0-19.2,20-19.2,31.6c0,10.6,8.6,19.2,19.2,19.2s19.2-8.6,19.2-19.2
				C-225-366.3-234.4-386.3-244.1-386.3z"/>
		</g>
		<g>
			<polygon fill="#9F5B26" points="-242,-320 -247,-320 -247,-332.7 -247.1,-371.3 -242.1,-371.3 -242,-332.7 			"/>
		</g>
		<g>
			<polygon fill="#9F5B26" points="-244,-347.6 -259.1,-362.7 -255.5,-366.3 -244,-354.7 -231.5,-367.2 -228,-363.7 			"/>
		</g>
	</g>
	<g display="inline">
		<g>
			<path fill="#5E3112" d="M-285-370.5c-13.3,0-24.2-10.8-24.2-24.2c0-14.1,10.9-26,23.9-26c13,0,24.5,12.1,24.5,26
				C-260.9-381.4-271.7-370.5-285-370.5z M-285.3-415.7c-10,0-18.9,9.8-18.9,21c0,10.6,8.6,19.2,19.2,19.2s19.2-8.6,19.2-19.2
				C-265.9-405.7-275.1-415.7-285.3-415.7z"/>
		</g>
		<g>
			<polygon fill="#5E3112" points="-283,-354 -288,-354 -288,-366.7 -288.1,-405.3 -283.1,-405.3 -283,-366.7 			"/>
		</g>
		<g>
			<polygon fill="#5E3112" points="-284.9,-381.7 -300,-396.8 -296.4,-400.3 -284.9,-388.7 -272.4,-401.2 -268.9,-397.7 			"/>
		</g>
	</g>
	<g display="inline">
		<g>
			<path fill="#5E3112" d="M-242.1-335.5c-13.3,0-24.2-10.8-24.2-24.2c0-12.5,10.2-36.6,24.2-36.6s24.2,24.1,24.2,36.6
				C-218-346.3-228.8-335.5-242.1-335.5z M-242.1-391.3c-9.7,0-19.2,20-19.2,31.6c0,10.6,8.6,19.2,19.2,19.2s19.2-8.6,19.2-19.2
				C-223-371.3-232.4-391.3-242.1-391.3z"/>
		</g>
		<g>
			<polygon fill="#5E3112" points="-240,-325 -245,-325 -245,-337.7 -245.1,-376.3 -240.1,-376.3 -240,-337.7 			"/>
		</g>
		<g>
			<polygon fill="#5E3112" points="-242,-352.6 -257.1,-367.7 -253.5,-371.3 -242,-359.7 -229.5,-372.2 -226,-368.7 			"/>
		</g>
	</g>
</g>
<g id="Layer_6" display="none">
	<g display="inline">
		<path fill="#603813" d="M-36.2-104h-22v-10h22c3.4,0,6.6-0.8,9.6-2.2l4.5,9C-26.5-105.1-31.3-104-36.2-104z M-80.2-104h-22v-10h22
			V-104z M-124.2-104h-22v-10h22V-104z M-168.2-104h-22v-10h22V-104z M-212.2-104h-22v-10h22V-104z M-256.2-104h-22v-10h22V-104z
			 M-300.2-104h-22v-10h22V-104z M-344.2-104h-22v-10h22V-104z M-388.2-104h-22v-10h22V-104z M-432.2-104h-22v-10h22V-104z
			 M-476.2-104h-22v-10h22V-104z M-520.2-104h-22v-10h22V-104z M-564.2-104h-22v-10h22V-104z M-608.2-104h-22v-10h22V-104z
			 M-652.2-104h-22v-10h22V-104z M-696.2-104h-22v-10h22V-104z M-740.2-104h-22v-10h22V-104z M-784.2-104h-7.8
			c-5.7,0-11.2-1.5-16.1-4.4l5.1-8.6c3.3,2,7.1,3,11,3h7.8V-104z M-5.9-126.8l-9.6-2.8c0.6-1.9,0.8-3.9,0.8-5.9v-14.6h10v14.6
			C-4.7-132.6-5.1-129.6-5.9-126.8z M-822.9-129.1c-0.4-2.1-0.7-4.3-0.7-6.5V-152h10v16.5c0,1.5,0.2,3,0.5,4.4L-822.9-129.1z
			 M-4.7-172.1h-10v-22h10V-172.1z M-813.5-174h-10v-22h10V-174z M-4.7-216.1h-10v-22h10V-216.1z M-813.5-218h-10v-22h10V-218z
			 M-4.7-260.1h-10v-22h10V-260.1z M-813.5-262h-10v-22h10V-262z M-4.7-304.1h-10v-22h10V-304.1z M-813.5-306h-10v-22h10V-306z
			 M-4.7-348.1h-10v-10.4c0-3.2-0.7-6.3-2-9.1l9.1-4.2c2,4.2,3,8.7,3,13.4V-348.1z M-813.5-350h-10v-8.5c0-5.4,1.4-10.7,4-15.4
			l8.7,4.9c-1.8,3.2-2.7,6.8-2.7,10.5V-350z M-29.8-379c-2.1-0.7-4.2-1-6.4-1h-13.9v-10h13.9c3.2,0,6.4,0.5,9.4,1.4L-29.8-379z
			 M-796.9-379.4l-2.3-9.7c2.3-0.5,4.8-0.8,7.2-0.8h15.9v10H-792C-793.7-380-795.3-379.8-796.9-379.4z M-72.1-380h-22v-10h22V-380z
			 M-116.1-380h-22v-10h22V-380z M-160.1-380h-22v-10h22V-380z M-204.1-380h-22v-10h22V-380z M-248.1-380h-22v-10h22V-380z
			 M-292.1-380h-22v-10h22V-380z M-336.1-380h-22v-10h22V-380z M-380.1-380h-22v-10h22V-380z M-424.1-380h-22v-10h22V-380z
			 M-468.1-380h-22v-10h22V-380z M-512.1-380h-22v-10h22V-380z M-556.1-380h-22v-10h22V-380z M-600.1-380h-22v-10h22V-380z
			 M-644.1-380h-22v-10h22V-380z M-688.1-380h-22v-10h22V-380z M-732.1-380h-22v-10h22V-380z"/>
	</g>
</g>
<g id="Layer_7" display="none">
	<rect x="-1275.5" y="-344.2" display="inline" fill="#E5E5E5" width="1365.3" height="1167.2"/>
	<g display="inline">
		<path fill="#5E3112" d="M-1277.5-232.6l14.7-11.9h22.4l-5.9,12l21,17.8l18-7.5l21-7.3l23.9,15h23v-30l25,15c0,0,13.6,6.2,19.6,0
			c6-6.2,16-15,16-15s41-4.3,45.5,0s0,30,0,30s9,7.3,24,8.8s23.3-1.5,25.9,0c2.6,1.5,13.1-22.3,20.6-20.2c7.5,2.2,27-3.7,37.5,0
			c10.5,3.7-16.8,7.3-16.8,7.3s-5.7,4.7,12.3,13.3s60.3,0,60.3,0l-16.9,19.1v14.7v13.8l11,13.2l22-11.7c0,0,16.6,15,21.1,15
			c4.5,0,22.5-7.5,22.5-7.5l10.4,14.2c0,0,16,6.5,22,2c6-4.5,27,3.3,27,3.3s22.3-8.9,24.2-8.9c1.9,0,10.9,0,19.9,3
			c9,3,31.3,5.9,31.3,5.9s4.7-11.8,10.7-11.8s3.8,4.6,16.9,4.6c13.1,0,33,0,33,0l28.1-4.7l41.9-10.5c0,0,25.3-10.5,26.9-10.5
			c1.6,0,33.1,4.5,37.6,4.5s27.3-1.5,38.4,0s33.6,3,41.1,6c7.5,3,27.7,6,35.6,6s51.9-23.9,57.6-23.9s2.7-7.6,7.2-7.6
			s-4.8,15.7-4.8,15.7s4.8,0.3,14.3-1c8.5-1.2,11.1-12.3,11.1-12.3s1.9-2.3-3.4-4.7c-11.8-5.2-9.8-28.3-9.8-27.7s65.1,7.7,65.1,7.7
			l14.6-15.2c0,0,13.5-10.5,22.5-10.5c9,0,19.7,7.5,29.3,7.5s28.6,3,28.6,3s-8.1-7.4,0-10.4c8.1-3,14.1-7.4,14.1-7.4h13.9l16-4.7
			v-9.3l37.6,9h21.4l13.1-9h34.9l5.6,22.8c0,0,7.5,4.6,16.5,4.6s30-7.4,30-7.4h17.9l1.1-107h-1365.1L-1277.5-232.6z"/>
		<path fill="#9F5B26" d="M-1277.5-237.4l14.7-11.9h22.4l-5.9,12l21,17.8l18-7.5l21-7.3l23.9,15h23v-30l25,15c0,0,13.6,6.2,19.6,0
			c6-6.2,16-15,16-15s41-4.3,45.5,0s0,30,0,30s9,7.3,24,8.8s23.3-1.5,25.9,0c2.6,1.5,13.1-22.3,20.6-20.2c7.5,2.2,27-3.7,37.5,0
			c10.5,3.7-16.8,7.3-16.8,7.3s-5.7,4.7,12.3,13.3s60.3,0,60.3,0l-16.9,19.1v14.7v13.8l11,13.2l22-11.7c0,0,16.6,15,21.1,15
			c4.5,0,22.5-7.5,22.5-7.5l10.4,14.2c0,0,16,6.5,22,2c6-4.5,27,3.3,27,3.3s22.3-8.9,24.2-8.9c1.9,0,10.9,0,19.9,3
			s31.3,5.9,31.3,5.9s4.7-11.8,10.7-11.8s3.8,4.6,16.9,4.6c13.1,0,33,0,33,0l28.1-4.7l41.9-10.5c0,0,25.3-10.5,26.9-10.5
			c1.6,0,33.1,4.5,37.6,4.5s27.3-1.5,38.4,0s33.6,3,41.1,6c7.5,3,27.7,6,35.6,6s51.9-23.9,57.6-23.9s2.7-7.6,7.2-7.6
			s-4.8,15.7-4.8,15.7s4.8,0.3,14.3-1c8.5-1.2,11.1-12.3,11.1-12.3s1.9-2.3-3.4-4.7c-11.8-5.2-9.8-28.3-9.8-27.7
			c0,0.6,65.1,7.7,65.1,7.7l14.6-15.2c0,0,13.5-10.5,22.5-10.5c9,0,19.7,7.5,29.3,7.5s28.6,3,28.6,3s-8.1-7.4,0-10.4
			c8.1-3,14.1-7.4,14.1-7.4h13.9l16-4.7v-9.3l37.6,9h21.4l13.1-9h34.9l5.6,22.8c0,0,7.5,4.6,16.5,4.6s30-7.4,30-7.4h17.9l1.1-107
			h-1365.1L-1277.5-237.4z"/>
		<path fill="#CDA34F" d="M-1277.5-243.4l14.7-11.9h22.4l-5.9,12l21,17.8l18-7.5l21-7.3l23.9,15h23v-30l25,15c0,0,13.6,6.2,19.6,0
			c6-6.2,16-15,16-15s41-4.3,45.5,0c4.5,4.3,0,30,0,30s9,7.3,24,8.8s23.3-1.5,25.9,0c2.6,1.5,13.1-22.3,20.6-20.2
			c7.5,2.2,27-3.7,37.5,0c10.5,3.7-16.8,7.3-16.8,7.3s-5.7,4.7,12.3,13.3s60.3,0,60.3,0l-16.9,19.1v14.7v13.8l11,13.2l22-11.7
			c0,0,16.6,15,21.1,15c4.5,0,22.5-7.5,22.5-7.5l10.4,14.2c0,0,16,6.5,22,2c6-4.5,27,3.3,27,3.3s22.3-8.9,24.2-8.9
			c1.9,0,10.9,0,19.9,3s31.3,5.9,31.3,5.9s4.7-11.8,10.7-11.8s3.8,4.6,16.9,4.6c13.1,0,33,0,33,0l28.1-4.7l41.9-10.5
			c0,0,25.3-10.5,26.9-10.5c1.6,0,33.1,4.5,37.6,4.5s27.3-1.5,38.4,0s33.6,3,41.1,6c7.5,3,27.7,6,35.6,6s51.9-23.9,57.6-23.9
			s2.7-7.6,7.2-7.6s-4.8,15.7-4.8,15.7s4.8,0.3,14.3-1c8.5-1.2,11.1-12.3,11.1-12.3s1.9-2.3-3.4-4.7c-11.8-5.2-9.8-28.3-9.8-27.7
			c0,0.6,65.1,7.7,65.1,7.7l14.6-15.2c0,0,13.5-10.5,22.5-10.5c9,0,19.7,7.5,29.3,7.5s28.6,3,28.6,3s-8.1-7.4,0-10.4
			c8.1-3,14.1-7.4,14.1-7.4h13.9l16-4.7v-9.3l37.6,9h21.4l13.1-9h34.9l5.6,22.8c0,0,7.5,4.6,16.5,4.6s30-7.4,30-7.4h17.9l1.1-107
			h-1365.1L-1277.5-243.4z"/>
	</g>
	<g display="inline">
		<path fill="#5E3112" d="M-748.7,771.3l1.5-6.8l3.3,1.4l2.6,3.8c0,0,5.5,1.9,4.4,4.5c-1.2,2.6-3.2,5.7-3.2,5.7h-2.6h-4.4l0.6-5.9
			L-748.7,771.3z"/>
		<path fill="#9F5B26" d="M-748.7,769.6l1.5-6.8l3.3,1.4l2.6,3.8c0,0,5.5,1.8,4.4,4.4s-3.2,5.6-3.2,5.6h-2.6h-4.4l0.6-5.7
			L-748.7,769.6z"/>
		<g>
			<path fill="#5E3112" d="M-448,756.9c0,0-9.8,5.3-3.8,10.6c6,5.2,5.8,5.3,5.8,5.3V766h10.1h5.9v-8h5.5l-3.2-6h-5.5h-6.1l0.4,3.3
				L-448,756.9z"/>
			<polygon fill="#5E3112" points="-757.3,761.7 -753,761.3 -753,762.2 -757.9,763.9 -759,763.3 -761.1,758.7 			"/>
			<path fill="#9F5B26" d="M-448,754.2c0,0-9.8,5.3-3.8,10.6c6,5.2,5.8,5.3,5.8,5.3v-7h10.1h5.9v-7h5.5l-3.2-7h-5.5h-6.1l0.4,3.4
				L-448,754.2z"/>
			<polygon fill="#9F5B26" points="-757.3,760.7 -753,759.4 -753,761.3 -757.9,763 -759,762.4 -761.1,758.7 			"/>
		</g>
		<g>
			<path fill="#F6921E" d="M-448,750.5c0,0-9.8,5.3-3.8,10.6c6,5.2,5.8,5.3,5.8,5.3V760h10.1h5.9v-8h5.5l-3.2-6h-5.5h-6.1l0.4,3.1
				L-448,750.5z"/>
			<path fill="#F6921E" d="M-748.7,766l1.5-6.8l3.3,1.4l2.6,3.8c0,0,5.5,2.1,4.4,4.7c-1.2,2.6-3.2,5.9-3.2,5.9h-2.6h-4.4l0.6-6
				L-748.7,766z"/>
			<polygon fill="#F6921E" points="-757.5,759 -753,759 -753,759.4 -757.9,761.2 -759,760.6 -761.3,759 			"/>
		</g>
	</g>
</g>
<g id="Layer_8" display="none">
	<g display="inline">
		<path fill="#603813" d="M-203.6,608.2h-20v-10h20c1.9,0,3.7-0.2,5.6-0.6l2.1,9.8C-198.4,607.9-201,608.2-203.6,608.2z
			 M-243.6,608.2h-20v-10h20V608.2z M-283.6,608.2h-20v-10h20V608.2z M-323.6,608.2h-20v-10h20V608.2z M-363.6,608.2h-20v-10h20
			V608.2z M-403.6,608.2h-20v-10h20V608.2z M-443.6,608.2h-20v-10h20V608.2z M-483.6,608.2h-20v-10h20V608.2z M-523.6,608.2h-20v-10
			h20V608.2z M-563.6,608.2h-20v-10h20V608.2z M-603.6,608.2h-20v-10h20V608.2z M-643.6,608.2h-20v-10h20V608.2z M-683.6,608.2h-20
			v-10h20V608.2z M-723.6,608.2h-20v-10h20V608.2z M-763.6,608.2h-20v-10h20V608.2z M-803.6,608.2h-20v-10h20V608.2z M-843.6,608.2
			h-20v-10h20V608.2z M-883.6,608.2h-20v-10h20V608.2z M-923.6,608.2h-20v-10h20V608.2z M-965.3,604.4c-6.9-3.5-12.6-9.3-16.1-16.2
			l9-4.4c2.5,5,6.6,9.2,11.6,11.7L-965.3,604.4z M-176.3,595.6l-7.6-6.5c3.7-4.3,5.8-9.6,6.1-15.3l10,0.5
			C-168.3,582.2-171.2,589.6-176.3,595.6z M-975,566.4h-10v-20h10V566.4z M-167.8,554.1h-10v-20h10V554.1z M-975,526.4h-10v-20h10
			V526.4z M-167.8,514.1h-10v-20h10V514.1z M-975,486.4h-10v-20h10V486.4z M-167.8,474.1h-10v-20h10V474.1z M-975,446.4h-10v-20h10
			V446.4z M-167.8,434.1h-10v-20h10V434.1z M-975,406.4h-10v-20h10V406.4z M-167.8,394.1h-10v-20h10V394.1z M-975,366.4h-10v-20h10
			V366.4z M-167.8,354.1h-10v-20h10V354.1z M-975,326.4h-10v-20h10V326.4z M-167.8,314.1h-10v-20h10V314.1z M-975,286.4h-10v-20h10
			V286.4z M-167.8,274.1h-10v-20h10V274.1z M-975,246.4h-10v-20h10V246.4z M-167.8,234.1h-10v-20h10V234.1z M-975,206.4h-10v-20h10
			V206.4z M-167.8,194.1h-10v-20h10V194.1z M-975,166.4h-10v-20h10V166.4z M-167.8,154.1h-10v-20h10V154.1z M-975,126.4h-10v-20h10
			V126.4z M-167.8,114.1h-10v-20h10V114.1z M-975,86.4h-10v-20h10V86.4z M-167.8,74.1h-10v-20h10V74.1z M-975,46.4h-10v-20h10V46.4z
			 M-167.8,34.1h-10v-20h10V34.1z M-975,6.4h-10v-20h10V6.4z M-167.8-5.9h-10v-20h10V-5.9z M-975-33.6h-10v-20h10V-33.6z
			 M-167.8-45.9h-10v-20h10V-45.9z M-974.7-72.8l-9.9-1.6c1.2-7.7,5-14.8,10.7-20.2l6.9,7.3C-971-83.4-973.8-78.3-974.7-72.8z
			 M-181.8-82.3c-3-4.7-7.5-8.4-12.8-10.4l3.5-9.4c7.3,2.7,13.6,7.8,17.7,14.4L-181.8-82.3z M-952-94.2l-1.1-9.9
			c1.3-0.1,2.6-0.2,3.9-0.2h16.7v10h-16.7C-950.2-94.3-951.1-94.3-952-94.2z M-212.6-94.3h-20v-10h20V-94.3z M-252.6-94.3h-20v-10
			h20V-94.3z M-292.6-94.3h-20v-10h20V-94.3z M-332.6-94.3h-20v-10h20V-94.3z M-372.6-94.3h-20v-10h20V-94.3z M-412.6-94.3h-20v-10
			h20V-94.3z M-452.6-94.3h-20v-10h20V-94.3z M-492.6-94.3h-20v-10h20V-94.3z M-532.6-94.3h-20v-10h20V-94.3z M-572.6-94.3h-20v-10
			h20V-94.3z M-612.6-94.3h-20v-10h20V-94.3z M-652.6-94.3h-20v-10h20V-94.3z M-692.6-94.3h-20v-10h20V-94.3z M-732.6-94.3h-20v-10
			h20V-94.3z M-772.6-94.3h-20v-10h20V-94.3z M-812.6-94.3h-20v-10h20V-94.3z M-852.6-94.3h-20v-10h20V-94.3z M-892.6-94.3h-20v-10
			h20V-94.3z"/>
	</g>
</g>
<g id="Layer_9" display="none">
	<rect x="-877.1" y="-228.9" display="inline" fill="#E5E5E5" width="1365.3" height="767.8"/>
	<path display="inline" fill="#5E3112" d="M-197-217.1l-657.4,0.1l0.1,742.1l203.5,13.9c0,0-19.9-27.3-18.3-30.2
		c1.6-2.9-20.9-8.7-20.9-8.7s-42.5-7.7-45.4-5.8s-21.3,1-39.6,0s-21.3-4.8-24.2-7.7c-2.9-2.9-4.8-36.7-4.8-36.7l38.7-53.2
		c0,0-24.2-7.7-30.9-11.6c-6.8-3.9-2.9-28,0-31.9c2.9-3.9,9.7-18.4,9.7-18.4s27.1-22.2,28.1-26.1s13.3-48.3,13.3-48.3l-13.5,12.6
		l-22.4-84.1v-19.3l6.7-29c0,0-2.6-16.4,0.1-23.2c2.6-6.8,15.8-37.7,15.8-37.7l12.4,15.4l23.3-62.7c0,0,4.9-5.8,18.3-14.5
		C-691,9-690.2-6.4-690.2-6.4l-3.1-12.5l-5.3-23.1h21.6c0,0,4.5-8.8,8-17.5c3.5-8.7,5.2-10.7,11-23.2c5.8-12.6,23.2-10.7,28-10.7
		c4.8,0,30,3.9,30,3.9l-23.1,32c0,0,38.6,4.7,41.5,2.8c2.9-1.9,4.8-7.7,9.7-12.6c4.8-4.8,20.3-19.3,20.3-19.3s9.7,5.8,13.5,6.8
		c3.9,1,18.4,8.7,18.4,8.7l10.6-20.3l19.3,9.7l3.9,7.7c0,0,8.7,10.6,15.5,3.9c6.8-6.8,20.9-4.8,20.9-4.8s7.1,10.6,11,10.6
		s21.3-17.2,24.2-19.1c2.9-1.9,37.7-9.5,37.7-9.5s27.1,0,30,0c2.9,0,23.2,0,23.2,0s4.8,0,13.5,0s10.6,0,10.6,0l16.4-18.6l14.5-4
		l21.3,1l4.8,12.6h45.4h45.5l4.9-12.6l21.4-1l14.6,4.1L-94.2-93c0,0,1.9,0,10.7,0s13.6,0,13.6,0s20.4,0,23.3,0c2.9,0,30.1,0,30.1,0
		s34.9,7.5,37.9,9.5c2.9,1.9,20.4,19.2,24.3,19.2c3.9,0,11.1-10.7,11.1-10.7s14.2-2,21,4.8c6.8,6.8,15.5-3.9,15.5-3.9l3.9-7.7
		l19.4-9.7l10.7,20.3c0,0,14.6-7.7,18.4-8.7c3.9-1,13.6-6.8,13.6-6.8s15.5,14.5,20.4,19.3c4.9,4.8,6.8,10.6,9.7,12.6
		c2.9,1.9,41.6-2.8,41.6-2.8l-23.2-32c0,0,25.2-3.9,30.1-3.9s22.3-1.9,28.2,10.6s7.6,14.6,11.1,23.3c3.5,8.7,8,17.5,8,17.5h21.7
		l-5.3,23.1l-3.1,12.5c0,0,0.8,15.4,14.3,24.1c13.5,8.7,18.4,14.5,18.4,14.5L354.5,95l12.4-15.4c0,0,13.2,30.9,15.8,37.7
		c2.7,6.8,0.4,23.2,0.4,23.2l6.9,29v19.3l-22.7,84.1L354.8,261c0,0,11.2,43.8,12.2,47.6c1,3.9,28.1,26.1,28.1,26.1
		s6.8,14.5,9.7,18.4c2.9,3.9,6.8,28,0,31.9c-6.8,3.9-31.1,11.6-31.1,11.6l38.8,53.2c0,0-1.9,33.8-4.9,36.7
		c-2.9,2.9-5.8,6.8-24.3,7.7c-18.4,1-36.9,1.9-39.8,0c-2.9-1.9-45.6,5.8-45.6,5.8s-22.5,5.8-21,8.7c1.6,2.9-14.7,30.3-14.7,30.3
		l200.7-14l0.2-742.1L-197-217.1z"/>
	<path display="inline" fill="#9F5B26" d="M-197-222.9l-669.3,0.2l0.1,755.7l205.2,6c0,0-18.2-19.8-16.6-22.7
		c1.6-3-21.3-8.9-21.3-8.9s-43.3-7.9-46.3-5.9c-3,2-21.7,1-40.3,0s-21.7-4.9-24.6-7.9c-3-3-4.9-37.4-4.9-37.4l39.4-54.1
		c0,0-24.6-7.9-31.5-11.8c-6.9-3.9-3-28.5,0-32.5c3-3.9,9.8-18.7,9.8-18.7s27.6-22.6,28.6-26.6c1-3.9,23.6-52.2,23.6-52.2
		l-23.4,15.7l-22.5-85.6v-19.7l6.4-29.5c0,0-2.8-16.7-0.1-23.6c2.7-6.9,16-38.4,16-38.4l22.6,15.7l13.7-64c0,0,5-5.9,18.7-14.8
		c13.7-8.9,14.5-24.6,14.5-24.6l-3.1-12.9l-5.4-23.7h22c0,0,4.6-8.7,8.1-17.6s5.3-10.8,11.2-23.6S-642.8-97-637.9-97
		c4.9,0,30.5,4,30.5,4l-15.7,35.4c0,0,31.5,2,34.4,0s4.9-7.9,9.8-12.8c4.9-4.9,20.7-19.7,20.7-19.7s9.8,5.9,13.8,6.9
		s18.7,8.9,18.7,8.9l10.8-20.7l19.7,9.8l3.9,7.9c0,0,8.9,10.8,15.7,3.9c6.9-6.9,21.3-4.9,21.3-4.9s7.3,10.8,11.2,10.8
		s21.7-17.7,24.6-19.7c3-2,38.4-9.9,38.4-9.9s27.6,0,30.5,0s23.6,0,23.6,0s4.9,0,13.8,0c8.9,0,10.8,0,10.8,0l16.7-18.7l14.8-3.9
		l21.7,0.9l4.9,12.7h46.3h46.3l4.9-12.7l21.7-0.9l14.8,3.9L-92.3-97c0,0,2,0,10.9,0s13.8,0,13.8,0s20.8,0,23.7,0c3,0,30.6,0,30.6,0
		s35.6,7.9,38.6,9.9c3,2,20.8,19.7,24.7,19.7c4,0,11.3-10.8,11.3-10.8s14.4-2,21.4,4.9c6.9,6.9,15.8-3.9,15.8-3.9l4-7.9l19.8-9.8
		L133-74.3c0,0,14.8-7.9,18.8-8.9c4-1,13.8-6.9,13.8-6.9s15.8,14.8,20.8,19.7c4.9,4.9,6.9,10.8,9.9,12.8c3,2,34.6,0,34.6,0L215.1-93
		c0,0,25.7-3.9,30.6-3.9c4.9,0,22.7-2,28.7,10.8c5.9,12.8,7.7,14.6,11.3,23.5c3.6,8.9,8.2,17.6,8.2,17.6h22.1l-5.4,23.7l-3.1,12.9
		c0,0,0.8,15.8,14.6,24.6c13.7,8.9,18.8,14.8,18.8,14.8l13.8,64l22.7-15.7c0,0,13.4,31.5,16.1,38.4c2.7,6.9,0,23.6,0,23.6l6.7,29.5
		v19.7L377.2,276l-23.7-15.7c0,0,22.7,48.2,23.7,52.2c1,3.9,28.7,26.6,28.7,26.6s6.9,14.8,9.9,18.7c3,3.9,6.9,28.5,0,32.5
		c-6.9,3.9-31.6,11.8-31.6,11.8l39.5,54.1c0,0-2,34.4-4.9,37.4s-5.9,6.9-24.7,7.9c-18.8,1-37.6,2-40.5,0c-3-2-46.5,5.9-46.5,5.9
		s-22.9,6-21.4,9c1.6,3-16.7,22.7-16.7,22.7l206.1-6l0.2-755.7L-197-222.9z"/>
	<path display="inline" fill="#CDA34F" d="M-197-229l-680.1,0.1L-877,539h210c0,0-20-13.9-18.4-16.9S-707,513-707,513s-44-8-47-6
		s-22,1-41,0s-22-5-25-8s-5-38-5-38l40-55c0,0-25-8-32-12s-3-29,0-33s10-19,10-19s28-23,29-27c1-4,32.9-54.7,32.9-54.7L-778,278
		l-23-87v-20l6.7-30c0,0-2.7-17,0-24c2.7-7,16.3-39,16.3-39l31.9,17l5-66c0,0,5.1-6,19-15s14.7-25,14.7-25l-3.2-13l-5.4-24h22.4
		c0,0,4.6-9,8.3-18s5.4-11,11.4-24s24-11,29-11s31,4,31,4l-9.1,39.4c0,0,25.1-1.4,28.1-3.4s5-8,10-13s21-20,21-20s10,6,14,7
		s19,9,19,9l11-21l20,10l4,8c0,0,9,11,16,4s21.6-5,21.6-5s7.4,11,11.4,11s22-18,25-20s39-10,39-10s28,0,31,0s24,0,24,0s5,0,14,0
		s11,0,11,0l17-19l15-4l22,1l5,13h47h47.1l5-13l22.1-1l15.1,4l17.1,19c0,0,2,0,11,0s14.1,0,14.1,0s21.1,0,24.1,0c3,0,31.1,0,31.1,0
		s36.2,8,39.2,10c3,2,21.1,20,25.1,20c4,0,11.4-11,11.4-11s14.7-2,21.7,5s16.1-4,16.1-4l4-8l20.1-10l11,21c0,0,15.1-8,19.1-9
		c4-1,14.1-7,14.1-7s16.1,15,21.1,20c5,5,7,11,10,13c3,2,28.3,3.4,28.3,3.4L221.7-97c0,0,26.1-4,31.1-4s23.1-2,29.1,11
		s7.8,15,11.4,24c3.6,9,8.3,18,8.3,18h22.5l-5.5,24l-3.2,13c0,0,0.8,16,14.8,25c14,9,19.1,15,19.1,15l5.1,66l31.9-17
		c0,0,13.6,32,16.4,39c2.7,7,0.2,24,0.2,24l7,30v20l-23.4,87l-33.2-17.7c0,0,32,50.7,33,54.7s29.1,27,29.1,27s7,15,10,19
		c3,4,7,29,0,33s-32.1,12-32.1,12l40.2,55c0,0-2,35-5,38s-6,7-25.1,8c-19.1,1-38.2,2-41.2,0c-3-2-47.2,6-47.2,6s-23.3,6.1-21.7,9.1
		c1.6,3-18.5,16.9-18.5,16.9h210.9l0.2-767.9L-197-229z"/>
	<g display="inline">
		<g>
			<g>
				<g>
					<path fill="#9F5B26" d="M-813.5,316.4c-13.3,0-24.2-10.8-24.2-24.2c0-12.5,10.2-36.6,24.2-36.6s24.2,24.1,24.2,36.6
						C-789.3,305.6-800.2,316.4-813.5,316.4z M-813.5,260.6c-9.7,0-19.2,20-19.2,31.6c0,10.6,8.6,19.2,19.2,19.2s19.2-8.6,19.2-19.2
						C-794.3,280.6-803.8,260.6-813.5,260.6z"/>
				</g>
				<g>
					<polygon fill="#9F5B26" points="-812,327 -817,327 -817,314.2 -817.1,275.7 -812.1,275.7 -812,314.2 					"/>
				</g>
				<g>
					<polygon fill="#9F5B26" points="-813.4,299.3 -828.4,284.2 -824.9,280.7 -813.4,292.2 -800.9,279.7 -797.3,283.3 					"/>
				</g>
			</g>
			<g>
				<g>
					<path fill="#5E3112" d="M-811.5,312.4c-13.3,0-24.2-10.8-24.2-24.2c0-12.5,10.2-36.6,24.2-36.6s24.2,24.1,24.2,36.6
						C-787.3,301.6-798.2,312.4-811.5,312.4z M-811.5,256.6c-9.7,0-19.2,20-19.2,31.6c0,10.6,8.6,19.2,19.2,19.2s19.2-8.6,19.2-19.2
						C-792.3,276.6-801.8,256.6-811.5,256.6z"/>
				</g>
				<g>
					<polygon fill="#5E3112" points="-809,323 -814,323 -814,310.2 -814.1,271.7 -809.1,271.7 -809,310.2 					"/>
				</g>
				<g>
					<polygon fill="#5E3112" points="-811.4,295.3 -826.4,280.2 -822.9,276.7 -811.4,288.2 -798.9,275.7 -795.3,279.3 					"/>
				</g>
			</g>
		</g>
		<g>
			<g>
				<g>
					<path fill="#9F5B26" d="M435.5,110.4c-13.3,0-24.2-10.8-24.2-24.2c0-12.5,10.2-36.6,24.2-36.6s24.2,24.1,24.2,36.6
						C459.7,99.6,448.8,110.4,435.5,110.4z M435.5,54.6c-9.7,0-19.2,20-19.2,31.6c0,10.6,8.6,19.2,19.2,19.2s19.2-8.6,19.2-19.2
						C454.7,74.6,445.2,54.6,435.5,54.6z"/>
				</g>
				<g>
					<polygon fill="#9F5B26" points="437,121 432,121 432,108.2 431.9,69.7 436.9,69.7 437,108.2 					"/>
				</g>
				<g>
					<polygon fill="#9F5B26" points="435.6,93.3 420.6,78.2 424.1,74.7 435.6,86.2 448.1,73.7 451.7,77.3 					"/>
				</g>
			</g>
			<g>
				<g>
					<path fill="#5E3112" d="M437.5,106.4c-13.3,0-24.2-10.8-24.2-24.2c0-12.5,10.2-36.6,24.2-36.6s24.2,24.1,24.2,36.6
						C461.7,95.6,450.8,106.4,437.5,106.4z M437.5,50.6c-9.7,0-19.2,20-19.2,31.6c0,10.6,8.6,19.2,19.2,19.2s19.2-8.6,19.2-19.2
						C456.7,70.6,447.2,50.6,437.5,50.6z"/>
				</g>
				<g>
					<polygon fill="#5E3112" points="440,117 435,117 435,104.2 434.9,65.7 439.9,65.7 440,104.2 					"/>
				</g>
				<g>
					<polygon fill="#5E3112" points="437.6,89.3 422.6,74.2 426.1,70.7 437.6,82.2 450.1,69.7 453.7,73.3 					"/>
				</g>
			</g>
		</g>
		<g>
			<g>
				<g>
					<path fill="#9F5B26" d="M393.5,45.4c-13.3,0-24.2-10.8-24.2-24.2c0-14.1,10.9-26,23.9-26c13,0,24.5,12.1,24.5,26
						C417.7,34.6,406.8,45.4,393.5,45.4z M393.2,0.3c-10,0-18.9,9.8-18.9,21c0,10.6,8.6,19.2,19.2,19.2s19.2-8.6,19.2-19.2
						C412.7,10.3,403.4,0.3,393.2,0.3z"/>
				</g>
				<g>
					<polygon fill="#9F5B26" points="395,62 390,62 390,49.2 389.9,10.7 394.9,10.7 395,49.2 					"/>
				</g>
				<g>
					<polygon fill="#9F5B26" points="393.6,34.3 378.6,19.2 382.1,15.7 393.6,27.2 406.1,14.7 409.7,18.3 					"/>
				</g>
			</g>
			<g>
				<g>
					<path fill="#5E3112" d="M395.5,41.4c-13.3,0-24.2-10.8-24.2-24.2c0-14.1,10.9-26,23.9-26c13,0,24.5,12.1,24.5,26
						C419.7,30.6,408.8,41.4,395.5,41.4z M395.2-3.7c-10,0-18.9,9.8-18.9,21c0,10.6,8.6,19.2,19.2,19.2s19.2-8.6,19.2-19.2
						C414.7,6.3,405.4-3.7,395.2-3.7z"/>
				</g>
				<g>
					<polygon fill="#5E3112" points="398,58 393,58 393,45.2 392.9,6.7 397.9,6.7 398,45.2 					"/>
				</g>
				<g>
					<polygon fill="#5E3112" points="395.6,30.3 380.6,15.2 384.1,11.7 395.6,23.2 408.1,10.7 411.7,14.3 					"/>
				</g>
			</g>
		</g>
		<g>
			<g>
				<g>
					<path fill="#9F5B26" d="M-838.5-36.6c-13.3,0-24.2-10.8-24.2-24.2c0-14.1,10.9-26,23.9-26c13,0,24.5,12.1,24.5,26
						C-814.3-47.4-825.2-36.6-838.5-36.6z M-838.8-81.7c-10,0-18.9,9.8-18.9,21c0,10.6,8.6,19.2,19.2,19.2s19.2-8.6,19.2-19.2
						C-819.3-71.7-828.6-81.7-838.8-81.7z"/>
				</g>
				<g>
					<polygon fill="#9F5B26" points="-837,-20 -842,-20 -842,-32.8 -842.1,-71.3 -837.1,-71.3 -837,-32.8 					"/>
				</g>
				<g>
					<polygon fill="#9F5B26" points="-838.4,-47.7 -853.4,-62.8 -849.9,-66.3 -838.4,-54.8 -825.9,-67.3 -822.3,-63.7 					"/>
				</g>
			</g>
			<g>
				<g>
					<path fill="#5E3112" d="M-836.5-40.6c-13.3,0-24.2-10.8-24.2-24.2c0-14.1,10.9-26,23.9-26c13,0,24.5,12.1,24.5,26
						C-812.3-51.4-823.2-40.6-836.5-40.6z M-836.8-85.7c-10,0-18.9,9.8-18.9,21c0,10.6,8.6,19.2,19.2,19.2s19.2-8.6,19.2-19.2
						C-817.3-75.7-826.6-85.7-836.8-85.7z"/>
				</g>
				<g>
					<polygon fill="#5E3112" points="-834,-24 -839,-24 -839,-36.8 -839.1,-75.3 -834.1,-75.3 -834,-36.8 					"/>
				</g>
				<g>
					<polygon fill="#5E3112" points="-836.4,-51.7 -851.4,-66.8 -847.9,-70.3 -836.4,-58.8 -823.9,-71.3 -820.3,-67.7 					"/>
				</g>
			</g>
		</g>
	</g>
	<g display="inline">
		<g>
			
				<rect x="-205.5" y="267.8" transform="matrix(0.7071 -0.7071 0.7071 0.7071 -301.5228 -37.1047)" fill="#324A5E" width="19.8" height="155.3"/>
			
				<rect x="-204.4" y="271" transform="matrix(0.7071 -0.7071 0.7071 0.7071 -304.659 -38.4488)" fill="#4B6475" width="11.3" height="155.1"/>
			<path fill="#324A5E" d="M-148.9,390c-25.2,25.2-66.1,25.2-91.3,0s-25.2-66.1,0-91.3s66.1-25.2,91.3,0S-123.7,364.8-148.9,390z
				 M-229.6,309.2c-19.4,19.4-19.4,50.9,0,70.3c19.4,19.4,50.9,19.4,70.3,0c19.4-19.4,19.4-50.9,0-70.3
				C-178.7,289.9-210.3,289.9-229.6,309.2z"/>
			<path fill="#4B6475" d="M-159.6,379.7c-19.4,19.2-50.7,19.1-70-0.2c-19.3-19.3-19.4-50.7-0.2-70l-10.5-10.5
				c-25,25.2-24.9,66,0.2,91.1s65.9,25.2,91.1,0.2L-159.6,379.7z"/>
		</g>
		<path fill="#FFFFFF" d="M-229.6,309.2c-19.4,19.4-19.4,50.9,0,70.3c19.4,19.4,50.9,19.4,70.3,0c19.4-19.4,19.4-50.9,0-70.3
			C-178.7,289.9-210.3,289.9-229.6,309.2z"/>
		<path fill="#F2F2F2" d="M-159.4,309.2c-0.2-0.2-0.3-0.3-0.5-0.5l-3,4l-67.2,66.3c0.1,0.1,0.3,0.3,0.4,0.4
			c19.4,19.4,50.9,19.4,70.3,0C-140,360.1-140,328.6-159.4,309.2z"/>
		<g>
			<polygon fill="#991919" points="-191.9,341.1 -222,317.3 -197.7,347 			"/>
			<polygon fill="#1A5499" points="-197.4,347.3 -168,371.3 -191.5,341.5 			"/>
		</g>
		<g>
			<circle fill="#CC8F23" cx="-194.5" cy="344.4" r="8.7"/>
			<circle fill="#5E3112" cx="-194.5" cy="344.4" r="5.5"/>
		</g>
	</g>
</g>
<g id="Layer_10" display="none">
	<rect x="-876.3" y="-615.7" display="inline" fill="#E5E5E5" width="1365.3" height="1540.9"/>
	<g display="inline">
		<path fill="#5E3112" d="M-877.3-503.9l14.7-11.9h22.4l-5.9,12l21,17.8l18-7.5l21-7.3l23.9,15h23v-30l25,15c0,0,13.6,6.2,19.6,0
			s16-15,16-15s41-4.3,45.5,0c4.5,4.3,0,30,0,30s9,7.3,24,8.8c15,1.5,23.3-1.5,25.9,0c2.6,1.5,13.1-22.3,20.6-20.2s27-3.7,37.5,0
			c10.5,3.7-16.8,7.3-16.8,7.3s-5.7,4.7,12.3,13.3s60.3,0,60.3,0l-16.9,19.1v14.7v13.8l11,13.2l22-11.7c0,0,16.6,15,21.1,15
			s22.5-7.5,22.5-7.5l10.4,14.2c0,0,16,6.5,22,2c6-4.5,27,3.3,27,3.3s22.3-8.9,24.2-8.9c1.9,0,10.9,0,19.9,3c9,3,31.3,5.9,31.3,5.9
			s4.7-11.8,10.7-11.8s3.8,4.6,16.9,4.6c13.1,0,33,0,33,0l28.1-4.7l41.9-10.5c0,0,25.3-10.5,26.9-10.5s33.1,4.5,37.6,4.5
			c4.5,0,27.3-1.5,38.4,0c11.1,1.5,33.6,3,41.1,6s27.7,6,35.6,6s51.9-23.9,57.6-23.9s2.7-7.6,7.2-7.6c4.5,0-4.8,15.7-4.8,15.7
			s4.8,0.3,14.3-1c8.5-1.2,11.1-12.3,11.1-12.3s1.9-2.3-3.4-4.7c-11.8-5.2-9.8-28.3-9.8-27.7s65.1,7.7,65.1,7.7l14.6-15.2
			c0,0,13.5-10.5,22.5-10.5c9,0,19.7,7.5,29.3,7.5c9.7,0,28.6,3,28.6,3s-8.1-7.4,0-10.4c8.1-3,14.1-7.4,14.1-7.4h13.9l16-4.7v-9.3
			l37.6,9h21.4l13.1-9h34.9l5.6,22.8c0,0,7.5,4.6,16.5,4.6c9,0,30-7.4,30-7.4h17.9l1.1-107H-875.2L-877.3-503.9z"/>
		<path fill="#9F5B26" d="M-877.3-508.7l14.7-11.9h22.4l-5.9,12l21,17.8l18-7.5l21-7.3l23.9,15h23v-30l25,15c0,0,13.6,6.2,19.6,0
			s16-15,16-15s41-4.3,45.5,0c4.5,4.3,0,30,0,30s9,7.3,24,8.8c15,1.5,23.3-1.5,25.9,0c2.6,1.5,13.1-22.3,20.6-20.2s27-3.7,37.5,0
			c10.5,3.7-16.8,7.3-16.8,7.3s-5.7,4.7,12.3,13.3s60.3,0,60.3,0l-16.9,19.1v14.7v13.8l11,13.2l22-11.7c0,0,16.6,15,21.1,15
			s22.5-7.5,22.5-7.5l10.4,14.2c0,0,16,6.5,22,2c6-4.5,27,3.3,27,3.3s22.3-8.9,24.2-8.9c1.9,0,10.9,0,19.9,3c9,3,31.3,5.9,31.3,5.9
			s4.7-11.8,10.7-11.8s3.8,4.6,16.9,4.6c13.1,0,33,0,33,0l28.1-4.7l41.9-10.5c0,0,25.3-10.5,26.9-10.5s33.1,4.5,37.6,4.5
			c4.5,0,27.3-1.5,38.4,0c11.1,1.5,33.6,3,41.1,6s27.7,6,35.6,6s51.9-23.9,57.6-23.9s2.7-7.6,7.2-7.6c4.5,0-4.8,15.7-4.8,15.7
			s4.8,0.3,14.3-1c8.5-1.2,11.1-12.3,11.1-12.3s1.9-2.3-3.4-4.7c-11.8-5.2-9.8-28.3-9.8-27.7s65.1,7.7,65.1,7.7l14.6-15.2
			c0,0,13.5-10.5,22.5-10.5c9,0,19.7,7.5,29.3,7.5c9.7,0,28.6,3,28.6,3s-8.1-7.4,0-10.4c8.1-3,14.1-7.4,14.1-7.4h13.9l16-4.7v-9.3
			l37.6,9h21.4l13.1-9h34.9l5.6,22.8c0,0,7.5,4.6,16.5,4.6c9,0,30-7.4,30-7.4h17.9l1.1-107H-875.2L-877.3-508.7z"/>
		<path fill="#CDA34F" d="M-877.3-514.7l14.7-11.9h22.4l-5.9,12l21,17.8l18-7.5l21-7.3l23.9,15h23v-30l25,15c0,0,13.6,6.2,19.6,0
			s16-15,16-15s41-4.3,45.5,0c4.5,4.3,0,30,0,30s9,7.3,24,8.8c15,1.5,23.3-1.5,25.9,0c2.6,1.5,13.1-22.3,20.6-20.2s27-3.7,37.5,0
			c10.5,3.7-16.8,7.3-16.8,7.3s-5.7,4.7,12.3,13.3s60.3,0,60.3,0l-16.9,19.1v14.7v13.8l11,13.2l22-11.7c0,0,16.6,15,21.1,15
			s22.5-7.5,22.5-7.5l10.4,14.2c0,0,16,6.5,22,2c6-4.5,27,3.3,27,3.3s22.3-8.9,24.2-8.9c1.9,0,10.9,0,19.9,3c9,3,31.3,5.9,31.3,5.9
			s4.7-11.8,10.7-11.8s3.8,4.6,16.9,4.6c13.1,0,33,0,33,0l28.1-4.7l41.9-10.5c0,0,25.3-10.5,26.9-10.5s33.1,4.5,37.6,4.5
			c4.5,0,27.3-1.5,38.4,0c11.1,1.5,33.6,3,41.1,6s27.7,6,35.6,6s51.9-23.9,57.6-23.9s2.7-7.6,7.2-7.6c4.5,0-4.8,15.7-4.8,15.7
			s4.8,0.3,14.3-1c8.5-1.2,11.1-12.3,11.1-12.3s1.9-2.3-3.4-4.7c-11.8-5.2-9.8-28.3-9.8-27.7s65.1,7.7,65.1,7.7l14.6-15.2
			c0,0,13.5-10.5,22.5-10.5c9,0,19.7,7.5,29.3,7.5c9.7,0,28.6,3,28.6,3s-8.1-7.4,0-10.4c8.1-3,14.1-7.4,14.1-7.4h13.9l16-4.7v-9.3
			l37.6,9h21.4l13.1-9h34.9l5.6,22.8c0,0,7.5,4.6,16.5,4.6c9,0,30-7.4,30-7.4h17.9l1.1-107H-875.2L-877.3-514.7z"/>
	</g>
</g>
<g id="Layer_11" display="none">
	<g display="inline">
		<path fill="#603813" d="M181.7,314.3h-20v-10h20V314.3z M141.7,314.3h-20v-10h20V314.3z M101.7,314.3h-20v-10h20V314.3z
			 M61.7,314.3h-20v-10h20V314.3z M21.7,314.3h-20v-10h20V314.3z M-18.3,314.3h-20v-10h20V314.3z M-58.3,314.3h-20v-10h20V314.3z
			 M-98.3,314.3h-20v-10h20V314.3z M-138.3,314.3h-20v-10h20V314.3z M-178.3,314.3h-20v-10h20V314.3z M-219.2,313.7
			c-7.7-1.5-14.7-5.6-19.8-11.7l7.7-6.4c3.6,4.3,8.5,7.2,14,8.2L-219.2,313.7z M197,310.7l-4.5-8.9c5-2.5,9-6.7,11.2-11.7l9.1,4.1
			C209.7,301.3,204,307.2,197,310.7z M-246.9,280.5l0-0.3v-19.8h10l0,19.9L-246.9,280.5z M215.8,272.5h-10v-20h10V272.5z
			 M-236.9,240.5h-10v-20h10V240.5z M215.8,232.5h-10v-20h10V232.5z M-236.9,200.5h-10v-20h10V200.5z M215.8,192.5h-10v-20h10V192.5
			z M-236.9,160.5h-10v-20h10V160.5z M215.8,152.5h-10v-20h10V152.5z M-236.9,120.5h-10v-20h10V120.5z M215.8,112.5h-10v-20h10
			V112.5z M-236.9,80.5h-10v-20h10V80.5z M215.8,72.5h-10v-20h10V72.5z M-236.9,40.5h-10v-20h10V40.5z M215.8,32.5h-10v-20h10V32.5z
			 M-236.9,0.5h-10v-20h10V0.5z M215.8-7.5h-10v-20h10V-7.5z M-236.9-39.5h-10v-20h10V-39.5z M215.8-47.5h-10v-20h10V-47.5z
			 M-236.9-79.5h-10v-20h10V-79.5z M215.8-87.5h-10v-20h10V-87.5z M-236.9-119.5h-10v-20h10V-119.5z M215.8-127.5h-10v-20h10V-127.5
			z M-235.8-157.9l-9.5-3c2.4-7.5,7.3-14,14-18.2l5.4,8.4C-230.6-167.7-234.1-163.1-235.8-157.9z M201.8-163.8
			c-3.1-4.6-7.7-8.1-13-9.8l3-9.6c7.5,2.3,14,7.2,18.4,13.8L201.8-163.8z M170.5-174.6h-20v-10h20V-174.6z M130.5-174.6h-20v-10h20
			V-174.6z M90.5-174.6h-20v-10h20V-174.6z M50.5-174.6h-20v-10h20V-174.6z M10.5-174.6h-20v-10h20V-174.6z M-29.5-174.6h-20v-10h20
			V-174.6z M-69.5-174.6h-20v-10h20V-174.6z M-109.5-174.6h-20v-10h20V-174.6z M-149.5-174.6h-20v-10h20V-174.6z M-189.5-174.6h-20
			v-10h20V-174.6z"/>
	</g>
</g>
<g id="Layer_12">
	<g>
		<g>
			<path fill="#603813" d="M52.6,66.1H32.9V51.9h19.7V32.5h14.2v19.4h19.7v14.2H66.9v19.1H52.6V66.1z"/>
		</g>
	</g>
	<g>
		<path fill="#603813" d="M92.6,108.3H75.8v-10h16.8L92.6,108.3z M59,108.3H42.2v-10H59V108.3z M24.8,108.2
			c-8.3-1.1-14.5-8.2-14.5-16.5l10,0c0,3.3,2.5,6.2,5.8,6.6L24.8,108.2z M109,93.8l-9.9-1.3c0-0.3,0.1-0.6,0.1-0.9V76.4h10v15.3
			C109.2,92.4,109.1,93.1,109,93.8z M20.3,74.9h-10V58.1h10V74.9z M109.2,59.6h-10V42.8h10V59.6z M20.3,41.3h-10V26.1
			c0-0.7,0-1.4,0.1-2.1l9.9,1.3c0,0.3-0.1,0.6-0.1,0.9V41.3z M99.2,26.1c0-3.3-2.5-6.2-5.8-6.6l1.3-9.9c8.3,1.1,14.5,8.1,14.5,16.5
			L99.2,26.1z M77.3,19.4H60.5v-10h16.8V19.4z M43.7,19.4H27l0-10h16.8V19.4z"/>
	</g>
</g>
</svg>
