<?xml version="1.0" encoding="utf-8"?>
<!-- Generator: Adobe Illustrator 18.0.0, SVG Export Plug-In . SVG Version: 6.00 Build 0)  -->
<!DOCTYPE svg PUBLIC "-//W3C//DTD SVG 1.1//EN" "http://www.w3.org/Graphics/SVG/1.1/DTD/svg11.dtd">
<svg version="1.1" xmlns="http://www.w3.org/2000/svg" xmlns:xlink="http://www.w3.org/1999/xlink" x="0px" y="0px"
	 viewBox="0 0 139.3 137.9" enable-background="new 0 0 139.3 137.9" xml:space="preserve">
<g id="Layer_1" display="none">
	<rect x="-613.3" y="-499.9" display="inline" fill="#E5E5E5" width="1365.3" height="767.8"/>
	<path display="inline" fill="#5E3112" d="M66.9-488.1l-657.4,0.1l0.1,742.1l203.5,13.9c0,0-19.9-27.3-18.3-30.2
		c1.6-2.9-20.9-8.7-20.9-8.7s-42.5-7.7-45.4-5.8c-2.9,1.9-21.3,1-39.6,0c-18.4-1-21.3-4.8-24.2-7.7c-2.9-2.9-4.8-36.7-4.8-36.7
		l38.7-53.2c0,0-24.2-7.7-30.9-11.6s-2.9-28,0-31.9c2.9-3.9,9.7-18.4,9.7-18.4s27.1-22.2,28.1-26.1c1-3.9,13.3-48.3,13.3-48.3
		l-13.6,12.6l-22.5-84.1v-19.3l6.7-29c0,0-2.5-16.4,0.1-23.2c2.6-6.8,15.8-37.7,15.8-37.7l12.4,15.4l23.3-62.7
		c0,0,4.9-5.8,18.3-14.5c13.4-8.7,14.2-24.2,14.2-24.2l-3.1-12.5l-5.3-23.1h21.6c0,0,4.5-8.8,8-17.5s5.2-10.7,11-23.2
		c5.8-12.6,23.2-10.7,28-10.7s30,3.9,30,3.9l-23.1,32c0,0,38.6,4.7,41.5,2.8c2.9-1.9,4.8-7.7,9.7-12.6c4.8-4.8,20.3-19.3,20.3-19.3
		s9.7,5.8,13.5,6.8c3.9,1,18.4,8.7,18.4,8.7l10.6-20.3l19.3,9.7l3.9,7.7c0,0,8.7,10.6,15.5,3.9c6.8-6.8,20.9-4.8,20.9-4.8
		s7.1,10.6,11,10.6s21.3-17.2,24.2-19.1c2.9-1.9,37.7-9.5,37.7-9.5s27.1,0,30,0c2.9,0,23.2,0,23.2,0s4.8,0,13.5,0s10.6,0,10.6,0
		l16.4-18.6l14.5-4l21.3,1l4.8,12.6h45.4h45.5l4.9-12.6l21.4-1l14.6,4.1l16.5,18.6c0,0,1.9,0,10.7,0c8.7,0,13.6,0,13.6,0
		s20.4,0,23.3,0c2.9,0,30.1,0,30.1,0s34.9,7.5,37.9,9.5c2.9,1.9,20.4,19.2,24.3,19.2c3.9,0,11.1-10.7,11.1-10.7s14.2-2,21,4.8
		c6.8,6.8,15.5-3.9,15.5-3.9l3.9-7.7l19.4-9.7l10.7,20.3c0,0,14.6-7.7,18.4-8.7c3.9-1,13.6-6.8,13.6-6.8s15.5,14.5,20.4,19.3
		c4.9,4.8,6.8,10.6,9.7,12.6c2.9,1.9,41.6-2.8,41.6-2.8l-23.2-32c0,0,25.2-3.9,30.1-3.9c4.9,0,22.3-1.9,28.2,10.6
		c5.8,12.6,7.6,14.6,11.1,23.3c3.5,8.7,8,17.5,8,17.5h21.7l-5.3,23.1l-3.1,12.5c0,0,0.8,15.4,14.3,24.1
		c13.5,8.7,18.4,14.5,18.4,14.5l23.4,62.7l12.4-15.4c0,0,13.2,30.9,15.8,37.7c2.7,6.8,0.3,23.2,0.3,23.2l6.8,29v19.3L631,1.9
		L618.6-10c0,0,11.2,43.8,12.2,47.6c1,3.9,28.1,26.1,28.1,26.1s6.8,14.5,9.7,18.4c2.9,3.9,6.8,28,0,31.9
		c-6.8,3.9-31.1,11.6-31.1,11.6l38.8,53.2c0,0-1.9,33.8-4.9,36.7c-2.9,2.9-5.8,6.8-24.3,7.7c-18.4,1-36.9,1.9-39.8,0
		c-2.9-1.9-45.6,5.8-45.6,5.8s-22.5,5.8-21,8.7c1.6,2.9-14.7,30.3-14.7,30.3l200.7-14l0.2-742.1L66.9-488.1z"/>
	<path display="inline" fill="#9F5B26" d="M66.8-493.9l-669.3,0.2l0.1,755.7l205.2,6c0,0-18.2-19.8-16.6-22.7
		c1.6-3-21.3-8.9-21.3-8.9s-43.3-7.9-46.3-5.9s-21.7,1-40.3,0c-18.7-1-21.7-4.9-24.6-7.9c-3-3-4.9-37.4-4.9-37.4l39.4-54.1
		c0,0-24.6-7.9-31.5-11.8s-3-28.5,0-32.5s9.8-18.7,9.8-18.7s27.6-22.6,28.6-26.6c1-3.9,23.6-52.2,23.6-52.2L-504.8,5l-22.5-85.6
		v-19.7l6.5-29.5c0,0-2.8-16.7-0.1-23.6c2.7-6.9,16-38.4,16-38.4l22.6,15.7l13.7-64c0,0,5-5.9,18.7-14.8s14.5-24.6,14.5-24.6
		l-3.1-12.9l-5.4-23.7h22c0,0,4.6-8.7,8.1-17.6c3.5-8.9,5.3-10.8,11.2-23.6C-396.7-370-379-368-374-368c4.9,0,30.5,4,30.5,4
		l-15.7,35.4c0,0,31.5,2,34.4,0c3-2,4.9-7.9,9.8-12.8s20.7-19.7,20.7-19.7s9.8,5.9,13.8,6.9s18.7,8.9,18.7,8.9L-251-366l19.7,9.8
		l3.9,7.9c0,0,8.9,10.8,15.7,3.9c6.9-6.9,21.3-4.9,21.3-4.9s7.3,10.8,11.2,10.8c3.9,0,21.7-17.7,24.6-19.7s38.4-9.9,38.4-9.9
		s27.6,0,30.5,0s23.6,0,23.6,0s4.9,0,13.8,0s10.8,0,10.8,0l16.7-18.7l14.8-3.9l21.7,0.9l4.9,12.7h46.3h46.3l4.9-12.7l21.7-0.9
		l14.8,3.9l16.8,18.7c0,0,2,0,10.9,0s13.8,0,13.8,0s20.8,0,23.7,0c3,0,30.6,0,30.6,0s35.6,7.9,38.6,9.9c3,2,20.8,19.7,24.7,19.7
		c4,0,11.3-10.8,11.3-10.8s14.4-2,21.4,4.9c6.9,6.9,15.8-3.9,15.8-3.9l4-7.9L386-366l10.9,20.7c0,0,14.8-7.9,18.8-8.9
		c4-1,13.8-6.9,13.8-6.9s15.8,14.8,20.8,19.7c4.9,4.9,6.9,10.8,9.9,12.8c3,2,34.6,0,34.6,0L478.9-364c0,0,25.7-3.9,30.6-3.9
		c4.9,0,22.7-2,28.7,10.8s7.7,14.6,11.3,23.5c3.6,8.9,8.2,17.6,8.2,17.6h22.1l-5.4,23.7l-3.1,12.9c0,0,0.8,15.8,14.6,24.6
		c13.7,8.9,18.8,14.8,18.8,14.8l13.8,64l22.7-15.7c0,0,13.4,31.5,16.1,38.4c2.7,6.9,0,23.6,0,23.6l6.6,29.5v19.7L640.9,5l-23.7-15.7
		c0,0,22.7,48.2,23.7,52.2S669.7,68,669.7,68s6.9,14.8,9.9,18.7c3,3.9,6.9,28.5,0,32.5c-6.9,3.9-31.6,11.8-31.6,11.8l39.5,54.1
		c0,0-2,34.4-4.9,37.4s-5.9,6.9-24.7,7.9c-18.8,1-37.6,2-40.5,0c-3-2-46.5,5.9-46.5,5.9s-22.9,6-21.4,9c1.6,3-16.7,22.7-16.7,22.7
		l206.1-6l0.2-755.7L66.8-493.9z"/>
	<path display="inline" fill="#CDA34F" d="M67.9-500l-681.2,0.1l0.1,767.9h210.3c0,0-20-13.9-18.4-16.9c1.6-3-21.6-9.1-21.6-9.1
		s-44.1-8-47.1-6c-3,2-22,1-41.1,0c-19-1-22-5-25-8s-5-38-5-38l40.1-55c0,0-25-8-32.1-12c-7-4-3-29,0-33c3-4,10-19,10-19
		s28-23,29.1-27s32.9-54.7,32.9-54.7l-33,17.7l-23.2-87v-20l6.9-30c0,0-2.7-17,0.1-24c2.7-7,16.3-39,16.3-39l31.9,17l5-66
		c0,0,5.1-6,19-15c13.9-9,14.8-25,14.8-25l-3.2-13l-5.5-24h22.4c0,0,4.7-9,8.3-18c3.6-9,5.4-11,11.4-24s24-11,29-11c5,0,31,4,31,4
		l-9.1,39.4c0,0,25.1-1.4,28.1-3.4c3-2,5-8,10-13s21-20,21-20s10,6,14,7c4,1,19,9,19,9l11-21l20,10l4,8c0,0,9,11,16,4s21.6-5,21.6-5
		s7.4,11,11.4,11c4,0,22-18,25-20c3-2,39.1-10,39.1-10s28,0,31,0s24,0,24,0s5,0,14,0s11,0,11,0l17-19l15-4l22,1l5,13h47.1H115l5-13
		l22.1-1l15.1,4l17.1,19c0,0,2,0,11.1,0s14.1,0,14.1,0s21.1,0,24.1,0c3,0,31.2,0,31.2,0s36.2,8,39.2,10c3,2,21.1,20,25.2,20
		c4,0,11.5-11,11.5-11s14.7-2,21.7,5c7,7,16.1-4,16.1-4l4-8l20.1-10l11.1,21c0,0,15.1-8,19.1-9c4-1,14.1-7,14.1-7s16.1,15,21.1,20
		c5,5,7,11,10.1,13c3,2,28.3,3.4,28.3,3.4l-9.2-39.4c0,0,26.2-4,31.2-4c5,0,23.1-2,29.2,11s7.8,15,11.5,24c3.6,9,8.3,18,8.3,18h22.5
		l-5.5,24l-3.2,13c0,0,0.8,16,14.8,25c14,9,19.1,15,19.1,15l5.1,66l32-17c0,0,13.6,32,16.4,39c2.8,7,0.1,24,0.1,24l6.9,30v20
		L652.4,7l-33.2-17.7c0,0,32,50.7,33.1,54.7c1,4,29.2,27,29.2,27s7,15,10.1,19c3,4,7,29,0,33s-32.2,12-32.2,12l40.2,55
		c0,0-2,35-5,38c-3,3-6,7-25.2,8c-19.1,1-38.2,2-41.2,0c-3-2-47.3,6-47.3,6s-23.4,6.1-21.7,9.1c1.6,3-18.5,16.9-18.5,16.9h211.3
		l0.2-767.9L67.9-500z"/>
	<g display="inline">
		<g>
			<g>
				<g>
					<path fill="#9F5B26" d="M-549.7,45.4c-13.3,0-24.2-10.8-24.2-24.2c0-12.5,10.2-36.6,24.2-36.6s24.2,24.1,24.2,36.6
						C-525.5,34.6-536.4,45.4-549.7,45.4z M-549.7-10.4c-9.7,0-19.2,20-19.2,31.6c0,10.6,8.6,19.2,19.2,19.2s19.2-8.6,19.2-19.2
						C-530.5,9.6-540-10.4-549.7-10.4z"/>
				</g>
				<g>
					<polygon fill="#9F5B26" points="-548.3,56 -553.3,56 -553.3,43.2 -553.4,4.7 -548.4,4.7 -548.3,43.2 					"/>
				</g>
				<g>
					<polygon fill="#9F5B26" points="-549.5,28.3 -564.6,13.2 -561.1,9.7 -549.5,21.2 -537.1,8.7 -533.5,12.3 					"/>
				</g>
			</g>
			<g>
				<g>
					<path fill="#5E3112" d="M-547.7,41.4c-13.3,0-24.2-10.8-24.2-24.2c0-12.5,10.2-36.6,24.2-36.6s24.2,24.1,24.2,36.6
						C-523.5,30.6-534.4,41.4-547.7,41.4z M-547.7-14.4c-9.7,0-19.2,20-19.2,31.6c0,10.6,8.6,19.2,19.2,19.2s19.2-8.6,19.2-19.2
						C-528.5,5.6-538-14.4-547.7-14.4z"/>
				</g>
				<g>
					<polygon fill="#5E3112" points="-545.3,52 -550.3,52 -550.3,39.2 -550.4,0.7 -545.4,0.7 -545.3,39.2 					"/>
				</g>
				<g>
					<polygon fill="#5E3112" points="-547.5,24.3 -562.6,9.2 -559.1,5.7 -547.5,17.2 -535.1,4.7 -531.5,8.3 					"/>
				</g>
			</g>
		</g>
		<g>
			<g>
				<g>
					<path fill="#9F5B26" d="M699.3-160.6c-13.3,0-24.2-10.8-24.2-24.2c0-12.5,10.2-36.6,24.2-36.6s24.2,24.1,24.2,36.6
						C723.5-171.4,712.6-160.6,699.3-160.6z M699.3-216.4c-9.7,0-19.2,20-19.2,31.6c0,10.6,8.6,19.2,19.2,19.2s19.2-8.6,19.2-19.2
						C718.5-196.4,709-216.4,699.3-216.4z"/>
				</g>
				<g>
					<polygon fill="#9F5B26" points="700.7,-150 695.7,-150 695.7,-162.8 695.6,-201.3 700.6,-201.3 700.7,-162.8 					"/>
				</g>
				<g>
					<polygon fill="#9F5B26" points="699.5,-177.7 684.4,-192.8 687.9,-196.3 699.5,-184.8 711.9,-197.3 715.5,-193.7 					"/>
				</g>
			</g>
			<g>
				<g>
					<path fill="#5E3112" d="M701.3-164.6c-13.3,0-24.2-10.8-24.2-24.2c0-12.5,10.2-36.6,24.2-36.6s24.2,24.1,24.2,36.6
						C725.5-175.4,714.6-164.6,701.3-164.6z M701.3-220.4c-9.7,0-19.2,20-19.2,31.6c0,10.6,8.6,19.2,19.2,19.2s19.2-8.6,19.2-19.2
						C720.5-200.4,711-220.4,701.3-220.4z"/>
				</g>
				<g>
					<polygon fill="#5E3112" points="703.7,-154 698.7,-154 698.7,-166.8 698.6,-205.3 703.6,-205.3 703.7,-166.8 					"/>
				</g>
				<g>
					<polygon fill="#5E3112" points="701.5,-181.7 686.4,-196.8 689.9,-200.3 701.5,-188.8 713.9,-201.3 717.5,-197.7 					"/>
				</g>
			</g>
		</g>
		<g>
			<g>
				<g>
					<path fill="#9F5B26" d="M657.3-225.6c-13.3,0-24.2-10.8-24.2-24.2c0-14.1,10.9-26,23.9-26c13,0,24.5,12.1,24.5,26
						C681.5-236.4,670.6-225.6,657.3-225.6z M657-270.7c-10,0-18.9,9.8-18.9,21c0,10.6,8.6,19.2,19.2,19.2s19.2-8.6,19.2-19.2
						C676.5-260.7,667.2-270.7,657-270.7z"/>
				</g>
				<g>
					<polygon fill="#9F5B26" points="658.7,-209 653.7,-209 653.7,-221.8 653.6,-260.3 658.6,-260.3 658.7,-221.8 					"/>
				</g>
				<g>
					<polygon fill="#9F5B26" points="657.5,-236.7 642.4,-251.8 645.9,-255.3 657.5,-243.8 669.9,-256.3 673.5,-252.7 					"/>
				</g>
			</g>
			<g>
				<g>
					<path fill="#5E3112" d="M659.3-229.6c-13.3,0-24.2-10.8-24.2-24.2c0-14.1,10.9-26,23.9-26c13,0,24.5,12.1,24.5,26
						C683.5-240.4,672.6-229.6,659.3-229.6z M659-274.7c-10,0-18.9,9.8-18.9,21c0,10.6,8.6,19.2,19.2,19.2s19.2-8.6,19.2-19.2
						C678.5-264.7,669.2-274.7,659-274.7z"/>
				</g>
				<g>
					<polygon fill="#5E3112" points="661.7,-213 656.7,-213 656.7,-225.8 656.6,-264.3 661.6,-264.3 661.7,-225.8 					"/>
				</g>
				<g>
					<polygon fill="#5E3112" points="659.5,-240.7 644.4,-255.8 647.9,-259.3 659.5,-247.8 671.9,-260.3 675.5,-256.7 					"/>
				</g>
			</g>
		</g>
		<g>
			<g>
				<g>
					<path fill="#9F5B26" d="M-574.7-307.6c-13.3,0-24.2-10.8-24.2-24.2c0-14.1,10.9-26,23.9-26c13,0,24.5,12.1,24.5,26
						C-550.5-318.4-561.4-307.6-574.7-307.6z M-575-352.7c-10,0-18.9,9.8-18.9,21c0,10.6,8.6,19.2,19.2,19.2s19.2-8.6,19.2-19.2
						C-555.5-342.7-564.8-352.7-575-352.7z"/>
				</g>
				<g>
					<polygon fill="#9F5B26" points="-573.3,-291 -578.3,-291 -578.3,-303.8 -578.4,-342.3 -573.4,-342.3 -573.3,-303.8 					"/>
				</g>
				<g>
					<polygon fill="#9F5B26" points="-574.5,-318.7 -589.6,-333.8 -586.1,-337.3 -574.5,-325.8 -562.1,-338.3 -558.5,-334.7 					
						"/>
				</g>
			</g>
			<g>
				<g>
					<path fill="#5E3112" d="M-572.7-311.6c-13.3,0-24.2-10.8-24.2-24.2c0-14.1,10.9-26,23.9-26c13,0,24.5,12.1,24.5,26
						C-548.5-322.4-559.4-311.6-572.7-311.6z M-573-356.7c-10,0-18.9,9.8-18.9,21c0,10.6,8.6,19.2,19.2,19.2s19.2-8.6,19.2-19.2
						C-553.5-346.7-562.8-356.7-573-356.7z"/>
				</g>
				<g>
					<polygon fill="#5E3112" points="-570.3,-295 -575.3,-295 -575.3,-307.8 -575.4,-346.3 -570.4,-346.3 -570.3,-307.8 					"/>
				</g>
				<g>
					<polygon fill="#5E3112" points="-572.5,-322.7 -587.6,-337.8 -584.1,-341.3 -572.5,-329.8 -560.1,-342.3 -556.5,-338.7 					
						"/>
				</g>
			</g>
		</g>
	</g>
	<rect x="-343.2" y="-262" display="inline" fill="#E5E5E5" width="303" height="318"/>
</g>
<g id="Layer_2">
	<g>
		<g>
			
				<rect x="58.3" y="-7.2" transform="matrix(0.7071 -0.7071 0.7071 0.7071 -29.8012 68.889)" fill="#324A5E" width="19.8" height="155.3"/>
			
				<rect x="59.4" y="-4" transform="matrix(0.7071 -0.7071 0.7071 0.7071 -32.9375 67.545)" fill="#4B6475" width="11.3" height="155.1"/>
			<path fill="#324A5E" d="M114.9,115c-25.2,25.2-66.1,25.2-91.3,0s-25.2-66.1,0-91.3s66.1-25.2,91.3,0S140.1,89.8,114.9,115z
				 M34.2,34.2c-19.4,19.4-19.4,50.9,0,70.3s50.9,19.4,70.3,0s19.4-50.9,0-70.3S53.5,14.9,34.2,34.2z"/>
			<path fill="#4B6475" d="M104.2,104.7c-19.4,19.2-50.7,19.1-70-0.2s-19.4-50.7-0.2-70L23.5,23.9c-25,25.2-24.9,66,0.2,91.1
				s65.9,25.2,91.1,0.2L104.2,104.7z"/>
		</g>
		<path fill="#FFFFFF" d="M34.2,34.2c-19.4,19.4-19.4,50.9,0,70.3s50.9,19.4,70.3,0s19.4-50.9,0-70.3S53.5,14.9,34.2,34.2z"/>
		<path fill="#F2F2F2" d="M104.4,34.2c-0.2-0.2-0.3-0.3-0.5-0.5l-3,4l-67.2,66.3c0.1,0.1,0.3,0.3,0.4,0.4
			c19.4,19.4,50.9,19.4,70.3,0C123.8,85.1,123.8,53.6,104.4,34.2z"/>
		<g>
			<polygon fill="#991919" points="72,66.1 41.8,42.3 66.1,72 			"/>
			<polygon fill="#1A5499" points="66.4,72.3 95.8,96.3 72.3,66.5 			"/>
		</g>
		<g>
			<circle fill="#CC8F23" cx="69.3" cy="69.4" r="8.7"/>
			<circle fill="#5E3112" cx="69.3" cy="69.4" r="5.5"/>
		</g>
	</g>
</g>
</svg>
