<?xml version="1.0" encoding="utf-8"?>
<!-- Generator: Adobe Illustrator 18.0.0, SVG Export Plug-In . SVG Version: 6.00 Build 0)  -->
<!DOCTYPE svg PUBLIC "-//W3C//DTD SVG 1.1//EN" "http://www.w3.org/Graphics/SVG/1.1/DTD/svg11.dtd">
<svg version="1.1" id="Layer_1" xmlns="http://www.w3.org/2000/svg" xmlns:xlink="http://www.w3.org/1999/xlink" x="0px" y="0px"
	 viewBox="0 0 300 150" enable-background="new 0 0 300 150" xml:space="preserve">
<g>
	<path fill="#5E3112" d="M3.1,27.5c0,0,10.1-1.6,18.9-0.3s18.5-3.4,18.5-3.4s-0.7-4,3.2-4s18.3-0.7,21.6,0
		c3.3,0.7,11.8,3.5,11.8,3.5v3.9l7.2,2.9c0,0,5.1-4.2,11.9-5.3c6.8-1.2,4.1-3.1,10.9-3.1c6.8,0,15.3-3.8,23.7-2.2s24.8-1,29.3,5.2
		s13,9.4,18.2,5.5c5.2-3.9,11.7-7.8,18.6-8.5c6.8-0.7,10.1-4.7,12-2c2,2.6,9.1,6.6,9.1,6.6l4.6,3.1c0,0,3.2-2.5,7.1-4
		c3.9-1.5,7.2,0.7,11.1-0.1s9.1,0.1,14.3-0.1c5.2-0.2,16.3,1.4,20.8,0c4.6-1.5,11.1,0,11.1,0l10.4,3.7l-3.3,17.3l3.1,4.2l-7.3,7.2
		v10.7c0,0,4.5,7.5,4.5,10.7c0,3.3-2.5,11.1-3.1,13s-2.5,1.3-1.9,9.1s0.7,7.8,0.7,7.8l0.7,5.9l0.7,7.2l-4.6,5.9
		c-5.9-3.9-9.1-8.5-9.1-8.5s-5.2-7.2-8.5-4.6c-3.3,2.6-8.5,7.8-8.5,7.8l-2.6,6.5h-3.9l-3.9-5.8l-6.5,1.6c0,0,1.3,8.9-6.5,9.5
		s-9-0.7-14.9,0c-5.9,0.7-6.6,1-9.8,0.2c-3.3-0.8-15.9-2.1-15.9,0.5c0,2.6-8.8,4-8.8,4l-5.2-3.8l-3.3-1.1h-7.2l-5.9-0.4l-3.3-1
		l-3.9-8.6l-16.3,4l-7.2,6h-5.5l-6.8-3c0,0-4.6,1-6.5,2.3c-2,1.3-2.6,1.8-6.5,1.8s-14.3-0.1-14.3-0.7s-12.4-0.7-12.4-0.7l-22.1-2
		l-26.7-4.6l-18.9,1.9l-4.6-2l-5.2-3.3l-4.1-18.2L12,93.9v-9.1L7.1,74.4L2.8,57.5l5.5-19.5L3.1,27.5z"/>
	<path fill="#9F5B26" d="M3.1,25.6c0,0,10.1-1.6,18.9-0.3s18.5-3.4,18.5-3.4s-0.7-4,3.2-4s18.3-0.7,21.6,0
		c3.3,0.7,11.8,3.5,11.8,3.5v3.9l7.2,2.9c0,0,5.1-4.2,11.9-5.3c6.8-1.2,4.1-3.1,10.9-3.1c6.8,0,15.3-3.8,23.7-2.2s24.8-1,29.3,5.2
		s13,9.4,18.2,5.5c5.2-3.9,11.7-7.8,18.6-8.5c6.8-0.7,10.1-4.7,12-2c2,2.6,9.1,6.6,9.1,6.6l4.6,3.1c0,0,3.2-2.5,7.1-4
		c3.9-1.5,7.2,0.7,11.1-0.1s9.1,0.1,14.3-0.1c5.2-0.2,16.3,1.4,20.8,0c4.6-1.5,11.1,0,11.1,0l10.4,3.7l-3.3,17.3l3.1,4.2l-7.3,7.2
		v10.7c0,0,4.5,7.5,4.5,10.7c0,3.3-2.5,11.1-3.1,13s-2.5,1.3-1.9,9.1s0.7,7.8,0.7,7.8l0.7,5.9l0.7,7.2l-4.6,5.9
		c-5.9-3.9-9.1-8.5-9.1-8.5s-5.2-7.2-8.5-4.6c-3.3,2.6-8.5,7.8-8.5,7.8l-2.6,6.5h-3.9l-3.9-5.8l-6.5,1.7c0,0,1.3,8.9-6.5,9.6
		s-9-0.7-14.9,0s-6.6,1-9.8,0.2c-3.3-0.8-15.9-2.1-15.9,0.5c0,2.6-8.8,4-8.8,4l-5.2-3.9l-3.3-1.1h-7.2l-5.9-0.3l-3.3-1l-3.9-8.6
		l-16.3,4L136,132h-5.5l-6.8-2.9c0,0-4.6,1-6.5,2.3c-2,1.3-2.6,1.8-6.5,1.8s-14.3-0.1-14.3-0.7s-12.4-0.7-12.4-0.7l-22.1-2
		l-26.7-4.6l-18.9,1.9l-4.6-2l-5.2-3.3l-4.1-18.2L12,92v-9.1L7.1,72.4L2.8,55.5L8.3,36L3.1,25.6z"/>
	<path fill="#F6921E" d="M3.1,22.6c0,0,10.1-1.6,18.9-0.3s18.5-3.4,18.5-3.4s-0.7-4,3.2-4s18.3-0.7,21.6,0
		c3.3,0.7,11.8,3.5,11.8,3.5v3.9l7.2,2.9c0,0,5.1-4.2,11.9-5.3c6.8-1.2,4.1-3.1,10.9-3.1c6.8,0,15.3-3.8,23.7-2.2s24.8-1,29.3,5.2
		s13,9.4,18.2,5.5c5.2-3.9,11.7-7.8,18.6-8.5c6.8-0.7,10.1-4.7,12-2c2,2.6,9.1,6.6,9.1,6.6l4.6,3.1c0,0,3.2-2.5,7.1-4
		c3.9-1.5,7.2,0.7,11.1-0.1s9.1,0.1,14.3-0.1c5.2-0.2,16.3,1.4,20.8,0c4.6-1.5,11.1,0,11.1,0l10.4,3.7l-3.3,17.3l3.1,4.2l-7.3,7.2
		v10.7c0,0,4.5,7.5,4.5,10.7s-2.5,11.1-3.1,13s-2.5,1.3-1.9,9.1s0.7,7.8,0.7,7.8l0.7,5.9l0.7,7.2l-4.6,5.9c-5.9-3.9-9.1-8.5-9.1-8.5
		s-5.2-7.2-8.5-4.6c-3.3,2.6-8.5,7.7-8.5,7.7l-2.6,6.4h-3.9l-3.9-5.8l-6.5,1.7c0,0,1.3,8.9-6.5,9.6s-9-0.7-14.9,0s-6.6,1-9.8,0.2
		s-15.9-2.1-15.9,0.5c0,2.6-8.8,4-8.8,4l-5.2-3.9l-3.3-1.2h-7.2l-5.9-0.3l-3.3-1l-3.9-8.6l-16.3,4L136,129h-5.5l-6.8-2.9
		c0,0-4.6,1-6.5,2.3c-2,1.3-2.6,1.8-6.5,1.8s-14.3-0.1-14.3-0.7s-12.4-0.7-12.4-0.7l-22.1-2l-26.7-4.6l-18.9,1.9l-4.6-2L6.5,119
		l-4.1-18.2L12,89v-9.1L7.1,69.5L2.8,52.6l5.5-19.5L3.1,22.6z"/>
</g>
</svg>
