<?xml version="1.0" encoding="utf-8"?>
<!-- Generator: Adobe Illustrator 18.0.0, SVG Export Plug-In . SVG Version: 6.00 Build 0)  -->
<!DOCTYPE svg PUBLIC "-//W3C//DTD SVG 1.1//EN" "http://www.w3.org/Graphics/SVG/1.1/DTD/svg11.dtd">
<svg version="1.1" xmlns="http://www.w3.org/2000/svg" xmlns:xlink="http://www.w3.org/1999/xlink" x="0px" y="0px"
	 viewBox="0 3 330.8 105.5" enable-background="new 0 0 330.8 105.5" xml:space="preserve">
<g id="Layer_1" display="none">
	<path display="inline" fill="#B28346" d="M14,9c0,0,10.3-1.7,19.4-0.3s18.9-3.5,18.9-3.5s-0.7-4.1,3.3-4.1s18.6-0.7,22,0
		c3.3,0.7,12,3.6,12,3.6v4l7.5,3c0,0,5.3-4.3,12.3-5.5S113.5,3,120.4,3s15.7-3.9,24.3-2.3c8.7,1.6,25.4-1.1,30,5.3
		c4.7,6.3,13.3,9.7,18.7,5.7c5.3-4,12-8,19-8.7s10.3-4.8,12.3-2.1s9.3,6.7,9.3,6.7l4.7,3.2c0,0,3.3-2.6,7.3-4.1s7.3,0.7,11.3-0.1
		c4-0.8,9.3,0.1,14.7-0.1c5.3-0.2,16.7,1.5,21.3,0c4.7-1.5,11.3,0,11.3,0l10.7,3.8L312.1,28l3,4.3l-7.7,7.3v11c0,0,4.8,7.7,4.8,11
		c0,3.3-2.4,11.3-3.1,13.3c-0.7,2-2.5,1.3-1.9,9.3c0.7,8,0.7,8,0.7,8l0.7,6l0.7,7.3l-4.7,6c-6-4-9.3-8.7-9.3-8.7s-5.3-7.3-8.7-4.7
		c-3.3,2.7-8.7,7.8-8.7,7.8l-2.7,6.5h-4l-4-5.8l-6.7,1.8c0,0,1.3,9.1-6.7,9.8c-8,0.7-9.2-0.7-15.3,0c-6.1,0.7-6.7,1-10.1,0.2
		c-3.3-0.9-16.3-2.2-16.3,0.5c0,2.6-9,4.1-9,4.1l-5.3-4.1l-3.3-1.3h-7.3l-6-0.2l-3.3-0.9l-4-8.8l-16.7,3.9l-7.3,5.9h-5.7l-7-2.8
		c0,0-4.7,1.1-6.7,2.4c-2,1.3-2.7,1.9-6.7,1.9s-14.7-0.1-14.7-0.7c0-0.7-12.7-0.7-12.7-0.7l-22.7-2L46.8,111l-19.3,2l-4.7-2
		l-5.3-3.3l-4-18.7l10-12v-9.3L18.3,57l-4.6-17.3l5.6-20L14,9z"/>
</g>
<g id="Layer_2">
	<g>
		<path fill="#5E3112" d="M25.8,15.2l-3.3,4.5c0,0-6.3,1.9-7.2-0.1c-0.8-2-0.8-2-0.8-2l-3.8-2.2L12.7,31l-2.1,1.6H7.5l-5.1-0.4
			l7,19.9l2.2,11.3L7.5,74.3v13.2l3.8,5.6l-1.5,3.7l1.7,4.2l16.6-2.2l2.9,4.2l15-4.3l5.8,4H57l8.7-2.1l30.7,2.3l-17.6-8.1l17.6,8
			c0,0,4.5,0,5.7,0c1.3,0,8.3,0,8.3,0h14.6l6.4-6.5l6.8,3l10.2-1.4l5.2,5.1c0,0,9.6-3.4,10.3-1.7c0.6,1.7,8.3-2.4,8.3-2.4l6.8,4.2
			l8.5-2.2c0,0,2.1,6.6,3.4,4.4s8.1-8.8,8.1-8.8l5.9,1.5c0,0,5.5,1,8.5-0.5c3-1.5,3-1.6,4.7-1.6c1.7,0,0.4,4,0.4,4s14.8,0,16.1,0
			s4.7,3.1,8.1,3.1c3.4,0,11-3.1,13.1-3.6c2.1-0.5,4-0.9,6.4-0.5c2.3,0.5,15.3,4.2,15.3,4.2s3.4,3.1,5.5,2.6
			c2.1-0.4,8.1-7.8,9.3-7.8c1.3,0,6.6,0,6.6,0s4.5,5.2,6.6,5.2s6.3-5.1,6.3-5.1l5-1.9v-4.6l6.3-1.2c0,0,0,2.9,2.5,0s2.6-2.9,2.6-2.9
			l-2.4-8.3v-9.5l0.2-10.3l-6-23.2l2.1-2.9l-0.4-4.4l-0.9-5.9l-3-5.4c0,0,1.3-2.2-1.7-2.2c-3,0-9.3,7.1-9.3,7.1l-4.2-2.9l-5.1-1
			l-6.4,1.5l-4.7,0.5L284,15l-14,3.7l-10.2,1c0,0,0-2-3.4-2c-3.4,0-11.9,0-11.9,0l-2.5,1.8l-16.1-0.9c0,0-8.1-3.6-9.3-3.6
			s-5.9-0.2-9.3,1.2c-3.4,1.5-5.5,2-8.1,2c-2.5,0-12.7-1-14-1s-14.8,2.9-14.8,2.9l-8.9-2.9c0,0-0.4-2.2-4.2-2.2
			c-3.8,0-14.5,1.7-14.5,1.7l-8,2.4c0,0-2.1-4.4-5.9-4.4c-3.8,0-16.4,3.9-16.4,3.9H98.4c0,0-4.7-4-5.9-4c-1.3,0-11.2,3.4-11.2,3.4
			s-2.3-3.1-3.6-3.1c-1.3,0-5.9,0.8-5.9,0.8l-3.4,1l-3-1.7c0,0-0.8,0.7-3.4,1.7c-2.5,1-3.4,1-6.8,1s-5.7,0-5.7,0s-3.6-0.1-6.6-0.1
			c-3,0-7.2,1-7.2,1s-5.3-3.9-7.6-3.6C25.8,15.2,25.8,15.2,25.8,15.2z"/>
		<path fill="#9F5B26" d="M25.8,9.8l-3.3,4.5c0,0-6.3,1.9-7.2-0.1c-0.8-2-0.8-2-0.8-2l-3.8,2.2l2.1,11.4l-2.1,1.8H7.5l-5.1,3.8
			l7,15.4l2.2,11.3L7.5,68.9v13.2l3.8,5.6l-1.5,3.7l1.7,4.2l16.6-2.2l2.9,4.2l15-4.1l5.8,4.2H57l8.7-2.3l30.7,2.2l-17.6-3.6
			l17.6,3.7c0,0,4.5,0,5.7,0c1.3,0,8.3,0,8.3,0h14.6l6.4-6.7l6.8,2.9l10.2-1.5l5.2,5.1c0,0,9.6-3.4,10.3-1.7
			c0.6,1.7,8.3-2.4,8.3-2.4l6.8,4.2l8.5-2.2c0,0,2.1,6.6,3.4,4.4s8.1-8.8,8.1-8.8l5.9,1.5c0,0,5.5,1,8.5-0.5c3-1.5,3-1.4,4.7-1.4
			c1.7,0,0.4,4.2,0.4,4.2s14.8,0,16.1,0s4.7,2.9,8.1,2.9c3.4,0,11-3.2,13.1-3.7c2.1-0.5,4-1,6.4-0.5c2.3,0.5,15.3,4.1,15.3,4.1
			s3.4,2.7,5.5,2.3c2.1-0.4,8.1-8.1,9.3-8.1c1.3,0,6.6,0,6.6,0s4.5,5.5,6.6,5.5s6.3-5,6.3-5l5-1.8v-4.6l6.3-1.2c0,0,0,2.9,2.5,0
			s2.6-2.9,2.6-2.9l-2.4-8.3v-9.5l0.2-10.3l-6-23.2l2.1-2.9l-0.4-4.4l-0.9-5.9l-3-5.4c0,0,1.3-2.2-1.7-2.2c-3,0-9.3,7.1-9.3,7.1
			l-4.2-2.9l-5.1-1l-6.4,1.5l-4.7,0.5L284,9.6l-14,3.7l-10.2,1.2c0,0,0-1.8-3.4-1.8c-3.4,0-11.9,0-11.9,0l-2.5,1.6l-16.1-1
			c0,0-8.1-3.7-9.3-3.7s-5.9-0.3-9.3,1.2c-3.4,1.5-5.5,1.9-8.1,1.9c-2.5,0-12.7-1-14-1s-14.8,2.9-14.8,2.9l-8.9-2.9
			c0,0-0.4-2.2-4.2-2.2c-3.8,0-14.5,1.7-14.5,1.7l-8,2.4c0,0-2.1-4.2-5.9-4.2c-3.8,0-16.4,4.1-16.4,4.1H98.4c0,0-4.7-4.2-5.9-4.2
			c-1.3,0-11.2,3.3-11.2,3.3s-2.3-3.2-3.6-3.2c-1.3,0-5.9,0.8-5.9,0.8l-3.4,1l-3-1.7c0,0-0.8,0.9-3.4,1.9c-2.5,1-3.4,1.2-6.8,1.2
			s-5.7,0-5.7,0s-3.6-0.3-6.6-0.3c-3,0-7.2,0.9-7.2,0.9s-5.3-3.9-7.6-3.7S25.8,9.8,25.8,9.8z"/>
		<path fill="#F6921E" d="M25.8,4.1l-3.3,4.5c0,0-6.3,1.9-7.2-0.1c-0.8-2-0.8-2-0.8-2l-3.8,5.8l2.1,7.5l-2.1,1.7H7.5l-5.1,7.6
			l7,11.9l2.2,11.3L7.5,63.2v13.2l3.8,5.6l-1.5,3.7l1.7,4.2l16.6-2.2l2.9,4.2l15-4.2l5.8,4.1H57l8.7-2.1L81.2,89l-2.3,2.6h17.6
			c0,0,4.5,0,5.7,0c1.3,0,8.3,0,8.3,0h14.6l6.4-6.5l6.8,3l10.2-1.4l5.2,5.1c0,0,9.6-3.4,10.3-1.7c0.6,1.7,8.3-2.4,8.3-2.4l6.8,4.2
			l8.5-2.2c0,0,2.1,6.6,3.4,4.4s8.1-8.8,8.1-8.8l5.9,1.5c0,0,5.5,1,8.5-0.5c3-1.5,3-1.6,4.7-1.6c1.7,0,0.4,4,0.4,4s14.8,0,16.1,0
			s4.7,3.1,8.1,3.1c3.4,0,11-3.1,13.1-3.6c2.1-0.5,4-0.9,6.4-0.5c2.3,0.5,15.3,4.2,15.3,4.2s3.4,3.1,5.5,2.6
			c2.1-0.4,8.1-7.8,9.3-7.8c1.3,0,6.6,0,6.6,0s4.5,5.2,6.6,5.2s6.3-5.1,6.3-5.1l5-1.9v-4.6l6.3-1.2c0,0,0,2.9,2.5,0s2.6-2.9,2.6-2.9
			l-2.4-8.3v-9.5l0.2-10.3l-6-23.2l2.1-2.9l-0.4-4.4l-0.9-5.9l-3-5.4c0,0,1.3-2.2-1.7-2.2c-3,0-9.3,7.1-9.3,7.1l-4.2-2.9l-5.1-1
			l-6.4,1.5L286.1,9L284,3.9l-14,3.7l-10.2,1c0,0,0-1.9-3.4-1.9c-3.4,0-11.9,0-11.9,0L242,8.4l-16.1-0.9c0,0-8.1-3.6-9.3-3.6
			s-5.9-0.2-9.3,1.2c-3.4,1.5-5.5,2-8.1,2c-2.5,0-12.7-1-14-1S170.4,9,170.4,9l-8.9-2.9c0,0-0.4-2.2-4.2-2.2
			c-3.8,0-14.5,1.7-14.5,1.7l-8,2.4c0,0-2.1-4.4-5.9-4.4c-3.8,0-16.4,4-16.4,4H98.4c0,0-4.7-4.1-5.9-4.1c-1.3,0-11.2,3.3-11.2,3.3
			s-2.3-3.1-3.6-3.1s-5.9,0.8-5.9,0.8l-3.4,1l-3-1.7c0,0-0.8,0.8-3.4,1.7c-2.5,1-3.4,1-6.8,1s-5.7,0-5.7,0s-3.6-0.2-6.6-0.2
			c-3,0-7.2,1-7.2,1s-5.3-3.9-7.6-3.6S25.8,4.1,25.8,4.1z"/>
	</g>
</g>
</svg>
