<?xml version="1.0" encoding="utf-8"?>
<!-- Generator: Adobe Illustrator 18.0.0, SVG Export Plug-In . SVG Version: 6.00 Build 0)  -->
<!DOCTYPE svg PUBLIC "-//W3C//DTD SVG 1.1//EN" "http://www.w3.org/Graphics/SVG/1.1/DTD/svg11.dtd">
<svg version="1.1" id="Layer_1" xmlns="http://www.w3.org/2000/svg" xmlns:xlink="http://www.w3.org/1999/xlink" x="0px" y="0px"
	 viewBox="0 1492.1 3513.9 1977.1" enable-background="new 0 1492.1 3513.9 1977.1" xml:space="preserve">
<g id="Layer_1_1_" display="none">
	<g display="inline">
		<path fill="#5E3112" d="M642.4,4120.6c0,0,26.5-4.4,49.9-0.8c23.4,3.3,48.6-9,48.6-9s-1.8-10.6,8.5-10.6s47.9-1.8,56.6,0
			c8.5,1.8,30.9,9.3,30.9,9.3v10.3l19.3,7.7c0,0,13.6-11.1,31.7-14.2c18-3.1,10.8-8.2,28.8-8.2c18,0,40.4-10,62.5-5.9
			c22.4,4.1,65.4-2.8,77.2,13.6c12.1,16.2,34.2,25,48.1,14.7c13.9-10.3,30.9-20.6,48.9-22.4c18-1.8,26.5-12.4,31.7-5.4
			c5.1,6.9,23.9,17.2,23.9,17.2l12.1,8.2c0,0,8.5-6.7,18.8-10.6c10.3-3.9,18.8,1.8,29.1-0.3c10.3-2.1,23.9,0.3,37.8-0.3
			c13.6-0.5,43,3.9,54.8,0c12.1-3.9,29.1,0,29.1,0l27.5,9.8l-8.5,45.6l7.7,11.1l-19.8,18.8v28.3c0,0,12.4,19.8,12.4,28.3
			s-6.2,29.1-8,34.2s-6.4,3.3-4.9,23.9s1.8,20.6,1.8,20.6l1.8,15.4l1.8,18.8l-12.1,15.4c-15.4-10.3-23.9-22.4-23.9-22.4
			s-13.6-18.8-22.4-12.1c-8.5,6.9-22.4,20.1-22.4,20.1l-6.9,16.7h-10.3l-10.3-14.9l-17.2,4.6c0,0,3.3,23.4-17.2,25.2
			c-20.6,1.8-23.7-1.8-39.4,0c-15.7,1.8-17.2,2.6-26,0.5c-8.5-2.3-42-5.7-42,1.3c0,6.7-23.2,10.6-23.2,10.6l-13.6-10.6l-8.5-3.3
			h-18.8l-15.4-0.5l-8.5-2.3l-10.3-22.6l-43,10l-18.8,15.2h-14.7l-18-7.2c0,0-12.1,2.8-17.2,6.2c-5.1,3.3-6.9,4.9-17.2,4.9
			c-10.3,0-37.8-0.3-37.8-1.8c0-1.8-32.7-1.8-32.7-1.8l-58.4-5.1l-70.3-12.1l-49.7,5.1l-12.1-5.1l-13.6-8.5l-10.3-48.1l25.7-30.9
			v-23.9l-13.4-27.5l-11.8-44.5l14.4-51.5L642.4,4120.6z"/>
		<path fill="#9F5B26" d="M642.4,4107.7c0,0,26.5-4.4,49.9-0.8c23.4,3.3,48.6-9,48.6-9s-1.8-10.6,8.5-10.6s47.9-1.8,56.6,0
			c8.5,1.8,30.9,9.3,30.9,9.3v10.3l19.3,7.7c0,0,13.6-11.1,31.7-14.2c18-3.1,10.8-8.2,28.8-8.2c18,0,40.4-10,62.5-5.9
			c22.4,4.1,65.4-2.8,77.2,13.6c12.1,16.2,34.2,25,48.1,14.7c13.9-10.3,30.9-20.6,48.9-22.4c18-1.8,26.5-12.4,31.7-5.4
			s23.9,17.2,23.9,17.2l12.1,8.2c0,0,8.5-6.7,18.8-10.6c10.3-3.9,18.8,1.8,29.1-0.3c10.3-2.1,23.9,0.3,37.8-0.3
			c13.6-0.5,43,3.9,54.8,0c12.1-3.9,29.1,0,29.1,0l27.5,9.8l-8.5,45.6l7.7,11.1l-19.8,18.8v28.3c0,0,12.4,19.8,12.4,28.3
			s-6.2,29.1-8,34.2s-6.4,3.3-4.9,23.9s1.8,20.6,1.8,20.6l1.8,15.4l1.8,18.8l-12.1,15.4c-15.4-10.3-23.9-22.4-23.9-22.4
			s-13.6-18.8-22.4-12.1c-8.5,6.9-22.4,20.1-22.4,20.1l-6.9,16.7h-10.3l-10.3-14.9l-17.2,4.6c0,0,3.3,23.4-17.2,25.2
			c-20.6,1.8-23.7-1.8-39.4,0c-15.7,1.8-17.2,2.6-26,0.5c-8.5-2.3-42-5.7-42,1.3c0,6.7-23.2,10.6-23.2,10.6l-13.6-10.6l-8.5-3.3
			h-18.8l-15.4-0.5l-8.5-2.3l-10.3-22.6l-43,10l-18.8,15.2h-14.7l-18-7.2c0,0-12.1,2.8-17.2,6.2c-5.1,3.3-6.9,4.9-17.2,4.9
			c-10.3,0-37.8-0.3-37.8-1.8c0-1.8-32.7-1.8-32.7-1.8l-58.4-5.1l-70.3-12.1l-49.7,5.1l-12.1-5.1l-13.6-8.5l-10.3-48.1l25.7-30.9
			v-23.9l-13.4-27.5l-11.8-44.5l14.4-51.5L642.4,4107.7z"/>
		<path fill="#F6921E" d="M642.4,4092.3c0,0,26.5-4.4,49.9-0.8c23.4,3.3,48.6-9,48.6-9s-1.8-10.6,8.5-10.6s47.9-1.8,56.6,0
			c8.5,1.8,30.9,9.3,30.9,9.3v10.3l19.3,7.7c0,0,13.6-11.1,31.7-14.2c18-3.1,10.8-8.2,28.8-8.2c18,0,40.4-10,62.5-5.9
			c22.4,4.1,65.4-2.8,77.2,13.6c12.1,16.2,34.2,25,48.1,14.7c13.9-10.3,30.9-20.6,48.9-22.4c18-1.8,26.5-12.4,31.7-5.4
			c5.1,6.9,23.9,17.2,23.9,17.2l12.1,8.2c0,0,8.5-6.7,18.8-10.6s18.8,1.8,29.1-0.3c10.3-2.1,23.9,0.3,37.8-0.3
			c13.6-0.5,43,3.9,54.8,0c12.1-3.9,29.1,0,29.1,0l27.5,9.8l-8.5,45.6l7.7,11.1l-19.8,18.8v28.3c0,0,12.4,19.8,12.4,28.3
			c0,8.5-6.2,29.1-8,34.2s-6.4,3.3-4.9,23.9s1.8,20.6,1.8,20.6l1.8,15.4l1.8,18.8l-12.1,15.4c-15.4-10.3-23.9-22.4-23.9-22.4
			s-13.6-18.8-22.4-12.1c-8.5,6.9-22.4,20.1-22.4,20.1l-6.9,16.7h-10.3l-10.3-14.9l-17.2,4.6c0,0,3.3,23.4-17.2,25.2
			c-20.6,1.8-23.7-1.8-39.4,0c-15.7,1.8-17.2,2.6-26,0.5c-8.5-2.3-42-5.7-42,1.3c0,6.7-23.2,10.6-23.2,10.6l-13.6-10.6l-8.5-3.3
			h-18.8l-15.4-0.5l-8.5-2.3l-10.3-22.6l-43,10l-18.8,15.2h-14.7l-18-7.2c0,0-12.1,2.8-17.2,6.2c-5.1,3.3-6.9,4.9-17.2,4.9
			c-10.3,0-37.8-0.3-37.8-1.8c0-1.8-32.7-1.8-32.7-1.8l-58.4-5.1l-70.3-12.1l-49.7,5.1l-12.1-5.1l-13.6-8.5l-10.3-48.1l25.7-30.9
			v-23.9l-13.4-27.5l-11.8-44.5l14.4-51.5L642.4,4092.3z"/>
	</g>
</g>
<g id="Layer_2" display="none">
	<g display="inline">
		<path fill="#5E3112" d="M689.5,4132.7l-8.5,11.6c0,0-16.2,4.9-18.5-0.3c-2.1-5.1-2.1-5.1-2.1-5.1l-9.8-5.7l5.4,40.7l-5.4,4.9h-8.2
			l-13.1-1.8l18,51l6.2,28.8l-9.8,27.8v34l9,14.4l-4.1,9.5l4.1,10.8l42.7-5.7l7.5,10.8l38.6-10.3l14.9,11.1h13.6l22.4-5.9l79,5.4
			l-45.3-20.6l45.3,21.1c0,0,11.6,0,14.7,0c3.3,0,21.4,0,21.4,0h37.6l16.5-17.2l17.5,7.5l26.3-3.9l13.4,13.1c0,0,24.7-8.8,26.5-4.4
			c1.5,4.4,21.4-6.2,21.4-6.2l17.5,10.6l21.9-5.7c0,0,5.4,17,8.8,11.3s20.8-22.6,20.8-22.6l15.2,3.9c0,0,14.2,2.6,21.9-1.3
			c7.7-3.9,7.7-3.6,12.1-3.6c4.4,0,1,11.1,1,11.1s38.1,0,41.4,0s12.1,7.2,20.8,7.2s28.3-8.2,33.7-9.5c5.4-1.3,10.3-2.6,16.5-1.3
			c5.9,1.3,39.4,10.6,39.4,10.6s8.8,8.5,14.2,7.2c5.4-1.3,20.8-19.6,23.9-19.6c3.1,0,17,0,17,0s11.6,12.6,17,12.6
			s16.7-13.4,16.7-13.4l13.6-5.4v-11.8l15.7-3.1c0,0-0.3,7.5,6.2,0c6.4-7.5,7.2-7.5,7.2-7.5l-5.7-21.4v-24.5l-0.3-26.5l-16-59.7
			l5.1-7.5l-1.3-11.3l-2.3-15.2l-7.7-13.9c0,0,3.3-5.7-4.4-5.7s-23.9,18.3-23.9,18.3l-10.8-7.5l-13.1-2.6l-16.5,3.9l-12.1,1.3
			l-5.4-13.1l-36,9.5l-26.3,3.1c0,0,0-4.4-8.8-4.4c-8.8,0-30.6,0-30.6,0l-6.4,4.1l-41.4-2.6c0,0-20.8-9.5-23.9-9.5
			c-3.3,0-15.2-0.8-23.9,3.1c-8.8,3.9-14.2,4.9-20.8,4.9c-6.4,0-32.7-2.6-36-2.6c-3.3,0-38.1,7.5-38.1,7.5l-22.9-7.5
			c0,0-1-5.7-10.8-5.7c-9.8,0-37.3,4.4-37.3,4.4l-20.6,6.2c0,0-5.4-10.6-15.2-10.6c-9.8,0-42.2,10.8-42.2,10.8h-36.3
			c0,0-12.1-11.1-15.2-11.1c-3.3,0-28.8,8.2-28.8,8.2s-5.9-8.2-9.3-8.2c-3.3,0-15.2,2.1-15.2,2.1l-8.8,2.6l-7.7-4.4
			c0,0-2.1,2.6-8.8,5.1c-6.4,2.6-8.8,3.1-17.5,3.1s-14.7,0-14.7,0s-9.3-1-17-1c-7.7,0-18.5,2.3-18.5,2.3s-13.6-10-19.6-9.5
			C690.3,4133,689.5,4132.7,689.5,4132.7z"/>
		<path fill="#9F5B26" d="M689.5,4118.8l-8.5,11.6c0,0-16.2,4.9-18.5-0.3c-2.1-5.1-2.1-5.1-2.1-5.1l-9.8,5.7l5.4,29.9l-5.4,5.4h-8.2
			l-13.1,9l18,39.4l6.2,28.8l-9.8,27.5v34l9,14.4l-4.1,9.5l4.1,10.8l42.7-5.7l7.5,10.8l38.6-9.8l14.9,11.6h13.6l22.4-6.4l79,5.1
			l-45.3-8.7l45.3,10c0,0,11.6,0,14.7,0c3.3,0,21.4,0,21.4,0h37.6l16.5-17.8l17.5,7.2l26.3-3.9l13.4,13.1c0,0,24.7-8.8,26.5-4.4
			c1.5,4.4,21.4-6.4,21.4-6.4l17.5,10.6l21.9-5.7c0,0,5.4,17,8.8,11.3s20.8-22.6,20.8-22.6l15.2,3.9c0,0,14.2,2.6,21.9-1.3
			c7.7-3.9,7.7-3.1,12.1-3.1s1,11.6,1,11.6s38.1,0,41.4,0c3.3,0,12.1,6.7,20.8,6.7c8.8,0,28.3-8.5,33.7-9.8
			c5.4-1.3,10.3-2.8,16.5-1.5c5.9,1.3,39.4,10.6,39.4,10.6s8.8,7.7,14.2,6.4c5.4-1.3,20.8-20.3,23.9-20.3s17,0,17,0
			s11.6,13.4,17,13.4s16.7-13.1,16.7-13.1l13.6-4.9v-11.8l15.7-3.1c0,0-0.3,7.5,6.2,0c6.4-7.5,7.2-7.5,7.2-7.5l-5.7-21.4V4258
			l-0.3-26.5l-16-59.7l5.1-7.5l-1.3-11.3l-2.3-15.2l-7.7-13.9c0,0,3.3-5.7-4.4-5.7s-23.9,18.3-23.9,18.3l-10.8-7.5l-13.1-2.6
			l-16.5,3.9l-12.1,1.3l-5.4-13.1l-36,9.5l-26.3,3.6c0,0,0-3.9-8.8-3.9c-8.8,0-30.6,0-30.6,0l-6.4,3.6l-41.4-2.8
			c0,0-20.8-9.5-23.9-9.5c-3.3,0-15.2-0.8-23.9,3.1c-8.8,3.9-14.2,4.9-20.8,4.9c-6.4,0-32.7-2.6-36-2.6s-38.1,7.5-38.1,7.5
			l-22.9-7.5c0,0-1-5.7-10.8-5.7c-9.8,0-37.8,3.9-37.8,3.9l-20.6,6.2c0,0-5.4-10-15.2-10s-42.2,11.3-42.2,11.3h-36.3
			c0,0-12.1-11.6-15.2-11.6c-3.3,0-28.8,8-28.8,8s-5.9-8.2-9.3-8.2c-3.3,0-15.2,1.8-15.2,1.8l-8.8,2.6l-7.7-4.4c0,0-2.1,3.1-8.8,5.7
			c-6.7,2.6-8.8,3.6-17.5,3.6s-14.7,0-14.7,0s-9.3-1.5-17-1.5s-18.5,2.1-18.5,2.1s-13.6-10.3-19.6-9.5
			C689.5,4119.1,689.5,4118.8,689.5,4118.8z"/>
		<path fill="#F6921E" d="M689.5,4104.4L681,4116c0,0-16.2,4.9-18.5-0.3c-2.1-5.1-2.1-5.1-2.1-5.1l-9.8,14.9l5.4,20.1l-5.4,4.9h-8.2
			l-13.1,19l18,30.1l6.2,28.8l-9.8,27.8v34l9,14.4l-4.1,9.5l4.1,10.8l42.7-5.7l7.5,10.8l38.6-10.3l14.9,11.1h13.6l22.4-6.2l39.9-1
			l-5.9,7.2h45.3c0,0,11.6,0,14.7,0c3.3,0,21.4,0,21.4,0h37.6l16.5-17.5l17.5,7.2l26.3-3.9l13.4,13.1c0,0,24.7-8.8,26.5-4.4
			c1.5,4.4,21.4-6.2,21.4-6.2l17.5,10.6l21.9-5.7c0,0,5.4,17,8.8,11.3s20.8-22.6,20.8-22.6l15.2,3.9c0,0,14.2,2.6,21.9-1.3
			c7.7-3.9,7.7-3.3,12.1-3.3s1,11.1,1,11.1s38.1,0,41.4,0c3.3,0,12.1,7.2,20.8,7.2c8.8,0,28.3-8.2,33.7-9.5
			c5.4-1.3,10.3-2.6,16.5-1.3c5.9,1.3,39.4,10.6,39.4,10.6s8.8,8.5,14.2,7.5s20.8-19.6,23.9-19.6s17,0,17,0s11.6,12.6,17,12.6
			s16.7-13.4,16.7-13.4l13.6-5.4V4300l15.7-3.1c0,0-0.3,7.5,6.2,0c6.4-7.5,7.2-7.5,7.2-7.5l-5.7-21.4v-24.5l-0.3-26.5l-16-59.7
			l5.1-7.5l-1.3-11.3l-2.3-15.2l-7.7-13.9c0,0,3.3-5.7-4.4-5.7s-23.9,18.3-23.9,18.3l-10.8-7.5l-13.1-2.6l-16.5,3.9l-12.1,1.3
			l-5.4-13.1l-36,9.5l-26.3,3.3c0,0,0-4.4-8.8-4.4c-8.8,0-30.6,0-30.6,0l-6.4,3.9l-41.4-2.8c0,0-20.8-9.5-23.9-9.5
			c-3.3,0-15.2-0.8-23.9,3.1c-8.8,3.9-14.2,4.9-20.8,4.9c-6.4,0-32.7-2.6-36-2.6s-38.1,7.5-38.1,7.5l-22.9-7.5c0,0-1-5.7-10.8-5.7
			c-9.8,0-37.3,4.4-37.3,4.4l-20.6,6.2c0,0-5.4-10.6-15.2-10.6s-42.2,10.8-42.2,10.8h-36.3c0,0-12.1-11.1-15.2-11.1
			c-3.3,0-28.8,8.2-28.8,8.2s-5.9-8.2-9.3-8.2c-3.3,0-15.2,2.1-15.2,2.1l-8.8,2.6l-7.7-4.4c0,0-2.1,2.6-8.8,5.1
			c-6.4,2.6-8.8,3.3-17.5,3.3s-14.7,0-14.7,0s-9.3-1-17-1s-18.5,2.3-18.5,2.3s-13.6-10-19.6-9.5
			C689.5,4104.4,689.5,4104.4,689.5,4104.4z"/>
	</g>
</g>
<g id="Layer_3" display="none">
	<g display="inline">
		<path fill="#5E3112" d="M1412.2,4132.5l8.5,11.6c0,0,16.2,4.9,18.5-0.3c2.1-5.1,2.1-5.1,2.1-5.1l9.8-5.7l-5.4,40.7l5.4,4.9h8.2
			l13.1-1.8l-18,51l-5.4,28.8l10.6,27.8v34l-10,14.4l3.9,9.5l-4.4,10.8l-42.7-5.7l-7.5,10.8l-38.6-10.3l-14.9,11.1h-13.6l-22.4-6.2
			l-79,5.4l45.3-20.3l-45.3,21.1c0,0-11.6,0-14.7,0c-3.3,0-21.4,0-21.4,0h-37.6l-16.5-17.5l-17.5,7.2l-26.3-3.9l-13.4,13.1
			c0,0-24.7-8.8-26.5-4.4c-1.8,4.4-21.4-6.2-21.4-6.2l-17.5,10.6l-21.9-5.7c0,0-5.4,17-8.8,11.3s-20.8-22.6-20.8-22.6l-15.2,3.9
			c0,0-14.2,2.6-21.9-1.3c-7.7-3.9-7.7-3.3-12.1-3.3s-1,11.1-1,11.1s-38.1,0-41.4,0c-3.3,0-12.1,7.2-20.8,7.2
			c-8.8,0-28.3-8.2-33.7-9.5c-5.4-1.3-10.3-2.6-16.5-1.3c-5.9,1.3-39.4,10.6-39.4,10.6s-8.8,8.5-14.2,7.5
			c-5.4-1-20.8-19.3-23.9-19.3c-3.3,0-17,0-17,0s-11.6,12.6-17,12.6c-5.4,0-16-13.4-16-13.4l-12.9-5.4v-11.8l-16.5-3.1
			c0,0,0,7.5-6.4,0s-6.4-7.5-6.4-7.5l6.2-21.4v-24.5l-0.8-26.5l15.4-59.7l-5.4-7.5l1-11.3l2.1-15.2l7.7-13.9c0,0-3.3-5.7,4.4-5.7
			c7.7,0,23.9,18.3,23.9,18.3l10.8-7.5l13.1-2.6l16.5,3.9l12.1,1.3l5.4-13.1l36,9.5l26.3,3.3c0,0,0-4.4,8.8-4.4s30.6,0,30.6,0
			l6.4,3.9l41.4-2.8c0,0,20.8-9.5,23.9-9.5s15.2-0.8,23.9,3.1c8.8,3.9,14.2,4.9,20.8,4.9c6.7,0,32.7-2.6,36-2.6s38.1,7.5,38.1,7.5
			l22.9-7.5c0,0,1-5.7,10.8-5.7c9.8,0,37.3,4.4,37.3,4.4l20.6,6.2c0,0,5.4-10.6,15.2-10.6s42.2,10.8,42.2,10.8h36.3
			c0,0,12.1-11.1,15.2-11.1c3.3,0,28.8,8.2,28.8,8.2s5.9-8.2,9.3-8.2c3.3,0,15.2,2.1,15.2,2.1l8.8,2.6l7.7-4.4c0,0,2.1,2.6,8.8,5.1
			c6.4,2.6,8.8,3.3,17.5,3.3s14.7,0,14.7,0s9.3-1,17-1s18.5,2.3,18.5,2.3s13.6-10.3,19.6-9.5
			C1412.2,4132.7,1412.2,4132.5,1412.2,4132.5z"/>
		<path fill="#9F5B26" d="M1412.2,4118.6l8.5,11.6c0,0,16.2,4.9,18.5-0.3c2.1-5.1,2.1-5.1,2.1-5.1l9.8,5.7l-5.4,29.9l5.4,5.4h8.2
			l13.1,9l-18,39.4l-5.4,28.8l10.6,27.5v34l-10,14.4l3.9,9.5l-4.4,10.8l-42.7-5.7l-7.5,10.8l-38.6-9.8l-14.9,11.6h-13.6l-22.4-6.7
			l-79,5.1l45.3-8.8l-45.3,10c0,0-11.6,0-14.7,0c-3.3,0-21.4,0-21.4,0h-37.6l-16.5-18l-17.5,6.9l-26.3-4.1l-13.4,13.1
			c0,0-24.7-8.8-26.5-4.4c-1.5,4.4-21.4-6.4-21.4-6.4l-17.5,10.6l-21.9-5.7c0,0-5.4,17-8.8,11.3s-20.8-22.6-20.8-22.6l-15.2,3.9
			c0,0-14.2,2.6-21.9-1.3c-7.7-3.9-7.7-2.8-12.1-2.8s-1,11.6-1,11.6s-38.1,0-41.4,0c-3.3,0-12.1,6.7-20.8,6.7
			c-8.8,0-28.3-8.5-33.7-9.8c-5.4-1.3-10.3-2.8-16.5-1.5c-6.2,1.3-39.4,10.6-39.4,10.6s-8.8,7.7-14.2,6.7
			c-5.4-1-20.8-20.3-23.9-20.3c-3.3,0-17,0-17,0s-11.6,13.4-17,13.4c-5.4,0-16-13.1-16-13.1l-12.9-4.9v-11.8l-16.5-3.1
			c0,0,0,7.5-6.4,0c-6.4-7.5-6.4-7.5-6.4-7.5l6.2-21.4v-24.5l-0.8-26.5l15.4-59.7l-5.4-7.5l1-11.3l2.1-15.2l7.7-13.9
			c0,0-3.3-5.7,4.4-5.7c7.7,0,23.9,18.3,23.9,18.3l10.8-7.5l13.1-2.6l16.5,3.9l12.1,1.3l5.4-13.1l36,9.5l26.3,3.9c0,0,0-3.9,8.8-3.9
			s30.6,0,30.6,0l6.4,3.3l41.4-3.1c0,0,20.8-9.8,23.9-9.8s15.2-0.8,23.9,3.1c8.8,3.9,14.2,4.9,20.8,4.9c6.7,0,32.7-2.6,36-2.6
			s38.1,7.5,38.1,7.5l22.9-7.5c0,0,1-5.7,10.8-5.7c9.8,0,37.3,4.4,37.3,4.4l20.6,6.2c0,0,5.4-10,15.2-10s42.2,11.3,42.2,11.3h36.3
			c0,0,12.1-11.6,15.2-11.6c3.3,0,28.8,8,28.8,8s5.9-8.2,9.3-8.2c3.3,0,15.2,1.8,15.2,1.8l8.8,2.6l7.7-4.4c0,0,2.1,3.1,8.8,5.7
			c6.4,2.6,8.8,3.9,17.5,3.9s14.7,0,14.7,0s9.3-1.5,17-1.5s18.5,2.1,18.5,2.1s13.6-10.3,19.6-9.8
			C1412.2,4118.8,1412.2,4118.6,1412.2,4118.6z"/>
		<path fill="#F6921E" d="M1412.2,4104.1l8.5,11.6c0,0,16.2,4.9,18.5-0.3c2.1-5.1,2.1-5.1,2.1-5.1l9.8,14.9l-5.4,20.1l5.4,5.1h8.2
			l13.1,18.8l-18,30.1l-5.4,28.8l10.6,27.5v34l-10,14.4l3.9,9.5l-4.4,10.8l-42.7-5.7l-7.5,10.8l-38.6-10l-14.9,11.3h-13.6l-22.4-6.2
			l-39.9-1l5.9,7.2H1230c0,0-11.6,0-14.7,0c-3.3,0-21.4,0-21.4,0h-37.6l-16.5-17.5l-17.5,7.2l-26.3-3.9l-13.4,13.1
			c0,0-24.7-8.8-26.5-4.4c-1.8,4.4-21.4-6.2-21.4-6.2l-17.5,10.6l-21.9-5.7c0,0-5.4,17-8.8,11.3s-20.8-22.6-20.8-22.6l-15.2,3.9
			c0,0-14.2,2.6-21.9-1.3c-7.7-3.9-7.7-3.3-12.1-3.3s-1,11.1-1,11.1s-38.1,0-41.4,0c-3.3,0-12.1,7.2-20.8,7.2
			c-8.8,0-28.3-8.5-33.7-9.5c-5.4-1.3-10.3-2.6-16.5-1.3c-6.2,1.3-39.4,10.6-39.4,10.6s-8.8,8.8-14.2,7.5
			c-5.4-1.3-20.8-19.3-23.9-19.3c-3.3,0-17,0-17,0s-11.6,12.6-17,12.6c-5.4,0-16-13.6-16-13.6l-12.9-5.4V4300l-16.5-3.1
			c0,0,0,7.5-6.4,0s-6.4-7.5-6.4-7.5l6.2-21.4v-24.5l-0.8-26.5l15.4-59.7l-5.4-7.5l1-11.3l2.1-15.2l7.7-13.9c0,0-3.3-5.7,4.4-5.7
			c7.7,0,23.9,18.3,23.9,18.3l10.8-7.5l13.1-2.6l16.5,3.9l12.1,1.3l5.4-13.1l36,9.5l26.3,3.3c0,0,0-4.1,8.8-4.1s30.6,0,30.6,0
			l6.4,3.9l41.4-2.8c0,0,20.8-9.5,23.9-9.5s15.2-0.8,23.9,3.1c8.8,3.9,14.2,4.9,20.8,4.9c6.7,0,32.7-2.6,36-2.6s38.1,7.5,38.1,7.5
			l22.9-7.5c0,0,1-5.7,10.8-5.7c9.8,0,37.3,4.4,37.3,4.4l20.6,6.2c0,0,5.4-10.6,15.2-10.6c9.8,0,42.2,10.8,42.2,10.8h36.3
			c0,0,12.1-11.3,15.2-11.3c3.3,0,28.8,8.2,28.8,8.2s5.9-8.2,9.3-8.2s15.2,2.1,15.2,2.1l8.8,2.6l7.7-4.4c0,0,2.1,2.8,8.8,5.1
			c6.4,2.6,8.8,3.3,17.5,3.3s14.7,0,14.7,0s9.3-1,17-1s18.5,2.3,18.5,2.3s13.6-10.3,19.6-9.5
			C1412.2,4104.1,1412.2,4104.1,1412.2,4104.1z"/>
	</g>
</g>
<g id="Layer_4" display="none">
	<g display="inline">
		<g>
			<path fill="#5E3112" d="M452.7,4099.3h43.8l12.9,27.8c0,0,20.6,28.1,30.9,28.1s38.6-28.6,38.6-28.6s15.4-12.9,28.3-12.9
				c12.9,0,18,13.4,30.9,13.4c12.9,0,23.2,28.8,23.2,28.8s-25.7,0-12.9,0c12.9,0,77.7,0,77.7,0v-28.3c0,0,92.1,0,105,0
				c12.9,0,18,0,36,0c18,0,51.5,0,59.2,0s18-31.4,28.3-16c10.3,15.4,18,43.5,18,43.5l43.8-28.6l28.3,28.8l28.3-27.8c0,0,18,0,28.3,0
				s48.9,0,48.9,0l33.5,14.9c0,0,33.5,12.6,41.2,12.6s46.3-15.7,46.3-15.7s7.7-12.9,20.6-12.9s28.3-38.6,36-28.3
				s38.6,13.4,38.6,13.4s23.2,16,30.9,16s36,0,36,0l20.6-1.5l28.3-17.5l18,18.5l33.5,16h38.6l33.5-17.2l15.4-29.9l-25.7-33.7
				l18.8,3.9l53.5,11.6l30.9,39.1l39.1,26.3h40.7c0,0,66.9,25.2,74.6,12.4s7.7-13.1,7.7-13.1l42,51.2c0,0-19.8,0,0,12.9
				c19.8,12.9,43,38.6,43,38.6l-12.6,66.9l13.1,48.9c0,0,0,30.9,0,38.6s0,23.2,0,23.2s-20.8,10.3-28.6,18s-14.7,20.6-14.7,20.6
				l-19,10.3c0,0-18,10.3-36,12.9c-18,2.6-56.6-23.2-56.6-23.2l-42.2-5.1l-50.4,41.2c0,0-12.9-14.9-20.6-14.9s-64.3,16-64.3,16
				h-221.3l-2.6-16l-20.6-20.8l-28.3-4.6l-36,16h-36l-33.5,25.7h-51.5l-23.2-10.8l-33.5-30.6l-23.2,15.7h-36l-30.9,25.7h-43.8h-46.3
				h-72.1l-18,17.5l-41.2-20.8l-38.6-2.8l-38.6,2.6l-20.6,20.6l-25.7-28.3l-20.6-15.4l-15.4-18l-70.5-2.3l21.6,7.5l-56.6,33.5
				l-54-4.6l-30.9-14.9h-38.6h-38.1v-37.1l-15.7-25.7l17.8-51.5l-2.3-38.6l-15.2-20.6v-61.8l23.2-54l-10.3-23.2v-33.5L452.7,4099.3z
				"/>
			<path fill="#9F5B26" d="M452.7,4078.7h43.8l12.9,27.8c0,0,20.6,28.1,30.9,28.1s38.6-28.6,38.6-28.6s15.4-12.9,28.3-12.9
				c12.9,0,18,13.4,30.9,13.4c12.9,0,23.2,28.8,23.2,28.8s-25.7,0-12.9,0c12.9,0,77.7,0,77.7,0V4107c0,0,92.1,0,105,0
				c12.9,0,18,0,36,0c18,0,51.5,0,59.2,0s18-31.4,28.3-16c10.3,15.4,18,43.5,18,43.5l43.8-28.6l28.3,28.8l28.3-27.8c0,0,18,0,28.3,0
				s48.9,0,48.9,0l33.5,14.9c0,0,33.5,12.6,41.2,12.6s46.3-15.7,46.3-15.7s7.7-12.9,20.6-12.9s28.3-38.6,36-28.3
				s38.6,13.4,38.6,13.4s23.2,16,30.9,16s36,0,36,0l20.6-1.5l28.3-17.5l18,18.5l33.5,16h38.6l33.5-17.2l15.4-29.9l-25.7-12.4
				l12.9-4.6h59.2l30.9,38.6l39.1,25.7h40.7c0,0,66.9,25.2,74.6,12.4s7.7-13.1,7.7-13.1l42,51.2c0,0-19.8,0,0,12.9
				c19.8,12.9,43,38.6,43,38.6l-12.6,66.9l13.1,48.9c0,0,0,30.9,0,38.6s0,23.2,0,23.2s-20.8,10.3-28.6,18s-14.7,20.6-14.7,20.6
				l-19,10.3c0,0-18,10.3-36,12.9c-18,2.6-56.6-23.2-56.6-23.2l-42.2-5.1l-50.4,41.2c0,0-12.9-14.9-20.6-14.9
				c-7.7,0-64.3,16-64.3,16h-221.3l-2.6-16L1369,4441l-28.3-4.6l-36,16h-36l-33.5,25.7h-51.5l-23.2-10.8l-33.5-30.6l-23.2,15.7h-36
				l-30.9,25.7h-43.8h-46.3h-72.1l-18,17.5l-41.2-20.8l-38.6-2.8l-38.6,2.6l-20.6,20.6l-25.7-28.3l-20.6-15.4l-15.4-18l-64.3,18
				l15.4,7.7l-56.6,12.9l-54-4.6l-30.9-14.9H427h-38.1v-37.1l-15.7-25.7l17.8-51.5l-2.3-38.6l-15.2-20.6v-61.8l23.2-54l-10.3-23.2
				v-33.5L452.7,4078.7z"/>
			<path fill="#CDA34F" d="M452.7,4065.8h43.8l12.9,27.8c0,0,20.6,28.1,30.9,28.1s38.6-28.6,38.6-28.6s15.4-12.9,28.3-12.9
				c12.9,0,18,13.4,30.9,13.4c12.9,0,23.2,28.8,23.2,28.8s-25.7,0-12.9,0c12.9,0,77.7,0,77.7,0v-28.3c0,0,92.1,0,105,0
				c12.9,0,18,0,36,0c18,0,51.5,0,59.2,0s18-31.4,28.3-16c10.3,15.4,18,43.5,18,43.5l43.8-28.6l28.3,28.8l28.3-27.8c0,0,18,0,28.3,0
				s48.9,0,48.9,0l33.5,14.9c0,0,33.5,12.6,41.2,12.6s46.3-15.7,46.3-15.7s7.7-12.9,20.6-12.9s28.3-38.6,36-28.3
				s38.6,13.4,38.6,13.4s23.2,16,30.9,16s36,0,36,0l20.6-1.5l28.3-17.5l18,18.5l33.5,16h38.6l33.5-16.7l15.4-29.6h-25.7l12.9-18
				h59.2l30.9,38.6l39.1,25.7h40.7c0,0,66.9,25.2,74.6,12.4s7.7-13.1,7.7-13.1l42,51.2c0,0-19.8,0,0,12.9c19.8,12.9,43,38.6,43,38.6
				l-12.6,66.9l13.1,48.9c0,0,0,30.9,0,38.6s0,23.2,0,23.2s-20.8,10.3-28.6,18s-14.7,20.6-14.7,20.6l-19,10.3c0,0-18,10.3-36,12.9
				c-18,2.6-56.6-23.2-56.6-23.2l-42.2-5.1l-50.4,41.2c0,0-12.9-14.9-20.6-14.9c-7.7,0-64.3,16-64.3,16h-221.3l-2.6-16l-20.6-20.8
				l-28.3-4.6l-36,16h-36l-33.5,25.7h-51.5l-23.2-10.8l-33.5-30.6l-23.2,15.7h-36L1037,4465h-43.8h-46.3h-72.1l-18,17.5l-41.2-20.8
				l-38.6-2.8l-38.6,2.6l-20.6,20.6l-25.7-28.3l-20.6-15.4l-15.4-18l-64.3,18.5l15.4,21.1h-56.6l-54-5.1l-30.9-15.4H427h-38.1v-37.1
				l-15.7-25.7L391,4325l-2.3-38.6l-15.2-20.6V4204l23.2-54l-10.3-23.2v-33.5L452.7,4065.8z"/>
		</g>
		<g>
			<g>
				<path fill="#5E3112" d="M2058.7,4157.9c-6.4-14.2-9-51-9-51h21.9c0,0,0,9.8,6.4,11.1c6.4,1.3,37.3-1.5,41.2-1.5
					s15.4-1.5,19.3,4.9c3.9,6.4,9,16.7,9,16.7s-16.7,9-16.7,12.9c0,3.9,6.4,19.3-2.6,24.5c-9,5.1-20.6,3.9-29.6,9
					s-42.5,9.3-42.5,9.3L2058.7,4157.9z"/>
				<polygon fill="#5E3112" points="2158.6,4078.7 2166.1,4056.8 2195.7,4067.9 2195.7,4090.2 2177.1,4105.7 				"/>
			</g>
			<g>
				<path fill="#9F5B26" d="M2058.7,4152.8c-6.4-14.2-9-51-9-51h21.9c0,0,0,9.8,6.4,11.1c6.4,1.3,37.3-1.5,41.2-1.5
					s15.4-1.5,19.3,4.9c3.9,6.4,9,16.7,9,16.7s-16.7,9-16.7,12.9c0,3.9,6.4,19.3-2.6,24.5c-9,5.1-20.6,3.9-29.6,9
					s-42.5,9.3-42.5,9.3L2058.7,4152.8z"/>
				<polygon fill="#9F5B26" points="2158.6,4073.5 2166.1,4051.6 2195.7,4062.7 2195.7,4085.1 2177.1,4100.5 				"/>
			</g>
			<g>
				<path fill="#CDA34F" d="M2058.7,4145.1c-6.4-14.2-9-51-9-51h21.9c0,0,0,9.8,6.4,11.1c6.4,1.3,37.3-1.5,41.2-1.5
					s15.4-1.5,19.3,4.9c3.9,6.4,9,16.7,9,16.7s-16.7,9-16.7,12.9c0,3.9,6.4,19.3-2.6,24.5s-20.6,3.9-29.6,9s-42.5,9.3-42.5,9.3
					L2058.7,4145.1z"/>
				<polygon fill="#CDA34F" points="2158.6,4065.8 2166.1,4043.9 2195.7,4055 2195.7,4077.4 2177.1,4092.8 				"/>
			</g>
		</g>
		<g>
			<path fill="#5E3112" d="M129.7,4419.7c3.9-10.3,38.6-43.8,38.6-43.8l23.2,21.9c0,0-6.4,15.4,0,21.9c6.4,6.4,30.9,6.4,32.2,10.3
				c1.3,3.9-11.6,23.2-11.6,23.2l-29.6-21.9l-21.9,21.9L129.7,4419.7z"/>
			<path fill="#9F5B26" d="M129.7,4414.5c3.9-10.3,38.6-43.8,38.6-43.8l23.2,21.9c0,0-6.4,15.4,0,21.9c6.4,6.4,30.9,6.4,32.2,10.3
				c1.3,3.9-11.6,23.2-11.6,23.2l-29.6-21.9l-21.9,21.9L129.7,4414.5z"/>
			<path fill="#CDA34F" d="M129.7,4404.2c3.9-10.3,38.6-43.8,38.6-43.8l23.2,21.9c0,0-6.4,15.4,0,21.9c6.4,6.4,30.9,6.4,32.2,10.3
				c1.3,3.9-11.6,23.2-11.6,23.2l-29.6-21.9l-21.9,21.9L129.7,4404.2z"/>
		</g>
	</g>
</g>
<g id="Layer_5" display="none">
	<g display="inline">
		<rect x="-442.4" y="783" fill="#E5E5E5" width="3515.7" height="7049.7"/>
	</g>
	<g display="inline">
		<g>
			<path fill="#5E3112" d="M2666.9,3226.2c0,0-29.3,15.7-11.6,31.1c17.8,15.4,16.5,15.7,16.5,15.7v-20.6h30.9h15.4v-23.2h18l-9.5-18
				h-16.2h-18l1,9.8L2666.9,3226.2z"/>
		</g>
		<g>
			<path fill="#5E3112" d="M1781.8,3271.8l4.6-20.1l9.5,4.1l7.7,11.1c0,0,16.2,5.1,12.9,12.9s-9.5,16.2-9.5,16.2h-7.7h-12.9
				l1.8-16.7L1781.8,3271.8z"/>
		</g>
		<g>
			<polygon fill="#5E3112" points="1755.5,3242.2 1768.4,3242.2 1768.4,3244.8 1754.3,3249.9 1751.2,3247.6 1745.8,3236.3 			"/>
		</g>
		<g>
			<path fill="#9F5B26" d="M2666.9,3221.1c0,0-29.3,15.7-11.6,31.1c17.8,15.4,16.5,15.7,16.5,15.7v-20.6h30.9h15.4v-23.2h18l-9.5-18
				h-16.2h-18l1,9.8L2666.9,3221.1z"/>
		</g>
		<g>
			<path fill="#9F5B26" d="M1781.8,3266.6l4.6-20.1l9.5,4.1l7.7,11.1c0,0,16.2,5.1,12.9,12.9s-9.5,16.2-9.5,16.2h-7.7h-12.9
				l1.8-16.7L1781.8,3266.6z"/>
		</g>
		<g>
			<polygon fill="#9F5B26" points="1755.5,3239.6 1768.4,3237 1768.4,3242.2 1754.3,3247.3 1751.2,3245 1744.5,3234.5 			"/>
		</g>
	</g>
	<g display="inline">
		<g>
			<path fill="#F6921E" d="M2666.9,3210.8c0,0-29.3,15.7-11.6,31.1c17.8,15.4,16.5,15.7,16.5,15.7V3237h30.9h15.4v-23.2h18l-9.5-18
				h-16.2h-18l1,9.8L2666.9,3210.8z"/>
		</g>
		<g>
			<path fill="#F6921E" d="M1781.8,3256.4l4.6-20.1l9.5,4.1l7.7,11.1c0,0,16.2,5.1,12.9,12.9s-9.5,16.2-9.5,16.2h-7.7h-12.9
				l1.8-16.7L1781.8,3256.4z"/>
		</g>
		<g>
			<polygon fill="#F6921E" points="1755.5,3234.5 1768.4,3234.5 1768.4,3237 1754.3,3242.2 1751.2,3239.9 1744.5,3234.5 			"/>
		</g>
	</g>
	<g display="inline">
		<g>
			<g>
				<g>
					<g>
						<path fill="#5E3112" d="M803.3,2704.3l15.4-23.2h20.6c0,0,12.9-2.6,20.6-7.7s14.2-11.6,18-12.9s7.7-7.7,14.2-7.7
							s15.4,0,24.5,0c9,0,21.9,10.3,21.9,10.3s-14.2,15.4-21.9,15.4s-20.6,12.9-20.6,19.3s0,14.2-3.9,19.3s-6.4,2.3-14.2,9
							c-7.7,6.4-7.7,10.3-20.6,12.9c-12.9,2.6-23.2-12.9-23.2-12.9s0.3,1.3-7.5,0c-7.7-1.3-23.4,0-23.4,0V2704.3z"/>
					</g>
					<g>
						<path fill="#5E3112" d="M975.7,2652.8v-20.6h15.4l7.7,10.3v25.7c0,0-19.3,11.6-23.2,6.4s-6.4-20.6-6.4-20.6L975.7,2652.8z"/>
					</g>
				</g>
				<g>
					<g>
						<path fill="#9F5B26" d="M803.3,2699.1l15.4-23.2h20.6c0,0,12.9-2.6,20.6-7.7s14.2-11.6,18-12.9s7.7-7.7,14.2-7.7
							s15.4,0,24.5,0c9,0,21.9,10.3,21.9,10.3s-14.2,15.4-21.9,15.4s-20.6,12.9-20.6,19.3s0,14.2-3.9,19.3s-6.4,2.3-14.2,9
							c-7.7,6.4-7.7,10.3-20.6,12.9c-12.9,2.6-23.2-12.9-23.2-12.9s0.3,1.3-7.5,0c-7.7-1.3-23.4,0-23.4,0V2699.1z"/>
					</g>
					<g>
						<path fill="#9F5B26" d="M975.7,2647.7v-20.6h15.4l7.7,10.3v25.7c0,0-19.3,11.6-23.2,6.4s-6.4-20.6-6.4-20.6L975.7,2647.7z"/>
					</g>
				</g>
				<g>
					<g>
						<path fill="#CDA34F" d="M803.3,2688.8l15.4-23.2h20.6c0,0,12.9-2.6,20.6-7.7s14.2-11.6,18-12.9s7.7-7.7,14.2-7.7
							s15.4,0,24.5,0c9,0,21.9,10.3,21.9,10.3s-14.2,15.4-21.9,15.4s-20.6,12.9-20.6,19.3s0,14.2-3.9,19.3s-6.4,2.3-14.2,9
							c-7.7,6.4-7.7,10.3-20.6,12.9c-12.9,2.6-23.2-12.9-23.2-12.9s0.3,1.3-7.5,0c-7.7-1.3-23.4,0-23.4,0V2688.8z"/>
					</g>
					<g>
						<path fill="#CDA34F" d="M975.7,2637.4v-20.6h15.4l7.7,10.3v25.7c0,0-19.3,11.6-23.2,6.4s-6.4-20.6-6.4-20.6L975.7,2637.4z"/>
					</g>
				</g>
			</g>
			<g>
				<g>
					<g>
						<path fill="#5E3112" d="M477.4,3279.3l-10.6,25.7l-20.1,3.9c0,0-12.1,4.9-18.8,11.6c-6.7,6.7-11.6,14.2-15.2,16.2
							c-3.6,2.1-6.2,9-12.4,10.3c-6.4,1.3-15.2,3.1-23.9,4.6c-8.8,1.8-23.4-5.9-23.4-5.9s10.8-17.8,18.5-19.3
							c7.5-1.5,17.8-16.7,16.5-22.9c-1.3-6.4-2.8-13.9,0-19.6c2.8-5.9,5.9-3.6,12.1-11.6c6.4-8,5.7-11.6,17.8-16.7
							c12.1-4.9,25.2,8.2,25.2,8.2s-0.5-1,7.2-1.5c7.7-0.3,23.2-4.6,23.2-4.6L477.4,3279.3z"/>
					</g>
					<g>
						<path fill="#5E3112" d="M318.1,3363.2l3.9,20.1l-15.2,3.1l-9.5-8.5l-4.9-25.2c0,0,16.7-15.2,21.4-10.8
							c4.9,4.4,10.3,19,10.3,19L318.1,3363.2z"/>
					</g>
				</g>
				<g>
					<g>
						<path fill="#9F5B26" d="M478.2,3271.5l-10.6,25.7l-20.1,3.9c0,0-12.1,4.9-18.8,11.6c-6.7,6.7-11.6,14.2-15.2,16.2
							c-3.6,2.1-6.2,9-12.4,10.3c-6.4,1.3-15.2,3.1-23.9,4.6c-8.8,1.5-23.4-5.9-23.4-5.9s10.8-17.8,18.5-19.3
							c7.5-1.5,17.8-16.7,16.5-22.9c-1.3-6.4-2.8-13.9,0-19.6c2.8-5.9,5.9-3.6,12.1-11.6c6.4-8,5.7-11.6,17.8-16.7
							c12.1-4.9,25.2,8.2,25.2,8.2s-0.5-1,7.2-1.5c7.7-0.3,23.2-4.6,23.2-4.6L478.2,3271.5z"/>
					</g>
					<g>
						<path fill="#9F5B26" d="M319.1,3355.4l3.9,20.1l-15.2,3.1l-9.5-8.5l-4.9-25.2c0,0,16.7-15.2,21.4-10.8
							c4.6,4.4,10.3,19,10.3,19L319.1,3355.4z"/>
					</g>
				</g>
				<g>
					<g>
						<path fill="#CDA34F" d="M480.3,3263.6l-10.6,25.7l-20.1,3.9c0,0-12.1,4.9-18.8,11.6c-6.7,6.4-11.6,14.2-15.2,16.2
							c-3.6,2.1-6.2,9-12.4,10.3c-6.4,1.3-15.2,3.1-23.9,4.6c-8.8,1.8-23.4-5.9-23.4-5.9s10.8-17.8,18.5-19.3
							c7.5-1.5,17.8-16.7,16.5-22.9c-1.3-6.4-2.8-13.9,0-19.6c2.8-5.9,5.9-3.6,12.1-11.6c6.4-8,5.7-11.6,17.8-16.7
							c12.1-5.1,25.2,8.2,25.2,8.2s-0.5-1,7.2-1.5c7.7-0.3,23.2-4.6,23.2-4.6L480.3,3263.6z"/>
					</g>
					<g>
						<path fill="#CDA34F" d="M320.9,3347.5l3.9,20.1l-15.2,3.1l-9.5-8.5l-4.9-25.2c0,0,16.7-15.2,21.4-10.8
							c4.6,4.4,10.3,19,10.3,19L320.9,3347.5z"/>
					</g>
				</g>
			</g>
			<g>
				<g>
					<g>
						<polygon fill="#5E3112" points="1266,3051.7 1302.1,3028.6 1338.6,3028.6 1338.6,3051.7 1338.6,3110.9 1314.9,3141.8 
							1266,3141.8 1278.9,3110.9 1206.1,3103.2 						"/>
					</g>
					<g>
						<polygon fill="#5E3112" points="1384.4,3167.6 1407.6,3167.6 1433.3,3193.3 1409.1,3216.5 1351.5,3229.3 1351.5,3193.3 						
							"/>
					</g>
					<g>
						<polygon fill="#5E3112" points="1224.8,3247.3 1258.3,3229.3 1272.2,3247.3 1248.5,3275.7 						"/>
					</g>
				</g>
				<g>
					<g>
						<polygon fill="#9F5B26" points="1271.2,3046.6 1307.2,3023.4 1343.7,3023.4 1343.7,3046.6 1343.7,3105.8 1320.1,3136.7 
							1271.2,3136.7 1284,3105.8 1211.2,3098.1 						"/>
					</g>
					<g>
						<polygon fill="#9F5B26" points="1389.6,3162.4 1412.7,3162.4 1438.5,3188.1 1414.3,3211.3 1356.6,3224.2 1356.6,3188.1 						
							"/>
					</g>
					<g>
						<polygon fill="#9F5B26" points="1230,3242.2 1263.4,3224.2 1277.3,3242.2 1253.7,3270.5 						"/>
					</g>
				</g>
				<g>
					<g>
						<polygon fill="#CDA34F" points="1278.9,3033.7 1314.9,3010.6 1351.5,3010.6 1351.5,3033.7 1351.5,3092.9 1327.8,3123.8 
							1278.9,3123.8 1291.8,3092.9 1218.9,3085.2 						"/>
					</g>
					<g>
						<polygon fill="#CDA34F" points="1397.3,3149.5 1420.4,3149.5 1446.2,3175.3 1422,3198.4 1364.3,3211.3 1364.3,3175.3 						
							"/>
					</g>
					<g>
						<polygon fill="#CDA34F" points="1237.7,3229.3 1271.2,3211.3 1285.1,3229.3 1261.4,3257.6 						"/>
					</g>
				</g>
			</g>
		</g>
		<g>
			<g>
				<path fill="#5E3112" d="M3050.1,807.4H-442.4v2617l2.6-10.6c0,0,20.6,65.1,30.9,56.6c10.3-8.5,18.8-20.6,22.4-27.5
					c3.3-6.9,0-46.3,0-66.9s67.7-59.2,67.7-59.2h84.9h29.1l48.1-34l13.4-49.4c0,0,29.6-36,36-37.8c6.7-1.8,43.2-1.8,43.2-1.8
					s20.6,15.4,32.4,15.4s10.6-13.6,10.6-13.6s8.5-12.1,20.6-17.2c12.1-5.1,29.1-30.9,29.1-30.9l17.5-3.3l33.5,5.1l28.1,29.1
					l83.1-32.7l7.7-8.5l0.3-25.7c0,0,0,0,8.5-5.1s17.2-12.1,15.4-17.2s0-17.2,0-23.9c0-6.9,9.5-26.5,9.5-26.5h25.7v-18l12.9,7.7
					v-31.7l15.4-54.8c0,0,12.1-13.6,13.6-18.8c1.8-5.1,0-23.9,0-23.9l6.9-17.2c0,0,0,0,5.1-3.3c5.1-3.3,13.6-12.1,23.9-18.8
					s-3.3-24.2-6.7-32.7c-3.3-8.5,0-13.9,0-13.9l34-29.1l0,0l12.9-10.3h15.4c0,0,25,0,35.3,0c10.3,0,18.8-10.3,18.8-10.3H461
					l24.5-17.2l-9-11.1v-21.4l9.5-11.6l11.1-12.4l27.5-3.3l11.8,1.8l6.7-3.3l20.3-18.8c0,0,11.3,1.8,16.5,1.8s17.5-19.8,17.5-19.8
					v-9.5l21.9-10.3l34-6.9l22.1,8.5l30.6,17.2c0,0,18.5,3.3,27,8.5c8.5,5.1,11.3,1.8,11.3,1.8l12.4-1.8v-18.8
					c0,0,67.9-41.2,78.2-37.8c10.3,3.3,11.3,17.2,11.3,17.2l62.8-72.1l17.5,11.1v16.2c0,0,16.7,1.8,23.7,1.8
					c6.9,0,11.6-3.3,25.2-27.5c13.6-23.9,17.2,9,17.2,9s10.3,3.1,15.4,13.4s13.6,6.9,13.6,6.9l12.1-4.9l12.1-2.8l14.7-9.8h19.8
					l8.5,2.6v12.9v36l18-5.1h19.8l30.4,44.5l52.8,1.8v37.8l11.6,14.7c0,0,25.2-5.9,37.3,0.3c12.1,6.2,23.9-10.8,23.9-10.8l-0.8,11.8
					l5.1,18.5c0,0,0.8,0,5.1,0s36.8,0,36.8,0l18.8,7.2c0,0,25.7,20.8,36,15.7c10.3-5.1,17.2,0.8,17.2,0.8l71.3-8.2h26.5l-5.9-61.8
					h-42l-15.4-28.3l1.8-31.7l-29.3-25l-39.6-19.6l-14.2-60l-11.1-60l-35.5-27.5v-36c0,0,66.4-26.8,81.8-27.8s83.6-154.7,83.6-154.7
					l-0.8-36.5h-18l-13.4-13.1l13.4-25.5v-22.4l17.8,22.4l28.1-37.8c0,0,11.3-27.5,20.1-44.5c8.8-17-37.3-254.8-37.3-254.8v-12.9
					v-39.9l32.2-20.6c0,0-5.7-15.4-7.2-22.4c-1.8-6.9,6.9-18.8,13.6-25.7s25.7-23.2,25.7-23.2l12.1-37.6c0,0,32.7-40.4,39.4-42.2
					c6.7-1.8,20.6,0,20.6,0l8.5-17.8l10,7.5l42.5-43c0,0-0.8-166.3,16.5-175c17.2-8.5,27.8-78,27.8-78v-38.6l25.7-30.9
					c0,0,4.9,13.1,4.9,25.2s35,18,35,18s-3.9-4.6,0-42.2c3.9-37.8,0.5-25.5-9.8-68.2c-10.3-43,49.7-66.4,49.7-66.4h109.9
					c0,0,130.5-1.8,149.8-1.5c19.3,0.3,59.7-10.6,77.7-15.7s85.7-17.2,85.7-17.2s48.9,18.8,52.5,18.8s25.7-18.8,25.7-18.8l60.5,12.1
					l61.3,10.3l22.1,8.8c0,0,42.5,4.9,63.1,23.9c20.6,19,8,1.5,32.9-7.2c25-8.5,13.1,0,28.6,6.9v14.7l56.1,12.6l33.7-12.6l20.6,11.1
					l4.9,27.5l-15.7,46.3l48.4,14.2l11.6,9.8l8.5,15.7l40.7,4.9l-16.5-10.3c0,0,13.4-8.5,16.7-20.1s4.6-24.5,1.3-43
					s-22.4-55.9-22.4-55.9l8.5-30.1l18.8-8l20.6-10.8l16.2,21.1h20.6l43.8-8.2l23.2,8.2l46.3-25.7l-23.2,7.7l12.9-23.9l23.2,15.7
					c0,0,13.9,22.4,31.1,15.7c17.2-6.7,21.1-30.9,21.1-30.9L3050.1,807.4z"/>
			</g>
			<g>
				<g>
					<path fill="#9F5B26" d="M1791.3,1236.7c0,0-0.3,0-0.5-0.3C1791.1,1236.7,1791.3,1236.7,1791.3,1236.7z"/>
				</g>
				<g>
					<path fill="#9F5B26" d="M3060.4,794.6H-442.4v2702.7c2.6-1.3,2.1-2.6,3.1-3.9c8.5-12.1,0.3-43,0.3-43l12.1-49.7
						c0,0,20.6,65.1,30.9,56.6c10.3-8.5,18.8-20.6,22.4-27.5c3.3-6.9,0-46.3,0-66.9s67.7-59.2,67.7-59.2h84.9h29.1l48.1-34
						l13.4-49.4c0,0,29.6-36,36-37.8c6.7-1.8,43.2-1.8,43.2-1.8s20.6,15.4,32.4,15.4s10.6-13.6,10.6-13.6s8.5-12.1,20.6-17.2
						s29.1-30.9,29.1-30.9l17.5-3.3l33.5,5.1l28.1,29.1l82.9-32.7l7.7-8.5l0.3-25.7c0,0,0,0,8.5-5.1s17.2-12.1,15.4-17.2
						s0-17.2,0-23.9c0-6.9,9.5-26.5,9.5-26.5H271v-18l12.9,7.7v-31.7l15.2-54.8c0,0,11.8-13.6,13.6-18.8c1.8-5.1,0-23.9,0-23.9
						l6.9-17.2c0,0,0,0,5.1-3.3c5.1-3.3,13.6-12.1,23.9-18.8c10.3-6.9-3.3-24.2-6.7-32.7c-3.3-8.5,0-13.9,0-13.9l34-29.1l0,0
						l12.9-10.3h15.4c0,0,25,0,35.3,0c10.3,0,18.8-10.3,18.8-10.3h15.4l24.7-17.2l-8.8-11.1v-21.4l9-11.6l11.1-12.4l27.3-3.3
						l11.8,1.8l6.7-3.3l20.3-18.8c0,0,11.8,1.8,17,1.8s18-19.8,18-19.8v-9.5l21.4-10.3l33.7-6.9l22.1,8.5l30.6,17.2
						c0,0,18.5,3.3,27,8.5c8.5,5.1,11.8,1.8,11.8,1.8l12.9-1.8v-18.8c0,0,67.4-41.2,77.7-37.8c10.3,3.3,11.1,17.2,11.1,17.2
						l63.3-72.1l18,11.1v16.2c0,0,16.2,1.8,23.2,1.8s11.3-3.3,25-27.5c13.6-23.9,17,9,17,9s10.3,3.1,15.4,13.4
						c5.1,10.3,13.6,6.9,13.6,6.9l12.1-4.9l12.1-2.8l14.7-9.8h19.8l9.8,2.6v12.9v36l17-5.1h19.8l31.1,44.5l53.3,1.8v37.8l11.1,14.7
						c0,0,25-5.9,37.1,0.3c12.1,5.9,23.9-10.8,23.9-10.8l-1,11.8l5.1,18.5c0,0,0.8,0,5.1,0s36.8,0,36.8,0l18.8,7.2
						c0,0,25.7,20.8,36,15.7s17.2,0.8,17.2,0.8l71-8.2h26.5l-5.9-61.8h-42l-15.4-28.3l1.8-31.7l-29.3-25l-39.6-19.6l-14.2-60
						l-11.6-60l-36.3-27.5v-36c0,0,67.2-26.8,82.6-27.8c15.4-1,83.9-154.7,83.9-154.7l-0.5-36.5h-18l-13.9-13.1l12.6-25.5v-22.4
						l18.3,22.4l28.3-37.8c0,0,10.8-27.5,19.6-44.5c8.8-17-37.8-254.8-37.8-254.8v-12.9v-39.6l32.7-20.6c0,0-5.4-15.4-6.9-22.4
						c-1.8-6.9,6.9-18.8,13.9-25.7c6.9-6.9,25.7-23.2,25.7-23.2l12.1-37.6c0,0,32.7-40.4,39.4-42.2c6.7-1.8,20.6,0,20.6,0l8.5-17.8
						l10,7.5l42.5-43c0,0-1-166.3,16-175c17.2-8.5,27.3-78,27.3-78v-38.6l25.7-30.9c0,0,0,20.6,0,32.7c0,11.1,26,21.9,29.6,23.4
						c-1-1-3.3-6.2,0-36.3c3.9-37.8,11.6-44,1.3-87c-10.3-43,49.9-66.4,49.9-66.4h109.6c0,0,130.2-1.8,149.5-1.5
						c19.3,0.3,59.5-10.6,77.7-15.7c18-5.1,85.7-17.2,85.7-17.2s48.9,18.8,52.5,18.8s25.7-18.8,25.7-18.8l60.5,12.1l61.3,10.3
						l22.1,8.8c0,0,42.5,4.9,63.1,23.9s7.7,1.5,32.7-7.2c25-8.5,13.1,0,28.6,6.9v14.7l56.4,12.6l34-12.6l20.6,11.1l4.9,27.5
						l-15.7,46.3l48.1,14.2l11.6,9.8l4.1,23.4l34.5,10l-12.9-18c0,0,20.1-13.6,23.7-25.2c3.3-11.6,4.6-24.5,1.3-43
						s-22.4-55.8-22.4-55.8l8.5-30.1l18.8-8l20.6-10.8l16.2,21.1h20.6l43.8-8.2l23.2,8.2l36-12.9l-12.9-5.1l12.9-23.9l23.2,15.7
						c0,0,13.9,22.4,31.1,15.7c17.2-6.7,21.1-30.9,21.1-30.9L3060.4,794.6z"/>
				</g>
			</g>
			<g>
				<path fill="#CDA34F" d="M3073.3,779.1H-442.4v2718.6c3.1-3.6,8-9.8,13.4-17.2c8.5-12.1,0.3-43,0.3-43l12.1-49.9
					c0,0,20.6,65.4,30.9,56.6c10.3-8.5,18.8-20.6,22.4-27.5c3.3-6.9,0-46.3,0-66.9c0-20.6,67.7-59.2,67.7-59.2h84.9h29.1l48.1-34
					l13.4-49.4c0,0,29.6-36,36-37.8c6.7-1.8,43.2-1.8,43.2-1.8s20.6,15.4,32.4,15.4s10.6-13.6,10.6-13.6s8.5-12.1,20.6-17.2
					s29.1-30.9,29.1-30.9l17.5-3.3l33.5,5.1l28.1,29.1l83.1-32.7l7.7-8.5l0.3-25.7c0,0,0,0,8.5-5.1s17.2-12.1,15.4-17.2
					c-1.8-5.1,0-17,0-23.9c0-6.9,9.5-26.5,9.5-26.5h25.7v-18.5l12.9,7.7v-31.7l15.4-55.1c0,0,12.1-13.6,13.6-18.8
					c1.8-5.1,0-23.9,0-23.9l6.9-17.2c0,0,0,0,5.1-3.3c5.1-3.3,13.6-12.1,23.9-19c10.3-6.9-3.3-24.2-6.7-32.7s0-13.4,0-13.4l34-28.6
					l0,0l12.9-10.3h15.4c0,0,25,0,35.3,0c10.3,0,18.8-10.3,18.8-10.3h15.4l24.5-17.5l-9-11.3V2687l9.5-11.6l11.1-12.4l27.5-3.3
					l11.8,1.8l6.7-3.3l20.3-18.8c0,0,11.3,1.8,16.5,1.8s17.5-19.8,17.5-19.8v-9.5l21.9-10.3l34-6.9l22.1,8.5l30.6,17.2
					c0,0,18.5,3.3,27,8.5s11.3,1.8,11.3,1.8l12.4-1.8v-18.8c0,0,67.9-41.2,78.2-37.8c10.3,3.3,11.3,17.2,11.3,17.2l62.8-72.1
					l17.5,11.1v16.2c0,0,16.7,1.8,23.7,1.8c6.9,0,11.6-3.3,25.2-27.5c13.6-23.9,17.2,9,17.2,9s10.3,3.1,15.4,13.4s13.6,6.9,13.6,6.9
					l12.1-4.9l12.1-2.3l14.7-9.5h19.8l8.5,1.5v12.9v36l18-4.4h19.8l30.4,44.3l52.8,1.3v37.8l11.6,14.7c0,0,25.2-5.9,37.3,0.3
					c12.1,5.9,23.9-10.8,23.9-10.8l-0.8,12.1l5.1,18.8c0,0,0.8,0,5.1,0s36.8,0,36.8,0l18.8,6.7c0,0,25.7,20.8,36,15.7s17.2,1,17.2,1
					l71.3-8h26.5l-5.9-61.8h-42l-15.4-28.8l1.8-31.9l-29.3-25.2l-39.6-19.6l-14.2-60.2l-11.1-60.2l-35.5-27.5v-36
					c0,0,66.4-26.8,81.8-27.8c15.4-0.8,83.6-154.2,83.6-154.2l-0.8-35.8h-18l-13.4-13.9l13.4-26v-22.4l17.8,22.4l28.1-37.8
					c0,0,11.3-27.5,20.1-44.5s-37.3-255.1-37.3-255.1v-12.9v-38.9l32.2-20.6c0,0-5.7-15.4-7.2-22.4c-1.8-6.9,6.9-18.8,13.6-25.7
					c6.9-6.9,25.7-23.2,25.7-23.2l12.1-37.6c0,0,32.7-40.4,39.4-42.2s20.6,0,20.6,0l8.5-17.8l10,7.5l42.5-43c0,0-0.8-166.5,16.5-175
					c17.2-8.5,27.8-78.2,27.8-78.2v-38.6l25.7-30.9c0,0,0,20.6,0,32.7s16.7,36.3,16.7,36.3s8.2-11.6,12.1-49.4
					c3.9-37.8,11.6-44,1.3-87c-10.3-43,49.7-66.7,49.7-66.7h109.9c0,0,130.5-1.8,149.8-1.5s59.7-10.3,77.7-15.4
					c18-5.1,85.7-17.2,85.7-17.2s48.9,19,52.5,19s25.7-18.8,25.7-18.8l60.5,12.1l61.3,10.3l22.1,8.8c0,0,42.5,4.9,63.1,23.9
					s8,1.5,32.9-7.2c25-8.5,13.1,0,28.6,6.9v14.7l56.1,12.6l33.7-12.6l20.6,11.1l4.9,27.5l-15.7,46.3l48.4,14.2l11.6,9.8v25.7
					l25.7,20.6v-30.9c0,0,20.1-13.6,23.7-25.2c3.3-11.6,4.6-24.5,1.3-43s-22.4-56.1-22.4-56.1l8.5-30.1l18.8-8l20.6-10.8l16.2,20.8
					h20.6l43.8-8.2l23.2,8.2h23.2v-17.8l12.9-23.9l23.2,15.7c0,0,13.9,22.4,31.1,15.7c17.2-6.7,21.1-30.9,21.1-30.9L3073.3,779.1z"
					/>
			</g>
		</g>
	</g>
	<g display="inline">
		<g>
			<g>
				<path fill="#5E3112" d="M-440.6,5094.5c0,0,9.5,201,35.3,247.3s35.5,118.6,35.5,118.6l25.2,44v95.2l20.6,49.7
					c0,0,15.4,17.2,36,35.3s56.6,38.6,56.6,38.6s46.6,41.2,51.5,54c4.9,12.9-10.3,2.1,0,40.7s-20.6,93.2-20.6,93.2h56.6l28.3,54
					v77.2c0,0-89.6,46.3-63.8,51.5s63.8,82.4,63.8,82.4v66.9v51.5v77.2l30.6,30.9c0,0,22.9,34.7,0,58.4s0,60,0,60l10.3,45.8
					l-41.7,47.1h37.6l-65.1,150.6l27.5,29.6c0,0,6.9,41.2,0,51.5c-6.9,10.3,0,113.2,0,113.2h-120.2l-56.6,84.4l61.8,74.4l-61.3,98.6
					l35.5,72.1v92.7h77.2l-78,173.7l-56.1,47.6l-66.9,56.6l-15.4,133.8l-43.8,61.8L-440.6,5094.5z"/>
			</g>
			<g>
				<path fill="#9F5B26" d="M-440.6,5068.8c0,0,9.5,201,35.3,247.3s35.5,118.6,35.5,118.6l25.2,44v95.2l20.6,49.7
					c0,0,15.4,17.2,36,35.3s56.6,38.6,56.6,38.6s46.6,41.2,51.5,54c4.9,12.9-10.3,2.1,0,40.7s-20.6,93.2-20.6,93.2h56.6l28.3,54
					v77.2c0,0-89.6,46.3-63.8,51.5c25.7,5.1,63.8,82.4,63.8,82.4v66.9v51.5v77.2l30.6,30.9c0,0,22.9,34.7,0,58.4s0,60,0,60
					l10.3,45.8l-41.7,47.1l37.6,25.7l-65.1,124.8l27.5,29.6c0,0,6.9,41.2,0,51.5c-6.9,10.3,0,113.2,0,113.2h-120.2l-56.6,84.4
					l61.8,100.1l-61.3,72.8l35.5,72.1v92.7l77.2,25.7l-78,148l-56.1,47.6l-66.9,56.6l-15.4,133.8l-43.8,61.8L-440.6,5068.8z"/>
			</g>
			<g>
				<path fill="#CDA34F" d="M-440.6,5048.2c0,0,9.5,201,35.3,247.3s35.5,118.6,35.5,118.6l25.2,44v95.2l20.6,49.7
					c0,0,15.4,17.2,36,35.3s56.6,38.6,56.6,38.6s46.6,41.2,51.5,54c4.9,12.9-10.3,2.1,0,40.7c10.3,38.6-20.6,93.2-20.6,93.2h56.6
					l28.3,54v77.2c0,0-89.6,46.3-63.8,51.5s63.8,82.4,63.8,82.4v66.9v51.5v77.2l30.6,30.9c0,0,22.9,34.7,0,58.4s0,60,0,60l10.3,45.8
					l-41.7,47.1l37.6,46.3l-65.1,104.2l27.5,29.6c0,0,6.9,41.2,0,51.5c-6.9,10.3,0,113.2,0,113.2h-120.2l-56.6,84.4l61.8,120.7
					l-61.3,52.2l35.5,72.1v92.7l77.2,46.3l-78,127.4L-314,7556l-66.9,56.6l-15.4,133.8l-43.8,61.8L-440.6,5048.2z"/>
			</g>
		</g>
		<g>
			<g>
				<path fill="#5E3112" d="M3073.8,5094.5c0,0-9.5,201-35.3,247.3s-35.3,118.6-35.3,118.6l-25,44v95.2l-20.8,49.7
					c0,0-15.7,17.2-36.3,35.3s-56.9,38.6-56.9,38.6s-46.6,41.2-51.7,54s10.3,2.1,0,40.7s20.6,93.2,20.6,93.2h-56.6l-27.3,54v77.2
					c0,0,89.8,46.3,64.1,51.5c-25.7,5.1-64.1,82.4-64.1,82.4v66.9v51.5v77.2l-31.4,30.9c0,0-23.2,34.7-0.3,58.4s-0.3,60-0.3,60
					l-10.3,45.8l41.7,47.1h-37.6l65.1,150.6l-27.5,29.6c0,0-6.9,41.2,0,51.5s0,113.2,0,113.2h120.5l56.6,84.4l-62,74.4l62,98.6
					l-35.3,72.1v92.7h-78.2l78,173.7l56.1,47.6l67.2,56.6l15.4,133.8l43.8,61.8L3073.8,5094.5z"/>
			</g>
			<g>
				<path fill="#9F5B26" d="M3073.8,5068.8c0,0-9.5,201-35.3,247.3s-35.3,118.6-35.3,118.6l-25,44v95.2l-20.8,49.7
					c0,0-15.7,17.2-36.3,35.3s-56.9,38.6-56.9,38.6s-46.6,41.2-51.7,54c-5.1,12.9,10.3,2.1,0,40.7s20.6,93.2,20.6,93.2h-56.6
					l-27.3,54v77.2c0,0,89.8,46.3,64.1,51.5c-25.7,5.1-64.1,82.4-64.1,82.4v66.9v51.5v77.2l-31.4,30.9c0,0-23.2,34.7-0.3,58.4
					s-0.3,60-0.3,60l-10.3,45.8l41.7,47.1l-37.6,25.7l65.1,124.8l-27.5,29.6c0,0-6.9,41.2,0,51.5s0,113.2,0,113.2h120.5l56.6,84.4
					l-62,100.1l62,72.8l-35.3,72.1v92.7l-78,25.7l78,148l56.1,47.6l66.9,56.6l15.4,133.8l43.8,61.8L3073.8,5068.8z"/>
			</g>
			<g>
				<path fill="#CDA34F" d="M3073.8,5048.2c0,0-9.5,201-35.3,247.3s-35.3,118.6-35.3,118.6l-25,44v95.2l-20.8,49.7
					c0,0-15.7,17.2-36.3,35.3s-56.9,38.6-56.9,38.6s-46.6,41.2-51.7,54s10.3,2.1,0,40.7c-10.3,38.6,20.6,93.2,20.6,93.2h-56.6
					l-27.3,54v77.2c0,0,89.8,46.3,64.1,51.5c-25.7,5.1-64.1,82.4-64.1,82.4v66.9v51.5v77.2l-31.4,30.9c0,0-23.2,34.7-0.3,58.4
					s-0.3,60-0.3,60l-10.3,45.8l41.7,47.1l-37.6,46.3l65.1,104.2l-27.5,29.6c0,0-6.9,41.2,0,51.5c6.9,10.3,0,113.2,0,113.2h120.5
					l56.6,84.4l-62,120.7l62,52.2l-35.3,72.1v92.7l-78,46.3l78,127.4l56.1,47.6l66.9,56.6l15.4,133.8l43.8,61.8L3073.8,5048.2z"/>
			</g>
		</g>
		<g>
			<g>
				<g>
					<g>
						<path fill="#9F5B26" d="M-335.6,6357.4c-34.2,0-62.3-27.8-62.3-62.3c0-32.2,26.3-94.2,62.3-94.2s62.3,62,62.3,94.2
							C-273.3,6329.6-301.1,6357.4-335.6,6357.4z M-335.6,6213.8c-25,0-49.4,51.5-49.4,81.3c0,27.3,22.1,49.4,49.4,49.4
							s49.4-22.1,49.4-49.4C-286.2,6265.3-310.6,6213.8-335.6,6213.8z"/>
					</g>
				</g>
				<g>
					<g>
						<polygon fill="#9F5B26" points="-326.6,6384.7 -339.5,6384.7 -339.5,6351.8 -339,6252.4 -326.1,6252.7 -326.6,6351.8 						
							"/>
					</g>
				</g>
				<g>
					<g>
						<polygon fill="#9F5B26" points="-335.9,6313.4 -377.1,6272 -368,6263 -335.9,6295.2 -306.3,6265.3 -297,6274.6 						"/>
					</g>
				</g>
			</g>
			<g>
				<g>
					<g>
						<path fill="#9F5B26" d="M-194.1,6457.8c-34.2,0-62.3-27.8-62.3-62.3c0-35.5,29.3-66.9,63.1-66.9c33.2,0,61.5,30.6,61.5,66.9
							C-131.8,6430-159.6,6457.8-194.1,6457.8z M-193,6341.7c-26.3,0-50.2,25.7-50.2,54c0,27.3,22.1,49.4,49.4,49.4
							s49.4-22.1,49.4-49.4C-144.6,6367-167.3,6341.7-193,6341.7z"/>
					</g>
				</g>
				<g>
					<g>
						<polygon fill="#9F5B26" points="-185.1,6500.5 -197.9,6500.5 -197.9,6467.6 -197.4,6368.3 -184.5,6368.5 -185.1,6467.6 						
							"/>
					</g>
				</g>
				<g>
					<g>
						<polygon fill="#9F5B26" points="-194.3,6429.3 -235.5,6387.8 -226.5,6378.8 -194.3,6411 -164.7,6381.1 -155.5,6390.4 						
							"/>
					</g>
				</g>
			</g>
			<g>
				<g>
					<g>
						<path fill="#5E3112" d="M-340.8,6347.2c-34.2,0-62.3-27.8-62.3-62.3c0-32.2,26.3-94.2,62.3-94.2s62.3,62,62.3,94.2
							C-278.5,6319.4-306.3,6347.2-340.8,6347.2z M-340.8,6203.5c-25,0-49.4,51.5-49.4,81.3c0,27.3,22.1,49.4,49.4,49.4
							c27.3,0,49.4-22.1,49.4-49.4C-291.3,6255-315.8,6203.5-340.8,6203.5z"/>
					</g>
				</g>
				<g>
					<g>
						<polygon fill="#5E3112" points="-334.3,6374.4 -347.2,6374.4 -347.2,6341.5 -346.7,6242.1 -333.8,6242.4 -334.3,6341.5 						
							"/>
					</g>
				</g>
				<g>
					<g>
						<polygon fill="#5E3112" points="-341,6303.1 -382.2,6261.7 -373.2,6252.7 -341,6284.9 -311.4,6255 -302.2,6264.3 						"/>
					</g>
				</g>
			</g>
			<g>
				<g>
					<g>
						<path fill="#5E3112" d="M-199.2,6447.5c-34.2,0-62.3-27.8-62.3-62.3c0-35.5,29.3-66.9,63.1-66.9c33.2,0,61.5,30.6,61.5,66.9
							C-136.9,6419.7-164.7,6447.5-199.2,6447.5z M-198.2,6331.5c-26.3,0-50.2,25.7-50.2,54c0,27.3,22.1,49.4,49.4,49.4
							s49.4-22.1,49.4-49.4C-149.8,6356.7-172.4,6331.5-198.2,6331.5z"/>
					</g>
				</g>
				<g>
					<g>
						<polygon fill="#5E3112" points="-192.8,6490.2 -205.6,6490.2 -205.6,6457.3 -205.1,6358 -192.3,6358.2 -192.8,6457.3 						
							"/>
					</g>
				</g>
				<g>
					<g>
						<polygon fill="#5E3112" points="-199.5,6419 -240.6,6377.5 -231.6,6368.5 -199.5,6400.7 -169.9,6370.8 -160.6,6380.1 						
							"/>
					</g>
				</g>
			</g>
		</g>
		<g>
			<g>
				<g>
					<g>
						<path fill="#9F5B26" d="M2981.9,7474.4c-34.2,0-62.3-27.8-62.3-62.3c0-32.2,26.3-94.2,62.3-94.2c36,0,62.3,62,62.3,94.2
							C3044.2,7446.6,3016.4,7474.4,2981.9,7474.4z M2981.9,7330.8c-25,0-49.4,51.5-49.4,81.3c0,27.3,22.1,49.4,49.4,49.4
							s49.4-22.1,49.4-49.4C3031.3,7382.3,3006.9,7330.8,2981.9,7330.8z"/>
					</g>
				</g>
				<g>
					<g>
						<polygon fill="#9F5B26" points="2985.8,7501.7 2972.9,7501.7 2972.9,7468.8 2972.7,7369.7 2985.5,7369.4 2985.8,7468.8 						
							"/>
					</g>
				</g>
				<g>
					<g>
						<polygon fill="#9F5B26" points="2982.4,7430.4 2943.6,7391.6 2952.6,7382.3 2982.4,7412.2 3014.6,7380 3023.6,7389 						"/>
					</g>
				</g>
			</g>
			<g>
				<g>
					<g>
						<path fill="#5E3112" d="M2987.1,7464.2c-34.2,0-62.3-27.8-62.3-62.3c0-32.2,26.3-94.2,62.3-94.2c36,0,62.3,62,62.3,94.2
							C3049.4,7436.4,3021.6,7464.2,2987.1,7464.2z M2987.1,7320.5c-25,0-49.4,51.5-49.4,81.3c0,27.3,22.1,49.4,49.4,49.4
							s49.4-22.1,49.4-49.4C3036.5,7372,3012,7320.5,2987.1,7320.5z"/>
					</g>
				</g>
				<g>
					<g>
						<polygon fill="#5E3112" points="2993.5,7491.4 2980.6,7491.4 2980.6,7458.5 2980.4,7359.4 2993.3,7359.1 2993.5,7458.5 						
							"/>
					</g>
				</g>
				<g>
					<g>
						<polygon fill="#5E3112" points="2987.6,7420.1 2948.7,7381.3 2957.7,7372 2987.6,7401.9 3019.8,7369.7 3028.8,7378.7 						
							"/>
					</g>
				</g>
			</g>
		</g>
		<g>
			<g>
				<g>
					<g>
						<path fill="#9F5B26" d="M2922.7,6030.6c-34.2,0-62.3-27.8-62.3-62.3c0-36.3,28.1-66.9,61.5-66.9c33.5,0,63.1,31.1,63.1,66.9
							C2985,6002.8,2957.2,6030.6,2922.7,6030.6z M2922,5914.5c-25.7,0-48.6,25.2-48.6,54c0,27.3,22.1,49.4,49.4,49.4
							s49.4-22.1,49.4-49.4C2972.1,5940.2,2948.2,5914.5,2922,5914.5z"/>
					</g>
				</g>
				<g>
					<g>
						<polygon fill="#9F5B26" points="2926.6,6073.3 2913.7,6073.3 2913.7,6040.4 2913.5,5941.3 2926.3,5941 2926.6,6040.4 						
							"/>
					</g>
				</g>
				<g>
					<g>
						<polygon fill="#9F5B26" points="2923.2,6002 2884.4,5963.1 2893.4,5953.9 2923.2,5983.7 2955.4,5951.6 2964.4,5960.6 						
							"/>
					</g>
				</g>
			</g>
			<g>
				<g>
					<g>
						<path fill="#5E3112" d="M2927.9,6020.3c-34.2,0-62.3-27.8-62.3-62.3c0-36.3,28.1-66.9,61.5-66.9c33.5,0,63.1,31.1,63.1,66.9
							C2990.2,5992.5,2962.4,6020.3,2927.9,6020.3z M2927.1,5904.2c-25.7,0-48.6,25.2-48.6,54c0,27.3,22.1,49.4,49.4,49.4
							s49.4-22.1,49.4-49.4C2977.3,5929.9,2953.4,5904.2,2927.1,5904.2z"/>
					</g>
				</g>
				<g>
					<g>
						<polygon fill="#5E3112" points="2934.3,6063 2921.4,6063 2921.4,6030.1 2921.2,5931 2934.1,5930.7 2934.3,6030.1 						"/>
					</g>
				</g>
				<g>
					<g>
						<polygon fill="#5E3112" points="2928.4,5991.7 2889.5,5952.9 2898.5,5943.6 2928.4,5973.4 2960.6,5941.3 2969.6,5950.3 						
							"/>
					</g>
				</g>
			</g>
		</g>
	</g>
	<g display="inline">
		<g>
			<g>
				<g>
					<path fill="#9F5B26" d="M3.1,2264.2h-7.7l-12.4-21.6h-0.3c0.3,3.9,0.3,6.4,0.3,8.2v13.4h-5.4v-28.6h7.7l12.4,21.4h0.3
						c-0.3-3.6-0.3-6.4-0.3-7.7v-13.4h5.4C3.1,2235.9,3.1,2264.2,3.1,2264.2z"/>
				</g>
			</g>
			<g>
				<g>
					<path fill="#9F5B26" d="M-5.4,2748c0,2.6-1,4.6-2.8,6.2c-1.8,1.5-4.4,2.3-7.7,2.3c-3.1,0-5.7-0.5-8-1.8v-5.7
						c1.8,0.8,3.6,1.5,4.9,1.8c1.3,0.3,2.6,0.5,3.6,0.5c1.3,0,2.3-0.3,3.1-0.8c0.8-0.5,1-1.3,1-2.3c0-0.5-0.3-1-0.5-1.5
						c-0.3-0.5-0.8-0.8-1.3-1.3c-0.5-0.5-1.8-1-3.6-1.8c-1.8-0.8-3.1-1.5-3.9-2.3c-0.8-0.8-1.5-1.5-2.1-2.6c-0.5-1-0.8-2.1-0.8-3.6
						c0-2.6,0.8-4.4,2.6-5.9s4.1-2.1,6.9-2.1c1.5,0,2.8,0.3,4.1,0.5s2.8,0.8,4.1,1.5l-2.1,4.6c-1.5-0.5-2.8-1-3.9-1.3
						c-1-0.3-2.1-0.3-2.8-0.3c-1,0-2.1,0.3-2.6,0.8c-0.5,0.5-1,1.3-1,2.1c0,0.5,0,1,0.3,1.3c0.3,0.5,0.5,0.8,1.3,1
						c0.5,0.3,1.8,1,3.9,2.1c2.6,1.3,4.4,2.6,5.4,3.9C-5.7,2744.7-5.4,2746.2-5.4,2748z"/>
				</g>
			</g>
			<g>
				<g>
					<path fill="#9F5B26" d="M239.1,2511.3h-16.5v-28.6h16.5v4.9h-10.3v6.2h9.5v4.9h-9.5v7.5h10.3V2511.3z"/>
				</g>
			</g>
			<g>
				<g>
					<path fill="#9F5B26" d="M-250.7,2482.7h6.2l-9.8,28.6h-6.7l-9.8-28.6h6.2l5.4,17c0.3,1,0.5,2.1,1,3.6c0.3,1.3,0.5,2.3,0.5,2.8
						c0.3-1.3,0.5-3.3,1.5-6.2L-250.7,2482.7z"/>
				</g>
			</g>
			<g>
				<g>
					<path fill="#9F5B26" d="M212.3,2501l-196.1-18.5l47.6-58.9l-55.3,46.3L-9.8,2277v-0.8l-17.8,195.6l-59.2-48.1l48.6,58.4
						l-193.5,18.8h-2.6l195.9,17.5l-48.1,58.9l58.2-49.4l18,193.5v0.5L8,2526.4l58.9,47.6l-47.1-55.6l191.7-17.5H212.3L212.3,2501z
						 M-19.8,2505.6l-10.8,11.1l-147.5-13.4h160.3L-19.8,2505.6z M-12.6,2493.5l-13.6-13.6l13.6-147.5
						C-12.6,2332.4-12.6,2493.5-12.6,2493.5z M-7.5,2666.2v-161.1l13.6,13.6L-7.5,2666.2z M-4.6,2498.4L9,2484.7l147.5,13.6H-4.6z"
						/>
				</g>
			</g>
		</g>
		<g>
			<g>
				<g>
					<path fill="#5E3112" d="M5.4,2252.3h-7.7l-12.4-21.6h-0.3c0.3,3.9,0.3,6.4,0.3,8.2v13.4h-5.4v-28.6h7.7L0,2245.1h0.3
						c-0.3-3.6-0.3-6.4-0.3-7.7V2224h5.4V2252.3z"/>
				</g>
			</g>
			<g>
				<g>
					<path fill="#5E3112" d="M-3.1,2736.2c0,2.6-1,4.6-2.8,6.2s-4.4,2.3-7.7,2.3c-3.1,0-5.7-0.5-8-1.8v-5.7c1.8,0.8,3.6,1.5,4.9,1.8
						s2.6,0.5,3.6,0.5c1.3,0,2.3-0.3,3.1-0.8c0.8-0.5,1-1.3,1-2.3c0-0.5-0.3-1-0.5-1.5c-0.3-0.5-0.8-0.8-1.3-1.3
						c-0.5-0.5-1.8-1-3.6-1.8c-1.8-0.8-3.1-1.5-3.9-2.3c-0.8-0.8-1.5-1.5-2.1-2.6c-0.5-1-0.8-2.1-0.8-3.6c0-2.6,0.8-4.4,2.6-5.9
						c1.8-1.5,4.1-2.1,6.9-2.1c1.5,0,2.8,0.3,4.1,0.5c1.3,0.3,2.8,0.8,4.1,1.5l-2.1,4.6c-1.5-0.5-2.8-1-3.9-1.3
						c-1-0.3-2.1-0.3-2.8-0.3c-1,0-2.1,0.3-2.6,0.8c-0.5,0.5-1,1.3-1,2.1c0,0.5,0,1,0.3,1.3c0.3,0.5,0.5,0.8,1.3,1
						c0.5,0.3,1.8,1,3.9,2.1c2.6,1.3,4.4,2.6,5.4,3.9C-3.3,2732.6-3.1,2734.4-3.1,2736.2z"/>
				</g>
			</g>
			<g>
				<g>
					<path fill="#5E3112" d="M241.4,2499.2h-16.5v-28.6h16.5v4.9h-10.3v6.2h9.5v4.9h-9.5v7.5h10.3V2499.2z"/>
				</g>
			</g>
			<g>
				<g>
					<path fill="#5E3112" d="M-248.4,2470.8h6.2l-9.8,28.6h-6.7l-9.8-28.6h6.2l5.4,17c0.3,1,0.5,2.1,1,3.6c0.3,1.3,0.5,2.3,0.5,2.8
						c0.3-1.3,0.5-3.3,1.5-6.2L-248.4,2470.8z"/>
				</g>
			</g>
			<g>
				<g>
					<path fill="#5E3112" d="M214.6,2488.1l-196.1-18l47.6-58.7L10.8,2458l-18.3-192.8v-0.8l-18,195.6l-59.2-48.1l48.6,57.9
						l-193.8,18.3h-2.3l195.9,18l-48.1,59.2l58.4-49.2l18.3,193.5v0.5l18-195.6l58.7,47.6l-46.8-56.1l191.7-18H214.6z M-17.5,2493.2
						l-10.8,10.8l-147.5-13.6h160.3L-17.5,2493.2z M-10,2481.7l-13.6-13.6l13.6-147.5C-10,2320.5-10,2481.7-10,2481.7z M-4.9,2654.1
						V2493l13.6,13.6L-4.9,2654.1z M-2.3,2485.5l13.6-13.6l147.5,13.6H-2.3z"/>
				</g>
			</g>
		</g>
	</g>
	<g display="inline">
		<g>
			<g>
				<g>
					<path fill="#9F5B26" d="M794.3,2352.7c-34.2,0-62.3-27.8-62.3-62.3c0-32.2,26.3-94.2,62.3-94.2c36,0,62.3,62,62.3,94.2
						C856.5,2324.9,828.7,2352.7,794.3,2352.7z M794.3,2209.1c-25,0-49.4,51.5-49.4,81.3c0,27.3,22.1,49.4,49.4,49.4
						c27.3,0,49.4-22.1,49.4-49.4C843.7,2260.6,819.2,2209.1,794.3,2209.1z"/>
				</g>
				<g>
					<polygon fill="#9F5B26" points="800.7,2380 787.8,2380 787.8,2347.1 787.6,2248 800.4,2247.7 800.7,2347.1 					"/>
				</g>
				<g>
					<polygon fill="#9F5B26" points="794.8,2308.7 755.9,2269.8 764.9,2260.6 794.8,2290.4 826.9,2258.3 835.9,2267.3 					"/>
				</g>
			</g>
			<g>
				<g>
					<path fill="#9F5B26" d="M632.1,2450.5c-34.2,0-62.3-27.8-62.3-62.3c0-32.2,26.3-94.2,62.3-94.2s62.3,62,62.3,94.2
						C694.4,2422.7,666.6,2450.5,632.1,2450.5z M632.1,2306.9c-25,0-49.4,51.5-49.4,81.3c0,27.3,22.1,49.4,49.4,49.4
						c27.3,0,49.4-22.1,49.4-49.4C681.5,2358.4,657.1,2306.9,632.1,2306.9z"/>
				</g>
				<g>
					<polygon fill="#9F5B26" points="638.5,2477.8 625.7,2477.8 625.7,2444.9 625.4,2345.8 638.3,2345.5 638.5,2444.9 					"/>
				</g>
				<g>
					<polygon fill="#9F5B26" points="632.6,2406.5 593.8,2367.6 602.8,2358.4 632.6,2388.2 664.8,2356.1 673.8,2365.1 					"/>
				</g>
			</g>
			<g>
				<g>
					<path fill="#9F5B26" d="M920.4,2427.4c-34.2,0-62.3-27.8-62.3-62.3c0-36.3,28.1-66.9,61.5-66.9c33.5,0,63.1,31.1,63.1,66.9
						C982.7,2399.6,954.9,2427.4,920.4,2427.4z M919.6,2311.3c-25.7,0-48.6,25.2-48.6,54c0,27.3,22.1,49.4,49.4,49.4
						s49.4-22.1,49.4-49.4C969.8,2337,945.8,2311.3,919.6,2311.3z"/>
				</g>
				<g>
					<polygon fill="#9F5B26" points="926.8,2470.1 913.9,2470.1 913.9,2437.1 913.7,2338 926.5,2337.8 926.8,2437.1 					"/>
				</g>
				<g>
					<polygon fill="#9F5B26" points="920.9,2398.8 882,2359.9 891,2350.7 920.9,2380.5 953.1,2348.3 962.1,2357.3 					"/>
				</g>
			</g>
		</g>
		<g>
			<g>
				<g>
					<path fill="#5E3112" d="M802,2342.4c-34.2,0-62.3-27.8-62.3-62.3c0-32.2,26.3-94.2,62.3-94.2s62.3,62,62.3,94.2
						C864.3,2314.6,836.5,2342.4,802,2342.4z M802,2198.8c-25,0-49.4,51.5-49.4,81.3c0,27.3,22.1,49.4,49.4,49.4
						s49.4-22.1,49.4-49.4C851.4,2250.3,826.9,2198.8,802,2198.8z"/>
				</g>
				<g>
					<polygon fill="#5E3112" points="808.4,2369.7 795.5,2369.7 795.5,2336.8 795.3,2237.7 808.2,2237.4 808.4,2336.8 					"/>
				</g>
				<g>
					<polygon fill="#5E3112" points="802.5,2298.4 763.6,2259.5 772.6,2250.3 802.5,2280.1 834.7,2248 843.7,2257 					"/>
				</g>
			</g>
			<g>
				<g>
					<path fill="#5E3112" d="M639.8,2440.2c-34.2,0-62.3-27.8-62.3-62.3c0-32.2,26.3-94.2,62.3-94.2c36,0,62.3,62,62.3,94.2
						C702.1,2412.4,674.3,2440.2,639.8,2440.2z M639.8,2296.6c-25,0-49.4,51.5-49.4,81.3c0,27.3,22.1,49.4,49.4,49.4
						c27.3,0,49.4-22.1,49.4-49.4C689.2,2348.1,664.8,2296.6,639.8,2296.6z"/>
				</g>
				<g>
					<polygon fill="#5E3112" points="646.3,2467.5 633.4,2467.5 633.4,2434.6 633.1,2335.5 646,2335.2 646.3,2434.6 					"/>
				</g>
				<g>
					<polygon fill="#5E3112" points="640.3,2396.2 601.5,2357.3 610.5,2348.1 640.3,2377.9 672.5,2345.8 681.5,2354.8 					"/>
				</g>
			</g>
			<g>
				<g>
					<path fill="#5E3112" d="M928.1,2417.1c-34.2,0-62.3-27.8-62.3-62.3c0-36.3,28.1-66.9,61.5-66.9s63.1,31.1,63.1,66.9
						C990.4,2389.3,962.6,2417.1,928.1,2417.1z M927.3,2301c-25.7,0-48.6,25.2-48.6,54c0,27.3,22.1,49.4,49.4,49.4
						s49.4-22.1,49.4-49.4C977.5,2326.7,953.6,2301,927.3,2301z"/>
				</g>
				<g>
					<polygon fill="#5E3112" points="934.5,2459.8 921.7,2459.8 921.7,2426.8 921.4,2327.7 934.3,2327.5 934.5,2426.8 					"/>
				</g>
				<g>
					<polygon fill="#5E3112" points="928.6,2388.5 889.7,2349.6 898.7,2340.4 928.6,2370.2 960.8,2338 969.8,2347.1 					"/>
				</g>
			</g>
		</g>
	</g>
	<g display="inline">
		<g>
			<g>
				<path fill="#9F5B26" d="M-67.9,2973c-34.2,0-62.3-27.8-62.3-62.3c0-32.2,26.3-94.2,62.3-94.2s62.3,62,62.3,94.2
					C-5.7,2945.2-33.5,2973-67.9,2973z M-67.9,2829.4c-25,0-49.4,51.5-49.4,81.3c0,27.3,22.1,49.4,49.4,49.4s49.4-22.1,49.4-49.4
					C-18.5,2880.8-43,2829.4-67.9,2829.4z"/>
			</g>
			<g>
				<polygon fill="#9F5B26" points="-64.1,3000.3 -77,3000.3 -77,2967.3 -77.2,2868.2 -64.3,2868 -64.1,2967.3 				"/>
			</g>
			<g>
				<polygon fill="#9F5B26" points="-67.4,2929 -106.3,2890.1 -97.3,2880.8 -67.4,2910.7 -35.3,2878.5 -26.3,2887.5 				"/>
			</g>
		</g>
		<g>
			<g>
				<path fill="#9F5B26" d="M-209.5,3073.4c-34.2,0-62.3-27.8-62.3-62.3c0-36.3,28.1-66.9,61.5-66.9s63.1,31.1,63.1,66.9
					C-147.2,3045.6-175,3073.4-209.5,3073.4z M-210.3,2957.3c-25.7,0-48.6,25.2-48.6,54c0,27.3,22.1,49.4,49.4,49.4
					s49.4-22.1,49.4-49.4C-160.1,2983-184,2957.3-210.3,2957.3z"/>
			</g>
			<g>
				<polygon fill="#9F5B26" points="-205.6,3116.1 -218.5,3116.1 -218.5,3083.1 -218.8,2984.1 -205.9,2983.8 -205.6,3083.1 				"/>
			</g>
			<g>
				<polygon fill="#9F5B26" points="-209,3044.8 -247.9,3005.9 -238.8,2996.7 -209,3026.5 -176.8,2994.3 -167.8,3003.4 				"/>
			</g>
		</g>
		<g>
			<g>
				<path fill="#5E3112" d="M-62.8,2962.7c-34.2,0-62.3-27.8-62.3-62.3c0-32.2,26.3-94.2,62.3-94.2s62.3,62,62.3,94.2
					C-0.5,2934.9-28.3,2962.7-62.8,2962.7z M-62.8,2819.1c-25,0-49.4,51.5-49.4,81.3c0,27.3,22.1,49.4,49.4,49.4
					s49.4-22.1,49.4-49.4C-13.4,2870.5-37.8,2819.1-62.8,2819.1z"/>
			</g>
			<g>
				<polygon fill="#5E3112" points="-56.4,2990 -69.2,2990 -69.2,2957 -69.5,2857.9 -56.6,2857.7 -56.4,2957 				"/>
			</g>
			<g>
				<polygon fill="#5E3112" points="-62.3,2918.7 -101.1,2879.8 -92.1,2870.5 -62.3,2900.4 -30.1,2868.2 -21.1,2877.2 				"/>
			</g>
		</g>
		<g>
			<g>
				<path fill="#5E3112" d="M-204.4,3063.1c-34.2,0-62.3-27.8-62.3-62.3c0-36.3,28.1-66.9,61.5-66.9s63.1,31.1,63.1,66.9
					C-142.1,3035.3-169.9,3063.1-204.4,3063.1z M-205.1,2947c-25.7,0-48.6,25.2-48.6,54c0,27.3,22.1,49.4,49.4,49.4
					s49.4-22.1,49.4-49.4C-154.9,2972.7-178.9,2947-205.1,2947z"/>
			</g>
			<g>
				<polygon fill="#5E3112" points="-197.9,3105.8 -210.8,3105.8 -210.8,3072.8 -211,2973.8 -198.2,2973.5 -197.9,3072.8 				"/>
			</g>
			<g>
				<polygon fill="#5E3112" points="-203.8,3034.5 -242.7,2995.6 -233.7,2986.4 -203.8,3016.2 -171.7,2984.1 -162.7,2993.1 				"/>
			</g>
		</g>
	</g>
	<g display="inline">
		<g>
			<path fill="#9F5B26" d="M1518.8,1140.7c-34.2,0-62.3-27.8-62.3-62.3c0-36.3,28.1-66.9,61.5-66.9c33.5,0,63.1,31.1,63.1,66.9
				C1581,1112.7,1553,1140.7,1518.8,1140.7z M1518,1024.4c-25.7,0-48.6,25.2-48.6,54c0,27.3,22.1,49.4,49.4,49.4
				c27.3,0,49.4-22.1,49.4-49.4C1568.2,1050.1,1544.2,1024.4,1518,1024.4z"/>
		</g>
		<g>
			<polygon fill="#9F5B26" points="1523.9,1183.2 1511,1183.2 1511,1150.5 1510.8,1051.2 1523.7,1051.2 1523.9,1150.3 			"/>
		</g>
		<g>
			<polygon fill="#9F5B26" points="1519.3,1111.9 1480.4,1073.1 1489.4,1064 1519.3,1093.6 1551.2,1061.7 1560.5,1070.7 			"/>
		</g>
	</g>
	<g display="inline">
		<g>
			<path fill="#9F5B26" d="M1629.2,1230.8c-34.2,0-62.3-27.8-62.3-62.3c0-32.2,26.3-94.2,62.3-94.2s62.3,62,62.3,94.2
				C1691.5,1202.8,1663.4,1230.8,1629.2,1230.8z M1629.2,1087.2c-25,0-49.4,51.5-49.4,81.3c0,27.3,22.1,49.4,49.4,49.4
				s49.4-22.1,49.4-49.4C1678.6,1138.7,1654.1,1087.2,1629.2,1087.2z"/>
		</g>
		<g>
			<polygon fill="#9F5B26" points="1634.6,1257.8 1621.7,1257.8 1621.7,1225.2 1621.5,1125.8 1634.3,1125.8 1634.6,1225.2 			"/>
		</g>
		<g>
			<polygon fill="#9F5B26" points="1629.4,1186.6 1590.8,1147.7 1599.8,1138.7 1629.4,1168.5 1661.6,1136.4 1670.9,1145.4 			"/>
		</g>
	</g>
	<g display="inline">
		<g>
			<path fill="#5E3112" d="M1523.9,1127.9c-34.2,0-62.3-27.8-62.3-62.3c0-36.3,28.1-66.9,61.5-66.9c33.5,0,63.1,31.1,63.1,66.9
				C1586.2,1099.8,1558.1,1127.9,1523.9,1127.9z M1523.1,1011.5c-25.7,0-48.6,25.2-48.6,54c0,27.3,22.1,49.4,49.4,49.4
				c27.3,0,49.4-22.1,49.4-49.4C1573.3,1037.3,1549.4,1011.5,1523.1,1011.5z"/>
		</g>
		<g>
			<polygon fill="#5E3112" points="1529.1,1170.3 1516.2,1170.3 1516.2,1137.7 1515.9,1038.3 1528.8,1038.3 1529.1,1137.4 			"/>
		</g>
		<g>
			<polygon fill="#5E3112" points="1524.4,1099 1485.6,1060.2 1494.6,1051.2 1524.4,1080.8 1556.3,1048.9 1565.6,1057.9 			"/>
		</g>
	</g>
	<g display="inline">
		<g>
			<path fill="#5E3112" d="M1634.3,1218c-34.2,0-62.3-27.8-62.3-62.3c0-32.2,26.3-94.2,62.3-94.2c36,0,62.3,62,62.3,94.2
				C1696.6,1189.9,1668.6,1218,1634.3,1218z M1634.3,1074.3c-25,0-49.4,51.5-49.4,81.3c0,27.3,22.1,49.4,49.4,49.4
				c27.3,0,49.4-22.1,49.4-49.4C1683.7,1125.8,1659.3,1074.3,1634.3,1074.3z"/>
		</g>
		<g>
			<polygon fill="#5E3112" points="1639.7,1245 1626.9,1245 1626.9,1212.3 1626.6,1112.9 1639.5,1112.9 1639.7,1212.3 			"/>
		</g>
		<g>
			<polygon fill="#5E3112" points="1634.6,1173.7 1596,1134.8 1605,1125.8 1634.6,1155.7 1666.8,1123.5 1676,1132.5 			"/>
		</g>
	</g>
</g>
<g id="Layer_6" display="none">
	<g display="inline">
		<path fill="#603813" d="M2164.3,1813.8h-56.6V1788h56.6c8.8,0,17-2.1,24.7-5.7l11.6,23.2
			C2189.2,1810.9,2177.1,1813.8,2164.3,1813.8z M2051,1813.8h-56.6V1788h56.6V1813.8z M1937.8,1813.8h-56.6V1788h56.6V1813.8z
			 M1824.5,1813.8h-56.6V1788h56.6V1813.8z M1711.3,1813.8h-56.6V1788h56.6V1813.8z M1598,1813.8h-56.6V1788h56.6V1813.8z
			 M1484.8,1813.8h-56.6V1788h56.6V1813.8z M1371.5,1813.8h-56.6V1788h56.6V1813.8z M1258.3,1813.8h-56.6V1788h56.6V1813.8z
			 M1145.1,1813.8h-56.6V1788h56.6V1813.8z M1031.8,1813.8h-56.6V1788h56.6V1813.8z M918.6,1813.8h-56.6V1788h56.6V1813.8z
			 M805.3,1813.8h-56.6V1788h56.6V1813.8z M692.1,1813.8h-56.6V1788h56.6V1813.8z M578.8,1813.8h-56.6V1788h56.6V1813.8z
			 M465.6,1813.8H409V1788h56.6V1813.8z M352.3,1813.8h-56.6V1788h56.6V1813.8z M239.1,1813.8H219c-14.7,0-28.8-3.9-41.4-11.3
			l13.1-22.1c8.5,5.1,18.3,7.7,28.3,7.7h20.1V1813.8z M2242.2,1755.1l-24.7-7.2c1.5-4.9,2.1-10,2.1-15.2v-37.6h25.7v37.6
			C2245.6,1740.2,2244.3,1747.9,2242.2,1755.1z M139.8,1749.2c-1-5.4-1.8-11.1-1.8-16.7V1690h25.7v42.5c0,3.9,0.5,7.7,1.3,11.3
			L139.8,1749.2z M2245.6,1638.5h-25.7v-56.6h25.7V1638.5z M163.7,1633.4H138v-56.6h25.7V1633.4z M2245.6,1525.3h-25.7v-56.6h25.7
			V1525.3z M163.7,1520.1H138v-56.6h25.7V1520.1z M2245.6,1412h-25.7v-56.6h25.7V1412z M163.7,1406.9H138v-56.6h25.7V1406.9z
			 M2245.6,1298.8h-25.7v-56.6h25.7V1298.8z M163.7,1293.6H138V1237h25.7V1293.6z M2245.6,1185.5h-25.7v-26.8
			c0-8.2-1.8-16.2-5.1-23.4l23.4-10.8c5.1,10.8,7.7,22.4,7.7,34.5v26.5H2245.6z M163.7,1180.4H138v-21.9c0-13.9,3.6-27.5,10.3-39.6
			l22.4,12.6c-4.6,8.2-6.9,17.5-6.9,27C163.7,1158.5,163.7,1180.4,163.7,1180.4z M2181,1106c-5.4-1.8-10.8-2.6-16.5-2.6h-36v-25.7
			h35.8c8.2,0,16.5,1.3,24.2,3.6L2181,1106z M206.4,1104.7l-5.9-25c5.9-1.3,12.4-2.1,18.5-2.1h40.9v25.7H219
			C214.9,1103.4,210.5,1103.9,206.4,1104.7z M2071.9,1103.4h-56.6v-25.7h56.6V1103.4z M1958.6,1103.4H1902v-25.7h56.6V1103.4z
			 M1845.4,1103.4h-56.6v-25.7h56.6V1103.4z M1732.1,1103.4h-56.6v-25.7h56.6V1103.4z M1618.9,1103.4h-56.6v-25.7h56.6V1103.4z
			 M1505.6,1103.4H1449v-25.7h56.6V1103.4z M1392.4,1103.4h-56.6v-25.7h56.6V1103.4z M1279.1,1103.4h-56.6v-25.7h56.6V1103.4z
			 M1165.9,1103.4h-56.6v-25.7h56.6V1103.4z M1052.7,1103.4H996v-25.7h56.6V1103.4z M939.4,1103.4h-56.6v-25.7h56.6V1103.4z
			 M826.2,1103.4h-56.6v-25.7h56.6V1103.4z M712.9,1103.4h-56.6v-25.7h56.6V1103.4z M599.7,1103.4h-56.6v-25.7h56.6V1103.4z
			 M486.4,1103.4h-56.6v-25.7h56.6V1103.4z M373.2,1103.4h-56.6v-25.7h56.6V1103.4z"/>
	</g>
</g>
<g id="Layer_7" display="none">
	<rect x="-1025.4" y="1195.6" display="inline" fill="#E5E5E5" width="3513.9" height="3004.1"/>
	<g display="inline">
		<path fill="#5E3112" d="M-1030.3,1482.8l37.8-30.6h57.7L-950,1483l54,45.8l46.3-19.3l54-18.8l61.5,38.6h59.2v-77.2l64.3,38.6
			c0,0,35,16,50.4,0c15.4-16,41.2-38.6,41.2-38.6s105.5-11.1,117.1,0c11.6,11.1,0,77.2,0,77.2s23.2,18.8,61.8,22.6s60-3.9,66.7,0
			s33.7-57.7,53-52c19.3,5.7,69.5-9.5,96.5,0c27,9.5-43.2,18.8-43.2,18.8s-14.7,12.1,31.7,34.2c46.3,22.1,155.2,0,155.2,0
			l-43.8,49.2v37.8v35.5l28.3,34l56.6-30.1c0,0,42.7,38.6,54.3,38.6s57.9-19.3,57.9-19.3l26.8,36.5c0,0,41.2,16.7,56.6,5.1
			s69.5,8.5,69.5,8.5s57.4-22.9,62.3-22.9c4.9,0,28.1,0,51.2,7.7s80.6,15.2,80.6,15.2s12.1-30.4,27.5-30.4
			c15.4,0,9.8,11.8,43.5,11.8c33.7,0,84.9,0,84.9,0l72.3-12.1l107.8-27c0,0,65.1-27,69.2-27s85.2,11.6,96.8,11.6s70.3-3.9,98.8,0
			s86.5,7.7,105.8,15.4s71.3,15.4,91.6,15.4c20.3,0,133.6-61.5,148.2-61.5c14.7,0,6.9-19.6,18.5-19.6s-12.4,40.4-12.4,40.4
			s12.4,0.8,36.8-2.6c21.9-3.1,28.6-31.7,28.6-31.7s4.9-5.9-8.8-12.1c-30.4-13.4-25.2-72.8-25.2-71.3c0,1.5,167.6,19.8,167.6,19.8
			l37.6-39.1c0,0,34.7-27,57.9-27c23.2,0,50.7,19.3,75.4,19.3c25,0,73.6,7.7,73.6,7.7s-20.8-19,0-26.8s36.3-19,36.3-19h35.8
			l41.2-12.1v-23.9l96.8,23.2h55.1l33.7-23.2h89.8l14.4,58.7c0,0,19.3,11.8,42.5,11.8s77.2-19,77.2-19h46.1l2.8-275.4h-3513.1
			L-1030.3,1482.8z"/>
		<path fill="#9F5B26" d="M-1030.3,1470.4l37.8-30.6h57.7l-15.2,30.9l54,45.8l46.3-19.3l54-18.8l61.5,38.6h59.2v-77.2l64.3,38.6
			c0,0,35,16,50.4,0c15.4-16,41.2-38.6,41.2-38.6s105.5-11.1,117.1,0c11.6,11.1,0,77.2,0,77.2s23.2,18.8,61.8,22.6s60-3.9,66.7,0
			s33.7-57.7,53-52s69.5-9.5,96.5,0s-43.2,18.8-43.2,18.8s-14.7,12.1,31.7,34.2c46.3,22.1,155.2,0,155.2,0l-43.8,49.2v37.8v35.5
			l28.3,34l56.6-30.1c0,0,42.7,38.6,54.3,38.6s57.9-19.3,57.9-19.3l26.8,36.5c0,0,41.2,16.7,56.6,5.1s69.5,8.5,69.5,8.5
			s57.4-22.9,62.3-22.9c4.9,0,28.1,0,51.2,7.7s80.6,15.2,80.6,15.2s12.1-30.4,27.5-30.4c15.4,0,9.8,11.8,43.5,11.8
			c33.7,0,84.9,0,84.9,0l72.3-12.1l107.8-27c0,0,65.1-27,69.2-27s85.2,11.6,96.8,11.6s70.3-3.9,98.8,0s86.5,7.7,105.8,15.4
			s71.3,15.4,91.6,15.4c20.3,0,133.6-61.5,148.2-61.5c14.7,0,6.9-19.6,18.5-19.6s-12.4,40.4-12.4,40.4s12.4,0.8,36.8-2.6
			c21.9-3.1,28.6-31.7,28.6-31.7s4.9-5.9-8.8-12.1c-30.4-13.4-25.2-72.8-25.2-71.3s167.6,19.8,167.6,19.8l37.6-39.1
			c0,0,34.7-27,57.9-27c23.2,0,50.7,19.3,75.4,19.3c25,0,73.6,7.7,73.6,7.7s-20.8-19,0-26.8s36.3-19,36.3-19h35.8l41.2-12.1v-23.9
			l96.8,23.2h55.1l33.7-23.2h89.8l14.4,58.7c0,0,19.3,11.8,42.5,11.8s77.2-19,77.2-19h46.1l2.8-275.4h-3513.1L-1030.3,1470.4z"/>
		<path fill="#CDA34F" d="M-1030.3,1455l37.8-30.6h57.7l-15.2,30.9l54,45.8l46.3-19.3l54-18.8l61.5,38.6h59.2v-77.2l64.3,38.6
			c0,0,35,16,50.4,0c15.4-16,41.2-38.6,41.2-38.6s105.5-11.1,117.1,0c11.6,11.1,0,77.2,0,77.2s23.2,18.8,61.8,22.6s60-3.9,66.7,0
			s33.7-57.7,53-52s69.5-9.5,96.5,0S-167,1491-167,1491s-14.7,12.1,31.7,34.2s155.2,0,155.2,0l-43.8,49.2v37.8v35.5l28.3,34
			l56.6-30.1c0,0,42.7,38.6,54.3,38.6s57.9-19.3,57.9-19.3l26.8,36.5c0,0,41.2,16.7,56.6,5.1c15.4-11.6,69.5,8.5,69.5,8.5
			s57.4-22.9,62.3-22.9c4.9,0,28.1,0,51.2,7.7s80.6,15.2,80.6,15.2s12.1-30.4,27.5-30.4c15.4,0,9.8,11.8,43.5,11.8
			c33.7,0,84.9,0,84.9,0l72.3-12.1l107.8-27c0,0,65.1-27,69.2-27s85.2,11.6,96.8,11.6s70.3-3.9,98.8,0s86.5,7.7,105.8,15.4
			c19.3,7.7,71.3,15.4,91.6,15.4c20.3,0,133.6-61.5,148.2-61.5c14.7,0,6.9-19.6,18.5-19.6s-12.4,40.4-12.4,40.4s12.4,0.8,36.8-2.6
			c21.9-3.1,28.6-31.7,28.6-31.7s4.9-5.9-8.8-12.1c-30.4-13.4-25.2-72.8-25.2-71.3c0,1.5,167.6,19.8,167.6,19.8l37.6-39.1
			c0,0,34.7-27,57.9-27c23.2,0,50.7,19.3,75.4,19.3c25,0,73.6,7.7,73.6,7.7s-20.8-19,0-26.8c20.8-7.7,36.3-19,36.3-19h35.8
			l41.2-12.1v-23.9l96.8,23.2h55.1l33.7-23.2h89.8l14.4,58.7c0,0,19.3,11.8,42.5,11.8s77.2-19,77.2-19h46.1l2.8-275.4h-3513.1
			L-1030.3,1455z"/>
	</g>
	<g display="inline">
		<path fill="#5E3112" d="M330.7,4066.6l3.9-17.5l8.5,3.6l6.7,9.8c0,0,14.2,4.9,11.3,11.6c-3.1,6.7-8.2,14.7-8.2,14.7h-6.7h-11.3
			l1.5-15.2L330.7,4066.6z"/>
		<path fill="#9F5B26" d="M330.7,4062.2l3.9-17.5l8.5,3.6l6.7,9.8c0,0,14.2,4.6,11.3,11.3c-3.1,6.7-8.2,14.4-8.2,14.4h-6.7h-11.3
			l1.5-14.7L330.7,4062.2z"/>
		<g>
			<path fill="#5E3112" d="M1104.4,4029.5c0,0-25.2,13.6-9.8,27.3c15.4,13.4,14.9,13.6,14.9,13.6v-17.5h26h15.2v-20.6h14.2
				l-8.2-15.4h-14.2h-15.7l1,8.5L1104.4,4029.5z"/>
			<polygon fill="#5E3112" points="308.3,4041.6 319.4,4040.8 319.4,4042.9 307,4047.5 304,4046 298.6,4033.9 			"/>
			<path fill="#9F5B26" d="M1104.4,4022.3c0,0-25.2,13.6-9.8,27.3c15.4,13.4,14.9,13.6,14.9,13.6v-18h26h15.2v-18h14.2l-8.2-18
				h-14.2h-15.7l1,8.8L1104.4,4022.3z"/>
			<polygon fill="#9F5B26" points="308.3,4039 319.4,4035.9 319.4,4040.8 307,4045.2 304,4043.4 298.6,4033.9 			"/>
		</g>
		<g>
			<path fill="#F6921E" d="M1104.4,4013c0,0-25.2,13.6-9.8,27.3c15.4,13.4,14.9,13.6,14.9,13.6v-16.5h26h15.2v-20.6h14.2l-8.2-15.4
				h-14.2h-15.7l1,8L1104.4,4013z"/>
			<path fill="#F6921E" d="M330.7,4052.9l3.9-17.5l8.5,3.6l6.7,9.8c0,0,14.2,5.4,11.3,12.1c-3.1,6.7-8.2,15.2-8.2,15.2h-6.7h-11.3
				l1.5-15.4L330.7,4052.9z"/>
			<polygon fill="#F6921E" points="307.8,4034.9 319.4,4034.9 319.4,4035.9 307,4040.3 304,4039 298,4034.9 			"/>
		</g>
	</g>
</g>
<g id="Layer_8" display="none">
	<g display="inline">
		<path fill="#603813" d="M1733.7,3646.8h-51.5v-25.7h51.5c4.9,0,9.5-0.5,14.4-1.5l5.4,25.2
			C1747.1,3646,1740.4,3646.8,1733.7,3646.8z M1630.7,3646.8h-51.5v-25.7h51.5V3646.8z M1527.8,3646.8h-51.5v-25.7h51.5V3646.8z
			 M1424.8,3646.8h-51.5v-25.7h51.5V3646.8z M1321.9,3646.8h-51.5v-25.7h51.5V3646.8z M1218.9,3646.8h-51.5v-25.7h51.5V3646.8z
			 M1116,3646.8h-51.5v-25.7h51.5V3646.8z M1013,3646.8h-51.5v-25.7h51.5V3646.8z M910.1,3646.8h-51.5v-25.7h51.5V3646.8z
			 M807.1,3646.8h-51.5v-25.7h51.5V3646.8z M704.2,3646.8h-51.5v-25.7h51.5V3646.8z M601.2,3646.8h-51.5v-25.7h51.5V3646.8z
			 M498.3,3646.8h-51.5v-25.7h51.5V3646.8z M395.3,3646.8h-51.5v-25.7h51.5V3646.8z M292.4,3646.8h-51.5v-25.7h51.5V3646.8z
			 M189.4,3646.8H138v-25.7h51.5V3646.8z M86.5,3646.8H35v-25.7h51.5V3646.8z M-16.5,3646.8h-51.5v-25.7h51.5
			C-16.5,3621.1-16.5,3646.8-16.5,3646.8z M-119.4,3646.8h-51.5v-25.7h51.5V3646.8z M-227,3636.8c-17.8-9-32.4-23.9-41.4-41.7
			l23.2-11.3c6.4,12.9,17,23.7,29.9,30.1L-227,3636.8z M1803.7,3614.1l-19.6-16.7c9.5-11.1,14.9-24.7,15.7-39.4l25.7,1.3
			C1824.5,3579.9,1816.8,3598.7,1803.7,3614.1z M-252,3539.2h-25.7v-51.5h25.7V3539.2z M1825.5,3507.5h-25.7v-51.5h25.7V3507.5z
			 M-252,3436.3h-25.7v-51.5h25.7V3436.3z M1825.5,3404.6h-25.7v-51.5h25.7V3404.6z M-252,3333.3h-25.7v-51.5h25.7V3333.3z
			 M1825.5,3301.6h-25.7v-51.5h25.7V3301.6z M-252,3230.4h-25.7v-51.5h25.7V3230.4z M1825.5,3198.7h-25.7v-51.5h25.7V3198.7z
			 M-252,3127.4h-25.7v-51.5h25.7V3127.4z M1825.5,3095.8h-25.7v-51.5h25.7V3095.8z M-252,3024.5h-25.7V2973h25.7V3024.5z
			 M1825.5,2992.8h-25.7v-51.5h25.7V2992.8z M-252,2921.5h-25.7V2870h25.7V2921.5z M1825.5,2889.9h-25.7v-51.5h25.7V2889.9z
			 M-252,2818.6h-25.7v-51.5h25.7V2818.6z M1825.5,2786.9h-25.7v-51.5h25.7V2786.9z M-252,2715.6h-25.7v-51.5h25.7V2715.6z
			 M1825.5,2684h-25.7v-51.5h25.7V2684z M-252,2612.7h-25.7v-51.5h25.7V2612.7z M1825.5,2581h-25.7v-51.5h25.7V2581z M-252,2509.7
			h-25.7v-51.5h25.7V2509.7z M1825.5,2478.1h-25.7v-51.5h25.7V2478.1z M-252,2406.8h-25.7v-51.5h25.7V2406.8z M1825.5,2375.1h-25.7
			v-51.5h25.7V2375.1z M-252,2303.8h-25.7v-51.5h25.7V2303.8z M1825.5,2272.2h-25.7v-51.5h25.7V2272.2z M-252,2200.9h-25.7v-51.5
			h25.7V2200.9z M1825.5,2169.2h-25.7v-51.5h25.7V2169.2z M-252,2097.9h-25.7v-51.5h25.7V2097.9z M1825.5,2066.3h-25.7v-51.5h25.7
			V2066.3z M-252,1995h-25.7v-51.5h25.7V1995z M1825.5,1963.3h-25.7v-51.5h25.7V1963.3z M-250.9,1894.1l-25.5-4.1
			c3.1-19.8,12.9-38.1,27.5-52l17.8,18.8C-241.7,1866.8-248.6,1879.9-250.9,1894.1z M1789.8,1869.4c-7.7-12.1-19.3-21.6-32.9-26.8
			l9-24.2c18.8,6.9,35,20.1,45.6,37.1L1789.8,1869.4z M-192.8,1839l-2.8-25.5c3.3-0.3,6.7-0.5,10-0.5h43v25.7h-43
			C-187.9,1838.5-190.5,1838.7-192.8,1839z M1710.5,1838.5H1659v-25.7h51.5V1838.5z M1607.6,1838.5h-51.5v-25.7h51.5V1838.5z
			 M1504.6,1838.5h-51.5v-25.7h51.5V1838.5z M1401.7,1838.5h-51.5v-25.7h51.5V1838.5z M1298.7,1838.5h-51.5v-25.7h51.5V1838.5z
			 M1195.8,1838.5h-51.5v-25.7h51.5V1838.5z M1092.8,1838.5h-51.5v-25.7h51.5V1838.5z M989.9,1838.5h-51.5v-25.7h51.5V1838.5z
			 M886.9,1838.5h-51.5v-25.7h51.5V1838.5z M784,1838.5h-51.5v-25.7H784V1838.5z M681,1838.5h-51.5v-25.7H681V1838.5z M578.1,1838.5
			h-51.5v-25.7h51.5V1838.5z M475.1,1838.5h-51.5v-25.7h51.5V1838.5z M372.2,1838.5h-51.5v-25.7h51.5V1838.5z M269.2,1838.5h-51.5
			v-25.7h51.5V1838.5z M166.3,1838.5h-51.5v-25.7h51.5V1838.5z M63.3,1838.5H11.8v-25.7h51.5V1838.5z M-39.6,1838.5h-51.5v-25.7
			h51.5C-39.6,1812.7-39.6,1838.5-39.6,1838.5z"/>
	</g>
</g>
<rect x="0" y="1492.3" fill="#E5E5E5" width="3513.9" height="1971.1"/>
<path fill="#5E3112" d="M1750.7,1522.4l-1692,0.3l0.5,1910l523.8,35.8c0,0-51.2-70.3-47.1-77.7c4.1-7.5-53.8-22.4-53.8-22.4
	s-109.4-19.8-116.8-14.9s-54.8,2.6-101.9,0s-54.8-12.4-62.3-19.8c-7.5-7.5-12.4-94.5-12.4-94.5l99.6-136.9c0,0-62.3-19.8-79.5-29.9
	c-17.5-10-7.5-72.1,0-82.1s25-47.4,25-47.4s69.7-57.1,72.3-67.2c2.6-10,34.2-124.3,34.2-124.3l-34.7,32.4l-57.7-216.5v-49.7
	l17.2-74.6c0,0-6.7-42.2,0.3-59.7c6.7-17.5,40.7-97,40.7-97l31.9,39.6l60-161.4c0,0,12.6-14.9,47.1-37.3
	c34.5-22.4,36.5-62.3,36.5-62.3l-8-32.2l-13.6-59.5h55.6c0,0,11.6-22.6,20.6-45s13.4-27.5,28.3-59.7c14.9-32.4,59.7-27.5,72.1-27.5
	s77.2,10,77.2,10l-59.5,82.4c0,0,99.3,12.1,106.8,7.2c7.5-4.9,12.4-19.8,25-32.4c12.6-12.6,52.2-49.7,52.2-49.7s25,14.9,34.7,17.5
	c10,2.6,47.4,22.4,47.4,22.4l27.3-52.2l49.7,25l10,19.8c0,0,22.4,27.3,39.9,10c17.5-17.5,53.8-12.4,53.8-12.4s18.3,27.3,28.3,27.3
	c10,0,54.8-44.3,62.3-49.2c7.5-4.9,97-24.5,97-24.5s69.7,0,77.2,0c7.5,0,59.7,0,59.7,0s12.4,0,34.7,0c22.4,0,27.3,0,27.3,0
	l42.2-47.9l37.3-10.3l54.8,2.6l12.4,32.4h116.8h117.1l12.6-32.4l55.1-2.6l37.6,10.6l42.5,47.9c0,0,4.9,0,27.5,0c22.4,0,35,0,35,0
	s52.5,0,60,0s77.5,0,77.5,0s89.8,19.3,97.5,24.5c7.5,4.9,52.5,49.4,62.5,49.4s28.6-27.5,28.6-27.5s36.5-5.1,54,12.4
	c17.5,17.5,39.9-10,39.9-10l10-19.8l49.9-25l27.5,52.2c0,0,37.6-19.8,47.4-22.4c10-2.6,35-17.5,35-17.5s39.9,37.3,52.5,49.7
	c12.6,12.4,17.5,27.3,25,32.4c7.5,4.9,107.1-7.2,107.1-7.2l-59.7-82.4c0,0,64.9-10,77.5-10s57.4-4.9,72.6,27.3
	c14.9,32.4,19.6,37.6,28.6,60c9,22.4,20.6,45,20.6,45h55.8l-13.6,59.5l-8,32.2c0,0,2.1,39.6,36.8,62c34.7,22.4,47.4,37.3,47.4,37.3
	l60.2,161.4l31.9-39.6c0,0,34,79.5,40.7,97c6.9,17.5,1,59.7,1,59.7l17.8,74.6v49.7l-58.4,216.5l-31.9-30.6
	c0,0,28.8,112.7,31.4,122.5c2.6,10,72.3,67.2,72.3,67.2s17.5,37.3,25,47.4c7.5,10,17.5,72.1,0,82.1c-17.5,10-80,29.9-80,29.9
	l99.9,136.9c0,0-4.9,87-12.6,94.5c-7.5,7.5-14.9,17.5-62.5,19.8c-47.4,2.6-95,4.9-102.4,0s-117.4,14.9-117.4,14.9
	s-57.9,14.9-54,22.4c4.1,7.5-37.8,78-37.8,78l516.5-36l0.5-1910L1750.7,1522.4z"/>
<path fill="#5E3112" d="M388.6,3369.1c0,0,332.6-3,368.6,21c36,24,105,39,105,39l138-30c0,0,105-3,123,0c18,3,153,0,153,0l45,30
	c0,0,72,9,81,0c9-9,48-26.1,72-28c24-2,0-1,111,0c111,1,576.1-44.1,585.1-32s132,31,132,31l-12,33.1l147-16c0,0,48-16.1,72-17.1
	s237-14.1,255,0c18,14.1,189-33.1,189-33.1l245.9-3.4l12.1,82.9H370.2L388.6,3369.1z"/>
<path fill="#9F5B26" d="M388.6,3379.5c0,0,332.6-3,368.6,21c36,24,105,39,105,39l138-30c0,0,105-3,123,0c18,3,153,0,153,0l45,30
	c0,0,72,9,81,0c9-9,48-26.1,72-28c24-2,0-1,111,0s576.1-44.1,585.1-32s132,31,132,31l-12,33.1l147-16c0,0,48-16.1,72-17.1
	s237-14.1,255,0c18,14.1,189-33.1,189-33.1l245.9-3.4l12.1,82.9H370.2L388.6,3379.5z"/>
<path fill="#9F5B26" d="M1750.7,1507.8l-1722.9,0.5l0.5,1945l528.1,15.4c0,0-46.8-51-42.7-58.4c4.1-7.7-54.8-22.9-54.8-22.9
	s-111.4-20.3-119.2-15.2c-7.7,5.1-55.9,2.6-103.7,0s-55.9-12.6-63.3-20.3c-7.7-7.7-12.6-96.3-12.6-96.3l101.4-139.2
	c0,0-63.3-20.3-81.1-30.4c-17.8-10-7.7-73.4,0-83.6s25.2-48.1,25.2-48.1s71-58.2,73.6-68.5c2.6-10,60.7-134.3,60.7-134.3l-60.2,40.4
	l-57.9-220.3v-50.7l16.5-75.9c0,0-7.2-43-0.3-60.7c6.9-17.8,41.2-98.8,41.2-98.8l58.2,40.4l35.3-164.7c0,0,12.9-15.2,48.1-38.1
	s37.3-63.3,37.3-63.3l-8-33.2l-13.9-61h56.6c0,0,11.8-22.4,20.8-45.3c9-22.9,13.6-27.8,28.8-60.7c15.2-32.9,60.7-27.8,73.4-27.8
	s78.5,10.3,78.5,10.3l-40.7,91.4c0,0,81.1,5.1,88.5,0s12.6-20.3,25.2-32.9c12.6-12.6,53.3-50.7,53.3-50.7s25.2,15.2,35.5,17.8
	c10,2.6,48.1,22.9,48.1,22.9l27.8-53.3l50.7,25.2l10,20.3c0,0,22.9,27.8,40.4,10c17.5-17.8,54.8-12.6,54.8-12.6s18.8,27.8,28.8,27.8
	c10,0,55.9-45.6,63.3-50.7c7.7-5.1,98.8-25.5,98.8-25.5s71,0,78.5,0c7.5,0,60.7,0,60.7,0s12.6,0,35.5,0c22.9,0,27.8,0,27.8,0
	l43-48.1l38.1-10l55.9,2.3l12.6,32.7h119.2h119.2l12.6-32.7l55.9-2.3l38.1,10l43.2,48.1c0,0,5.1,0,28.1,0c22.9,0,35.5,0,35.5,0
	s53.5,0,61,0c7.7,0,78.8,0,78.8,0s91.6,20.3,99.3,25.5s53.5,50.7,63.6,50.7s29.1-27.8,29.1-27.8s37.1-5.1,55.1,12.6
	c18,17.8,40.7-10,40.7-10l10.3-20.3l51-25.2l28.1,53.3c0,0,38.1-20.3,48.4-22.9s35.5-17.8,35.5-17.8s40.7,38.1,53.5,50.7
	c12.6,12.6,17.8,27.8,25.5,32.9s89.1,0,89.1,0l-40.7-91.1c0,0,66.1-10,78.8-10s58.4-5.1,73.9,27.8c15.4,32.9,19.8,37.6,29.1,60.5
	c9.3,22.9,21.1,45.3,21.1,45.3h56.9l-13.9,61l-8,33.2c0,0,2.1,40.7,37.6,63.3c35.3,22.9,48.4,38.1,48.4,38.1l35.5,164.7l58.4-40.4
	c0,0,34.5,81.1,41.4,98.8c6.9,17.8,0,60.7,0,60.7l17.2,75.9v50.7l-58.7,220.3l-61-40.4c0,0,58.4,124.1,61,134.3s73.9,68.5,73.9,68.5
	s17.8,38.1,25.5,48.1s17.8,73.4,0,83.6c-17.8,10-81.3,30.4-81.3,30.4l101.7,139.2c0,0-5.1,88.5-12.6,96.3
	c-7.7,7.7-15.2,17.8-63.6,20.3s-96.8,5.1-104.2,0s-119.7,15.2-119.7,15.2s-58.9,15.4-55.1,23.2c4.1,7.7-43,58.4-43,58.4l530.4-15.4
	l0.5-1945L1750.7,1507.8z"/>
<path fill="#CDA34F" d="M1750.4,1492.1L0,1492.3l0.3,1976.4h540.5c0,0-51.5-35.8-47.4-43.5c4.1-7.7-55.6-23.4-55.6-23.4
	s-113.2-20.6-121-15.4c-7.7,5.1-56.6,2.6-105.5,0s-56.6-12.9-64.3-20.6c-7.7-7.7-12.9-97.8-12.9-97.8L237,3126.4
	c0,0-64.3-20.6-82.4-30.9s-7.7-74.6,0-84.9c7.7-10.3,25.7-48.9,25.7-48.9s72.1-59.2,74.6-69.5c2.6-10.3,84.7-140.8,84.7-140.8
	l-84.7,45.6L195.9,2573v-51.5l17.2-77.2c0,0-6.9-43.8,0-61.8c6.9-18,42-100.4,42-100.4l82.1,43.8l12.9-169.9
	c0,0,13.1-15.4,48.9-38.6s37.8-64.3,37.8-64.3l-8.2-33.5l-13.9-61.8h57.7c0,0,11.8-23.2,21.4-46.3c9.5-23.2,13.9-28.3,29.3-61.8
	c15.4-33.5,61.8-28.3,74.6-28.3c12.9,0,79.8,10.3,79.8,10.3L654,1933.2c0,0,64.6-3.6,72.3-8.8c7.7-5.1,12.9-20.6,25.7-33.5
	c12.9-12.9,54-51.5,54-51.5s25.7,15.4,36,18c10.3,2.6,48.9,23.2,48.9,23.2l28.3-54l51.5,25.7l10.3,20.6c0,0,23.2,28.3,41.2,10.3
	c18-18,55.6-12.9,55.6-12.9s19,28.3,29.3,28.3s56.6-46.3,64.3-51.5c7.7-5.1,100.4-25.7,100.4-25.7s72.1,0,79.8,0s61.8,0,61.8,0
	s12.9,0,36,0c23.2,0,28.3,0,28.3,0l43.8-48.9l38.6-10.3l56.6,2.6l12.9,33.5h121h121.2l12.9-33.5l56.9-2.6l38.9,10.3l44,48.9
	c0,0,5.1,0,28.3,0c23.2,0,36.3,0,36.3,0s54.3,0,62,0s80,0,80,0s93.2,20.6,100.9,25.7s54.3,51.5,64.6,51.5s29.3-28.3,29.3-28.3
	s37.8-5.1,55.9,12.9c18,18,41.4-10.3,41.4-10.3l10.3-20.6l51.7-25.7l28.3,54c0,0,38.9-20.6,49.2-23.2s36.3-18,36.3-18
	s41.4,38.6,54.3,51.5c12.9,12.9,18,28.3,25.7,33.5s72.8,8.8,72.8,8.8l-23.7-101.4c0,0,67.2-10.3,80-10.3s59.5-5.1,74.9,28.3
	c15.4,33.5,20.1,38.6,29.3,61.8s21.4,46.3,21.4,46.3h57.9l-14.2,61.8l-8.2,33.5c0,0,2.1,41.2,38.1,64.3c36,23.2,49.2,38.6,49.2,38.6
	l13.1,169.9l82.1-43.8c0,0,35,82.4,42.2,100.4c6.9,18,0.5,61.8,0.5,61.8l18,77.2v51.5l-60.2,223.9l-85.4-45.6
	c0,0,82.4,130.5,84.9,140.8s74.9,69.5,74.9,69.5s18,38.6,25.7,48.9c7.7,10.3,18,74.6,0,84.9s-82.6,30.9-82.6,30.9l103.5,141.6
	c0,0-5.1,90.1-12.9,97.8s-15.4,18-64.6,20.6c-49.2,2.6-98.3,5.1-106,0s-121.5,15.4-121.5,15.4s-60,15.7-55.8,23.4
	c4.1,7.7-47.6,43.5-47.6,43.5l549-0.3V1492.3L1750.4,1492.1z"/>
<g>
	<g>
		<g>
			<g>
				<path fill="#9F5B26" d="M163.7,2895.8c-34.2,0-62.3-27.8-62.3-62.3c0-32.2,26.3-94.2,62.3-94.2s62.3,62,62.3,94.2
					C226,2868,198.2,2895.8,163.7,2895.8z M163.7,2752.2c-25,0-49.4,51.5-49.4,81.3c0,27.3,22.1,49.4,49.4,49.4s49.4-22.1,49.4-49.4
					C213.1,2803.6,188.7,2752.2,163.7,2752.2z"/>
			</g>
			<g>
				<polygon fill="#9F5B26" points="167.5,2923.1 154.7,2923.1 154.7,2890.1 154.4,2791 167.3,2790.8 167.5,2890.1 				"/>
			</g>
			<g>
				<polygon fill="#9F5B26" points="164.2,2851.8 125.3,2812.9 134.3,2803.6 164.2,2833.5 196.4,2801.3 205.4,2810.3 				"/>
			</g>
		</g>
		<g>
			<g>
				<path fill="#5E3112" d="M168.8,2885.5c-34.2,0-62.3-27.8-62.3-62.3c0-32.2,26.3-94.2,62.3-94.2s62.3,62,62.3,94.2
					C231.1,2857.7,203.3,2885.5,168.8,2885.5z M168.8,2741.9c-25,0-49.4,51.5-49.4,81.3c0,27.3,22.1,49.4,49.4,49.4
					s49.4-22.1,49.4-49.4C218.3,2793.3,193.8,2741.9,168.8,2741.9z"/>
			</g>
			<g>
				<polygon fill="#5E3112" points="175.3,2912.8 162.4,2912.8 162.4,2879.8 162.1,2780.7 175,2780.5 175.3,2879.8 				"/>
			</g>
			<g>
				<polygon fill="#5E3112" points="169.4,2841.5 130.5,2802.6 139.5,2793.3 169.4,2823.2 201.5,2791 210.5,2800 				"/>
			</g>
		</g>
	</g>
	<g>
		<g>
			<g>
				<path fill="#9F5B26" d="M3378.3,2365.6c-34.2,0-62.3-27.8-62.3-62.3c0-32.2,26.3-94.2,62.3-94.2s62.3,62,62.3,94.2
					C3440.6,2337.8,3412.8,2365.6,3378.3,2365.6z M3378.3,2222c-25,0-49.4,51.5-49.4,81.3c0,27.3,22.1,49.4,49.4,49.4
					s49.4-22.1,49.4-49.4C3427.7,2273.4,3403.2,2222,3378.3,2222z"/>
			</g>
			<g>
				<polygon fill="#9F5B26" points="3382.1,2392.9 3369.3,2392.9 3369.3,2359.9 3369,2260.8 3381.9,2260.6 3382.1,2359.9 				"/>
			</g>
			<g>
				<polygon fill="#9F5B26" points="3378.8,2321.6 3339.9,2282.7 3348.9,2273.4 3378.8,2303.3 3411,2271.1 3420,2280.1 				"/>
			</g>
		</g>
		<g>
			<g>
				<path fill="#5E3112" d="M3383.4,2355.3c-34.2,0-62.3-27.8-62.3-62.3c0-32.2,26.3-94.2,62.3-94.2s62.3,62,62.3,94.2
					C3445.7,2327.5,3417.9,2355.3,3383.4,2355.3z M3383.4,2211.7c-25,0-49.4,51.5-49.4,81.3c0,27.3,22.1,49.4,49.4,49.4
					s49.4-22.1,49.4-49.4C3432.8,2263.1,3408.4,2211.7,3383.4,2211.7z"/>
			</g>
			<g>
				<polygon fill="#5E3112" points="3389.9,2382.6 3377,2382.6 3377,2349.6 3376.7,2250.5 3389.6,2250.3 3389.9,2349.6 				"/>
			</g>
			<g>
				<polygon fill="#5E3112" points="3383.9,2311.3 3345.1,2272.4 3354.1,2263.1 3383.9,2293 3416.1,2260.8 3425.1,2269.8 				"/>
			</g>
		</g>
	</g>
	<g>
		<g>
			<g>
				<path fill="#9F5B26" d="M3270.2,2198.3c-34.2,0-62.3-27.8-62.3-62.3c0-36.3,28.1-66.9,61.5-66.9c33.5,0,63.1,31.1,63.1,66.9
					C3332.5,2170.5,3304.7,2198.3,3270.2,2198.3z M3269.4,2082.2c-25.7,0-48.6,25.2-48.6,54c0,27.3,22.1,49.4,49.4,49.4
					c27.3,0,49.4-22.1,49.4-49.4C3319.6,2108,3295.7,2082.2,3269.4,2082.2z"/>
			</g>
			<g>
				<polygon fill="#9F5B26" points="3274,2241 3261.2,2241 3261.2,2208.1 3260.9,2109 3273.8,2108.7 3274,2208.1 				"/>
			</g>
			<g>
				<polygon fill="#9F5B26" points="3270.7,2169.7 3231.8,2130.9 3240.8,2121.6 3270.7,2151.4 3302.9,2119.3 3311.9,2128.3 				"/>
			</g>
		</g>
		<g>
			<g>
				<path fill="#5E3112" d="M3275.3,2188c-34.2,0-62.3-27.8-62.3-62.3c0-36.3,28.1-66.9,61.5-66.9s63.1,31.1,63.1,66.9
					C3337.6,2160.2,3309.8,2188,3275.3,2188z M3274.6,2071.9c-25.7,0-48.6,25.2-48.6,54c0,27.3,22.1,49.4,49.4,49.4
					c27.3,0,49.4-22.1,49.4-49.4C3324.8,2097.7,3300.8,2071.9,3274.6,2071.9z"/>
			</g>
			<g>
				<polygon fill="#5E3112" points="3281.8,2230.7 3268.9,2230.7 3268.9,2197.8 3268.6,2098.7 3281.5,2098.4 3281.8,2197.8 				"/>
			</g>
			<g>
				<polygon fill="#5E3112" points="3275.8,2159.4 3237,2120.6 3246,2111.3 3275.8,2141.2 3308,2109 3317,2118 				"/>
			</g>
		</g>
	</g>
	<g>
		<g>
			<g>
				<path fill="#9F5B26" d="M99.3,1987.2c-34.2,0-62.3-27.8-62.3-62.3c0-36.3,28.1-66.9,61.5-66.9s63.1,31.1,63.1,66.9
					C161.6,1959.4,133.8,1987.2,99.3,1987.2z M98.6,1871.2c-25.7,0-48.6,25.2-48.6,54c0,27.3,22.1,49.4,49.4,49.4
					s49.4-22.1,49.4-49.4C148.8,1896.9,124.8,1871.2,98.6,1871.2z"/>
			</g>
			<g>
				<polygon fill="#9F5B26" points="103.2,2030 90.3,2030 90.3,1997 90.1,1897.9 102.9,1897.7 103.2,1997 				"/>
			</g>
			<g>
				<polygon fill="#9F5B26" points="99.9,1958.7 61,1919.8 70,1910.5 99.9,1940.4 132,1908.2 141,1917.2 				"/>
			</g>
		</g>
		<g>
			<g>
				<path fill="#5E3112" d="M104.5,1976.9c-34.2,0-62.3-27.8-62.3-62.3c0-36.3,28.1-66.9,61.5-66.9s63.1,31.1,63.1,66.9
					C166.8,1949.2,139,1976.9,104.5,1976.9z M103.7,1860.9c-25.7,0-48.6,25.2-48.6,54c0,27.3,22.1,49.4,49.4,49.4
					s49.4-22.1,49.4-49.4C153.9,1886.6,130,1860.9,103.7,1860.9z"/>
			</g>
			<g>
				<polygon fill="#5E3112" points="110.9,2019.7 98.1,2019.7 98.1,1986.7 97.8,1887.6 110.7,1887.4 110.9,1986.7 				"/>
			</g>
			<g>
				<polygon fill="#5E3112" points="105,1948.4 66.1,1909.5 75.2,1900.3 105,1930.1 137.2,1897.9 146.2,1906.9 				"/>
			</g>
		</g>
	</g>
</g>
<path fill="#CDA34F" d="M379.1,3392c0,0,332.6-3,368.6,21c36,24,105,39,105,39l138-30c0,0,105-3,123,0c18,3,153,0,153,0l45,30
	c0,0,72,9,81,0c9-9,48-26.1,72-28c24-2,0-1,111,0s576.1-44.1,585.1-32s132,31,132,31l-12,33.1l147-16c0,0,48-16.1,72-17.1
	s237-14.1,255,0c18,14.1,189-33.1,189-33.1l245.9-3.4l12.1,82.9H360.7L379.1,3392z"/>
</svg>
