<?xml version="1.0" encoding="utf-8"?>
<!-- Generator: Adobe Illustrator 18.0.0, SVG Export Plug-In . SVG Version: 6.00 Build 0)  -->
<!DOCTYPE svg PUBLIC "-//W3C//DTD SVG 1.1//EN" "http://www.w3.org/Graphics/SVG/1.1/DTD/svg11.dtd">
<svg version="1.1" xmlns="http://www.w3.org/2000/svg" xmlns:xlink="http://www.w3.org/1999/xlink" x="0px" y="0px"
	 viewBox="0 0 1363 1542.5" enable-background="new 0 0 1363 1542.5" xml:space="preserve">
<g id="Layer_1" display="none">
	<g display="inline">
		<path fill="#5E3112" d="M249.6,1409.6c0,0,10.3-1.7,19.4-0.3c9.1,1.3,18.9-3.5,18.9-3.5s-0.7-4.1,3.3-4.1s18.6-0.7,22,0
			s12,3.6,12,3.6v4l7.5,3c0,0,5.3-4.3,12.3-5.5s4.2-3.2,11.2-3.2s15.7-3.9,24.3-2.3c8.7,1.6,25.4-1.1,30,5.3
			c4.7,6.3,13.3,9.7,18.7,5.7s12-8,19-8.7c7-0.7,10.3-4.8,12.3-2.1c2,2.7,9.3,6.7,9.3,6.7l4.7,3.2c0,0,3.3-2.6,7.3-4.1
			c4-1.5,7.3,0.7,11.3-0.1c4-0.8,9.3,0.1,14.7-0.1c5.3-0.2,16.7,1.5,21.3,0c4.7-1.5,11.3,0,11.3,0l10.7,3.8l-3.3,17.7l3,4.3
			l-7.7,7.3v11c0,0,4.8,7.7,4.8,11s-2.4,11.3-3.1,13.3s-2.5,1.3-1.9,9.3s0.7,8,0.7,8l0.7,6l0.7,7.3l-4.7,6c-6-4-9.3-8.7-9.3-8.7
			s-5.3-7.3-8.7-4.7c-3.3,2.7-8.7,7.8-8.7,7.8l-2.7,6.5h-4l-4-5.8l-6.7,1.8c0,0,1.3,9.1-6.7,9.8c-8,0.7-9.2-0.7-15.3,0
			c-6.1,0.7-6.7,1-10.1,0.2c-3.3-0.9-16.3-2.2-16.3,0.5c0,2.6-9,4.1-9,4.1l-5.3-4.1l-3.3-1.3h-7.3l-6-0.2l-3.3-0.9l-4-8.8l-16.7,3.9
			l-7.3,5.9h-5.7l-7-2.8c0,0-4.7,1.1-6.7,2.4c-2,1.3-2.7,1.9-6.7,1.9s-14.7-0.1-14.7-0.7c0-0.7-12.7-0.7-12.7-0.7l-22.7-2l-27.3-4.7
			l-19.3,2l-4.7-2l-5.3-3.3l-4-18.7l10-12v-9.3l-5.2-10.7l-4.6-17.3l5.6-20L249.6,1409.6z"/>
		<path fill="#9F5B26" d="M249.6,1404.6c0,0,10.3-1.7,19.4-0.3c9.1,1.3,18.9-3.5,18.9-3.5s-0.7-4.1,3.3-4.1s18.6-0.7,22,0
			s12,3.6,12,3.6v4l7.5,3c0,0,5.3-4.3,12.3-5.5s4.2-3.2,11.2-3.2s15.7-3.9,24.3-2.3c8.7,1.6,25.4-1.1,30,5.3
			c4.7,6.3,13.3,9.7,18.7,5.7s12-8,19-8.7c7-0.7,10.3-4.8,12.3-2.1c2,2.7,9.3,6.7,9.3,6.7l4.7,3.2c0,0,3.3-2.6,7.3-4.1
			c4-1.5,7.3,0.7,11.3-0.1c4-0.8,9.3,0.1,14.7-0.1c5.3-0.2,16.7,1.5,21.3,0c4.7-1.5,11.3,0,11.3,0l10.7,3.8l-3.3,17.7l3,4.3
			l-7.7,7.3v11c0,0,4.8,7.7,4.8,11s-2.4,11.3-3.1,13.3s-2.5,1.3-1.9,9.3s0.7,8,0.7,8l0.7,6l0.7,7.3l-4.7,6c-6-4-9.3-8.7-9.3-8.7
			s-5.3-7.3-8.7-4.7c-3.3,2.7-8.7,7.8-8.7,7.8l-2.7,6.5h-4l-4-5.8l-6.7,1.8c0,0,1.3,9.1-6.7,9.8c-8,0.7-9.2-0.7-15.3,0
			c-6.1,0.7-6.7,1-10.1,0.2c-3.3-0.9-16.3-2.2-16.3,0.5c0,2.6-9,4.1-9,4.1l-5.3-4.1l-3.3-1.3h-7.3l-6-0.2l-3.3-0.9l-4-8.8l-16.7,3.9
			l-7.3,5.9h-5.7l-7-2.8c0,0-4.7,1.1-6.7,2.4c-2,1.3-2.7,1.9-6.7,1.9s-14.7-0.1-14.7-0.7c0-0.7-12.7-0.7-12.7-0.7l-22.7-2l-27.3-4.7
			l-19.3,2l-4.7-2l-5.3-3.3l-4-18.7l10-12v-9.3l-5.2-10.7l-4.6-17.3l5.6-20L249.6,1404.6z"/>
		<path fill="#F6921E" d="M249.6,1398.6c0,0,10.3-1.7,19.4-0.3c9.1,1.3,18.9-3.5,18.9-3.5s-0.7-4.1,3.3-4.1s18.6-0.7,22,0
			s12,3.6,12,3.6v4l7.5,3c0,0,5.3-4.3,12.3-5.5s4.2-3.2,11.2-3.2s15.7-3.9,24.3-2.3c8.7,1.6,25.4-1.1,30,5.3
			c4.7,6.3,13.3,9.7,18.7,5.7s12-8,19-8.7c7-0.7,10.3-4.8,12.3-2.1c2,2.7,9.3,6.7,9.3,6.7l4.7,3.2c0,0,3.3-2.6,7.3-4.1
			c4-1.5,7.3,0.7,11.3-0.1c4-0.8,9.3,0.1,14.7-0.1c5.3-0.2,16.7,1.5,21.3,0c4.7-1.5,11.3,0,11.3,0l10.7,3.8l-3.3,17.7l3,4.3
			l-7.7,7.3v11c0,0,4.8,7.7,4.8,11s-2.4,11.3-3.1,13.3s-2.5,1.3-1.9,9.3s0.7,8,0.7,8l0.7,6l0.7,7.3l-4.7,6c-6-4-9.3-8.7-9.3-8.7
			s-5.3-7.3-8.7-4.7c-3.3,2.7-8.7,7.8-8.7,7.8l-2.7,6.5h-4l-4-5.8l-6.7,1.8c0,0,1.3,9.1-6.7,9.8c-8,0.7-9.2-0.7-15.3,0
			c-6.1,0.7-6.7,1-10.1,0.2c-3.3-0.9-16.3-2.2-16.3,0.5c0,2.6-9,4.1-9,4.1l-5.3-4.1l-3.3-1.3h-7.3l-6-0.2l-3.3-0.9l-4-8.8l-16.7,3.9
			l-7.3,5.9h-5.7l-7-2.8c0,0-4.7,1.1-6.7,2.4c-2,1.3-2.7,1.9-6.7,1.9s-14.7-0.1-14.7-0.7c0-0.7-12.7-0.7-12.7-0.7l-22.7-2l-27.3-4.7
			l-19.3,2l-4.7-2l-5.3-3.3l-4-18.7l10-12v-9.3l-5.2-10.7l-4.6-17.3l5.6-20L249.6,1398.6z"/>
	</g>
</g>
<g id="Layer_2" display="none">
	<g display="inline">
		<path fill="#5E3112" d="M267.9,1414.4l-3.3,4.5c0,0-6.3,1.9-7.2-0.1s-0.8-2-0.8-2l-3.8-2.2l2.1,15.8l-2.1,1.9h-3.2l-5.1-0.7
			l7,19.8l2.4,11.2l-3.8,10.8v13.2l3.5,5.6l-1.6,3.7l1.6,4.2l16.6-2.2l2.9,4.2l15-4l5.8,4.3h5.3l8.7-2.3l30.7,2.1l-17.6-8l17.6,8.2
			c0,0,4.5,0,5.7,0c1.3,0,8.3,0,8.3,0h14.6l6.4-6.7l6.8,2.9l10.2-1.5l5.2,5.1c0,0,9.6-3.4,10.3-1.7c0.6,1.7,8.3-2.4,8.3-2.4l6.8,4.2
			l8.5-2.2c0,0,2.1,6.6,3.4,4.4c1.3-2.2,8.1-8.8,8.1-8.8l5.9,1.5c0,0,5.5,1,8.5-0.5s3-1.4,4.7-1.4s0.4,4.3,0.4,4.3s14.8,0,16.1,0
			c1.3,0,4.7,2.8,8.1,2.8s11-3.2,13.1-3.7c2.1-0.5,4-1,6.4-0.5c2.3,0.5,15.3,4.1,15.3,4.1s3.4,3.3,5.5,2.8s8.1-7.6,9.3-7.6
			s6.6,0,6.6,0s4.5,4.9,6.6,4.9s6.5-5.2,6.5-5.2l5.3-2.1v-4.6l6.1-1.2c0,0-0.1,2.9,2.4,0c2.5-2.9,2.8-2.9,2.8-2.9l-2.2-8.3v-9.5
			l-0.1-10.3l-6.2-23.2l2-2.9l-0.5-4.4l-0.9-5.9l-3-5.4c0,0,1.3-2.2-1.7-2.2s-9.3,7.1-9.3,7.1l-4.2-2.9l-5.1-1l-6.4,1.5l-4.7,0.5
			l-2.1-5.1l-14,3.7L502,1419c0,0,0-1.7-3.4-1.7c-3.4,0-11.9,0-11.9,0l-2.5,1.6l-16.1-1c0,0-8.1-3.7-9.3-3.7c-1.3,0-5.9-0.3-9.3,1.2
			c-3.4,1.5-5.5,1.9-8.1,1.9c-2.5,0-12.7-1-14-1s-14.8,2.9-14.8,2.9l-8.9-2.9c0,0-0.4-2.2-4.2-2.2s-14.5,1.7-14.5,1.7l-8,2.4
			c0,0-2.1-4.1-5.9-4.1s-16.4,4.2-16.4,4.2h-14.1c0,0-4.7-4.3-5.9-4.3c-1.3,0-11.2,3.2-11.2,3.2s-2.3-3.2-3.6-3.2
			c-1.3,0-5.9,0.8-5.9,0.8l-3.4,1l-3-1.7c0,0-0.8,1-3.4,2c-2.5,1-3.4,1.2-6.8,1.2c-3.4,0-5.7,0-5.7,0s-3.6-0.4-6.6-0.4
			s-7.2,0.9-7.2,0.9s-5.3-3.9-7.6-3.7C267.9,1414.4,267.9,1414.4,267.9,1414.4z"/>
		<path fill="#9F5B26" d="M267.9,1409l-3.3,4.5c0,0-6.3,1.9-7.2-0.1s-0.8-2-0.8-2l-3.8,2.2l2.1,11.6l-2.1,2.1h-3.2l-5.1,3.5l7,15.3
			l2.4,11.2l-3.8,10.7v13.2l3.5,5.6l-1.6,3.7l1.6,4.2l16.6-2.2l2.9,4.2l15-3.8l5.8,4.5h5.3l8.7-2.5l30.7,2l-17.6-3.4l17.6,3.9
			c0,0,4.5,0,5.7,0c1.3,0,8.3,0,8.3,0h14.6l6.4-6.9l6.8,2.8l10.2-1.5l5.2,5.1c0,0,9.6-3.4,10.3-1.7c0.6,1.7,8.3-2.5,8.3-2.5l6.8,4.1
			l8.5-2.2c0,0,2.1,6.6,3.4,4.4c1.3-2.2,8.1-8.8,8.1-8.8l5.9,1.5c0,0,5.5,1,8.5-0.5s3-1.2,4.7-1.2s0.4,4.5,0.4,4.5s14.8,0,16.1,0
			c1.3,0,4.7,2.6,8.1,2.6s11-3.3,13.1-3.8c2.1-0.5,4-1.1,6.4-0.6c2.3,0.5,15.3,4.1,15.3,4.1s3.4,3,5.5,2.5s8.1-7.9,9.3-7.9
			s6.6,0,6.6,0s4.5,5.2,6.6,5.2s6.5-5.1,6.5-5.1l5.3-1.9v-4.6l6.1-1.2c0,0-0.1,2.9,2.4,0c2.5-2.9,2.8-2.9,2.8-2.9l-2.2-8.3v-9.5
			l-0.1-10.3l-6.2-23.2l2-2.9l-0.5-4.4l-0.9-5.9l-3-5.4c0,0,1.3-2.2-1.7-2.2s-9.3,7.1-9.3,7.1l-4.2-2.9l-5.1-1l-6.4,1.5l-4.7,0.5
			l-2.1-5.1l-14,3.7l-10.2,1.4c0,0,0-1.5-3.4-1.5c-3.4,0-11.9,0-11.9,0l-2.5,1.4l-16.1-1.1c0,0-8.1-3.7-9.3-3.7
			c-1.3,0-5.9-0.3-9.3,1.2c-3.4,1.5-5.5,1.9-8.1,1.9c-2.5,0-12.7-1-14-1s-14.8,2.9-14.8,2.9l-8.9-2.9c0,0-0.4-2.2-4.2-2.2
			s-14.5,1.7-14.5,1.7l-8,2.4c0,0-2.1-3.9-5.9-3.9s-16.4,4.4-16.4,4.4h-14.1c0,0-4.7-4.5-5.9-4.5c-1.3,0-11.2,3.1-11.2,3.1
			s-2.3-3.2-3.6-3.2c-1.3,0-5.9,0.7-5.9,0.7l-3.4,1l-3-1.7c0,0-0.8,1.2-3.4,2.2c-2.5,1-3.4,1.4-6.8,1.4c-3.4,0-5.7,0-5.7,0
			s-3.6-0.6-6.6-0.6s-7.2,0.8-7.2,0.8s-5.3-4-7.6-3.7S267.9,1409,267.9,1409z"/>
		<path fill="#F6921E" d="M267.9,1403.3l-3.3,4.5c0,0-6.3,1.9-7.2-0.1c-0.8-2-0.8-2-0.8-2l-3.8,5.8l2.1,7.8l-2.1,1.9h-3.2l-5.1,7.4
			l7,11.7l2.4,11.2l-3.8,10.8v13.2l3.5,5.6l-1.6,3.7l1.6,4.2l16.6-2.2l2.9,4.2l15-4l5.8,4.3h5.3l8.7-2.4l15.5-0.4l-2.3,2.8h17.6
			c0,0,4.5,0,5.7,0c1.3,0,8.3,0,8.3,0h14.6l6.4-6.8l6.8,2.8l10.2-1.5l5.2,5.1c0,0,9.6-3.4,10.3-1.7c0.6,1.7,8.3-2.4,8.3-2.4l6.8,4.1
			l8.5-2.2c0,0,2.1,6.6,3.4,4.4c1.3-2.2,8.1-8.8,8.1-8.8l5.9,1.5c0,0,5.5,1,8.5-0.5s3-1.3,4.7-1.3s0.4,4.3,0.4,4.3s14.8,0,16.1,0
			c1.3,0,4.7,2.8,8.1,2.8s11-3.2,13.1-3.7c2.1-0.5,4-1,6.4-0.5c2.3,0.5,15.3,4.1,15.3,4.1s3.4,3.3,5.5,2.9s8.1-7.6,9.3-7.6
			s6.6,0,6.6,0s4.5,4.9,6.6,4.9s6.5-5.2,6.5-5.2l5.3-2.1v-4.6l6.1-1.2c0,0-0.1,2.9,2.4,0c2.5-2.9,2.8-2.9,2.8-2.9l-2.2-8.3v-9.5
			l-0.1-10.3l-6.2-23.2l2-2.9l-0.5-4.4l-0.9-5.9l-3-5.4c0,0,1.3-2.2-1.7-2.2s-9.3,7.1-9.3,7.1l-4.2-2.9l-5.1-1l-6.4,1.5l-4.7,0.5
			l-2.1-5.1l-14,3.7L502,1408c0,0,0-1.7-3.4-1.7c-3.4,0-11.9,0-11.9,0l-2.5,1.5l-16.1-1.1c0,0-8.1-3.7-9.3-3.7
			c-1.3,0-5.9-0.3-9.3,1.2c-3.4,1.5-5.5,1.9-8.1,1.9c-2.5,0-12.7-1-14-1s-14.8,2.9-14.8,2.9l-8.9-2.9c0,0-0.4-2.2-4.2-2.2
			s-14.5,1.7-14.5,1.7l-8,2.4c0,0-2.1-4.1-5.9-4.1s-16.4,4.2-16.4,4.2h-14.1c0,0-4.7-4.3-5.9-4.3c-1.3,0-11.2,3.2-11.2,3.2
			s-2.3-3.2-3.6-3.2c-1.3,0-5.9,0.8-5.9,0.8l-3.4,1l-3-1.7c0,0-0.8,1-3.4,2s-3.4,1.3-6.8,1.3c-3.4,0-5.7,0-5.7,0s-3.6-0.4-6.6-0.4
			s-7.2,0.9-7.2,0.9s-5.3-3.9-7.6-3.7S267.9,1403.3,267.9,1403.3z"/>
	</g>
</g>
<g id="Layer_3" display="none">
	<g display="inline">
		<path fill="#5E3112" d="M548.7,1414.3l3.3,4.5c0,0,6.3,1.9,7.2-0.1c0.8-2,0.8-2,0.8-2l3.8-2.2l-2.1,15.8l2.1,1.9h3.2l5.1-0.7
			l-7,19.8l-2.1,11.2l4.1,10.8v13.2l-3.9,5.6l1.5,3.7l-1.7,4.2l-16.6-2.2l-2.9,4.2l-15-4l-5.8,4.3h-5.3l-8.7-2.4l-30.7,2.1l17.6-7.9
			l-17.6,8.2c0,0-4.5,0-5.7,0c-1.3,0-8.3,0-8.3,0h-14.6l-6.4-6.8l-6.8,2.8l-10.2-1.5l-5.2,5.1c0,0-9.6-3.4-10.3-1.7
			s-8.3-2.4-8.3-2.4l-6.8,4.1l-8.5-2.2c0,0-2.1,6.6-3.4,4.4c-1.3-2.2-8.1-8.8-8.1-8.8l-5.9,1.5c0,0-5.5,1-8.5-0.5
			c-3-1.5-3-1.3-4.7-1.3c-1.7,0-0.4,4.3-0.4,4.3s-14.8,0-16.1,0c-1.3,0-4.7,2.8-8.1,2.8c-3.4,0-11-3.2-13.1-3.7
			c-2.1-0.5-4-1-6.4-0.5c-2.3,0.5-15.3,4.1-15.3,4.1s-3.4,3.3-5.5,2.9s-8.1-7.5-9.3-7.5c-1.3,0-6.6,0-6.6,0s-4.5,4.9-6.6,4.9
			c-2.1,0-6.2-5.2-6.2-5.2l-5-2.1v-4.6l-6.4-1.2c0,0,0,2.9-2.5,0s-2.5-2.9-2.5-2.9l2.4-8.3v-9.5l-0.3-10.3l6-23.2l-2.1-2.9l0.4-4.4
			l0.8-5.9l3-5.4c0,0-1.3-2.2,1.7-2.2c3,0,9.3,7.1,9.3,7.1l4.2-2.9l5.1-1l6.4,1.5l4.7,0.5l2.1-5.1l14,3.7l10.2,1.3
			c0,0,0-1.7,3.4-1.7s11.9,0,11.9,0l2.5,1.5l16.1-1.1c0,0,8.1-3.7,9.3-3.7s5.9-0.3,9.3,1.2c3.4,1.5,5.5,1.9,8.1,1.9s12.7-1,14-1
			c1.3,0,14.8,2.9,14.8,2.9l8.9-2.9c0,0,0.4-2.2,4.2-2.2c3.8,0,14.5,1.7,14.5,1.7l8,2.4c0,0,2.1-4.1,5.9-4.1
			c3.8,0,16.4,4.2,16.4,4.2h14.1c0,0,4.7-4.3,5.9-4.3c1.3,0,11.2,3.2,11.2,3.2s2.3-3.2,3.6-3.2c1.3,0,5.9,0.8,5.9,0.8l3.4,1l3-1.7
			c0,0,0.8,1,3.4,2c2.5,1,3.4,1.3,6.8,1.3s5.7,0,5.7,0s3.6-0.4,6.6-0.4c3,0,7.2,0.9,7.2,0.9s5.3-4,7.6-3.7
			C548.7,1414.3,548.7,1414.3,548.7,1414.3z"/>
		<path fill="#9F5B26" d="M548.7,1408.9l3.3,4.5c0,0,6.3,1.9,7.2-0.1c0.8-2,0.8-2,0.8-2l3.8,2.2l-2.1,11.6l2.1,2.1h3.2l5.1,3.5
			l-7,15.3l-2.1,11.2l4.1,10.7v13.2l-3.9,5.6l1.5,3.7l-1.7,4.2l-16.6-2.2l-2.9,4.2l-15-3.8l-5.8,4.5h-5.3l-8.7-2.6l-30.7,2l17.6-3.4
			l-17.6,3.9c0,0-4.5,0-5.7,0c-1.3,0-8.3,0-8.3,0h-14.6l-6.4-7l-6.8,2.7l-10.2-1.6l-5.2,5.1c0,0-9.6-3.4-10.3-1.7
			c-0.6,1.7-8.3-2.5-8.3-2.5l-6.8,4.1l-8.5-2.2c0,0-2.1,6.6-3.4,4.4c-1.3-2.2-8.1-8.8-8.1-8.8l-5.9,1.5c0,0-5.5,1-8.5-0.5
			c-3-1.5-3-1.1-4.7-1.1c-1.7,0-0.4,4.5-0.4,4.5s-14.8,0-16.1,0c-1.3,0-4.7,2.6-8.1,2.6c-3.4,0-11-3.3-13.1-3.8s-4-1.1-6.4-0.6
			c-2.3,0.5-15.3,4.1-15.3,4.1s-3.4,3-5.5,2.6s-8.1-7.9-9.3-7.9c-1.3,0-6.6,0-6.6,0s-4.5,5.2-6.6,5.2c-2.1,0-6.2-5.1-6.2-5.1l-5-1.9
			v-4.6l-6.4-1.2c0,0,0,2.9-2.5,0s-2.5-2.9-2.5-2.9l2.4-8.3v-9.5l-0.3-10.3l6-23.2l-2.1-2.9l0.4-4.4l0.8-5.9l3-5.4
			c0,0-1.3-2.2,1.7-2.2c3,0,9.3,7.1,9.3,7.1l4.2-2.9l5.1-1l6.4,1.5l4.7,0.5l2.1-5.1l14,3.7l10.2,1.5c0,0,0-1.5,3.4-1.5
			s11.9,0,11.9,0l2.5,1.3l16.1-1.2c0,0,8.1-3.8,9.3-3.8s5.9-0.3,9.3,1.2c3.4,1.5,5.5,1.9,8.1,1.9s12.7-1,14-1
			c1.3,0,14.8,2.9,14.8,2.9l8.9-2.9c0,0,0.4-2.2,4.2-2.2c3.8,0,14.5,1.7,14.5,1.7l8,2.4c0,0,2.1-3.9,5.9-3.9
			c3.8,0,16.4,4.4,16.4,4.4h14.1c0,0,4.7-4.5,5.9-4.5c1.3,0,11.2,3.1,11.2,3.1s2.3-3.2,3.6-3.2c1.3,0,5.9,0.7,5.9,0.7l3.4,1l3-1.7
			c0,0,0.8,1.2,3.4,2.2c2.5,1,3.4,1.5,6.8,1.5s5.7,0,5.7,0s3.6-0.6,6.6-0.6c3,0,7.2,0.8,7.2,0.8s5.3-4,7.6-3.8
			C548.7,1409,548.7,1408.9,548.7,1408.9z"/>
		<path fill="#F6921E" d="M548.7,1403.2l3.3,4.5c0,0,6.3,1.9,7.2-0.1c0.8-2,0.8-2,0.8-2l3.8,5.8l-2.1,7.8l2.1,2h3.2l5.1,7.3l-7,11.7
			l-2.1,11.2l4.1,10.7v13.2l-3.9,5.6l1.5,3.7l-1.7,4.2l-16.6-2.2l-2.9,4.2l-15-3.9l-5.8,4.4h-5.3l-8.7-2.4l-15.5-0.4l2.3,2.8h-17.6
			c0,0-4.5,0-5.7,0c-1.3,0-8.3,0-8.3,0h-14.6l-6.4-6.8l-6.8,2.8l-10.2-1.5l-5.2,5.1c0,0-9.6-3.4-10.3-1.7s-8.3-2.4-8.3-2.4l-6.8,4.1
			l-8.5-2.2c0,0-2.1,6.6-3.4,4.4c-1.3-2.2-8.1-8.8-8.1-8.8l-5.9,1.5c0,0-5.5,1-8.5-0.5c-3-1.5-3-1.3-4.7-1.3c-1.7,0-0.4,4.3-0.4,4.3
			s-14.8,0-16.1,0c-1.3,0-4.7,2.8-8.1,2.8c-3.4,0-11-3.3-13.1-3.7c-2.1-0.5-4-1-6.4-0.5c-2.3,0.5-15.3,4.1-15.3,4.1
			s-3.4,3.4-5.5,2.9s-8.1-7.5-9.3-7.5c-1.3,0-6.6,0-6.6,0s-4.5,4.9-6.6,4.9c-2.1,0-6.2-5.3-6.2-5.3l-5-2.1v-4.6l-6.4-1.2
			c0,0,0,2.9-2.5,0s-2.5-2.9-2.5-2.9l2.4-8.3v-9.5l-0.3-10.3l6-23.2l-2.1-2.9l0.4-4.4l0.8-5.9l3-5.4c0,0-1.3-2.2,1.7-2.2
			c3,0,9.3,7.1,9.3,7.1l4.2-2.9l5.1-1l6.4,1.5l4.7,0.5l2.1-5.1l14,3.7l10.2,1.3c0,0,0-1.6,3.4-1.6s11.9,0,11.9,0l2.5,1.5l16.1-1.1
			c0,0,8.1-3.7,9.3-3.7s5.9-0.3,9.3,1.2c3.4,1.5,5.5,1.9,8.1,1.9s12.7-1,14-1c1.3,0,14.8,2.9,14.8,2.9l8.9-2.9c0,0,0.4-2.2,4.2-2.2
			c3.8,0,14.5,1.7,14.5,1.7l8,2.4c0,0,2.1-4.1,5.9-4.1c3.8,0,16.4,4.2,16.4,4.2h14.1c0,0,4.7-4.4,5.9-4.4c1.3,0,11.2,3.2,11.2,3.2
			s2.3-3.2,3.6-3.2c1.3,0,5.9,0.8,5.9,0.8l3.4,1l3-1.7c0,0,0.8,1.1,3.4,2c2.5,1,3.4,1.3,6.8,1.3s5.7,0,5.7,0s3.6-0.4,6.6-0.4
			c3,0,7.2,0.9,7.2,0.9s5.3-4,7.6-3.7C548.7,1403.3,548.7,1403.2,548.7,1403.2z"/>
	</g>
</g>
<g id="Layer_4" display="none">
	<g display="inline">
		<g>
			<path fill="#5E3112" d="M175.9,1401.3h17l5,10.8c0,0,8,10.9,12,10.9s15-11.1,15-11.1s6-5,11-5s7,5.2,12,5.2s9,11.2,9,11.2
				s-10,0-5,0s30.2,0,30.2,0v-11c0,0,35.8,0,40.8,0s7,0,14,0s20,0,23,0s7-12.2,11-6.2s7,16.9,7,16.9l17-11.1l11,11.2l11-10.8
				c0,0,7,0,11,0s19,0,19,0l13,5.8c0,0,13,4.9,16,4.9s18-6.1,18-6.1s3-5,8-5s11-15,14-11s15,5.2,15,5.2s9,6.2,12,6.2s14,0,14,0
				l8-0.6l11-6.8l7,7.2l13,6.2h15l13-6.7l6-11.6l-10-13.1l7.3,1.5l20.8,4.5l12,15.2l15.2,10.2h15.8c0,0,26,9.8,29,4.8s3-5.1,3-5.1
				l16.3,19.9c0,0-7.7,0,0,5s16.7,15,16.7,15l-4.9,26l5.1,19c0,0,0,12,0,15s0,9,0,9s-8.1,4-11.1,7s-5.7,8-5.7,8l-7.4,4c0,0-7,4-14,5
				s-22-9-22-9l-16.4-2l-19.6,16c0,0-5-5.8-8-5.8s-25,6.2-25,6.2h-86l-1-6.2l-8-8.1l-11-1.8l-14,6.2h-14l-13,10h-20l-9-4.2l-13-11.9
				l-9,6.1h-14l-12,10h-17h-18h-28l-7,6.8l-16-8.1l-15-1.1l-15,1l-8,8l-10-11l-8-6l-6-7l-27.4-0.9l8.4,2.9l-22,13l-21-1.8l-12-5.8
				h-15h-14.8v-14.4l-6.1-10l6.9-20l-0.9-15l-5.9-8v-24l9-21l-4-9v-13L175.9,1401.3z"/>
			<path fill="#9F5B26" d="M175.9,1393.3h17l5,10.8c0,0,8,10.9,12,10.9s15-11.1,15-11.1s6-5,11-5s7,5.2,12,5.2s9,11.2,9,11.2
				s-10,0-5,0s30.2,0,30.2,0v-11c0,0,35.8,0,40.8,0s7,0,14,0s20,0,23,0s7-12.2,11-6.2s7,16.9,7,16.9l17-11.1l11,11.2l11-10.8
				c0,0,7,0,11,0s19,0,19,0l13,5.8c0,0,13,4.9,16,4.9s18-6.1,18-6.1s3-5,8-5s11-15,14-11s15,5.2,15,5.2s9,6.2,12,6.2s14,0,14,0
				l8-0.6l11-6.8l7,7.2l13,6.2h15l13-6.7l6-11.6l-10-4.8l5-1.8h23l12,15l15.2,10h15.8c0,0,26,9.8,29,4.8s3-5.1,3-5.1l16.3,19.9
				c0,0-7.7,0,0,5s16.7,15,16.7,15l-4.9,26l5.1,19c0,0,0,12,0,15s0,9,0,9s-8.1,4-11.1,7s-5.7,8-5.7,8l-7.4,4c0,0-7,4-14,5
				s-22-9-22-9l-16.4-2l-19.6,16c0,0-5-5.8-8-5.8s-25,6.2-25,6.2h-86l-1-6.2l-8-8.1l-11-1.8l-14,6.2h-14l-13,10h-20l-9-4.2l-13-11.9
				l-9,6.1h-14l-12,10h-17h-18h-28l-7,6.8l-16-8.1l-15-1.1l-15,1l-8,8l-10-11l-8-6l-6-7l-25,7l6,3l-22,5l-21-1.8l-12-5.8h-15h-14.8
				v-14.4l-6.1-10l6.9-20l-0.9-15l-5.9-8v-24l9-21l-4-9v-13L175.9,1393.3z"/>
			<path fill="#CDA34F" d="M175.9,1388.3h17l5,10.8c0,0,8,10.9,12,10.9s15-11.1,15-11.1s6-5,11-5s7,5.2,12,5.2s9,11.2,9,11.2
				s-10,0-5,0s30.2,0,30.2,0v-11c0,0,35.8,0,40.8,0s7,0,14,0s20,0,23,0s7-12.2,11-6.2s7,16.9,7,16.9l17-11.1l11,11.2l11-10.8
				c0,0,7,0,11,0s19,0,19,0l13,5.8c0,0,13,4.9,16,4.9s18-6.1,18-6.1s3-5,8-5s11-15,14-11s15,5.2,15,5.2s9,6.2,12,6.2s14,0,14,0
				l8-0.6l11-6.8l7,7.2l13,6.2h15l13-6.5l6-11.5h-10l5-7h23l12,15l15.2,10h15.8c0,0,26,9.8,29,4.8s3-5.1,3-5.1l16.3,19.9
				c0,0-7.7,0,0,5s16.7,15,16.7,15l-4.9,26l5.1,19c0,0,0,12,0,15s0,9,0,9s-8.1,4-11.1,7s-5.7,8-5.7,8l-7.4,4c0,0-7,4-14,5
				s-22-9-22-9l-16.4-2l-19.6,16c0,0-5-5.8-8-5.8s-25,6.2-25,6.2h-86l-1-6.2l-8-8.1l-11-1.8l-14,6.2h-14l-13,10h-20l-9-4.2l-13-11.9
				l-9,6.1h-14l-12,10h-17h-18h-28l-7,6.8l-16-8.1l-15-1.1l-15,1l-8,8l-10-11l-8-6l-6-7l-25,7.2l6,8.2h-22l-21-2l-12-6h-15h-14.8
				v-14.4l-6.1-10l6.9-20l-0.9-15l-5.9-8v-24l9-21l-4-9v-13L175.9,1388.3z"/>
		</g>
		<g>
			<g>
				<path fill="#5E3112" d="M799.9,1424.1c-2.5-5.5-3.5-19.8-3.5-19.8h8.5c0,0,0,3.8,2.5,4.3s14.5-0.6,16-0.6s6-0.6,7.5,1.9
					s3.5,6.5,3.5,6.5s-6.5,3.5-6.5,5s2.5,7.5-1,9.5s-8,1.5-11.5,3.5s-16.5,3.6-16.5,3.6L799.9,1424.1z"/>
				<polygon fill="#5E3112" points="838.7,1393.4 841.6,1384.9 853.1,1389.1 853.1,1397.9 845.9,1403.9 				"/>
			</g>
			<g>
				<path fill="#9F5B26" d="M799.9,1422.1c-2.5-5.5-3.5-19.8-3.5-19.8h8.5c0,0,0,3.8,2.5,4.3s14.5-0.6,16-0.6s6-0.6,7.5,1.9
					s3.5,6.5,3.5,6.5s-6.5,3.5-6.5,5s2.5,7.5-1,9.5s-8,1.5-11.5,3.5s-16.5,3.6-16.5,3.6L799.9,1422.1z"/>
				<polygon fill="#9F5B26" points="838.7,1391.4 841.6,1382.9 853.1,1387.1 853.1,1395.9 845.9,1401.9 				"/>
			</g>
			<g>
				<path fill="#CDA34F" d="M799.9,1419.1c-2.5-5.5-3.5-19.8-3.5-19.8h8.5c0,0,0,3.8,2.5,4.3s14.5-0.6,16-0.6s6-0.6,7.5,1.9
					s3.5,6.5,3.5,6.5s-6.5,3.5-6.5,5s2.5,7.5-1,9.5s-8,1.5-11.5,3.5s-16.5,3.6-16.5,3.6L799.9,1419.1z"/>
				<polygon fill="#CDA34F" points="838.7,1388.4 841.6,1379.9 853.1,1384.1 853.1,1392.9 845.9,1398.9 				"/>
			</g>
		</g>
		<g>
			<path fill="#5E3112" d="M50.4,1525.9c1.5-4,15-17,15-17l9,8.5c0,0-2.5,6,0,8.5s12,2.5,12.5,4s-4.5,9-4.5,9l-11.5-8.5l-8.5,8.5
				L50.4,1525.9z"/>
			<path fill="#9F5B26" d="M50.4,1523.9c1.5-4,15-17,15-17l9,8.5c0,0-2.5,6,0,8.5s12,2.5,12.5,4s-4.5,9-4.5,9l-11.5-8.5l-8.5,8.5
				L50.4,1523.9z"/>
			<path fill="#CDA34F" d="M50.4,1519.9c1.5-4,15-17,15-17l9,8.5c0,0-2.5,6,0,8.5s12,2.5,12.5,4s-4.5,9-4.5,9l-11.5-8.5l-8.5,8.5
				L50.4,1519.9z"/>
		</g>
	</g>
</g>
<g id="Layer_5" display="none">
	<g display="inline">
		<rect x="-171.9" y="112.8" fill="#E5E5E5" width="1366" height="2739.1"/>
	</g>
	<g display="inline">
		<g>
			<path fill="#5E3112" d="M1036.2,1062.2c0,0-11.4,6.1-4.5,12.1s6.4,6.1,6.4,6.1v-8h12h6v-9h7l-3.7-7h-6.3h-7l0.4,3.8
				L1036.2,1062.2z"/>
		</g>
		<g>
			<path fill="#5E3112" d="M692.3,1079.8l1.8-7.8l3.7,1.6l3,4.3c0,0,6.3,2,5,5c-1.3,3-3.7,6.3-3.7,6.3h-3h-5l0.7-6.5L692.3,1079.8z"
				/>
		</g>
		<g>
			<polygon fill="#5E3112" points="682.1,1068.3 687.1,1068.3 687.1,1069.3 681.6,1071.3 680.4,1070.4 678.3,1066.1 			"/>
		</g>
		<g>
			<path fill="#9F5B26" d="M1036.2,1060.2c0,0-11.4,6.1-4.5,12.1s6.4,6.1,6.4,6.1v-8h12h6v-9h7l-3.7-7h-6.3h-7l0.4,3.8
				L1036.2,1060.2z"/>
		</g>
		<g>
			<path fill="#9F5B26" d="M692.3,1077.8l1.8-7.8l3.7,1.6l3,4.3c0,0,6.3,2,5,5c-1.3,3-3.7,6.3-3.7,6.3h-3h-5l0.7-6.5L692.3,1077.8z"
				/>
		</g>
		<g>
			<polygon fill="#9F5B26" points="682.1,1067.3 687.1,1066.3 687.1,1068.3 681.6,1070.3 680.4,1069.4 677.8,1065.3 			"/>
		</g>
	</g>
	<g display="inline">
		<g>
			<path fill="#F6921E" d="M1036.2,1056.2c0,0-11.4,6.1-4.5,12.1s6.4,6.1,6.4,6.1v-8h12h6v-9h7l-3.7-7h-6.3h-7l0.4,3.8
				L1036.2,1056.2z"/>
		</g>
		<g>
			<path fill="#F6921E" d="M692.3,1073.8l1.8-7.8l3.7,1.6l3,4.3c0,0,6.3,2,5,5c-1.3,3-3.7,6.3-3.7,6.3h-3h-5l0.7-6.5L692.3,1073.8z"
				/>
		</g>
		<g>
			<polygon fill="#F6921E" points="682.1,1065.3 687.1,1065.3 687.1,1066.3 681.6,1068.3 680.4,1067.4 677.8,1065.3 			"/>
		</g>
	</g>
	<g display="inline">
		<g>
			<g>
				<g>
					<g>
						<path fill="#5E3112" d="M312.1,859.3l6-9h8c0,0,5-1,8-3s5.5-4.5,7-5s3-3,5.5-3s6,0,9.5,0s8.5,4,8.5,4s-5.5,6-8.5,6s-8,5-8,7.5
							s0,5.5-1.5,7.5s-2.5,0.9-5.5,3.5c-3,2.5-3,4-8,5s-9-5-9-5s0.1,0.5-2.9,0c-3-0.5-9.1,0-9.1,0V859.3z"/>
					</g>
					<g>
						<path fill="#5E3112" d="M379.1,839.3v-8h6l3,4v10c0,0-7.5,4.5-9,2.5s-2.5-8-2.5-8L379.1,839.3z"/>
					</g>
				</g>
				<g>
					<g>
						<path fill="#9F5B26" d="M312.1,857.3l6-9h8c0,0,5-1,8-3s5.5-4.5,7-5s3-3,5.5-3s6,0,9.5,0s8.5,4,8.5,4s-5.5,6-8.5,6s-8,5-8,7.5
							s0,5.5-1.5,7.5s-2.5,0.9-5.5,3.5c-3,2.5-3,4-8,5s-9-5-9-5s0.1,0.5-2.9,0c-3-0.5-9.1,0-9.1,0V857.3z"/>
					</g>
					<g>
						<path fill="#9F5B26" d="M379.1,837.3v-8h6l3,4v10c0,0-7.5,4.5-9,2.5s-2.5-8-2.5-8L379.1,837.3z"/>
					</g>
				</g>
				<g>
					<g>
						<path fill="#CDA34F" d="M312.1,853.3l6-9h8c0,0,5-1,8-3s5.5-4.5,7-5s3-3,5.5-3s6,0,9.5,0s8.5,4,8.5,4s-5.5,6-8.5,6s-8,5-8,7.5
							s0,5.5-1.5,7.5s-2.5,0.9-5.5,3.5c-3,2.5-3,4-8,5s-9-5-9-5s0.1,0.5-2.9,0c-3-0.5-9.1,0-9.1,0V853.3z"/>
					</g>
					<g>
						<path fill="#CDA34F" d="M379.1,833.3v-8h6l3,4v10c0,0-7.5,4.5-9,2.5s-2.5-8-2.5-8L379.1,833.3z"/>
					</g>
				</g>
			</g>
			<g>
				<g>
					<g>
						<path fill="#5E3112" d="M185.5,1082.8l-4.1,10l-7.8,1.5c0,0-4.7,1.9-7.3,4.5s-4.5,5.5-5.9,6.3c-1.4,0.8-2.4,3.5-4.8,4
							c-2.5,0.5-5.9,1.2-9.3,1.8c-3.4,0.7-9.1-2.3-9.1-2.3s4.2-6.9,7.2-7.5c2.9-0.6,6.9-6.5,6.4-8.9s-1.1-5.4,0-7.6
							c1.1-2.3,2.3-1.4,4.7-4.5c2.5-3.1,2.2-4.5,6.9-6.5c4.7-1.9,9.8,3.2,9.8,3.2s-0.2-0.4,2.8-0.6c3-0.1,9-1.8,9-1.8L185.5,1082.8z
							"/>
					</g>
					<g>
						<path fill="#5E3112" d="M123.6,1115.4l1.5,7.8l-5.9,1.2l-3.7-3.3l-1.9-9.8c0,0,6.5-5.9,8.3-4.2c1.9,1.7,4,7.4,4,7.4
							L123.6,1115.4z"/>
					</g>
				</g>
				<g>
					<g>
						<path fill="#9F5B26" d="M185.8,1079.8l-4.1,10l-7.8,1.5c0,0-4.7,1.9-7.3,4.5s-4.5,5.5-5.9,6.3c-1.4,0.8-2.4,3.5-4.8,4
							c-2.5,0.5-5.9,1.2-9.3,1.8c-3.4,0.7-9.1-2.3-9.1-2.3s4.2-6.9,7.2-7.5c2.9-0.6,6.9-6.5,6.4-8.9c-0.5-2.5-1.1-5.4,0-7.6
							c1.1-2.3,2.3-1.4,4.7-4.5c2.5-3.1,2.2-4.5,6.9-6.5c4.7-1.9,9.8,3.2,9.8,3.2s-0.2-0.4,2.8-0.6c3-0.1,9-1.8,9-1.8L185.8,1079.8z
							"/>
					</g>
					<g>
						<path fill="#9F5B26" d="M124,1112.3l1.5,7.8l-5.9,1.2l-3.7-3.3l-1.9-9.8c0,0,6.5-5.9,8.3-4.2c1.9,1.7,4,7.4,4,7.4L124,1112.3z
							"/>
					</g>
				</g>
				<g>
					<g>
						<path fill="#CDA34F" d="M186.6,1076.7l-4.1,10l-7.8,1.5c0,0-4.7,1.9-7.3,4.5c-2.6,2.5-4.5,5.5-5.9,6.3s-2.4,3.5-4.8,4
							s-5.9,1.2-9.3,1.8c-3.4,0.7-9.1-2.3-9.1-2.3s4.2-6.9,7.2-7.5c2.9-0.6,6.9-6.5,6.4-8.9c-0.5-2.5-1.1-5.4,0-7.6
							c1.1-2.3,2.3-1.4,4.7-4.5s2.2-4.5,6.9-6.5c4.7-1.9,9.8,3.2,9.8,3.2s-0.2-0.4,2.8-0.6c3-0.1,9-1.8,9-1.8L186.6,1076.7z"/>
					</g>
					<g>
						<path fill="#CDA34F" d="M124.7,1109.2l1.5,7.8l-5.9,1.2l-3.7-3.3l-1.9-9.8c0,0,6.5-5.9,8.3-4.2c1.9,1.7,4,7.4,4,7.4
							L124.7,1109.2z"/>
					</g>
				</g>
			</g>
			<g>
				<g>
					<g>
						<polygon fill="#5E3112" points="491.9,994.3 505.9,985.3 520.1,985.3 520.1,994.3 520.1,1017.3 510.9,1029.3 491.9,1029.3 
							496.9,1017.3 468.6,1014.3 						"/>
					</g>
					<g>
						<polygon fill="#5E3112" points="537.9,1039.3 546.9,1039.3 556.9,1049.3 547.5,1058.3 525.1,1063.3 525.1,1049.3 						"/>
					</g>
					<g>
						<polygon fill="#5E3112" points="475.9,1070.3 488.9,1063.3 494.3,1070.3 485.1,1081.3 						"/>
					</g>
				</g>
				<g>
					<g>
						<polygon fill="#9F5B26" points="493.9,992.3 507.9,983.3 522.1,983.3 522.1,992.3 522.1,1015.3 512.9,1027.3 493.9,1027.3 
							498.9,1015.3 470.6,1012.3 						"/>
					</g>
					<g>
						<polygon fill="#9F5B26" points="539.9,1037.3 548.9,1037.3 558.9,1047.3 549.5,1056.3 527.1,1061.3 527.1,1047.3 						"/>
					</g>
					<g>
						<polygon fill="#9F5B26" points="477.9,1068.3 490.9,1061.3 496.3,1068.3 487.1,1079.3 						"/>
					</g>
				</g>
				<g>
					<g>
						<polygon fill="#CDA34F" points="496.9,987.3 510.9,978.3 525.1,978.3 525.1,987.3 525.1,1010.3 515.9,1022.3 496.9,1022.3 
							501.9,1010.3 473.6,1007.3 						"/>
					</g>
					<g>
						<polygon fill="#CDA34F" points="542.9,1032.3 551.9,1032.3 561.9,1042.3 552.5,1051.3 530.1,1056.3 530.1,1042.3 						"/>
					</g>
					<g>
						<polygon fill="#CDA34F" points="480.9,1063.3 493.9,1056.3 499.3,1063.3 490.1,1074.3 						"/>
					</g>
				</g>
			</g>
		</g>
		<g>
			<g>
				<path fill="#5E3112" d="M1185.1,122.3h-1357v1016.8l1-4.1c0,0,8,25.3,12,22c4-3.3,7.3-8,8.7-10.7c1.3-2.7,0-18,0-26
					s26.3-23,26.3-23h33h11.3l18.7-13.2l5.2-19.2c0,0,11.5-14,14-14.7c2.6-0.7,16.8-0.7,16.8-0.7s8,6,12.6,6s4.1-5.3,4.1-5.3
					s3.3-4.7,8-6.7c4.7-2,11.3-12,11.3-12l6.8-1.3l13,2l10.9,11.3l32.3-12.7l3-3.3l0.1-10c0,0,0,0,3.3-2c3.3-2,6.7-4.7,6-6.7
					c-0.7-2,0-6.7,0-9.3c0-2.7,3.7-10.3,3.7-10.3h10v-7l5,3V973l6-21.3c0,0,4.7-5.3,5.3-7.3c0.7-2,0-9.3,0-9.3l2.7-6.7
					c0,0,0,0,2-1.3s5.3-4.7,9.3-7.3s-1.3-9.4-2.6-12.7c-1.3-3.3,0-5.4,0-5.4l13.2-11.3h0l5-4h6c0,0,9.7,0,13.7,0s7.3-4,7.3-4h6
					l9.5-6.7l-3.5-4.3V863l3.7-4.5l4.3-4.8l10.7-1.3l4.6,0.7l2.6-1.3l7.9-7.3c0,0,4.4,0.7,6.4,0.7s6.8-7.7,6.8-7.7v-3.7l8.5-4
					l13.2-2.7l8.6,3.3l11.9,6.7c0,0,7.2,1.3,10.5,3.3s4.4,0.7,4.4,0.7l4.8-0.7V833c0,0,26.4-16,30.4-14.7s4.4,6.7,4.4,6.7l24.4-28
					l6.8,4.3v6.3c0,0,6.5,0.7,9.2,0.7c2.7,0,4.5-1.3,9.8-10.7c5.3-9.3,6.7,3.5,6.7,3.5s4,1.2,6,5.2s5.3,2.7,5.3,2.7l4.7-1.9l4.7-1.1
					l5.7-3.8h7.7l3.3,1v5v14l7-2h7.7l11.8,17.3l20.5,0.7V853l4.5,5.7c0,0,9.8-2.3,14.5,0.1s9.3-4.2,9.3-4.2l-0.3,4.6l2,7.2
					c0,0,0.3,0,2,0s14.3,0,14.3,0l7.3,2.8c0,0,10,8.1,14,6.1s6.7,0.3,6.7,0.3l27.7-3.2h10.3l-2.3-24h-16.3l-6-11l0.7-12.3l-11.4-9.7
					l-15.4-7.6l-5.5-23.3L522,761l-13.8-10.7v-14c0,0,25.8-10.4,31.8-10.8s32.5-60.1,32.5-60.1l-0.3-14.2h-7l-5.2-5.1l5.2-9.9v-8.7
					l6.9,8.7l10.9-14.7c0,0,4.4-10.7,7.8-17.3s-14.5-99-14.5-99v-5V485l12.5-8c0,0-2.2-6-2.8-8.7c-0.7-2.7,2.7-7.3,5.3-10s10-9,10-9
					l4.7-14.6c0,0,12.7-15.7,15.3-16.4s8,0,8,0l3.3-6.9l3.9,2.9l16.5-16.7c0,0-0.3-64.6,6.4-68c6.7-3.3,10.8-30.3,10.8-30.3v-15
					l10-12c0,0,1.9,5.1,1.9,9.8c0,4.7,13.6,7,13.6,7s-1.5-1.8,0-16.4c1.5-14.7,0.2-9.9-3.8-26.5c-4-16.7,19.3-25.8,19.3-25.8h42.7
					c0,0,50.7-0.7,58.2-0.6s23.2-4.1,30.2-6.1c7-2,33.3-6.7,33.3-6.7s19,7.3,20.4,7.3c1.4,0,10-7.3,10-7.3l23.5,4.7l23.8,4l8.6,3.4
					c0,0,16.5,1.9,24.5,9.3c8,7.4,3.1,0.6,12.8-2.8c9.7-3.3,5.1,0,11.1,2.7v5.7l21.8,4.9l13.1-4.9l8,4.3l1.9,10.7l-6.1,18l18.8,5.5
					l4.5,3.8l3.3,6.1l15.8,1.9l-6.4-4c0,0,5.2-3.3,6.5-7.8c1.3-4.5,1.8-9.5,0.5-16.7c-1.3-7.2-8.7-21.7-8.7-21.7l3.3-11.7l7.3-3.1
					l8-4.2l6.3,8.2h8l17-3.2l9,3.2l18-10l-9,3l5-9.3l9,6.1c0,0,5.4,8.7,12.1,6.1c6.7-2.6,8.2-12,8.2-12L1185.1,122.3z"/>
			</g>
			<g>
				<g>
					<path fill="#9F5B26" d="M696,289.1c0,0-0.1,0-0.2-0.1C695.9,289.1,696,289.1,696,289.1z"/>
				</g>
				<g>
					<path fill="#9F5B26" d="M1189.1,117.3h-1361v1050.2c1-0.5,0.8-1,1.2-1.5c3.3-4.7,0.1-16.7,0.1-16.7l4.7-19.3c0,0,8,25.3,12,22
						c4-3.3,7.3-8,8.7-10.7c1.3-2.7,0-18,0-26s26.3-23,26.3-23h33h11.3l18.7-13.2l5.2-19.2c0,0,11.5-14,14-14.7
						c2.6-0.7,16.8-0.7,16.8-0.7s8,6,12.6,6s4.1-5.3,4.1-5.3s3.3-4.7,8-6.7c4.7-2,11.3-12,11.3-12l6.8-1.3l13,2l10.9,11.3l32.2-12.7
						l3-3.3l0.1-10c0,0,0,0,3.3-2c3.3-2,6.7-4.7,6-6.7c-0.7-2,0-6.7,0-9.3c0-2.7,3.7-10.3,3.7-10.3h10.2v-7l5,3V968l5.9-21.3
						c0,0,4.6-5.3,5.3-7.3c0.7-2,0-9.3,0-9.3l2.7-6.7c0,0,0,0,2-1.3c2-1.3,5.3-4.7,9.3-7.3c4-2.7-1.3-9.4-2.6-12.7
						c-1.3-3.3,0-5.4,0-5.4l13.2-11.3h0l5-4h6c0,0,9.7,0,13.7,0s7.3-4,7.3-4h6l9.6-6.7l-3.4-4.3V858l3.5-4.5l4.3-4.8l10.6-1.3
						l4.6,0.7l2.6-1.3l7.9-7.3c0,0,4.6,0.7,6.6,0.7c2,0,7-7.7,7-7.7v-3.7l8.3-4l13.1-2.7l8.6,3.3L279,832c0,0,7.2,1.3,10.5,3.3
						s4.6,0.7,4.6,0.7l5-0.7V828c0,0,26.2-16,30.2-14.7s4.3,6.7,4.3,6.7l24.6-28l7,4.3v6.3c0,0,6.3,0.7,9,0.7
						c2.7,0,4.4-1.3,9.7-10.7c5.3-9.3,6.6,3.5,6.6,3.5s4,1.2,6,5.2c2,4,5.3,2.7,5.3,2.7l4.7-1.9l4.7-1.1l5.7-3.8h7.7l3.8,1v5v14
						l6.6-2h7.7l12.1,17.3l20.7,0.7V848l4.3,5.7c0,0,9.7-2.3,14.4,0.1c4.7,2.3,9.3-4.2,9.3-4.2l-0.4,4.6l2,7.2c0,0,0.3,0,2,0
						s14.3,0,14.3,0l7.3,2.8c0,0,10,8.1,14,6.1s6.7,0.3,6.7,0.3l27.6-3.2h10.3l-2.3-24h-16.3l-6-11l0.7-12.3l-11.4-9.7l-15.4-7.6
						l-5.5-23.3l-4.5-23.3l-14.1-10.7v-14c0,0,26.1-10.4,32.1-10.8s32.6-60.1,32.6-60.1l-0.2-14.2h-7l-5.4-5.1l4.9-9.9v-8.7l7.1,8.7
						l11-14.7c0,0,4.2-10.7,7.6-17.3s-14.7-99-14.7-99v-5V480l12.7-8c0,0-2.1-6-2.7-8.7c-0.7-2.7,2.7-7.3,5.4-10s10-9,10-9l4.7-14.6
						c0,0,12.7-15.7,15.3-16.4s8,0,8,0l3.3-6.9l3.9,2.9l16.5-16.7c0,0-0.4-64.6,6.2-68c6.7-3.3,10.6-30.3,10.6-30.3v-15l10-12
						c0,0,0,8,0,12.7c0,4.3,10.1,8.5,11.5,9.1c-0.4-0.4-1.3-2.4,0-14.1c1.5-14.7,4.5-17.1,0.5-33.8c-4-16.7,19.4-25.8,19.4-25.8
						h42.6c0,0,50.6-0.7,58.1-0.6s23.1-4.1,30.2-6.1c7-2,33.3-6.7,33.3-6.7s19,7.3,20.4,7.3c1.4,0,10-7.3,10-7.3l23.5,4.7l23.8,4
						l8.6,3.4c0,0,16.5,1.9,24.5,9.3c8,7.4,3,0.6,12.7-2.8c9.7-3.3,5.1,0,11.1,2.7v5.7l21.9,4.9l13.2-4.9l8,4.3l1.9,10.7l-6.1,18
						l18.7,5.5l4.5,3.8l1.6,9.1l13.4,3.9l-5-7c0,0,7.8-5.3,9.2-9.8c1.3-4.5,1.8-9.5,0.5-16.7c-1.3-7.2-8.7-21.7-8.7-21.7l3.3-11.7
						l7.3-3.1l8-4.2l6.3,8.2h8l17-3.2l9,3.2l14-5l-5-2l5-9.3l9,6.1c0,0,5.4,8.7,12.1,6.1c6.7-2.6,8.2-12,8.2-12L1189.1,117.3z"/>
				</g>
			</g>
			<g>
				<path fill="#CDA34F" d="M1194.1,111.3h-1366v1056.4c1.2-1.4,3.1-3.8,5.2-6.7c3.3-4.7,0.1-16.7,0.1-16.7l4.7-19.4
					c0,0,8,25.4,12,22c4-3.3,7.3-8,8.7-10.7c1.3-2.7,0-18,0-26s26.3-23,26.3-23h33h11.3l18.7-13.2l5.2-19.2c0,0,11.5-14,14-14.7
					c2.6-0.7,16.8-0.7,16.8-0.7s8,6,12.6,6s4.1-5.3,4.1-5.3s3.3-4.7,8-6.7c4.7-2,11.3-12,11.3-12l6.8-1.3l13,2l10.9,11.3l32.3-12.7
					l3-3.3l0.1-10c0,0,0,0,3.3-2c3.3-2,6.7-4.7,6-6.7c-0.7-2,0-6.6,0-9.3c0-2.7,3.7-10.3,3.7-10.3h10v-7.2l5,3v-12.3l6-21.4
					c0,0,4.7-5.3,5.3-7.3c0.7-2,0-9.3,0-9.3l2.7-6.7c0,0,0,0,2-1.3c2-1.3,5.3-4.7,9.3-7.4c4-2.7-1.3-9.4-2.6-12.7
					c-1.3-3.3,0-5.2,0-5.2l13.2-11.1h0l5-4h6c0,0,9.7,0,13.7,0s7.3-4,7.3-4h6l9.5-6.8l-3.5-4.4v-8.3l3.7-4.5l4.3-4.8l10.7-1.3
					l4.6,0.7l2.6-1.3l7.9-7.3c0,0,4.4,0.7,6.4,0.7s6.8-7.7,6.8-7.7v-3.7l8.5-4l13.2-2.7l8.6,3.3l11.9,6.7c0,0,7.2,1.3,10.5,3.3
					s4.4,0.7,4.4,0.7l4.8-0.7v-7.3c0,0,26.4-16,30.4-14.7c4,1.3,4.4,6.7,4.4,6.7l24.4-28l6.8,4.3v6.3c0,0,6.5,0.7,9.2,0.7
					c2.7,0,4.5-1.3,9.8-10.7c5.3-9.3,6.7,3.5,6.7,3.5s4,1.2,6,5.2s5.3,2.7,5.3,2.7l4.7-1.9l4.7-0.9l5.7-3.7h7.7l3.3,0.6v5v14l7-1.7
					h7.7l11.8,17.2l20.5,0.5v14.7l4.5,5.7c0,0,9.8-2.3,14.5,0.1c4.7,2.3,9.3-4.2,9.3-4.2l-0.3,4.7l2,7.3c0,0,0.3,0,2,0
					s14.3,0,14.3,0l7.3,2.6c0,0,10,8.1,14,6.1c4-2,6.7,0.4,6.7,0.4l27.7-3.1h10.3l-2.3-24h-16.3l-6-11.2l0.7-12.4l-11.4-9.8
					l-15.4-7.6l-5.5-23.4l-4.3-23.4l-13.8-10.7v-14c0,0,25.8-10.4,31.8-10.8c6-0.3,32.5-59.9,32.5-59.9l-0.3-13.9h-7l-5.2-5.4
					l5.2-10.1v-8.7l6.9,8.7l10.9-14.7c0,0,4.4-10.7,7.8-17.3c3.3-6.7-14.5-99.1-14.5-99.1v-5v-15.3l12.5-8c0,0-2.2-6-2.8-8.7
					c-0.7-2.7,2.7-7.3,5.3-10s10-9,10-9l4.7-14.6c0,0,12.7-15.7,15.3-16.4s8,0,8,0l3.3-6.9l3.9,2.9l16.5-16.7c0,0-0.3-64.7,6.4-68
					c6.7-3.3,10.8-30.4,10.8-30.4v-15l10-12c0,0,0,8,0,12.7c0,4.7,6.5,14.1,6.5,14.1s3.2-4.5,4.7-19.2c1.5-14.7,4.5-17.1,0.5-33.8
					c-4-16.7,19.3-25.9,19.3-25.9h42.7c0,0,50.7-0.7,58.2-0.6s23.2-4,30.2-6c7-2,33.3-6.7,33.3-6.7s19,7.4,20.4,7.4
					c1.4,0,10-7.3,10-7.3l23.5,4.7l23.8,4l8.6,3.4c0,0,16.5,1.9,24.5,9.3c8,7.4,3.1,0.6,12.8-2.8c9.7-3.3,5.1,0,11.1,2.7v5.7
					l21.8,4.9l13.1-4.9l8,4.3l1.9,10.7l-6.1,18l18.8,5.5l4.5,3.8v10l10,8v-12c0,0,7.8-5.3,9.2-9.8c1.3-4.5,1.8-9.5,0.5-16.7
					c-1.3-7.2-8.7-21.8-8.7-21.8l3.3-11.7l7.3-3.1l8-4.2l6.3,8.1h8l17-3.2l9,3.2h9v-6.9l5-9.3l9,6.1c0,0,5.4,8.7,12.1,6.1
					c6.7-2.6,8.2-12,8.2-12L1194.1,111.3z"/>
			</g>
		</g>
	</g>
	<g display="inline">
		<g>
			<g>
				<path fill="#5E3112" d="M-171.2,1788.1c0,0,3.7,78.1,13.7,96.1s13.8,46.1,13.8,46.1l9.8,17.1v37l8,19.3c0,0,6,6.7,14,13.7
					s22,15,22,15s18.1,16,20,21s-4,0.8,0,15.8s-8,36.2-8,36.2h22l11,21v30c0,0-34.8,18-24.8,20s24.8,32,24.8,32v26v20v30l11.9,12
					c0,0,8.9,13.5,0,22.7c-8.9,9.3,0,23.3,0,23.3l4,17.8l-16.2,18.3h14.6l-25.3,58.5l10.7,11.5c0,0,2.7,16,0,20c-2.7,4,0,44,0,44
					h-46.7l-22,32.8l24,28.9l-23.8,38.3l13.8,28v36h30l-30.3,67.5l-21.8,18.5l-26,22l-6,52l-17,24L-171.2,1788.1z"/>
			</g>
			<g>
				<path fill="#9F5B26" d="M-171.2,1778.1c0,0,3.7,78.1,13.7,96.1s13.8,46.1,13.8,46.1l9.8,17.1v37l8,19.3c0,0,6,6.7,14,13.7
					s22,15,22,15s18.1,16,20,21s-4,0.8,0,15.8c4,15-8,36.2-8,36.2h22l11,21v30c0,0-34.8,18-24.8,20s24.8,32,24.8,32v26v20v30
					l11.9,12c0,0,8.9,13.5,0,22.7c-8.9,9.3,0,23.3,0,23.3l4,17.8l-16.2,18.3l14.6,10l-25.3,48.5l10.7,11.5c0,0,2.7,16,0,20
					c-2.7,4,0,44,0,44h-46.7l-22,32.8l24,38.9l-23.8,28.3l13.8,28v36l30,10l-30.3,57.5l-21.8,18.5l-26,22l-6,52l-17,24
					L-171.2,1778.1z"/>
			</g>
			<g>
				<path fill="#CDA34F" d="M-171.2,1770.1c0,0,3.7,78.1,13.7,96.1s13.8,46.1,13.8,46.1l9.8,17.1v37l8,19.3c0,0,6,6.7,14,13.7
					s22,15,22,15s18.1,16,20,21s-4,0.8,0,15.8c4,15-8,36.2-8,36.2h22l11,21v30c0,0-34.8,18-24.8,20s24.8,32,24.8,32v26v20v30
					l11.9,12c0,0,8.9,13.5,0,22.7c-8.9,9.3,0,23.3,0,23.3l4,17.8l-16.2,18.3l14.6,18l-25.3,40.5l10.7,11.5c0,0,2.7,16,0,20
					c-2.7,4,0,44,0,44h-46.7l-22,32.8l24,46.9l-23.8,20.3l13.8,28v36l30,18l-30.3,49.5l-21.8,18.5l-26,22l-6,52l-17,24
					L-171.2,1770.1z"/>
			</g>
		</g>
		<g>
			<g>
				<path fill="#5E3112" d="M1194.3,1788.1c0,0-3.7,78.1-13.7,96.1s-13.7,46.1-13.7,46.1l-9.7,17.1v37l-8.1,19.3
					c0,0-6.1,6.7-14.1,13.7s-22.1,15-22.1,15s-18.1,16-20.1,21c-2,5,4,0.8,0,15.8c-4,15,8,36.2,8,36.2h-22l-10.6,21v30
					c0,0,34.9,18,24.9,20c-10,2-24.9,32-24.9,32v26v20v30l-12.2,12c0,0-9,13.5-0.1,22.7c8.9,9.3-0.1,23.3-0.1,23.3l-4,17.8
					l16.2,18.3h-14.6l25.3,58.5l-10.7,11.5c0,0-2.7,16,0,20c2.7,4,0,44,0,44h46.8l22,32.8l-24.1,28.9l24.1,38.3l-13.7,28v36h-30.4
					l30.3,67.5l21.8,18.5l26.1,22l6,52l17,24L1194.3,1788.1z"/>
			</g>
			<g>
				<path fill="#9F5B26" d="M1194.3,1778.1c0,0-3.7,78.1-13.7,96.1s-13.7,46.1-13.7,46.1l-9.7,17.1v37l-8.1,19.3
					c0,0-6.1,6.7-14.1,13.7s-22.1,15-22.1,15s-18.1,16-20.1,21c-2,5,4,0.8,0,15.8c-4,15,8,36.2,8,36.2h-22l-10.6,21v30
					c0,0,34.9,18,24.9,20c-10,2-24.9,32-24.9,32v26v20v30l-12.2,12c0,0-9,13.5-0.1,22.7c8.9,9.3-0.1,23.3-0.1,23.3l-4,17.8
					l16.2,18.3l-14.6,10l25.3,48.5l-10.7,11.5c0,0-2.7,16,0,20c2.7,4,0,44,0,44h46.8l22,32.8l-24.1,38.9l24.1,28.3l-13.7,28v36
					l-30.3,10l30.3,57.5l21.8,18.5l26,22l6,52l17,24L1194.3,1778.1z"/>
			</g>
			<g>
				<path fill="#CDA34F" d="M1194.3,1770.1c0,0-3.7,78.1-13.7,96.1s-13.7,46.1-13.7,46.1l-9.7,17.1v37l-8.1,19.3
					c0,0-6.1,6.7-14.1,13.7s-22.1,15-22.1,15s-18.1,16-20.1,21c-2,5,4,0.8,0,15.8c-4,15,8,36.2,8,36.2h-22l-10.6,21v30
					c0,0,34.9,18,24.9,20c-10,2-24.9,32-24.9,32v26v20v30l-12.2,12c0,0-9,13.5-0.1,22.7c8.9,9.3-0.1,23.3-0.1,23.3l-4,17.8
					l16.2,18.3l-14.6,18l25.3,40.5l-10.7,11.5c0,0-2.7,16,0,20c2.7,4,0,44,0,44h46.8l22,32.8l-24.1,46.9l24.1,20.3l-13.7,28v36
					l-30.3,18l30.3,49.5l21.8,18.5l26,22l6,52l17,24L1194.3,1770.1z"/>
			</g>
		</g>
		<g>
			<g>
				<g>
					<g>
						<path fill="#9F5B26" d="M-130.4,2278.8c-13.3,0-24.2-10.8-24.2-24.2c0-12.5,10.2-36.6,24.2-36.6s24.2,24.1,24.2,36.6
							C-106.2,2267.9-117,2278.8-130.4,2278.8z M-130.4,2223c-9.7,0-19.2,20-19.2,31.6c0,10.6,8.6,19.2,19.2,19.2
							s19.2-8.6,19.2-19.2C-111.2,2243-120.7,2223-130.4,2223z"/>
					</g>
				</g>
				<g>
					<g>
						<polygon fill="#9F5B26" points="-126.9,2289.3 -131.9,2289.3 -131.9,2276.6 -131.7,2238 -126.7,2238 -126.9,2276.6 						"/>
					</g>
				</g>
				<g>
					<g>
						<polygon fill="#9F5B26" points="-130.5,2261.6 -146.5,2245.6 -143,2242.1 -130.5,2254.5 -119,2243 -115.4,2246.5 						"/>
					</g>
				</g>
			</g>
			<g>
				<g>
					<g>
						<path fill="#9F5B26" d="M-75.4,2317.8c-13.3,0-24.2-10.8-24.2-24.2c0-13.8,11.4-26,24.5-26c12.9,0,23.9,11.9,23.9,26
							C-51.2,2306.9-62,2317.8-75.4,2317.8z M-75,2272.6c-10.2,0-19.5,10-19.5,21c0,10.6,8.6,19.2,19.2,19.2s19.2-8.6,19.2-19.2
							C-56.2,2282.4-65,2272.6-75,2272.6z"/>
					</g>
				</g>
				<g>
					<g>
						<polygon fill="#9F5B26" points="-71.9,2334.3 -76.9,2334.3 -76.9,2321.6 -76.7,2283 -71.7,2283 -71.9,2321.6 						"/>
					</g>
				</g>
				<g>
					<g>
						<polygon fill="#9F5B26" points="-75.5,2306.6 -91.5,2290.6 -88,2287.1 -75.5,2299.5 -64,2288 -60.4,2291.5 						"/>
					</g>
				</g>
			</g>
			<g>
				<g>
					<g>
						<path fill="#5E3112" d="M-132.4,2274.8c-13.3,0-24.2-10.8-24.2-24.2c0-12.5,10.2-36.6,24.2-36.6s24.2,24.1,24.2,36.6
							C-108.2,2263.9-119,2274.8-132.4,2274.8z M-132.4,2219c-9.7,0-19.2,20-19.2,31.6c0,10.6,8.6,19.2,19.2,19.2
							s19.2-8.6,19.2-19.2C-113.2,2239-122.7,2219-132.4,2219z"/>
					</g>
				</g>
				<g>
					<g>
						<polygon fill="#5E3112" points="-129.9,2285.3 -134.9,2285.3 -134.9,2272.6 -134.7,2234 -129.7,2234 -129.9,2272.6 						"/>
					</g>
				</g>
				<g>
					<g>
						<polygon fill="#5E3112" points="-132.5,2257.6 -148.5,2241.6 -145,2238.1 -132.5,2250.5 -121,2239 -117.4,2242.5 						"/>
					</g>
				</g>
			</g>
			<g>
				<g>
					<g>
						<path fill="#5E3112" d="M-77.4,2313.8c-13.3,0-24.2-10.8-24.2-24.2c0-13.8,11.4-26,24.5-26c12.9,0,23.9,11.9,23.9,26
							C-53.2,2302.9-64,2313.8-77.4,2313.8z M-77,2268.6c-10.2,0-19.5,10-19.5,21c0,10.6,8.6,19.2,19.2,19.2s19.2-8.6,19.2-19.2
							C-58.2,2278.4-67,2268.6-77,2268.6z"/>
					</g>
				</g>
				<g>
					<g>
						<polygon fill="#5E3112" points="-74.9,2330.3 -79.9,2330.3 -79.9,2317.6 -79.7,2279 -74.7,2279 -74.9,2317.6 						"/>
					</g>
				</g>
				<g>
					<g>
						<polygon fill="#5E3112" points="-77.5,2302.6 -93.5,2286.6 -90,2283.1 -77.5,2295.5 -66,2284 -62.4,2287.5 						"/>
					</g>
				</g>
			</g>
		</g>
		<g>
			<g>
				<g>
					<g>
						<path fill="#9F5B26" d="M1158.6,2712.8c-13.3,0-24.2-10.8-24.2-24.2c0-12.5,10.2-36.6,24.2-36.6s24.2,24.1,24.2,36.6
							C1182.8,2701.9,1172,2712.8,1158.6,2712.8z M1158.6,2657c-9.7,0-19.2,20-19.2,31.6c0,10.6,8.6,19.2,19.2,19.2
							s19.2-8.6,19.2-19.2C1177.8,2677,1168.3,2657,1158.6,2657z"/>
					</g>
				</g>
				<g>
					<g>
						<polygon fill="#9F5B26" points="1160.1,2723.3 1155.1,2723.3 1155.1,2710.6 1155,2672 1160,2672 1160.1,2710.5 						"/>
					</g>
				</g>
				<g>
					<g>
						<polygon fill="#9F5B26" points="1158.8,2695.6 1143.7,2680.5 1147.2,2677 1158.8,2688.5 1171.3,2676.1 1174.8,2679.6 						
							"/>
					</g>
				</g>
			</g>
			<g>
				<g>
					<g>
						<path fill="#5E3112" d="M1160.6,2708.8c-13.3,0-24.2-10.8-24.2-24.2c0-12.5,10.2-36.6,24.2-36.6s24.2,24.1,24.2,36.6
							C1184.8,2697.9,1174,2708.8,1160.6,2708.8z M1160.6,2653c-9.7,0-19.2,20-19.2,31.6c0,10.6,8.6,19.2,19.2,19.2
							s19.2-8.6,19.2-19.2C1179.8,2673,1170.3,2653,1160.6,2653z"/>
					</g>
				</g>
				<g>
					<g>
						<polygon fill="#5E3112" points="1163.1,2719.3 1158.1,2719.3 1158.1,2706.6 1158,2668 1163,2668 1163.1,2706.5 						"/>
					</g>
				</g>
				<g>
					<g>
						<polygon fill="#5E3112" points="1160.8,2691.6 1145.7,2676.5 1149.2,2673 1160.8,2684.5 1173.3,2672.1 1176.8,2675.6 						
							"/>
					</g>
				</g>
			</g>
		</g>
		<g>
			<g>
				<g>
					<g>
						<path fill="#9F5B26" d="M1135.6,2151.8c-13.3,0-24.2-10.8-24.2-24.2c0-14.1,10.9-26,23.9-26c13,0,24.5,12.1,24.5,26
							C1159.8,2140.9,1149,2151.8,1135.6,2151.8z M1135.3,2106.6c-10,0-18.9,9.8-18.9,21c0,10.6,8.6,19.2,19.2,19.2
							s19.2-8.6,19.2-19.2C1154.8,2116.6,1145.5,2106.6,1135.3,2106.6z"/>
					</g>
				</g>
				<g>
					<g>
						<polygon fill="#9F5B26" points="1137.1,2168.3 1132.1,2168.3 1132.1,2155.6 1132,2117 1137,2117 1137.1,2155.5 						"/>
					</g>
				</g>
				<g>
					<g>
						<polygon fill="#9F5B26" points="1135.8,2140.6 1120.7,2125.5 1124.2,2122 1135.8,2133.5 1148.3,2121.1 1151.8,2124.6 						
							"/>
					</g>
				</g>
			</g>
			<g>
				<g>
					<g>
						<path fill="#5E3112" d="M1137.6,2147.8c-13.3,0-24.2-10.8-24.2-24.2c0-14.1,10.9-26,23.9-26c13,0,24.5,12.1,24.5,26
							C1161.8,2136.9,1151,2147.8,1137.6,2147.8z M1137.3,2102.6c-10,0-18.9,9.8-18.9,21c0,10.6,8.6,19.2,19.2,19.2
							s19.2-8.6,19.2-19.2C1156.8,2112.6,1147.5,2102.6,1137.3,2102.6z"/>
					</g>
				</g>
				<g>
					<g>
						<polygon fill="#5E3112" points="1140.1,2164.3 1135.1,2164.3 1135.1,2151.6 1135,2113 1140,2113 1140.1,2151.5 						"/>
					</g>
				</g>
				<g>
					<g>
						<polygon fill="#5E3112" points="1137.8,2136.6 1122.7,2121.5 1126.2,2118 1137.8,2129.5 1150.3,2117.1 1153.8,2120.6 						
							"/>
					</g>
				</g>
			</g>
		</g>
	</g>
	<g display="inline">
		<g>
			<g>
				<g>
					<path fill="#9F5B26" d="M1.2,688.4h-3l-4.8-8.4h-0.1c0.1,1.5,0.1,2.5,0.1,3.2v5.2h-2.1v-11.1h3l4.8,8.3h0.1
						c-0.1-1.4-0.1-2.5-0.1-3v-5.2h2.1V688.4z"/>
				</g>
			</g>
			<g>
				<g>
					<path fill="#9F5B26" d="M-2.1,876.3c0,1-0.4,1.8-1.1,2.4c-0.7,0.6-1.7,0.9-3,0.9c-1.2,0-2.2-0.2-3.1-0.7v-2.2
						c0.7,0.3,1.4,0.6,1.9,0.7c0.5,0.1,1,0.2,1.4,0.2c0.5,0,0.9-0.1,1.2-0.3s0.4-0.5,0.4-0.9c0-0.2-0.1-0.4-0.2-0.6
						c-0.1-0.2-0.3-0.3-0.5-0.5c-0.2-0.2-0.7-0.4-1.4-0.7c-0.7-0.3-1.2-0.6-1.5-0.9c-0.3-0.3-0.6-0.6-0.8-1
						c-0.2-0.4-0.3-0.8-0.3-1.4c0-1,0.3-1.7,1-2.3s1.6-0.8,2.7-0.8c0.6,0,1.1,0.1,1.6,0.2c0.5,0.1,1.1,0.3,1.6,0.6l-0.8,1.8
						c-0.6-0.2-1.1-0.4-1.5-0.5c-0.4-0.1-0.8-0.1-1.1-0.1c-0.4,0-0.8,0.1-1,0.3c-0.2,0.2-0.4,0.5-0.4,0.8c0,0.2,0,0.4,0.1,0.5
						c0.1,0.2,0.2,0.3,0.5,0.4c0.2,0.1,0.7,0.4,1.5,0.8c1,0.5,1.7,1,2.1,1.5C-2.2,875-2.1,875.6-2.1,876.3z"/>
				</g>
			</g>
			<g>
				<g>
					<path fill="#9F5B26" d="M92.9,784.3h-6.4v-11.1h6.4v1.9h-4v2.4h3.7v1.9h-3.7v2.9h4V784.3z"/>
				</g>
			</g>
			<g>
				<g>
					<path fill="#9F5B26" d="M-97.4,773.2h2.4l-3.8,11.1h-2.6l-3.8-11.1h2.4l2.1,6.6c0.1,0.4,0.2,0.8,0.4,1.4
						c0.1,0.5,0.2,0.9,0.2,1.1c0.1-0.5,0.2-1.3,0.6-2.4L-97.4,773.2z"/>
				</g>
			</g>
			<g>
				<g>
					<path fill="#9F5B26" d="M82.5,780.3l-76.2-7.2l18.5-22.9l-21.5,18l-7.1-74.9v-0.3l-6.9,76l-23-18.7l18.9,22.7l-75.2,7.3H-91
						l76.1,6.8l-18.7,22.9l22.6-19.2l7,75.2v0.2l7.1-76L26,808.7L7.7,787.2l74.5-6.8H82.5z M-7.7,782.2l-4.2,4.3l-57.3-5.2h62.3
						L-7.7,782.2z M-4.9,777.4l-5.3-5.3l5.3-57.3V777.4z M-2.9,844.5v-62.6l5.3,5.3L-2.9,844.5z M-1.8,779.3l5.3-5.3l57.3,5.3H-1.8z
						"/>
				</g>
			</g>
		</g>
		<g>
			<g>
				<g>
					<path fill="#5E3112" d="M2.1,683.7h-3l-4.8-8.4h-0.1c0.1,1.5,0.1,2.5,0.1,3.2v5.2h-2.1v-11.1h3l4.8,8.3h0.1
						c-0.1-1.4-0.1-2.5-0.1-3v-5.2h2.1V683.7z"/>
				</g>
			</g>
			<g>
				<g>
					<path fill="#5E3112" d="M-1.2,871.7c0,1-0.4,1.8-1.1,2.4c-0.7,0.6-1.7,0.9-3,0.9c-1.2,0-2.2-0.2-3.1-0.7v-2.2
						c0.7,0.3,1.4,0.6,1.9,0.7c0.5,0.1,1,0.2,1.4,0.2c0.5,0,0.9-0.1,1.2-0.3s0.4-0.5,0.4-0.9c0-0.2-0.1-0.4-0.2-0.6
						c-0.1-0.2-0.3-0.3-0.5-0.5c-0.2-0.2-0.7-0.4-1.4-0.7c-0.7-0.3-1.2-0.6-1.5-0.9c-0.3-0.3-0.6-0.6-0.8-1
						c-0.2-0.4-0.3-0.8-0.3-1.4c0-1,0.3-1.7,1-2.3s1.6-0.8,2.7-0.8c0.6,0,1.1,0.1,1.6,0.2c0.5,0.1,1.1,0.3,1.6,0.6l-0.8,1.8
						c-0.6-0.2-1.1-0.4-1.5-0.5c-0.4-0.1-0.8-0.1-1.1-0.1c-0.4,0-0.8,0.1-1,0.3c-0.2,0.2-0.4,0.5-0.4,0.8c0,0.2,0,0.4,0.1,0.5
						c0.1,0.2,0.2,0.3,0.5,0.4c0.2,0.1,0.7,0.4,1.5,0.8c1,0.5,1.7,1,2.1,1.5C-1.3,870.4-1.2,871-1.2,871.7z"/>
				</g>
			</g>
			<g>
				<g>
					<path fill="#5E3112" d="M93.8,779.7h-6.4v-11.1h6.4v1.9h-4v2.4h3.7v1.9h-3.7v2.9h4V779.7z"/>
				</g>
			</g>
			<g>
				<g>
					<path fill="#5E3112" d="M-96.5,768.6h2.4l-3.8,11.1h-2.6l-3.8-11.1h2.4l2.1,6.6c0.1,0.4,0.2,0.8,0.4,1.4
						c0.1,0.5,0.2,0.9,0.2,1.1c0.1-0.5,0.2-1.3,0.6-2.4L-96.5,768.6z"/>
				</g>
			</g>
			<g>
				<g>
					<path fill="#5E3112" d="M83.4,775.3l-76.2-7l18.5-22.8L4.2,763.6l-7.1-74.9v-0.3l-7,76l-23-18.7l18.9,22.5l-75.3,7.1h-0.9
						l76.1,7l-18.7,23l22.7-19.1l7.1,75.2v0.2l7-76l22.8,18.5L8.6,782.3l74.5-7H83.4z M-6.8,777.4l-4.2,4.2l-57.3-5.3H-6L-6.8,777.4
						z M-3.9,772.8l-5.3-5.3l5.3-57.3V772.8z M-1.9,839.9v-62.6l5.3,5.3L-1.9,839.9z M-0.9,774.3l5.3-5.3l57.3,5.3H-0.9z"/>
				</g>
			</g>
		</g>
	</g>
	<g display="inline">
		<g>
			<g>
				<g>
					<path fill="#9F5B26" d="M308.6,722.8c-13.3,0-24.2-10.8-24.2-24.2c0-12.5,10.2-36.6,24.2-36.6s24.2,24.1,24.2,36.6
						C332.8,711.9,322,722.8,308.6,722.8z M308.6,667c-9.7,0-19.2,20-19.2,31.6c0,10.6,8.6,19.2,19.2,19.2s19.2-8.6,19.2-19.2
						C327.8,687,318.3,667,308.6,667z"/>
				</g>
				<g>
					<polygon fill="#9F5B26" points="311.1,733.3 306.1,733.3 306.1,720.6 306,682 311,682 311.1,720.5 					"/>
				</g>
				<g>
					<polygon fill="#9F5B26" points="308.8,705.6 293.7,690.5 297.2,687 308.8,698.5 321.3,686.1 324.8,689.6 					"/>
				</g>
			</g>
			<g>
				<g>
					<path fill="#9F5B26" d="M245.6,760.8c-13.3,0-24.2-10.8-24.2-24.2c0-12.5,10.2-36.6,24.2-36.6s24.2,24.1,24.2,36.6
						C269.8,749.9,259,760.8,245.6,760.8z M245.6,705c-9.7,0-19.2,20-19.2,31.6c0,10.6,8.6,19.2,19.2,19.2s19.2-8.6,19.2-19.2
						C264.8,725,255.3,705,245.6,705z"/>
				</g>
				<g>
					<polygon fill="#9F5B26" points="248.1,771.3 243.1,771.3 243.1,758.6 243,720 248,720 248.1,758.5 					"/>
				</g>
				<g>
					<polygon fill="#9F5B26" points="245.8,743.6 230.7,728.5 234.2,725 245.8,736.5 258.3,724.1 261.8,727.6 					"/>
				</g>
			</g>
			<g>
				<g>
					<path fill="#9F5B26" d="M357.6,751.8c-13.3,0-24.2-10.8-24.2-24.2c0-14.1,10.9-26,23.9-26c13,0,24.5,12.1,24.5,26
						C381.8,740.9,371,751.8,357.6,751.8z M357.3,706.6c-10,0-18.9,9.8-18.9,21c0,10.6,8.6,19.2,19.2,19.2s19.2-8.6,19.2-19.2
						C376.8,716.6,367.5,706.6,357.3,706.6z"/>
				</g>
				<g>
					<polygon fill="#9F5B26" points="360.1,768.3 355.1,768.3 355.1,755.6 355,717 360,717 360.1,755.5 					"/>
				</g>
				<g>
					<polygon fill="#9F5B26" points="357.8,740.6 342.7,725.5 346.2,722 357.8,733.5 370.3,721.1 373.8,724.6 					"/>
				</g>
			</g>
		</g>
		<g>
			<g>
				<g>
					<path fill="#5E3112" d="M311.6,718.8c-13.3,0-24.2-10.8-24.2-24.2c0-12.5,10.2-36.6,24.2-36.6s24.2,24.1,24.2,36.6
						C335.8,707.9,325,718.8,311.6,718.8z M311.6,663c-9.7,0-19.2,20-19.2,31.6c0,10.6,8.6,19.2,19.2,19.2s19.2-8.6,19.2-19.2
						C330.8,683,321.3,663,311.6,663z"/>
				</g>
				<g>
					<polygon fill="#5E3112" points="314.1,729.3 309.1,729.3 309.1,716.6 309,678 314,678 314.1,716.5 					"/>
				</g>
				<g>
					<polygon fill="#5E3112" points="311.8,701.6 296.7,686.5 300.2,683 311.8,694.5 324.3,682.1 327.8,685.6 					"/>
				</g>
			</g>
			<g>
				<g>
					<path fill="#5E3112" d="M248.6,756.8c-13.3,0-24.2-10.8-24.2-24.2c0-12.5,10.2-36.6,24.2-36.6s24.2,24.1,24.2,36.6
						C272.8,745.9,262,756.8,248.6,756.8z M248.6,701c-9.7,0-19.2,20-19.2,31.6c0,10.6,8.6,19.2,19.2,19.2s19.2-8.6,19.2-19.2
						C267.8,721,258.3,701,248.6,701z"/>
				</g>
				<g>
					<polygon fill="#5E3112" points="251.1,767.3 246.1,767.3 246.1,754.6 246,716 251,716 251.1,754.5 					"/>
				</g>
				<g>
					<polygon fill="#5E3112" points="248.8,739.6 233.7,724.5 237.2,721 248.8,732.5 261.3,720.1 264.8,723.6 					"/>
				</g>
			</g>
			<g>
				<g>
					<path fill="#5E3112" d="M360.6,747.8c-13.3,0-24.2-10.8-24.2-24.2c0-14.1,10.9-26,23.9-26c13,0,24.5,12.1,24.5,26
						C384.8,736.9,374,747.8,360.6,747.8z M360.3,702.6c-10,0-18.9,9.8-18.9,21c0,10.6,8.6,19.2,19.2,19.2s19.2-8.6,19.2-19.2
						C379.8,712.6,370.5,702.6,360.3,702.6z"/>
				</g>
				<g>
					<polygon fill="#5E3112" points="363.1,764.3 358.1,764.3 358.1,751.6 358,713 363,713 363.1,751.5 					"/>
				</g>
				<g>
					<polygon fill="#5E3112" points="360.8,736.6 345.7,721.5 349.2,718 360.8,729.5 373.3,717.1 376.8,720.6 					"/>
				</g>
			</g>
		</g>
	</g>
	<g display="inline">
		<g>
			<g>
				<path fill="#9F5B26" d="M-26.4,963.8c-13.3,0-24.2-10.8-24.2-24.2c0-12.5,10.2-36.6,24.2-36.6S-2.2,927-2.2,939.6
					C-2.2,952.9-13,963.8-26.4,963.8z M-26.4,908c-9.7,0-19.2,20-19.2,31.6c0,10.6,8.6,19.2,19.2,19.2s19.2-8.6,19.2-19.2
					C-7.2,928-16.7,908-26.4,908z"/>
			</g>
			<g>
				<polygon fill="#9F5B26" points="-24.9,974.3 -29.9,974.3 -29.9,961.6 -30,923 -25,923 -24.9,961.5 				"/>
			</g>
			<g>
				<polygon fill="#9F5B26" points="-26.2,946.6 -41.3,931.5 -37.8,928 -26.2,939.5 -13.7,927.1 -10.2,930.6 				"/>
			</g>
		</g>
		<g>
			<g>
				<path fill="#9F5B26" d="M-81.4,1002.8c-13.3,0-24.2-10.8-24.2-24.2c0-14.1,10.9-26,23.9-26c13,0,24.5,12.1,24.5,26
					C-57.2,991.9-68,1002.8-81.4,1002.8z M-81.7,957.6c-10,0-18.9,9.8-18.9,21c0,10.6,8.6,19.2,19.2,19.2s19.2-8.6,19.2-19.2
					C-62.2,967.6-71.5,957.6-81.7,957.6z"/>
			</g>
			<g>
				<polygon fill="#9F5B26" points="-79.9,1019.3 -84.9,1019.3 -84.9,1006.6 -85,968 -80,968 -79.9,1006.5 				"/>
			</g>
			<g>
				<polygon fill="#9F5B26" points="-81.2,991.6 -96.3,976.5 -92.8,973 -81.2,984.5 -68.7,972.1 -65.2,975.6 				"/>
			</g>
		</g>
		<g>
			<g>
				<path fill="#5E3112" d="M-24.4,959.8c-13.3,0-24.2-10.8-24.2-24.2c0-12.5,10.2-36.6,24.2-36.6S-0.2,923-0.2,935.6
					C-0.2,948.9-11,959.8-24.4,959.8z M-24.4,904c-9.7,0-19.2,20-19.2,31.6c0,10.6,8.6,19.2,19.2,19.2s19.2-8.6,19.2-19.2
					C-5.2,924-14.7,904-24.4,904z"/>
			</g>
			<g>
				<polygon fill="#5E3112" points="-21.9,970.3 -26.9,970.3 -26.9,957.6 -27,919 -22,919 -21.9,957.5 				"/>
			</g>
			<g>
				<polygon fill="#5E3112" points="-24.2,942.6 -39.3,927.5 -35.8,924 -24.2,935.5 -11.7,923.1 -8.2,926.6 				"/>
			</g>
		</g>
		<g>
			<g>
				<path fill="#5E3112" d="M-79.4,998.8c-13.3,0-24.2-10.8-24.2-24.2c0-14.1,10.9-26,23.9-26c13,0,24.5,12.1,24.5,26
					C-55.2,987.9-66,998.8-79.4,998.8z M-79.7,953.6c-10,0-18.9,9.8-18.9,21c0,10.6,8.6,19.2,19.2,19.2s19.2-8.6,19.2-19.2
					C-60.2,963.6-69.5,953.6-79.7,953.6z"/>
			</g>
			<g>
				<polygon fill="#5E3112" points="-76.9,1015.3 -81.9,1015.3 -81.9,1002.6 -82,964 -77,964 -76.9,1002.5 				"/>
			</g>
			<g>
				<polygon fill="#5E3112" points="-79.2,987.6 -94.3,972.5 -90.8,969 -79.2,980.5 -66.7,968.1 -63.2,971.6 				"/>
			</g>
		</g>
	</g>
	<g display="inline">
		<g>
			<path fill="#9F5B26" d="M590.1,251.8c-13.3,0-24.2-10.8-24.2-24.2c0-14.1,10.9-26,23.9-26c13,0,24.5,12.1,24.5,26
				C614.3,241,603.4,251.8,590.1,251.8z M589.8,206.7c-10,0-18.9,9.8-18.9,21c0,10.6,8.6,19.2,19.2,19.2s19.2-8.6,19.2-19.2
				C609.3,216.7,600,206.7,589.8,206.7z"/>
		</g>
		<g>
			<polygon fill="#9F5B26" points="592.1,268.3 587.1,268.3 587.1,255.6 587,217 592,217 592.1,255.6 			"/>
		</g>
		<g>
			<polygon fill="#9F5B26" points="590.3,240.7 575.2,225.6 578.7,222 590.3,233.6 602.7,221.1 606.3,224.6 			"/>
		</g>
	</g>
	<g display="inline">
		<g>
			<path fill="#9F5B26" d="M633,286.8c-13.3,0-24.2-10.8-24.2-24.2c0-12.5,10.2-36.6,24.2-36.6s24.2,24.1,24.2,36.6
				C657.2,276,646.3,286.8,633,286.8z M633,231c-9.7,0-19.2,20-19.2,31.6c0,10.6,8.6,19.2,19.2,19.2s19.2-8.6,19.2-19.2
				C652.2,251,642.7,231,633,231z"/>
		</g>
		<g>
			<polygon fill="#9F5B26" points="635.1,297.3 630.1,297.3 630.1,284.6 630,246.1 635,246 635.1,284.6 			"/>
		</g>
		<g>
			<polygon fill="#9F5B26" points="633.1,269.7 618.1,254.6 621.6,251.1 633.1,262.6 645.6,250.1 649.2,253.7 			"/>
		</g>
	</g>
	<g display="inline">
		<g>
			<path fill="#5E3112" d="M592.1,246.8c-13.3,0-24.2-10.8-24.2-24.2c0-14.1,10.9-26,23.9-26c13,0,24.5,12.1,24.5,26
				C616.3,236,605.4,246.8,592.1,246.8z M591.8,201.7c-10,0-18.9,9.8-18.9,21c0,10.6,8.6,19.2,19.2,19.2s19.2-8.6,19.2-19.2
				C611.3,211.7,602,201.7,591.8,201.7z"/>
		</g>
		<g>
			<polygon fill="#5E3112" points="594.1,263.3 589.1,263.3 589.1,250.6 589,212 594,212 594.1,250.6 			"/>
		</g>
		<g>
			<polygon fill="#5E3112" points="592.3,235.7 577.2,220.6 580.7,217 592.3,228.6 604.7,216.1 608.3,219.6 			"/>
		</g>
	</g>
	<g display="inline">
		<g>
			<path fill="#5E3112" d="M635,281.8c-13.3,0-24.2-10.8-24.2-24.2c0-12.5,10.2-36.6,24.2-36.6s24.2,24.1,24.2,36.6
				C659.2,271,648.3,281.8,635,281.8z M635,226c-9.7,0-19.2,20-19.2,31.6c0,10.6,8.6,19.2,19.2,19.2s19.2-8.6,19.2-19.2
				C654.2,246,644.7,226,635,226z"/>
		</g>
		<g>
			<polygon fill="#5E3112" points="637.1,292.3 632.1,292.3 632.1,279.6 632,241.1 637,241 637.1,279.6 			"/>
		</g>
		<g>
			<polygon fill="#5E3112" points="635.1,264.7 620.1,249.6 623.6,246.1 635.1,257.6 647.6,245.1 651.2,248.7 			"/>
		</g>
	</g>
</g>
<g id="Layer_6" display="none">
	<g display="inline">
		<path fill="#603813" d="M840.9,513.3h-22v-10h22c3.4,0,6.6-0.8,9.6-2.2l4.5,9C850.6,512.2,845.9,513.3,840.9,513.3z M796.9,513.3
			h-22v-10h22V513.3z M752.9,513.3h-22v-10h22V513.3z M708.9,513.3h-22v-10h22V513.3z M664.9,513.3h-22v-10h22V513.3z M620.9,513.3
			h-22v-10h22V513.3z M576.9,513.3h-22v-10h22V513.3z M532.9,513.3h-22v-10h22V513.3z M488.9,513.3h-22v-10h22V513.3z M444.9,513.3
			h-22v-10h22V513.3z M400.9,513.3h-22v-10h22V513.3z M356.9,513.3h-22v-10h22V513.3z M312.9,513.3h-22v-10h22V513.3z M268.9,513.3
			h-22v-10h22V513.3z M224.9,513.3h-22v-10h22V513.3z M180.9,513.3h-22v-10h22V513.3z M136.9,513.3h-22v-10h22V513.3z M92.9,513.3
			h-7.8c-5.7,0-11.2-1.5-16.1-4.4l5.1-8.6c3.3,2,7.1,3,11,3h7.8V513.3z M871.2,490.5l-9.6-2.8c0.6-1.9,0.8-3.9,0.8-5.9v-14.6h10
			v14.6C872.5,484.8,872,487.7,871.2,490.5z M54.3,488.3c-0.4-2.1-0.7-4.3-0.7-6.5v-16.5h10v16.5c0,1.5,0.2,3,0.5,4.4L54.3,488.3z
			 M872.5,445.2h-10v-22h10V445.2z M63.6,443.3h-10v-22h10V443.3z M872.5,401.2h-10v-22h10V401.2z M63.6,399.3h-10v-22h10V399.3z
			 M872.5,357.2h-10v-22h10V357.2z M63.6,355.3h-10v-22h10V355.3z M872.5,313.2h-10v-22h10V313.2z M63.6,311.3h-10v-22h10V311.3z
			 M872.5,269.2h-10v-10.4c0-3.2-0.7-6.3-2-9.1l9.1-4.2c2,4.2,3,8.7,3,13.4V269.2z M63.6,267.3h-10v-8.5c0-5.4,1.4-10.7,4-15.4
			l8.7,4.9c-1.8,3.2-2.7,6.8-2.7,10.5V267.3z M847.4,238.3c-2.1-0.7-4.2-1-6.4-1H827v-10h13.9c3.2,0,6.4,0.5,9.4,1.4L847.4,238.3z
			 M80.2,237.9l-2.3-9.7c2.3-0.5,4.8-0.8,7.2-0.8H101v10H85.1C83.5,237.3,81.8,237.5,80.2,237.9z M805,237.3h-22v-10h22V237.3z
			 M761,237.3h-22v-10h22V237.3z M717,237.3h-22v-10h22V237.3z M673,237.3h-22v-10h22V237.3z M629,237.3h-22v-10h22V237.3z
			 M585,237.3h-22v-10h22V237.3z M541,237.3h-22v-10h22V237.3z M497,237.3h-22v-10h22V237.3z M453,237.3h-22v-10h22V237.3z
			 M409,237.3h-22v-10h22V237.3z M365,237.3h-22v-10h22V237.3z M321,237.3h-22v-10h22V237.3z M277,237.3h-22v-10h22V237.3z
			 M233,237.3h-22v-10h22V237.3z M189,237.3h-22v-10h22V237.3z M145,237.3h-22v-10h22V237.3z"/>
	</g>
</g>
<g id="Layer_7" display="none">
	<rect x="-398.4" y="273.1" display="inline" fill="#E5E5E5" width="1365.3" height="1167.2"/>
	<g display="inline">
		<path fill="#5E3112" d="M-400.3,384.7l14.7-11.9h22.4l-5.9,12l21,17.8l18-7.5l21-7.3l23.9,15h23v-30l25,15c0,0,13.6,6.2,19.6,0
			c6-6.2,16-15,16-15s41-4.3,45.5,0c4.5,4.3,0,30,0,30s9,7.3,24,8.8c15,1.5,23.3-1.5,25.9,0c2.6,1.5,13.1-22.3,20.6-20.2
			s27-3.7,37.5,0s-16.8,7.3-16.8,7.3s-5.7,4.7,12.3,13.3s60.3,0,60.3,0l-16.9,19.1v14.7v13.8l11,13.2l22-11.7c0,0,16.6,15,21.1,15
			s22.5-7.5,22.5-7.5l10.4,14.2c0,0,16,6.5,22,2c6-4.5,27,3.3,27,3.3s22.3-8.9,24.2-8.9s10.9,0,19.9,3c9,3,31.3,5.9,31.3,5.9
			s4.7-11.8,10.7-11.8c6,0,3.8,4.6,16.9,4.6s33,0,33,0l28.1-4.7l41.9-10.5c0,0,25.3-10.5,26.9-10.5c1.6,0,33.1,4.5,37.6,4.5
			s27.3-1.5,38.4,0c11.1,1.5,33.6,3,41.1,6c7.5,3,27.7,6,35.6,6c7.9,0,51.9-23.9,57.6-23.9c5.7,0,2.7-7.6,7.2-7.6
			c4.5,0-4.8,15.7-4.8,15.7s4.8,0.3,14.3-1c8.5-1.2,11.1-12.3,11.1-12.3s1.9-2.3-3.4-4.7c-11.8-5.2-9.8-28.3-9.8-27.7
			s65.1,7.7,65.1,7.7l14.6-15.2c0,0,13.5-10.5,22.5-10.5c9,0,19.7,7.5,29.3,7.5c9.7,0,28.6,3,28.6,3s-8.1-7.4,0-10.4
			c8.1-3,14.1-7.4,14.1-7.4h13.9l16-4.7v-9.3l37.6,9h21.4l13.1-9h34.9l5.6,22.8c0,0,7.5,4.6,16.5,4.6s30-7.4,30-7.4h17.9l1.1-107
			H-398.3L-400.3,384.7z"/>
		<path fill="#9F5B26" d="M-400.3,379.9l14.7-11.9h22.4l-5.9,12l21,17.8l18-7.5l21-7.3l23.9,15h23v-30l25,15c0,0,13.6,6.2,19.6,0
			c6-6.2,16-15,16-15s41-4.3,45.5,0c4.5,4.3,0,30,0,30s9,7.3,24,8.8c15,1.5,23.3-1.5,25.9,0c2.6,1.5,13.1-22.3,20.6-20.2
			c7.5,2.2,27-3.7,37.5,0c10.5,3.7-16.8,7.3-16.8,7.3s-5.7,4.7,12.3,13.3s60.3,0,60.3,0l-16.9,19.1V441v13.8l11,13.2l22-11.7
			c0,0,16.6,15,21.1,15s22.5-7.5,22.5-7.5L77.7,478c0,0,16,6.5,22,2c6-4.5,27,3.3,27,3.3s22.3-8.9,24.2-8.9s10.9,0,19.9,3
			c9,3,31.3,5.9,31.3,5.9s4.7-11.8,10.7-11.8c6,0,3.8,4.6,16.9,4.6s33,0,33,0l28.1-4.7l41.9-10.5c0,0,25.3-10.5,26.9-10.5
			c1.6,0,33.1,4.5,37.6,4.5s27.3-1.5,38.4,0c11.1,1.5,33.6,3,41.1,6c7.5,3,27.7,6,35.6,6c7.9,0,51.9-23.9,57.6-23.9
			c5.7,0,2.7-7.6,7.2-7.6c4.5,0-4.8,15.7-4.8,15.7s4.8,0.3,14.3-1c8.5-1.2,11.1-12.3,11.1-12.3s1.9-2.3-3.4-4.7
			c-11.8-5.2-9.8-28.3-9.8-27.7c0,0.6,65.1,7.7,65.1,7.7l14.6-15.2c0,0,13.5-10.5,22.5-10.5c9,0,19.7,7.5,29.3,7.5
			c9.7,0,28.6,3,28.6,3s-8.1-7.4,0-10.4c8.1-3,14.1-7.4,14.1-7.4h13.9l16-4.7V366l37.6,9h21.4l13.1-9h34.9l5.6,22.8
			c0,0,7.5,4.6,16.5,4.6s30-7.4,30-7.4h17.9l1.1-107H-398.3L-400.3,379.9z"/>
		<path fill="#CDA34F" d="M-400.3,373.9l14.7-11.9h22.4l-5.9,12l21,17.8l18-7.5l21-7.3l23.9,15h23v-30l25,15c0,0,13.6,6.2,19.6,0
			c6-6.2,16-15,16-15s41-4.3,45.5,0c4.5,4.3,0,30,0,30s9,7.3,24,8.8c15,1.5,23.3-1.5,25.9,0c2.6,1.5,13.1-22.3,20.6-20.2
			c7.5,2.2,27-3.7,37.5,0c10.5,3.7-16.8,7.3-16.8,7.3s-5.7,4.7,12.3,13.3s60.3,0,60.3,0l-16.9,19.1V435v13.8l11,13.2l22-11.7
			c0,0,16.6,15,21.1,15s22.5-7.5,22.5-7.5L77.7,472c0,0,16,6.5,22,2c6-4.5,27,3.3,27,3.3s22.3-8.9,24.2-8.9s10.9,0,19.9,3
			c9,3,31.3,5.9,31.3,5.9s4.7-11.8,10.7-11.8c6,0,3.8,4.6,16.9,4.6s33,0,33,0l28.1-4.7l41.9-10.5c0,0,25.3-10.5,26.9-10.5
			c1.6,0,33.1,4.5,37.6,4.5s27.3-1.5,38.4,0c11.1,1.5,33.6,3,41.1,6c7.5,3,27.7,6,35.6,6c7.9,0,51.9-23.9,57.6-23.9
			c5.7,0,2.7-7.6,7.2-7.6c4.5,0-4.8,15.7-4.8,15.7s4.8,0.3,14.3-1c8.5-1.2,11.1-12.3,11.1-12.3s1.9-2.3-3.4-4.7
			c-11.8-5.2-9.8-28.3-9.8-27.7c0,0.6,65.1,7.7,65.1,7.7l14.6-15.2c0,0,13.5-10.5,22.5-10.5c9,0,19.7,7.5,29.3,7.5
			c9.7,0,28.6,3,28.6,3s-8.1-7.4,0-10.4c8.1-3,14.1-7.4,14.1-7.4h13.9l16-4.7V360l37.6,9h21.4l13.1-9h34.9l5.6,22.8
			c0,0,7.5,4.6,16.5,4.6s30-7.4,30-7.4h17.9l1.1-107H-398.3L-400.3,373.9z"/>
	</g>
	<g display="inline">
		<path fill="#5E3112" d="M128.5,1388.7l1.5-6.8l3.3,1.4l2.6,3.8c0,0,5.5,1.9,4.4,4.5c-1.2,2.6-3.2,5.7-3.2,5.7h-2.6h-4.4l0.6-5.9
			L128.5,1388.7z"/>
		<path fill="#9F5B26" d="M128.5,1386.9l1.5-6.8l3.3,1.4l2.6,3.8c0,0,5.5,1.8,4.4,4.4c-1.2,2.6-3.2,5.6-3.2,5.6h-2.6h-4.4l0.6-5.7
			L128.5,1386.9z"/>
		<g>
			<path fill="#5E3112" d="M429.1,1374.2c0,0-9.8,5.3-3.8,10.6c6,5.2,5.8,5.3,5.8,5.3v-6.8h10.1h5.9v-8h5.5l-3.2-6h-5.5h-6.1
				l0.4,3.3L429.1,1374.2z"/>
			<polygon fill="#5E3112" points="119.8,1379 124.1,1378.6 124.1,1379.5 119.3,1381.2 118.1,1380.6 116,1376 			"/>
			<path fill="#9F5B26" d="M429.1,1371.5c0,0-9.8,5.3-3.8,10.6c6,5.2,5.8,5.3,5.8,5.3v-7h10.1h5.9v-7h5.5l-3.2-7h-5.5h-6.1l0.4,3.4
				L429.1,1371.5z"/>
			<polygon fill="#9F5B26" points="119.8,1378 124.1,1376.7 124.1,1378.6 119.3,1380.4 118.1,1379.7 116,1376 			"/>
		</g>
		<g>
			<path fill="#F6921E" d="M429.1,1367.9c0,0-9.8,5.3-3.8,10.6c6,5.2,5.8,5.3,5.8,5.3v-6.4h10.1h5.9v-8h5.5l-3.2-6h-5.5h-6.1
				l0.4,3.1L429.1,1367.9z"/>
			<path fill="#F6921E" d="M128.5,1383.3l1.5-6.8l3.3,1.4l2.6,3.8c0,0,5.5,2.1,4.4,4.7c-1.2,2.6-3.2,5.9-3.2,5.9h-2.6h-4.4l0.6-6
				L128.5,1383.3z"/>
			<polygon fill="#F6921E" points="119.6,1376.3 124.1,1376.3 124.1,1376.7 119.3,1378.5 118.1,1377.9 115.8,1376.3 			"/>
		</g>
	</g>
</g>
<g id="Layer_8" display="none">
	<g display="inline">
		<path fill="#603813" d="M673.6,1225.5h-20v-10h20c1.9,0,3.7-0.2,5.6-0.6l2.1,9.8C678.8,1225.2,676.2,1225.5,673.6,1225.5z
			 M633.6,1225.5h-20v-10h20V1225.5z M593.6,1225.5h-20v-10h20V1225.5z M553.6,1225.5h-20v-10h20V1225.5z M513.6,1225.5h-20v-10h20
			V1225.5z M473.6,1225.5h-20v-10h20V1225.5z M433.6,1225.5h-20v-10h20V1225.5z M393.6,1225.5h-20v-10h20V1225.5z M353.6,1225.5h-20
			v-10h20V1225.5z M313.6,1225.5h-20v-10h20V1225.5z M273.6,1225.5h-20v-10h20V1225.5z M233.6,1225.5h-20v-10h20V1225.5z
			 M193.6,1225.5h-20v-10h20V1225.5z M153.6,1225.5h-20v-10h20V1225.5z M113.6,1225.5h-20v-10h20V1225.5z M73.6,1225.5h-20v-10h20
			V1225.5z M33.6,1225.5h-20v-10h20V1225.5z M-6.4,1225.5h-20v-10h20V1225.5z M-46.4,1225.5h-20v-10h20V1225.5z M-88.2,1221.7
			c-6.9-3.5-12.6-9.3-16.1-16.2l9-4.4c2.5,5,6.6,9.2,11.6,11.7L-88.2,1221.7z M700.8,1212.9l-7.6-6.5c3.7-4.3,5.8-9.6,6.1-15.3
			l10,0.5C708.9,1199.5,705.9,1206.9,700.8,1212.9z M-97.9,1183.7h-10v-20h10V1183.7z M709.3,1171.4h-10v-20h10V1171.4z
			 M-97.9,1143.7h-10v-20h10V1143.7z M709.3,1131.4h-10v-20h10V1131.4z M-97.9,1103.7h-10v-20h10V1103.7z M709.3,1091.4h-10v-20h10
			V1091.4z M-97.9,1063.7h-10v-20h10V1063.7z M709.3,1051.4h-10v-20h10V1051.4z M-97.9,1023.7h-10v-20h10V1023.7z M709.3,1011.4h-10
			v-20h10V1011.4z M-97.9,983.7h-10v-20h10V983.7z M709.3,971.4h-10v-20h10V971.4z M-97.9,943.7h-10v-20h10V943.7z M709.3,931.4h-10
			v-20h10V931.4z M-97.9,903.7h-10v-20h10V903.7z M709.3,891.4h-10v-20h10V891.4z M-97.9,863.7h-10v-20h10V863.7z M709.3,851.4h-10
			v-20h10V851.4z M-97.9,823.7h-10v-20h10V823.7z M709.3,811.4h-10v-20h10V811.4z M-97.9,783.7h-10v-20h10V783.7z M709.3,771.4h-10
			v-20h10V771.4z M-97.9,743.7h-10v-20h10V743.7z M709.3,731.4h-10v-20h10V731.4z M-97.9,703.7h-10v-20h10V703.7z M709.3,691.4h-10
			v-20h10V691.4z M-97.9,663.7h-10v-20h10V663.7z M709.3,651.4h-10v-20h10V651.4z M-97.9,623.7h-10v-20h10V623.7z M709.3,611.4h-10
			v-20h10V611.4z M-97.9,583.7h-10v-20h10V583.7z M709.3,571.4h-10v-20h10V571.4z M-97.5,544.6l-9.9-1.6c1.2-7.7,5-14.8,10.7-20.2
			l6.9,7.3C-93.9,533.9-96.6,539.1-97.5,544.6z M695.4,535c-3-4.7-7.5-8.4-12.8-10.4l3.5-9.4c7.3,2.7,13.6,7.8,17.7,14.4L695.4,535z
			 M-74.9,523.1l-1.1-9.9c1.3-0.1,2.6-0.2,3.9-0.2h16.7v10h-16.7C-73,523-74,523-74.9,523.1z M664.6,523h-20v-10h20V523z M624.6,523
			h-20v-10h20V523z M584.6,523h-20v-10h20V523z M544.6,523h-20v-10h20V523z M504.6,523h-20v-10h20V523z M464.6,523h-20v-10h20V523z
			 M424.6,523h-20v-10h20V523z M384.6,523h-20v-10h20V523z M344.6,523h-20v-10h20V523z M304.6,523h-20v-10h20V523z M264.6,523h-20
			v-10h20V523z M224.6,523h-20v-10h20V523z M184.6,523h-20v-10h20V523z M144.6,523h-20v-10h20V523z M104.6,523h-20v-10h20V523z
			 M64.6,523h-20v-10h20V523z M24.6,523h-20v-10h20V523z M-15.4,523h-20v-10h20V523z"/>
	</g>
</g>
<g id="Layer_9" display="none">
	<rect x="0" y="388.5" display="inline" fill="#E5E5E5" width="1365.3" height="767.8"/>
	<path display="inline" fill="#5E3112" d="M680.2,400.2l-657.4,0.1l0.1,742.1l203.5,13.9c0,0-19.9-27.3-18.3-30.2
		c1.6-2.9-20.9-8.7-20.9-8.7s-42.5-7.7-45.4-5.8s-21.3,1-39.6,0c-18.4-1-21.3-4.8-24.2-7.7c-2.9-2.9-4.8-36.7-4.8-36.7l38.7-53.2
		c0,0-24.2-7.7-30.9-11.6c-6.8-3.9-2.9-28,0-31.9c2.9-3.9,9.7-18.4,9.7-18.4s27.1-22.2,28.1-26.1c1-3.9,13.3-48.3,13.3-48.3
		l-13.5,12.6l-22.4-84.1v-19.3l6.7-29c0,0-2.6-16.4,0.1-23.2c2.6-6.8,15.8-37.7,15.8-37.7l12.4,15.4l23.3-62.7
		c0,0,4.9-5.8,18.3-14.5s14.2-24.2,14.2-24.2l-3.1-12.5l-5.3-23.1h21.6c0,0,4.5-8.8,8-17.5c3.5-8.7,5.2-10.7,11-23.2
		c5.8-12.6,23.2-10.7,28-10.7s30,3.9,30,3.9l-23.1,32c0,0,38.6,4.7,41.5,2.8s4.8-7.7,9.7-12.6s20.3-19.3,20.3-19.3s9.7,5.8,13.5,6.8
		c3.9,1,18.4,8.7,18.4,8.7l10.6-20.3l19.3,9.7l3.9,7.7c0,0,8.7,10.6,15.5,3.9c6.8-6.8,20.9-4.8,20.9-4.8s7.1,10.6,11,10.6
		s21.3-17.2,24.2-19.1c2.9-1.9,37.7-9.5,37.7-9.5s27.1,0,30,0c2.9,0,23.2,0,23.2,0s4.8,0,13.5,0s10.6,0,10.6,0l16.4-18.6l14.5-4
		l21.3,1l4.8,12.6h45.4h45.5l4.9-12.6l21.4-1l14.6,4.1l16.5,18.6c0,0,1.9,0,10.7,0c8.7,0,13.6,0,13.6,0s20.4,0,23.3,0
		c2.9,0,30.1,0,30.1,0s34.9,7.5,37.9,9.5c2.9,1.9,20.4,19.2,24.3,19.2c3.9,0,11.1-10.7,11.1-10.7s14.2-2,21,4.8s15.5-3.9,15.5-3.9
		l3.9-7.7l19.4-9.7l10.7,20.3c0,0,14.6-7.7,18.4-8.7s13.6-6.8,13.6-6.8s15.5,14.5,20.4,19.3c4.9,4.8,6.8,10.6,9.7,12.6
		c2.9,1.9,41.6-2.8,41.6-2.8l-23.2-32c0,0,25.2-3.9,30.1-3.9s22.3-1.9,28.2,10.6s7.6,14.6,11.1,23.3c3.5,8.7,8,17.5,8,17.5h21.7
		l-5.3,23.1l-3.1,12.5c0,0,0.8,15.4,14.3,24.1c13.5,8.7,18.4,14.5,18.4,14.5l23.4,62.7l12.4-15.4c0,0,13.2,30.9,15.8,37.7
		c2.7,6.8,0.4,23.2,0.4,23.2l6.9,29v19.3l-22.7,84.1l-12.4-11.9c0,0,11.2,43.8,12.2,47.6c1,3.9,28.1,26.1,28.1,26.1
		s6.8,14.5,9.7,18.4c2.9,3.9,6.8,28,0,31.9s-31.1,11.6-31.1,11.6l38.8,53.2c0,0-1.9,33.8-4.9,36.7s-5.8,6.8-24.3,7.7
		c-18.4,1-36.9,1.9-39.8,0c-2.9-1.9-45.6,5.8-45.6,5.8s-22.5,5.8-21,8.7c1.6,2.9-14.7,30.3-14.7,30.3l200.7-14l0.2-742.1
		L680.2,400.2z"/>
	<path display="inline" fill="#9F5B26" d="M680.2,394.4l-669.3,0.2l0.1,755.7l205.2,6c0,0-18.2-19.8-16.6-22.7
		c1.6-3-21.3-8.9-21.3-8.9s-43.3-7.9-46.3-5.9c-3,2-21.7,1-40.3,0s-21.7-4.9-24.6-7.9c-3-3-4.9-37.4-4.9-37.4l39.4-54.1
		c0,0-24.6-7.9-31.5-11.8s-3-28.5,0-32.5s9.8-18.7,9.8-18.7s27.6-22.6,28.6-26.6c1-3.9,23.6-52.2,23.6-52.2l-23.4,15.7l-22.5-85.6
		v-19.7l6.4-29.5c0,0-2.8-16.7-0.1-23.6c2.7-6.9,16-38.4,16-38.4l22.6,15.7l13.7-64c0,0,5-5.9,18.7-14.8
		c13.7-8.9,14.5-24.6,14.5-24.6l-3.1-12.9l-5.4-23.7h22c0,0,4.6-8.7,8.1-17.6c3.5-8.9,5.3-10.8,11.2-23.6
		c5.9-12.8,23.6-10.8,28.5-10.8s30.5,4,30.5,4L254,559.8c0,0,31.5,2,34.4,0c3-2,4.9-7.9,9.8-12.8c4.9-4.9,20.7-19.7,20.7-19.7
		s9.8,5.9,13.8,6.9c3.9,1,18.7,8.9,18.7,8.9l10.8-20.7l19.7,9.8l3.9,7.9c0,0,8.9,10.8,15.7,3.9s21.3-4.9,21.3-4.9
		s7.3,10.8,11.2,10.8s21.7-17.7,24.6-19.7c3-2,38.4-9.9,38.4-9.9s27.6,0,30.5,0s23.6,0,23.6,0s4.9,0,13.8,0s10.8,0,10.8,0l16.7-18.7
		l14.8-3.9l21.7,0.9l4.9,12.7h46.3h46.3l4.9-12.7l21.7-0.9l14.8,3.9l16.8,18.7c0,0,2,0,10.9,0s13.8,0,13.8,0s20.8,0,23.7,0
		c3,0,30.6,0,30.6,0s35.6,7.9,38.6,9.9s20.8,19.7,24.7,19.7s11.3-10.8,11.3-10.8s14.4-2,21.4,4.9c6.9,6.9,15.8-3.9,15.8-3.9l4-7.9
		l19.8-9.8l10.9,20.7c0,0,14.8-7.9,18.8-8.9c4-1,13.8-6.9,13.8-6.9s15.8,14.8,20.8,19.7c4.9,4.9,6.9,10.8,9.9,12.8
		c3,2,34.6,0,34.6,0l-15.8-35.4c0,0,25.7-3.9,30.6-3.9s22.7-2,28.7,10.8s7.7,14.6,11.3,23.5c3.6,8.9,8.2,17.6,8.2,17.6h22.1
		l-5.4,23.7l-3.1,12.9c0,0,0.8,15.8,14.6,24.6c13.7,8.9,18.8,14.8,18.8,14.8l13.8,64l22.7-15.7c0,0,13.4,31.5,16.1,38.4
		c2.7,6.9,0,23.6,0,23.6l6.7,29.5v19.7l-22.8,85.6l-23.7-15.7c0,0,22.7,48.2,23.7,52.2s28.7,26.6,28.7,26.6s6.9,14.8,9.9,18.7
		c3,3.9,6.9,28.5,0,32.5c-6.9,3.9-31.6,11.8-31.6,11.8l39.5,54.1c0,0-2,34.4-4.9,37.4c-3,3-5.9,6.9-24.7,7.9c-18.8,1-37.6,2-40.5,0
		c-3-2-46.5,5.9-46.5,5.9s-22.9,6-21.4,9c1.6,3-16.7,22.7-16.7,22.7l206.1-6l0.2-755.7L680.2,394.4z"/>
	<path display="inline" fill="#CDA34F" d="M680.1,388.3L0,388.5l0.1,767.9h210c0,0-20-13.9-18.4-16.9s-21.6-9.1-21.6-9.1s-44-8-47-6
		s-22,1-41,0s-22-5-25-8s-5-38-5-38l40-55c0,0-25-8-32-12s-3-29,0-33s10-19,10-19s28-23,29-27c1-4,32.9-54.7,32.9-54.7l-32.9,17.7
		l-23-87v-20l6.7-30c0,0-2.7-17,0-24c2.7-7,16.3-39,16.3-39l31.9,17l5-66c0,0,5.1-6,19-15s14.7-25,14.7-25l-3.2-13l-5.4-24h22.4
		c0,0,4.6-9,8.3-18s5.4-11,11.4-24s24-11,29-11s31,4,31,4l-9.1,39.4c0,0,25.1-1.4,28.1-3.4s5-8,10-13s21-20,21-20s10,6,14,7
		s19,9,19,9l11-21l20,10l4,8c0,0,9,11,16,4s21.6-5,21.6-5s7.4,11,11.4,11s22-18,25-20s39-10,39-10s28,0,31,0s24,0,24,0s5,0,14,0
		s11,0,11,0l17-19l15-4l22,1l5,13h47h47.1l5-13l22.1-1l15.1,4l17.1,19c0,0,2,0,11,0s14.1,0,14.1,0s21.1,0,24.1,0c3,0,31.1,0,31.1,0
		s36.2,8,39.2,10c3,2,21.1,20,25.1,20c4,0,11.4-11,11.4-11s14.7-2,21.7,5s16.1-4,16.1-4l4-8l20.1-10l11,21c0,0,15.1-8,19.1-9
		c4-1,14.1-7,14.1-7s16.1,15,21.1,20c5,5,7,11,10,13c3,2,28.3,3.4,28.3,3.4l-9.2-39.4c0,0,26.1-4,31.1-4s23.1-2,29.1,11
		s7.8,15,11.4,24c3.6,9,8.3,18,8.3,18h22.5l-5.5,24l-3.2,13c0,0,0.8,16,14.8,25c14,9,19.1,15,19.1,15l5.1,66l31.9-17
		c0,0,13.6,32,16.4,39c2.7,7,0.2,24,0.2,24l7,30v20l-23.4,87l-33.2-17.7c0,0,32,50.7,33,54.7s29.1,27,29.1,27s7,15,10,19
		c3,4,7,29,0,33s-32.1,12-32.1,12l40.2,55c0,0-2,35-5,38s-6,7-25.1,8c-19.1,1-38.2,2-41.2,0c-3-2-47.2,6-47.2,6s-23.3,6.1-21.7,9.1
		c1.6,3-18.5,16.9-18.5,16.9H1363l0.2-767.9L680.1,388.3z"/>
	<g display="inline">
		<g>
			<g>
				<g>
					<path fill="#9F5B26" d="M63.6,933.8c-13.3,0-24.2-10.8-24.2-24.2c0-12.5,10.2-36.6,24.2-36.6s24.2,24.1,24.2,36.6
						C87.8,922.9,77,933.8,63.6,933.8z M63.6,878c-9.7,0-19.2,20-19.2,31.6c0,10.6,8.6,19.2,19.2,19.2s19.2-8.6,19.2-19.2
						C82.8,898,73.3,878,63.6,878z"/>
				</g>
				<g>
					<polygon fill="#9F5B26" points="65.1,944.3 60.1,944.3 60.1,931.6 60,893 65,893 65.1,931.5 					"/>
				</g>
				<g>
					<polygon fill="#9F5B26" points="63.8,916.6 48.7,901.5 52.2,898 63.8,909.5 76.3,897.1 79.8,900.6 					"/>
				</g>
			</g>
			<g>
				<g>
					<path fill="#5E3112" d="M65.6,929.8c-13.3,0-24.2-10.8-24.2-24.2c0-12.5,10.2-36.6,24.2-36.6s24.2,24.1,24.2,36.6
						C89.8,918.9,79,929.8,65.6,929.8z M65.6,874c-9.7,0-19.2,20-19.2,31.6c0,10.6,8.6,19.2,19.2,19.2s19.2-8.6,19.2-19.2
						C84.8,894,75.3,874,65.6,874z"/>
				</g>
				<g>
					<polygon fill="#5E3112" points="68.1,940.3 63.1,940.3 63.1,927.6 63,889 68,889 68.1,927.5 					"/>
				</g>
				<g>
					<polygon fill="#5E3112" points="65.8,912.6 50.7,897.5 54.2,894 65.8,905.5 78.3,893.1 81.8,896.6 					"/>
				</g>
			</g>
		</g>
		<g>
			<g>
				<g>
					<path fill="#9F5B26" d="M1312.6,727.8c-13.3,0-24.2-10.8-24.2-24.2c0-12.5,10.2-36.6,24.2-36.6s24.2,24.1,24.2,36.6
						C1336.8,716.9,1326,727.8,1312.6,727.8z M1312.6,672c-9.7,0-19.2,20-19.2,31.6c0,10.6,8.6,19.2,19.2,19.2s19.2-8.6,19.2-19.2
						C1331.8,692,1322.3,672,1312.6,672z"/>
				</g>
				<g>
					<polygon fill="#9F5B26" points="1314.1,738.3 1309.1,738.3 1309.1,725.6 1309,687 1314,687 1314.1,725.5 					"/>
				</g>
				<g>
					<polygon fill="#9F5B26" points="1312.8,710.6 1297.7,695.5 1301.2,692 1312.8,703.5 1325.3,691.1 1328.8,694.6 					"/>
				</g>
			</g>
			<g>
				<g>
					<path fill="#5E3112" d="M1314.6,723.8c-13.3,0-24.2-10.8-24.2-24.2c0-12.5,10.2-36.6,24.2-36.6s24.2,24.1,24.2,36.6
						C1338.8,712.9,1328,723.8,1314.6,723.8z M1314.6,668c-9.7,0-19.2,20-19.2,31.6c0,10.6,8.6,19.2,19.2,19.2s19.2-8.6,19.2-19.2
						C1333.8,688,1324.3,668,1314.6,668z"/>
				</g>
				<g>
					<polygon fill="#5E3112" points="1317.1,734.3 1312.1,734.3 1312.1,721.6 1312,683 1317,683 1317.1,721.5 					"/>
				</g>
				<g>
					<polygon fill="#5E3112" points="1314.8,706.6 1299.7,691.5 1303.2,688 1314.8,699.5 1327.3,687.1 1330.8,690.6 					"/>
				</g>
			</g>
		</g>
		<g>
			<g>
				<g>
					<path fill="#9F5B26" d="M1270.6,662.8c-13.3,0-24.2-10.8-24.2-24.2c0-14.1,10.9-26,23.9-26c13,0,24.5,12.1,24.5,26
						C1294.8,651.9,1284,662.8,1270.6,662.8z M1270.3,617.6c-10,0-18.9,9.8-18.9,21c0,10.6,8.6,19.2,19.2,19.2s19.2-8.6,19.2-19.2
						C1289.8,627.6,1280.5,617.6,1270.3,617.6z"/>
				</g>
				<g>
					<polygon fill="#9F5B26" points="1272.1,679.3 1267.1,679.3 1267.1,666.6 1267,628 1272,628 1272.1,666.5 					"/>
				</g>
				<g>
					<polygon fill="#9F5B26" points="1270.8,651.6 1255.7,636.5 1259.2,633 1270.8,644.5 1283.3,632.1 1286.8,635.6 					"/>
				</g>
			</g>
			<g>
				<g>
					<path fill="#5E3112" d="M1272.6,658.8c-13.3,0-24.2-10.8-24.2-24.2c0-14.1,10.9-26,23.9-26c13,0,24.5,12.1,24.5,26
						C1296.8,647.9,1286,658.8,1272.6,658.8z M1272.3,613.6c-10,0-18.9,9.8-18.9,21c0,10.6,8.6,19.2,19.2,19.2s19.2-8.6,19.2-19.2
						C1291.8,623.6,1282.5,613.6,1272.3,613.6z"/>
				</g>
				<g>
					<polygon fill="#5E3112" points="1275.1,675.3 1270.1,675.3 1270.1,662.6 1270,624 1275,624 1275.1,662.5 					"/>
				</g>
				<g>
					<polygon fill="#5E3112" points="1272.8,647.6 1257.7,632.5 1261.2,629 1272.8,640.5 1285.3,628.1 1288.8,631.6 					"/>
				</g>
			</g>
		</g>
		<g>
			<g>
				<g>
					<path fill="#9F5B26" d="M38.6,580.8c-13.3,0-24.2-10.8-24.2-24.2c0-14.1,10.9-26,23.9-26c13,0,24.5,12.1,24.5,26
						C62.8,569.9,52,580.8,38.6,580.8z M38.3,535.6c-10,0-18.9,9.8-18.9,21c0,10.6,8.6,19.2,19.2,19.2s19.2-8.6,19.2-19.2
						C57.8,545.6,48.5,535.6,38.3,535.6z"/>
				</g>
				<g>
					<polygon fill="#9F5B26" points="40.1,597.3 35.1,597.3 35.1,584.6 35,546 40,546 40.1,584.5 					"/>
				</g>
				<g>
					<polygon fill="#9F5B26" points="38.8,569.6 23.7,554.5 27.2,551 38.8,562.5 51.3,550.1 54.8,553.6 					"/>
				</g>
			</g>
			<g>
				<g>
					<path fill="#5E3112" d="M40.6,576.8c-13.3,0-24.2-10.8-24.2-24.2c0-14.1,10.9-26,23.9-26c13,0,24.5,12.1,24.5,26
						C64.8,565.9,54,576.8,40.6,576.8z M40.3,531.6c-10,0-18.9,9.8-18.9,21c0,10.6,8.6,19.2,19.2,19.2s19.2-8.6,19.2-19.2
						C59.8,541.6,50.5,531.6,40.3,531.6z"/>
				</g>
				<g>
					<polygon fill="#5E3112" points="43.1,593.3 38.1,593.3 38.1,580.6 38,542 43,542 43.1,580.5 					"/>
				</g>
				<g>
					<polygon fill="#5E3112" points="40.8,565.6 25.7,550.5 29.2,547 40.8,558.5 53.3,546.1 56.8,549.6 					"/>
				</g>
			</g>
		</g>
	</g>
	<g display="inline">
		<g>
			
				<rect x="671.7" y="885.1" transform="matrix(0.7071 -0.7071 0.7071 0.7071 -481.1301 763.9376)" fill="#324A5E" width="19.8" height="155.3"/>
			
				<rect x="672.8" y="888.3" transform="matrix(0.7071 -0.7071 0.7071 0.7071 -484.2664 762.5935)" fill="#4B6475" width="11.3" height="155.1"/>
			<path fill="#324A5E" d="M728.3,1007.3c-25.2,25.2-66.1,25.2-91.3,0c-25.2-25.2-25.2-66.1,0-91.3c25.2-25.2,66.1-25.2,91.3,0
				C753.4,941.2,753.4,982.2,728.3,1007.3z M647.5,926.6c-19.4,19.4-19.4,50.9,0,70.3c19.4,19.4,50.9,19.4,70.3,0
				c19.4-19.4,19.4-50.9,0-70.3C698.4,907.2,666.9,907.2,647.5,926.6z"/>
			<path fill="#4B6475" d="M717.6,997c-19.4,19.2-50.7,19.1-70-0.2c-19.3-19.3-19.4-50.7-0.2-70l-10.5-10.5
				c-25,25.2-24.9,66,0.2,91.1s65.9,25.2,91.1,0.2L717.6,997z"/>
		</g>
		<path fill="#FFFFFF" d="M647.5,926.6c-19.4,19.4-19.4,50.9,0,70.3c19.4,19.4,50.9,19.4,70.3,0c19.4-19.4,19.4-50.9,0-70.3
			C698.4,907.2,666.9,907.2,647.5,926.6z"/>
		<path fill="#F2F2F2" d="M717.8,926.6c-0.2-0.2-0.3-0.3-0.5-0.5l-3,4l-67.2,66.3c0.1,0.1,0.3,0.3,0.4,0.4
			c19.4,19.4,50.9,19.4,70.3,0C737.1,977.5,737.1,945.9,717.8,926.6z"/>
		<g>
			<polygon fill="#991919" points="685.3,958.4 655.1,934.7 679.4,964.3 			"/>
			<polygon fill="#1A5499" points="679.8,964.6 709.1,988.7 685.6,958.8 			"/>
		</g>
		<g>
			<circle fill="#CC8F23" cx="682.6" cy="961.7" r="8.7"/>
			<circle fill="#5E3112" cx="682.6" cy="961.7" r="5.5"/>
		</g>
	</g>
</g>
<g id="Layer_10">
	<rect x="0.9" y="1.7" fill="#E5E5E5" width="1365.3" height="1540.9"/>
	<g>
		<path fill="#5E3112" d="M-0.1,113.4l14.7-11.9H37l-5.9,12l21,17.8l18-7.5l21-7.3l23.9,15h23v-30l25,15c0,0,13.6,6.2,19.6,0
			s16-15,16-15s41-4.3,45.5,0c4.5,4.3,0,30,0,30s9,7.3,24,8.8c15,1.5,23.3-1.5,25.9,0c2.6,1.5,13.1-22.3,20.6-20.2
			c7.5,2.2,27-3.7,37.5,0s-16.8,7.3-16.8,7.3s-5.7,4.7,12.3,13.3c18,8.6,60.3,0,60.3,0L391,159.8v14.7v13.8l11,13.2l22-11.7
			c0,0,16.6,15,21.1,15s22.5-7.5,22.5-7.5l10.4,14.2c0,0,16,6.5,22,2c6-4.5,27,3.3,27,3.3s22.3-8.9,24.2-8.9s10.9,0,19.9,3
			c9,3,31.3,5.9,31.3,5.9s4.7-11.8,10.7-11.8s3.8,4.6,16.9,4.6c13.1,0,33,0,33,0l28.1-4.7l41.9-10.5c0,0,25.3-10.5,26.9-10.5
			c1.6,0,33.1,4.5,37.6,4.5c4.5,0,27.3-1.5,38.4,0c11.1,1.5,33.6,3,41.1,6c7.5,3,27.7,6,35.6,6s51.9-23.9,57.6-23.9s2.7-7.6,7.2-7.6
			c4.5,0-4.8,15.7-4.8,15.7s4.8,0.3,14.3-1c8.5-1.2,11.1-12.3,11.1-12.3s1.9-2.3-3.4-4.7c-11.8-5.2-9.8-28.3-9.8-27.7
			c0,0.6,65.1,7.7,65.1,7.7l14.6-15.2c0,0,13.5-10.5,22.5-10.5s19.7,7.5,29.3,7.5c9.7,0,28.6,3,28.6,3s-8.1-7.4,0-10.4
			c8.1-3,14.1-7.4,14.1-7.4h13.9l16-4.7v-9.3l37.6,9h21.4l13.1-9h34.9l5.6,22.8c0,0,7.5,4.6,16.5,4.6c9,0,30-7.4,30-7.4h17.9
			l1.1-107H2L-0.1,113.4z"/>
		<path fill="#9F5B26" d="M-0.1,108.6l14.7-11.9H37l-5.9,12l21,17.8l18-7.5l21-7.3l23.9,15h23v-30l25,15c0,0,13.6,6.2,19.6,0
			c6-6.2,16-15,16-15s41-4.3,45.5,0c4.5,4.3,0,30,0,30s9,7.3,24,8.8c15,1.5,23.3-1.5,25.9,0c2.6,1.5,13.1-22.3,20.6-20.2
			c7.5,2.2,27-3.7,37.5,0s-16.8,7.3-16.8,7.3s-5.7,4.7,12.3,13.3c18,8.6,60.3,0,60.3,0L391,155v14.7v13.8l11,13.2l22-11.7
			c0,0,16.6,15,21.1,15s22.5-7.5,22.5-7.5l10.4,14.2c0,0,16,6.5,22,2c6-4.5,27,3.3,27,3.3s22.3-8.9,24.2-8.9s10.9,0,19.9,3
			c9,3,31.3,5.9,31.3,5.9s4.7-11.8,10.7-11.8s3.8,4.6,16.9,4.6c13.1,0,33,0,33,0l28.1-4.7l41.9-10.5c0,0,25.3-10.5,26.9-10.5
			c1.6,0,33.1,4.5,37.6,4.5c4.5,0,27.3-1.5,38.4,0c11.1,1.5,33.6,3,41.1,6s27.7,6,35.6,6s51.9-23.9,57.6-23.9s2.7-7.6,7.2-7.6
			c4.5,0-4.8,15.7-4.8,15.7s4.8,0.3,14.3-1c8.5-1.2,11.1-12.3,11.1-12.3s1.9-2.3-3.4-4.7c-11.8-5.2-9.8-28.3-9.8-27.7
			c0,0.6,65.1,7.7,65.1,7.7l14.6-15.2c0,0,13.5-10.5,22.5-10.5s19.7,7.5,29.3,7.5c9.7,0,28.6,3,28.6,3s-8.1-7.4,0-10.4
			c8.1-3,14.1-7.4,14.1-7.4h13.9l16-4.7v-9.3l37.6,9h21.4l13.1-9h34.9l5.6,22.8c0,0,7.5,4.6,16.5,4.6c9,0,30-7.4,30-7.4h17.9
			l1.1-107H2L-0.1,108.6z"/>
		<path fill="#CDA34F" d="M-0.1,102.6l14.7-11.9H37l-5.9,12l21,17.8l18-7.5l21-7.3l23.9,15h23v-30l25,15c0,0,13.6,6.2,19.6,0
			c6-6.2,16-15,16-15s41-4.3,45.5,0c4.5,4.3,0,30,0,30s9,7.3,24,8.8c15,1.5,23.3-1.5,25.9,0c2.6,1.5,13.1-22.3,20.6-20.2
			c7.5,2.2,27-3.7,37.5,0s-16.8,7.3-16.8,7.3s-5.7,4.7,12.3,13.3c18,8.6,60.3,0,60.3,0L391,149v14.7v13.8l11,13.2l22-11.7
			c0,0,16.6,15,21.1,15s22.5-7.5,22.5-7.5l10.4,14.2c0,0,16,6.5,22,2c6-4.5,27,3.3,27,3.3s22.3-8.9,24.2-8.9s10.9,0,19.9,3
			c9,3,31.3,5.9,31.3,5.9s4.7-11.8,10.7-11.8s3.8,4.6,16.9,4.6c13.1,0,33,0,33,0l28.1-4.7l41.9-10.5c0,0,25.3-10.5,26.9-10.5
			c1.6,0,33.1,4.5,37.6,4.5c4.5,0,27.3-1.5,38.4,0c11.1,1.5,33.6,3,41.1,6s27.7,6,35.6,6s51.9-23.9,57.6-23.9s2.7-7.6,7.2-7.6
			c4.5,0-4.8,15.7-4.8,15.7s4.8,0.3,14.3-1c8.5-1.2,11.1-12.3,11.1-12.3s1.9-2.3-3.4-4.7c-11.8-5.2-9.8-28.3-9.8-27.7
			c0,0.6,65.1,7.7,65.1,7.7l14.6-15.2c0,0,13.5-10.5,22.5-10.5s19.7,7.5,29.3,7.5c9.7,0,28.6,3,28.6,3s-8.1-7.4,0-10.4
			c8.1-3,14.1-7.4,14.1-7.4h13.9l16-4.7v-9.3l37.6,9h21.4l13.1-9h34.9l5.6,22.8c0,0,7.5,4.6,16.5,4.6c9,0,30-7.4,30-7.4h17.9
			l1.1-107H2L-0.1,102.6z"/>
	</g>
</g>
</svg>
